<svg xmlns="http://www.w3.org/2000/svg" width="24" height="24" fill="currentColor" viewBox="0 0 24 24">
  <path fill-rule="evenodd" d="M11.711 6.237a.75.75 0 1 0-1.422-.474l-2 6A.75.75 0 0 0 9 12.75h2.96l-1.671 5.013a.75.75 0 0 0 1.422.474l2-6A.75.75 0 0 0 13 11.25h-2.96l1.671-5.013ZM6.768 5.25H7a.75.75 0 0 1 0 1.5h-.2c-.852 0-1.447 0-1.91.038-.453.037-.714.107-.911.207a2.25 2.25 0 0 0-.984.983c-.1.198-.17.459-.207.913-.037.462-.038 1.057-.038 1.909v2.4c0 .852 0 1.447.038 1.91.037.453.107.714.207.911.216.424.56.768.984.984.197.1.458.17.912.207.462.037 1.057.038 1.909.038H7a.75.75 0 1 1 0 1.5h-.232c-.813 0-1.469 0-2-.043-.546-.045-1.026-.14-1.47-.366a3.75 3.75 0 0 1-1.64-1.639c-.226-.444-.32-.924-.365-1.47-.043-.531-.043-1.187-.043-2v-2.464c0-.813 0-1.469.043-2 .045-.546.14-1.026.366-1.47a3.75 3.75 0 0 1 1.639-1.64c.444-.226.924-.32 1.47-.365.531-.043 1.187-.043 2-.043Zm10.341 1.538c-.462-.037-1.057-.038-1.909-.038H15a.75.75 0 0 1 0-1.5h.232c.813 0 1.469 0 2 .043.546.045 1.026.14 1.47.366a3.75 3.75 0 0 1 1.64 1.639c.152.3.245.617.303.96.141.007.27.02.392.045a2.75 2.75 0 0 1 2.16 2.16c.053.268.053.571.053.964v1.146c0 .393 0 .696-.053.963a2.75 2.75 0 0 1-2.16 2.161 2.774 2.774 0 0 1-.36.043A3.751 3.751 0 0 1 17 18.75h-2a.75.75 0 0 1 0-1.5h2A2.25 2.25 0 0 0 19.25 15v-4.2c0-.852 0-1.447-.038-1.91-.038-.453-.107-.714-.207-.912a2.25 2.25 0 0 0-.983-.983c-.198-.1-.459-.17-.913-.207Zm3.641 3.98c0-.361 0-.692-.004-.994.495.1.882.487.98.982.02.103.024.243.024.744v1c0 .5-.004.641-.024.744a1.25 1.25 0 0 1-.976.98v-3.456Z" clip-rule="evenodd"/>
</svg>
