<svg xmlns="http://www.w3.org/2000/svg" width="24" height="24" fill="currentColor" viewBox="0 0 24 24">
  <path fill-rule="evenodd" d="M20.75 1a.75.75 0 00-1.5 0v2.25H17a.75.75 0 000 1.5h2.25V7a.75.75 0 001.5 0V4.75H23a.75.75 0 000-1.5h-2.25V1zm-9.104 6.339a.75.75 0 01.77.037l3 2a.75.75 0 11-.832 1.248L12.75 9.401V16a2.75 2.75 0 11-1.5-2.45V8a.75.75 0 01.396-.661zM10 14.75a1.25 1.25 0 110 2.5 1.25 1.25 0 010-2.5z" opacity=".4"/>
  <path fill-rule="evenodd" d="M8.367 3.25H13.5a.75.75 0 010 1.5H8.4c-1.132 0-1.937 0-2.566.052-.62.05-1.005.147-1.31.302a3.25 3.25 0 00-1.42 1.42c-.155.305-.251.69-.302 1.31-.051.63-.052 1.434-.052 2.566v5.2c0 1.133 0 1.937.052 2.566.05.62.147 1.005.302 1.31a3.25 3.25 0 001.42 1.42c.305.155.69.251 1.31.302.63.051 1.434.052 2.566.052h5.2c1.133 0 1.937 0 2.566-.052.62-.05 1.005-.147 1.31-.302a3.25 3.25 0 001.42-1.42c.155-.305.251-.69.302-1.31.051-.63.052-1.433.052-2.566v-5.1a.75.75 0 011.5 0v5.133c0 1.092 0 1.958-.057 2.655-.058.714-.18 1.317-.46 1.869a4.75 4.75 0 01-2.076 2.075c-.552.281-1.155.403-1.869.461-.697.057-1.563.057-2.655.057H8.367c-1.092 0-1.958 0-2.655-.057-.714-.058-1.317-.18-1.868-.46a4.75 4.75 0 01-2.076-2.076c-.281-.552-.403-1.155-.461-1.869-.057-.697-.057-1.563-.057-2.655V10.367c0-1.092 0-1.958.057-2.655.058-.714.18-1.317.46-1.868a4.75 4.75 0 012.077-2.076c.55-.281 1.154-.403 1.868-.461.697-.057 1.563-.057 2.655-.057z"/>
</svg>
