<svg xmlns="http://www.w3.org/2000/svg" width="24" height="24" fill="currentColor" viewBox="0 0 24 24">
  <path fill-rule="evenodd" d="M21.927 6.25a.75.75 0 01.758.742l-.75.008-.75.008a.75.75 0 01.742-.758zm.008.75l-.75.008v.017l.001.051.002.196.008.723.022 2.396c.016 1.878.032 4.125.032 5.609v3.17c0 .525 0 .88-.019 1.144-.018.27-.051.354-.062.377a.75.75 0 01-.722.408c-.024-.002-.114-.017-.355-.14-.236-.12-.54-.303-.99-.572l-.386.643.386-.643-.042-.025c-.484-.291-.783-.47-1.1-.612l-.306.685.306-.685a5.75 5.75 0 00-1.655-.458c-.344-.042-.692-.042-1.258-.042h-.049c-.728 0-1.453.003-2.177.006-1.44.006-2.874.011-4.312-.006a.75.75 0 10-.018 1.5c1.45.017 2.905.012 4.353.006.72-.003 1.439-.006 2.154-.006.63 0 .883.001 1.127.03.423.052.835.166 1.223.34.225.1.443.23.983.553l.023.014c.42.252.768.461 1.056.608.289.147.598.277.932.3a2.25 2.25 0 002.164-1.225c.151-.298.2-.63.222-.954.022-.322.022-.728.022-1.218V16c0-1.491-.016-3.744-.032-5.622-.008-.94-.017-1.786-.023-2.398l-.007-.723-.002-.197v-.068l-.75.008z" opacity=".4"/>
  <path fill-rule="evenodd" d="M23.03.97a.75.75 0 010 1.06l-1.964 1.965L5.15 19.909l-2.62 2.621a.75.75 0 01-1.061-1.06l1.961-1.962a5.752 5.752 0 01-1.083-1.128c-.586-.807-.848-1.75-.974-2.916-.124-1.143-.124-2.582-.124-4.419v-.09c0-1.837 0-3.276.124-4.419.126-1.165.388-2.11.974-2.916l.607.441-.607-.44A5.75 5.75 0 013.62 2.347c.807-.586 1.75-.848 2.916-.974 1.143-.124 2.582-.124 4.419-.124h2.585c1.603 0 2.86 0 3.864.095 1.023.098 1.861.3 2.6.752.172.106.338.22.497.342L21.97.969a.75.75 0 011.06 0zm-3.602 2.542a4.214 4.214 0 00-.207-.136c-.464-.284-1.045-.45-1.96-.537-.924-.088-2.11-.089-3.761-.089H11c-1.892 0-3.25.001-4.302.115-1.038.112-1.688.328-2.196.697a4.25 4.25 0 00-.94.94c-.37.508-.585 1.158-.697 2.196C2.751 7.75 2.75 9.108 2.75 11c0 1.892.001 3.25.115 4.302.112 1.038.328 1.688.697 2.196.262.36.579.678.94.94L19.427 3.512z"/>
</svg>
