<svg xmlns="http://www.w3.org/2000/svg" width="24" height="24" fill="currentColor" viewBox="0 0 24 24">
  <path fill-rule="evenodd" d="M4.933 7.377a.75.75 0 01.206 1.04A8.208 8.208 0 003.75 13c0 1.697.512 3.272 1.389 4.583a.75.75 0 11-1.247.834A9.708 9.708 0 012.25 13c0-2.003.605-3.867 1.642-5.417a.75.75 0 011.04-.206z" opacity=".4"/>
  <path fill-rule="evenodd" d="M12.493.435a.75.75 0 01.072 1.058l-1.57 1.801c.327-.029.661-.044 1.005-.044 5.385 0 9.75 4.365 9.75 9.75s-4.365 9.75-9.75 9.75a9.741 9.741 0 01-8.108-4.333.75.75 0 111.247-.834A8.25 8.25 0 1012 4.75c-.418 0-.82.026-1.207.074l2.15 1.57a.75.75 0 11-.885 1.212l-3.5-2.557a.75.75 0 01-.123-1.098l3-3.444a.75.75 0 011.058-.072z"/>
</svg>
