<svg xmlns="http://www.w3.org/2000/svg" width="24" height="24" fill="currentColor" viewBox="0 0 24 24">
  <path fill-rule="evenodd" d="M12.323 1.323L12 2l.324-.677.003.002.006.003.022.01c.018.01.044.022.076.04.065.032.158.08.274.145.233.128.561.318.953.572.782.507 1.825 1.27 2.87 2.303C18.614 6.463 20.75 9.643 20.75 14a.75.75 0 01-1.5 0c0-3.825-1.865-6.644-3.777-8.535a16.68 16.68 0 00-2.695-2.153c.013.382.03.775.049 1.176l.02.454c.045 1.031.083 2.098.051 3.083a.75.75 0 01-1.5-.05c.031-.92-.005-1.935-.05-2.968l-.02-.446C11.29 3.684 11.25 2.803 11.25 2a.75.75 0 011.073-.677z" opacity=".4"/>
  <path fill-rule="evenodd" d="M7.816 5.82a.75.75 0 01.434.68c0 1.747.13 2.993.446 3.784.153.38.33.609.515.745.178.132.42.221.789.221.261 0 .435-.067.566-.164.14-.103.28-.275.406-.553.26-.578.39-1.453.427-2.557a.75.75 0 111.5.049c-.038 1.14-.171 2.265-.56 3.126-.2.44-.482.848-.885 1.144-.412.303-.904.455-1.454.455-.631 0-1.201-.16-1.68-.514-.471-.348-.794-.838-1.016-1.395-.272-.678-.42-1.52-.493-2.486-.143.185-.29.388-.438.608C5.55 10.192 4.75 11.923 4.75 14c0 4.128 3.161 7.25 7.25 7.25s7.25-3.122 7.25-7.25a.75.75 0 011.5 0c0 4.962-3.839 8.75-8.75 8.75S3.25 18.962 3.25 14c0-2.468.95-4.487 1.877-5.872.465-.694.93-1.238 1.28-1.61A9.883 9.883 0 017 5.941l.011-.009.004-.003.001-.001c.001 0 .001-.001.485.572l-.484-.573a.75.75 0 01.8-.107zm.169 1.252z"/>
</svg>
