<svg xmlns="http://www.w3.org/2000/svg" width="24" height="24" fill="currentColor" viewBox="0 0 24 24">
  <path fill-rule="evenodd" d="M10.913 1.25H13a.75.75 0 010 1.5h-2.066c-1.088 0-1.878 0-2.465.027-.608.029-.898.084-1.04.143a2.25 2.25 0 00-1.133 3.13c.072.135.259.364.708.774.433.397 1.04.903 1.876 1.6l.6.5a.75.75 0 01-.96 1.152l-.6-.5-.017-.014c-.816-.68-1.45-1.208-1.912-1.631-.45-.413-.817-.793-1.022-1.183a3.75 3.75 0 011.888-5.215c.407-.168.932-.226 1.542-.254.627-.029 1.451-.029 2.514-.029z" opacity=".4"/>
  <path fill-rule="evenodd" d="M11.25 2a.75.75 0 01.75-.75h.526c1.291 0 2.293 0 3.051.043.739.041 1.373.126 1.85.371a3.75 3.75 0 011.739 4.802c-.21.494-.643.965-1.184 1.47-.555.518-1.325 1.16-2.316 1.986l-.02.016-5.947 4.956c-1.176.98-2.028 1.69-2.624 2.256-.616.585-.848.917-.92 1.126a2.25 2.25 0 00.958 2.644c.188.115.58.222 1.427.277.82.053 1.93.053 3.46.053h1.066c1.088 0 1.878 0 2.465-.027.608-.029.898-.084 1.04-.143a2.25 2.25 0 001.133-3.13c-.072-.135-.259-.363-.708-.774-.433-.397-1.04-.903-1.876-1.6l-.6-.5a.75.75 0 01.96-1.152l.6.5.016.013c.817.68 1.45 1.209 1.913 1.632.45.413.817.793 1.022 1.183a3.75 3.75 0 01-1.888 5.215c-.407.168-.932.226-1.542.254-.627.029-1.451.029-2.514.029H11.97c-1.494 0-2.653 0-3.527-.056-.851-.056-1.58-.169-2.112-.494a3.75 3.75 0 01-1.595-4.407c.2-.59.688-1.144 1.306-1.731.636-.603 1.526-1.345 2.674-2.301l.023-.02 5.946-4.955c1.016-.847 1.753-1.461 2.274-1.947.538-.503.752-.786.826-.96A2.25 2.25 0 0016.742 3c-.168-.087-.513-.167-1.249-.209-.711-.04-1.67-.04-2.993-.04H12a.75.75 0 01-.75-.75z"/>
</svg>
