<svg xmlns="http://www.w3.org/2000/svg" width="24" height="24" fill="currentColor" viewBox="0 0 24 24">
  <path fill-rule="evenodd" d="M8.25 5A.75.75 0 019 4.25h1.5a.75.75 0 010 1.5H9A.75.75 0 018.25 5zm0 3A.75.75 0 019 7.25h1.5a.75.75 0 010 1.5H9A.75.75 0 018.25 8zM9 10.25a.75.75 0 000 1.5h1.5a.75.75 0 000-1.5H9z" opacity=".4"/>
  <path fill-rule="evenodd" d="M12 1.25A3.75 3.75 0 008.25 5v7.641a5.75 5.75 0 107.5 0V5A3.75 3.75 0 0012 1.25zm2.567 12.362A.75.75 0 0114.25 13V5a2.25 2.25 0 00-4.5 0v8a.749.749 0 01-.317.612 4.25 4.25 0 105.133 0z"/>
</svg>
