<svg xmlns="http://www.w3.org/2000/svg" width="24" height="24" fill="currentColor" viewBox="0 0 24 24">
  <path fill-rule="evenodd" d="M12.232 17.408a.75.75 0 00-.464 0c-.04.013-.113.046-.269.179-.162.138-.36.335-.666.64l-.206.206c-.653.653-1.106 1.108-1.406 1.466-.316.378-.346.519-.347.542a.75.75 0 00.26.63c.018.014.139.094.63.137.465.041 1.107.042 2.03.042h.412c.924 0 1.565 0 2.03-.042.491-.043.612-.122.63-.138a.75.75 0 00.26-.629c-.002-.023-.03-.164-.347-.542-.3-.358-.753-.813-1.406-1.466l-.206-.206a12.742 12.742 0 00-.666-.64c-.156-.133-.23-.166-.27-.179zm-.927-1.427a2.25 2.25 0 011.39 0c.303.099.55.27.776.462.215.182.456.424.736.703l.02.02.206.207.027.027c.62.62 1.121 1.12 1.47 1.536.337.403.65.86.692 1.387a2.25 2.25 0 01-.782 1.888c-.403.344-.947.445-1.47.491-.54.048-1.25.048-2.126.048H11.756c-.876 0-1.585 0-2.125-.048-.524-.046-1.068-.147-1.47-.491a2.25 2.25 0 01-.783-1.887c.042-.529.355-.985.693-1.388.348-.416.85-.917 1.469-1.536l.027-.027.206-.206.02-.02c.28-.28.52-.521.736-.704.226-.192.473-.363.776-.462z" opacity=".4"/>
  <path fill-rule="evenodd" d="M9.966 1.25h4.068c1.371 0 2.447 0 3.311.07.88.073 1.607.221 2.265.557a5.75 5.75 0 012.513 2.513c.336.658.485 1.385.556 2.265.071.864.071 1.94.071 3.311V14A4.75 4.75 0 0118 18.75h-.5a.75.75 0 010-1.5h.5A3.25 3.25 0 0021.25 14v-4c0-1.413 0-2.427-.066-3.223-.064-.787-.188-1.295-.397-1.706a4.25 4.25 0 00-1.857-1.858c-.412-.21-.92-.333-1.707-.397-.796-.065-1.81-.066-3.223-.066h-4c-1.413 0-2.427 0-3.223.066-.787.064-1.295.188-1.706.397a4.25 4.25 0 00-1.858 1.858c-.21.411-.333.919-.397 1.706-.065.796-.066 1.81-.066 3.223v4A3.25 3.25 0 006 17.25h.5a.75.75 0 010 1.5H6A4.75 4.75 0 011.25 14V9.966c0-1.371 0-2.447.07-3.311.073-.88.221-1.607.557-2.265A5.75 5.75 0 014.39 1.877c.658-.336 1.385-.484 2.265-.556.864-.071 1.94-.071 3.311-.071z"/>
</svg>
