<svg xmlns="http://www.w3.org/2000/svg" width="24" height="24" fill="currentColor" viewBox="0 0 24 24">
  <path fill-rule="evenodd" d="M15.97 6.97a.75.75 0 011.06 0l3.5 3.5a.75.75 0 11-1.06 1.06l-3.5-3.5a.75.75 0 010-1.06zm-4.94 6a.75.75 0 00-1.06 1.06l3.5 3.5a.75.75 0 001.06-1.06l-3.5-3.5zm-1.5 4.5a.75.75 0 00-1.06 1.06l2 2a.75.75 0 001.06-1.06l-2-2zm6-6a.75.75 0 00-1.06 1.06l2 2a.75.75 0 001.06-1.06l-2-2z" opacity=".4"/>
  <path fill-rule="evenodd" d="M16.195 3.103a2.25 2.25 0 00-1.39 0c-.211.068-.444.204-.791.499-.354.3-.775.72-1.378 1.322l-7.712 7.712c-.602.603-1.022 1.024-1.323 1.378-.294.347-.43.58-.498.79a2.25 2.25 0 000 1.391c.068.211.204.444.498.792.3.353.72.774 1.323 1.377l.712.712c.603.602 1.024 1.022 1.377 1.322.348.295.58.43.792.5a2.25 2.25 0 001.39 0c.211-.07.444-.205.792-.5.353-.3.774-.72 1.377-1.322l7.712-7.712c.602-.603 1.022-1.024 1.322-1.377.295-.348.43-.58.5-.792a2.249 2.249 0 000-1.39c-.07-.211-.205-.444-.5-.792-.3-.353-.72-.774-1.322-1.377l-.712-.712c-.603-.602-1.024-1.022-1.377-1.322-.348-.295-.58-.43-.792-.5zm-1.854-1.427a3.75 3.75 0 012.318 0c.474.154.88.427 1.298.782.406.345.87.808 1.445 1.383l.022.023.712.712.023.022c.575.575 1.038 1.039 1.383 1.445.355.418.628.824.782 1.298a3.75 3.75 0 010 2.318c-.154.474-.427.88-.782 1.298-.345.406-.808.87-1.383 1.445l-.023.023-7.712 7.711-.022.023c-.575.575-1.039 1.038-1.445 1.383-.418.355-.824.628-1.298.782a3.75 3.75 0 01-2.318 0c-.474-.154-.88-.427-1.298-.782-.406-.345-.87-.808-1.445-1.383l-.022-.023-.712-.712-.023-.022c-.575-.575-1.038-1.039-1.383-1.445-.355-.418-.628-.824-.782-1.298a3.75 3.75 0 010-2.318c.154-.474.427-.88.782-1.298.345-.406.808-.87 1.383-1.445l.023-.022 7.712-7.712.022-.023c.575-.575 1.039-1.038 1.445-1.383.418-.355.824-.628 1.298-.782z"/>
</svg>
