<svg xmlns="http://www.w3.org/2000/svg" width="24" height="24" fill="currentColor" viewBox="0 0 24 24">
  <path fill-rule="evenodd" d="M21 4a1 1 0 100-2 1 1 0 000 2zm1 3a1 1 0 11-2 0 1 1 0 012 0zm-1 5a1 1 0 100-2 1 1 0 000 2zM4 15a1 1 0 11-2 0 1 1 0 012 0zm8 1a1 1 0 100-2 1 1 0 000 2zm9 0a1 1 0 100-2 1 1 0 000 2zm-4-5a1 1 0 11-2 0 1 1 0 012 0zm-5 1a1 1 0 100-2 1 1 0 000 2zm-3-1a1 1 0 11-2 0 1 1 0 012 0zm-6 1a1 1 0 100-2 1 1 0 000 2zm9-4a1 1 0 100-2 1 1 0 000 2zM4 7a1 1 0 11-2 0 1 1 0 012 0zm13-4a1 1 0 11-2 0 1 1 0 012 0zm-5 1a1 1 0 100-2 1 1 0 000 2zM9 3a1 1 0 11-2 0 1 1 0 012 0zM3 4a1 1 0 100-2 1 1 0 000 2z" opacity=".4"/>
  <path fill-rule="evenodd" d="M1.25 21a.75.75 0 01.75-.75h20a.75.75 0 010 1.5H2a.75.75 0 01-.75-.75z"/>
</svg>
