<svg xmlns="http://www.w3.org/2000/svg" width="24" height="24" fill="currentColor" viewBox="0 0 24 24">
  <path fill-rule="evenodd" d="M4.562 6.607a.75.75 0 10-1.278.786l.616 1 1.43 2.323c.402.655.502.836.541 1.01.04.18.04.367 0 .548-.039.174-.139.355-.542 1.01L3.9 15.607l-.615 1a.75.75 0 001.278.786l.615-1 1.43-2.323.056-.092c.285-.46.514-.834.633-1.228H11a.75.75 0 000-1.5H7.296c-.119-.394-.348-.767-.633-1.228l-.056-.092-1.43-2.323-.615-1z" opacity=".4"/>
  <path fill-rule="evenodd" d="M1.697 4.53A2.75 2.75 0 014.745 1.2c.292.04.629.179.977.338.37.17.854.412 1.476.722l.014.008 12.4 6.199.034.017c.892.446 1.608.804 2.134 1.13.524.325.988.691 1.233 1.208a2.75 2.75 0 010 2.357c-.245.516-.709.882-1.233 1.207-.527.326-1.242.684-2.134 1.13l-.035.017-12.399 6.2-.014.007c-.622.31-1.106.553-1.476.722-.348.16-.685.299-.977.338a2.75 2.75 0 01-3.048-3.33c.064-.287.233-.61.422-.943.201-.354.485-.815.85-1.407l.008-.013.307-.5a.75.75 0 011.278.786l-.308.5a53.597 53.597 0 00-.831 1.376 5.675 5.675 0 00-.203.383 1.49 1.49 0 00-.047.109l-.013.039a1.25 1.25 0 001.386 1.513l.04-.01a1.5 1.5 0 00.112-.036c.1-.036.229-.09.4-.169.343-.157.804-.388 1.443-.707l12.4-6.2c.934-.467 1.588-.795 2.05-1.08.47-.293.616-.468.666-.575a1.25 1.25 0 000-1.072c-.05-.107-.195-.282-.667-.574-.461-.286-1.115-.614-2.05-1.081l-12.399-6.2c-.639-.32-1.1-.55-1.443-.707-.171-.078-.3-.133-.4-.169a1.493 1.493 0 00-.113-.037l-.04-.009A1.25 1.25 0 003.16 4.2l.013.039c.01.026.025.062.047.11.044.095.11.219.203.382.187.328.457.768.831 1.376l.308.5a.75.75 0 11-1.278.786l-.307-.5-.009-.013c-.364-.592-.648-1.054-.849-1.407-.19-.333-.358-.656-.422-.943z"/>
</svg>
