<svg xmlns="http://www.w3.org/2000/svg" width="24" height="24" fill="currentColor" viewBox="0 0 24 24">
  <path fill-rule="evenodd" d="M20.89 6.834A2.25 2.25 0 0123.6 8.19c.095.247.124.518.137.78.014.265.014.601.014 1.01V14.02c0 .41 0 .746-.014 1.011-.013.262-.042.534-.137.78a2.25 2.25 0 01-2.709 1.355c-.255-.072-.49-.212-.707-.358-.22-.148-.49-.35-.817-.595l-.016-.013a3.604 3.604 0 01-.461-.38 2.25 2.25 0 01-.612-1.223c-.027-.174-.027-.352-.027-.554V10v-.042c0-.202 0-.38.027-.554a2.25 2.25 0 01.612-1.225c.123-.125.265-.232.427-.354l.034-.025.016-.012c.328-.246.597-.447.817-.596.218-.146.452-.286.707-.358zM22.2 8.73a.75.75 0 00-.903-.452c-.015.004-.086.03-.277.159-.184.124-.422.302-.77.563-.214.16-.256.195-.287.227a.75.75 0 00-.204.408 2.873 2.873 0 00-.009.365V14.001c0 .267.002.32.009.365a.75.75 0 00.204.408c.031.032.073.066.287.226.348.261.586.44.77.563.191.129.262.155.277.16a.75.75 0 00.902-.452c.006-.014.028-.087.04-.317.01-.222.011-.519.011-.954v-4c0-.435 0-.732-.012-.954-.011-.23-.033-.302-.038-.316z" opacity=".4"/>
  <path fill-rule="evenodd" d="M8.966 2.25H11.034c1.371 0 2.447 0 3.311.07.88.073 1.607.221 2.265.557a5.75 5.75 0 012.513 2.513c.336.658.485 1.385.556 2.265.071.864.071 1.94.071 3.311V13.034c0 1.371 0 2.447-.07 3.311-.072.88-.221 1.607-.557 2.265a5.75 5.75 0 01-2.513 2.513c-.658.336-1.385.485-2.265.556-.864.071-1.94.071-3.311.071H8.966c-1.371 0-2.447 0-3.311-.07-.88-.072-1.607-.221-2.265-.557A5.75 5.75 0 01.877 18.61C.54 17.952.393 17.225.32 16.345.25 15.481.25 14.405.25 13.034V10.966c0-1.371 0-2.447.07-3.311.073-.88.221-1.607.557-2.265A5.75 5.75 0 013.39 2.877c.658-.336 1.385-.484 2.265-.556.864-.071 1.94-.071 3.311-.071zM5.777 3.816c-.787.064-1.295.188-1.706.397a4.25 4.25 0 00-1.858 1.858c-.21.411-.333.919-.397 1.706-.065.796-.066 1.81-.066 3.223v2c0 1.412 0 2.427.066 3.223.064.787.188 1.295.397 1.707a4.25 4.25 0 001.858 1.857c.411.21.919.333 1.706.397.796.065 1.81.066 3.223.066h2c1.412 0 2.427 0 3.223-.066.787-.064 1.295-.188 1.707-.397a4.25 4.25 0 001.857-1.857c.21-.412.333-.92.397-1.707.065-.796.066-1.81.066-3.223v-2c0-1.413 0-2.427-.066-3.223-.064-.787-.188-1.295-.397-1.706a4.25 4.25 0 00-1.857-1.858c-.412-.21-.92-.333-1.707-.397-.796-.065-1.81-.066-3.223-.066H9c-1.413 0-2.427 0-3.223.066z"/>
</svg>
