<svg xmlns="http://www.w3.org/2000/svg" width="24" height="24" fill="currentColor" viewBox="0 0 24 24">
  <path fill-rule="evenodd" d="M19 13.25a.75.75 0 01.75.75v2.25H22a.75.75 0 010 1.5h-2.25V20a.75.75 0 01-1.5 0v-2.25H16a.75.75 0 010-1.5h2.25V14a.75.75 0 01.75-.75z" opacity=".4"/>
  <path fill-rule="evenodd" d="M2 3.25a.75.75 0 000 1.5h18a.75.75 0 000-1.5H2zm0 5a.75.75 0 000 1.5h14a.75.75 0 000-1.5H2zM1.25 14a.75.75 0 01.75-.75h10a.75.75 0 010 1.5H2a.75.75 0 01-.75-.75zM2 18.25a.75.75 0 000 1.5h7a.75.75 0 000-1.5H2z"/>
</svg>
