<svg xmlns="http://www.w3.org/2000/svg" width="24" height="24" fill="currentColor" viewBox="0 0 24 24">
  <path fill-rule="evenodd" d="M3 14.25a.75.75 0 000 1.5h18a.75.75 0 000-1.5H3zm0 6a.75.75 0 000 1.5h18a.75.75 0 000-1.5H3z" opacity=".4"/>
  <path fill-rule="evenodd" d="M12.25 3a.75.75 0 01.75-.75h8a.75.75 0 010 1.5h-8a.75.75 0 01-.75-.75zM6 3.75a2.25 2.25 0 100 4.5 2.25 2.25 0 000-4.5zM2.25 6a3.75 3.75 0 117.5 0 3.75 3.75 0 01-7.5 0zM13 8.25a.75.75 0 000 1.5h8a.75.75 0 000-1.5h-8z"/>
</svg>
