<svg xmlns="http://www.w3.org/2000/svg" width="24" height="24" fill="currentColor" viewBox="0 0 24 24">
  <path fill-rule="evenodd" d="M2.25 3A.75.75 0 013 2.25h6a.75.75 0 010 1.5H4.81l4.72 4.72a.75.75 0 01-1.06 1.06L3.75 4.81V9a.75.75 0 01-1.5 0V3zm12.22 11.47a.75.75 0 011.06 0l4.72 4.72V15a.75.75 0 011.5 0v6a.75.75 0 01-.75.75h-6a.75.75 0 010-1.5h4.19l-4.72-4.72a.75.75 0 010-1.06z" opacity=".4"/>
  <path fill-rule="evenodd" d="M14.47 14.47a.75.75 0 011.06 0l4.72 4.72V15a.75.75 0 011.5 0v6a.75.75 0 01-.75.75h-6a.75.75 0 010-1.5h4.19l-4.72-4.72a.75.75 0 010-1.06z"/>
</svg>
