<svg xmlns="http://www.w3.org/2000/svg" width="24" height="24" fill="currentColor" viewBox="0 0 24 24">
  <path fill-rule="evenodd" d="M18.166 3.802c-.63-.051-1.433-.052-2.566-.052H8.4c-.526 0-.983 0-1.39.006a.75.75 0 11-.02-1.5c.418-.006.885-.006 1.406-.006h7.237c1.092 0 1.958 0 2.655.057.714.058 1.317.18 1.869.46a4.75 4.75 0 012.075 2.077c.281.55.403 1.154.461 1.868.057.697.057 1.563.057 2.655v5.256c0 .977 0 1.771-.04 2.423-.011.188-.026.367-.046.54a.75.75 0 01-1.49-.171c.016-.14.029-.293.039-.46.037-.601.037-1.35.037-2.355V9.4v-.65H12a.75.75 0 010-1.5h9.224a11.547 11.547 0 00-.026-.416c-.05-.62-.147-1.005-.302-1.31a3.25 3.25 0 00-1.42-1.42c-.305-.155-.69-.251-1.31-.302z" opacity=".4"/>
  <path fill-rule="evenodd" d="M2.53 1.47a.75.75 0 00-1.06 1.06L2.61 3.672a4.75 4.75 0 00-.843 1.172c-.281.55-.403 1.154-.461 1.868-.057.697-.057 1.563-.057 2.655V14.633c0 1.092 0 1.958.057 2.655.058.714.18 1.317.46 1.869a4.75 4.75 0 002.077 2.075c.55.281 1.154.403 1.868.461.697.057 1.563.057 2.655.057H15.633c1.092 0 1.958 0 2.655-.057.714-.058 1.317-.18 1.869-.46l.01-.006 1.303 1.303a.75.75 0 101.06-1.06l-1.716-1.716L8.53 7.47 4.246 3.186 2.53 1.47zm.574 4.055c.15-.293.341-.56.568-.793L6.189 7.25H2.776c.007-.147.015-.285.026-.416.05-.62.147-1.005.302-1.31zM2.75 8.75h4.94l11.318 11.319c-.225.059-.497.1-.842.129-.63.051-1.433.052-2.566.052H8.4c-1.132 0-1.937 0-2.566-.052-.62-.05-1.005-.147-1.31-.302a3.25 3.25 0 01-1.42-1.42c-.155-.305-.251-.69-.302-1.31-.051-.63-.052-1.434-.052-2.566V9.4v-.65zM6 11.25a.75.75 0 000 1.5h2a.75.75 0 000-1.5H6z"/>
</svg>
