<svg xmlns="http://www.w3.org/2000/svg" width="24" height="24" fill="currentColor" viewBox="0 0 24 24">
  <path fill-rule="evenodd" d="M4.25 3a.75.75 0 00-1.166-.624l-1.5 1a.75.75 0 10.832 1.248l.334-.223V7.25H2a.75.75 0 100 1.5h3a.75.75 0 000-1.5h-.75V3zM2 14.25a.75.75 0 000 1.5h2.25v1H2a.75.75 0 00-.75.75V20c0 .414.336.75.75.75h3a.75.75 0 000-1.5H2.75v-1H5a.75.75 0 00.75-.75V15a.75.75 0 00-.75-.75H2z" opacity=".4"/>
  <path fill-rule="evenodd" d="M9 3.25a.75.75 0 000 1.5h13a.75.75 0 000-1.5H9zM8.25 12a.75.75 0 01.75-.75h13a.75.75 0 010 1.5H9a.75.75 0 01-.75-.75zm0 8a.75.75 0 01.75-.75h13a.75.75 0 010 1.5H9a.75.75 0 01-.75-.75z"/>
</svg>
