<svg xmlns="http://www.w3.org/2000/svg" width="24" height="24" fill="currentColor" viewBox="0 0 24 24">
  <path fill-rule="evenodd" d="M6.25 4A.75.75 0 017 3.25h4a.75.75 0 010 1.5H8.81l1.458 1.457c.404.405.676.676.903.868.22.187.346.254.443.285.25.082.521.082.772 0 .097-.031.224-.098.443-.285.227-.192.499-.463.903-.868L15.97 3.97a.75.75 0 111.06 1.06l-2.237 2.238-.021.021c-.378.378-.693.693-.972.93-.29.246-.59.451-.95.568a2.75 2.75 0 01-1.7 0c-.36-.117-.66-.322-.95-.568-.279-.237-.594-.552-.972-.93l-.021-.021L7.75 5.81V8a.75.75 0 01-1.5 0V4z" opacity=".4"/>
  <path fill-rule="evenodd" d="M7.776 11.913A14.174 14.174 0 0112 11.25c1.361 0 2.786.214 4.224.663 1.931.604 3.884 1.632 5.737 3.139l.015.012c.147.12.265.215.407.372.375.416.589.954.66 1.48.07.526.007 1.101-.245 1.602-.096.19-.209.348-.35.546l-.023.03-.032.046a5.063 5.063 0 01-.46.589 2.75 2.75 0 01-3.052.606c-.195-.084-.393-.208-.65-.368l-.047-.03-.738-.461-.074-.046c-.42-.263-.752-.47-1.01-.754a2.753 2.753 0 01-.528-.856c-.138-.358-.174-.747-.22-1.242l-.008-.086-.306-3.287a12.528 12.528 0 00-3.3-.455c-1.057 0-2.167.146-3.3.455l-.306 3.287-.008.086c-.046.495-.082.884-.22 1.242a2.75 2.75 0 01-.528.856c-.258.284-.59.49-1.01.754l-.074.046-.738.46-.047.03a5.05 5.05 0 01-.65.369 2.75 2.75 0 01-3.052-.606c-.148-.152-.284-.342-.46-.589l-.032-.045-.023-.031c-.141-.199-.254-.357-.35-.546-.252-.5-.316-1.076-.245-1.602.071-.526.285-1.064.66-1.48.142-.157.26-.253.407-.372l.015-.012c1.853-1.507 3.806-2.535 5.737-3.139zm-.632 1.818c-1.394.562-2.8 1.38-4.159 2.485-.16.13-.195.16-.255.226a1.275 1.275 0 00-.286.674c-.038.282.005.542.098.727.037.075.08.138.253.38.224.313.288.4.345.458.361.37.912.479 1.387.275.075-.032.168-.087.494-.291l.738-.461c.53-.331.667-.425.768-.536.103-.114.184-.245.24-.389.053-.139.075-.305.133-.926l.244-2.622zm9.712 0l.244 2.622c.058.621.08.787.134.926.055.143.136.275.24.39.1.11.238.204.767.535l.738.46c.326.205.419.26.494.292a1.25 1.25 0 001.387-.275c.057-.059.121-.145.345-.458.173-.242.216-.305.253-.38.093-.184.136-.445.098-.727a1.275 1.275 0 00-.286-.674 1.95 1.95 0 00-.255-.226c-1.36-1.106-2.765-1.923-4.16-2.485z"/>
</svg>
