<svg xmlns="http://www.w3.org/2000/svg" width="24" height="24" fill="currentColor" viewBox="0 0 24 24">
  <path fill-rule="evenodd" d="M11.47 1.47a.75.75 0 011.06 0l3 3a.75.75 0 01-1.06 1.06l-1.72-1.72V11a.75.75 0 01-1.5 0V3.81L9.53 5.53a.75.75 0 01-1.06-1.06l3-3z" opacity=".4"/>
  <path fill-rule="evenodd" d="M7.584 7.25H7.5c-.624 0-1.055 0-1.457.089a3.75 3.75 0 00-2.101 1.298c-.26.32-.452.705-.73 1.264l-.038.075-.255.508-.014.03c-.25.498-.392.783-.512 1.072a8.75 8.75 0 00-.533 4.856c.054.308.132.617.267 1.158l.008.031.015.062c.167.666.268 1.074.41 1.432a5.75 5.75 0 004.578 3.574c.382.051.802.051 1.49.051h6.745c.687 0 1.107 0 1.489-.051a5.75 5.75 0 004.577-3.574c.142-.358.244-.766.41-1.432l.016-.062.008-.031c.135-.54.212-.85.267-1.158a8.75 8.75 0 00-.534-4.856c-.119-.289-.262-.574-.51-1.073l-.015-.029-.255-.508-.037-.075c-.28-.559-.472-.944-.73-1.263a3.75 3.75 0 00-2.102-1.3c-.402-.088-.833-.088-1.457-.088h-1a.75.75 0 000 1.5h.916c.74 0 .995.004 1.216.053.497.11.941.385 1.261.78.143.175.26.401.592 1.064l.254.508c.268.536.385.77.481 1.004.147.355.265.72.354 1.091h-1.955c-.535 0-.955 0-1.348.119a2.748 2.748 0 00-.947.507c-.317.26-.55.61-.846 1.055l-.052.078-.1.15c-.373.56-.48.705-.603.807a1.252 1.252 0 01-.43.23c-.153.046-.333.054-1.006.054h-2.575c-.672 0-.853-.008-1.005-.054a1.252 1.252 0 01-.43-.23c-.124-.101-.23-.247-.603-.807l-.1-.15-.052-.078c-.296-.445-.529-.795-.846-1.055a2.748 2.748 0 00-.947-.507c-.394-.12-.814-.12-1.348-.119H3.427a7.25 7.25 0 01.353-1.09c.096-.234.213-.47.48-1.005l.255-.508c.331-.663.45-.889.592-1.065a2.25 2.25 0 011.26-.779c.222-.049.477-.053 1.217-.053H8.5a.75.75 0 000-1.5h-.916zm-4.353 7.5c-.012.478.023.958.107 1.433.043.249.107.504.252 1.085.187.747.264 1.05.365 1.303a4.25 4.25 0 003.383 2.641c.27.036.582.038 1.352.038h6.62c.77 0 1.082-.002 1.352-.038a4.25 4.25 0 003.383-2.641c.1-.253.178-.556.365-1.303.145-.581.208-.836.252-1.085.083-.475.119-.955.107-1.433h-2.057c-.672 0-.853.008-1.005.054a1.252 1.252 0 00-.43.23c-.124.101-.23.247-.603.807l-.1.15-.052.078c-.296.445-.529.795-.846 1.056-.28.23-.601.401-.947.506-.394.12-.814.12-1.348.119h-2.762c-.535 0-.955 0-1.348-.119a2.748 2.748 0 01-.947-.506c-.317-.261-.55-.611-.846-1.056l-.052-.078-.1-.15c-.373-.56-.48-.705-.603-.807a1.252 1.252 0 00-.43-.23c-.153-.046-.333-.054-1.006-.054H3.231z"/>
</svg>
