<svg xmlns="http://www.w3.org/2000/svg" width="24" height="24" fill="currentColor" viewBox="0 0 24 24">
  <path fill-rule="evenodd" d="M12 13.25H8.76c.06-2.477.42-5.075 1.021-7.099.333-1.119.726-2.016 1.151-2.616.435-.614.8-.785 1.068-.785.292 0 .658.17 1.08.731.418.559.809 1.404 1.14 2.488.604 1.977.965 4.592 1.022 7.281H12zm.75 1.5H16a.75.75 0 00.75-.75c0-3.051-.38-6.13-1.095-8.47-.356-1.165-.81-2.195-1.375-2.949-.563-.75-1.322-1.331-2.28-1.331-.983 0-1.742.641-2.292 1.418-.56.79-1.01 1.862-1.364 3.056C7.63 8.12 7.25 11.194 7.25 14c0 .414.336.75.75.75h3.25V20a1.25 1.25 0 11-2.5 0v-1a.75.75 0 00-1.5 0v1a2.75 2.75 0 105.5 0v-5.25z" opacity=".4"/>
  <path fill-rule="evenodd" d="M12 2.75c-4.5 0-6.843 3.284-8.074 6.466-.481 1.244-.612 1.636-.477 2.26.044.201.173.487.371.777.199.29.42.513.592.627.523.344 1.081.37 2.805.37h9.566c1.724 0 2.282-.026 2.805-.37.173-.114.393-.337.592-.627.198-.29.327-.576.37-.778.136-.623.005-1.015-.476-2.259C18.844 6.034 16.501 2.75 12 2.75zM2.527 8.675C3.833 5.298 6.55 1.25 12 1.25c5.449 0 8.167 4.048 9.473 7.425l.04.102c.432 1.116.741 1.916.504 3.015-.098.451-.332.918-.6 1.31-.268.39-.619.777-1.004 1.03-.941.62-1.982.619-3.452.618H7.04c-1.47.001-2.51.002-3.452-.617-.385-.254-.736-.64-1.004-1.032-.268-.391-.502-.858-.6-1.309-.238-1.099.072-1.899.504-3.015l.04-.102z"/>
</svg>
