<svg xmlns="http://www.w3.org/2000/svg" width="24" height="24" fill="currentColor" viewBox="0 0 24 24">
  <g clip-path="url(#clip0_2038:14282)">
    <path fill-rule="evenodd" d="M9.25 1A.75.75 0 0110 .25h4a.75.75 0 010 1.5h-4A.75.75 0 019.25 1zM2 15.25a.75.75 0 000 1.5h5a.75.75 0 000-1.5H2zm2 3a.75.75 0 000 1.5h6a.75.75 0 000-1.5H4zM12.75 10a.75.75 0 00-1.5 0v4a.75.75 0 001.5 0v-4z" opacity=".4"/>
    <path fill-rule="evenodd" d="M12 4.75A8.25 8.25 0 003.75 13a.75.75 0 01-1.5 0c0-5.385 4.365-9.75 9.75-9.75s9.75 4.365 9.75 9.75-4.365 9.75-9.75 9.75H7a.75.75 0 010-1.5h5a8.25 8.25 0 100-16.5z"/>
  </g>
  <defs>
    <clipPath id="clip0_2038:14282">
      <path d="M0 0h24v24H0z"/>
    </clipPath>
  </defs>
</svg>
