<svg xmlns="http://www.w3.org/2000/svg" width="24" height="24" fill="currentColor" viewBox="0 0 24 24">
  <path fill-rule="evenodd" d="M2.78 1.25h2.44c.122 0 .255 0 .37.01.13.01.3.036.477.126.236.12.427.311.547.547.09.176.116.348.127.478.01.114.009.247.009.369v2.44c0 .122 0 .255-.01.37-.01.13-.036.3-.126.477a1.25 1.25 0 01-.547.547c-.176.09-.348.116-.478.127a4.75 4.75 0 01-.369.009H2.78c-.122 0-.255 0-.37-.01a1.259 1.259 0 01-.477-.126 1.25 1.25 0 01-.547-.547 1.259 1.259 0 01-.127-.478 4.747 4.747 0 01-.009-.369V2.78c0-.122 0-.255.01-.37.01-.13.036-.3.126-.477a1.25 1.25 0 01.547-.547c.176-.09.348-.116.478-.127.114-.01.247-.009.369-.009zm-.03 1.5V5.25H5.25V2.75H2.75zm.03 6.5h2.44c.122 0 .255 0 .37.01.13.01.3.036.477.126.236.12.427.311.547.547.09.176.116.348.127.478.01.114.009.247.009.369v2.44c0 .122 0 .255-.01.37-.01.13-.036.3-.126.478a1.25 1.25 0 01-.547.546c-.176.09-.348.116-.478.127-.114.01-.247.009-.369.009H2.78c-.122 0-.255 0-.37-.01a1.259 1.259 0 01-.477-.126 1.25 1.25 0 01-.547-.546 1.259 1.259 0 01-.127-.479 4.751 4.751 0 01-.009-.369v-2.44c0-.122 0-.255.01-.37.01-.13.036-.3.126-.477a1.25 1.25 0 01.547-.547c.176-.09.348-.116.478-.127.114-.01.247-.009.369-.009zm-.03 1.5V13.25H5.25V10.75H2.75zm.05 6.5h-.02c-.122 0-.255 0-.37.01-.13.01-.3.036-.477.126a1.25 1.25 0 00-.547.547c-.09.176-.116.348-.127.477-.01.115-.009.248-.009.37v2.44c0 .122 0 .255.01.37.01.13.036.3.126.477.12.236.311.427.547.547.176.09.348.116.478.127.114.01.247.009.369.009h2.44c.122 0 .255 0 .37-.01.13-.01.3-.036.477-.126a1.25 1.25 0 00.547-.547c.09-.176.116-.348.127-.477.01-.115.009-.248.009-.37v-2.44c0-.122 0-.255-.01-.37a1.259 1.259 0 00-.126-.477 1.25 1.25 0 00-.547-.547 1.259 1.259 0 00-.478-.127c-.114-.01-.247-.009-.369-.009H2.8zm-.05 1.55v-.05H5.25V21.25H2.75V18.8z" opacity=".4"/>
  <path fill-rule="evenodd" d="M11 3.25a.75.75 0 000 1.5h11a.75.75 0 000-1.5H11zM10.25 12a.75.75 0 01.75-.75h11a.75.75 0 010 1.5H11a.75.75 0 01-.75-.75zm0 8a.75.75 0 01.75-.75h11a.75.75 0 010 1.5H11a.75.75 0 01-.75-.75z"/>
</svg>
