<svg xmlns="http://www.w3.org/2000/svg" width="24" height="24" fill="currentColor" viewBox="0 0 24 24">
  <path fill-rule="evenodd" d="M8.7 5.25h-.103c-.55 0-.975 0-1.343.103-.921.26-1.641.98-1.9 1.9-.105.37-.104.794-.104 1.344V9a.75.75 0 101.5 0v-.3c0-.702.007-.898.047-1.04a1.25 1.25 0 01.864-.863c.14-.04.337-.047 1.039-.047H10a.75.75 0 100-1.5H8.7zm6.6 1.5c.702 0 .898.007 1.04.047.418.118.745.445.863.864.04.141.047.337.047 1.04V9a.75.75 0 001.5 0V8.596c0-.55 0-.975-.103-1.343a2.75 2.75 0 00-1.9-1.9c-.37-.105-.794-.104-1.344-.104H14a.75.75 0 000 1.5h1.3zM6.75 15a.75.75 0 00-1.5 0V15.403c0 .55 0 .975.103 1.344.26.92.98 1.64 1.9 1.9.37.104.794.104 1.344.103H9.8a.75.75 0 100-1.5H8.7c-.702 0-.898-.007-1.04-.047a1.25 1.25 0 01-.863-.864c-.04-.14-.047-.337-.047-1.039V15zm12 0a.75.75 0 00-1.5 0v.3c0 .702-.007.898-.047 1.04a1.25 1.25 0 01-.864.863c-.141.04-.337.047-1.039.047H14a.75.75 0 000 1.5h1.403c.55 0 .975 0 1.343-.103a2.75 2.75 0 001.9-1.9c.105-.37.104-.794.104-1.344V15zM6 11.25a.75.75 0 000 1.5h12a.75.75 0 100-1.5H6z" opacity=".4"/>
  <path fill-rule="evenodd" d="M9.966 1.25h4.068c1.371 0 2.447 0 3.311.07.88.073 1.607.221 2.265.557a5.75 5.75 0 012.513 2.513c.336.658.485 1.385.556 2.265.071.864.071 1.94.071 3.311v4.068c0 1.371 0 2.447-.07 3.311-.072.88-.221 1.607-.557 2.265a5.75 5.75 0 01-2.513 2.513c-.658.336-1.385.485-2.265.556-.864.071-1.94.071-3.311.071H9.966c-1.371 0-2.447 0-3.311-.07-.88-.072-1.607-.221-2.265-.557a5.75 5.75 0 01-2.513-2.513c-.336-.658-.484-1.385-.556-2.265-.071-.864-.071-1.94-.071-3.311V9.966c0-1.371 0-2.447.07-3.311.073-.88.221-1.607.557-2.265A5.75 5.75 0 014.39 1.877c.658-.336 1.385-.484 2.265-.556.864-.071 1.94-.071 3.311-.071zM6.777 2.816c-.787.064-1.295.188-1.706.397a4.25 4.25 0 00-1.858 1.858c-.21.411-.333.919-.397 1.706-.065.796-.066 1.81-.066 3.223v4c0 1.412 0 2.427.066 3.223.064.787.188 1.295.397 1.707a4.25 4.25 0 001.858 1.857c.411.21.919.333 1.706.397.796.065 1.81.066 3.223.066h4c1.412 0 2.427 0 3.223-.066.787-.064 1.295-.188 1.707-.397a4.251 4.251 0 001.857-1.857c.21-.412.333-.92.397-1.707.065-.796.066-1.81.066-3.223v-4c0-1.413 0-2.427-.066-3.223-.064-.787-.188-1.295-.397-1.706a4.25 4.25 0 00-1.857-1.858c-.412-.21-.92-.333-1.707-.397-.796-.065-1.81-.066-3.223-.066h-4c-1.413 0-2.427 0-3.223.066z"/>
</svg>
