<svg xmlns="http://www.w3.org/2000/svg" width="24" height="24" fill="currentColor" viewBox="0 0 24 24">
  <path fill-rule="evenodd" d="M7.47 7.47a.75.75 0 011.06 0l4 4a.75.75 0 010 1.06l-4 4a.75.75 0 01-1.06-1.06L10.94 12 7.47 8.53a.75.75 0 010-1.06z" opacity=".4"/>
  <path fill-rule="evenodd" d="M10.47 3.47a.75.75 0 011.06 0l5.738 5.737.021.021c.378.378.693.693.93.972.246.29.451.59.568.95a2.75 2.75 0 010 1.7c-.117.36-.322.66-.568.95-.237.279-.552.594-.93.972l-.021.021-5.738 5.737a.75.75 0 11-1.06-1.06l5.737-5.738c.405-.404.676-.676.868-.903.187-.22.254-.346.285-.443a1.25 1.25 0 000-.772c-.031-.097-.098-.224-.285-.443-.192-.226-.463-.499-.868-.903L10.47 4.53a.75.75 0 010-1.06z"/>
</svg>
