<svg xmlns="http://www.w3.org/2000/svg" width="24" height="24" fill="currentColor" viewBox="0 0 24 24">
  <path fill-rule="evenodd" d="M12 1.698c.231 0 .497.023.727.086.542.148.878.414 1.29.742l.049.038c1.198.948 2.856 2.441 4.22 4.347 1.362 1.904 2.464 4.267 2.464 6.941 0 .424-.023.835-.067 1.232a.75.75 0 11-1.491-.167c.038-.34.058-.695.058-1.065 0-2.254-.93-4.317-2.184-6.069-1.253-1.75-2.795-3.144-3.93-4.043-.47-.372-.583-.449-.805-.51A1.424 1.424 0 0012 3.198c-.155 0-.276.017-.331.032-.223.061-.335.139-.806.512-.302.238-.633.512-.98.82a.75.75 0 11-.994-1.124 24.893 24.893 0 011.092-.911c.413-.328.75-.595 1.29-.743.231-.063.497-.086.729-.086z" opacity=".4"/>
  <path fill-rule="evenodd" d="M1.47 1.47a.75.75 0 011.06 0l4.762 4.762 11.882 11.882 3.356 3.356a.75.75 0 11-1.06 1.06l-2.75-2.749c-2.227 2.612-5.873 3.478-9.03 2.685-3.484-.876-6.44-3.784-6.44-8.614 0-2.709 1.13-5.1 2.52-7.02L1.47 2.53a.75.75 0 010-1.06zm5.376 6.437C5.64 9.629 4.75 11.649 4.75 13.852c0 4.088 2.435 6.438 5.306 7.16 2.732.686 5.8-.11 7.6-2.296L6.845 7.907z"/>
</svg>
