<svg xmlns="http://www.w3.org/2000/svg" width="24" height="24" fill="currentColor" viewBox="0 0 24 24">
  <path fill-rule="evenodd" d="M11.371 8.25H12.63c.395 0 .736 0 1.017.023.297.024.592.078.875.222.424.216.768.56.984.984.144.283.198.578.222.875.023.28.023.622.023 1.017V12.63c0 .395 0 .736-.023 1.017-.024.297-.078.592-.222.875a2.25 2.25 0 01-.984.984c-.283.144-.578.198-.875.222-.28.023-.622.023-1.017.023H11.37c-.395 0-.736 0-1.017-.023-.297-.024-.592-.078-.875-.222a2.25 2.25 0 01-.984-.984c-.144-.283-.198-.578-.222-.875-.023-.28-.023-.622-.023-1.017V11.37c0-.395 0-.736.023-1.017.024-.297.078-.592.222-.875a2.25 2.25 0 01.984-.984c.283-.144.578-.198.875-.222.28-.023.622-.023 1.017-.023zm-.895 1.518c-.204.017-.28.045-.317.064a.75.75 0 00-.327.327c-.02.038-.047.113-.064.317-.017.212-.018.492-.018.924v1.2c0 .432 0 .712.018.924.017.204.045.28.064.317a.75.75 0 00.327.327c.038.02.113.047.317.064.212.017.492.018.924.018h1.2c.432 0 .712 0 .924-.018.204-.017.28-.045.317-.064a.75.75 0 00.327-.327c.02-.038.047-.113.064-.317.017-.212.018-.492.018-.924v-1.2c0-.432 0-.712-.018-.924-.017-.204-.045-.28-.064-.317a.75.75 0 00-.327-.327c-.038-.02-.113-.047-.317-.064a12.747 12.747 0 00-.924-.018h-1.2c-.432 0-.712 0-.924.018z" opacity=".4"/>
  <path fill-rule="evenodd" d="M12 2.75a9.25 9.25 0 100 18.5 9.25 9.25 0 000-18.5zM1.25 12C1.25 6.063 6.063 1.25 12 1.25S22.75 6.063 22.75 12 17.937 22.75 12 22.75 1.25 17.937 1.25 12z"/>
</svg>
