<svg xmlns="http://www.w3.org/2000/svg" width="24" height="24" fill="currentColor" viewBox="0 0 24 24">
  <path fill-rule="evenodd" d="M16.28 2.83c-.963-.08-2.188-.08-3.88-.08H12a.75.75 0 010-1.5H12.434c1.651 0 2.937 0 3.968.084 1.047.086 1.897.262 2.662.652a6.75 6.75 0 012.95 2.95c.39.765.566 1.615.652 2.662.084 1.031.084 2.317.084 3.968V12a.75.75 0 01-1.5 0v-.4c0-1.693 0-2.917-.08-3.88-.077-.954-.228-1.585-.492-2.103a5.25 5.25 0 00-2.294-2.295c-.519-.264-1.15-.415-2.104-.493z" opacity=".4"/>
  <path fill-rule="evenodd" d="M11.467 1.25H12a.75.75 0 010 1.5h-.5c-1.645 0-2.835 0-3.772.075-.928.074-1.543.217-2.05.466a5.25 5.25 0 00-2.387 2.387c-.25.507-.392 1.122-.466 2.05-.074.937-.075 2.127-.075 3.772v.9c0 1.692 0 2.917.08 3.88.077.954.228 1.585.492 2.104a5.25 5.25 0 002.295 2.294c.518.264 1.15.415 2.103.493.963.078 2.187.079 3.88.079h.9c1.645 0 2.835 0 3.772-.075.928-.074 1.543-.217 2.05-.466a5.25 5.25 0 002.387-2.387c.25-.507.392-1.122.466-2.05.074-.937.075-2.127.075-3.772V12a.75.75 0 011.5 0v.533c0 1.605 0 2.854-.08 3.857-.08 1.019-.247 1.847-.616 2.595a6.75 6.75 0 01-3.069 3.069c-.748.369-1.576.535-2.595.616-1.003.08-2.252.08-3.857.08H11.566c-1.651 0-2.937 0-3.968-.084-1.047-.086-1.897-.262-2.662-.652a6.75 6.75 0 01-2.95-2.95c-.39-.765-.566-1.615-.652-2.662-.084-1.031-.084-2.317-.084-3.968V11.467c0-1.605 0-2.854.08-3.858.08-1.018.247-1.846.616-2.594a6.75 6.75 0 013.069-3.069c.748-.369 1.576-.535 2.595-.616 1.003-.08 2.252-.08 3.857-.08z"/>
</svg>
