<svg xmlns="http://www.w3.org/2000/svg" width="24" height="24" fill="currentColor" viewBox="0 0 24 24">
  <path fill-rule="evenodd" d="M12 3.25a.75.75 0 000 1.5h10a.75.75 0 000-1.5H12zM11.25 12a.75.75 0 01.75-.75h10a.75.75 0 010 1.5H12a.75.75 0 01-.75-.75zm0 8a.75.75 0 01.75-.75h10a.75.75 0 010 1.5H12a.75.75 0 01-.75-.75z" opacity=".4"/>
  <path fill-rule="evenodd" d="M4.47 2.47a.75.75 0 011.06 0l3 3a.75.75 0 01-1.06 1.06L5.75 4.81v14.38l1.72-1.72a.75.75 0 011.06 1.06l-3 3a.75.75 0 01-1.06 0l-3-3a.75.75 0 111.06-1.06l1.72 1.72V4.81L2.53 6.53a.75.75 0 01-1.06-1.06l3-3z"/>
</svg>
