<svg xmlns="http://www.w3.org/2000/svg" width="24" height="24" fill="currentColor" viewBox="0 0 24 24">
  <path fill-rule="evenodd" d="M7 8.25a.75.75 0 000 1.5h10a.75.75 0 000-1.5H7zM12.75 16a.75.75 0 00-1.5 0v5.25H8a.75.75 0 000 1.5h8a.75.75 0 000-1.5h-3.25V16z" opacity=".4"/>
  <path fill-rule="evenodd" d="M5.074 1.25h13.852c.472 0 .878 0 1.197.03.318.028.692.095 1.003.335.411.317.66.8.68 1.32.014.393-.15.736-.31 1.011-.162.277-.398.607-.672.991l-.02.029-8.194 11.47a.75.75 0 01-1.22 0L3.197 4.966l-.02-.029c-.275-.384-.51-.714-.673-.99-.16-.276-.324-.62-.31-1.012a1.75 1.75 0 01.68-1.32c.311-.24.685-.307 1.003-.336.32-.029.725-.029 1.197-.029zM3.778 2.812a.25.25 0 00-.084.163c.006.018.028.082.105.214.123.21.318.484.618.905L12 14.71l7.583-10.616c.3-.42.495-.695.618-.905.077-.132.099-.196.104-.214a.25.25 0 00-.083-.163 1.085 1.085 0 00-.235-.04c-.243-.021-.579-.022-1.096-.022H5.109c-.517 0-.853 0-1.096.023a1.084 1.084 0 00-.235.04z"/>
</svg>
