<svg xmlns="http://www.w3.org/2000/svg" width="24" height="24" fill="currentColor" viewBox="0 0 24 24">
  <path fill-rule="evenodd" d="M11.2 1.25h-.03c-.535 0-.98 0-1.345.03-.38.03-.736.098-1.073.27A2.75 2.75 0 007.55 2.752c-.172.337-.24.693-.27 1.073-.03.365-.03.81-.03 1.345V7a.75.75 0 001.5 0V5.2c0-.572 0-.957.025-1.253.023-.287.065-.424.111-.514a1.25 1.25 0 01.547-.547c.09-.046.227-.088.514-.111.296-.024.68-.025 1.253-.025h3.3a.75.75 0 01.75.75V4a.75.75 0 001.5 0v-.5a2.25 2.25 0 00-2.25-2.25h-3.3zM12.75 13a.75.75 0 00-1.5 0v2a.75.75 0 001.5 0v-2z" opacity=".4"/>
  <path fill-rule="evenodd" d="M3.25 14a8.75 8.75 0 1117.5 0 8.75 8.75 0 01-17.5 0zM12 6.75a7.25 7.25 0 100 14.5 7.25 7.25 0 000-14.5z"/>
</svg>
