<svg xmlns="http://www.w3.org/2000/svg" width="24" height="24" fill="currentColor" viewBox="0 0 24 24">
  <path fill-rule="evenodd" d="M20.657 9.419a.75.75 0 01.887.58c.135.647.206 1.316.206 2.001 0 5.385-4.365 9.75-9.75 9.75a.75.75 0 010-1.5 8.25 8.25 0 008.076-9.944.75.75 0 01.581-.887z" opacity=".4"/>
  <path fill-rule="evenodd" d="M12 3.75a8.25 8.25 0 00-5.776 14.14c2.096-.475 4.715-1.525 7.4-3.075 2.688-1.552 4.908-3.296 6.367-4.874a8.247 8.247 0 00-2.489-4.088A8.217 8.217 0 0012 3.75zm9.117 4.787c.245-.368.428-.708.548-1.014.238-.606.189-.956.078-1.148-.111-.192-.39-.41-1.034-.507a5.49 5.49 0 00-1.154-.032 9.741 9.741 0 011.562 2.701zm-2.898-4.046A9.713 9.713 0 0012 2.25c-5.385 0-9.75 4.365-9.75 9.75 0 .556.047 1.101.136 1.632-.656.786-1.16 1.564-1.447 2.297-.319.81-.417 1.691.02 2.446.44.763 1.263 1.118 2.136 1.244.773.112 1.688.064 2.686-.11A9.71 9.71 0 0012 21.75a.75.75 0 000-1.5 8.212 8.212 0 01-4.285-1.199c2.026-.594 4.336-1.596 6.66-2.937 2.95-1.704 5.415-3.662 6.999-5.466.773-.88 1.365-1.757 1.687-2.577.319-.81.416-1.691-.02-2.446-.435-.755-1.247-1.11-2.109-1.24-.779-.117-1.705-.07-2.713.106zM4.446 18.164a9.742 9.742 0 01-1.563-2.701 5.48 5.48 0 00-.548 1.014c-.238.606-.189.956-.078 1.148.112.194.396.414 1.053.51.322.046.702.057 1.136.03z"/>
</svg>
