<svg xmlns="http://www.w3.org/2000/svg" width="24" height="24" fill="currentColor" viewBox="0 0 24 24">
  <path fill-rule="evenodd" d="M9 10.75a5.25 5.25 0 103.913 8.75.75.75 0 011.118 1A6.75 6.75 0 119 9.25a.75.75 0 010 1.5z" opacity=".4"/>
  <path fill-rule="evenodd" d="M10.75 4a1.25 1.25 0 112.5 0 1.25 1.25 0 01-2.5 0zM12 1.25a2.75 2.75 0 100 5.5 2.75 2.75 0 000-5.5zm0 7a.75.75 0 01.75.75A2.25 2.25 0 0015 11.25h1a.75.75 0 010 1.5h-1a3.734 3.734 0 01-2.25-.75v1c0 .476 0 .796.017 1.043.017.241.046.358.078.435.127.307.37.55.677.677.077.032.194.061.435.078.247.017.567.017 1.043.017h.025c.445 0 .816 0 1.12.02.317.022.617.069.907.19a2.75 2.75 0 011.489 1.488c.12.29.167.59.188.907.021.304.021.675.021 1.12V20c0 .69.56 1.25 1.25 1.25h1a.75.75 0 010 1.5h-1A2.75 2.75 0 0117.25 20v-1c0-.476 0-.796-.017-1.043-.017-.241-.046-.358-.078-.435a1.25 1.25 0 00-.677-.677c-.077-.032-.194-.061-.435-.078A17.073 17.073 0 0015 16.75h-.025c-.445 0-.816 0-1.12-.02a2.822 2.822 0 01-.907-.19 2.75 2.75 0 01-1.489-1.488c-.12-.29-.167-.59-.188-.907-.021-.304-.021-.675-.021-1.12V9a.75.75 0 01.75-.75z"/>
</svg>
