<svg xmlns="http://www.w3.org/2000/svg" width="24" height="24" fill="currentColor" viewBox="0 0 24 24">
  <path fill-rule="evenodd" d="M14.538 1.409a.75.75 0 01.644-.137l1.576.394.133.034c.735.183 1.31.326 1.757.66.392.293.698.686.887 1.136.216.515.216 1.108.215 1.865v4.77c0 .611 0 1.091-.15 1.53a2.75 2.75 0 01-.636 1.027c-.324.332-.754.546-1.3.819l-.098.048-1.816.909V22a.75.75 0 01-1.5 0V2a.75.75 0 01.288-.591zm1.212 11.378l1.146-.573c.69-.346.871-.447.997-.575.13-.133.228-.292.289-.467.058-.17.068-.377.068-1.15V5.498c0-.962-.014-1.222-.098-1.42a1.25 1.25 0 00-.403-.517c-.172-.129-.42-.206-1.355-.44l-.644-.16v9.825z" opacity=".4"/>
  <path fill-rule="evenodd" d="M4 1.25a.75.75 0 01.75.75v5.287c0 .673.008.853.054 1.006.048.157.126.303.23.43.101.123.247.23.807.603l.409.273V2a.75.75 0 111.5 0v7.599l.409-.273c.56-.373.705-.48.807-.603a1.25 1.25 0 00.23-.43c.046-.153.054-.333.054-1.006V2a.75.75 0 111.5 0v5.381c0 .534 0 .955-.119 1.348a2.75 2.75 0 01-.507.947c-.26.317-.61.55-1.055.846l-.078.052-1.241.827V22a.75.75 0 01-1.5 0V11.401l-1.241-.827-.078-.052c-.445-.296-.795-.529-1.056-.846a2.75 2.75 0 01-.506-.947c-.12-.393-.12-.814-.12-1.348V2A.75.75 0 014 1.25z"/>
</svg>
