<svg xmlns="http://www.w3.org/2000/svg" width="24" height="24" fill="currentColor" viewBox="0 0 24 24">
  <path fill-rule="evenodd" d="M15 4.25c.3 0 .571.179.69.455l2.804 6.545H22a.75.75 0 010 1.5h-4a.75.75 0 01-.69-.455L15 6.904l-1.025 2.391a.75.75 0 01-1.379-.59l1.715-4A.75.75 0 0115 4.25z" opacity=".4"/>
  <path fill-rule="evenodd" d="M13.581 8.31a.75.75 0 01.394.985l-4.286 10a.75.75 0 01-1.378 0L5.505 12.75H2a.75.75 0 010-1.5h4c.3 0 .571.179.69.455L9 17.096l3.596-8.391a.75.75 0 01.985-.394z"/>
</svg>
