<svg xmlns="http://www.w3.org/2000/svg" width="24" height="24" fill="currentColor" viewBox="0 0 24 24">
  <path fill-rule="evenodd" d="M9.25 9a.75.75 0 01.75-.75h4a.75.75 0 010 1.5h-3.25v1.5H14a.75.75 0 01.75.75v3a.75.75 0 01-.75.75h-4a.75.75 0 010-1.5h3.25v-1.5H10a.75.75 0 01-.75-.75V9z" opacity=".4"/>
  <path fill-rule="evenodd" d="M1.25 12A10.73 10.73 0 0112 1.25c3.556 0 6.22 1.485 7.98 2.952.492.41.915.82 1.27 1.198V2.556a.75.75 0 011.5 0v5a.75.75 0 01-1.393.386l-.004-.007a9.953 9.953 0 00-.563-.779 12.685 12.685 0 00-1.77-1.802C17.447 4.043 15.11 2.75 12 2.75A9.23 9.23 0 002.75 12a9.25 9.25 0 0018.5 0 .75.75 0 011.5 0c0 5.937-4.813 10.75-10.75 10.75S1.25 17.937 1.25 12z"/>
</svg>
