<svg xmlns="http://www.w3.org/2000/svg" width="24" height="24" fill="currentColor" viewBox="0 0 24 24">
  <path fill-rule="evenodd" d="M1 13.25a.75.75 0 01.75.75v3c0 .69.56 1.25 1.25 1.25h.325a3.751 3.751 0 017.35 0h2.65a3.751 3.751 0 017.33-.096A2.251 2.251 0 0022.25 16v-2a.75.75 0 011.5 0v2a3.751 3.751 0 01-3.063 3.687 3.751 3.751 0 01-7.362.063h-2.65a3.751 3.751 0 01-7.35 0H3A2.75 2.75 0 01.25 17v-3a.75.75 0 01.75-.75zM9.25 19a2.25 2.25 0 10-4.5 0 2.25 2.25 0 004.5 0zm5.5 0a2.25 2.25 0 104.5 0 2.25 2.25 0 00-4.5 0z" opacity=".4"/>
  <path fill-rule="evenodd" d="M15.768 1.25h2.464c.813 0 1.469 0 2 .043.546.045 1.026.14 1.47.366a3.75 3.75 0 011.64 1.639c.226.444.32.924.365 1.47.043.531.043 1.187.043 2V15a.75.75 0 01-1.5 0V6.8c0-.852 0-1.447-.038-1.91-.038-.453-.107-.714-.207-.911a2.25 2.25 0 00-.983-.984c-.198-.1-.459-.17-.913-.207-.462-.037-1.057-.038-1.909-.038h-2.4c-.852 0-1.447 0-1.91.038-.453.037-.714.107-.912.207a2.25 2.25 0 00-.983.984c-.1.197-.17.458-.207.912-.037.462-.038 1.057-.038 1.909V8.008c0 .456-.003.844-.03 1.167-.03.38-.098.736-.27 1.073a2.751 2.751 0 01-1.201 1.202c-.338.172-.694.24-1.074.27-.365.03-.81.03-1.345.03H1.771c-.02.213-.021.488-.021 1.023V15a.75.75 0 01-1.5 0v-2.29c0-.6 0-.987.062-1.369a4.75 4.75 0 01.274-.987c.143-.36.342-.692.65-1.206l.033-.054.224-.373.066-.11c.616-1.027 1.012-1.688 1.57-2.178a4.75 4.75 0 011.69-.958c.707-.225 1.478-.225 2.676-.225h2.771c.006-.171.015-.331.027-.481.045-.547.14-1.027.366-1.471a3.75 3.75 0 011.639-1.64c.444-.226.924-.32 1.47-.365.531-.043 1.187-.043 2-.043zm-13.442 9H7.8c.572 0 .957 0 1.253-.025.287-.023.424-.065.514-.111a1.25 1.25 0 00.547-.547c.046-.09.088-.227.111-.514.024-.296.025-.68.025-1.253V6.75H7.624c-1.371 0-1.892.008-2.348.154a3.25 3.25 0 00-1.157.655c-.36.316-.635.759-1.34 1.934l-.224.373-.23.384z"/>
</svg>
