<svg xmlns="http://www.w3.org/2000/svg" width="24" height="24" fill="currentColor" viewBox="0 0 24 24">
  <path fill-rule="evenodd" d="M11.744 8.093a.75.75 0 00-1.488-.186l-.23 1.843H8.5a.75.75 0 100 1.5h1.338l-.188 1.5H8a.75.75 0 000 1.5h1.463l-.207 1.657a.75.75 0 101.488.186l.23-1.843h1.489l-.207 1.657a.75.75 0 101.488.186l.23-1.843H15.5a.75.75 0 000-1.5h-1.338l.188-1.5H16a.75.75 0 000-1.5h-1.463l.207-1.657a.75.75 0 00-1.488-.186l-.23 1.843h-1.489l.207-1.657zm.906 4.657l.188-1.5H11.35l-.188 1.5h1.488z" opacity=".4"/>
  <path fill-rule="evenodd" d="M12 2.75a9.25 9.25 0 100 18.5 9.25 9.25 0 000-18.5zM1.25 12C1.25 6.063 6.063 1.25 12 1.25S22.75 6.063 22.75 12 17.937 22.75 12 22.75 1.25 17.937 1.25 12z"/>
</svg>
