<svg xmlns="http://www.w3.org/2000/svg" width="24" height="24" fill="currentColor" viewBox="0 0 24 24">
  <path fill-rule="evenodd" d="M12.787 8.307A.75.75 0 0113.25 9v6a.75.75 0 01-1.5 0v-4.19l-1.22 1.22a.75.75 0 01-1.06-1.06l2.5-2.5a.75.75 0 01.817-.163z" opacity=".4"/>
  <path fill-rule="evenodd" d="M18.53.47a.75.75 0 10-1.06 1.06l1.72 1.72H7.767c-.813 0-1.469 0-2 .043-.546.045-1.026.14-1.47.366a3.75 3.75 0 00-1.64 1.639c-.226.444-.32.924-.365 1.47-.043.531-.043 1.187-.043 2V10a.75.75 0 001.5 0V8.8c0-.852 0-1.447.038-1.91.037-.453.107-.714.207-.911a2.25 2.25 0 01.984-.984c.197-.1.458-.17.912-.207.462-.037 1.057-.038 1.909-.038h11.39l-1.72 1.72a.75.75 0 001.06 1.06l3-3a.75.75 0 000-1.06l-3-3zm3.22 14.03V14a.75.75 0 00-1.5 0v1.2c0 .852 0 1.447-.038 1.91-.038.453-.107.714-.207.912-.216.423-.56.767-.983.983-.198.1-.459.17-.913.207-.462.037-1.057.038-1.909.038H4.81l1.72-1.72a.75.75 0 10-1.06-1.06l-3 3a.75.75 0 000 1.06l3 3a.75.75 0 001.06-1.06l-1.72-1.72h11.422c.813 0 1.469 0 2-.043.546-.045 1.026-.14 1.47-.366a3.75 3.75 0 001.64-1.639c.226-.444.32-.924.365-1.47.043-.531.043-1.187.043-2V14.5z"/>
</svg>
