<svg xmlns="http://www.w3.org/2000/svg" width="24" height="24" fill="currentColor" viewBox="0 0 24 24">
  <path fill-rule="evenodd" d="M21.894 6.273a.75.75 0 01.535.513A7.75 7.75 0 0115 16.75a.75.75 0 010-1.5 6.25 6.25 0 006.233-6.712l-1.44 1.44-.021.021c-.378.378-.693.693-.972.93-.29.246-.59.451-.95.568a2.75 2.75 0 01-1.7 0c-.36-.117-.66-.322-.95-.568a17.8 17.8 0 01-.972-.93l-.021-.021-.448-.448a.75.75 0 111.061-1.06l.448.447c.404.405.676.676.903.868.22.187.346.254.443.285.25.082.521.082.772 0 .097-.03.224-.098.443-.285.226-.192.499-.463.903-.868L21.18 6.47a.75.75 0 01.714-.197z" opacity=".4"/>
  <path fill-rule="evenodd" d="M15 2.75A6.25 6.25 0 008.75 9c0 .524.017 1.14.083 1.727.068.6.182 1.11.344 1.451a.75.75 0 01-.147.852l-6 6c-.085.086-.11.11-.127.13a1.25 1.25 0 000 1.68c.017.02.042.044.127.13.086.085.11.11.13.127a1.25 1.25 0 001.68 0c.02-.018.044-.042.13-.127l6-6a.75.75 0 01.852-.147c.342.162.85.276 1.45.344.588.066 1.204.083 1.728.083a.75.75 0 010 1.5c-.55 0-1.229-.017-1.896-.093a7.575 7.575 0 01-1.418-.282L6.03 22.03l-.012.013c-.068.067-.12.12-.168.163a2.75 2.75 0 01-3.7 0c-.049-.044-.1-.096-.168-.163l-.012-.013-.013-.012c-.067-.068-.12-.12-.164-.168a2.75 2.75 0 010-3.7c.045-.049.097-.1.164-.168l.013-.012 5.655-5.656a7.577 7.577 0 01-.282-1.418A17.205 17.205 0 017.25 9a7.75 7.75 0 019.964-7.429.75.75 0 01.316 1.25l-2.71 2.71c-.588.587-.744.758-.822.914a1.25 1.25 0 000 1.11c.078.156.234.327.822.915l.71.71a.75.75 0 01-1.06 1.06l-.71-.71-.086-.085c-.461-.46-.818-.817-1.02-1.224a2.75 2.75 0 010-2.442c.202-.407.559-.763 1.02-1.223l.086-.086 1.702-1.703A6.35 6.35 0 0015 2.75z"/>
</svg>
