<svg xmlns="http://www.w3.org/2000/svg" width="24" height="24" fill="currentColor" viewBox="0 0 24 24">
  <path fill-rule="evenodd" d="M13.728 6.182a.75.75 0 00-1.456-.364l-1 4a.75.75 0 001.456.364l1-4zM10 16.25a.75.75 0 000 1.5h4a.75.75 0 000-1.5h-4z" opacity=".4"/>
  <path fill-rule="evenodd" d="M10.098 1.25h-.034c-.67 0-1.22 0-1.663.04-.455.04-.882.127-1.264.358a2.75 2.75 0 00-1.203 1.54c-.132.427-.113.862-.041 1.314.036.227.089.48.155.763a5.195 5.195 0 00-4.798 5.18v3.589c0 1.371 0 2.447.07 3.311.073.88.221 1.607.557 2.265a5.75 5.75 0 002.513 2.513c.658.336 1.385.485 2.265.556.864.071 1.94.071 3.311.071h4.068c1.371 0 2.447 0 3.311-.07.88-.072 1.607-.221 2.265-.557a5.75 5.75 0 002.513-2.513c.336-.658.485-1.385.556-2.265.071-.864.071-1.94.071-3.311v-3.59a5.195 5.195 0 00-4.798-5.18c.066-.281.12-.535.155-.762.072-.452.09-.887-.041-1.314a2.75 2.75 0 00-1.203-1.54c-.382-.231-.809-.319-1.264-.359-.442-.039-.994-.039-1.663-.039H10.099zm7.488 5.5l-.252 1.008-.034.133c-.183.735-.326 1.31-.66 1.757a2.75 2.75 0 01-1.136.887c-.515.216-1.108.216-1.865.215H10.36c-.757 0-1.35.001-1.865-.215a2.75 2.75 0 01-1.136-.887c-.334-.446-.477-1.022-.66-1.757l-.034-.133-.252-1.008a3.694 3.694 0 00-3.664 3.694V14c0 1.412 0 2.427.066 3.223.064.787.188 1.295.397 1.707a4.25 4.25 0 001.858 1.857c.411.21.919.333 1.706.397.796.065 1.81.066 3.223.066h4c1.412 0 2.427 0 3.223-.066.787-.064 1.295-.188 1.707-.397a4.25 4.25 0 001.857-1.857c.21-.412.333-.92.397-1.707.065-.796.066-1.81.066-3.223v-3.556a3.694 3.694 0 00-3.664-3.694zM7.914 2.93c.096-.057.257-.115.62-.147.367-.032.852-.033 1.564-.033h3.803c.713 0 1.198 0 1.566.033.362.032.523.09.62.148.26.158.455.408.546.7.033.107.05.277-.007.637-.058.365-.175.835-.348 1.526l-.4 1.6c-.233.934-.31 1.183-.439 1.355a1.25 1.25 0 01-.516.403c-.199.084-.459.098-1.421.098h-3.004c-.962 0-1.222-.014-1.42-.098a1.25 1.25 0 01-.517-.403c-.129-.172-.206-.42-.44-1.355l-.4-1.6c-.172-.69-.289-1.161-.347-1.526-.057-.36-.04-.53-.007-.637a1.25 1.25 0 01.547-.7z"/>
</svg>
