<svg xmlns="http://www.w3.org/2000/svg" width="24" height="24" fill="currentColor" viewBox="0 0 24 24">
  <path fill-rule="evenodd" d="M3 14.25a.75.75 0 000 1.5h18a.75.75 0 000-1.5H3zm0 6a.75.75 0 000 1.5h18a.75.75 0 000-1.5H3z" opacity=".4"/>
  <path fill-rule="evenodd" d="M11.25 3a.75.75 0 01.75-.75h9a.75.75 0 010 1.5h-9a.75.75 0 01-.75-.75zm0 6a.75.75 0 01.75-.75h9a.75.75 0 010 1.5h-9a.75.75 0 01-.75-.75zM4.53 2.47a.75.75 0 00-1.06 1.06L5.94 6 3.47 8.47a.75.75 0 001.06 1.06l3-3a.75.75 0 000-1.06l-3-3z"/>
</svg>
