<svg xmlns="http://www.w3.org/2000/svg" width="24" height="24" fill="currentColor" viewBox="0 0 24 24">
  <path fill-rule="evenodd" d="M14 1.75a.75.75 0 01.75.75v2.3c0 .572 0 .957.025 1.253.023.287.065.424.111.515.12.235.311.426.546.546.091.046.228.088.515.111.296.024.68.025 1.253.025h2.3a.75.75 0 010 1.5H17.17c-.535 0-.98 0-1.345-.03-.38-.03-.736-.098-1.073-.27A2.75 2.75 0 0113.55 7.25c-.172-.338-.24-.694-.27-1.074-.03-.365-.03-.81-.03-1.345V2.5a.75.75 0 01.75-.75z" opacity=".4"/>
  <path fill-rule="evenodd" d="M13.849 2.85c-.436-.096-.906-.1-2.07-.1-1.308 0-2.246 0-2.985.056-.73.056-1.204.162-1.59.342a4.25 4.25 0 00-2.056 2.056c-.18.386-.286.86-.342 1.59-.056.739-.056 1.677-.056 2.984V11a.75.75 0 01-1.5 0V9.748c0-1.27 0-2.265.06-3.067.063-.816.19-1.493.479-2.111a5.75 5.75 0 012.78-2.781c.62-.289 1.296-.416 2.112-.478.802-.061 1.797-.061 3.066-.061h.123c1.045 0 1.688 0 2.304.136a5.75 5.75 0 011.844.764c.532.34.987.794 1.726 1.533l.064.065.38.379.07.07c.797.797 1.289 1.289 1.645 1.87a5.75 5.75 0 01.688 1.662c.16.662.16 1.357.159 2.486V11a.75.75 0 01-1.5 0v-.686c0-1.259-.005-1.766-.117-2.235a4.25 4.25 0 00-.51-1.229c-.251-.41-.607-.773-1.497-1.663l-.378-.378c-.824-.824-1.16-1.154-1.536-1.393a4.249 4.249 0 00-1.363-.565zM4 14.25a.75.75 0 01.75.75v1.5c0 .479 0 .674.013.834a4.25 4.25 0 003.904 3.903c.159.012.354.013.833.013h.5a.75.75 0 010 1.5h-.54c-.426 0-.686 0-.911-.018a5.75 5.75 0 01-5.281-5.28 12.42 12.42 0 01-.018-.912V15a.75.75 0 01.75-.75zm16 0a.75.75 0 01.75.75v1.54c0 .426 0 .686-.018.911a5.75 5.75 0 01-5.28 5.281c-.226.018-.486.018-.912.018H14a.75.75 0 010-1.5h.5c.479 0 .674 0 .834-.013a4.25 4.25 0 003.903-3.903c.012-.16.013-.355.013-.834V15a.75.75 0 01.75-.75z"/>
</svg>
