<svg xmlns="http://www.w3.org/2000/svg" width="24" height="24" fill="currentColor" viewBox="0 0 24 24">
  <path fill-rule="evenodd" d="M5.416 4.624a.75.75 0 00-.832-1.248l-1.575 1.05-.078.052c-.445.296-.795.529-1.056.846a2.75 2.75 0 00-.507.947c-.12.393-.119.814-.118 1.348V16a.75.75 0 001.5 0V7.713c0-.673.007-.853.054-1.006a1.25 1.25 0 01.23-.43c.101-.123.247-.23.807-.603l1.575-1.05zm12.96-1.04a.75.75 0 011.04-.208l1.575 1.05.078.052c.445.296.794.529 1.055.846.23.28.402.601.507.947.12.393.12.813.119 1.348V16a.75.75 0 01-1.5 0V7.713c0-.673-.008-.853-.054-1.006a1.248 1.248 0 00-.23-.43c-.102-.123-.248-.23-.807-.603l-1.575-1.05a.75.75 0 01-.208-1.04zm-7.707 13.255l-.004.007.003-.005v-.002zm-.004.007l-.002.003v.001l.002-.004zm2.67.003l-.001-.003a1.167 1.167 0 00-.24-.26c-.19-.152-.526-.336-1.094-.336-.568 0-.905.184-1.094.336a1.175 1.175 0 00-.241.26l-.002.003a.75.75 0 01-1.334-.685l.67.336-.67-.336v-.001l.002-.002.001-.004.005-.008.012-.022a1.666 1.666 0 01.152-.233c.102-.136.255-.31.468-.48.436-.348 1.099-.664 2.031-.664.932 0 1.595.316 2.03.664a2.668 2.668 0 01.586.654l.035.06.011.021.005.009.002.003v.002l.001.001-.67.336.67-.335a.75.75 0 01-1.334.684z" opacity=".4"/>
  <path fill-rule="evenodd" d="M2.75 16a3.25 3.25 0 116.5 0 3.25 3.25 0 01-6.5 0zM6 11.25a4.75 4.75 0 100 9.5 4.75 4.75 0 000-9.5zM14.75 16a3.25 3.25 0 116.5 0 3.25 3.25 0 01-6.5 0zM18 11.25a4.75 4.75 0 100 9.5 4.75 4.75 0 000-9.5z"/>
</svg>
