<svg xmlns="http://www.w3.org/2000/svg" width="24" height="24" fill="currentColor" viewBox="0 0 24 24">
  <path fill-rule="evenodd" d="M20.53 3.47a.75.75 0 010 1.06l-8.72 8.72H15a.75.75 0 010 1.5h-5a.75.75 0 01-.75-.75V9a.75.75 0 011.5 0v3.19l8.72-8.72a.75.75 0 011.06 0z" opacity=".4"/>
  <path fill-rule="evenodd" d="M12 2.75a9.25 9.25 0 109.065 7.4.75.75 0 111.47-.3c.141.696.215 1.415.215 2.15 0 5.937-4.813 10.75-10.75 10.75S1.25 17.937 1.25 12 6.063 1.25 12 1.25c.735 0 1.454.074 2.15.215a.75.75 0 01-.3 1.47A9.296 9.296 0 0012 2.75z"/>
</svg>
