<svg xmlns="http://www.w3.org/2000/svg" width="24" height="24" fill="currentColor" viewBox="0 0 24 24">
  <path fill-rule="evenodd" d="M7.134 15.762a.75.75 0 01.604.872l-.81 4.45.74-.122.046-.008c1.53-.255 2.351-.392 3.18-.447a16.754 16.754 0 012.212 0c.829.055 1.65.192 3.18.447l.046.008.74.123-.81-4.45a.75.75 0 111.476-.27l1 5.5a.75.75 0 01-.861.875l-1.792-.299c-1.587-.264-2.332-.388-3.078-.437a15.234 15.234 0 00-2.014 0c-.746.05-1.49.173-3.078.437l-1.792.299a.75.75 0 01-.86-.874l1-5.5a.75.75 0 01.871-.604z" opacity=".4"/>
  <path fill-rule="evenodd" d="M3.25 10a8.75 8.75 0 1117.5 0 8.75 8.75 0 01-17.5 0zM12 2.75a7.25 7.25 0 100 14.5 7.25 7.25 0 000-14.5z"/>
</svg>
