<svg xmlns="http://www.w3.org/2000/svg" width="24" height="24" fill="currentColor" viewBox="0 0 24 24">
  <path fill-rule="evenodd" d="M8.75 3a.75.75 0 00-1.5 0v16a.75.75 0 001.5 0V3zm8 2a.75.75 0 00-1.5 0v16a.75.75 0 001.5 0V5z" opacity=".4"/>
  <path fill-rule="evenodd" d="M8.641 3.197a3.25 3.25 0 00-1.146.063c-.4.095-.79.3-1.807.856L3.61 5.249c-.5.273-.596.335-.659.403a.75.75 0 00-.163.274c-.029.088-.038.201-.038.771v12.338c0 .503 0 .829.023 1.066a.905.905 0 00.045.254.35.35 0 00.234.139.904.904 0 00.245-.081c.22-.095.505-.25.947-.491l.725-.396.095-.051c.89-.487 1.465-.8 2.085-.947a4.75 4.75 0 011.675-.093c.633.078 1.238.325 2.177.71l.1.04 2.366.969c1.073.439 1.483.6 1.892.65.383.047.77.025 1.146-.064.4-.095.79-.3 1.807-.855l2.078-1.134c.5-.273.596-.335.659-.403a.75.75 0 00.163-.274c.029-.088.038-.201.038-.771V4.965c0-.503 0-.828-.023-1.066a.91.91 0 00-.045-.254.35.35 0 00-.234-.139.906.906 0 00-.245.082c-.22.094-.505.25-.947.49l-.725.396-.095.052c-.89.486-1.465.799-2.085.946a4.75 4.75 0 01-1.675.093c-.633-.077-1.238-.325-2.177-.71l-.1-.04-2.366-.969c-1.073-.438-1.483-.6-1.892-.65zM7.15 1.8a4.75 4.75 0 011.675-.093c.633.077 1.238.325 2.177.71l.1.04 2.366.968c1.073.44 1.483.6 1.892.65.383.047.77.026 1.146-.063.4-.095.79-.3 1.807-.856l.726-.396.03-.016c.403-.22.75-.41 1.04-.534.295-.128.64-.24 1.017-.194a1.85 1.85 0 011.28.76c.22.308.287.665.316.985.03.314.029.71.029 1.168v12.463c0 .428.001.805-.115 1.155a2.25 2.25 0 01-.489.823c-.25.269-.582.45-.959.654l-.079.043-2.077 1.133-.095.052c-.89.486-1.465.8-2.085.946a4.75 4.75 0 01-1.675.093c-.633-.077-1.238-.325-2.177-.71l-.1-.04-2.366-.968c-1.073-.44-1.483-.6-1.892-.65a3.25 3.25 0 00-1.146.064c-.4.095-.79.3-1.807.855l-.726.396-.03.016c-.403.22-.75.41-1.04.535-.295.127-.64.24-1.017.193a1.85 1.85 0 01-1.28-.76c-.22-.308-.287-.665-.316-.985-.029-.314-.029-.71-.029-1.168V6.697v-.09c0-.428-.001-.805.115-1.155a2.25 2.25 0 01.489-.822c.25-.27.582-.45.959-.655l.079-.043L4.969 2.8l.095-.052c.89-.486 1.465-.799 2.085-.946z"/>
</svg>
