<svg xmlns="http://www.w3.org/2000/svg" width="24" height="24" fill="currentColor" viewBox="0 0 24 24">
  <path fill-rule="evenodd" d="M10 9a1 1 0 11-2 0 1 1 0 012 0zm-3.604 3.556A.75.75 0 017 12.25h10a.75.75 0 01.716.974L17 13l.716.224v.001l-.001.002-.002.005-.004.013-.015.044a7.362 7.362 0 01-.27.655 8.02 8.02 0 01-.927 1.518c-.87 1.113-2.316 2.288-4.497 2.288s-3.628-1.175-4.497-2.288a8.015 8.015 0 01-1.197-2.173 3.41 3.41 0 01-.015-.044l-.004-.013-.002-.005v-.002L7 13l-.716.224a.75.75 0 01.112-.668zM8.16 13.75c.14.247.313.518.524.788.693.887 1.746 1.712 3.315 1.712s2.622-.825 3.315-1.712c.211-.27.384-.54.524-.788H8.16zM15 10a1 1 0 100-2 1 1 0 000 2z" opacity=".4"/>
  <path fill-rule="evenodd" d="M1.25 12C1.25 6.063 6.063 1.25 12 1.25S22.75 6.063 22.75 12 17.937 22.75 12 22.75 1.25 17.937 1.25 12zM12 2.75a9.25 9.25 0 100 18.5 9.25 9.25 0 000-18.5z"/>
</svg>
