<svg xmlns="http://www.w3.org/2000/svg" width="24" height="24" fill="currentColor" viewBox="0 0 24 24">
  <path fill-rule="evenodd" d="M11.361.25h1.278c.757 0 1.35-.001 1.865.215.45.19.843.495 1.136.887.334.446.477 1.022.66 1.757l.034.133.394 1.576a.75.75 0 01-1.456.364l-.394-1.576c-.233-.934-.31-1.183-.439-1.355a1.25 1.25 0 00-.516-.403c-.199-.084-.459-.098-1.421-.098h-1.004c-.962 0-1.222.014-1.42.098a1.25 1.25 0 00-.517.403c-.129.172-.206.42-.44 1.355l-.393 1.576a.75.75 0 01-1.456-.364l.394-1.576.034-.133c.183-.735.326-1.31.66-1.757A2.75 2.75 0 019.496.465c.515-.216 1.108-.216 1.865-.215zm.639 9a.75.75 0 01.75.75v1.599l1.166.777a.75.75 0 11-.832 1.248l-1.5-1A.75.75 0 0111.25 12v-2a.75.75 0 01.75-.75zm-3.272 9.568a.75.75 0 10-1.456.364l.394 1.576.034.133c.183.735.326 1.31.66 1.757a2.75 2.75 0 001.136.887c.515.216 1.108.216 1.865.215h1.278c.757 0 1.35.001 1.865-.215a2.75 2.75 0 001.136-.887c.334-.446.477-1.022.66-1.757l.034-.133.394-1.576a.75.75 0 10-1.456-.364l-.394 1.576c-.233.934-.31 1.183-.439 1.355a1.25 1.25 0 01-.516.403c-.199.084-.459.098-1.421.098h-1.004c-.962 0-1.222-.014-1.42-.098a1.25 1.25 0 01-.517-.403c-.129-.172-.206-.42-.44-1.355l-.393-1.576z" opacity=".4"/>
  <path fill-rule="evenodd" d="M3.25 12a8.75 8.75 0 1117.5 0 8.75 8.75 0 01-17.5 0zM12 4.75a7.25 7.25 0 100 14.5 7.25 7.25 0 000-14.5z"/>
</svg>
