<svg xmlns="http://www.w3.org/2000/svg" width="24" height="24" fill="currentColor" viewBox="0 0 24 24">
  <path fill-rule="evenodd" d="M4 13a1 1 0 100-2 1 1 0 000 2zm5-1a1 1 0 11-2 0 1 1 0 012 0zm3 1a1 1 0 100-2 1 1 0 000 2zm5-1a1 1 0 11-2 0 1 1 0 012 0zm4 0a1 1 0 11-2 0 1 1 0 012 0z" opacity=".4"/>
  <path fill-rule="evenodd" d="M3.75 2a.75.75 0 10-1.5 0v1.83c0 .535 0 .98.03 1.345.03.38.098.736.27 1.073A2.75 2.75 0 003.752 7.45c.337.172.693.24 1.073.27.365.03.81.03 1.345.03H17.83c.535 0 .98 0 1.345-.03.38-.03.736-.098 1.073-.27a2.75 2.75 0 001.202-1.202c.172-.337.24-.693.27-1.073.03-.365.03-.81.03-1.345V2a.75.75 0 00-1.5 0v1.8c0 .572 0 .957-.025 1.253-.023.287-.065.424-.111.514a1.25 1.25 0 01-.547.547c-.09.046-.227.088-.515.111-.295.024-.68.025-1.252.025H6.2c-.572 0-.957 0-1.253-.025-.287-.023-.424-.065-.514-.111a1.25 1.25 0 01-.547-.547c-.046-.09-.088-.227-.111-.514-.024-.296-.025-.68-.025-1.253V2zM6.2 16.25h-.03c-.535 0-.98 0-1.345.03-.38.03-.736.098-1.073.27A2.75 2.75 0 002.55 17.75c-.172.338-.24.694-.27 1.074-.03.365-.03.81-.03 1.345V22a.75.75 0 001.5 0v-1.8c0-.572 0-.957.025-1.252.023-.288.065-.425.111-.515a1.25 1.25 0 01.547-.547c.09-.046.227-.088.514-.111.296-.024.68-.025 1.253-.025h11.6c.572 0 .957 0 1.252.025.288.023.425.065.515.111.236.12.427.311.547.547.046.09.088.227.111.515.024.295.025.68.025 1.252V22a.75.75 0 001.5 0v-1.83c0-.535 0-.98-.03-1.345-.03-.38-.098-.736-.27-1.073a2.751 2.751 0 00-1.201-1.202c-.338-.172-.694-.24-1.074-.27-.365-.03-.81-.03-1.345-.03H6.2z"/>
</svg>
