<svg xmlns="http://www.w3.org/2000/svg" width="24" height="24" fill="currentColor" viewBox="0 0 24 24">
  <path fill-rule="evenodd" d="M14.78 12.25H21.22c.122 0 .255 0 .37.01.13.01.3.036.477.126.236.12.427.311.547.546.09.177.116.349.127.479.01.114.009.247.009.369v.72a.75.75 0 01-1.5 0v-.7-.05h-2.5v6.5h.75a.75.75 0 010 1.5h-3a.75.75 0 010-1.5h.75v-6.5h-2.5v.75a.75.75 0 01-1.5 0v-.7-.02c0-.122 0-.255.01-.37.01-.13.036-.3.126-.478a1.25 1.25 0 01.546-.546c.177-.09.349-.116.479-.127.114-.01.247-.009.369-.009z" opacity=".4"/>
  <path fill-rule="evenodd" d="M4.371 2.25h9.258c.395 0 .736 0 1.017.023.297.024.592.078.875.222.424.216.768.56.984.984.144.283.198.578.222.875.023.28.023.622.023 1.017V6a.75.75 0 01-1.5 0v-.6c0-.432 0-.712-.018-.924-.017-.204-.045-.28-.064-.316a.75.75 0 00-.327-.328c-.038-.02-.113-.047-.317-.064a12.753 12.753 0 00-.924-.018H9.75v16.5H11a.75.75 0 010 1.5H7a.75.75 0 010-1.5h1.25V3.75H4.4c-.432 0-.712 0-.924.018-.204.017-.28.045-.316.064a.75.75 0 00-.328.328c-.02.037-.047.112-.064.316-.017.212-.018.492-.018.924V6a.75.75 0 11-1.5 0v-.629c0-.395 0-.736.023-1.017.024-.297.078-.592.222-.875a2.25 2.25 0 01.984-.984c.283-.144.578-.198.875-.222.28-.023.622-.023 1.017-.023z"/>
</svg>
