<svg xmlns="http://www.w3.org/2000/svg" width="24" height="24" fill="currentColor" viewBox="0 0 24 24">
  <path fill-rule="evenodd" d="M12 9.75a2.25 2.25 0 100 4.5 2.25 2.25 0 000-4.5zM8.25 12a3.75 3.75 0 117.5 0 3.75 3.75 0 01-7.5 0z" opacity=".4"/>
  <path d="M6.5 21.526l.375-.65-.375.65zm-1.134-.764l.555-.505-.555.505zm2.363 1.364l.16-.733-.16.733zm1.556-.306l.425.618-.425-.618zm.911-1.02l-.593-.46.593.46zm.68-.878l.105-.743a.75.75 0 00-.697.283l.592.46zm2.247 0l.593-.46a.75.75 0 00-.697-.283l.104.743zm.68.878l-.592.46.593-.46zm.912 1.02l.424-.618-.424.618zm1.556.306l-.16-.733.16.733zm2.363-1.364l-.555-.505.555.505zm.513-1.5l-.748.058.748-.059zm-.428-1.3l-.694.284.694-.284zm-.42-1.029l-.59-.463a.75.75 0 00-.105.747l.694-.284zm1.124-1.945l-.1-.743a.75.75 0 00-.595.463l.695.28zm1.1-.15l-.101-.743.1.743zm1.339-.279l.323.677-.323-.677zm1.043-1.195l-.715-.228.715.228zm0-2.728l-.715.229.715-.23zM21.862 9.44l-.323.677.323-.677zm-1.34-.279l-.1.743.1-.743zm-1.099-.15l-.695.28c.1.25.327.427.594.463l.101-.743zm-1.125-1.945l-.694-.284a.75.75 0 00.104.747l.59-.463zm.421-1.03l-.694-.283.694.284zm.428-1.298l.748.058-.748-.058zm-.513-1.5l.555-.505-.555.504zM17.5 2.473l.375-.65-.375.65zm-1.23-.6l-.158.733.159-.733zm-1.555.306l-.425-.619.425.619zm-.911 1.02l.593.46-.593-.46zm-.68.878l-.105.743a.75.75 0 00.697-.283l-.593-.46zm-2.248 0l-.592.46a.75.75 0 00.697.283l-.105-.743zm-.68-.878l.593-.46-.007-.008-.586.468zm0 0l-.593.46.007.009.586-.469zm-.91-1.02l-.425.618.424-.618zm-1.557-.306l.16.733-.16-.733zm-1.229.6l-.375-.65.375.65zm-1.134.765l.555.504-.555-.504zm-.513 1.5l-.748.058.748-.058zm.428 1.299l.694-.284-.694.284zm.42 1.029l.59.463a.75.75 0 00.105-.747l-.694.284zM4.578 9.012l.1.743a.75.75 0 00.595-.462l-.695-.28zm-1.1.15l.101.743-.1-.743zm-1.339.28l-.323-.678.323.677zm-1.043 1.194l-.714-.23.714.23zM1 12H.25 1zm.095 1.364l-.714.23.714-.23zm1.043 1.195l-.323.677.323-.677zm1.34.279l.1-.743-.1.743zm1.099.15l.695-.28a.75.75 0 00-.594-.463l-.101.743zm1.125 1.945l.694.284a.75.75 0 00-.104-.747l-.59.463zm-.421 1.03l.694.283-.694-.284zm-.428 1.298l.748.059-.748-.059zm2.022 1.616c-.664-.383-.842-.496-.954-.62l-1.11 1.009c.308.34.746.582 1.314.91l.75-1.3zm1.013.516c-.162-.035-.35-.133-1.013-.516l-.75 1.299c.568.328.997.586 1.445.683l.318-1.466zm.973-.191a1.25 1.25 0 01-.973.19L7.57 22.86a2.75 2.75 0 002.14-.42l-.85-1.237zm.742-.861c-.47.605-.605.767-.742.86l.849 1.237c.378-.26.677-.66 1.079-1.179l-1.186-.918zm.68-.879l-.68.879 1.186.918.68-.878-1.185-.919zM12 19.25c-.346 0-.687-.024-1.02-.07l-.208 1.485c.402.056.812.085 1.228.085v-1.5zm1.02-.07c-.333.046-.674.07-1.02.07v1.5c.416 0 .826-.03 1.228-.085l-.209-1.486zm1.377 1.16l-.68-.878-1.187.92.681.877 1.186-.918zm.742.862c-.137-.094-.273-.256-.742-.861l-1.186.918c.402.519.701.92 1.08 1.18l.848-1.237zm.973.191a1.25 1.25 0 01-.973-.191l-.849 1.237a2.75 2.75 0 002.14.42l-.318-1.466zm1.013-.516c-.664.383-.85.48-1.013.516l.318 1.466c.448-.097.877-.355 1.445-.683l-.75-1.3zm.954-.62c-.112.124-.29.237-.954.62l.75 1.299c.568-.328 1.006-.57 1.314-.91l-1.11-1.008zm.32-.937a1.25 1.25 0 01-.32.938l1.11 1.008a2.75 2.75 0 00.706-2.063l-1.496.117zm-.374-1.074c.29.71.361.908.374 1.074l1.496-.117c-.036-.457-.233-.917-.482-1.524l-1.388.567zm-.42-1.029l.42 1.03 1.388-.569-.42-1.029-1.389.568zm1.123-2.51a7.24 7.24 0 01-1.02 1.763l1.18.926a8.742 8.742 0 001.231-2.128l-1.391-.56zm1.694-.612l-1.1.15.203 1.486 1.1-.15-.203-1.486zm1.117-.213c-.15.072-.358.11-1.117.213l.202 1.486c.65-.089 1.147-.147 1.561-.345l-.646-1.354zm.651-.746a1.25 1.25 0 01-.651.746l.646 1.354a2.75 2.75 0 001.434-1.643l-1.429-.457zM22.25 12c0 .766-.009.977-.06 1.136l1.429.457c.14-.437.131-.937.131-1.593h-1.5zm-.06-1.136c.051.159.06.37.06 1.136h1.5c0-.656.009-1.156-.131-1.593l-1.429.457zm-.651-.746c.31.148.546.418.651.746l1.429-.457a2.75 2.75 0 00-1.434-1.643l-.646 1.354zm-1.117-.213c.759.104.967.141 1.117.213l.646-1.354c-.414-.197-.91-.256-1.56-.345l-.203 1.486zm-1.1-.15l1.1.15.202-1.486-1.1-.15-.202 1.486zM17.708 7.53a7.241 7.241 0 011.02 1.763l1.391-.56a8.741 8.741 0 00-1.23-2.129l-1.18.926zm.317-1.776l-.42 1.03 1.388.567.42-1.03-1.388-.567zm.374-1.074c-.013.166-.084.365-.374 1.074l1.388.568c.248-.608.446-1.067.482-1.525l-1.496-.117zm-.32-.937c.231.255.347.594.32.937l1.496.117a2.75 2.75 0 00-.706-2.063l-1.11 1.009zm-.954-.62c.664.383.842.496.954.62l1.11-1.009c-.308-.34-.746-.582-1.314-.91l-.75 1.3zm-1.013-.516c.162.035.35.133 1.013.516l.75-1.299c-.568-.328-.997-.586-1.445-.683l-.318 1.466zm-.973.191a1.25 1.25 0 01.973-.191l.318-1.466a2.75 2.75 0 00-2.14.42l.85 1.237zm-.742.861c.47-.605.605-.767.742-.86L14.29 1.56c-.378.26-.677.661-1.079 1.18l1.186.918zm-.68.879l.68-.879-1.186-.918-.68.878 1.185.919zM12 4.75c.346 0 .687.024 1.02.071l.208-1.485A8.818 8.818 0 0012 3.25v1.5zm-1.02.071A7.32 7.32 0 0112 4.75v-1.5c-.416 0-.826.03-1.228.086l.209 1.485zM9.604 3.659l.68.879 1.186-.919-.68-.878-1.186.918zm.007.01l1.172-.937-1.172.937zm-.75-.87c.138.093.274.255.743.86l1.186-.918c-.402-.519-.701-.92-1.08-1.18l-.848 1.237zm-.972-.192a1.25 1.25 0 01.973.191l.849-1.236a2.75 2.75 0 00-2.14-.42l.318 1.465zm-1.013.516c.664-.383.85-.48 1.013-.516L7.57 1.141c-.448.097-.877.355-1.445.683l.75 1.3zm-.954.62c.112-.123.29-.236.954-.62l-.75-1.299c-.568.328-1.006.57-1.314.91l1.11 1.009zm-.32.937a1.25 1.25 0 01.32-.937l-1.11-1.009a2.75 2.75 0 00-.706 2.063l1.496-.117zm.374 1.074c-.29-.71-.361-.908-.374-1.074l-1.496.117c.036.458.233.917.482 1.525l1.388-.568zm.42 1.03l-.42-1.03-1.388.568.42 1.029 1.389-.568zM5.273 9.292a7.241 7.241 0 011.02-1.763l-1.18-.926A8.741 8.741 0 003.88 8.732l1.391.56zm-1.694.612l1.1-.15-.203-1.486-1.1.15.203 1.486zm-1.117.213c.15-.072.358-.11 1.117-.213L3.376 8.42c-.65.089-1.147.148-1.561.345l.646 1.354zm-.651.746a1.25 1.25 0 01.651-.746l-.646-1.354A2.75 2.75 0 00.38 10.407l1.429.457zM1.75 12c0-.766.009-.977.06-1.136L.38 10.407C.241 10.844.25 11.344.25 12h1.5zm.06 1.136c-.051-.159-.06-.37-.06-1.136H.25c0 .656-.009 1.156.131 1.593l1.429-.457zm.651.746a1.25 1.25 0 01-.651-.746l-1.429.457a2.75 2.75 0 001.434 1.643l.646-1.354zm1.117.213c-.759-.104-.967-.141-1.117-.213l-.646 1.354c.414.197.91.256 1.56.345l.203-1.486zm1.1.15l-1.1-.15-.202 1.486 1.1.15.202-1.486zm1.614 2.225a7.242 7.242 0 01-1.02-1.762l-1.391.56c.31.77.726 1.485 1.23 2.128l1.18-.926zm-.317 1.776l.42-1.029-1.388-.568-.42 1.03 1.388.567zm-.374 1.074c.013-.166.084-.365.374-1.074l-1.388-.568c-.249.608-.446 1.067-.482 1.525l1.496.117zm.32.937a1.25 1.25 0 01-.32-.937l-1.496-.117a2.75 2.75 0 00.706 2.063l1.11-1.009z"/>
</svg>
