<svg xmlns="http://www.w3.org/2000/svg" width="24" height="24" fill="currentColor" viewBox="0 0 24 24">
  <path fill-rule="evenodd" d="M5.167 4.106a.75.75 0 10-1.061 1.06L6.47 7.53a.75.75 0 001.06-1.06L5.168 4.106zM17.53 16.47a.75.75 0 10-1.06 1.06l2.364 2.364a.75.75 0 001.06-1.06l-2.363-2.364zm2.364-11.304a.75.75 0 10-1.06-1.06L16.47 6.47a.75.75 0 001.06 1.06l2.364-2.364zM7.532 17.53a.75.75 0 00-1.061-1.06l-2.364 2.364a.75.75 0 101.06 1.06l2.365-2.364z" opacity=".4"/>
  <path fill-rule="evenodd" d="M11.25 22a.75.75 0 001.5 0v-3.343a.75.75 0 10-1.5 0V22zm0-16.657a.75.75 0 001.5 0V2a.75.75 0 00-1.5 0v3.343zM2 11.25a.75.75 0 000 1.5h3.343a.75.75 0 000-1.5H2zm16.657 0a.75.75 0 000 1.5H22a.75.75 0 000-1.5h-3.343z"/>
</svg>
