<svg xmlns="http://www.w3.org/2000/svg" width="24" height="24" fill="currentColor" viewBox="0 0 24 24">
  <path fill-rule="evenodd" d="M5.47 5.47a.75.75 0 011.06 0L8.66 7.598l2.871 2.872 2.936 2.935 2.207 2.207 1.857 1.858a.75.75 0 11-1.06 1.06l-1.288-1.288A5.25 5.25 0 017.25 13.5V9c0-.216.018-.429.054-.636L5.47 6.53a.75.75 0 010-1.06zm3.28 4.34v3.69a3.75 3.75 0 006.371 2.682l-1.06-1.061a2.25 2.25 0 01-3.81-1.621v-2.19l-1.501-1.5zm3 3v.69a.75.75 0 001.25.56l-1.25-1.25zM11 6.75c-.264 0-.516.045-.75.128a.75.75 0 11-.5-1.414 3.75 3.75 0 015 3.536v1.5a.75.75 0 01-1.5 0V9A2.25 2.25 0 0011 6.75zm6 .5a.75.75 0 01.75.75v5.5a.75.75 0 01-1.5 0V8a.75.75 0 01.75-.75z" opacity=".4"/>
  <path fill-rule="evenodd" d="M9.966 1.25h4.068c1.371 0 2.447 0 3.311.07.88.073 1.607.221 2.265.557a5.75 5.75 0 012.513 2.513c.336.658.485 1.385.556 2.265.071.864.071 1.94.071 3.311v4.068c0 1.371 0 2.447-.07 3.311-.072.88-.221 1.607-.557 2.265a5.75 5.75 0 01-2.513 2.513c-.658.336-1.385.485-2.265.556-.864.071-1.94.071-3.311.071H9.966c-1.371 0-2.447 0-3.311-.07-.88-.072-1.607-.221-2.265-.557a5.75 5.75 0 01-2.513-2.513c-.336-.658-.484-1.385-.556-2.265-.071-.864-.071-1.94-.071-3.311V9.966c0-1.371 0-2.447.07-3.311.073-.88.221-1.607.557-2.265A5.75 5.75 0 014.39 1.877c.658-.336 1.385-.484 2.265-.556.864-.071 1.94-.071 3.311-.071zM6.777 2.816c-.787.064-1.295.188-1.706.397a4.25 4.25 0 00-1.858 1.858c-.21.411-.333.919-.397 1.706-.065.796-.066 1.81-.066 3.223v4c0 1.412 0 2.427.066 3.223.064.787.188 1.295.397 1.707a4.25 4.25 0 001.858 1.857c.411.21.919.333 1.706.397.796.065 1.81.066 3.223.066h4c1.412 0 2.427 0 3.223-.066.787-.064 1.295-.188 1.707-.397a4.251 4.251 0 001.857-1.857c.21-.412.333-.92.397-1.707.065-.796.066-1.81.066-3.223v-4c0-1.413 0-2.427-.066-3.223-.064-.787-.188-1.295-.397-1.706a4.25 4.25 0 00-1.857-1.858c-.412-.21-.92-.333-1.707-.397-.796-.065-1.81-.066-3.223-.066h-4c-1.413 0-2.427 0-3.223.066z"/>
</svg>
