<svg xmlns="http://www.w3.org/2000/svg" width="24" height="24" fill="currentColor" viewBox="0 0 24 24">
  <path fill-rule="evenodd" d="M8.353 3.75c-.393 0-.57.004-.717.02a3.264 3.264 0 00-.449.083.75.75 0 11-.374-1.453c.213-.054.432-.095.655-.12.234-.027.498-.03.885-.03A2.751 2.751 0 0111 .25h2c1.259 0 2.32.846 2.646 2 .387 0 .652.003.886.03a4.75 4.75 0 014.188 4.188c.03.266.03.57.03 1.049V13c0 .245 0 .487.002.723.002.458.004.896-.002 1.296a.75.75 0 11-1.5-.021c.006-.388.004-.8.002-1.249L19.25 13V7.571c0-.55-.001-.764-.02-.935a3.25 3.25 0 00-2.866-2.866 7.008 7.008 0 00-.718-.02 2.751 2.751 0 01-2.646 2h-2a2.751 2.751 0 01-2.647-2zM9.75 3c0-.69.56-1.25 1.25-1.25h2a1.25 1.25 0 110 2.5h-2c-.69 0-1.25-.56-1.25-1.25z" opacity=".4"/>
  <path fill-rule="evenodd" d="M1.47 1.47a.75.75 0 011.06 0l2.716 2.716L19.8 18.738l2.731 2.732a.75.75 0 11-1.06 1.06l-2.142-2.141c-.743.727-1.683 1.052-2.839 1.208-1.14.153-2.595.153-4.433.153h-.112c-1.838 0-3.294 0-4.433-.153-1.173-.158-2.121-.49-2.87-1.238-.748-.749-1.08-1.698-1.238-2.87-.153-1.14-.153-2.595-.153-4.433V7.571v-.054c0-.479 0-.783.03-1.049a4.742 4.742 0 01.493-1.635L1.47 2.53a.75.75 0 010-1.06zm3.445 4.506c-.07.21-.119.432-.145.66-.019.17-.02.384-.02.935V13c0 1.907.002 3.262.14 4.29.135 1.005.389 1.585.812 2.008.423.423 1.003.677 2.009.812 1.027.138 2.382.14 4.289.14 1.907 0 3.261-.002 4.29-.14.981-.132 1.557-.377 1.977-.782L4.915 5.976z"/>
</svg>
