<svg xmlns="http://www.w3.org/2000/svg" width="24" height="24" fill="currentColor" viewBox="0 0 24 24">
  <path fill-rule="evenodd" d="M7.47 6.47a.75.75 0 011.06 0l.5.5L12 9.94l2.97-2.97.5-.5a.75.75 0 111.06 1.06l-.5.5-3.5 3.5a.75.75 0 01-1.06 0l-3.5-3.5-.5-.5a.75.75 0 010-1.06z" opacity=".4"/>
  <path fill-rule="evenodd" d="M3.47 9.47a.75.75 0 011.06 0l5.738 5.737c.404.405.676.676.903.868.22.187.346.254.443.285.25.082.521.082.772 0 .097-.031.224-.098.443-.285.227-.192.499-.463.903-.868L19.47 9.47a.75.75 0 111.06 1.06l-5.737 5.738-.021.021c-.378.378-.693.693-.972.93-.29.246-.59.451-.95.568a2.75 2.75 0 01-1.7 0c-.36-.117-.66-.322-.95-.568-.279-.237-.594-.552-.972-.93l-.021-.021L3.47 10.53a.75.75 0 010-1.06z"/>
</svg>
