<svg xmlns="http://www.w3.org/2000/svg" width="24" height="24" fill="currentColor" viewBox="0 0 24 24">
  <path fill-rule="evenodd" d="M10 9a1 1 0 11-2 0 1 1 0 012 0zm6 0a1 1 0 11-2 0 1 1 0 012 0zm-4 2.25A2.75 2.75 0 009.25 14v2a2.75 2.75 0 105.5 0v-2A2.75 2.75 0 0012 11.25zM10.75 14a1.25 1.25 0 112.5 0v2a1.25 1.25 0 11-2.5 0v-2z" opacity=".4"/>
  <path fill-rule="evenodd" d="M1.25 12C1.25 6.063 6.063 1.25 12 1.25S22.75 6.063 22.75 12 17.937 22.75 12 22.75 1.25 17.937 1.25 12zM12 2.75a9.25 9.25 0 100 18.5 9.25 9.25 0 000-18.5z"/>
</svg>
