<svg xmlns="http://www.w3.org/2000/svg" width="24" height="24" fill="currentColor" viewBox="0 0 24 24">
  <path fill-rule="evenodd" d="M21 2.25a.75.75 0 01.75.75v6a.75.75 0 01-1.5 0V3a.75.75 0 01.75-.75z" opacity=".4"/>
  <path fill-rule="evenodd" d="M21 8.25a.75.75 0 01.75.75v.633c0 1.092 0 1.958-.057 2.655-.058.714-.18 1.317-.46 1.868a4.75 4.75 0 01-2.076 2.076c-.552.281-1.155.403-1.869.461-.697.057-1.563.057-2.655.057H4.81l3.72 3.72a.75.75 0 11-1.06 1.06l-5-5a.75.75 0 010-1.06l5-5a.75.75 0 011.06 1.06l-3.72 3.72h9.79c1.133 0 1.937 0 2.566-.052.62-.05 1.005-.147 1.31-.302a3.25 3.25 0 001.42-1.42c.155-.305.251-.69.302-1.31.051-.63.052-1.434.052-2.566V9a.75.75 0 01.75-.75z"/>
</svg>
