<svg xmlns="http://www.w3.org/2000/svg" width="24" height="24" fill="currentColor" viewBox="0 0 24 24">
  <path fill-rule="evenodd" d="M10.75 8a1.25 1.25 0 112.5 0 1.25 1.25 0 01-2.5 0zM12 5.25a2.75 2.75 0 100 5.5 2.75 2.75 0 000-5.5zM8.75 15.667c0-1.059.858-1.917 1.917-1.917h2.666c1.059 0 1.917.858 1.917 1.917a.583.583 0 01-.583.583H9.333a.583.583 0 01-.583-.583zm1.917-3.417a3.417 3.417 0 00-3.417 3.417c0 1.15.933 2.083 2.083 2.083h5.334c1.15 0 2.083-.933 2.083-2.083a3.417 3.417 0 00-3.417-3.417h-2.666z" opacity=".4"/>
  <path fill-rule="evenodd" d="M12 2.75a9.25 9.25 0 100 18.5 9.25 9.25 0 000-18.5zM1.25 12C1.25 6.063 6.063 1.25 12 1.25S22.75 6.063 22.75 12 17.937 22.75 12 22.75 1.25 17.937 1.25 12z"/>
</svg>
