<svg xmlns="http://www.w3.org/2000/svg" width="24" height="24" fill="currentColor" viewBox="0 0 24 24">
  <path fill-rule="evenodd" d="M11.2.25h-.03c-.535 0-.98 0-1.345.03-.38.03-.736.098-1.073.27A2.75 2.75 0 007.55 1.752c-.172.337-.24.693-.27 1.073-.03.365-.03.81-.03 1.345V5a.75.75 0 001.5 0v-.8c0-.572 0-.957.025-1.253.023-.287.065-.424.111-.514a1.25 1.25 0 01.547-.547c.09-.046.227-.088.514-.111.296-.024.68-.025 1.253-.025h1.6c.572 0 .957 0 1.252.025.288.023.425.065.516.111.235.12.426.311.546.547.046.09.088.227.111.514.024.296.025.68.025 1.253V5a.75.75 0 001.5 0V4.17c0-.535 0-.98-.03-1.345-.03-.38-.098-.736-.27-1.073A2.75 2.75 0 0015.25.55c-.338-.172-.694-.24-1.074-.27-.365-.03-.81-.03-1.345-.03H11.2zM8.75 14a.75.75 0 00-1.5 0A4.75 4.75 0 0012 18.75a.75.75 0 000-1.5A3.25 3.25 0 018.75 14z" opacity=".4"/>
  <path fill-rule="evenodd" d="M2.25 13c0-5.385 4.365-9.75 9.75-9.75s9.75 4.365 9.75 9.75-4.365 9.75-9.75 9.75S2.25 18.385 2.25 13zM12 4.75a8.25 8.25 0 100 16.5 8.25 8.25 0 000-16.5z"/>
</svg>
