<svg xmlns="http://www.w3.org/2000/svg" width="24" height="24" fill="currentColor" viewBox="0 0 24 24">
  <path fill-rule="evenodd" d="M15.97 3.97a.75.75 0 011.06 0l3.238 3.237.021.021c.378.378.693.693.93.972.246.29.451.59.568.95a2.75 2.75 0 010 1.7c-.117.36-.322.66-.568.95a17.79 17.79 0 01-.93.971l-.021.022-3.238 3.237a.75.75 0 11-1.06-1.06l3.237-3.238c.405-.404.676-.676.868-.903.187-.22.254-.346.285-.443a1.25 1.25 0 000-.772c-.031-.097-.098-.224-.285-.443-.192-.227-.463-.499-.868-.903L15.97 5.03a.75.75 0 010-1.06z" opacity=".4"/>
  <path fill-rule="evenodd" d="M12.47 4.47a.75.75 0 011.06 0l5 5a.75.75 0 010 1.06l-5 5a.75.75 0 11-1.06-1.06l3.72-3.72H6.8c-.852 0-1.447 0-1.91.038-.453.037-.714.107-.911.207a2.25 2.25 0 00-.984.984c-.1.197-.17.458-.207.912-.037.462-.038 1.056-.038 1.909V17a.75.75 0 01-1.5 0v-2.232c0-.813 0-1.469.043-2 .045-.546.14-1.026.366-1.47a3.75 3.75 0 011.639-1.64c.444-.226.924-.32 1.47-.365.531-.043 1.187-.043 2-.043h9.422l-3.72-3.72a.75.75 0 010-1.06z"/>
</svg>
