<svg xmlns="http://www.w3.org/2000/svg" width="24" height="24" fill="currentColor" viewBox="0 0 24 24">
  <path fill-rule="evenodd" d="M22 15.75a.75.75 0 01-.75-.75V3a.75.75 0 011.5 0v12a.75.75 0 01-.75.75z" opacity=".4"/>
  <path fill-rule="evenodd" d="M7.089 1.25h7.143c.813 0 1.469 0 2 .043.546.045 1.026.14 1.47.366a3.75 3.75 0 011.64 1.639c.226.444.32.924.365 1.47.043.531.043 1.187.043 2V10.127c0 1.369 0 2.186-.186 2.963a6.752 6.752 0 01-.809 1.952c-.418.681-.995 1.259-1.964 2.227l-.073.073-4.733 4.733a2.304 2.304 0 01-3.747-2.537l1.073-2.5c.101-.237.124-.293.133-.323a.75.75 0 00-.633-.96 4.596 4.596 0 00-.35-.005H6.56c-.934 0-1.684 0-2.284-.052-.615-.053-1.152-.165-1.633-.438a3.75 3.75 0 01-1.65-1.924c-.197-.516-.226-1.064-.185-1.68.04-.601.154-1.342.296-2.266l.005-.034.524-3.4.004-.029c.107-.698.194-1.263.3-1.72.11-.472.252-.882.496-1.256a3.75 3.75 0 011.593-1.367c.406-.184.834-.262 1.317-.298.468-.036 1.04-.036 1.746-.036zM5.457 2.781c-.395.03-.628.086-.812.17a2.25 2.25 0 00-.956.82c-.11.169-.2.39-.29.776-.092.395-.171.904-.284 1.637l-.523 3.4c-.149.966-.252 1.643-.287 2.172-.035.522.004.821.09 1.046.186.488.536.896.99 1.154.209.119.498.203 1.02.248.528.045 1.213.046 2.19.046h1.911c.189 0 .347 0 .476.015a2.25 2.25 0 011.899 2.88c-.037.124-.1.27-.174.443l-.018.04-1.071 2.502a.804.804 0 001.307.885l4.733-4.734c1.063-1.062 1.505-1.511 1.818-2.023.288-.47.5-.982.629-1.518.14-.584.145-1.213.145-2.716V6.8c0-.852 0-1.447-.038-1.91-.038-.453-.107-.714-.207-.911a2.25 2.25 0 00-.984-.984c-.197-.1-.458-.17-.912-.207-.462-.037-1.057-.038-1.909-.038H7.118c-.742 0-1.257 0-1.661.031z"/>
</svg>
