<svg xmlns="http://www.w3.org/2000/svg" width="24" height="24" fill="currentColor" viewBox="0 0 24 24">
  <path fill-rule="evenodd" d="M11.883 3.996a5.667 5.667 0 018.184 0c2.244 2.316 2.244 6.06 0 8.376l-1.695 1.748a5.289 5.289 0 01-7.637 0l-.274-.282a.75.75 0 111.078-1.044l.273.282a3.789 3.789 0 005.483 0l1.695-1.748c1.68-1.734 1.68-4.554 0-6.288a4.167 4.167 0 00-6.03 0l-.71.734a.75.75 0 11-1.078-1.044l.71-.734z" opacity=".4"/>
  <path fill-rule="evenodd" d="M12.188 10.924a3.789 3.789 0 00-5.483 0L5.01 12.672c-1.68 1.734-1.68 4.554 0 6.288a4.167 4.167 0 006.03 0l.71-.734a.75.75 0 111.078 1.044l-.71.734a5.667 5.667 0 01-8.185 0c-2.244-2.316-2.244-6.06 0-8.376L5.628 9.88a5.289 5.289 0 017.637 0l-.538.522.538-.522.274.282a.75.75 0 11-1.078 1.044l-.273-.282z"/>
</svg>
