<svg xmlns="http://www.w3.org/2000/svg" width="24" height="24" fill="currentColor" viewBox="0 0 24 24">
  <path d="M11.997 16.1c1.64 0 2.82-.878 2.823-2.057-.004-.909-.703-1.65-1.577-1.796v-.05a1.633 1.633 0 001.307-1.612c-.003-1.126-1.083-1.957-2.553-1.957-1.474 0-2.553.83-2.55 1.957a1.615 1.615 0 001.307 1.612v.05c-.888.145-1.58.887-1.577 1.796-.003 1.18 1.18 2.056 2.82 2.056zm0-1.13c-.732 0-1.222-.433-1.222-1.047 0-.629.515-1.083 1.222-1.083.703 0 1.222.454 1.222 1.083 0 .618-.494 1.047-1.222 1.047zm0-3.249c-.614 0-1.051-.401-1.051-.977 0-.568.43-.958 1.05-.958.619 0 1.052.394 1.052.958 0 .576-.44.977-1.051.977z" opacity=".4"/>
  <path fill-rule="evenodd" d="M8 .25a.75.75 0 01.75.75v.274c.801-.024 1.73-.024 2.816-.024H12.434c1.087 0 2.014 0 2.816.024V1a.75.75 0 011.5 0v.367c.89.095 1.636.273 2.314.619a6.75 6.75 0 012.95 2.95c.39.765.566 1.615.652 2.662.084 1.031.084 2.317.084 3.968V12.434c0 1.651 0 2.937-.084 3.968-.086 1.047-.262 1.897-.652 2.662a6.75 6.75 0 01-2.95 2.95c-.765.39-1.615.566-2.662.652-1.031.084-2.317.084-3.968.084H11.566c-1.651 0-2.937 0-3.968-.084-1.047-.086-1.897-.262-2.662-.652a6.75 6.75 0 01-2.95-2.95c-.39-.765-.566-1.615-.652-2.662-.084-1.031-.084-2.317-.084-3.968V11.566c0-1.651 0-2.937.084-3.968.086-1.047.262-1.897.652-2.662a6.75 6.75 0 012.95-2.95c.678-.346 1.424-.524 2.314-.62V1A.75.75 0 018 .25zm7.25 2.525V4a.75.75 0 001.5 0V2.877c.7.086 1.205.227 1.633.445a5.25 5.25 0 012.295 2.295c.264.518.415 1.15.493 2.103.078.963.079 2.187.079 3.88v.8c0 1.692 0 2.917-.08 3.88-.077.954-.228 1.585-.492 2.103a5.25 5.25 0 01-2.295 2.295c-.518.264-1.15.415-2.103.493-.963.078-2.188.079-3.88.079h-.8c-1.693 0-2.917 0-3.88-.08-.954-.077-1.585-.228-2.103-.492a5.25 5.25 0 01-2.295-2.295c-.264-.518-.415-1.15-.493-2.103-.078-.963-.079-2.188-.079-3.88v-.8c0-1.693 0-2.917.08-3.88.077-.954.228-1.585.492-2.103a5.25 5.25 0 012.295-2.295c.428-.218.933-.359 1.633-.445V4a.75.75 0 001.5 0V2.775a97.71 97.71 0 012.85-.025h.8c1.142 0 2.07 0 2.85.025z"/>
</svg>
