<svg xmlns="http://www.w3.org/2000/svg" width="24" height="24" fill="currentColor" viewBox="0 0 24 24">
  <path fill-rule="evenodd" d="M12.875 9.015l.028.02 1.516 1.01.027.018c.31.207.585.39.794.558.215.174.444.395.574.709.178.429.178.911 0 1.34-.13.314-.359.536-.574.71-.209.167-.483.35-.794.557l-.027.018-1.516 1.01-.028.02c-.38.253-.707.471-.981.62-.275.149-.614.296-.998.274a1.75 1.75 0 01-1.292-.692c-.232-.306-.297-.671-.326-.982-.028-.31-.028-.704-.028-1.16v-2.09c0-.456 0-.849.028-1.16.029-.31.094-.675.326-.982a1.75 1.75 0 011.292-.691c.384-.023.723.125.998.274.274.148.601.366.98.62zm-1.905.605a.25.25 0 00-.16.086c-.006.017-.024.08-.038.226-.021.234-.022.557-.022 1.058v2.02c0 .501 0 .824.022 1.058.014.147.032.209.038.226a.25.25 0 00.16.086c.018-.005.08-.024.21-.094.206-.112.475-.29.892-.568l1.515-1.01c.346-.231.562-.376.71-.496a.86.86 0 00.135-.125.25.25 0 000-.174.848.848 0 00-.134-.124c-.149-.12-.365-.266-.71-.496l-1.516-1.01a13.314 13.314 0 00-.893-.569c-.13-.07-.191-.089-.209-.094z" opacity=".4"/>
  <path fill-rule="evenodd" d="M12 2.75a9.25 9.25 0 100 18.5 9.25 9.25 0 000-18.5zM1.25 12C1.25 6.063 6.063 1.25 12 1.25S22.75 6.063 22.75 12 17.937 22.75 12 22.75 1.25 17.937 1.25 12z"/>
</svg>
