<svg xmlns="http://www.w3.org/2000/svg" width="24" height="24" fill="currentColor" viewBox="0 0 24 24">
  <path fill-rule="evenodd" d="M11.25 2a.75.75 0 01.75-.75c5.937 0 10.75 4.813 10.75 10.75a.75.75 0 01-1.5 0A9.25 9.25 0 0012 2.75a.75.75 0 01-.75-.75z" opacity=".4"/>
  <path fill-rule="evenodd" d="M3.373 6.884a.75.75 0 01.338 1.005A9.209 9.209 0 002.75 12a9.25 9.25 0 1018.5 0 .75.75 0 011.5 0c0 5.937-4.813 10.75-10.75 10.75S1.25 17.937 1.25 12c0-1.715.402-3.338 1.118-4.778a.75.75 0 011.005-.338z"/>
</svg>
