<svg xmlns="http://www.w3.org/2000/svg" width="24" height="24" fill="currentColor" viewBox="0 0 24 24">
  <path fill-rule="evenodd" d="M9 4.25A4.75 4.75 0 004.25 9h1.5A3.25 3.25 0 019 5.75h7a.75.75 0 000-1.5H9zm0 14A3.25 3.25 0 015.75 15h-1.5A4.75 4.75 0 009 19.75h7a.75.75 0 000-1.5H9z" opacity=".4"/>
  <path fill-rule="evenodd" d="M15.25 5a3.75 3.75 0 117.5 0 3.75 3.75 0 01-7.5 0zM19 2.75a2.25 2.25 0 100 4.5 2.25 2.25 0 000-4.5zM1.25 12a3.75 3.75 0 117.5 0 3.75 3.75 0 01-7.5 0zM5 9.75a2.25 2.25 0 100 4.5 2.25 2.25 0 000-4.5zm14 5.5a3.75 3.75 0 100 7.5 3.75 3.75 0 000-7.5zM16.75 19a2.25 2.25 0 114.5 0 2.25 2.25 0 01-4.5 0z"/>
</svg>
