<svg xmlns="http://www.w3.org/2000/svg" width="24" height="24" fill="currentColor" viewBox="0 0 24 24">
  <path fill-rule="evenodd" d="M12 7.75a4.25 4.25 0 100 8.5 4.25 4.25 0 000-8.5zM6.25 12a5.75 5.75 0 1111.5 0 5.75 5.75 0 01-11.5 0z" opacity=".4"/>
  <path fill-rule="evenodd" d="M2.75 12a9.25 9.25 0 0118.5 0c0 1.002-.23 1.988-.646 2.695-.408.693-.944 1.055-1.604 1.055-.448 0-.724-.202-.924-.525-.22-.358-.326-.85-.326-1.28V8a.75.75 0 00-1.5 0v5.945c0 .625.145 1.41.55 2.067.424.69 1.148 1.238 2.2 1.238 1.34 0 2.304-.787 2.896-1.794.584-.992.854-2.257.854-3.456 0-5.937-4.813-10.75-10.75-10.75S1.25 6.063 1.25 12 6.063 22.75 12 22.75c1.715 0 3.338-.402 4.778-1.118a.75.75 0 00-.667-1.343A9.209 9.209 0 0112 21.25 9.25 9.25 0 012.75 12z"/>
</svg>
