<svg xmlns="http://www.w3.org/2000/svg" width="24" height="24" fill="currentColor" viewBox="0 0 24 24">
  <path fill-rule="evenodd" d="M11.47 6.47a.75.75 0 011.06 0l2.5 2.5a.75.75 0 11-1.06 1.06l-1.22-1.22v6.38l1.22-1.22a.75.75 0 111.06 1.06l-2.5 2.5a.75.75 0 01-1.06 0l-2.5-2.5a.75.75 0 111.06-1.06l1.22 1.22V8.81l-1.22 1.22a.75.75 0 11-1.06-1.06l2.5-2.5z" opacity=".4"/>
  <path fill-rule="evenodd" d="M3 2.25a.75.75 0 000 1.5h18a.75.75 0 000-1.5H3zm0 18a.75.75 0 000 1.5h18a.75.75 0 000-1.5H3z"/>
</svg>
