<svg xmlns="http://www.w3.org/2000/svg" width="24" height="24" fill="currentColor" viewBox="0 0 24 24">
  <path fill-rule="evenodd" d="M13.6 5.75c1.133 0 1.937 0 2.566.052.62.05 1.005.147 1.31.302a3.25 3.25 0 011.42 1.42c.155.305.251.69.302 1.31.051.63.052 1.434.052 2.566v3.584a.747.747 0 00.332.639.745.745 0 00.711.067l.629-.25a3.704 3.704 0 000-6.88l-.253-.1c-.066-.606-.19-1.131-.437-1.616a4.75 4.75 0 00-2.075-2.076c-.552-.281-1.155-.403-1.869-.461-.697-.057-1.563-.057-2.655-.057H10a.75.75 0 000 1.5h3.6zm7.146 4.401c.004.371.004.775.004 1.216v2.479a2.204 2.204 0 00-.004-3.695z" opacity=".4"/>
  <path fill-rule="evenodd" d="M1.47 1.47a.75.75 0 011.06 0l3 3 14 14 2 2a.75.75 0 11-1.06 1.06l-1.78-1.78H8.366c-1.092 0-1.958 0-2.655-.057-.714-.058-1.317-.18-1.868-.46a4.75 4.75 0 01-2.076-2.077c-.281-.55-.403-1.154-.461-1.868-.057-.697-.057-1.563-.057-2.655V8A3.75 3.75 0 013.5 4.562L1.47 2.53a.75.75 0 010-1.06zm3.238 4.299a2.25 2.25 0 00-1.958 2.23V12.6c0 1.133 0 1.937.052 2.566.05.62.147 1.005.302 1.31a3.25 3.25 0 001.42 1.42c.305.155.69.251 1.31.302.63.051 1.434.052 2.566.052h8.79L4.707 5.769z"/>
</svg>
