<svg xmlns="http://www.w3.org/2000/svg" width="24" height="24" fill="currentColor" viewBox="0 0 24 24">
  <path fill-rule="evenodd" d="M18.875 14.015l.029.02 1.515 1.01.027.018c.31.207.585.39.794.558.215.174.444.395.574.709.178.429.178.911 0 1.34-.13.314-.359.536-.574.71-.209.167-.483.35-.794.558l-.027.017-1.515 1.01-.03.02c-.379.253-.706.471-.98.62-.275.148-.614.296-.998.273a1.75 1.75 0 01-1.292-.69c-.232-.307-.297-.672-.326-.983-.028-.31-.028-.704-.028-1.16V15.955c0-.456 0-.849.028-1.16.029-.31.094-.675.326-.982a1.75 1.75 0 011.292-.691c.384-.023.723.125.998.274.274.148.601.366.98.62zm-1.905.605a.25.25 0 00-.16.086c-.006.018-.024.08-.038.226a13.33 13.33 0 00-.022 1.058v2.02c0 .501 0 .824.022 1.058.014.147.032.209.038.226a.25.25 0 00.16.086c.018-.005.08-.024.21-.094.206-.112.475-.29.892-.568l1.515-1.01c.346-.231.562-.376.71-.496a.86.86 0 00.135-.125.25.25 0 000-.174.848.848 0 00-.134-.125c-.149-.12-.365-.265-.71-.495l-1.517-1.01a13.317 13.317 0 00-.892-.569 1.05 1.05 0 00-.209-.094z" opacity=".4"/>
  <path fill-rule="evenodd" d="M2 3.25a.75.75 0 000 1.5h18a.75.75 0 000-1.5H2zm0 5a.75.75 0 000 1.5h14a.75.75 0 000-1.5H2zM1.25 14a.75.75 0 01.75-.75h9a.75.75 0 010 1.5H2a.75.75 0 01-.75-.75zM2 18.25a.75.75 0 000 1.5h7a.75.75 0 000-1.5H2z"/>
</svg>
