<svg xmlns="http://www.w3.org/2000/svg" width="24" height="24" fill="currentColor" viewBox="0 0 24 24">
  <path fill-rule="evenodd" d="M8.25 12a3.75 3.75 0 117.5 0 3.75 3.75 0 01-7.5 0zM12 9.75a2.25 2.25 0 100 4.5 2.25 2.25 0 000-4.5z" opacity=".4"/>
  <path fill-rule="evenodd" d="M12.697 2.49c-.46-.1-.935-.1-1.394 0-.491.108-.968.383-2.21 1.129l-3.6 2.16c-1.176.705-1.618.98-1.934 1.34a3.25 3.25 0 00-.655 1.157c-.146.456-.154.977-.154 2.348v2.752c0 1.371.008 1.892.154 2.348.136.427.36.82.655 1.157.316.36.758.635 1.934 1.34l3.6 2.16c1.242.745 1.719 1.02 2.21 1.128.459.101.934.101 1.394 0 .49-.107.967-.383 2.21-1.128l3.6-2.16c1.175-.705 1.617-.98 1.933-1.34a3.25 3.25 0 00.656-1.157c.145-.456.154-.977.154-2.348v-2.752c0-1.371-.009-1.892-.154-2.348a3.25 3.25 0 00-.656-1.157c-.316-.36-.758-.635-1.934-1.34l-3.6-2.16c-1.242-.746-1.719-1.021-2.21-1.129zM10.98 1.025a4.75 4.75 0 012.037 0c.76.167 1.459.586 2.543 1.237l.117.07 3.6 2.16.11.066c1.028.617 1.69 1.013 2.179 1.57.432.492.758 1.068.957 1.692.226.706.226 1.477.226 2.675v3.01c0 1.198 0 1.969-.226 2.675-.199.624-.525 1.2-.957 1.692-.49.557-1.151.953-2.179 1.57l-.11.065-3.6 2.16-.116.07c-1.085.652-1.783 1.07-2.543 1.238a4.75 4.75 0 01-2.038 0c-.76-.167-1.459-.587-2.543-1.238l-.117-.07-3.6-2.16-.11-.066c-1.027-.616-1.689-1.012-2.178-1.57a4.75 4.75 0 01-.958-1.69c-.226-.707-.226-1.479-.225-2.676v-2.881-.129c0-1.198 0-1.969.225-2.675.199-.624.525-1.2.958-1.692.49-.557 1.15-.953 2.178-1.57l.11-.066 3.6-2.16.117-.07c1.084-.65 1.782-1.07 2.543-1.237z"/>
</svg>
