<svg xmlns="http://www.w3.org/2000/svg" width="24" height="24" fill="currentColor" viewBox="0 0 24 24">
  <path fill-rule="evenodd" d="M9.93 8.134a.75.75 0 01.629-.26c.023.002.164.03.542.347.358.3.813.753 1.466 1.406l1.206 1.206c.305.306.502.504.64.666.133.156.166.23.179.27a.75.75 0 010 .463c-.013.04-.046.113-.179.269-.138.162-.335.36-.64.666l-1.206 1.206c-.653.653-1.107 1.106-1.466 1.406-.378.316-.519.346-.542.347a.75.75 0 01-.63-.26c-.014-.018-.094-.139-.137-.63-.041-.465-.042-1.107-.042-2.03v-2.412c0-.923 0-1.565.042-2.03.043-.491.123-.612.138-.63zm.747-1.756a2.25 2.25 0 00-1.888.782c-.344.403-.445.947-.491 1.47-.048.54-.048 1.25-.048 2.126V13.244c0 .877 0 1.585.048 2.125.046.524.147 1.068.491 1.471a2.25 2.25 0 001.888.782c.528-.042.984-.355 1.387-.693.416-.348.917-.849 1.536-1.469l.027-.027 1.206-1.206.02-.02c.28-.28.521-.52.704-.736.192-.226.363-.473.462-.776a2.25 2.25 0 000-1.39c-.099-.303-.27-.55-.462-.776a13.39 13.39 0 00-.703-.736l-.02-.02-1.207-1.206-.027-.027c-.62-.62-1.12-1.121-1.536-1.47-.403-.336-.86-.65-1.387-.692z" opacity=".4"/>
  <path fill-rule="evenodd" d="M9.966 1.25h4.068c1.371 0 2.447 0 3.311.07.88.073 1.607.221 2.265.557a5.75 5.75 0 012.513 2.513c.336.658.485 1.385.556 2.265.071.864.071 1.94.071 3.311v4.068c0 1.371 0 2.447-.07 3.311-.072.88-.221 1.607-.557 2.265a5.75 5.75 0 01-2.513 2.513c-.658.336-1.385.485-2.265.556-.864.071-1.94.071-3.311.071H9.966c-1.371 0-2.447 0-3.311-.07-.88-.072-1.607-.221-2.265-.557a5.75 5.75 0 01-2.513-2.513c-.336-.658-.484-1.385-.556-2.265-.071-.864-.071-1.94-.071-3.311V9.966c0-1.371 0-2.447.07-3.311.073-.88.221-1.607.557-2.265A5.75 5.75 0 014.39 1.877c.658-.336 1.385-.484 2.265-.556.864-.071 1.94-.071 3.311-.071zM6.777 2.816c-.787.064-1.295.188-1.706.397a4.25 4.25 0 00-1.858 1.858c-.21.411-.333.919-.397 1.706-.065.796-.066 1.81-.066 3.223v4c0 1.412 0 2.427.066 3.223.064.787.188 1.295.397 1.707a4.25 4.25 0 001.858 1.857c.411.21.919.333 1.706.397.796.065 1.81.066 3.223.066h4c1.412 0 2.427 0 3.223-.066.787-.064 1.295-.188 1.707-.397a4.251 4.251 0 001.857-1.857c.21-.412.333-.92.397-1.707.065-.796.066-1.81.066-3.223v-4c0-1.413 0-2.427-.066-3.223-.064-.787-.188-1.295-.397-1.706a4.25 4.25 0 00-1.857-1.858c-.412-.21-.92-.333-1.707-.397-.796-.065-1.81-.066-3.223-.066h-4c-1.413 0-2.427 0-3.223.066z"/>
</svg>
