<svg xmlns="http://www.w3.org/2000/svg" width="24" height="24" fill="currentColor" viewBox="0 0 24 24">
  <path fill-rule="evenodd" d="M2 9.25a.75.75 0 100 1.5h10a.75.75 0 000-1.5H2zm0 4a.75.75 0 000 1.5h8a.75.75 0 100-1.5H2z" opacity=".4"/>
  <path fill-rule="evenodd" d="M13.143 3.75C8.496 3.75 4.75 7.455 4.75 12s3.746 8.25 8.393 8.25a8.433 8.433 0 006.299-2.798.75.75 0 011.116 1.002 9.934 9.934 0 01-7.415 3.296C7.69 21.75 3.25 17.396 3.25 12s4.44-9.75 9.893-9.75a9.933 9.933 0 017.415 3.296.75.75 0 01-1.116 1.002 8.434 8.434 0 00-6.3-2.798z"/>
</svg>
