<svg xmlns="http://www.w3.org/2000/svg" width="24" height="24" fill="currentColor" viewBox="0 0 24 24">
  <path fill-rule="evenodd" d="M11.47 1.47a.75.75 0 011.06 0l4 4a.75.75 0 01-1.06 1.06l-2.72-2.72V14a.75.75 0 01-1.5 0V3.81L8.53 6.53a.75.75 0 01-1.06-1.06l4-4z" opacity=".4"/>
  <path fill-rule="evenodd" d="M2 13.25a.75.75 0 01.75.75v1.6c0 1.133 0 1.937.052 2.566.05.62.147 1.005.302 1.31a3.25 3.25 0 001.42 1.42c.305.155.69.251 1.31.302.63.051 1.434.052 2.566.052h7.2c1.133 0 1.937 0 2.566-.052.62-.05 1.005-.147 1.31-.302a3.25 3.25 0 001.42-1.42c.155-.305.251-.69.302-1.31.051-.63.052-1.433.052-2.566V14a.75.75 0 011.5 0v1.633c0 1.092 0 1.958-.057 2.655-.058.714-.18 1.317-.46 1.869a4.75 4.75 0 01-2.076 2.075c-.552.281-1.155.403-1.869.461-.697.057-1.563.057-2.655.057H8.367c-1.092 0-1.958 0-2.655-.057-.714-.058-1.317-.18-1.868-.46a4.75 4.75 0 01-2.076-2.076c-.281-.552-.403-1.155-.461-1.869-.057-.697-.057-1.563-.057-2.655V14a.75.75 0 01.75-.75z"/>
</svg>
