<svg xmlns="http://www.w3.org/2000/svg" width="24" height="24" fill="currentColor" viewBox="0 0 24 24">
  <path fill-rule="evenodd" d="M10 .25a.75.75 0 000 1.5h4a.75.75 0 000-1.5h-4zM12.75 10a.75.75 0 00-1.5 0v4a.75.75 0 001.5 0v-4z" opacity=".4"/>
  <path fill-rule="evenodd" d="M12 4.75a8.25 8.25 0 100 16.5 8.25 8.25 0 000-16.5zM2.25 13c0-5.385 4.365-9.75 9.75-9.75 2.422 0 4.639.884 6.344 2.346L19.97 3.97a.75.75 0 111.06 1.06l-1.626 1.626A9.714 9.714 0 0121.75 13c0 5.385-4.365 9.75-9.75 9.75S2.25 18.385 2.25 13z"/>
</svg>
