<svg xmlns="http://www.w3.org/2000/svg" width="24" height="24" fill="currentColor" viewBox="0 0 24 24">
  <path fill-rule="evenodd" d="M7 2.25a.75.75 0 01.75.75v7a.75.75 0 01-1.5 0V3A.75.75 0 017 2.25zm0 11a.75.75 0 01.75.75v6.19l2.72-2.72a.75.75 0 111.06 1.06l-4 4a.75.75 0 01-1.06 0l-4-4a.75.75 0 111.06-1.06l2.72 2.72V14a.75.75 0 01.75-.75z" opacity=".4"/>
  <path fill-rule="evenodd" d="M16 1.25a.75.75 0 000 1.5h3.647l-4.283 6.852A.75.75 0 0016 10.75h5a.75.75 0 000-1.5h-3.647l4.283-6.853A.75.75 0 0021 1.25h-5zm2.5 12a3.25 3.25 0 00-3.25 3.25V22a.75.75 0 001.5 0v-2.25h3.5V22a.75.75 0 001.5 0v-5.5a3.25 3.25 0 00-3.25-3.25zm1.75 3.25v1.75h-3.5V16.5a1.75 1.75 0 113.5 0z"/>
</svg>
