<svg xmlns="http://www.w3.org/2000/svg" width="24" height="24" fill="currentColor" viewBox="0 0 24 24">
  <path fill-rule="evenodd" d="M3 2.25a.75.75 0 000 1.5h18a.75.75 0 000-1.5H3zm0 18a.75.75 0 000 1.5h18a.75.75 0 000-1.5H3z" opacity=".4"/>
  <path fill-rule="evenodd" d="M10.25 9a.75.75 0 01.75-.75h10a.75.75 0 010 1.5H11a.75.75 0 01-.75-.75zm0 6a.75.75 0 01.75-.75h10a.75.75 0 010 1.5H11a.75.75 0 01-.75-.75zM3.53 8.47a.75.75 0 00-1.06 1.06L4.94 12l-2.47 2.47a.75.75 0 101.06 1.06l3-3a.75.75 0 000-1.06l-3-3z"/>
</svg>
