<svg xmlns="http://www.w3.org/2000/svg" width="24" height="24" fill="currentColor" viewBox="0 0 24 24">
  <path fill-rule="evenodd" d="M18.47 8.47a.75.75 0 000 1.06l1.72 1.72H3.81l1.72-1.72a.75.75 0 00-1.06-1.06l-3 3a.75.75 0 000 1.06l3 3a.75.75 0 001.06-1.06l-1.72-1.72h16.38l-1.72 1.72a.75.75 0 101.06 1.06l3-3a.75.75 0 000-1.06l-3-3a.75.75 0 00-1.06 0z" opacity=".4"/>
  <path fill-rule="evenodd" d="M8.47 18.47a.75.75 0 011.06 0l1.72 1.72V3.81L9.53 5.53a.75.75 0 01-1.06-1.06l3-3a.75.75 0 011.06 0l3 3a.75.75 0 01-1.06 1.06l-1.72-1.72v16.38l1.72-1.72a.75.75 0 111.06 1.06l-3 3a.75.75 0 01-1.06 0l-3-3a.75.75 0 010-1.06z"/>
</svg>
