<svg xmlns="http://www.w3.org/2000/svg" width="24" height="24" fill="currentColor" viewBox="0 0 24 24">
  <path fill-rule="evenodd" d="M12 2.75a9.216 9.216 0 00-3.7.77.75.75 0 01-.6-1.375A10.716 10.716 0 0112 1.25c5.937 0 10.75 4.813 10.75 10.75 0 1.527-.319 2.982-.895 4.3a.75.75 0 01-1.374-.6 9.216 9.216 0 00.769-3.7A9.25 9.25 0 0012 2.75z" opacity=".4"/>
  <path fill-rule="evenodd" d="M1.47 1.47a.75.75 0 011.06 0l2.93 2.929L19.6 18.54l2.93 2.929a.75.75 0 11-1.061 1.06l-2.417-2.417A10.711 10.711 0 0112 22.75c-1.214 0-2.278-.174-3.276-.53l.252-.707-.252.706c-.894-.32-1.26-.449-1.37-.475-.532-.125-.888-.02-1.313.183-.08.038-.17.084-.268.135-.4.207-.945.488-1.58.593l-.123-.74.123.74a1.75 1.75 0 01-2.032-1.869c.035-.423.195-.802.32-1.08l.092-.2c.096-.208.165-.358.21-.515.232-.807-.04-1.396-.519-2.428l-.023-.05.68-.316-.68.316A10.71 10.71 0 011.25 12c0-2.698.995-5.165 2.637-7.053L1.47 2.53a.75.75 0 010-1.06zM4.95 6.01A9.21 9.21 0 002.75 12a9.21 9.21 0 00.935 4.06c.428.915.93 1.987.54 3.345a5.6 5.6 0 01-.315.784l-.061.134c-.121.267-.181.441-.193.586a.25.25 0 00.29.267c.383-.064.657-.204 1.023-.39.128-.067.268-.138.428-.214.596-.283 1.315-.52 2.3-.288l-.171.73.171-.73c.207.049.658.21 1.402.477l.13.046c.816.292 1.706.443 2.771.443a9.211 9.211 0 005.989-2.2L4.95 6.01z"/>
</svg>
