<svg xmlns="http://www.w3.org/2000/svg" width="24" height="24" fill="currentColor" viewBox="0 0 24 24">
  <path fill-rule="evenodd" d="M17.052 5.775c-.295-.024-.68-.025-1.252-.025H8a.75.75 0 010-1.5h7.83c.535 0 .98 0 1.345.03.38.03.736.098 1.073.27a2.75 2.75 0 011.202 1.202c.172.337.24.693.27 1.073.03.365.03.81.03 1.345V16a.75.75 0 01-1.5 0V8.2c0-.572 0-.957-.025-1.253-.023-.287-.065-.424-.111-.514a1.25 1.25 0 00-.547-.547c-.09-.046-.227-.088-.515-.111z" opacity=".4"/>
  <path fill-rule="evenodd" d="M5 1.25a.75.75 0 01.75.75v13.8c0 .572 0 .957.025 1.252.023.288.065.425.111.515.12.236.311.427.547.547.09.046.227.088.514.111.296.024.68.025 1.253.025H22a.75.75 0 010 1.5h-2.25V22a.75.75 0 01-1.5 0v-2.25H8.17c-.535 0-.98 0-1.345-.03-.38-.03-.736-.098-1.073-.27A2.75 2.75 0 014.55 18.25c-.172-.338-.24-.694-.27-1.074-.03-.365-.03-.81-.03-1.345V5.75H2a.75.75 0 010-1.5h2.25V2A.75.75 0 015 1.25z"/>
</svg>
