<svg xmlns="http://www.w3.org/2000/svg" width="24" height="24" fill="currentColor" viewBox="0 0 24 24">
  <path fill-rule="evenodd" d="M16 3a1 1 0 11-2 0 1 1 0 012 0zm-4 5a1 1 0 11-2 0 1 1 0 012 0zm4 4a1 1 0 11-2 0 1 1 0 012 0zm-4 4a1 1 0 11-2 0 1 1 0 012 0zm-9 6a1 1 0 100-2 1 1 0 000 2zm5-1a1 1 0 11-2 0 1 1 0 012 0zm3 1a1 1 0 100-2 1 1 0 000 2zm4 0a1 1 0 100-2 1 1 0 000 2zM3 17a1 1 0 100-2 1 1 0 000 2zm8-4a1 1 0 100-2 1 1 0 000 2zm-3-1a1 1 0 11-2 0 1 1 0 012 0zm-5 1a1 1 0 100-2 1 1 0 000 2zm0-4a1 1 0 100-2 1 1 0 000 2zm8-5a1 1 0 100-2 1 1 0 000 2zM8 3a1 1 0 11-2 0 1 1 0 012 0zM3 4a1 1 0 100-2 1 1 0 000 2z" opacity=".4"/>
  <path fill-rule="evenodd" d="M21 1.25a.75.75 0 01.75.75v20a.75.75 0 01-1.5 0V2a.75.75 0 01.75-.75z"/>
</svg>
