<svg xmlns="http://www.w3.org/2000/svg" width="24" height="24" fill="currentColor" viewBox="0 0 24 24">
  <path fill-rule="evenodd" d="M10 10.75a1.25 1.25 0 100 2.5 1.25 1.25 0 000-2.5zM7.25 12a2.75 2.75 0 115.5 0 2.75 2.75 0 01-5.5 0z" opacity=".4"/>
  <path fill-rule="evenodd" d="M3.148 11.091a3.25 3.25 0 000 1.818c.086.297.25.609.571 1.046.326.445.78.974 1.42 1.722l.515.6c.73.852 1.012 1.172 1.341 1.399.308.213.651.37 1.013.466.387.102.813.108 1.935.108H15.6c1.132 0 1.937 0 2.566-.052.62-.05 1.005-.147 1.31-.302a3.25 3.25 0 001.42-1.42c.155-.305.251-.69.302-1.31.051-.63.052-1.433.052-2.566v-1.2c0-1.132 0-1.937-.052-2.566-.05-.62-.147-1.005-.302-1.31a3.25 3.25 0 00-1.42-1.42c-.305-.155-.69-.251-1.31-.302-.63-.051-1.434-.052-2.566-.052H9.943c-1.122 0-1.548.006-1.935.108a3.25 3.25 0 00-1.013.466c-.33.227-.61.547-1.341 1.4l-.515.6C4.5 9.07 4.045 9.6 3.72 10.044c-.32.438-.485.749-.571 1.046zm-1.44 2.238a4.75 4.75 0 010-2.657c.155-.532.428-1.005.801-1.514.364-.496.855-1.068 1.472-1.788L4 7.347l.514-.6.067-.079c.64-.746 1.052-1.227 1.562-1.579a4.75 4.75 0 011.48-.68c.6-.16 1.232-.16 2.215-.159H15.633c1.092 0 1.957 0 2.655.057.713.058 1.317.18 1.868.46a4.75 4.75 0 012.076 2.077c.281.55.403 1.154.46 1.868.058.697.058 1.563.058 2.655V12.633c0 1.092 0 1.958-.057 2.655-.058.714-.18 1.317-.46 1.869a4.75 4.75 0 01-2.077 2.075c-.55.281-1.154.403-1.868.461-.698.057-1.563.057-2.655.057H9.839c-.983 0-1.616 0-2.214-.158-.53-.14-1.03-.37-1.481-.681-.51-.351-.922-.832-1.562-1.579l-.067-.079-.515-.6-.02-.023c-.616-.72-1.107-1.292-1.47-1.788-.374-.51-.647-.982-.802-1.513z"/>
</svg>
