<svg xmlns="http://www.w3.org/2000/svg" width="24" height="24" fill="currentColor" viewBox="0 0 24 24">
  <path fill-rule="evenodd" d="M16 22.25a.75.75 0 00.75-.75v-2.3c0-.572 0-.957.025-1.252.023-.288.065-.425.111-.515a1.25 1.25 0 01.547-.547c.09-.046.227-.088.515-.111.295-.024.68-.025 1.252-.025h2.3a.75.75 0 000-1.5H19.17c-.535 0-.98 0-1.345.03-.38.03-.736.098-1.073.27a2.751 2.751 0 00-1.202 1.201c-.172.338-.24.694-.27 1.074-.03.365-.03.81-.03 1.345V21.5c0 .414.336.75.75.75z" opacity=".4"/>
  <path fill-rule="evenodd" d="M11.566 1.25H12.434c1.651 0 2.937 0 3.968.084 1.047.086 1.897.262 2.662.652a6.75 6.75 0 012.95 2.95c.39.765.566 1.615.652 2.662.084 1.031.084 2.317.084 3.968v3.629c0 .315 0 .503-.01.685a6.75 6.75 0 01-1.715 4.142c-.123.136-.255.269-.478.492l-.017.016-.016.017c-.223.223-.356.355-.492.478a6.75 6.75 0 01-4.141 1.715c-.183.01-.371.01-.686.01h-3.629c-1.651 0-2.937 0-3.968-.084-1.047-.086-1.897-.262-2.662-.652a6.75 6.75 0 01-2.95-2.95c-.39-.765-.566-1.615-.652-2.662-.084-1.031-.084-2.317-.084-3.968V11.566c0-1.651 0-2.937.084-3.968.086-1.047.262-1.897.652-2.662a6.75 6.75 0 012.95-2.95c.765-.39 1.615-.566 2.662-.652 1.031-.084 2.317-.084 3.968-.084zM7.72 2.83c-.954.077-1.585.228-2.103.492a5.25 5.25 0 00-2.295 2.295c-.264.518-.415 1.15-.493 2.103-.078.963-.079 2.187-.079 3.88v.8c0 1.692 0 2.917.08 3.88.077.954.228 1.585.492 2.103a5.25 5.25 0 002.295 2.295c.518.264 1.15.415 2.103.493.963.078 2.187.079 3.88.079h3.572c.345 0 .49 0 .627-.008a5.25 5.25 0 003.221-1.334c.103-.092.206-.194.45-.438.244-.244.346-.347.438-.45a5.25 5.25 0 001.334-3.22c.008-.138.008-.283.008-.628V11.6c0-1.693 0-2.917-.08-3.88-.077-.954-.228-1.585-.492-2.103a5.25 5.25 0 00-2.295-2.295c-.518-.264-1.15-.415-2.103-.493-.963-.078-2.188-.079-3.88-.079h-.8c-1.693 0-2.917 0-3.88.08z"/>
</svg>
