<svg xmlns="http://www.w3.org/2000/svg" width="24" height="24" fill="currentColor" viewBox="0 0 24 24">
  <path fill-rule="evenodd" d="M8 1.25a.75.75 0 01.75.75v2a.75.75 0 01-1.5 0V2A.75.75 0 018 1.25zm9.634 6.562c-.296-.058-.669-.062-1.634-.062h-5a.75.75 0 010-1.5h4.25V2a.75.75 0 011.5 0v4.252c.485.005.85.024 1.177.09a4.75 4.75 0 013.732 3.731c.091.46.091.994.091 1.832v1.15c0 .877 0 1.375-.042 1.803a8.787 8.787 0 01-.235 1.33.75.75 0 11-1.453-.375c.092-.357.158-.725.195-1.102.034-.346.035-.764.035-1.711v-1c0-.965-.004-1.338-.062-1.634a3.25 3.25 0 00-2.554-2.554z" opacity=".4"/>
  <path fill-rule="evenodd" d="M2.47 2.47a.75.75 0 011.06 0l4.007 4.006 12.128 12.129 2.865 2.865a.75.75 0 11-1.06 1.06l-2.313-2.313a8.734 8.734 0 01-5.3 2.49c-.427.043-.925.043-1.801.043h-.112c-.876 0-1.374 0-1.802-.042a8.75 8.75 0 01-7.85-7.85c-.042-.428-.042-.926-.042-1.803V12v-.095c0-.838 0-1.372.091-1.832A4.75 4.75 0 015.45 6.51L2.47 3.53a.75.75 0 010-1.06zm4.24 5.3c-.143.01-.25.024-.344.042a3.25 3.25 0 00-2.554 2.554c-.058.296-.062.669-.062 1.634v1c0 .947 0 1.365.035 1.71a7.25 7.25 0 006.504 6.505c.346.034.764.035 1.711.035.947 0 1.365 0 1.71-.035a7.235 7.235 0 004.386-2.058L6.71 7.77z"/>
</svg>
