<svg xmlns="http://www.w3.org/2000/svg" width="24" height="24" fill="currentColor" viewBox="0 0 24 24">
  <path fill-rule="evenodd" d="M21.03 2.97a.75.75 0 010 1.06l-1.5 1.5a.75.75 0 11-1.06-1.06l1.5-1.5a.75.75 0 011.06 0zm-5.5 5.5a.75.75 0 010 1.06l-3 3-3 3a.75.75 0 01-1.06-1.06l3-3 3-3a.75.75 0 011.06 0zm-10 10a.75.75 0 010 1.06l-1.5 1.5a.75.75 0 01-1.06-1.06l1.5-1.5a.75.75 0 011.06 0z" opacity=".4"/>
  <path fill-rule="evenodd" d="M14.445 2.708a1.25 1.25 0 011.11 0c.156.078.327.234.915.822l4 4c.588.588.744.759.822.915.173.35.173.76 0 1.11-.078.156-.234.327-.822.915-.588.588-.759.744-.915.822a1.25 1.25 0 01-1.11 0c-.156-.078-.327-.234-.915-.822l-4-4c-.588-.588-.744-.759-.822-.915a1.25 1.25 0 010-1.11c.078-.156.234-.327.822-.915.588-.588.759-.744.915-.822zm1.776-1.344a2.75 2.75 0 00-2.442 0c-.407.202-.763.559-1.223 1.02l-.086.086-.086.086c-.461.46-.818.816-1.02 1.223a2.75 2.75 0 000 2.442c.202.407.559.763 1.02 1.223l.086.086 4 4 .085.086c.46.461.817.818 1.224 1.02a2.75 2.75 0 002.442 0c.407-.202.763-.559 1.224-1.02l.085-.086.086-.085c.461-.46.818-.817 1.02-1.224a2.75 2.75 0 000-2.442c-.202-.407-.559-.763-1.02-1.223l-.086-.086-4-4-.085-.086c-.46-.461-.817-.818-1.224-1.02zM4.445 12.708a1.25 1.25 0 011.11 0c.156.078.327.234.915.822l4 4c.588.588.744.759.822.915.173.35.173.76 0 1.11-.078.156-.234.327-.822.915-.588.588-.759.744-.915.822a1.25 1.25 0 01-1.11 0c-.156-.078-.327-.234-.915-.822l-4-4c-.588-.588-.744-.759-.822-.915a1.25 1.25 0 010-1.11c.078-.156.234-.327.822-.915.588-.588.759-.744.915-.822zm1.776-1.344a2.75 2.75 0 00-2.442 0c-.407.202-.763.559-1.223 1.02l-.086.086-.086.085c-.461.46-.818.817-1.02 1.224a2.75 2.75 0 000 2.442c.202.407.559.763 1.02 1.224l.086.085 4 4 .086.086c.46.461.816.818 1.223 1.02a2.75 2.75 0 002.442 0c.407-.202.763-.559 1.223-1.02l.086-.086.086-.085c.461-.46.818-.817 1.02-1.224a2.75 2.75 0 000-2.442c-.202-.407-.559-.763-1.02-1.224l-.086-.085-4-4-.086-.086c-.46-.461-.816-.818-1.223-1.02z"/>
</svg>
