<svg xmlns="http://www.w3.org/2000/svg" width="24" height="24" fill="currentColor" viewBox="0 0 24 24">
  <path fill-rule="evenodd" d="M3 4.25a.75.75 0 01.75.75v14a.75.75 0 01-1.5 0V5A.75.75 0 013 4.25z" opacity=".4"/>
  <path fill-rule="evenodd" d="M16.814 5.584c-.685.346-1.55.885-2.76 1.642l-2.144 1.34c-1.092.682-1.867 1.168-2.42 1.587-.552.42-.79.709-.898.96a2.25 2.25 0 000 1.773c.108.252.346.54.899.96.552.42 1.327.906 2.42 1.588l2.143 1.34c1.21.757 2.075 1.296 2.76 1.642.69.348 1.083.437 1.366.414a2.25 2.25 0 001.626-.901c.17-.228.303-.609.373-1.378.07-.764.071-1.783.071-3.211v-2.68c0-1.428 0-2.447-.07-3.21-.071-.77-.204-1.15-.374-1.379a2.25 2.25 0 00-1.626-.9c-.283-.024-.676.065-1.366.413zm-.676-1.339c.756-.381 1.456-.627 2.162-.57a3.75 3.75 0 012.71 1.502c.423.569.586 1.293.663 2.136.077.84.077 1.928.077 3.308v2.759c0 1.38 0 2.467-.077 3.308-.077.843-.24 1.567-.662 2.135a3.75 3.75 0 01-2.71 1.502c-.706.057-1.407-.189-2.163-.57-.753-.38-1.676-.957-2.846-1.688l-.034-.02-2.143-1.34-.033-.021c-1.052-.657-1.885-1.179-2.499-1.645-.62-.47-1.107-.952-1.37-1.564a3.75 3.75 0 010-2.954c.263-.612.75-1.093 1.37-1.564.614-.466 1.447-.987 2.5-1.645l.032-.02 2.143-1.34.034-.021c1.17-.731 2.093-1.308 2.846-1.688z"/>
</svg>
