<svg xmlns="http://www.w3.org/2000/svg" width="24" height="24" fill="currentColor" viewBox="0 0 24 24">
  <path fill-rule="evenodd" d="M9.386 1.357a.75.75 0 01.257 1.029l-3 5a.75.75 0 11-1.286-.772l3-5a.75.75 0 011.029-.257zm5.228 0a.75.75 0 011.03.257l3 5a.75.75 0 01-1.287.772l-3-5a.75.75 0 01.257-1.03z" opacity=".4"/>
  <path fill-rule="evenodd" d="M8.77 6.25h6.46c1.307 0 2.337 0 3.156.072.833.072 1.53.224 2.138.58a4.75 4.75 0 012.086 2.545c.23.666.242 1.38.15 2.21-.09.817-.292 1.828-.549 3.11l-.007.035-.44 2.2-.005.029c-.179.892-.32 1.602-.48 2.173-.163.586-.357 1.076-.663 1.515a4.75 4.75 0 01-1.993 1.633c-.49.215-1.01.309-1.616.354-.59.044-1.315.044-2.224.044H9.217c-.91 0-1.633 0-2.224-.044-.607-.045-1.125-.139-1.616-.354a4.75 4.75 0 01-1.993-1.633c-.306-.44-.5-.93-.663-1.515-.16-.571-.301-1.281-.48-2.173l-.005-.029-.44-2.2-.008-.035c-.256-1.282-.458-2.293-.548-3.11-.092-.83-.08-1.544.15-2.21a4.75 4.75 0 012.086-2.544c.608-.357 1.305-.509 2.138-.581.819-.072 1.85-.072 3.156-.072zM5.744 7.816c-.739.064-1.18.187-1.509.38a3.25 3.25 0 00-1.427 1.741c-.125.361-.16.818-.078 1.555.083.744.271 1.69.536 3.016l.44 2.2c.186.927.317 1.583.46 2.093.14.502.276.813.448 1.06a3.25 3.25 0 001.364 1.117c.275.12.607.194 1.126.232.529.04 1.197.04 2.143.04h5.506c.946 0 1.614 0 2.143-.04.52-.038.851-.112 1.126-.232a3.25 3.25 0 001.364-1.118c.172-.246.309-.557.448-1.059.143-.51.274-1.166.46-2.093l.44-2.2c.265-1.325.453-2.272.535-3.016.082-.738.048-1.194-.077-1.555a3.25 3.25 0 00-1.427-1.74c-.33-.194-.77-.317-1.51-.381-.745-.065-1.71-.066-3.062-.066H8.807c-1.352 0-2.317 0-3.063.066z"/>
</svg>
