<svg xmlns="http://www.w3.org/2000/svg" width="24" height="24" fill="currentColor" viewBox="0 0 24 24">
  <path fill-rule="evenodd" d="M11.272.82c.476-.13.98-.13 1.456 0 .708.195 1.199.75 1.622 1.398.423.65.877 1.56 1.443 2.691l.023.045.047.095-.65.325.65-.325c.337.673.435.849.562.973.1.1.217.181.345.241.162.076.36.108 1.108.191l.043.005c1.18.13 2.124.236 2.833.386.7.149 1.349.373 1.777.875a2.75 2.75 0 01.652 1.975c-.046.658-.433 1.224-.907 1.76-.48.544-1.175 1.19-2.046 1.998l-.032.03-.51-.55.51.55c-.395.367-.797.728-1.207 1.083a.75.75 0 01-.982-1.133 46.47 46.47 0 001.169-1.05c.91-.845 1.549-1.44 1.974-1.92.437-.495.525-.74.534-.871a1.25 1.25 0 00-.296-.898c-.086-.1-.302-.244-.948-.381-.628-.134-1.496-.231-2.73-.368l-.104-.012c-.593-.065-1.06-.117-1.476-.312a2.75 2.75 0 01-.76-.53c-.327-.323-.537-.743-.804-1.277-.015-.031-.03-.063-.047-.094l-.047-.095c-.594-1.187-1.01-2.018-1.381-2.588-.378-.58-.61-.728-.762-.77a1.25 1.25 0 00-.662 0c-.145.04-.364.176-.717.702-.348.52-.737 1.28-1.281 2.367a.75.75 0 11-1.342-.672c.531-1.06.965-1.915 1.377-2.53.409-.61.886-1.127 1.566-1.314z" opacity=".4"/>
  <path fill-rule="evenodd" d="M2.47 2.47a.75.75 0 011.06 0l4.084 4.084L20.23 19.169l2.301 2.3a.75.75 0 01-1.06 1.061l-1.233-1.232a2.75 2.75 0 01-1.715 1.361c-.619.166-1.285-.014-1.954-.277-.686-.27-1.555-.704-2.65-1.252l-.037-.018-.645-.322c-.712-.357-.906-.441-1.096-.463a1.254 1.254 0 00-.28 0c-.19.022-.383.106-1.096.463l-.645.322-.036.018c-1.096.548-1.965.983-2.651 1.252-.669.263-1.335.443-1.954.277a2.75 2.75 0 01-1.835-1.617c-.242-.593-.147-1.277.029-1.973.18-.714.502-1.631.908-2.787l.013-.038c.276-.785.34-1 .336-1.191a1.25 1.25 0 00-.134-.543c-.087-.17-.243-.331-.852-.897l-.141-.13.51-.55-.51.55-.032-.03c-.87-.809-1.566-1.454-2.046-1.997-.474-.537-.861-1.103-.907-1.761A2.75 2.75 0 011.47 7.72c.428-.502 1.077-.726 1.777-.875.582-.123 1.322-.216 2.22-.318L2.47 3.53a.75.75 0 010-1.06zm4.352 5.413c-.155.02-.323.038-.507.059l-.027.003c-1.234.137-2.102.234-2.73.368-.646.137-.862.28-.948.38a1.25 1.25 0 00-.296.899c.009.131.097.376.534.87.425.481 1.065 1.076 1.974 1.92l.141.132-.51.55.51-.55.086.08c.482.446.86.797 1.085 1.24.187.37.288.778.295 1.193.008.496-.163.983-.381 1.603l-.04.11c-.421 1.203-.72 2.056-.882 2.697-.169.668-.139.93-.095 1.038.148.362.457.634.835.735.113.03.377.028 1.018-.224.615-.242 1.424-.645 2.564-1.215l.645-.323.099-.05c.566-.283 1.012-.506 1.5-.561.204-.023.412-.023.617 0 .488.055.934.278 1.5.562l.098.05.645.322c1.14.57 1.949.973 2.564 1.215.641.252.905.255 1.018.224a1.25 1.25 0 00.835-.735c.024-.059.049-.178.024-.422L6.823 7.883z"/>
</svg>
