<svg xmlns="http://www.w3.org/2000/svg" width="24" height="24" fill="currentColor" viewBox="0 0 24 24">
  <path fill-rule="evenodd" d="M10 1.25a.75.75 0 000 1.5h1.8c1.973 0 3.407 0 4.537.093 1.12.091 1.875.27 2.5.588a6.25 6.25 0 012.732 2.732c.318.625.497 1.38.588 2.5.092 1.13.093 2.564.093 4.537V16a.75.75 0 001.5 0V13.166c0-1.931 0-3.427-.098-4.625-.099-1.213-.302-2.187-.747-3.06a7.75 7.75 0 00-3.387-3.386c-.872-.445-1.846-.648-3.06-.747-1.197-.098-2.693-.098-4.624-.098H10zM8.75 12a1.25 1.25 0 112.5 0 1.25 1.25 0 01-2.5 0zM10 9.25a2.75 2.75 0 100 5.5 2.75 2.75 0 000-5.5z" opacity=".4"/>
  <path fill-rule="evenodd" d="M3.148 11.091a3.25 3.25 0 000 1.818c.087.297.251.609.572 1.046.326.445.779.974 1.42 1.722l.514.6c.73.852 1.012 1.172 1.342 1.399.308.213.65.37 1.013.466.387.102.813.108 1.935.108H13.6c1.133 0 1.937 0 2.567-.052.62-.05 1.005-.147 1.309-.302a3.25 3.25 0 001.42-1.42c.155-.305.252-.69.302-1.31.052-.63.052-1.433.052-2.566v-1.2c0-1.132 0-1.937-.052-2.566-.05-.62-.147-1.005-.302-1.31a3.25 3.25 0 00-1.42-1.42c-.304-.155-.689-.251-1.31-.302-.629-.051-1.433-.052-2.566-.052H9.944c-1.122 0-1.548.006-1.935.108a3.25 3.25 0 00-1.013.466c-.33.227-.611.547-1.342 1.4l-.514.6c-.641.747-1.094 1.276-1.42 1.721-.32.438-.485.749-.572 1.046zm-1.44 2.238a4.75 4.75 0 010-2.657c.155-.532.429-1.005.802-1.514.364-.496.855-1.068 1.472-1.788l.02-.023.513-.6.068-.079c.64-.747 1.052-1.227 1.561-1.579a4.75 4.75 0 011.481-.68c.599-.16 1.232-.16 2.215-.159h3.794c1.092 0 1.957 0 2.655.057.713.058 1.317.18 1.868.46a4.75 4.75 0 012.076 2.077c.28.55.402 1.154.46 1.868.057.697.057 1.563.057 2.655V12.633c0 1.092 0 1.958-.056 2.655-.059.714-.18 1.317-.461 1.869a4.75 4.75 0 01-2.076 2.075c-.551.281-1.155.403-1.868.461-.698.057-1.563.057-2.656.057H9.84c-.983 0-1.616 0-2.215-.158-.529-.14-1.03-.37-1.48-.681-.51-.351-.922-.832-1.562-1.579l-.068-.079-.514-.6-.02-.023c-.616-.72-1.107-1.292-1.471-1.788-.373-.51-.647-.982-.802-1.513z"/>
</svg>
