<svg xmlns="http://www.w3.org/2000/svg" width="24" height="24" fill="currentColor" viewBox="0 0 24 24">
  <path fill-rule="evenodd" d="M17 2.75a2.25 2.25 0 100 4.5 2.25 2.25 0 000-4.5zM13.25 5a3.75 3.75 0 117.5 0 3.75 3.75 0 01-7.5 0z" opacity=".4"/>
  <path fill-rule="evenodd" d="M9.486 10.547a1.25 1.25 0 00-.973 0c-.107.046-.265.159-.534.504-.27.345-.584.833-1.04 1.542L3.8 17.475c-.524.816-.888 1.384-1.12 1.83-.236.453-.272.666-.264.784.026.362.208.694.498.912.095.07.293.156.801.202.502.046 1.177.047 2.146.047h10.765l-2.757-4.289-2.808-4.368c-.456-.71-.77-1.197-1.04-1.542-.269-.345-.427-.458-.535-.504zM18.41 21.25c.827 0 1.422-.005 1.876-.047.508-.046.706-.131.8-.202.291-.218.473-.55.498-.912.009-.118-.027-.331-.262-.784-.233-.446-.597-1.014-1.122-1.83l-.638-.993c-.456-.71-.77-1.197-1.04-1.542-.269-.345-.427-.458-.535-.504a1.25 1.25 0 00-.973 0c-.107.046-.265.159-.534.504-.27.345-.584.833-1.04 1.542l-.047.073 3.017 4.695zM14.5 15.17l-2.177-3.388-.02-.031c-.431-.67-.783-1.217-1.099-1.623-.321-.412-.672-.768-1.134-.963a2.75 2.75 0 00-2.14 0c-.462.195-.813.551-1.134.963-.316.406-.668.952-1.099 1.623l-.02.03-3.138 4.883-.021.032c-.499.776-.901 1.402-1.17 1.917-.268.516-.467 1.037-.428 1.583A2.75 2.75 0 002.015 22.2c.438.328.984.443 1.563.496.579.053 1.323.053 2.245.053h12.354c.922 0 1.666 0 2.245-.053.58-.053 1.125-.168 1.563-.496a2.75 2.75 0 001.095-2.005c.039-.546-.16-1.067-.429-1.583-.268-.515-.67-1.141-1.169-1.917l-.02-.032-.64-.994-.02-.03c-.43-.671-.782-1.217-1.098-1.623-.321-.412-.672-.768-1.134-.963a2.75 2.75 0 00-2.14 0c-.462.195-.813.55-1.134.963-.239.306-.498.693-.796 1.152z"/>
</svg>
