<svg xmlns="http://www.w3.org/2000/svg" width="24" height="24" fill="currentColor" viewBox="0 0 24 24">
  <path fill-rule="evenodd" d="M18.8 2.75c.572 0 .957 0 1.252.025.288.023.425.065.515.111.236.12.427.311.547.547.046.09.088.227.111.514.024.296.025.68.025 1.253V11c0 .476 0 .796-.017 1.043-.017.241-.046.358-.078.435a1.25 1.25 0 01-.677.677c-.077.032-.194.061-.435.078-.247.017-.567.017-1.043.017v1.5h.025c.445 0 .816 0 1.12-.02.317-.022.617-.069.907-.19a2.75 2.75 0 001.489-1.488c.12-.29.166-.59.188-.907.021-.304.02-.675.02-1.12V5.17c.001-.535.001-.98-.029-1.345-.03-.38-.098-.736-.27-1.073a2.75 2.75 0 00-1.202-1.202c-.337-.172-.694-.24-1.073-.27-.365-.03-.81-.03-1.345-.03h-5.855c-.445 0-.816 0-1.12.02a2.823 2.823 0 00-.907.19 2.75 2.75 0 00-1.489 1.488c-.12.29-.167.59-.188.907-.021.304-.021.675-.021 1.12V5h1.5c0-.476 0-.796.017-1.043.017-.241.046-.358.078-.435.127-.307.37-.55.677-.677.077-.032.194-.061.435-.078.247-.017.567-.017 1.043-.017h5.8zm-4 4c.572 0 .957 0 1.252.025.288.023.425.065.515.111.236.12.427.311.547.547.046.09.088.227.111.514.024.296.025.68.025 1.253V15c0 .476 0 .796-.017 1.043-.017.241-.046.358-.078.435a1.25 1.25 0 01-.677.677c-.077.032-.194.061-.435.078-.247.017-.567.017-1.043.017v1.5h.025c.445 0 .816 0 1.12-.02.317-.022.617-.069.907-.19a2.75 2.75 0 001.489-1.488c.12-.29.166-.59.188-.907.021-.304.02-.675.02-1.12V9.17c.001-.535.001-.98-.029-1.345-.03-.38-.098-.736-.27-1.073a2.75 2.75 0 00-1.202-1.202c-.337-.172-.694-.24-1.073-.27-.365-.03-.81-.03-1.345-.03H8.975c-.445 0-.816 0-1.12.02a2.823 2.823 0 00-.907.19 2.75 2.75 0 00-1.489 1.488c-.12.29-.167.59-.188.907-.021.304-.021.675-.021 1.12V9h1.5c0-.476 0-.796.017-1.043.017-.241.046-.358.078-.435.127-.307.37-.55.677-.677.077-.032.194-.061.435-.078.247-.017.567-.017 1.043-.017h5.8z" opacity=".4"/>
  <path fill-rule="evenodd" d="M5.17 9.25h5.66c.534 0 .98 0 1.345.03.38.03.736.098 1.073.27a2.75 2.75 0 011.202 1.201c.172.338.24.694.27 1.074.03.365.03.81.03 1.345v5.66c0 .535 0 .98-.03 1.345-.03.38-.098.736-.27 1.073a2.75 2.75 0 01-1.202 1.202c-.337.172-.693.24-1.073.27-.365.03-.81.03-1.345.03H5.17c-.535 0-.98 0-1.345-.03-.38-.03-.736-.098-1.074-.27A2.75 2.75 0 011.55 21.25c-.172-.338-.24-.694-.27-1.074-.03-.365-.03-.81-.03-1.345v-5.66c0-.535 0-.98.03-1.345.03-.38.098-.736.27-1.073A2.75 2.75 0 012.75 9.55c.338-.172.694-.24 1.074-.27.364-.03.81-.03 1.345-.03zm-1.223 1.525c-.287.023-.424.065-.515.111a1.25 1.25 0 00-.546.546c-.046.091-.088.228-.111.515-.024.296-.025.68-.025 1.253v5.6c0 .572 0 .957.025 1.252.023.288.065.425.111.515.12.236.311.427.546.547.091.046.228.088.515.111.296.024.68.025 1.253.025h5.6c.572 0 .957 0 1.252-.025.288-.023.425-.065.515-.111a1.25 1.25 0 00.547-.547c.046-.09.088-.227.111-.515.024-.295.025-.68.025-1.252v-5.6c0-.572 0-.957-.025-1.252-.023-.288-.065-.425-.111-.516a1.25 1.25 0 00-.547-.546c-.09-.046-.227-.088-.514-.111-.296-.024-.68-.025-1.253-.025H5.2c-.572 0-.957 0-1.253.025z"/>
</svg>
