<svg xmlns="http://www.w3.org/2000/svg" width="24" height="24" fill="currentColor" viewBox="0 0 24 24">
  <path fill-rule="evenodd" d="M4.53.47a.75.75 0 010 1.06l-3 3A.75.75 0 01.47 3.47l3-3a.75.75 0 011.06 0zm14.94 0a.75.75 0 000 1.06l3 3a.75.75 0 101.06-1.06l-3-3a.75.75 0 00-1.06 0zm-2.94 9.06a.75.75 0 00-1.06-1.06L11 12.94l-1.47-1.47a.75.75 0 00-1.06 1.06l2 2a.75.75 0 001.06 0l5-5z" opacity=".4"/>
  <path fill-rule="evenodd" d="M12 2.75a9.25 9.25 0 100 18.5 9.25 9.25 0 000-18.5zM1.25 12C1.25 6.063 6.063 1.25 12 1.25S22.75 6.063 22.75 12 17.937 22.75 12 22.75 1.25 17.937 1.25 12z"/>
</svg>
