<svg xmlns="http://www.w3.org/2000/svg" width="24" height="24" fill="currentColor" viewBox="0 0 24 24">
  <path fill-rule="evenodd" d="M12.75 6.5a.75.75 0 00-1.5 0v.75h-.507a2.493 2.493 0 00-.788 4.859l1.295.432v2.709H11c-.69 0-1.25-.56-1.25-1.25a.75.75 0 00-1.5 0A2.75 2.75 0 0011 16.75h.25v.75a.75.75 0 001.5 0v-.75h.507a2.493 2.493 0 00.788-4.859l-1.295-.432V8.75H13c.69 0 1.25.56 1.25 1.25a.75.75 0 001.5 0A2.75 2.75 0 0013 7.25h-.25V6.5zm-1.5 2.25h-.507a.993.993 0 00-.314 1.936l.82.273V8.75zm1.5 4.29v2.21h.507a.993.993 0 00.314-1.936l-.821-.273z" opacity=".4"/>
  <path fill-rule="evenodd" d="M12 2.75a9.25 9.25 0 100 18.5 9.25 9.25 0 000-18.5zM1.25 12C1.25 6.063 6.063 1.25 12 1.25S22.75 6.063 22.75 12 17.937 22.75 12 22.75 1.25 17.937 1.25 12z"/>
</svg>
