<svg xmlns="http://www.w3.org/2000/svg" width="24" height="24" fill="currentColor" viewBox="0 0 24 24">
  <path fill-rule="evenodd" d="M14 7.75a1.25 1.25 0 100 2.5 1.25 1.25 0 000-2.5zM11.25 9a2.75 2.75 0 115.5 0 2.75 2.75 0 01-5.5 0z" opacity=".4"/>
  <path fill-rule="evenodd" d="M2.75 12a9.25 9.25 0 0118.5 0 9.21 9.21 0 01-1 4.189l-.457-.457-.021-.021c-.378-.378-.693-.693-.972-.93-.29-.246-.59-.451-.95-.568a2.75 2.75 0 00-1.7 0c-.36.117-.66.322-.95.568-.279.237-.594.552-.972.93l-.021.021-.207.207-1.707-1.707-.021-.021a17.823 17.823 0 00-.972-.93c-.29-.246-.59-.451-.95-.568a2.75 2.75 0 00-1.7 0c-.36.117-.66.322-.95.568-.279.237-.594.552-.972.93l-.021.021L4.47 16.47l-.36.36A9.207 9.207 0 012.75 12zm2.256 6.054A9.228 9.228 0 0012 21.25a9.21 9.21 0 004.189-1l-2.72-2.72-2.237-2.237c-.404-.405-.676-.676-.903-.868-.22-.187-.346-.254-.443-.285a1.25 1.25 0 00-.772 0c-.097.031-.224.098-.443.285-.227.192-.499.463-.903.868L5.53 17.53l-.5.5a.815.815 0 01-.024.024zm12.493 1.385a9.305 9.305 0 001.94-1.94l-.707-.706c-.404-.405-.677-.676-.903-.868-.22-.187-.346-.254-.443-.285a1.25 1.25 0 00-.772 0c-.097.031-.224.098-.443.285-.227.192-.499.463-.903.868L15.06 17l2.438 2.439zM12 1.25C6.063 1.25 1.25 6.063 1.25 12S6.063 22.75 12 22.75 22.75 17.937 22.75 12 17.937 1.25 12 1.25z"/>
</svg>
