<svg xmlns="http://www.w3.org/2000/svg" width="24" height="24" fill="currentColor" viewBox="0 0 24 24">
  <path fill-rule="evenodd" d="M2 12.25a.75.75 0 01.75.75A6.252 6.252 0 009 19.25h5a.75.75 0 010 1.5H9A7.751 7.751 0 011.25 13a.75.75 0 01.75-.75z" opacity=".4"/>
  <path fill-rule="evenodd" d="M17.47 1.47a.75.75 0 011.06 0l4 4a.75.75 0 010 1.06l-4 4a.75.75 0 11-1.06-1.06l2.72-2.72H9a6.25 6.25 0 00-6.187 7.144.75.75 0 11-1.485.212A7.75 7.75 0 019 5.25h11.19l-2.72-2.72a.75.75 0 010-1.06z"/>
</svg>
