<svg xmlns="http://www.w3.org/2000/svg" width="24" height="24" fill="currentColor" viewBox="0 0 24 24">
  <path fill-rule="evenodd" d="M20.53 3.47a.75.75 0 010 1.06L19.06 6l1.47 1.47a.75.75 0 01-1.06 1.06L18 7.06l-1.47 1.47a.75.75 0 11-1.06-1.06L16.94 6l-1.47-1.47a.75.75 0 011.06-1.06L18 4.94l1.47-1.47a.75.75 0 011.06 0z" opacity=".4"/>
  <path fill-rule="evenodd" d="M11.5 1.25h-.033c-1.605 0-2.854 0-3.858.08-1.018.08-1.846.247-2.594.616a6.75 6.75 0 00-3.069 3.069c-.369.748-.535 1.576-.616 2.595-.08 1.003-.08 2.252-.08 3.857V12.434c0 1.651 0 2.937.084 3.968.066.807.186 1.498.416 2.123a.747.747 0 00.217.503l.019.036a6.75 6.75 0 002.95 2.95c.765.39 1.615.566 2.662.652 1.031.084 2.317.084 3.968.084H12.533c1.605 0 2.854 0 3.857-.08 1.019-.08 1.847-.247 2.595-.616a6.75 6.75 0 003.069-3.069c.369-.748.535-1.576.616-2.595.08-1.003.08-2.252.08-3.857V12a.75.75 0 00-1.5 0v.5c0 1.645 0 2.835-.075 3.772l-.002.028-.567-.568-.022-.021c-.378-.378-.693-.693-.971-.93-.291-.246-.59-.451-.95-.568a2.75 2.75 0 00-1.7 0c-.36.117-.66.322-.95.569-.28.236-.595.552-.973.93l-.021.02-.54.541-2.694-2.615-.022-.02a17.72 17.72 0 00-.972-.904c-.291-.24-.59-.438-.948-.55a2.75 2.75 0 00-1.684.012c-.355.117-.651.32-.939.564-.275.234-.586.545-.959.918l-.02.021-3.326 3.325a10.221 10.221 0 01-.086-.744c-.078-.963-.079-2.188-.079-3.88v-.9c0-1.645 0-2.835.075-3.772.074-.928.217-1.543.466-2.05a5.25 5.25 0 012.387-2.387c.507-.25 1.122-.392 2.05-.466.937-.074 2.127-.075 3.772-.075h.5a.75.75 0 000-1.5h-.5zM3.447 18.614a5.25 5.25 0 002.17 2.064c.518.264 1.15.415 2.103.493.963.078 2.187.079 3.88.079h.9c1.645 0 2.835 0 3.772-.075.335-.027.63-.062.893-.109l-3.205-3.205-3.22-3.127a17.038 17.038 0 00-.904-.843c-.219-.18-.345-.246-.441-.276a1.25 1.25 0 00-.766.006c-.096.031-.22.098-.437.282-.223.19-.492.457-.891.857l-3.854 3.854zm15.267 1.88a5.25 5.25 0 001.995-2.172c.04-.081.077-.165.112-.253l-1.276-1.276c-.405-.405-.677-.676-.903-.868-.22-.187-.347-.254-.443-.285a1.25 1.25 0 00-.773 0c-.096.031-.223.098-.443.285-.226.192-.498.464-.903.869l-.533.532 3.167 3.168z"/>
</svg>
