<svg xmlns="http://www.w3.org/2000/svg" width="24" height="24" fill="currentColor" viewBox="0 0 24 24">
  <path fill-rule="evenodd" d="M8.75 6a.75.75 0 00-1.5 0v1.25H6a.75.75 0 000 1.5h1.25v4.08c0 .535 0 .98.03 1.345.03.38.098.736.27 1.073a2.75 2.75 0 001.202 1.202c.337.172.693.24 1.073.27.365.03.81.03 1.345.03h4.08V18a.75.75 0 001.5 0v-1.25H18a.75.75 0 000-1.5h-6.8c-.572 0-.957 0-1.253-.025-.287-.023-.424-.065-.514-.111a1.25 1.25 0 01-.547-.546c-.046-.091-.088-.228-.111-.515-.024-.296-.025-.68-.025-1.253V6zm4.05 2.75c.572 0 .957 0 1.252.025.288.023.425.065.516.111.235.12.426.311.546.547.046.09.088.227.111.514.024.296.025.68.025 1.253v2.3a.75.75 0 001.5 0V11.17c0-.535 0-.98-.03-1.345-.03-.38-.098-.736-.27-1.073A2.75 2.75 0 0015.25 7.55c-.338-.172-.694-.24-1.074-.27-.365-.03-.81-.03-1.345-.03H10.5a.75.75 0 000 1.5h2.3z" opacity=".4"/>
  <path fill-rule="evenodd" d="M11.347 1.63A.75.75 0 0112 1.25c5.937 0 10.75 4.813 10.75 10.75a.75.75 0 01-1.5 0c0-4.637-3.413-8.478-7.863-9.147l.756 1.261a.75.75 0 11-1.286.772l-1.5-2.5a.75.75 0 01-.01-.756zM2 11.25a.75.75 0 01.75.75c0 4.637 3.413 8.478 7.863 9.147l-.756-1.261a.75.75 0 011.286-.772l1.5 2.5A.75.75 0 0112 22.75C6.063 22.75 1.25 17.937 1.25 12a.75.75 0 01.75-.75z"/>
</svg>
