<svg xmlns="http://www.w3.org/2000/svg" width="24" height="24" fill="currentColor" viewBox="0 0 24 24">
  <path fill-rule="evenodd" d="M20 6.25a.75.75 0 01.75.75v4.19l1.72-1.72a.75.75 0 111.06 1.06l-3 3a.75.75 0 01-1.06 0l-3-3a.75.75 0 111.06-1.06l1.72 1.72V7a.75.75 0 01.75-.75z" opacity=".4"/>
  <path fill-rule="evenodd" d="M5.75 6a3.25 3.25 0 116.5 0 3.25 3.25 0 01-6.5 0zM9 1.25a4.75 4.75 0 100 9.5 4.75 4.75 0 000-9.5zm-2.2 12a5.55 5.55 0 00-5.55 5.55 3.95 3.95 0 003.95 3.95h7.6a3.95 3.95 0 003.95-3.95 5.55 5.55 0 00-5.55-5.55H6.8zM2.75 18.8a4.05 4.05 0 014.05-4.05h4.4a4.05 4.05 0 014.05 4.05 2.45 2.45 0 01-2.45 2.45H5.2a2.45 2.45 0 01-2.45-2.45z"/>
</svg>
