<svg xmlns="http://www.w3.org/2000/svg" width="24" height="24" fill="currentColor" viewBox="0 0 24 24">
  <path fill-rule="evenodd" d="M11.959 1.322a.75.75 0 01.356 1 7.03 7.03 0 009.364 9.364.75.75 0 01.642 1.354A8.53 8.53 0 0110.96 1.68a.75.75 0 011-.357z" opacity=".4"/>
  <path fill-rule="evenodd" d="M11.61 1.25a.75.75 0 01.558.22L22.53 11.832a.75.75 0 01.22.557c-.207 5.758-4.94 10.361-10.747 10.361-5.939 0-10.753-4.814-10.753-10.753 0-5.808 4.603-10.54 10.36-10.747zm-.267 1.517a9.254 9.254 0 109.89 9.89l-9.89-9.89z"/>
</svg>
