<svg xmlns="http://www.w3.org/2000/svg" width="24" height="24" fill="currentColor" viewBox="0 0 24 24">
  <path fill-rule="evenodd" d="M9.47 10.47a.75.75 0 011.06 0L12 11.94l1.47-1.47a.75.75 0 011.06 1.06L13.06 13l1.47 1.47a.75.75 0 11-1.06 1.06L12 14.06l-1.47 1.47a.75.75 0 01-1.06-1.06L10.94 13l-1.47-1.47a.75.75 0 010-1.06z" opacity=".4"/>
  <path fill-rule="evenodd" d="M7.411 3.93A3.823 3.823 0 004.75 7.57V14c0 1.412 0 2.427.066 3.223.064.787.187 1.295.397 1.707a4.25 4.25 0 001.857 1.857c.412.21.92.333 1.707.397.796.065 1.81.066 3.223.066 1.412 0 2.427 0 3.223-.066.787-.064 1.295-.188 1.706-.397a4.25 4.25 0 001.858-1.857c.21-.412.333-.92.397-1.707.065-.796.066-1.81.066-3.223V7.571a3.823 3.823 0 00-2.661-3.642A2.751 2.751 0 0114 5.75h-4a2.751 2.751 0 01-2.589-1.82zm9.273-1.531a5.324 5.324 0 014.066 5.172v6.463c0 1.371 0 2.447-.07 3.311-.073.88-.221 1.607-.557 2.265a5.75 5.75 0 01-2.513 2.513c-.658.336-1.385.485-2.265.556-.864.071-1.94.071-3.312.071h-.067c-1.371 0-2.447 0-3.311-.07-.88-.072-1.607-.221-2.266-.557a5.75 5.75 0 01-2.512-2.513c-.336-.658-.485-1.385-.557-2.265-.07-.864-.07-1.94-.07-3.311V7.57A5.324 5.324 0 017.316 2.4 2.751 2.751 0 0110 .25h4c1.312 0 2.41.92 2.684 2.149zM8.75 3c0-.69.56-1.25 1.25-1.25h4a1.25 1.25 0 110 2.5h-4c-.69 0-1.25-.56-1.25-1.25z"/>
</svg>
