<svg xmlns="http://www.w3.org/2000/svg" width="24" height="24" fill="currentColor" viewBox="0 0 24 24">
  <path fill-rule="evenodd" d="M18.16 3.903a1.25 1.25 0 011.68 0c.02.017.044.042.13.127.085.086.11.11.127.13a1.25 1.25 0 010 1.68 4.742 4.742 0 01-.127.13l-.307.307a1.903 1.903 0 01-1.94-1.94l.307-.307c.086-.086.11-.11.13-.127zm-1.708 1.705l-2.668 2.669c-.483.483-.665.668-.811.87a3.25 3.25 0 00-.346.611c-.099.23-.164.48-.33 1.144l-.266 1.067 1.067-.267c.663-.165.914-.23 1.144-.33.215-.092.42-.208.61-.345.203-.146.388-.328.871-.81l2.669-2.67a3.428 3.428 0 01-1.94-1.939zm4.398-2.815a2.75 2.75 0 00-3.7 0c-.049.045-.1.097-.168.164l-.012.013-4.247 4.246-.044.044c-.425.425-.698.698-.924 1.012-.2.279-.37.578-.505.892-.153.355-.247.73-.392 1.313l-.016.06-.57 2.281a.75.75 0 00.91.91l2.28-.57.06-.016c.583-.145.959-.239 1.314-.392.314-.136.613-.305.891-.505.314-.226.588-.5 1.013-.924l.044-.044L21.03 7.03l.013-.012c.067-.068.12-.12.163-.168a2.75 2.75 0 000-3.7c-.044-.049-.096-.1-.163-.168l-.013-.012-.012-.013a5.123 5.123 0 00-.168-.164z" opacity=".4"/>
  <path fill-rule="evenodd" d="M9.966 1.25H12a.75.75 0 010 1.5h-2c-1.413 0-2.427 0-3.223.066-.787.064-1.295.188-1.706.397a4.25 4.25 0 00-1.858 1.858c-.21.411-.333.919-.397 1.706-.065.796-.066 1.81-.066 3.223v4c0 1.412 0 2.427.066 3.223.064.787.188 1.295.397 1.707a4.25 4.25 0 001.858 1.857c.411.21.919.333 1.706.397.796.065 1.81.066 3.223.066h4c1.412 0 2.427 0 3.223-.066.787-.064 1.295-.188 1.707-.397a4.251 4.251 0 001.857-1.857c.21-.412.333-.92.397-1.707.065-.796.066-1.81.066-3.223v-2a.75.75 0 011.5 0v2.034c0 1.371 0 2.447-.07 3.311-.072.88-.221 1.607-.557 2.265a5.75 5.75 0 01-2.513 2.513c-.658.336-1.385.485-2.265.556-.864.071-1.94.071-3.311.071H9.966c-1.371 0-2.447 0-3.311-.07-.88-.072-1.607-.221-2.265-.557a5.75 5.75 0 01-2.513-2.513c-.336-.658-.484-1.385-.556-2.265-.071-.864-.071-1.94-.071-3.311V9.966c0-1.371 0-2.447.07-3.311.073-.88.221-1.607.557-2.265A5.75 5.75 0 014.39 1.877c.658-.336 1.385-.484 2.265-.556.864-.071 1.94-.071 3.311-.071z"/>
</svg>
