<svg xmlns="http://www.w3.org/2000/svg" width="24" height="24" fill="currentColor" viewBox="0 0 24 24">
  <path fill-rule="evenodd" d="M9.726 8.94a.75.75 0 01-.54.912A3.252 3.252 0 0010 16.25c.825 0 1.576-.306 2.15-.812a.75.75 0 01.992 1.124A4.75 4.75 0 118.813 8.4a.75.75 0 01.913.54z" opacity=".4"/>
  <path fill-rule="evenodd" d="M11.6 1.25h-.034c-1.651 0-2.937 0-3.968.084-1.047.086-1.897.262-2.662.652a6.75 6.75 0 00-2.95 2.95c-.39.765-.566 1.615-.652 2.662-.084 1.031-.084 2.317-.084 3.968V12.434c0 1.651 0 2.937.084 3.968.086 1.047.262 1.897.652 2.662a6.75 6.75 0 002.95 2.95c.765.39 1.615.566 2.662.652 1.031.084 2.317.084 3.968.084H12.434c1.652 0 2.937 0 3.968-.084 1.047-.086 1.897-.262 2.662-.652a6.75 6.75 0 002.95-2.95c.39-.765.566-1.615.652-2.662.084-1.031.084-2.317.084-3.968V11.566c0-1.651 0-2.937-.084-3.968-.086-1.047-.262-1.897-.652-2.662a6.75 6.75 0 00-2.95-2.95c-.765-.39-1.615-.566-2.662-.652-1.031-.084-2.317-.084-3.968-.084H11.6zM5.617 3.322c.518-.264 1.15-.415 2.103-.493.963-.078 2.187-.079 3.88-.079h.8c1.692 0 2.917 0 3.88.08.954.077 1.585.228 2.103.492a5.25 5.25 0 012.295 2.295c.264.518.415 1.15.493 2.103.078.963.079 2.187.079 3.88v.8c0 1.692 0 2.917-.08 3.88-.077.954-.228 1.585-.492 2.103a5.25 5.25 0 01-2.295 2.295c-.518.264-1.15.415-2.103.493-.963.078-2.188.079-3.88.079h-.8c-1.693 0-2.917 0-3.88-.08-.954-.077-1.585-.228-2.103-.492a5.25 5.25 0 01-2.295-2.295c-.264-.518-.415-1.15-.493-2.103-.078-.963-.079-2.188-.079-3.88v-.8c0-1.693 0-2.917.08-3.88.077-.954.228-1.585.492-2.103a5.25 5.25 0 012.295-2.295zM12 6a1 1 0 100-2 1 1 0 000 2zm0 1.25a.75.75 0 01.75.75c0 .69.56 1.25 1.25 1.25h1a.75.75 0 010 1.5h-1c-.45 0-.875-.108-1.25-.3v.584c0 .356 0 .579.014.746.013.158.034.2.038.209.046.09.12.163.21.209.008.004.05.025.208.038.167.013.39.014.746.014h.095c.32 0 .605 0 .841.02.251.02.513.066.768.196.372.19.675.492.864.865.13.254.176.516.197.767.019.236.019.52.019.84v.728l.001.137c.016.24.207.43.446.446l.136.001H18a.75.75 0 010 1.5h-.686c-.077 0-.15 0-.217-.004a1.979 1.979 0 01-1.843-1.843c-.004-.067-.004-.14-.004-.217v-.72c0-.356 0-.579-.014-.746a.598.598 0 00-.038-.209.479.479 0 00-.21-.209.598.598 0 00-.208-.038c-.167-.013-.39-.014-.746-.014h-.095c-.32 0-.605 0-.841-.02a2.012 2.012 0 01-.768-.196 1.978 1.978 0 01-.864-.865 2.012 2.012 0 01-.197-.767c-.019-.236-.019-.52-.019-.84V8a.75.75 0 01.75-.75z"/>
</svg>
