<svg xmlns="http://www.w3.org/2000/svg" width="24" height="24" fill="currentColor" viewBox="0 0 24 24">
  <path fill-rule="evenodd" d="M22 3a1 1 0 11-2 0 1 1 0 012 0zm0 4a1 1 0 11-2 0 1 1 0 012 0zm0 10a1 1 0 11-2 0 1 1 0 012 0zM3 22a1 1 0 100-2 1 1 0 000 2zm5-1a1 1 0 11-2 0 1 1 0 012 0zm9 1a1 1 0 100-2 1 1 0 000 2zm4 0a1 1 0 100-2 1 1 0 000 2zM3 18a1 1 0 100-2 1 1 0 000 2zM3 8a1 1 0 100-2 1 1 0 000 2zm14-4a1 1 0 100-2 1 1 0 000 2zM8 3a1 1 0 11-2 0 1 1 0 012 0zM3 4a1 1 0 100-2 1 1 0 000 2z" opacity=".4"/>
  <path fill-rule="evenodd" d="M12.75 2a.75.75 0 00-1.5 0v9.25H2a.75.75 0 000 1.5h9.25V22a.75.75 0 001.5 0v-9.25H22a.75.75 0 000-1.5h-9.25V2z"/>
</svg>
