<svg xmlns="http://www.w3.org/2000/svg" width="24" height="24" fill="currentColor" viewBox="0 0 24 24">
  <path fill-rule="evenodd" d="M9.48 4.716c.78-.301 1.631-.466 2.52-.466 3.693 0 6.75 2.86 6.75 6.464a.75.75 0 01-1.5 0c0-2.708-2.316-4.964-5.25-4.964-.703 0-1.37.13-1.98.365a.75.75 0 01-.54-1.4zM7.8 6.569a.75.75 0 01.09 1.057 4.773 4.773 0 00-1.139 3.088v2.857c0 2.174 1.487 4.052 3.599 4.713a.75.75 0 01-.448 1.432c-2.68-.839-4.651-3.256-4.651-6.145v-2.857c0-1.538.562-2.949 1.492-4.054A.75.75 0 017.8 6.569zM18 12.82a.75.75 0 01.75.75c0 2.89-1.972 5.306-4.651 6.145a.75.75 0 01-.448-1.432c2.111-.66 3.599-2.539 3.599-4.713a.75.75 0 01.75-.75zm-6-2.571a.75.75 0 01.75.75v2a.75.75 0 01-1.5 0v-2a.75.75 0 01.75-.75zm0-3c-1.986 0-3.75 1.45-3.75 3.417v2.666a.75.75 0 001.5 0v-2.666c0-.978.922-1.917 2.25-1.917a.75.75 0 000-1.5zm3.227 1.674a.75.75 0 00-1.257.818c.181.278.28.593.28.925v2.666c0 .978-.922 1.917-2.25 1.917-.427 0-.822-.101-1.157-.274a.75.75 0 10-.686 1.334c.548.282 1.178.44 1.843.44 1.986 0 3.75-1.45 3.75-3.417v-2.666c0-.64-.193-1.236-.523-1.743z" opacity=".4"/>
  <path fill-rule="evenodd" d="M9.966 1.25h4.068c1.371 0 2.447 0 3.311.07.88.073 1.607.221 2.265.557a5.75 5.75 0 012.513 2.513c.336.658.485 1.385.556 2.265.071.864.071 1.94.071 3.311v4.068c0 1.371 0 2.447-.07 3.311-.072.88-.221 1.607-.557 2.265a5.75 5.75 0 01-2.513 2.513c-.658.336-1.385.485-2.265.556-.864.071-1.94.071-3.311.071H9.966c-1.371 0-2.447 0-3.311-.07-.88-.072-1.607-.221-2.265-.557a5.75 5.75 0 01-2.513-2.513c-.336-.658-.484-1.385-.556-2.265-.071-.864-.071-1.94-.071-3.311V9.966c0-1.371 0-2.447.07-3.311.073-.88.221-1.607.557-2.265A5.75 5.75 0 014.39 1.877c.658-.336 1.385-.484 2.265-.556.864-.071 1.94-.071 3.311-.071zM6.777 2.816c-.787.064-1.295.188-1.706.397a4.25 4.25 0 00-1.858 1.858c-.21.411-.333.919-.397 1.706-.065.796-.066 1.81-.066 3.223v4c0 1.412 0 2.427.066 3.223.064.787.188 1.295.397 1.707a4.25 4.25 0 001.858 1.857c.411.21.919.333 1.706.397.796.065 1.81.066 3.223.066h4c1.412 0 2.427 0 3.223-.066.787-.064 1.295-.188 1.707-.397a4.251 4.251 0 001.857-1.857c.21-.412.333-.92.397-1.707.065-.796.066-1.81.066-3.223v-4c0-1.413 0-2.427-.066-3.223-.064-.787-.188-1.295-.397-1.706a4.25 4.25 0 00-1.857-1.858c-.412-.21-.92-.333-1.707-.397-.796-.065-1.81-.066-3.223-.066h-4c-1.413 0-2.427 0-3.223.066z"/>
</svg>
