<svg xmlns="http://www.w3.org/2000/svg" width="24" height="24" fill="currentColor" viewBox="0 0 24 24">
  <path fill-rule="evenodd" d="M1.25 14a.75.75 0 01.75-.75c4.767 0 8.75 4.03 8.75 8.75a.75.75 0 01-1.5 0c0-3.896-3.316-7.25-7.25-7.25a.75.75 0 01-.75-.75zM3 22a1 1 0 11-2 0 1 1 0 012 0zm-1-4.75a.75.75 0 000 1.5c1.758 0 3.25 1.508 3.25 3.25a.75.75 0 001.5 0c0-2.566-2.158-4.75-4.75-4.75z" opacity=".4"/>
  <path fill-rule="evenodd" d="M9.966 1.25h4.068c1.371 0 2.447 0 3.311.07.88.073 1.607.221 2.265.557a5.75 5.75 0 012.513 2.513c.336.658.485 1.385.556 2.265.071.864.071 1.94.071 3.311v4.068c0 1.371 0 2.447-.07 3.311-.072.88-.221 1.607-.557 2.265a5.75 5.75 0 01-2.513 2.513c-.658.336-1.385.485-2.265.556-.864.071-1.94.071-3.311.071H13.5a.75.75 0 010-1.5h.5c1.412 0 2.427 0 3.223-.066.787-.064 1.295-.188 1.707-.397a4.251 4.251 0 001.857-1.857c.21-.412.333-.92.397-1.707.065-.796.066-1.81.066-3.223v-4c0-1.413 0-2.427-.066-3.223-.064-.787-.188-1.295-.397-1.706a4.25 4.25 0 00-1.857-1.858c-.412-.21-.92-.333-1.707-.397-.796-.065-1.81-.066-3.223-.066h-4c-1.413 0-2.427 0-3.223.066-.787.064-1.295.188-1.706.397a4.25 4.25 0 00-1.858 1.858c-.21.411-.333.919-.397 1.706-.065.796-.066 1.81-.066 3.223v.5a.75.75 0 01-1.5 0v-.534c0-1.371 0-2.447.07-3.311.073-.88.221-1.607.557-2.265A5.75 5.75 0 014.39 1.877c.658-.336 1.385-.484 2.265-.556.864-.071 1.94-.071 3.311-.071z"/>
</svg>
