<svg xmlns="http://www.w3.org/2000/svg" width="24" height="24" fill="currentColor" viewBox="0 0 24 24">
  <path fill-rule="evenodd" d="M6 9.25a.75.75 0 01.75.75v2.061c.214-.205.45-.42.704-.635C8.684 10.392 10.48 9.25 12.5 9.25c2.51 0 4.088 1.13 5.02 2.277a6.787 6.787 0 011.14 2.066c.022.064.038.117.049.155l.012.046.004.015.002.005v.003L18 14l.728-.182a.75.75 0 01-1.455.367m0 0v-.002l-.006-.02a4.508 4.508 0 00-.18-.487 5.284 5.284 0 00-.732-1.203c-.693-.853-1.865-1.723-3.855-1.723-1.48 0-2.933.858-4.08 1.824-.272.23-.52.46-.74.676H10a.75.75 0 010 1.5H6a.75.75 0 01-.75-.75v-4A.75.75 0 016 9.25" opacity=".4"/>
  <path fill-rule="evenodd" d="M9.966 1.25h4.068c1.371 0 2.447 0 3.311.07.88.073 1.607.221 2.265.557a5.75 5.75 0 012.513 2.513c.336.658.485 1.385.556 2.265.071.864.071 1.94.071 3.311v4.068c0 1.371 0 2.447-.07 3.311-.072.88-.221 1.607-.557 2.265a5.75 5.75 0 01-2.513 2.513c-.658.336-1.385.485-2.265.556-.864.071-1.94.071-3.311.071H9.966c-1.371 0-2.447 0-3.311-.07-.88-.072-1.607-.221-2.265-.557a5.75 5.75 0 01-2.513-2.513c-.336-.658-.484-1.385-.556-2.265-.071-.864-.071-1.94-.071-3.311V9.966c0-1.371 0-2.447.07-3.311.073-.88.221-1.607.557-2.265A5.75 5.75 0 014.39 1.877c.658-.336 1.385-.484 2.265-.556.864-.071 1.94-.071 3.311-.071zM6.777 2.816c-.787.064-1.295.188-1.706.397a4.25 4.25 0 00-1.858 1.858c-.21.411-.333.919-.397 1.706-.065.796-.066 1.81-.066 3.223v4c0 1.412 0 2.427.066 3.223.064.787.188 1.295.397 1.707a4.25 4.25 0 001.858 1.857c.411.21.919.333 1.706.397.796.065 1.81.066 3.223.066h4c1.412 0 2.427 0 3.223-.066.787-.064 1.295-.188 1.707-.397a4.251 4.251 0 001.857-1.857c.21-.412.333-.92.397-1.707.065-.796.066-1.81.066-3.223v-4c0-1.413 0-2.427-.066-3.223-.064-.787-.188-1.295-.397-1.706a4.25 4.25 0 00-1.857-1.858c-.412-.21-.92-.333-1.707-.397-.796-.065-1.81-.066-3.223-.066h-4c-1.413 0-2.427 0-3.223.066z"/>
</svg>
