<svg xmlns="http://www.w3.org/2000/svg" width="24" height="24" fill="currentColor" viewBox="0 0 24 24">
  <path fill-rule="evenodd" d="M11.123.25h1.754c.746 0 1.33-.001 1.84.21a2.75 2.75 0 011.13.868c.335.437.485 1.002.676 1.724l.035.13.167.625a.75.75 0 01-1.45.386l-.166-.624c-.245-.917-.324-1.16-.453-1.33a1.25 1.25 0 00-.514-.394c-.196-.081-.452-.095-1.4-.095h-1.484c-.948 0-1.204.014-1.4.095a1.25 1.25 0 00-.514.395c-.129.169-.208.412-.453 1.329l-.166.624a.75.75 0 01-1.45-.386l.167-.625.035-.13c.191-.722.341-1.287.676-1.724A2.75 2.75 0 019.283.46c.51-.211 1.094-.21 1.84-.21zm.877 9a.75.75 0 01.75.75v1.599l1.166.777a.75.75 0 11-.832 1.248l-1.5-1A.75.75 0 0111.25 12v-2a.75.75 0 01.75-.75zm4.725 10.943a.75.75 0 00-1.45-.386l-.166.624c-.245.917-.324 1.16-.453 1.33a1.25 1.25 0 01-.514.394c-.196.081-.452.095-1.4.095h-1.484c-.948 0-1.204-.014-1.4-.095a1.25 1.25 0 01-.514-.395c-.129-.169-.208-.412-.453-1.329l-.166-.624a.75.75 0 00-1.45.386l.167.625.035.13c.191.722.341 1.287.676 1.724a2.75 2.75 0 001.13.868c.51.211 1.094.21 1.84.21h1.754c.746 0 1.33.001 1.84-.21a2.75 2.75 0 001.13-.868c.335-.437.485-1.002.676-1.724l.035-.13.167-.625z" opacity=".4"/>
  <path fill-rule="evenodd" d="M11.966 3.25h.068c1.371 0 2.447 0 3.311.07.88.073 1.607.221 2.265.557a5.75 5.75 0 012.513 2.513c.336.658.485 1.385.556 2.265.071.864.071 1.94.071 3.311v.068c0 1.371 0 2.447-.07 3.311-.072.88-.221 1.607-.557 2.265a5.75 5.75 0 01-2.513 2.513c-.658.336-1.385.485-2.265.556-.864.071-1.94.071-3.311.071h-.068c-1.371 0-2.447 0-3.311-.07-.88-.072-1.607-.221-2.265-.557a5.75 5.75 0 01-2.513-2.513c-.336-.658-.484-1.385-.556-2.265-.071-.864-.071-1.94-.071-3.311v-.068c0-1.371 0-2.447.07-3.311.073-.88.221-1.607.557-2.265A5.75 5.75 0 016.39 3.877c.658-.336 1.385-.484 2.265-.556.864-.071 1.94-.071 3.311-.071zM8.777 4.816c-.787.064-1.295.188-1.706.397a4.25 4.25 0 00-1.858 1.858c-.21.411-.333.919-.397 1.706-.065.796-.066 1.81-.066 3.223 0 1.412 0 2.427.066 3.223.064.787.188 1.295.397 1.707a4.25 4.25 0 001.858 1.857c.411.21.919.333 1.706.397.796.065 1.81.066 3.223.066 1.412 0 2.427 0 3.223-.066.787-.064 1.295-.188 1.707-.397a4.25 4.25 0 001.857-1.857c.21-.412.333-.92.397-1.707.065-.796.066-1.81.066-3.223 0-1.412 0-2.427-.066-3.223-.064-.787-.188-1.295-.397-1.706a4.25 4.25 0 00-1.857-1.858c-.412-.21-.92-.333-1.707-.397-.796-.065-1.81-.066-3.223-.066-1.412 0-2.427 0-3.223.066z"/>
</svg>
