<svg xmlns="http://www.w3.org/2000/svg" width="24" height="24" fill="currentColor" viewBox="0 0 24 24">
  <path fill-rule="evenodd" d="M2.935 10.15a.75.75 0 00-1.47-.3A10.796 10.796 0 001.25 12v7.025c0 .445 0 .816.02 1.12.022.317.07.617.19.907a2.75 2.75 0 001.488 1.489c.29.12.59.167.907.188.304.021.675.021 1.12.021h.05c.445 0 .816 0 1.12-.02.317-.022.617-.069.907-.19a2.75 2.75 0 001.489-1.488c.12-.29.167-.59.188-.907.021-.304.021-.675.021-1.12v-3.05c0-.445 0-.816-.02-1.12a2.824 2.824 0 00-.19-.907 2.75 2.75 0 00-1.488-1.489c-.29-.12-.59-.167-.907-.188-.304-.021-.675-.021-1.12-.021h-.05c-.445 0-.816 0-1.12.02a2.822 2.822 0 00-.907.19 2.748 2.748 0 00-.198.09V12c0-.634.064-1.253.185-1.85zm19.6-.3a.75.75 0 00-1.47.3c.121.597.185 1.216.185 1.85v.55a2.743 2.743 0 00-.198-.09c-.29-.12-.59-.168-.907-.19-.304-.02-.675-.02-1.12-.02h-.05c-.445 0-.816 0-1.12.02a2.822 2.822 0 00-.907.19 2.75 2.75 0 00-1.489 1.488c-.12.29-.167.59-.188.907-.021.304-.021.675-.021 1.12v3.05c0 .445 0 .816.02 1.12.022.317.069.617.19.907a2.75 2.75 0 001.488 1.489c.29.12.59.167.907.188.304.021.675.021 1.12.021h.05c.445 0 .816 0 1.12-.02.317-.022.617-.069.907-.19a2.75 2.75 0 001.489-1.488c.12-.29.167-.59.188-.907.021-.304.021-.675.021-1.12v-3.05V12c0-.735-.074-1.454-.215-2.15zM21.25 16c0-.476 0-.796-.017-1.043-.017-.241-.046-.358-.078-.435a1.25 1.25 0 00-.677-.677c-.077-.032-.194-.061-.435-.078A17.073 17.073 0 0019 13.75c-.476 0-.796 0-1.043.017-.241.017-.358.046-.435.078a1.25 1.25 0 00-.677.677c-.032.077-.061.194-.078.435-.017.247-.017.567-.017 1.043v3c0 .476 0 .796.017 1.043.017.241.046.358.078.435.127.307.37.55.677.677.077.032.194.061.435.078.247.017.567.017 1.043.017s.796 0 1.043-.017c.241-.017.358-.046.435-.078.307-.127.55-.37.677-.677.032-.077.061-.194.078-.435.017-.247.017-.567.017-1.043v-3zM3.957 13.767c-.241.017-.358.046-.435.078a1.25 1.25 0 00-.677.677c-.032.077-.061.194-.078.435-.017.247-.017.567-.017 1.043v3c0 .476 0 .796.017 1.043.017.241.046.358.078.435.127.307.37.55.677.677.077.032.194.061.435.078.247.017.567.017 1.043.017s.796 0 1.043-.017c.241-.017.358-.046.435-.078.307-.127.55-.37.677-.677.032-.077.061-.194.078-.435.017-.247.017-.567.017-1.043v-3c0-.476 0-.796-.017-1.043-.017-.241-.046-.358-.078-.435a1.25 1.25 0 00-.677-.677c-.077-.032-.194-.061-.435-.078A17.07 17.07 0 005 13.75c-.476 0-.796 0-1.043.017z" opacity=".4"/>
  <path fill-rule="evenodd" d="M1.465 9.85C2.461 4.945 6.798 1.25 12 1.25s9.539 3.694 10.535 8.6a.75.75 0 01-1.47.3c-.857-4.223-4.59-7.4-9.065-7.4-4.474 0-8.208 3.177-9.065 7.4a.75.75 0 01-1.47-.3z"/>
</svg>
