<svg xmlns="http://www.w3.org/2000/svg" width="24" height="24" fill="currentColor" viewBox="0 0 24 24">
  <path fill-rule="evenodd" d="M15.53 8.47a.75.75 0 010 1.06l-6 6a.75.75 0 01-1.06-1.06l6-6a.75.75 0 011.06 0z" opacity=".4"/>
  <path fill-rule="evenodd" d="M15 3.75a.75.75 0 010-1.5h6a.75.75 0 01.75.75v6a.75.75 0 01-1.5 0V4.81l-4.72 4.72a.75.75 0 11-1.06-1.06l4.72-4.72H15zM2.25 15a.75.75 0 011.5 0v4.19l4.72-4.72a.75.75 0 011.06 1.06l-4.72 4.72H9a.75.75 0 010 1.5H3a.75.75 0 01-.75-.75v-6z"/>
</svg>
