<svg xmlns="http://www.w3.org/2000/svg" width="24" height="24" fill="currentColor" viewBox="0 0 24 24">
  <path fill-rule="evenodd" d="M6.371 2.25H10a.75.75 0 010 1.5H6.4c-.432 0-.712 0-.924.018-.204.017-.28.045-.316.064a.75.75 0 00-.328.328c-.02.037-.047.112-.064.316-.017.212-.018.492-.018.924V9a.75.75 0 11-1.5 0V5.371c0-.395 0-.736.023-1.017.024-.297.078-.592.222-.875a2.25 2.25 0 01.984-.984c.283-.144.578-.198.875-.222.28-.023.622-.023 1.017-.023z" opacity=".4"/>
  <path fill-rule="evenodd" d="M10 2.25a.75.75 0 100 1.5h2.5a3.75 3.75 0 110 7.5H4.75V8a.75.75 0 00-1.5 0V19.222a2.528 2.528 0 002.528 2.528H15.5a5.25 5.25 0 00.635-10.462A5.25 5.25 0 0012.5 2.25H10zM4.75 19.222V12.75H15.5a3.75 3.75 0 110 7.5H5.778c-.568 0-1.028-.46-1.028-1.028z"/>
</svg>
