<svg xmlns="http://www.w3.org/2000/svg" width="24" height="24" fill="currentColor" viewBox="0 0 24 24">
  <path fill-rule="evenodd" d="M11.222 18a.778.778 0 001.556 0v-2.006a.778.778 0 00-1.556 0V18zm0-9.994a.778.778 0 001.556 0V6a.778.778 0 00-1.556 0v2.006zm-2.706-.522a.73.73 0 00-1.032 1.032L8.768 9.8A.73.73 0 009.8 8.768L8.516 7.484zm6.716 6.716a.73.73 0 10-1.032 1.032l1.284 1.284a.73.73 0 101.032-1.032L15.232 14.2zm1.284-5.684a.73.73 0 00-1.032-1.032L14.2 8.768A.73.73 0 1015.232 9.8l1.284-1.284zM9.8 15.232A.73.73 0 108.768 14.2l-1.284 1.284a.73.73 0 101.032 1.032L9.8 15.232zM5.222 12c0 .43.349.778.778.778h2.006a.778.778 0 000-1.556H6a.778.778 0 00-.778.778zm9.994 0c0 .43.349.778.778.778H18a.778.778 0 000-1.556h-2.006a.778.778 0 00-.778.778z" opacity=".4"/>
  <path fill-rule="evenodd" d="M11.566 1.25H12.434c1.651 0 2.937 0 3.968.084 1.047.086 1.897.262 2.662.652a6.75 6.75 0 012.95 2.95c.39.765.566 1.615.652 2.662.084 1.031.084 2.317.084 3.968V12.434c0 1.651 0 2.937-.084 3.968-.086 1.047-.262 1.897-.652 2.662a6.75 6.75 0 01-2.95 2.95c-.765.39-1.615.566-2.662.652-1.031.084-2.317.084-3.968.084H11.566c-1.651 0-2.937 0-3.968-.084-1.047-.086-1.897-.262-2.662-.652a6.75 6.75 0 01-2.95-2.95c-.39-.765-.566-1.615-.652-2.662-.084-1.031-.084-2.317-.084-3.968V11.566c0-1.651 0-2.937.084-3.968.086-1.047.262-1.897.652-2.662a6.75 6.75 0 012.95-2.95c.765-.39 1.615-.566 2.662-.652 1.031-.084 2.317-.084 3.968-.084zM7.72 2.83c-.954.077-1.585.228-2.103.492a5.25 5.25 0 00-2.295 2.295c-.264.518-.415 1.15-.493 2.103-.078.963-.079 2.187-.079 3.88v.8c0 1.692 0 2.917.08 3.88.077.954.228 1.585.492 2.103a5.25 5.25 0 002.295 2.295c.518.264 1.15.415 2.103.493.963.078 2.187.079 3.88.079h.8c1.692 0 2.917 0 3.88-.08.954-.077 1.585-.228 2.103-.492a5.25 5.25 0 002.295-2.295c.264-.518.415-1.15.493-2.103.078-.963.079-2.188.079-3.88v-.8c0-1.693 0-2.917-.08-3.88-.077-.954-.228-1.585-.492-2.103a5.25 5.25 0 00-2.295-2.295c-.518-.264-1.15-.415-2.103-.493-.963-.078-2.188-.079-3.88-.079h-.8c-1.693 0-2.917 0-3.88.08z"/>
</svg>
