<svg xmlns="http://www.w3.org/2000/svg" width="24" height="24" fill="currentColor" viewBox="0 0 24 24">
  <path fill-rule="evenodd" d="M2.25 12a.75.75 0 01.75-.75h18a.75.75 0 010 1.5H3a.75.75 0 01-.75-.75z" opacity=".4"/>
  <path fill-rule="evenodd" d="M15.53 6.53l-3 3a.75.75 0 01-1.06 0l-3-3a.75.75 0 011.06-1.06l1.72 1.72V2a.75.75 0 011.5 0v5.19l1.72-1.72a.75.75 0 111.06 1.06zM12.75 22a.75.75 0 01-1.5 0v-5.19l-1.72 1.72a.75.75 0 01-1.06-1.06l3-3a.75.75 0 011.06 0l3 3a.75.75 0 11-1.06 1.06l-1.72-1.72V22z"/>
</svg>
