<svg xmlns="http://www.w3.org/2000/svg" width="24" height="24" fill="currentColor" viewBox="0 0 24 24">
  <path fill-rule="evenodd" d="M7.734 13.846a.75.75 0 01-.58.888c-1.58.331-2.711.828-3.428 1.386-.707.55-.976 1.121-.976 1.66 0 .325.153.7.566 1.112.415.415 1.055.823 1.904 1.181 1.697.716 4.094 1.177 6.78 1.177s5.083-.46 6.78-1.177c.85-.358 1.489-.766 1.904-1.181.413-.412.566-.787.566-1.111 0-.54-.269-1.112-.976-1.661-.717-.558-1.847-1.055-3.428-1.386a.75.75 0 11.308-1.468c1.712.359 3.082.924 4.041 1.67.97.754 1.555 1.727 1.555 2.845 0 .84-.407 1.575-1.006 2.173-.597.595-1.422 1.096-2.381 1.501-1.923.811-4.526 1.295-7.363 1.295-2.837 0-5.44-.484-7.363-1.295-.96-.405-1.784-.906-2.38-1.501-.6-.598-1.007-1.333-1.007-2.173 0-1.118.585-2.091 1.555-2.845.96-.746 2.33-1.311 4.041-1.67a.75.75 0 01.888.58z" opacity=".4"/>
  <path fill-rule="evenodd" d="M7.75 7a4.25 4.25 0 118.5 0 4.25 4.25 0 01-8.5 0zm5 5.701a5.751 5.751 0 10-1.5 0V18a.75.75 0 001.5 0v-5.299z"/>
</svg>
