<svg xmlns="http://www.w3.org/2000/svg" width="24" height="24" fill="currentColor" viewBox="0 0 24 24">
  <path fill-rule="evenodd" d="M10 .25a.75.75 0 100 1.5h4a.75.75 0 000-1.5h-4zM8.334 5.607A8.213 8.213 0 0112 4.75c2.278 0 4.34.923 5.834 2.416A8.222 8.222 0 0120.25 13a8.212 8.212 0 01-.857 3.666.75.75 0 001.343.668A9.713 9.713 0 0021.75 13a9.714 9.714 0 00-2.346-6.344L21.03 5.03a.75.75 0 00-1.06-1.06l-1.626 1.626A9.714 9.714 0 0012 3.25a9.713 9.713 0 00-4.334 1.014.75.75 0 00.668 1.343z" opacity=".4"/>
  <path fill-rule="evenodd" d="M2.47 3.47a.75.75 0 011.06 0l2.636 2.636 6.364 6.364 6.364 6.364 2.636 2.636a.75.75 0 11-1.06 1.06l-2.126-2.126A9.714 9.714 0 0112 22.75c-5.385 0-9.75-4.365-9.75-9.75 0-2.422.884-4.639 2.346-6.344L2.47 4.53a.75.75 0 010-1.06zm3.19 4.25a8.25 8.25 0 0011.62 11.62l-5.81-5.81-5.81-5.81z"/>
</svg>
