<svg xmlns="http://www.w3.org/2000/svg" width="24" height="24" fill="currentColor" viewBox="0 0 24 24">
  <path fill-rule="evenodd" d="M15.237 3.712c-2.171.723-4.67 2.297-6.95 4.576a.75.75 0 01-1.06-1.061c2.408-2.408 5.1-4.127 7.536-4.939 2.388-.795 4.772-.784 6.253.696 1.48 1.481 1.492 3.865.696 6.253-.299.895-.72 1.825-1.253 2.763.533.938.954 1.868 1.253 2.763.796 2.388.784 4.772-.696 6.253a.75.75 0 11-1.061-1.061c.862-.863 1.073-2.5.334-4.718-.191-.572-.441-1.167-.747-1.775a23.736 23.736 0 01-2.769 3.311.75.75 0 01-1.06-1.06A21.8 21.8 0 0018.71 12a21.801 21.801 0 00-2.998-3.712.75.75 0 111.061-1.061 23.737 23.737 0 012.769 3.31c.306-.607.556-1.202.746-1.774.74-2.219.53-3.855-.333-4.718-.862-.862-2.5-1.073-4.718-.333zM12 13a1 1 0 100-2 1 1 0 000 2z" opacity=".4"/>
  <path fill-rule="evenodd" d="M3.712 8.763c.19.572.44 1.167.746 1.775a23.737 23.737 0 012.77-3.311.75.75 0 111.06 1.06A21.797 21.797 0 005.29 12a21.798 21.798 0 002.998 3.712A21.792 21.792 0 0012 18.71a21.79 21.79 0 003.712-2.998.75.75 0 011.061 1.061 23.735 23.735 0 01-3.31 2.769c.607.306 1.202.556 1.774.746 2.219.74 3.856.53 4.718-.333a.75.75 0 111.06 1.06c-1.48 1.481-3.864 1.492-6.252.697A15.687 15.687 0 0112 20.459c-.938.533-1.868.954-2.763 1.253-2.388.796-4.772.784-6.253-.696-1.48-1.481-1.491-3.865-.695-6.253.298-.895.719-1.825 1.252-2.763a15.683 15.683 0 01-1.252-2.763c-.796-2.388-.785-4.772.695-6.253 1.481-1.48 3.865-1.492 6.253-.696 2.436.812 5.128 2.531 7.536 4.939a.75.75 0 11-1.06 1.06c-2.28-2.278-4.779-3.852-6.95-4.576-2.219-.74-3.855-.528-4.718.334-.862.862-1.073 2.5-.333 4.718zm0 6.474c.19-.572.44-1.167.746-1.775a23.73 23.73 0 002.769 3.31 23.737 23.737 0 003.311 2.77c-.608.306-1.203.556-1.775.746-2.219.74-3.855.53-4.718-.333-.862-.862-1.073-2.5-.333-4.718zM12 13a1 1 0 100-2 1 1 0 000 2z"/>
</svg>
