<svg xmlns="http://www.w3.org/2000/svg" width="24" height="24" fill="currentColor" viewBox="0 0 24 24">
  <path fill-rule="evenodd" d="M18.313 2.958C17.702 2.759 16.92 2.75 15 2.75v-1.5h.162c1.706 0 2.747 0 3.615.281a5.75 5.75 0 013.692 3.692c.281.868.281 1.909.281 3.615V19.198c0 .49 0 .896-.022 1.219-.022.323-.07.655-.222.953a2.25 2.25 0 01-2.164 1.225c-.334-.023-.643-.153-.932-.3a19.5 19.5 0 01-1.056-.608l-.023-.014c-.54-.324-.758-.453-.983-.553a4.247 4.247 0 00-1.223-.34c-.244-.029-.497-.03-1.127-.03H13a.75.75 0 010-1.5h2.048c.565 0 .913 0 1.257.042a5.75 5.75 0 011.655.458c.317.141.615.32 1.1.612l.042.025c.45.27.754.451.99.572.24.123.33.138.355.14a.75.75 0 00.722-.409c.01-.022.044-.107.062-.376.019-.265.019-.62.019-1.143V9c0-1.92-.01-2.702-.208-3.313a4.25 4.25 0 00-2.729-2.729z" opacity=".4"/>
  <path fill-rule="evenodd" d="M9.966 1.25H15a.75.75 0 010 1.5h-5c-1.413 0-2.427 0-3.223.066-.787.064-1.295.188-1.706.397a4.25 4.25 0 00-1.858 1.858c-.21.411-.333.919-.397 1.706-.065.796-.066 1.81-.066 3.223v2c0 1.412 0 2.427.066 3.223.064.787.188 1.295.397 1.707a4.25 4.25 0 001.858 1.857c.411.21.919.333 1.706.397.796.065 1.81.066 3.223.066h3a.75.75 0 010 1.5H9.966c-1.371 0-2.447 0-3.311-.07-.88-.072-1.607-.221-2.265-.557a5.75 5.75 0 01-2.513-2.513c-.336-.658-.484-1.385-.556-2.265-.071-.864-.071-1.94-.071-3.311V9.966c0-1.371 0-2.447.07-3.311.073-.88.221-1.607.557-2.265A5.75 5.75 0 014.39 1.877c.658-.336 1.385-.484 2.265-.556.864-.071 1.94-.071 3.311-.071z"/>
</svg>
