<svg xmlns="http://www.w3.org/2000/svg" width="24" height="24" fill="currentColor" viewBox="0 0 24 24">
  <path fill-rule="evenodd" d="M8 1.25a.75.75 0 01.75.75v2a.75.75 0 01-1.5 0V2A.75.75 0 018 1.25zm3.371 7H12.63c.395 0 .736 0 1.017.023.297.024.592.078.875.222.424.216.768.56.984.984.144.283.198.578.222.875.023.28.023.622.023 1.017V12.63c0 .395 0 .736-.023 1.017-.024.297-.078.592-.222.875-.216.424-.56.768-.984.984-.283.144-.578.198-.875.222-.28.023-.622.023-1.017.023H11.37c-.395 0-.736 0-1.017-.023-.297-.024-.592-.078-.875-.222a2.25 2.25 0 01-.984-.984c-.144-.283-.198-.578-.222-.875-.023-.28-.023-.622-.023-1.017V11.37c0-.395 0-.736.023-1.017.024-.297.078-.592.222-.875a2.25 2.25 0 01.984-.984c.283-.144.578-.198.875-.222.28-.023.622-.023 1.017-.023zm-.895 1.518c-.204.017-.28.045-.317.064a.75.75 0 00-.327.327c-.02.038-.047.113-.064.317-.017.212-.018.492-.018.924v1.2c0 .432 0 .712.018.924.017.204.045.28.064.317a.75.75 0 00.327.327c.038.02.113.047.317.064.212.017.492.018.924.018h1.2c.432 0 .712 0 .924-.018.204-.017.28-.045.317-.064a.751.751 0 00.327-.327c.02-.038.047-.113.064-.317.017-.212.018-.492.018-.924v-1.2c0-.432 0-.712-.018-.924-.017-.204-.045-.28-.064-.317a.75.75 0 00-.327-.327c-.038-.02-.113-.047-.317-.064a12.747 12.747 0 00-.924-.018h-1.2c-.432 0-.712 0-.924.018zM8.75 20a.75.75 0 00-1.5 0v2a.75.75 0 001.5 0v-2zM1.25 8A.75.75 0 012 7.25h2a.75.75 0 010 1.5H2A.75.75 0 011.25 8zM20 7.25a.75.75 0 000 1.5h2a.75.75 0 000-1.5h-2zm-8-6a.75.75 0 01.75.75v2a.75.75 0 01-1.5 0V2a.75.75 0 01.75-.75zM12.75 20a.75.75 0 00-1.5 0v2a.75.75 0 001.5 0v-2zm-11.5-8a.75.75 0 01.75-.75h2a.75.75 0 010 1.5H2a.75.75 0 01-.75-.75zM20 11.25a.75.75 0 000 1.5h2a.75.75 0 000-1.5h-2zm-4-10a.75.75 0 01.75.75v2a.75.75 0 01-1.5 0V2a.75.75 0 01.75-.75zM16.75 20a.75.75 0 00-1.5 0v2a.75.75 0 001.5 0v-2zm-15.5-4a.75.75 0 01.75-.75h2a.75.75 0 010 1.5H2a.75.75 0 01-.75-.75zM20 15.25a.75.75 0 000 1.5h2a.75.75 0 000-1.5h-2z" opacity=".4"/>
  <path fill-rule="evenodd" d="M10.367 3.25h3.266c1.092 0 1.958 0 2.655.057.714.058 1.317.18 1.869.46a4.75 4.75 0 012.075 2.077c.281.55.403 1.154.461 1.868.057.697.057 1.563.057 2.655v3.266c0 1.092 0 1.958-.057 2.655-.058.714-.18 1.317-.46 1.869a4.75 4.75 0 01-2.076 2.075c-.552.281-1.155.403-1.869.461-.697.057-1.563.057-2.655.057h-3.266c-1.092 0-1.958 0-2.655-.057-.714-.058-1.317-.18-1.868-.46a4.75 4.75 0 01-2.076-2.076c-.281-.552-.403-1.155-.461-1.869-.057-.697-.057-1.563-.057-2.655v-3.266c0-1.092 0-1.958.057-2.655.058-.714.18-1.317.46-1.868a4.75 4.75 0 012.077-2.076c.55-.281 1.154-.403 1.868-.461.697-.057 1.563-.057 2.655-.057zM7.834 4.802c-.62.05-1.005.147-1.31.302a3.25 3.25 0 00-1.42 1.42c-.155.305-.251.69-.302 1.31-.051.63-.052 1.434-.052 2.566v3.2c0 1.133 0 1.937.052 2.566.05.62.147 1.005.302 1.31a3.25 3.25 0 001.42 1.42c.305.155.69.251 1.31.302.63.051 1.434.052 2.566.052h3.2c1.133 0 1.937 0 2.566-.052.62-.05 1.005-.147 1.31-.302a3.25 3.25 0 001.42-1.42c.155-.305.251-.69.302-1.31.051-.63.052-1.434.052-2.566v-3.2c0-1.132 0-1.937-.052-2.566-.05-.62-.147-1.005-.302-1.31a3.25 3.25 0 00-1.42-1.42c-.305-.155-.69-.251-1.31-.302-.63-.051-1.434-.052-2.566-.052h-3.2c-1.132 0-1.937 0-2.566.052z"/>
</svg>
