<svg xmlns="http://www.w3.org/2000/svg" width="24" height="24" fill="currentColor" viewBox="0 0 24 24">
  <path fill-rule="evenodd" d="M18.47 23.53a.75.75 0 001.06 0l3-3a.75.75 0 000-1.06l-3-3a.75.75 0 10-1.06 1.06l1.72 1.72H12a.75.75 0 000 1.5h8.19l-1.72 1.72a.75.75 0 000 1.06zM1.25 4c0 .414.336.75.75.75h6a.75.75 0 000-1.5H2a.75.75 0 00-.75.75z" opacity=".4"/>
  <path fill-rule="evenodd" d="M18.47.47a.75.75 0 011.06 0l3 3a.75.75 0 010 1.06l-3 3a.75.75 0 11-1.06-1.06l1.72-1.72h-4.442c-1.41 0-1.893.014-2.277.176a2.25 2.25 0 00-.93.725c-.25.334-.38.8-.722 2.167l-2.182 8.728-.04.158c-.286 1.146-.483 1.937-.938 2.544a3.75 3.75 0 01-1.549 1.21c-.699.293-1.514.293-2.695.292H2a.75.75 0 010-1.5h2.252c1.41 0 1.893-.014 2.277-.176a2.25 2.25 0 00.93-.725c.25-.334.38-.8.722-2.167l2.182-8.728.04-.158c.286-1.146.483-1.937.938-2.544a3.75 3.75 0 011.549-1.21c.699-.293 1.514-.293 2.695-.292h4.604l-1.72-1.72a.75.75 0 010-1.06z"/>
</svg>
