<svg xmlns="http://www.w3.org/2000/svg" width="24" height="24" fill="currentColor" viewBox="0 0 24 24">
  <path fill-rule="evenodd" d="M11.975 11.25h.05c.445 0 .816 0 1.12.02.318.022.617.069.907.19a2.75 2.75 0 011.489 1.488c.12.29.167.59.188.907.021.304.021.675.021 1.12V22a.75.75 0 01-1.5 0v-7c0-.476 0-.796-.017-1.043-.017-.241-.046-.358-.078-.435a1.25 1.25 0 00-.677-.677c-.077-.032-.194-.061-.435-.078A17.073 17.073 0 0012 12.75c-.476 0-.796 0-1.043.017-.241.017-.358.046-.435.078a1.25 1.25 0 00-.677.677c-.032.077-.061.194-.078.435-.017.247-.017.567-.017 1.043v7a.75.75 0 01-1.5 0v-7.025c0-.445 0-.816.02-1.12.022-.318.07-.617.19-.907a2.75 2.75 0 011.488-1.489c.29-.12.59-.167.907-.188.304-.021.675-.021 1.12-.021z" opacity=".4"/>
  <path fill-rule="evenodd" d="M13.133 2.307a4.25 4.25 0 00-2.266 0c-.384.106-.776.304-1.31.67-.542.372-1.186.886-2.086 1.607l-2 1.6c-1.135.908-1.589 1.279-1.912 1.725a4.25 4.25 0 00-.656 1.365c-.147.532-.153 1.117-.153 2.571V14c0 1.412 0 2.427.066 3.223.064.787.188 1.295.397 1.707a4.25 4.25 0 001.858 1.857c.411.21.919.333 1.706.397.796.065 1.81.066 3.223.066h4c1.412 0 2.427 0 3.223-.066.787-.064 1.295-.188 1.706-.397a4.25 4.25 0 001.858-1.857c.21-.412.333-.92.397-1.707.065-.796.066-1.81.066-3.223v-2.155c0-1.454-.006-2.04-.153-2.57a4.25 4.25 0 00-.656-1.366c-.323-.446-.777-.817-1.912-1.725l-2-1.6c-.9-.72-1.544-1.235-2.086-1.607-.534-.366-.926-.564-1.31-.67zM10.467.861a5.75 5.75 0 013.066 0c.606.168 1.154.464 1.759.88.592.406 1.279.955 2.151 1.653l.023.018 2 1.6.09.072c1.017.813 1.642 1.314 2.1 1.944a5.75 5.75 0 01.888 1.848c.206.75.206 1.552.206 2.854v2.304c0 1.371 0 2.447-.07 3.311-.072.88-.221 1.607-.557 2.265a5.75 5.75 0 01-2.513 2.513c-.658.336-1.385.485-2.265.556-.864.071-1.94.071-3.311.071H9.966c-1.371 0-2.447 0-3.311-.07-.88-.072-1.607-.221-2.265-.557a5.75 5.75 0 01-2.513-2.513c-.336-.658-.484-1.385-.556-2.265-.071-.864-.071-1.94-.071-3.311V11.845v-.115c0-1.302 0-2.103.206-2.854a5.75 5.75 0 01.888-1.848c.457-.63 1.083-1.13 2.1-1.944l.09-.072 2-1.6.023-.018c.872-.698 1.559-1.247 2.151-1.654.605-.415 1.153-.711 1.759-.879z"/>
</svg>
