<svg xmlns="http://www.w3.org/2000/svg" width="24" height="24" fill="currentColor" viewBox="0 0 24 24">
  <path fill-rule="evenodd" d="M11.711 6.237a.75.75 0 10-1.422-.474l-2 6A.75.75 0 009 12.75h2.96l-1.671 5.013a.75.75 0 001.422.474l2-6A.75.75 0 0013 11.25h-2.96l1.671-5.013zm8.568 2.067a.75.75 0 10-.558 1.392l.643.258a2.204 2.204 0 010 4.092l-.643.258a.75.75 0 10.558 1.392l.643-.257a3.704 3.704 0 000-6.878l-.643-.257z" opacity=".4"/>
  <path fill-rule="evenodd" d="M6.452 4.25H7a.75.75 0 110 1.5h-.5c-.482 0-.669 0-.819.016A3.25 3.25 0 002.766 8.68c-.015.15-.016.337-.016.819v5c0 .482 0 .669.016.819a3.25 3.25 0 002.915 2.915c.15.015.337.016.819.016H7a.75.75 0 010 1.5h-.548c-.418 0-.685 0-.918-.023a4.75 4.75 0 01-4.261-4.261c-.023-.233-.023-.5-.023-.918V9.5v-.048c0-.418 0-.685.023-.918a4.75 4.75 0 014.261-4.261c.233-.023.5-.023.918-.023zm9.867 1.516c-.15-.015-.337-.016-.819-.016H15a.75.75 0 010-1.5h.548c.418 0 .685 0 .918.023a4.75 4.75 0 014.261 4.261c.023.233.023.5.023.918V15A4.75 4.75 0 0116 19.75h-1a.75.75 0 010-1.5h1A3.25 3.25 0 0019.25 15V9.5c0-.482 0-.669-.016-.819a3.25 3.25 0 00-2.915-2.915z"/>
</svg>
