<svg xmlns="http://www.w3.org/2000/svg" width="24" height="24" fill="currentColor" viewBox="0 0 24 24">
  <path fill-rule="evenodd" d="M12 1.25h-.036c-.904 0-1.633 0-2.222.053-.606.055-1.136.172-1.617.45a3.75 3.75 0 00-1.373 1.372.75.75 0 101.3.75 2.25 2.25 0 01.823-.824c.215-.124.5-.208 1.003-.254.512-.046 1.174-.047 2.122-.047s1.61 0 2.122.047c.502.046.788.13 1.003.254.342.198.626.482.824.824.124.215.208.5.254 1.003.046.512.047 1.174.047 2.122v.27c-.64-.02-1.37-.02-2.208-.02H12a.75.75 0 000 1.5h2c1.42 0 2.429 0 3.21.08.77.079 1.235.227 1.596.468.354.237.66.542.896.896.241.361.39.827.468 1.596.08.781.08 1.79.08 3.21 0 .766 0 1.417-.013 1.982a.75.75 0 101.5.036c.013-.585.013-1.253.013-2.01v-.05c0-1.369 0-2.454-.088-3.32-.09-.888-.28-1.629-.712-2.277a4.751 4.751 0 00-1.311-1.31c-.552-.369-1.17-.56-1.889-.665v-.422c0-.904 0-1.633-.053-2.222-.055-.606-.172-1.136-.45-1.617a3.75 3.75 0 00-1.372-1.373c-.481-.277-1.011-.394-1.617-.449-.589-.053-1.318-.053-2.222-.053H12z" opacity=".4"/>
  <path fill-rule="evenodd" d="M3.47 3.47a.75.75 0 011.06 0l4.014 4.013 12.27 12.27 1.716 1.717a.75.75 0 11-1.06 1.06l-1.142-1.141a4.761 4.761 0 01-.689.56c-.648.434-1.39.623-2.277.713-.866.088-1.951.088-3.32.088H9.958c-1.369 0-2.454 0-3.32-.088-.888-.09-1.629-.28-2.277-.712a4.751 4.751 0 01-1.31-1.311c-.434-.648-.623-1.39-.713-2.277-.088-.866-.088-1.951-.088-3.32v-.084c0-1.369 0-2.454.088-3.32.09-.888.28-1.629.713-2.277a4.75 4.75 0 011.31-1.31c.561-.375 1.2-.57 1.954-.675L3.47 4.53a.75.75 0 010-1.06zm4.242 5.302c-1.343.048-2.019.193-2.518.526a3.25 3.25 0 00-.896.896c-.241.361-.39.827-.468 1.596-.08.781-.08 1.79-.08 3.21s0 2.429.08 3.21c.079.77.227 1.235.468 1.596.237.354.542.66.896.896.361.241.827.39 1.596.468.781.08 1.79.08 3.21.08h4c1.42 0 2.429 0 3.21-.08.77-.079 1.235-.227 1.596-.468.165-.11.32-.236.462-.374L7.712 8.772z"/>
</svg>
