<svg xmlns="http://www.w3.org/2000/svg" width="24" height="24" fill="currentColor" viewBox="0 0 24 24">
  <path fill-rule="evenodd" d="M12 6.75c-.643 0-1.276.046-1.894.134A.75.75 0 119.894 5.4c.688-.098 1.391-.149 2.106-.149 4.303 0 8.177 1.844 10.873 4.783a.75.75 0 11-1.106 1.014A13.213 13.213 0 0012 6.75zm1.265 3.3a.75.75 0 01.884-.585 10.724 10.724 0 015.218 2.707.75.75 0 01-1.028 1.092 9.224 9.224 0 00-4.488-2.329.75.75 0 01-.586-.884zM12 19a1 1 0 100-2 1 1 0 000 2z" opacity=".4"/>
  <path fill-rule="evenodd" d="M3.53 2.47a.75.75 0 00-1.06 1.06L5.63 6.692c-1.71.82-3.237 1.96-4.504 3.34a.75.75 0 101.105 1.015 13.284 13.284 0 014.532-3.222l1.94 1.94a10.743 10.743 0 00-4.072 2.407.75.75 0 001.029 1.092 9.228 9.228 0 014.262-2.28l2.269 2.269a6.726 6.726 0 00-4.57 1.61.75.75 0 00.973 1.14A5.226 5.226 0 0112 14.75c.766 0 1.492.164 2.147.457l6.323 6.323a.75.75 0 101.06-1.06l-6.404-6.405a.818.818 0 00-.025-.025l-4.395-4.394a.666.666 0 00-.016-.016L7.484 6.423A.735.735 0 007.46 6.4L3.53 2.47z"/>
</svg>
