<svg xmlns="http://www.w3.org/2000/svg" width="24" height="24" fill="currentColor" viewBox="0 0 24 24">
  <path fill-rule="evenodd" d="M12 4.25a.75.75 0 01.75.75v3a.75.75 0 01-1.5 0V5a.75.75 0 01.75-.75zM4.25 12a.75.75 0 01.75-.75h3a.75.75 0 010 1.5H5a.75.75 0 01-.75-.75zm11 0a.75.75 0 01.75-.75h3a.75.75 0 010 1.5h-3a.75.75 0 01-.75-.75zM12 15.25a.75.75 0 01.75.75v3a.75.75 0 01-1.5 0v-3a.75.75 0 01.75-.75z" opacity=".4"/>
  <path fill-rule="evenodd" d="M12 7.25a.75.75 0 01.75.75v3.25H16a.75.75 0 010 1.5h-3.25V16a.75.75 0 01-1.5 0v-3.25H8a.75.75 0 010-1.5h3.25V8a.75.75 0 01.75-.75z"/>
</svg>
