<svg xmlns="http://www.w3.org/2000/svg" width="24" height="24" fill="currentColor" viewBox="0 0 24 24">
  <path fill-rule="evenodd" d="M2.335 12.33a.75.75 0 10-.67 1.34l5.706 2.854.112.056c1.467.734 2.343 1.172 3.272 1.346a6.752 6.752 0 002.49 0c.93-.174 1.805-.612 3.272-1.346l.112-.056 5.706-2.853a.75.75 0 10-.67-1.342l-5.707 2.854c-1.613.806-2.292 1.138-2.99 1.269-.64.12-1.296.12-1.936 0-.698-.131-1.377-.463-2.99-1.27L2.335 12.33zm0 5a.75.75 0 10-.67 1.34l5.706 2.854.112.056c1.467.734 2.343 1.172 3.272 1.346a6.752 6.752 0 002.49 0c.93-.174 1.805-.612 3.272-1.346l.112-.056 5.706-2.853a.75.75 0 10-.67-1.342l-5.707 2.854c-1.613.806-2.292 1.138-2.99 1.269-.64.12-1.296.12-1.936 0-.698-.131-1.377-.463-2.99-1.27L2.335 17.33z" opacity=".4"/>
  <path fill-rule="evenodd" d="M11.124.804a4.75 4.75 0 011.752 0c.655.122 1.268.43 2.22.906l.101.05 3.414 1.707.035.017c.892.446 1.607.804 2.134 1.13.524.325.988.691 1.232 1.208a2.75 2.75 0 010 2.356c-.244.517-.708.883-1.232 1.207-.527.327-1.242.685-2.134 1.13l-.035.018-3.414 1.707-.1.05c-.953.477-1.566.784-2.221.906a4.75 4.75 0 01-1.752 0c-.655-.123-1.268-.43-2.22-.906l-.102-.05-3.413-1.707-.035-.018c-.892-.445-1.608-.803-2.134-1.13-.524-.324-.988-.69-1.233-1.207a2.75 2.75 0 010-2.356c.245-.517.709-.883 1.233-1.207.526-.327 1.242-.685 2.134-1.13l.035-.018L8.802 1.76l.102-.05c.952-.477 1.565-.784 2.22-.906zM12.6 2.278a3.25 3.25 0 00-1.198 0c-.423.08-.84.28-1.928.824L6.06 4.809c-.935.467-1.589.795-2.05 1.08-.472.293-.617.468-.667.575a1.25 1.25 0 000 1.072c.05.107.195.282.667.574.461.286 1.115.614 2.05 1.081l3.413 1.707c1.089.544 1.505.745 1.928.824a3.25 3.25 0 001.198 0c.423-.08.84-.28 1.928-.824l3.413-1.707c.935-.467 1.589-.795 2.05-1.08.472-.293.617-.468.667-.575a1.25 1.25 0 000-1.072c-.05-.107-.195-.282-.667-.574-.461-.286-1.115-.614-2.05-1.081l-3.413-1.707c-1.089-.544-1.505-.745-1.928-.824z"/>
</svg>
