<svg xmlns="http://www.w3.org/2000/svg" width="24" height="24" fill="currentColor" viewBox="0 0 24 24">
  <path fill-rule="evenodd" d="M5.8 4.25h-.02c-.122 0-.255 0-.37.01-.13.01-.3.036-.477.126a1.25 1.25 0 00-.547.547c-.09.176-.116.348-.127.478-.01.114-.009.247-.009.369v3.44c0 .122 0 .255.01.37.01.13.036.3.126.478.12.235.311.426.547.546.176.09.348.116.478.127.114.01.247.009.369.009h8.44c.122 0 .255 0 .37-.01.13-.01.3-.036.478-.126a1.25 1.25 0 00.546-.546c.09-.177.116-.349.127-.479.01-.114.009-.247.009-.369V5.78c0-.122 0-.255-.01-.37a1.259 1.259 0 00-.126-.477 1.25 1.25 0 00-.546-.547 1.259 1.259 0 00-.479-.127c-.114-.01-.247-.009-.369-.009H5.8zM5.75 5.8v-.05H14.25V9.25H5.75V5.8zM14 15a1 1 0 100-2 1 1 0 000 2zm-7-1a1 1 0 11-2 0 1 1 0 012 0zm0 4a1 1 0 11-2 0 1 1 0 012 0zm3-3a1 1 0 100-2 1 1 0 000 2zm1 3a1 1 0 11-2 0 1 1 0 012 0zm4 0a1 1 0 11-2 0 1 1 0 012 0z" opacity=".4"/>
  <path fill-rule="evenodd" d="M6.768 1.25h6.464c.813 0 1.469 0 2 .043.546.045 1.026.14 1.47.366a3.75 3.75 0 011.64 1.639c.226.444.32.924.365 1.47.033.414.04.902.043 1.482h.08c.535 0 .98 0 1.345.03.38.03.736.098 1.073.27a2.75 2.75 0 011.202 1.202c.172.337.24.693.27 1.073.027.324.03.71.03 1.167v3.838c0 .535 0 .98-.03 1.345-.03.38-.098.736-.27 1.073a2.751 2.751 0 01-1.201 1.202c-.338.172-.694.24-1.074.27-.365.03-.81.03-1.345.03h-.08c-.002.58-.01 1.068-.043 1.482-.045.546-.14 1.026-.366 1.47a3.75 3.75 0 01-1.639 1.64c-.444.226-.924.32-1.47.365-.531.043-1.187.043-2 .043H6.768c-.813 0-1.469 0-2-.043-.546-.045-1.026-.14-1.47-.366a3.75 3.75 0 01-1.64-1.639c-.226-.444-.32-.924-.365-1.47-.043-.531-.043-1.187-.043-2V6.768c0-.813 0-1.469.043-2 .045-.546.14-1.026.366-1.47a3.75 3.75 0 011.639-1.64c.444-.226.924-.32 1.47-.365.531-.043 1.187-.043 2-.043zm14.474 8a6.272 6.272 0 00-.017-.303c-.023-.287-.065-.424-.111-.514a1.25 1.25 0 00-.547-.547c-.09-.046-.227-.088-.515-.111-.295-.024-.68-.025-1.252-.025h-.05v1.5h2.492zm-2.492 1.5h2.5v3.05c0 .572 0 .957-.025 1.252-.023.288-.065.425-.111.516a1.25 1.25 0 01-.547.546c-.09.046-.227.088-.515.111-.295.024-.68.025-1.252.025h-.05v-5.5zm-1.5-.75V6.8c0-.852 0-1.447-.038-1.91-.038-.453-.107-.714-.207-.911a2.25 2.25 0 00-.983-.984c-.198-.1-.459-.17-.913-.207-.462-.037-1.056-.038-1.909-.038H6.8c-.852 0-1.447 0-1.91.038-.453.037-.714.107-.911.207a2.25 2.25 0 00-.984.984c-.1.197-.17.458-.207.912-.037.462-.038 1.057-.038 1.909v10.4c0 .852 0 1.447.038 1.91.037.453.107.714.207.912.216.423.56.767.984.983.197.1.458.17.912.207.462.037 1.057.038 1.909.038h6.4c.853 0 1.447 0 1.91-.038.453-.038.714-.107.912-.207.423-.216.767-.56.983-.983.1-.198.17-.459.207-.913.037-.462.038-1.057.038-1.909V10z"/>
</svg>
