<svg xmlns="http://www.w3.org/2000/svg" width="24" height="24" fill="currentColor" viewBox="0 0 24 24">
  <path fill-rule="evenodd" d="M19.47 2.47a.75.75 0 011.06 0l.738.737.021.021c.378.378.693.693.93.972.246.29.451.59.568.95a2.75 2.75 0 010 1.7c-.117.36-.322.66-.568.95-.237.279-.552.594-.93.972l-.021.021-4.738 4.737a.75.75 0 11-1.06-1.06l4.737-4.738c.405-.404.676-.676.868-.903.187-.22.254-.346.285-.443a1.25 1.25 0 000-.772c-.031-.097-.098-.224-.285-.443-.192-.227-.463-.499-.868-.903L20 4.06l-6.47 6.47a.75.75 0 11-1.06-1.061l7-7zm-7.94 9a.75.75 0 010 1.06l-3 3-6 6a.75.75 0 01-1.06-1.06l6-6 3-3a.75.75 0 011.06 0z" opacity=".4"/>
  <path fill-rule="evenodd" d="M5.47 2.47a.75.75 0 011.06 0L9.4 5.338l.062.062c.354.354.633.633.822.971.165.298.274.625.32.962.053.384-.003.774-.074 1.27l-.013.087-.22 1.545L20.53 20.47a.75.75 0 11-1.06 1.06L9.235 11.295l-1.545.221-.087.013c-.496.07-.886.127-1.27.074a2.752 2.752 0 01-.962-.32c-.338-.189-.617-.468-.97-.822l-.063-.062L1.47 7.53a.75.75 0 011.06-1.06L5.4 9.338c.446.446.57.56.7.633.136.076.285.125.438.146.15.02.317.003.94-.086l.432-.061-4.94-4.94A.75.75 0 014.03 3.97l4.94 4.939.061-.431c.09-.624.107-.792.086-.94a1.25 1.25 0 00-.146-.438c-.073-.131-.187-.255-.633-.701L5.47 3.53a.75.75 0 010-1.06z"/>
</svg>
