<svg xmlns="http://www.w3.org/2000/svg" width="24" height="24" fill="currentColor" viewBox="0 0 24 24">
  <path fill-rule="evenodd" d="M7 2.25a.75.75 0 01.75.75v7a.75.75 0 01-1.5 0V3A.75.75 0 017 2.25zm0 11a.75.75 0 01.75.75v6.19l2.72-2.72a.75.75 0 111.06 1.06l-4 4a.75.75 0 01-1.06 0l-4-4a.75.75 0 111.06-1.06l2.72 2.72V14a.75.75 0 01.75-.75z" opacity=".4"/>
  <path fill-rule="evenodd" d="M19.287 1.307A.75.75 0 0119.75 2v7.25H21a.75.75 0 010 1.5h-4a.75.75 0 010-1.5h1.25V3.81l-1.22 1.22a.75.75 0 11-1.06-1.06l2.5-2.5a.75.75 0 01.817-.163zm.959 17.145c-.003.245-.01.454-.023.638-.026.38-.074.602-.144.771a2.25 2.25 0 01-1.218 1.218c-.169.07-.39.118-.77.144-.388.027-.882.027-1.591.027H16a.75.75 0 000 1.5h.527c.676 0 1.221 0 1.665-.03.457-.031.86-.097 1.243-.255a3.75 3.75 0 002.03-2.03c.158-.382.224-.786.255-1.242.03-.445.03-.99.03-1.666V16A2.75 2.75 0 0019 13.25h-1a2.75 2.75 0 100 5.5h1a2.74 2.74 0 001.246-.298zM20.25 16c0 .69-.56 1.25-1.25 1.25h-1a1.25 1.25 0 110-2.5h1c.69 0 1.25.56 1.25 1.25z"/>
</svg>
