<svg xmlns="http://www.w3.org/2000/svg" width="24" height="24" fill="currentColor" viewBox="0 0 24 24">
  <path fill-rule="evenodd" d="M13.232 1.25H6.768c-.813 0-1.469 0-2 .043-.546.045-1.026.14-1.47.366a3.75 3.75 0 00-1.64 1.639c-.226.444-.32.924-.365 1.47-.043.531-.043 1.187-.043 2V13.822c0 .147 0 .266.007.356.134 1.688 2.015 2.63 3.447 1.723.076-.048.171-.12.289-.208a50.517 50.517 0 01.202-.15 4.25 4.25 0 012.374-.792l.217-.001H9a.75.75 0 000-1.5H7.776c-.108 0-.175 0-.241.002a5.75 5.75 0 00-3.212 1.07c-.054.038-.107.079-.194.144l-.008.005a20.632 20.632 0 01-.206.153l-.01.008-.003.001a.75.75 0 01-1.15-.574v-.017l-.001-.052-.001-.204V6.8c0-.852 0-1.447.038-1.91.037-.453.107-.714.207-.911a2.25 2.25 0 01.984-.984c.197-.1.458-.17.912-.207.462-.037 1.057-.038 1.909-.038h6.4c.853 0 1.447 0 1.91.038.453.037.714.107.912.207.423.216.767.56.983.984.1.197.17.458.207.912.037.462.038 1.057.038 1.909v.7a.75.75 0 001.5 0v-.732c0-.813 0-1.469-.043-2-.045-.546-.14-1.026-.366-1.47a3.75 3.75 0 00-1.639-1.64c-.444-.226-.924-.32-1.47-.365-.531-.043-1.187-.043-2-.043z" opacity=".4"/>
  <path fill-rule="evenodd" d="M12.17 9.25h6.66c.535 0 .98 0 1.345.03.38.03.736.098 1.073.27a2.75 2.75 0 011.202 1.201c.172.338.24.694.27 1.074.03.365.03.81.03 1.345v7.194c0 1.652-1.98 2.5-3.176 1.36a3.017 3.017 0 00-2.08-.831H12.17c-.535 0-.98 0-1.345-.03-.38-.03-.736-.098-1.073-.27a2.75 2.75 0 01-1.202-1.202c-.172-.337-.24-.694-.27-1.073-.03-.365-.03-.81-.03-1.345V13.17c0-.535 0-.98.03-1.345.03-.38.098-.736.27-1.073A2.75 2.75 0 019.752 9.55c.337-.172.693-.24 1.073-.27.365-.03.81-.03 1.345-.03zm-1.223 1.525c-.287.023-.424.065-.514.111a1.25 1.25 0 00-.547.546c-.046.091-.088.228-.111.515-.024.296-.025.68-.025 1.253v3.743c0 .572 0 .956.025 1.252.023.288.065.425.111.515.12.235.311.427.546.547.091.046.228.088.515.111.296.024.68.025 1.253.025h5.294c1.16 0 2.274.446 3.114 1.246a.38.38 0 00.642-.275V13.2c0-.572 0-.957-.025-1.252-.023-.288-.065-.425-.111-.516a1.25 1.25 0 00-.547-.546c-.09-.046-.227-.088-.515-.111-.295-.024-.68-.025-1.252-.025h-6.6c-.572 0-.957 0-1.252.025z"/>
</svg>
