<svg xmlns="http://www.w3.org/2000/svg" width="24" height="24" fill="currentColor" viewBox="0 0 24 24">
  <path fill-rule="evenodd" d="M14.47 11.47a.75.75 0 011.06 0l3 3a.75.75 0 11-1.06 1.06l-3-3a.75.75 0 010-1.06z" opacity=".4"/>
  <path fill-rule="evenodd" d="M12.386 10.64a1.251 1.251 0 00-.772 0c-.097.031-.224.098-.443.285-.227.192-.499.463-.903.868L6.53 15.53a.75.75 0 11-1.06-1.06l3.737-3.738.021-.021c.378-.378.693-.693.972-.93.29-.246.59-.451.95-.568a2.75 2.75 0 011.7 0c.36.117.66.322.95.568.279.237.594.552.971.93l.022.021.737.738a.75.75 0 01-1.06 1.06l-.738-.737c-.404-.405-.676-.676-.903-.868-.22-.187-.346-.254-.443-.286z"/>
</svg>
