<svg xmlns="http://www.w3.org/2000/svg" width="24" height="24" fill="currentColor" viewBox="0 0 24 24">
  <path fill-rule="evenodd" d="M18.694 3.775c-.071-.019-.18-.025-.694-.025h-5.25V7a.75.75 0 01-1.5 0V3.75H8.5a.75.75 0 110-1.5h9.584c.38 0 .71 0 .998.077a2.25 2.25 0 011.591 1.59c.078.29.078.618.077.999V6a.75.75 0 01-1.5 0V5c0-.513-.006-.623-.026-.694a.75.75 0 00-.53-.53z" opacity=".4"/>
  <path fill-rule="evenodd" d="M4.53 3.47a.75.75 0 00-1.06 1.06l7.78 7.78v7.94H8a.75.75 0 000 1.5h8a.75.75 0 000-1.5h-3.25v-6.44l6.72 6.72a.75.75 0 101.06-1.06l-16-16z"/>
</svg>
