<svg xmlns="http://www.w3.org/2000/svg" width="24" height="24" fill="currentColor" viewBox="0 0 24 24">
  <path fill-rule="evenodd" d="M12 11.25a.75.75 0 01.75.75v6.19l1.72-1.72a.75.75 0 111.06 1.06l-3 3a.75.75 0 01-1.06 0l-3-3a.75.75 0 111.06-1.06l1.72 1.72V12a.75.75 0 01.75-.75z" opacity=".4"/>
  <path fill-rule="evenodd" d="M7.776 4.913A14.176 14.176 0 0112 4.25c1.36 0 2.786.214 4.223.663 1.932.604 3.885 1.632 5.738 3.139l.015.012c.146.12.264.215.406.372.376.416.59.954.66 1.48.071.526.008 1.101-.245 1.602-.095.19-.208.348-.35.546l-.022.03-.033.046a5.053 5.053 0 01-.46.589 2.75 2.75 0 01-3.051.606c-.196-.084-.394-.208-.65-.368l-.048-.03-.738-.461-.073-.046c-.421-.263-.752-.47-1.01-.754a2.75 2.75 0 01-.528-.856c-.139-.359-.174-.747-.22-1.242l-.008-.086-.306-3.287A12.531 12.531 0 0012 5.75c-1.057 0-2.168.146-3.3.455l-.307 3.287-.008.086c-.046.495-.081.883-.22 1.242a2.75 2.75 0 01-.528.856c-.257.284-.589.49-1.01.754l-.073.046-.738.46-.048.03a5.05 5.05 0 01-.65.369 2.75 2.75 0 01-3.051-.606c-.149-.152-.285-.342-.46-.589l-.033-.045-.022-.031c-.142-.199-.255-.357-.35-.546-.253-.5-.316-1.076-.245-1.602.07-.526.284-1.064.66-1.48.142-.157.26-.253.407-.372l.014-.012c1.854-1.507 3.807-2.535 5.738-3.139zm-.632 1.818c-1.394.562-2.8 1.38-4.16 2.485-.16.13-.195.16-.254.226a1.275 1.275 0 00-.287.674c-.037.282.005.542.098.727.038.075.08.138.254.38.223.313.288.4.345.458.36.37.912.479 1.387.275.075-.032.167-.087.494-.291l.738-.461c.529-.331.667-.425.767-.536.103-.114.185-.245.24-.389.054-.139.076-.304.134-.926l.244-2.622zm9.711 0l.244 2.622c.058.622.08.787.134.926.055.143.137.275.24.39.1.11.238.204.767.535l.739.46c.326.205.418.26.493.292a1.25 1.25 0 001.387-.275c.057-.059.122-.145.345-.458.173-.242.216-.305.254-.38.093-.184.136-.445.098-.727a1.276 1.276 0 00-.287-.674 1.945 1.945 0 00-.255-.226C19.655 8.11 18.25 7.293 16.855 6.73z"/>
</svg>
