<svg xmlns="http://www.w3.org/2000/svg" width="24" height="24" fill="currentColor" viewBox="0 0 24 24">
  <path fill-rule="evenodd" d="M8.9 8.25h-.029c-.395 0-.736 0-1.017.023-.297.024-.592.078-.875.222a2.25 2.25 0 00-.984.984c-.144.283-.198.578-.222.875-.023.28-.023.622-.023 1.017V12.63c0 .395 0 .736.023 1.017.024.297.078.592.222.875.216.424.56.768.984.984.283.144.578.198.875.222.28.023.622.023 1.017.023H9a2.25 2.25 0 002.25-2.25.75.75 0 00-1.5 0 .75.75 0 01-.75.75h-.1c-.432 0-.712 0-.924-.018-.204-.017-.28-.045-.316-.064a.75.75 0 01-.328-.327c-.02-.038-.047-.113-.064-.317a12.747 12.747 0 01-.018-.924v-1.2c0-.432 0-.712.018-.924.017-.204.045-.28.064-.317a.75.75 0 01.328-.327c.037-.02.112-.047.316-.064.212-.017.492-.018.924-.018H9a.75.75 0 01.75.75.75.75 0 001.5 0A2.25 2.25 0 009 8.25h-.1zm7 0h-.029c-.395 0-.736 0-1.017.023-.297.024-.592.078-.875.222a2.25 2.25 0 00-.984.984c-.144.283-.198.578-.222.875-.023.28-.023.622-.023 1.017V12.63c0 .395 0 .736.023 1.017.024.297.078.592.222.875.216.424.56.768.984.984.283.144.578.198.875.222.28.023.622.023 1.017.023H16a2.25 2.25 0 002.25-2.25.75.75 0 00-1.5 0 .75.75 0 01-.75.75h-.1c-.432 0-.712 0-.924-.018-.204-.017-.28-.045-.317-.064a.75.75 0 01-.327-.327c-.02-.038-.047-.113-.064-.317a12.796 12.796 0 01-.018-.924v-1.2c0-.432 0-.712.018-.924.017-.204.045-.28.064-.317a.75.75 0 01.327-.327c.038-.02.113-.047.317-.064.212-.017.492-.018.924-.018h.1a.75.75 0 01.75.75.75.75 0 001.5 0A2.25 2.25 0 0016 8.25h-.1z" opacity=".4"/>
  <path fill-rule="evenodd" d="M9.966 1.25h4.068c1.371 0 2.447 0 3.311.07.88.073 1.607.221 2.265.557a5.75 5.75 0 012.513 2.513c.336.658.485 1.385.556 2.265.071.864.071 1.94.071 3.311v4.068c0 1.371 0 2.447-.07 3.311-.072.88-.221 1.607-.557 2.265a5.75 5.75 0 01-2.513 2.513c-.658.336-1.385.485-2.265.556-.864.071-1.94.071-3.311.071H9.966c-1.371 0-2.447 0-3.311-.07-.88-.072-1.607-.221-2.265-.557a5.75 5.75 0 01-2.513-2.513c-.336-.658-.484-1.385-.556-2.265-.071-.864-.071-1.94-.071-3.311V9.966c0-1.371 0-2.447.07-3.311.073-.88.221-1.607.557-2.265A5.75 5.75 0 014.39 1.877c.658-.336 1.385-.484 2.265-.556.864-.071 1.94-.071 3.311-.071zM6.777 2.816c-.787.064-1.295.188-1.706.397a4.25 4.25 0 00-1.858 1.858c-.21.411-.333.919-.397 1.706-.065.796-.066 1.81-.066 3.223v4c0 1.412 0 2.427.066 3.223.064.787.188 1.295.397 1.707a4.25 4.25 0 001.858 1.857c.411.21.919.333 1.706.397.796.065 1.81.066 3.223.066h4c1.412 0 2.427 0 3.223-.066.787-.064 1.295-.188 1.707-.397a4.251 4.251 0 001.857-1.857c.21-.412.333-.92.397-1.707.065-.796.066-1.81.066-3.223v-4c0-1.413 0-2.427-.066-3.223-.064-.787-.188-1.295-.397-1.706a4.25 4.25 0 00-1.857-1.858c-.412-.21-.92-.333-1.707-.397-.796-.065-1.81-.066-3.223-.066h-4c-1.413 0-2.427 0-3.223.066z"/>
</svg>
