<svg xmlns="http://www.w3.org/2000/svg" width="24" height="24" fill="currentColor" viewBox="0 0 24 24">
  <path fill-rule="evenodd" d="M2.25 3A.75.75 0 013 2.25h6a.75.75 0 010 1.5H3A.75.75 0 012.25 3z" opacity=".4"/>
  <path fill-rule="evenodd" d="M12.166 3.802c-.63-.051-1.434-.052-2.566-.052H9a.75.75 0 010-1.5h.633c1.092 0 1.958 0 2.655.057.714.058 1.317.18 1.868.46a4.75 4.75 0 012.076 2.077c.281.55.403 1.154.461 1.868.057.697.057 1.563.057 2.655V19.19l3.72-3.72a.75.75 0 111.06 1.06l-5 5a.75.75 0 01-1.06 0l-5-5a.75.75 0 111.06-1.06l3.72 3.72V9.4c0-1.132 0-1.937-.052-2.566-.05-.62-.147-1.005-.302-1.31a3.25 3.25 0 00-1.42-1.42c-.305-.155-.69-.251-1.31-.302z"/>
</svg>
