<svg xmlns="http://www.w3.org/2000/svg" width="24" height="24" fill="currentColor" viewBox="0 0 24 24">
  <path fill-rule="evenodd" d="M9 7.25h-.025c-.445 0-.816 0-1.12.02a2.823 2.823 0 00-.907.19 2.75 2.75 0 00-1.489 1.488c-.12.29-.167.59-.188.907-.021.304-.021.675-.021 1.12V12c0 .414.336.75.75.75h12a.75.75 0 00.75-.75v-1.025c0-.445 0-.816-.02-1.12a2.822 2.822 0 00-.19-.907 2.75 2.75 0 00-1.488-1.489c-.29-.12-.59-.167-.907-.188-.304-.021-.675-.021-1.12-.021h-.05c-.445 0-.816 0-1.12.02a2.823 2.823 0 00-.907.19 2.75 2.75 0 00-.948.653 2.75 2.75 0 00-.948-.654c-.29-.12-.59-.167-.907-.188-.304-.021-.675-.021-1.12-.021H9zm2.25 4V11c0-.476 0-.796-.017-1.043-.017-.241-.046-.358-.078-.435a1.25 1.25 0 00-.677-.677c-.077-.032-.194-.061-.435-.078A17.091 17.091 0 009 8.75c-.476 0-.796 0-1.043.017-.241.017-.358.046-.435.078a1.25 1.25 0 00-.677.677c-.032.077-.061.194-.078.435-.017.247-.017.567-.017 1.043v.25h4.5zm1.5 0h4.5V11c0-.476 0-.796-.017-1.043-.017-.241-.046-.358-.078-.435a1.25 1.25 0 00-.677-.677c-.077-.032-.194-.061-.435-.078A17.091 17.091 0 0015 8.75c-.476 0-.796 0-1.043.017-.241.017-.358.046-.435.078a1.25 1.25 0 00-.677.677c-.032.077-.061.194-.078.435A17.07 17.07 0 0012.75 11v.25z" opacity=".4"/>
  <path fill-rule="evenodd" d="M8.4 2.25h-.033c-1.092 0-1.958 0-2.655.057-.714.058-1.317.18-1.868.46a4.75 4.75 0 00-2.076 2.077c-.281.55-.403 1.154-.461 1.868-.057.697-.057 1.563-.057 2.655V17.937c0 .485 0 .89.025 1.222.025.345.08.67.223.983a2.75 2.75 0 001.36 1.36c.313.142.638.198.983.223.332.025.737.025 1.222.025h.126c.555 0 .99 0 1.392-.124a2.75 2.75 0 001.166-.72c.291-.304.486-.694.734-1.19l.044-.089.261-.523c.346-.69.447-.871.575-.997a1.25 1.25 0 01.467-.289c.17-.058.377-.068 1.15-.068h2.044c.773 0 .98.01 1.15.068.175.06.334.16.467.289.128.126.23.307.575.997l.261.523.044.088c.248.497.442.887.734 1.19a2.75 2.75 0 001.166.72c.401.126.837.125 1.392.125h.126c.485 0 .89 0 1.222-.025.345-.025.67-.08.983-.223a2.75 2.75 0 001.36-1.36c.142-.313.198-.638.223-.983.025-.332.025-.737.025-1.222v-8.57c0-1.092 0-1.958-.057-2.655-.058-.714-.18-1.317-.46-1.868a4.75 4.75 0 00-2.076-2.076c-.552-.281-1.155-.403-1.869-.461-.697-.057-1.563-.057-2.655-.057H8.4zm12.85 9V9.4c0-1.132 0-1.937-.052-2.566-.05-.62-.147-1.005-.302-1.31a3.25 3.25 0 00-1.42-1.42c-.305-.155-.69-.251-1.31-.302-.63-.051-1.433-.052-2.566-.052H8.4c-1.132 0-1.937 0-2.566.052-.62.05-1.005.147-1.31.302a3.25 3.25 0 00-1.42 1.42c-.155.305-.251.69-.302 1.31-.051.63-.052 1.434-.052 2.566v1.85h18.5zm-18.5 1.5h18.5v5.16c0 .52 0 .868-.02 1.137-.02.262-.055.389-.093.472a1.25 1.25 0 01-.618.618c-.083.038-.21.073-.472.093-.269.02-.618.02-1.137.02-.701 0-.89-.008-1.045-.056a1.249 1.249 0 01-.53-.328c-.113-.117-.205-.283-.518-.91l-.262-.523-.048-.096c-.273-.547-.487-.977-.819-1.302a2.75 2.75 0 00-1.027-.635c-.439-.151-.919-.15-1.53-.15h-2.262c-.611 0-1.091-.001-1.53.15-.385.133-.736.35-1.027.635-.332.325-.546.755-.819 1.302l-.048.096-.262.523c-.313.627-.405.793-.518.91a1.25 1.25 0 01-.53.328c-.155.048-.344.056-1.045.056-.52 0-.868 0-1.137-.02-.262-.02-.389-.055-.472-.093a1.25 1.25 0 01-.618-.618c-.038-.083-.073-.21-.092-.472-.02-.269-.021-.618-.021-1.137v-5.16z"/>
</svg>
