<svg xmlns="http://www.w3.org/2000/svg" width="24" height="24" fill="currentColor" viewBox="0 0 24 24">
  <path fill-rule="evenodd" d="M9.2 6.25h-.03c-.535 0-.98 0-1.345.03-.38.03-.736.098-1.074.27A2.75 2.75 0 005.55 7.752c-.172.337-.24.693-.27 1.073-.03.365-.03.81-.03 1.345V13.83c0 .535 0 .98.03 1.345.03.38.098.736.27 1.073A2.75 2.75 0 006.75 17.45c.338.172.694.24 1.074.27.364.03.81.03 1.344.03h5.661c.534 0 .98 0 1.344-.03.38-.03.737-.098 1.074-.27a2.75 2.75 0 001.202-1.201c.172-.338.24-.694.27-1.074.03-.365.03-.81.03-1.345V10.17c0-.535 0-.98-.03-1.345-.03-.38-.098-.736-.27-1.073a2.75 2.75 0 00-1.202-1.202c-.337-.172-.694-.24-1.074-.27-.364-.03-.81-.03-1.344-.03H9.2zm8.05 4v-.05c0-.572 0-.957-.025-1.253-.023-.287-.065-.424-.111-.514a1.25 1.25 0 00-.547-.547c-.09-.046-.227-.088-.515-.111-.295-.024-.68-.025-1.252-.025H9.2c-.573 0-.957 0-1.253.025-.287.023-.424.065-.515.111a1.25 1.25 0 00-.546.547c-.046.09-.088.227-.111.514-.025.296-.025.68-.025 1.253v.05h10.5zm-10.5 1.5h10.5v2.05c0 .572 0 .957-.025 1.252-.023.288-.065.425-.111.516a1.25 1.25 0 01-.547.546c-.09.046-.227.088-.515.111-.295.024-.68.025-1.252.025H9.2c-.573 0-.957 0-1.253-.025-.287-.023-.424-.065-.515-.111a1.25 1.25 0 01-.546-.546c-.046-.091-.088-.228-.111-.515-.025-.296-.025-.68-.025-1.253v-2.05z" opacity=".4"/>
  <path fill-rule="evenodd" d="M6.768 1.25H7a.75.75 0 010 1.5h-.2c-.853 0-1.447 0-1.91.038-.453.037-.714.107-.912.207a2.25 2.25 0 00-.983.984c-.1.197-.17.458-.207.912-.038.462-.038 1.057-.038 1.909V7a.75.75 0 01-1.5 0v-.232c0-.813 0-1.469.043-2 .045-.546.14-1.026.366-1.47a3.75 3.75 0 011.638-1.64c.445-.226.925-.32 1.471-.365.531-.043 1.187-.043 2-.043zm12.341 1.538c-.462-.037-1.057-.038-1.91-.038H17a.75.75 0 010-1.5h.233c.813 0 1.468 0 2 .043.546.045 1.026.14 1.47.366a3.75 3.75 0 011.64 1.639c.226.444.32.924.364 1.47.044.531.044 1.187.044 2V7a.75.75 0 01-1.5 0v-.2c0-.852 0-1.447-.038-1.91-.038-.453-.107-.714-.207-.911a2.25 2.25 0 00-.984-.984c-.197-.1-.458-.17-.912-.207zM2 16.25a.75.75 0 01.75.75v.2c0 .852.001 1.447.04 1.91.036.453.105.714.206.912.216.423.56.767.983.983.198.1.459.17.913.207.462.037 1.056.038 1.909.038H7a.75.75 0 010 1.5h-.232c-.813 0-1.469 0-2-.043-.546-.045-1.026-.14-1.47-.366a3.75 3.75 0 01-1.64-1.639c-.226-.444-.32-.924-.365-1.47-.043-.531-.043-1.187-.043-2V17a.75.75 0 01.75-.75zm20 0a.75.75 0 01.75.75v.232c0 .813 0 1.469-.043 2-.044.546-.139 1.026-.365 1.47a3.751 3.751 0 01-1.639 1.64c-.444.226-.924.32-1.47.365-.532.043-1.187.043-2 .043H17a.75.75 0 010-1.5h.2c.852 0 1.447 0 1.91-.038.453-.038.714-.107.911-.207a2.25 2.25 0 00.984-.983c.1-.198.17-.459.207-.913.037-.462.038-1.057.038-1.909V17a.75.75 0 01.75-.75z"/>
</svg>
