<svg xmlns="http://www.w3.org/2000/svg" width="24" height="24" fill="currentColor" viewBox="0 0 24 24">
  <path fill-rule="evenodd" d="M12 8.75c-1.15 0-2.162.598-2.74 1.5H12a.75.75 0 010 1.5H8.76a3.294 3.294 0 000 .5H11a.75.75 0 010 1.5H9.26a3.247 3.247 0 005.178.4.75.75 0 011.124.992 4.752 4.752 0 01-7.98-1.392H7a.75.75 0 010-1.5h.256a4.83 4.83 0 010-.5H7a.75.75 0 010-1.5h.583a4.752 4.752 0 017.98-1.392.75.75 0 01-1.125.992A3.24 3.24 0 0012 8.75z" opacity=".4"/>
  <path fill-rule="evenodd" d="M12 2.75a9.25 9.25 0 100 18.5 9.25 9.25 0 000-18.5zM1.25 12C1.25 6.063 6.063 1.25 12 1.25S22.75 6.063 22.75 12 17.937 22.75 12 22.75 1.25 17.937 1.25 12z"/>
</svg>
