<svg xmlns="http://www.w3.org/2000/svg" width="24" height="24" fill="currentColor" viewBox="0 0 24 24">
  <path fill-rule="evenodd" d="M19.47 1.53A.75.75 0 1120.53.47l3 3a.75.75 0 01-1.06 1.06l-3-3zM8.663 3.713a9.49 9.49 0 014.183-.963c5.205 0 9.404 4.152 9.404 9.25 0 1.476-.35 2.87-.975 4.107a.75.75 0 101.34.675A10.585 10.585 0 0023.75 12c0-5.948-4.893-10.75-10.904-10.75a10.99 10.99 0 00-4.842 1.116.75.75 0 00.66 1.347z" opacity=".4"/>
  <path fill-rule="evenodd" d="M2.166 1.466a.75.75 0 011.053 0l2.974 2.929 14.36 14.142 2.973 2.929a.75.75 0 01-1.052 1.068l-2.466-2.428a10.955 10.955 0 01-7.162 2.644C6.835 22.75 1.942 17.948 1.942 12c0-2.7 1.01-5.166 2.674-7.052L2.692 3.053 1.526 4.2A.75.75 0 01.474 3.132l1.692-1.666zm3.521 4.536A9.122 9.122 0 003.442 12c0 5.098 4.2 9.25 9.404 9.25a9.456 9.456 0 006.09-2.2L5.686 6.001z"/>
</svg>
