<svg xmlns="http://www.w3.org/2000/svg" width="24" height="24" fill="currentColor" viewBox="0 0 24 24">
  <path fill-rule="evenodd" d="M13 8a1 1 0 11-2 0 1 1 0 012 0zm0 4a1 1 0 11-2 0 1 1 0 012 0zm-1 5a1 1 0 100-2 1 1 0 000 2z" opacity=".4"/>
  <path fill-rule="evenodd" d="M7.17 1.25H9a.75.75 0 010 1.5H7.2c-.572 0-.957 0-1.253.025-.287.023-.424.065-.515.111a1.25 1.25 0 00-.546.546c-.046.091-.088.228-.111.515-.024.296-.025.68-.025 1.253v1.243c0 .888 0 1.461-.131 2.009a4.75 4.75 0 01-.569 1.373c-.294.48-.7.885-1.328 1.514l-.066.066L2.06 12l.595.595.066.066c.628.629 1.034 1.034 1.328 1.514.26.425.452.888.569 1.373.131.548.131 1.12.13 2.01V18.8c0 .572.002.957.026 1.252.023.288.065.425.111.515.12.236.311.427.546.547.091.046.228.088.515.111.296.024.68.025 1.253.025H9a.75.75 0 010 1.5H7.17c-.535 0-.98 0-1.345-.03-.38-.03-.736-.098-1.074-.27A2.75 2.75 0 013.55 21.25c-.172-.338-.24-.694-.27-1.074-.03-.365-.03-.81-.03-1.345v-1.179c0-1.014-.005-1.399-.09-1.753a3.249 3.249 0 00-.389-.94c-.19-.31-.459-.585-1.176-1.302L.47 12.53a.75.75 0 010-1.06l1.125-1.126c.717-.717.986-.992 1.176-1.303.178-.29.31-.608.39-.94.084-.353.089-.738.089-1.752V5.17c0-.535 0-.98.03-1.345.03-.38.098-.736.27-1.073A2.75 2.75 0 014.75 1.55c.338-.172.694-.24 1.074-.27.365-.03.81-.03 1.345-.03zm10.883 1.525c-.296-.024-.68-.025-1.253-.025H15a.75.75 0 110-1.5h1.83c.535 0 .98 0 1.345.03.38.03.736.098 1.074.27a2.75 2.75 0 011.201 1.202c.172.337.24.693.27 1.073.03.365.03.81.03 1.345v1.179c0 1.014.005 1.399.09 1.753.08.331.21.648.389.94.19.31.459.585 1.176 1.302l1.125 1.126a.75.75 0 010 1.06l-1.125 1.126c-.717.717-.986.992-1.176 1.303a3.25 3.25 0 00-.39.94c-.084.353-.089.738-.089 1.752v1.179c0 .535 0 .98-.03 1.345-.03.38-.098.736-.27 1.073a2.75 2.75 0 01-1.201 1.202c-.338.172-.694.24-1.074.27-.364.03-.81.03-1.345.03H15a.75.75 0 010-1.5h1.8c.572 0 .957 0 1.253-.025.287-.023.424-.065.515-.111a1.25 1.25 0 00.546-.547c.046-.09.088-.227.111-.515.024-.295.025-.68.025-1.252v-1.149-.093c0-.89 0-1.462.131-2.01a4.75 4.75 0 01.57-1.373c.293-.48.698-.885 1.327-1.514l.066-.066.595-.595-.595-.595a40.914 40.914 0 01-.066-.066c-.628-.629-1.034-1.034-1.328-1.514a4.75 4.75 0 01-.569-1.373c-.131-.548-.131-1.12-.13-2.01V5.2c0-.572-.002-.957-.026-1.253-.023-.287-.065-.424-.111-.514a1.25 1.25 0 00-.546-.547c-.091-.046-.228-.088-.515-.111z"/>
</svg>
