<svg xmlns="http://www.w3.org/2000/svg" width="24" height="24" fill="currentColor" viewBox="0 0 24 24">
  <path fill-rule="evenodd" d="M16 6.25a.75.75 0 01.75.75v4a.75.75 0 01-1.5 0V7a.75.75 0 01.75-.75z" opacity=".4"/>
  <path fill-rule="evenodd" d="M12 1.25h-.034c-1.371 0-2.447 0-3.311.07-.88.073-1.607.221-2.265.557A5.75 5.75 0 003.877 4.39c-.336.658-.484 1.385-.556 2.265-.016.188-.028.386-.037.595H2a.75.75 0 000 1.5h1.252c-.002.378-.002.782-.002 1.216v1.284H2a.75.75 0 000 1.5h1.25v1.284c0 .434 0 .838.002 1.216H2a.75.75 0 000 1.5h1.284c.01.209.021.407.037.595.072.88.22 1.607.556 2.265a5.75 5.75 0 002.513 2.513c.658.336 1.385.485 2.265.556.864.071 1.94.071 3.311.071h.068c1.371 0 2.447 0 3.311-.07.88-.072 1.607-.221 2.265-.557a5.75 5.75 0 002.513-2.513c.336-.658.485-1.385.556-2.265.071-.864.071-1.94.071-3.311V9.966c0-1.371 0-2.447-.07-3.311-.072-.88-.221-1.607-.557-2.265a5.75 5.75 0 00-2.513-2.513c-.658-.336-1.385-.484-2.265-.556-.864-.071-1.94-.071-3.311-.071H12zm-7.248 7.5c-.002.38-.002.794-.002 1.25v1.25H6a.75.75 0 010 1.5H4.75V14c0 .456 0 .87.002 1.25H6a.75.75 0 010 1.5H4.785c.008.166.018.323.03.473.065.787.189 1.295.398 1.707a4.25 4.25 0 001.858 1.857c.411.21.919.333 1.706.397.796.065 1.81.066 3.223.066 1.412 0 2.427 0 3.223-.066.787-.064 1.295-.188 1.707-.397a4.251 4.251 0 001.857-1.857c.21-.412.333-.92.397-1.707.065-.796.066-1.81.066-3.223v-4c0-1.413 0-2.427-.066-3.223-.064-.787-.188-1.295-.397-1.706a4.25 4.25 0 00-1.857-1.858c-.412-.21-.92-.333-1.707-.397-.796-.065-1.81-.066-3.223-.066-1.412 0-2.427 0-3.223.066-.787.064-1.295.188-1.706.397a4.25 4.25 0 00-1.858 1.858c-.21.411-.333.919-.397 1.706-.013.15-.023.307-.03.473H6a.75.75 0 010 1.5H4.752z"/>
</svg>
