<svg xmlns="http://www.w3.org/2000/svg" width="24" height="24" fill="currentColor" viewBox="0 0 24 24">
  <path fill-rule="evenodd" d="M5.47 5.47a.75.75 0 011.06 0l2 2a.75.75 0 01-1.06 1.06l-2-2a.75.75 0 010-1.06zm13.06 0a.75.75 0 010 1.06l-2 2a.75.75 0 11-1.06-1.06l2-2a.75.75 0 011.06 0zm-10 10a.75.75 0 010 1.06l-2 2a.75.75 0 01-1.06-1.06l2-2a.75.75 0 011.06 0zm6.94 0a.75.75 0 011.06 0l2 2a.75.75 0 11-1.06 1.06l-2-2a.75.75 0 010-1.06z" opacity=".4"/>
  <path fill-rule="evenodd" d="M7.47 7.47a.75.75 0 011.06 0L12 10.94l3.47-3.47a.75.75 0 111.06 1.06L13.06 12l3.47 3.47a.75.75 0 11-1.06 1.06L12 13.06l-3.47 3.47a.75.75 0 01-1.06-1.06L10.94 12 7.47 8.53a.75.75 0 010-1.06z"/>
</svg>
