<svg xmlns="http://www.w3.org/2000/svg" width="24" height="24" fill="currentColor" viewBox="0 0 24 24">
  <path fill-rule="evenodd" d="M21 10a1 1 0 100-2 1 1 0 000 2zm1 3a1 1 0 11-2 0 1 1 0 012 0zm-1 5a1 1 0 100-2 1 1 0 000 2zM4 21a1 1 0 11-2 0 1 1 0 012 0zm4 1a1 1 0 100-2 1 1 0 000 2zm5-1a1 1 0 11-2 0 1 1 0 012 0zm3 1a1 1 0 100-2 1 1 0 000 2zm5 0a1 1 0 100-2 1 1 0 000 2zm-8-5a1 1 0 11-2 0 1 1 0 012 0zM3 18a1 1 0 100-2 1 1 0 000 2zm13-4a1 1 0 100-2 1 1 0 000 2zm-3-1a1 1 0 11-2 0 1 1 0 012 0zm-5 1a1 1 0 100-2 1 1 0 000 2zm-4-1a1 1 0 11-2 0 1 1 0 012 0zm9-4a1 1 0 11-2 0 1 1 0 012 0zM3 10a1 1 0 100-2 1 1 0 000 2z" opacity=".4"/>
  <path fill-rule="evenodd" d="M1.25 3A.75.75 0 012 2.25h20a.75.75 0 010 1.5H2A.75.75 0 011.25 3z"/>
</svg>
