<svg xmlns="http://www.w3.org/2000/svg" width="24" height="24" fill="currentColor" viewBox="0 0 24 24">
  <path fill-rule="evenodd" d="M12 1.25a.75.75 0 01.75.75v8a.75.75 0 01-1.5 0V2a.75.75 0 01.75-.75zm7 12a.75.75 0 01.75.75v8a.75.75 0 01-1.5 0v-8a.75.75 0 01.75-.75zM5.75 14a.75.75 0 00-1.5 0v8a.75.75 0 001.5 0v-8z" opacity=".4"/>
  <path fill-rule="evenodd" d="M5 1.25a.75.75 0 01.75.75v2.325A3.751 3.751 0 015 11.75a3.75 3.75 0 01-.75-7.425V2A.75.75 0 015 1.25zm0 4.5a2.25 2.25 0 100 4.5 2.25 2.25 0 000-4.5zM19.75 2a.75.75 0 00-1.5 0v2.325A3.751 3.751 0 0019 11.75a3.75 3.75 0 00.75-7.425V2zm-3 6a2.25 2.25 0 114.5 0 2.25 2.25 0 01-4.5 0zM12 18.25a2.25 2.25 0 100-4.5 2.25 2.25 0 000 4.5zm.75 3.75v-2.325A3.751 3.751 0 0012 12.25a3.75 3.75 0 00-.75 7.425V22a.75.75 0 001.5 0z"/>
</svg>
