<svg xmlns="http://www.w3.org/2000/svg" width="24" height="24" fill="currentColor" viewBox="0 0 24 24">
  <path fill-rule="evenodd" d="M8.058 4.247l.109.021 2.48.497a.75.75 0 01.383 1.265l-5 5a.75.75 0 01-.965.08l-3.5-2.5a.75.75 0 01-.095-1.14l1.684-1.684.078-.078c.588-.589.995-.996 1.488-1.26a3.75 3.75 0 011.402-.424c.556-.054 1.12.06 1.936.223zm-.186 1.492c-.966-.193-1.298-.252-1.604-.222a2.25 2.25 0 00-.842.255c-.271.145-.515.378-1.212 1.075L3.157 7.904 5.419 9.52l3.56-3.56-1.107-.22zm10.845 7.043c.265.08.464.3.518.57l.497 2.481.022.109c.163.816.276 1.38.222 1.937-.048.49-.192.967-.424 1.402-.264.493-.67.9-1.26 1.488l-.078.078-1.683 1.683a.75.75 0 01-1.14-.094l-2.5-3.5a.75.75 0 01.08-.966l4.999-5a.75.75 0 01.747-.188zm-4.237 5.799l1.616 2.263 1.058-1.058c.697-.697.93-.94 1.075-1.212a2.25 2.25 0 00.254-.841c.03-.307-.028-.638-.222-1.605l-.221-1.107-3.56 3.56zm-.728-9.582a1.25 1.25 0 112.5 0 1.25 1.25 0 01-2.5 0zm1.25-2.75a2.75 2.75 0 100 5.5 2.75 2.75 0 000-5.5z" opacity=".4"/>
  <path fill-rule="evenodd" d="M16.65 1.25h-.093c-.89 0-1.462 0-2.01.131a4.75 4.75 0 00-1.373.569c-.48.294-.885.7-1.514 1.328l-.066.066L6.47 8.47l-.111.111c-.984.983-1.61 1.61-1.957 2.31a4.75 4.75 0 000 4.218c.347.7.974 1.327 1.957 2.31l.112.111.111.112c.983.983 1.61 1.61 2.31 1.957a4.75 4.75 0 004.218 0c.7-.347 1.327-.974 2.31-1.957l.111-.112 5.125-5.125.066-.066c.629-.629 1.034-1.034 1.328-1.514.26-.425.453-.888.569-1.373.131-.548.131-1.12.131-2.01v-.674c0-.813 0-1.469-.043-2-.045-.546-.14-1.026-.366-1.47a3.75 3.75 0 00-1.638-1.64c-.445-.226-.925-.32-1.471-.365-.531-.043-1.187-.043-2-.043H16.65zm-1.753 1.59c.354-.085.74-.09 1.753-.09h.55c.852 0 1.446 0 1.909.038.453.037.714.107.912.207.423.216.767.56.983.984.1.197.17.458.207.912.038.462.038 1.057.038 1.909v.55c0 1.013-.005 1.398-.09 1.752-.08.331-.21.649-.389.94-.19.31-.459.585-1.176 1.302L14.47 16.47c-1.134 1.134-1.577 1.563-2.027 1.786a3.25 3.25 0 01-2.886 0c-.372-.184-.74-.51-1.495-1.256L9.53 15.53a.75.75 0 10-1.06-1.06L7 15.938c-.747-.756-1.072-1.123-1.256-1.495a3.25 3.25 0 010-2.886c.223-.45.652-.893 1.785-2.027l5.125-5.125c.717-.717.993-.986 1.303-1.176.29-.178.608-.31.94-.39z"/>
</svg>
