<svg xmlns="http://www.w3.org/2000/svg" width="24" height="24" fill="currentColor" viewBox="0 0 24 24">
  <path fill-rule="evenodd" d="M8.75 2a.75.75 0 00-1.5 0v5a.75.75 0 001.5 0V2zm8 0a.75.75 0 00-1.5 0v5a.75.75 0 001.5 0V2z" opacity=".4"/>
  <path fill-rule="evenodd" d="M7.905 6.25H16.095c.838 0 1.372 0 1.832.091a4.75 4.75 0 013.732 3.732c.091.46.091.994.091 1.832v1.15c0 .877 0 1.375-.042 1.803a8.75 8.75 0 01-7.85 7.85c-.428.042-.926.042-1.803.042h-.11c-.877 0-1.375 0-1.803-.042a8.75 8.75 0 01-7.85-7.85c-.042-.428-.042-.926-.042-1.803V12v-.095c0-.838 0-1.372.091-1.832a4.75 4.75 0 013.732-3.732c.46-.091.994-.091 1.832-.091zM8 7.75c-.965 0-1.338.004-1.634.062a3.25 3.25 0 00-2.554 2.554c-.058.296-.062.669-.062 1.634v1c0 .947 0 1.365.035 1.71a7.25 7.25 0 006.504 6.505c.346.034.764.035 1.711.035.947 0 1.365 0 1.71-.035a7.25 7.25 0 006.505-6.504c.034-.346.035-.764.035-1.711v-1c0-.965-.004-1.338-.062-1.634a3.25 3.25 0 00-2.554-2.554c-.296-.058-.669-.062-1.634-.062H8z"/>
</svg>
