<svg xmlns="http://www.w3.org/2000/svg" width="24" height="24" fill="currentColor" viewBox="0 0 24 24">
  <path fill-rule="evenodd" d="M16.083 4.982a1.25 1.25 0 00-1.638-.496c-.06.03-.235.17-.603.66-.344.46-.78 1.113-1.385 2.021l-.035.052c-.199.298-.354.532-.548.725a2.75 2.75 0 01-1.405.753c-.269.053-.55.053-.906.053H9.5v-1.5c.45 0 .57-.003.675-.024a1.25 1.25 0 00.639-.342c.075-.075.145-.174.395-.549l.014-.022c.588-.881 1.047-1.57 1.42-2.066.352-.47.716-.897 1.135-1.105a2.75 2.75 0 013.605 1.091c.234.406.3.963.332 1.548.035.618.035 1.444.035 2.501V12a.75.75 0 01-1.5 0V8.308c0-1.088 0-1.872-.032-2.444-.034-.61-.101-.824-.135-.882z" opacity=".4"/>
  <path fill-rule="evenodd" d="M8.884 7.25H9.5a.75.75 0 010 1.5H9c-.978 0-1.32.006-1.582.077a2.25 2.25 0 00-1.591 1.59c-.07.263-.077.605-.077 1.583s.006 1.32.077 1.582a2.25 2.25 0 001.59 1.591c.263.07.605.077 1.583.077h.556c.364 0 .65 0 .923.055a2.75 2.75 0 011.388.743c.198.197.356.435.558.738l.036.053c.604.906 1.039 1.558 1.382 2.016.367.488.542.63.602.66a1.25 1.25 0 001.638-.497c.034-.058.1-.272.135-.882.032-.572.032-1.356.032-2.444V12a.75.75 0 111.5 0v3.718c0 1.057 0 1.883-.035 2.502-.032.585-.099 1.141-.332 1.547a2.75 2.75 0 01-3.605 1.091c-.419-.208-.783-.634-1.135-1.103-.371-.495-.83-1.183-1.416-2.062l-.014-.022c-.254-.38-.326-.482-.403-.558a1.251 1.251 0 00-.63-.338c-.107-.021-.23-.025-.688-.025h-.608c-.818 0-1.376 0-1.855-.128a3.75 3.75 0 01-2.651-2.651c-.128-.479-.128-1.037-.128-1.855V12v-.116c0-.818 0-1.376.128-1.854a3.75 3.75 0 012.651-2.652c.48-.128 1.037-.128 1.855-.128z"/>
</svg>
