<svg xmlns="http://www.w3.org/2000/svg" width="24" height="24" fill="currentColor" viewBox="0 0 24 24">
  <path fill-rule="evenodd" d="M12 1.25a.75.75 0 01.75.75v7.19l1.72-1.72a.75.75 0 111.06 1.06l-3 3a.75.75 0 01-1.06 0l-3-3a.75.75 0 011.06-1.06l1.72 1.72V2a.75.75 0 01.75-.75z" opacity=".4"/>
  <path fill-rule="evenodd" d="M4.934 6.092A3.178 3.178 0 018 3.75h.5a.75.75 0 000-1.5H8a4.678 4.678 0 00-4.513 3.447l-1.244 4.562-.006.02c-.135.495-.209.768-.27 1.04a12.75 12.75 0 00-.058 5.36c.056.274.125.548.25 1.047l.004.02.013.052c.142.567.229.913.343 1.22a5.75 5.75 0 004.733 3.695c.325.037.683.037 1.267.037H15.48c.584 0 .941 0 1.267-.037a5.75 5.75 0 004.732-3.695c.115-.307.202-.653.343-1.22l.014-.052.005-.02c.124-.5.193-.773.248-1.046a12.75 12.75 0 00-.056-5.36c-.062-.273-.136-.545-.271-1.041l-.006-.02-1.244-4.562A4.678 4.678 0 0016 2.25h-.5a.75.75 0 000 1.5h.5c1.433 0 2.689.96 3.066 2.342l1.244 4.561c.142.521.207.76.26.997.12.528.2 1.063.243 1.6h-2.194c-.535 0-.955 0-1.348.119a2.748 2.748 0 00-.947.507c-.317.26-.55.61-.846 1.055l-.052.078-.1.15c-.373.56-.48.705-.603.807a1.252 1.252 0 01-.43.23c-.153.046-.333.054-1.006.054h-2.575c-.672 0-.853-.008-1.005-.054a1.252 1.252 0 01-.43-.23c-.124-.101-.23-.247-.603-.807l-.1-.15-.052-.078c-.296-.445-.529-.795-.846-1.055a2.748 2.748 0 00-.947-.507c-.394-.12-.814-.12-1.348-.119H3.187c.042-.537.123-1.072.242-1.6.054-.237.119-.476.261-.997l1.244-4.561zM3.17 14.75c.03.546.1 1.091.21 1.63.049.238.108.478.24 1.002.158.635.224.893.305 1.11a4.25 4.25 0 003.498 2.73c.23.027.496.028 1.15.028h6.855c.655 0 .921-.001 1.15-.027a4.25 4.25 0 003.499-2.732c.08-.216.147-.474.305-1.11.131-.523.191-.763.24-1.001.11-.539.18-1.084.21-1.63h-2.119c-.672 0-.853.008-1.005.054a1.252 1.252 0 00-.43.23c-.124.101-.23.247-.603.807l-.1.15-.052.078c-.296.445-.529.795-.846 1.056-.28.23-.601.401-.947.506-.394.12-.814.12-1.348.119h-2.762c-.535 0-.955 0-1.348-.119a2.748 2.748 0 01-.947-.506c-.317-.261-.55-.611-.846-1.056l-.052-.078-.1-.15c-.373-.56-.48-.705-.603-.807a1.252 1.252 0 00-.43-.23c-.153-.046-.333-.054-1.006-.054H3.17z"/>
</svg>
