<svg xmlns="http://www.w3.org/2000/svg" width="24" height="24" fill="currentColor" viewBox="0 0 24 24">
  <path fill-rule="evenodd" d="M16 1.25a.75.75 0 01.75.75v2.8c0 .572 0 .957.025 1.253.023.287.065.424.111.514.12.236.311.427.547.547.09.046.227.088.515.111.295.024.68.025 1.252.025H22a.75.75 0 010 1.5H19.17c-.535 0-.98 0-1.345-.03-.38-.03-.736-.098-1.073-.27a2.75 2.75 0 01-1.202-1.202c-.172-.337-.24-.693-.27-1.073-.03-.365-.03-.81-.03-1.345V2a.75.75 0 01.75-.75z" opacity=".4"/>
  <path fill-rule="evenodd" d="M8 1.25a.75.75 0 01.75.75V4.83c0 .535 0 .98-.03 1.345-.03.38-.098.736-.27 1.073A2.75 2.75 0 017.248 8.45c-.337.172-.693.24-1.073.27-.365.03-.81.03-1.345.03H2a.75.75 0 010-1.5h2.8c.572 0 .957 0 1.253-.025.287-.023.424-.065.514-.111a1.25 1.25 0 00.547-.547c.046-.09.088-.227.111-.514.024-.296.025-.68.025-1.253V2A.75.75 0 018 1.25zM6.053 16.775c-.296-.024-.68-.025-1.253-.025H2a.75.75 0 010-1.5H4.83c.535 0 .98 0 1.345.03.38.03.736.098 1.073.27A2.75 2.75 0 018.45 16.75c.172.338.24.694.27 1.074.03.365.03.81.03 1.345V22a.75.75 0 01-1.5 0v-2.8c0-.572 0-.957-.025-1.252-.023-.288-.065-.425-.111-.515a1.25 1.25 0 00-.547-.547c-.09-.046-.227-.088-.514-.111zM19.2 15.25h-.03c-.535 0-.98 0-1.345.03-.38.03-.736.098-1.073.27a2.751 2.751 0 00-1.202 1.201c-.172.338-.24.694-.27 1.074-.03.365-.03.81-.03 1.345V22a.75.75 0 001.5 0v-2.8c0-.572 0-.957.025-1.252.023-.288.065-.425.111-.515a1.25 1.25 0 01.547-.547c.09-.046.227-.088.515-.111.295-.024.68-.025 1.252-.025H22a.75.75 0 000-1.5h-2.8z"/>
</svg>
