<svg xmlns="http://www.w3.org/2000/svg" width="24" height="24" fill="currentColor" viewBox="0 0 24 24">
  <path fill-rule="evenodd" d="M3.25 16A2.75 2.75 0 016 13.25h8a.75.75 0 010 1.5H6a1.25 1.25 0 100 2.5h15a.75.75 0 010 1.5h-1.55a2.75 2.75 0 11-4.9 0h-3.1a2.75 2.75 0 11-4.9 0H6A2.75 2.75 0 013.25 16zM17 18.75a1.25 1.25 0 100 2.5 1.25 1.25 0 000-2.5zM7.75 20a1.25 1.25 0 112.5 0 1.25 1.25 0 01-2.5 0z" opacity=".4"/>
  <path fill-rule="evenodd" d="M1.5 1.75H1a.75.75 0 110-1.5h.5V1 .25h.013a3.75 3.75 0 013.776 3h13.445c.7 0 1.274 0 1.733.041.47.042.912.133 1.303.377a2.75 2.75 0 011.194 1.606c.122.444.082.893-.013 1.356-.092.452-.258 1.002-.458 1.671l-.01.034-.738 2.46-.045.148c-.324 1.083-.548 1.83-1.005 2.401a3.75 3.75 0 01-1.523 1.133c-.678.274-1.458.274-2.589.273h-5.792c-.658 0-1.193 0-1.632-.032-.454-.033-.856-.103-1.244-.269a3.75 3.75 0 01-1.559-1.24c-.248-.34-.407-.716-.541-1.152-.13-.42-.25-.94-.398-1.582l-.006-.027-1.45-6.28-.13-.563a6.615 6.615 0 00-.042-.18A2.25 2.25 0 001.685 1.75 6.629 6.629 0 001.5 1.75zm4.135 3l1.237 5.36c.156.676.264 1.143.376 1.504.109.353.207.557.32.712.24.327.563.585.936.744.176.075.397.125.765.152.378.028.857.028 1.55.028h5.61c1.347 0 1.809-.013 2.181-.164.358-.144.673-.378.914-.68.251-.313.397-.751.784-2.042l.738-2.46c.213-.711.358-1.197.436-1.575.076-.373.066-.55.036-.659a1.25 1.25 0 00-.544-.73c-.096-.06-.262-.121-.641-.155-.384-.034-.891-.035-1.634-.035H5.635z"/>
</svg>
