<svg xmlns="http://www.w3.org/2000/svg" width="24" height="24" fill="currentColor" viewBox="0 0 24 24">
  <path fill-rule="evenodd" d="M15 6.25a.75.75 0 01.75.75v4a.75.75 0 01-1.5 0V7a.75.75 0 01.75-.75zm-6 2a.75.75 0 01.75.75v2a.75.75 0 01-1.5 0V9A.75.75 0 019 8.25zM12.75 7a.75.75 0 00-1.5 0v4a.75.75 0 101.5 0V7z" opacity=".4"/>
  <path fill-rule="evenodd" d="M12.415 1.25h.121c1.138 0 2.03 0 2.75.05.732.049 1.342.152 1.907.385a5.75 5.75 0 013.122 3.122c.233.564.336 1.174.386 1.907.049.72.049 1.612.049 2.75v4.57c0 1.371 0 2.447-.07 3.311-.073.88-.222 1.607-.557 2.266a5.75 5.75 0 01-2.513 2.512c-.658.336-1.385.485-2.265.556-.865.071-1.94.071-3.312.071h-.067c-1.371 0-2.447 0-3.311-.07-.88-.072-1.608-.221-2.266-.557a5.75 5.75 0 01-2.513-2.512c-.335-.659-.484-1.386-.556-2.266-.07-.864-.07-1.94-.07-3.311v-3.138-.086c0-.99 0-1.6.124-2.19a5.75 5.75 0 01.542-1.497c.282-.532.672-1 1.306-1.762l.056-.066.9-1.08.059-.071c.675-.81 1.09-1.308 1.59-1.694a5.75 5.75 0 012.27-1.063c.616-.137 1.264-.137 2.318-.137zm.094 1.5c-1.177 0-1.652.004-2.088.101a4.25 4.25 0 00-1.678.786c-.353.273-.66.635-1.413 1.539l-.9 1.08c-.706.847-.988 1.191-1.188 1.568a4.25 4.25 0 00-.4 1.107c-.088.417-.092.862-.092 1.966V14c0 1.413 0 2.427.065 3.223.065.787.188 1.295.398 1.707a4.25 4.25 0 001.857 1.857c.412.21.92.333 1.707.398.796.065 1.81.065 3.223.065 1.412 0 2.427 0 3.223-.066.787-.064 1.295-.188 1.706-.397a4.25 4.25 0 001.858-1.857c.21-.412.333-.92.397-1.707.065-.796.066-1.81.066-3.223V9.491c0-1.17 0-2.011-.046-2.675-.044-.657-.13-1.085-.276-1.437a4.25 4.25 0 00-2.307-2.308c-.352-.145-.78-.23-1.437-.275-.664-.045-1.504-.046-2.675-.046z"/>
</svg>
