<svg xmlns="http://www.w3.org/2000/svg" width="24" height="24" fill="currentColor" viewBox="0 0 24 24">
  <path fill-rule="evenodd" d="M10.75 8a.75.75 0 00-1.5 0v5.25c0 .75-.001 1.065-.035 1.357a5.25 5.25 0 01-1.6 3.2c-.214.203-.465.393-1.065.843l-1 .75a.75.75 0 00.9 1.2l1-.75.042-.031c.546-.41.871-.654 1.155-.924a6.75 6.75 0 002.058-4.114c.045-.39.045-.796.045-1.48V8zm12 0a.75.75 0 00-1.5 0v5.25c0 .75-.001 1.065-.035 1.357a5.25 5.25 0 01-1.6 3.2c-.214.203-.465.393-1.065.843l-1 .75a.75.75 0 10.9 1.2l1-.75.041-.031c.547-.41.872-.654 1.156-.924a6.75 6.75 0 002.058-4.114c.045-.39.045-.796.045-1.479V8z" opacity=".4"/>
  <path fill-rule="evenodd" d="M5.2 3.25h-.03c-.535 0-.98 0-1.345.03-.38.03-.736.098-1.073.27A2.75 2.75 0 001.55 4.752c-.172.337-.24.693-.27 1.073-.03.365-.03.81-.03 1.345V8.83c0 .535 0 .98.03 1.345.03.38.098.736.27 1.073a2.75 2.75 0 001.202 1.202c.337.172.693.24 1.073.27.365.03.81.03 1.345.03H6.83c.535 0 .98 0 1.345-.03.38-.03.736-.098 1.073-.27a2.75 2.75 0 001.202-1.201c.172-.338.24-.694.27-1.074.03-.365.03-.81.03-1.345V7.17c0-.535 0-.98-.03-1.345-.03-.38-.098-.736-.27-1.073A2.75 2.75 0 009.248 3.55c-.337-.172-.693-.24-1.073-.27-.365-.03-.81-.03-1.345-.03H5.2zM3.433 4.886c.09-.046.227-.088.514-.111.296-.024.68-.025 1.253-.025h1.6c.572 0 .957 0 1.253.025.287.023.424.065.514.111.236.12.427.311.547.547.046.09.088.227.111.514.024.296.025.68.025 1.253v1.6c0 .572 0 .957-.025 1.252-.023.288-.065.425-.111.516a1.25 1.25 0 01-.547.546c-.09.046-.227.088-.514.111-.296.024-.68.025-1.253.025H5.2c-.572 0-.957 0-1.253-.025-.287-.023-.424-.065-.514-.111a1.25 1.25 0 01-.547-.546c-.046-.091-.088-.228-.111-.515-.024-.296-.025-.68-.025-1.253V7.2c0-.572 0-.957.025-1.253.023-.287.065-.424.111-.514a1.25 1.25 0 01.547-.547zM17.2 3.25h-.03c-.535 0-.98 0-1.345.03-.38.03-.736.098-1.073.27a2.75 2.75 0 00-1.202 1.202c-.172.337-.24.693-.27 1.073-.03.365-.03.81-.03 1.345V8.83c0 .535 0 .98.03 1.345.03.38.098.736.27 1.073.263.518.684.939 1.201 1.202.338.172.694.24 1.074.27.365.03.81.03 1.345.03H18.83c.535 0 .98 0 1.345-.03.38-.03.736-.098 1.073-.27a2.751 2.751 0 001.202-1.201c.172-.338.24-.694.27-1.074.03-.365.03-.81.03-1.344V7.17c0-.535 0-.98-.03-1.345-.03-.38-.098-.736-.27-1.073A2.75 2.75 0 0021.25 3.55c-.338-.172-.694-.24-1.074-.27-.365-.03-.81-.03-1.345-.03H17.2zm-1.768 1.636c.091-.046.228-.088.515-.111.296-.024.68-.025 1.253-.025h1.6c.572 0 .957 0 1.252.025.288.023.425.065.515.111.236.12.427.311.547.547.046.09.088.227.111.514.024.296.025.68.025 1.253v1.6c0 .572 0 .957-.025 1.252-.023.288-.065.425-.111.516a1.25 1.25 0 01-.547.546c-.09.046-.227.088-.515.111-.295.024-.68.025-1.252.025h-1.6c-.572 0-.957 0-1.252-.025-.288-.023-.425-.065-.516-.111a1.25 1.25 0 01-.546-.546c-.046-.091-.088-.228-.111-.515-.024-.296-.025-.68-.025-1.253V7.2c0-.572 0-.957.025-1.253.023-.287.065-.424.111-.514a1.25 1.25 0 01.546-.547z"/>
</svg>
