<svg xmlns="http://www.w3.org/2000/svg" width="24" height="24" fill="currentColor" viewBox="0 0 24 24">
  <path fill-rule="evenodd" d="M14 1.75a.75.75 0 01.75.75v2.3c0 .572 0 .957.025 1.253.023.287.065.424.111.515.12.235.311.426.546.546.091.046.228.088.515.111.296.024.68.025 1.253.025h2.3a.75.75 0 010 1.5H17.17c-.535 0-.98 0-1.345-.03-.38-.03-.736-.098-1.073-.27A2.75 2.75 0 0113.55 7.25c-.172-.338-.24-.694-.27-1.074-.03-.365-.03-.81-.03-1.345V2.5a.75.75 0 01.75-.75zm-8 13.5a.75.75 0 01.75.75v3a.75.75 0 01-1.5 0v-3a.75.75 0 01.75-.75zm4.75.75a.75.75 0 00-1.5 0v6a.75.75 0 001.5 0v-6zm3.25-.75a.75.75 0 01.75.75v6a.75.75 0 01-1.5 0v-6a.75.75 0 01.75-.75zm4.75.75a.75.75 0 00-1.5 0v3a.75.75 0 001.5 0v-3z" opacity=".4"/>
  <path fill-rule="evenodd" d="M11.778 2.75c1.165 0 1.635.004 2.07.1.485.108.946.3 1.364.566.377.24.712.569 1.536 1.393l.378.378c.89.89 1.246 1.252 1.498 1.663.233.38.405.795.509 1.229.112.469.117.976.117 2.235v.936H4.75V9.778c0-1.307 0-2.245.056-2.984.056-.73.162-1.204.342-1.59a4.25 4.25 0 012.056-2.056c.386-.18.86-.286 1.59-.342.739-.055 1.677-.056 2.984-.056zm-8.528 8.5H2a.75.75 0 000 1.5h20a.75.75 0 000-1.5h-1.25v-1.036c0-1.128 0-1.823-.159-2.485a5.75 5.75 0 00-.688-1.662c-.356-.581-.848-1.073-1.646-1.87l-.07-.07-.379-.38-.064-.064c-.74-.739-1.194-1.194-1.726-1.533a5.75 5.75 0 00-1.844-.764c-.616-.136-1.26-.136-2.304-.136h-.122c-1.27 0-2.265 0-3.067.06-.816.063-1.493.19-2.111.479a5.75 5.75 0 00-2.781 2.78c-.289.62-.416 1.296-.478 2.112-.061.802-.061 1.797-.061 3.066v1.503z"/>
</svg>
