<svg xmlns="http://www.w3.org/2000/svg" width="24" height="24" fill="currentColor" viewBox="0 0 24 24">
  <path fill-rule="evenodd" d="M8.535 6.31l.034.021 2.837 1.824a.75.75 0 11-.812 1.262L7.757 7.593c-1.016-.653-1.734-1.115-2.302-1.41-.574-.299-.878-.364-1.08-.35A1.75 1.75 0 003.1 6.53c-.12.162-.23.453-.29 1.097-.058.638-.059 1.492-.059 2.7v3.346c0 1.208 0 2.062.06 2.7.058.644.168.935.29 1.097.303.406.769.66 1.275.696.202.015.506-.05 1.08-.349.568-.295 1.286-.756 2.302-1.41l2.837-1.824a.75.75 0 01.812 1.262L8.569 17.67l-.034.021c-.975.627-1.752 1.127-2.388 1.458-.637.332-1.25.56-1.879.515a3.25 3.25 0 01-2.37-1.294c-.377-.505-.517-1.143-.583-1.86-.065-.713-.065-1.636-.065-2.796v-3.426c0-1.16 0-2.083.065-2.797.066-.716.206-1.354.583-1.859a3.25 3.25 0 012.37-1.294c.63-.044 1.242.183 1.88.515.635.331 1.412.83 2.387 1.458z" opacity=".4"/>
  <path fill-rule="evenodd" d="M17.535 6.31l.034.021 2.603 1.673.031.02c.844.543 1.521.979 2.021 1.369.507.395.921.809 1.147 1.342a3.25 3.25 0 010 2.53c-.226.533-.64.947-1.146 1.342-.5.39-1.178.826-2.022 1.368l-.031.02-2.603 1.674-.034.021c-.975.627-1.752 1.127-2.388 1.458-.637.332-1.25.56-1.879.515a3.25 3.25 0 01-2.37-1.294c-.377-.505-.517-1.143-.582-1.86-.066-.713-.066-1.636-.066-2.796v-3.426c0-1.16 0-2.083.066-2.797.065-.716.205-1.354.582-1.859a3.25 3.25 0 012.37-1.294c.63-.044 1.242.183 1.88.515.635.331 1.412.83 2.387 1.458zm-3.08-.127c-.574-.299-.878-.364-1.08-.35a1.75 1.75 0 00-1.276.697c-.12.162-.23.453-.29 1.097-.058.638-.059 1.492-.059 2.7v3.346c0 1.208 0 2.062.06 2.7.058.644.168.935.29 1.097.303.406.769.66 1.275.696.202.015.506-.05 1.08-.349.568-.295 1.286-.756 2.303-1.41l2.602-1.673c.884-.568 1.502-.966 1.942-1.31.44-.342.611-.564.687-.743a1.75 1.75 0 000-1.362c-.076-.18-.248-.4-.687-.744-.44-.342-1.058-.741-1.942-1.309l-2.602-1.673c-1.017-.653-1.735-1.115-2.303-1.41z"/>
</svg>
