<svg xmlns="http://www.w3.org/2000/svg" width="24" height="24" fill="currentColor" viewBox="0 0 24 24">
  <path fill-rule="evenodd" d="M22 12.25a.75.75 0 01.75.75A7.752 7.752 0 0115 20.75h-5a.75.75 0 010-1.5h5A6.252 6.252 0 0021.25 13a.75.75 0 01.75-.75z" opacity=".4"/>
  <path fill-rule="evenodd" d="M6.53 1.47a.75.75 0 010 1.06L3.81 5.25H15a7.75 7.75 0 017.672 8.856.75.75 0 01-1.485-.212A6.25 6.25 0 0015 6.75H3.81l2.72 2.72a.75.75 0 11-1.06 1.06l-4-4a.75.75 0 010-1.06l4-4a.75.75 0 011.06 0z"/>
</svg>
