<svg xmlns="http://www.w3.org/2000/svg" width="24" height="24" fill="currentColor" viewBox="0 0 24 24">
  <path fill-rule="evenodd" d="M12 7.25a.75.75 0 01.75.75v14a.75.75 0 01-1.5 0V8a.75.75 0 01.75-.75z" opacity=".4"/>
  <path fill-rule="evenodd" d="M12 1.25a3.75 3.75 0 100 7.5 3.75 3.75 0 000-7.5zM9.75 5a2.25 2.25 0 114.5 0 2.25 2.25 0 01-4.5 0zM4 13.25a.75.75 0 00-.75.75 8.75 8.75 0 1017.5 0 .75.75 0 00-.75-.75h-3a.75.75 0 000 1.5h2.212a7.251 7.251 0 01-14.424 0H7a.75.75 0 000-1.5H4z"/>
</svg>
