<svg xmlns="http://www.w3.org/2000/svg" width="24" height="24" fill="currentColor" viewBox="0 0 24 24">
  <path fill-rule="evenodd" d="M8.25 7A.75.75 0 019 6.25h6a.75.75 0 010 1.5H9A.75.75 0 018.25 7z" opacity=".4"/>
  <path fill-rule="evenodd" d="M10.4 1.25h-.033c-1.092 0-1.958 0-2.655.057-.714.058-1.317.18-1.868.46a4.75 4.75 0 00-2.076 2.077c-.281.55-.403 1.154-.461 1.868-.057.697-.057 1.563-.057 2.655V19.5a3.25 3.25 0 003.25 3.25h8.595c.838 0 1.372 0 1.832-.091a4.75 4.75 0 003.732-3.732c.074-.376.088-.8.09-1.4l.001-.027v-.228-8.905c0-1.092 0-1.958-.057-2.655-.058-.714-.18-1.317-.46-1.868a4.75 4.75 0 00-2.076-2.076c-.552-.281-1.155-.403-1.869-.461-.697-.057-1.563-.057-2.655-.057H10.4zm8.85 15V8.4c0-1.132 0-1.937-.052-2.566-.05-.62-.147-1.005-.302-1.31a3.25 3.25 0 00-1.42-1.42c-.305-.155-.69-.251-1.31-.302-.63-.051-1.434-.052-2.566-.052h-3.2c-1.132 0-1.937 0-2.566.052-.62.05-1.005.147-1.31.302a3.25 3.25 0 00-1.42 1.42c-.155.305-.251.69-.302 1.31-.051.63-.052 1.434-.052 2.566v8.36a3.235 3.235 0 011.75-.51h12.75zM4.75 19.5c0 .966.784 1.75 1.75 1.75H15c.965 0 1.338-.004 1.634-.062a3.25 3.25 0 002.554-2.554c.04-.203.054-.442.06-.884H6.5a1.75 1.75 0 00-1.75 1.75z"/>
</svg>
