<svg xmlns="http://www.w3.org/2000/svg" width="24" height="24" fill="currentColor" viewBox="0 0 24 24">
  <path fill-rule="evenodd" d="M15.375 3.75a.75.75 0 010-1.5H21a.75.75 0 01.75.75v5.625a.75.75 0 01-1.5 0V4.811L4.81 20.25h3.815a.75.75 0 010 1.5H3a.75.75 0 01-.75-.75v-5.625a.75.75 0 011.5 0v3.814L19.19 3.75h-3.815z" opacity=".4"/>
  <path fill-rule="evenodd" d="M2.25 3A.75.75 0 013 2.25h5.625a.75.75 0 010 1.5H4.811L20.25 19.19v-3.815a.75.75 0 011.5 0V21a.75.75 0 01-.75.75h-5.625a.75.75 0 010-1.5h3.814L3.75 4.81v3.815a.75.75 0 01-1.5 0V3z"/>
</svg>
