<svg xmlns="http://www.w3.org/2000/svg" width="24" height="24" fill="currentColor" viewBox="0 0 24 24">
  <path fill-rule="evenodd" d="M12.75 9a.75.75 0 00-1.5 0v3.354a2.756 2.756 0 00-1.897 1.898 6.786 6.786 0 00-4.651 1.985L3.47 17.47a.75.75 0 101.06 1.06l1.233-1.232a5.285 5.285 0 013.591-1.546 2.751 2.751 0 005.292 0 5.285 5.285 0 013.591 1.546l1.233 1.232a.75.75 0 101.06-1.06l-1.232-1.233a6.786 6.786 0 00-4.651-1.985 2.755 2.755 0 00-1.897-1.899V9zM12 13.75a1.25 1.25 0 100 2.5 1.25 1.25 0 000-2.5z" opacity=".4"/>
  <path fill-rule="evenodd" d="M12.75 2.78V4a.75.75 0 01-1.5 0V2.78a9.21 9.21 0 00-5.239 2.17l.52.52A.75.75 0 015.47 6.53l-.52-.519a9.21 9.21 0 00-2.17 5.239H4a.75.75 0 010 1.5H2.78a9.25 9.25 0 0018.44 0H20a.75.75 0 010-1.5h1.22a9.21 9.21 0 00-2.17-5.239l-.52.52a.75.75 0 11-1.06-1.061l.52-.52a9.21 9.21 0 00-5.24-2.17zm10 9.22c0-5.937-4.813-10.75-10.75-10.75S1.25 6.063 1.25 12 6.063 22.75 12 22.75 22.75 17.937 22.75 12z"/>
</svg>
