<svg xmlns="http://www.w3.org/2000/svg" width="24" height="24" fill="currentColor" viewBox="0 0 24 24">
  <path fill-rule="evenodd" d="M1.25 12a.75.75 0 01.75-.75h20a.75.75 0 110 1.5H2a.75.75 0 01-.75-.75z" opacity=".4"/>
  <path fill-rule="evenodd" d="M7.5 2.75A4.75 4.75 0 002.75 7.5V8a.75.75 0 11-1.5 0v-.5A6.25 6.25 0 017.5 1.25H8a.75.75 0 110 1.5h-.5zM15.25 2a.75.75 0 01.75-.75h.5a6.25 6.25 0 016.25 6.25V8a.75.75 0 01-1.5 0v-.5a4.75 4.75 0 00-4.75-4.75H16a.75.75 0 01-.75-.75zM2 15.25a.75.75 0 01.75.75v.5a4.75 4.75 0 004.75 4.75H8a.75.75 0 010 1.5h-.5a6.25 6.25 0 01-6.25-6.25V16a.75.75 0 01.75-.75zm20 0a.75.75 0 01.75.75v.5a6.25 6.25 0 01-6.25 6.25H16a.75.75 0 010-1.5h.5a4.75 4.75 0 004.75-4.75V16a.75.75 0 01.75-.75z"/>
</svg>
