<svg xmlns="http://www.w3.org/2000/svg" width="24" height="24" fill="currentColor" viewBox="0 0 24 24">
  <path fill-rule="evenodd" d="M9.65 11.336a.75.75 0 01.775.046l5.123 3.522.029.02c.458.315.844.58 1.133.82.296.246.572.529.726.906a2.25 2.25 0 010 1.7c-.154.377-.43.66-.726.906-.29.24-.675.505-1.133.82l-.029.02-2.617 1.799-.028.02c-.382.262-.71.488-.986.642-.275.154-.616.31-1.004.29a1.75 1.75 0 01-1.304-.686c-.236-.309-.302-.678-.33-.992a14.104 14.104 0 01-.029-1.176V12a.75.75 0 01.4-.664zm1.1 2.09v6.532c0 .508 0 .837.023 1.075.013.149.032.212.038.23a.25.25 0 00.161.084c.018-.005.08-.025.212-.098.208-.117.48-.302.898-.59l2.616-1.8c.495-.34.824-.566 1.054-.757.228-.19.28-.28.295-.319a.75.75 0 000-.566c-.016-.038-.067-.13-.295-.319-.23-.19-.559-.418-1.054-.758l-3.948-2.714z" opacity=".4"/>
  <path fill-rule="evenodd" d="M12.903 2.085l.028.02 2.617 1.8.029.019c.458.315.844.58 1.133.82.296.246.572.529.726.906a2.25 2.25 0 010 1.7c-.154.378-.43.66-.726.906-.29.24-.675.505-1.133.82l-.029.02-5.1 3.507-4.98 3.983a.75.75 0 11-.937-1.172l4.158-3.326-4.075-2.445a.75.75 0 01.772-1.286l3.864 2.318V4.007c0-.463 0-.862.029-1.176.028-.314.094-.683.33-.992.312-.41.79-.66 1.304-.686.388-.02.73.136 1.004.29.276.154.604.38.986.642zm-2.153 8.49V4.041c0-.508 0-.837.023-1.075.013-.149.032-.212.038-.23a.25.25 0 01.161-.084c.018.005.08.025.212.098.208.117.48.303.898.59l2.616 1.8c.495.34.824.566 1.054.757.228.19.28.28.295.319a.75.75 0 010 .566c-.016.038-.067.13-.295.319-.23.19-.559.418-1.054.758l-3.948 2.714z"/>
</svg>
