<svg xmlns="http://www.w3.org/2000/svg" width="24" height="24" fill="currentColor" viewBox="0 0 24 24">
  <path fill-rule="evenodd" d="M12 1.25a.75.75 0 01.75.75v3a.75.75 0 01-1.5 0V2a.75.75 0 01.75-.75zM1.25 12a.75.75 0 01.75-.75h3a.75.75 0 010 1.5H2a.75.75 0 01-.75-.75zm11.5 7a.75.75 0 00-1.5 0v3a.75.75 0 001.5 0v-3zm5.5-7a.75.75 0 01.75-.75h3a.75.75 0 010 1.5h-3a.75.75 0 01-.75-.75zm-7.5 0a1.25 1.25 0 112.5 0 1.25 1.25 0 01-2.5 0zM12 9.25a2.75 2.75 0 100 5.5 2.75 2.75 0 000-5.5z" opacity=".4"/>
  <path fill-rule="evenodd" d="M12 2.75a9.25 9.25 0 100 18.5 9.25 9.25 0 000-18.5zM1.25 12C1.25 6.063 6.063 1.25 12 1.25S22.75 6.063 22.75 12 17.937 22.75 12 22.75 1.25 17.937 1.25 12z"/>
</svg>
