<svg xmlns="http://www.w3.org/2000/svg" width="24" height="24" fill="currentColor" viewBox="0 0 24 24">
  <path fill-rule="evenodd" d="M7.75 20a1.25 1.25 0 112.5 0 1.25 1.25 0 01-2.5 0zM9 17.25a2.75 2.75 0 100 5.5 2.75 2.75 0 000-5.5zM17.75 20a1.25 1.25 0 112.5 0 1.25 1.25 0 01-2.5 0zM19 17.25a2.75 2.75 0 100 5.5 2.75 2.75 0 000-5.5z" opacity=".4"/>
  <path fill-rule="evenodd" d="M1.5.25H1a.75.75 0 000 1.5h.5c1.061 0 1.961.78 2.111 1.831l.862 6.03.004.03c.135.949.243 1.703.378 2.31.138.622.315 1.144.617 1.615a4.75 4.75 0 002.023 1.754c.508.232 1.05.334 1.685.383.62.047 1.382.047 2.34.047H16.527c.944 0 1.548 0 2.08-.123a4.75 4.75 0 003.352-2.908c.197-.509.283-1.106.416-2.041l.015-.105.005-.032c.08-.564.126-.886.148-1.21a8.748 8.748 0 00-.246-2.737c-.08-.315-.183-.624-.363-1.165l-.01-.03-.145-.433-.044-.133c-.325-.975-.548-1.647-.963-2.168a3.75 3.75 0 00-1.646-1.187c-.626-.229-1.335-.228-2.362-.228H15.31c-1.099 0-1.856 0-2.52.26a3.75 3.75 0 00-1.504 1.084c-.458.548-.697 1.267-1.044 2.309l-.048.142L9.46 7.25H5.65l-.554-3.881A3.633 3.633 0 001.5.25V1 .25zm4.365 8.5l.092.65c.141.985.241 1.682.362 2.226.119.535.246.867.415 1.13a3.25 3.25 0 001.384 1.2c.284.13.63.21 1.177.251.556.043 1.26.043 2.256.043h4.87c1.086 0 1.503-.005 1.846-.084a3.25 3.25 0 002.293-1.99c.128-.327.192-.74.345-1.815.086-.605.124-.87.142-1.132.01-.16.016-.32.016-.479H5.865zm5.176-1.5h9.868a7.19 7.19 0 00-.067-.289c-.064-.254-.148-.509-.342-1.088l-.144-.433c-.387-1.16-.53-1.555-.758-1.841a2.25 2.25 0 00-.988-.712c-.344-.126-.763-.137-1.986-.137H15.46c-1.308 0-1.756.013-2.121.156a2.25 2.25 0 00-.903.65c-.251.301-.405.722-.819 1.963l-.576 1.731z"/>
</svg>
