<svg xmlns="http://www.w3.org/2000/svg" width="24" height="24" fill="currentColor" viewBox="0 0 24 24">
  <path fill-rule="evenodd" d="M3 2.25a.75.75 0 000 1.5h18a.75.75 0 000-1.5H3zm0 18a.75.75 0 000 1.5h18a.75.75 0 000-1.5H3z" opacity=".4"/>
  <path fill-rule="evenodd" d="M12 6.25a.75.75 0 01.67.415l3 6 2 4a.75.75 0 11-1.34.67l-1.616-3.23a4.585 4.585 0 01-.129.066c-.591.296-1.455.579-2.585.579s-1.994-.283-2.585-.58a4.573 4.573 0 01-.129-.066l-1.615 3.231a.75.75 0 11-1.342-.67l2-4 3-6A.75.75 0 0112 6.25zm-2.042 6.512l.127.067c.409.204 1.045.421 1.915.421.87 0 1.506-.217 1.915-.42l.127-.068L12 8.677l-2.042 4.085z"/>
</svg>
