<svg xmlns="http://www.w3.org/2000/svg" width="24" height="24" fill="currentColor" viewBox="0 0 24 24">
  <path fill-rule="evenodd" d="M12 7.25a.75.75 0 01.75.75v3.599l2.666 1.777a.75.75 0 11-.832 1.248l-3-2A.75.75 0 0111.25 12V8a.75.75 0 01.75-.75z" opacity=".4"/>
  <path fill-rule="evenodd" d="M4.314 3.89C6.138 2.587 8.79 1.25 12 1.25c3.17 0 5.87 1.06 7.78 2.97 1.91 1.91 2.97 4.61 2.97 7.78s-1.06 5.87-2.97 7.78c-1.91 1.91-4.61 2.97-7.78 2.97-6.463 0-10.75-5.416-10.75-10.75a.75.75 0 011.5 0c0 4.607 3.713 9.25 9.25 9.25 2.83 0 5.13-.94 6.72-2.53 1.59-1.59 2.53-3.89 2.53-6.72 0-2.83-.94-5.13-2.53-6.72-1.59-1.59-3.89-2.53-6.72-2.53-2.79 0-5.138 1.163-6.814 2.36a15.62 15.62 0 00-1.413 1.14H5.5a.75.75 0 010 1.5H2A.75.75 0 011.25 7V3a.75.75 0 011.5 0v2.153A17.12 17.12 0 014.314 3.89z"/>
</svg>
