<svg xmlns="http://www.w3.org/2000/svg" width="24" height="24" fill="currentColor" viewBox="0 0 24 24">
  <path fill-rule="evenodd" d="M18.545 6.183c-.568.295-1.286.757-2.303 1.41l-2.836 1.824a.75.75 0 01-.812-1.262l2.837-1.824.034-.021c.975-.627 1.752-1.127 2.388-1.458.637-.332 1.25-.56 1.878-.515a3.25 3.25 0 012.37 1.294c.378.505.518 1.143.584 1.86.065.713.065 1.636.065 2.796v3.426c0 1.16 0 2.083-.066 2.797-.065.715-.205 1.354-.582 1.859a3.25 3.25 0 01-2.37 1.294c-.63.044-1.242-.183-1.88-.515-.635-.331-1.412-.83-2.387-1.458l-.034-.021-2.837-1.824a.75.75 0 01.812-1.262l2.836 1.824c1.017.654 1.735 1.115 2.303 1.41.574.299.878.364 1.08.35a1.75 1.75 0 001.276-.697c.12-.162.23-.453.29-1.097.058-.638.059-1.492.059-2.7v-3.346c0-1.208 0-2.062-.06-2.7-.058-.644-.168-.935-.29-1.097a1.75 1.75 0 00-1.275-.696c-.202-.015-.506.05-1.08.349z" opacity=".4"/>
  <path fill-rule="evenodd" d="M9.545 6.183c-.568.295-1.286.757-2.302 1.41L4.64 9.266c-.884.568-1.502.967-1.942 1.31-.44.342-.611.564-.687.743a1.75 1.75 0 000 1.362c.076.18.248.4.687.744.44.342 1.058.741 1.942 1.309l2.603 1.673c1.016.654 1.734 1.115 2.302 1.41.574.299.878.364 1.08.35a1.75 1.75 0 001.276-.697c.12-.162.23-.453.29-1.097.058-.638.059-1.492.059-2.7v-3.346c0-1.208 0-2.062-.06-2.7-.058-.644-.168-.935-.29-1.097a1.75 1.75 0 00-1.275-.696c-.202-.015-.506.05-1.08.349zm-.692-1.33c.637-.333 1.25-.56 1.879-.516a3.25 3.25 0 012.37 1.294c.377.505.517 1.143.582 1.86.066.713.066 1.636.066 2.796v3.426c0 1.16 0 2.083-.066 2.797-.065.715-.204 1.354-.582 1.859a3.25 3.25 0 01-2.37 1.294c-.63.044-1.242-.183-1.88-.515-.635-.331-1.412-.83-2.387-1.458l-.034-.021-2.603-1.673-.031-.02c-.844-.543-1.521-.979-2.022-1.369-.506-.395-.92-.809-1.146-1.342a3.25 3.25 0 010-2.53c.226-.533.64-.947 1.147-1.342.5-.39 1.177-.826 2.02-1.368l.032-.02L6.431 6.33l.034-.021c.975-.627 1.752-1.127 2.388-1.458z"/>
</svg>
