<svg xmlns="http://www.w3.org/2000/svg" width="24" height="24" fill="currentColor" viewBox="0 0 24 24">
  <path fill-rule="evenodd" d="M12 14.25a.75.75 0 01.75.75v6.25H16a.75.75 0 010 1.5H8a.75.75 0 010-1.5h3.25V15a.75.75 0 01.75-.75z" opacity=".4"/>
  <path fill-rule="evenodd" d="M2.25 3.444c0-1.212.982-2.194 2.194-2.194h15.112c1.211 0 2.194.982 2.194 2.194V6c0 5.385-4.365 9.75-9.75 9.75S2.25 11.385 2.25 6V3.444zm2.194-.694a.694.694 0 00-.694.694V6a8.25 8.25 0 1016.5 0V3.444a.694.694 0 00-.694-.694H4.444z"/>
</svg>
