<svg xmlns="http://www.w3.org/2000/svg" width="24" height="24" fill="currentColor" viewBox="0 0 24 24">
  <path fill-rule="evenodd" d="M8.5 2.75a1.75 1.75 0 100 3.5h2.492l-.659-2.196A1.83 1.83 0 008.58 2.75H8.5zM5.25 4.5A3.25 3.25 0 018.5 1.25h.08a3.33 3.33 0 013.19 2.373l.23.767.23-.767a3.33 3.33 0 013.19-2.373h.08a3.25 3.25 0 010 6.5h-2.75V22a.75.75 0 01-1.5 0V7.75H8.5A3.25 3.25 0 015.25 4.5zM15.5 2.75a1.75 1.75 0 110 3.5h-2.492l.659-2.196A1.83 1.83 0 0115.42 2.75h.08z" opacity=".4"/>
  <path fill-rule="evenodd" d="M4 6.25a2.75 2.75 0 00-.75 5.396v5.586c0 .813 0 1.469.043 2 .045.546.14 1.026.366 1.47a3.75 3.75 0 001.639 1.64c.444.226.924.32 1.47.365.531.043 1.187.043 2 .043h6.464c.813 0 1.469 0 2-.043.546-.045 1.026-.14 1.47-.366a3.75 3.75 0 001.64-1.639c.226-.444.32-.924.365-1.47.043-.531.043-1.187.043-2v-5.585A2.751 2.751 0 0020 6.25H4zm15.25 5.5H4.75v5.45c0 .852 0 1.447.038 1.91.037.453.107.714.207.912.216.423.56.767.984.983.197.1.458.17.912.207.462.037 1.057.038 1.909.038h6.4c.852 0 1.447 0 1.91-.038.453-.038.714-.107.912-.207.423-.216.767-.56.983-.983.1-.198.17-.459.207-.913.037-.462.038-1.057.038-1.909v-5.45zM2.75 9c0-.69.56-1.25 1.25-1.25h16a1.25 1.25 0 110 2.5H4c-.69 0-1.25-.56-1.25-1.25z"/>
</svg>
