<svg xmlns="http://www.w3.org/2000/svg" width="24" height="24" fill="currentColor" viewBox="0 0 24 24">
  <path fill-rule="evenodd" d="M13.2 4.25h-.03c-.535 0-.98 0-1.345.03-.38.03-.736.098-1.073.27A2.75 2.75 0 009.55 5.752c-.172.337-.24.693-.27 1.073-.03.365-.03.81-.03 1.345V11.83c0 .535 0 .98.03 1.345.03.38.098.736.27 1.073a2.75 2.75 0 001.201 1.202c.338.172.694.24 1.074.27.365.03.81.03 1.345.03H16.83c.535 0 .98 0 1.345-.03.38-.03.736-.098 1.073-.27a2.751 2.751 0 001.202-1.201c.172-.338.24-.694.27-1.074.03-.365.03-.81.03-1.345V8.17c0-.535 0-.98-.03-1.345-.03-.38-.098-.736-.27-1.073A2.75 2.75 0 0019.25 4.55c-.338-.172-.694-.24-1.074-.27-.365-.03-.81-.03-1.345-.03H13.2zm-1.768 1.636c.091-.046.228-.088.515-.111.296-.024.68-.025 1.253-.025h3.6c.572 0 .957 0 1.252.025.288.023.425.065.515.111.236.12.427.311.547.547.046.09.088.227.111.514.024.296.025.68.025 1.253v3.6c0 .572 0 .957-.025 1.252-.023.288-.065.425-.111.516a1.25 1.25 0 01-.547.546c-.09.046-.227.088-.515.111-.295.024-.68.025-1.252.025h-3.6c-.572 0-.957 0-1.252-.025-.288-.023-.425-.065-.516-.111a1.25 1.25 0 01-.546-.546c-.046-.091-.088-.228-.111-.515-.024-.296-.025-.68-.025-1.253V8.2c0-.572 0-.957.025-1.253.023-.287.065-.424.111-.514a1.25 1.25 0 01.546-.547zM9 18.75a1.25 1.25 0 100 2.5 1.25 1.25 0 000-2.5zM6.25 20a2.75 2.75 0 115.5 0 2.75 2.75 0 01-5.5 0zM19 18.75a1.25 1.25 0 100 2.5 1.25 1.25 0 000-2.5zM16.25 20a2.75 2.75 0 115.5 0 2.75 2.75 0 01-5.5 0z" opacity=".4"/>
  <path fill-rule="evenodd" d="M1 .25h.5V1 .25c1.808 0 3.34 1.33 3.596 3.119l1.058 7.404c.106.742.18 1.257.268 1.656.087.39.177.615.286.786.233.364.566.652.959.832.184.084.42.14.818.171.408.031.929.032 1.678.032H22a.75.75 0 010 1.5H10.133c-.712 0-1.29 0-1.762-.036-.488-.037-.919-.116-1.328-.303a3.75 3.75 0 01-1.597-1.386c-.243-.378-.382-.793-.488-1.271-.103-.462-.184-1.034-.285-1.74l-.004-.03L3.61 3.582a2.133 2.133 0 00-2.11-1.831H1a.75.75 0 110-1.5z"/>
</svg>
