<svg xmlns="http://www.w3.org/2000/svg" width="24" height="24" fill="currentColor" viewBox="0 0 24 24">
  <path fill-rule="evenodd" d="M18.75 12a.75.75 0 01-.22.53l-2.5 2.5a.75.75 0 11-1.06-1.06l1.22-1.22H7.81l1.22 1.22a.75.75 0 11-1.06 1.06l-2.5-2.5a.75.75 0 010-1.06l2.5-2.5a.75.75 0 011.06 1.06l-1.22 1.22h8.38l-1.22-1.22a.75.75 0 111.06-1.06l2.5 2.5c.141.14.22.331.22.53z" opacity=".4"/>
  <path fill-rule="evenodd" d="M2.75 3a.75.75 0 00-1.5 0v18a.75.75 0 001.5 0V3zm20 0a.75.75 0 00-1.5 0v18a.75.75 0 001.5 0V3z"/>
</svg>
