<svg xmlns="http://www.w3.org/2000/svg" width="24" height="24" fill="currentColor" viewBox="0 0 24 24">
  <path fill-rule="evenodd" d="M7.25 5A.75.75 0 018 4.25h8a.75.75 0 010 1.5H8A.75.75 0 017.25 5zM5 7.25a.75.75 0 01.75.75v8a.75.75 0 01-1.5 0V8A.75.75 0 015 7.25zm14 0a.75.75 0 01.75.75v8a.75.75 0 01-1.5 0V8a.75.75 0 01.75-.75zM7.25 19a.75.75 0 01.75-.75h8a.75.75 0 010 1.5H8a.75.75 0 01-.75-.75z" opacity=".4"/>
  <path fill-rule="evenodd" d="M16.75 5a2.25 2.25 0 114.5 0 2.25 2.25 0 01-4.5 0zM19 1.25a3.75 3.75 0 100 7.5 3.75 3.75 0 000-7.5zM2.75 5a2.25 2.25 0 114.5 0 2.25 2.25 0 01-4.5 0zM5 1.25a3.75 3.75 0 100 7.5 3.75 3.75 0 000-7.5zm14 15.5a2.25 2.25 0 100 4.5 2.25 2.25 0 000-4.5zM15.25 19a3.75 3.75 0 117.5 0 3.75 3.75 0 01-7.5 0zm-12.5 0a2.25 2.25 0 114.5 0 2.25 2.25 0 01-4.5 0zM5 15.25a3.75 3.75 0 100 7.5 3.75 3.75 0 000-7.5z"/>
</svg>
