<svg xmlns="http://www.w3.org/2000/svg" width="24" height="24" fill="currentColor" viewBox="0 0 24 24">
  <path fill-rule="evenodd" d="M4.44 5.4a.75.75 0 01.15 1.05A9.225 9.225 0 002.75 12a.75.75 0 11-1.5 0c0-2.418.794-4.652 2.14-6.45a.75.75 0 011.05-.15zM22 11.25a.75.75 0 01.75.75c0 2.42-.8 4.654-2.15 6.45a.75.75 0 11-1.199-.9A9.206 9.206 0 0021.25 12a.75.75 0 01.75-.75z" opacity=".4"/>
  <path fill-rule="evenodd" d="M3.39 5.55A10.717 10.717 0 0112 1.25c3.554 0 6.217 1.469 7.977 2.921.494.407.918.814 1.273 1.19V4a.75.75 0 011.5 0v3.5a.75.75 0 01-.75.75h-3.5a.75.75 0 010-1.5h1.987c-.372-.424-.86-.923-1.464-1.421C17.45 4.03 15.113 2.75 12 2.75a9.217 9.217 0 00-7.41 3.7.75.75 0 11-1.2-.9zM2.25 16.5a.75.75 0 01.75-.75h3.5a.75.75 0 010 1.5H4.512c.367.43.842.934 1.413 1.437 1.49 1.314 3.57 2.563 6.075 2.563a9.235 9.235 0 007.401-3.7.75.75 0 011.2.9A10.735 10.735 0 0112 22.75c-3.017 0-5.438-1.5-7.067-2.937-.45-.398-.846-.795-1.183-1.162V20a.75.75 0 01-1.5 0v-3.5z"/>
</svg>
