<svg xmlns="http://www.w3.org/2000/svg" width="24" height="24" fill="currentColor" viewBox="0 0 24 24">
  <path fill-rule="evenodd" d="M12 2.75c-1.186 0-2.502.29-3.767.704a.75.75 0 01-.466-1.426C9.107 1.59 10.593 1.25 12 1.25c1.79 0 3.716.55 5.32 1.164l.12.046c1.528.585 2.54.972 3.364 2.073.066.088.154.217.213.31.734 1.164.734 2.426.733 4.352v.276c0 2.454 0 4.22-.32 5.69a.75.75 0 01-1.466-.321c.282-1.293.286-2.892.286-5.46 0-2.18-.025-2.98-.502-3.736a3.9 3.9 0 00-.146-.212c-.54-.723-1.136-.973-2.819-1.617C15.243 3.225 13.52 2.75 12 2.75z" opacity=".4"/>
  <path fill-rule="evenodd" d="M1.47 1.47a.75.75 0 011.06 0l2.372 2.37L19.19 18.13l2.34 2.34a.75.75 0 11-1.06 1.06l-1.843-1.842c-.946.76-2.09 1.332-3.59 2.082l-.087.044c-1.02.51-2.098.936-2.95.936-.852 0-1.93-.426-2.95-.936l-.09-.045c-2.494-1.247-3.943-1.972-5.231-3.896a10.41 10.41 0 01-.335-.541C2.25 15.319 2.25 13.215 2.25 9.574V9.38v-.186c0-1.926-.001-3.188.733-4.352a5.415 5.415 0 01.334-.465L1.47 2.53a.75.75 0 010-1.06zm2.916 3.977a4.04 4.04 0 00-.134.197C3.775 6.4 3.75 7.2 3.75 9.38c0 3.893.02 5.579.948 7.209.07.124.198.33.277.449 1.051 1.57 2.153 2.137 4.746 3.433 1.022.511 1.815.778 2.279.778.464 0 1.257-.267 2.28-.778 1.514-.758 2.504-1.258 3.28-1.852L4.386 5.447z"/>
</svg>
