<svg xmlns="http://www.w3.org/2000/svg" width="24" height="24" fill="currentColor" viewBox="0 0 24 24">
  <path fill-rule="evenodd" d="M16.052 2.775c-.295-.024-.68-.025-1.252-.025H8a.75.75 0 010-1.5h6.83c.535 0 .98 0 1.345.03.38.03.736.098 1.073.27a2.75 2.75 0 011.202 1.202c.172.337.24.693.27 1.073.03.365.03.81.03 1.345V7.27c.18.008.349.019.508.033.606.055 1.136.172 1.617.45a3.75 3.75 0 011.373 1.372c.277.481.394 1.011.449 1.617.053.589.053 1.318.053 2.222V14.116c0 .818 0 1.376-.128 1.855a3.748 3.748 0 01-.827 1.529.75.75 0 01-1.118-1c.231-.259.404-.571.496-.918.07-.262.077-.604.077-1.582v-1c0-.948 0-1.61-.047-2.122-.046-.502-.13-.788-.254-1.003l.65-.375-.65.375a2.25 2.25 0 00-.824-.824c-.215-.124-.5-.208-1.003-.254-.512-.046-1.174-.047-2.122-.047h-5a.75.75 0 010-1.5h5.25V5.2c0-.572 0-.957-.025-1.253-.023-.287-.065-.424-.111-.514a1.25 1.25 0 00-.547-.547c-.09-.046-.227-.088-.515-.111zM5 10.25a.75.75 0 000 1.5h1a.75.75 0 000-1.5H5z" opacity=".4"/>
  <path fill-rule="evenodd" d="M2.53 1.47a.75.75 0 00-1.06 1.06l4.72 4.721c-.558.004-1.037.015-1.448.052-.606.055-1.136.172-1.617.45a3.75 3.75 0 00-1.373 1.372c-.277.481-.394 1.011-.449 1.617-.053.589-.053 1.318-.053 2.222V14.116c0 .818 0 1.376.128 1.855a3.75 3.75 0 002.651 2.651l.195-.724-.195.724c.344.092.729.118 1.221.125v.278c0 .445 0 .816.02 1.12.022.317.07.617.19.907a2.75 2.75 0 001.488 1.489c.29.12.59.167.907.188.304.021.675.021 1.12.021h5.855c.535 0 .98 0 1.345-.03.38-.03.736-.098 1.073-.27a2.751 2.751 0 001.202-1.201c.172-.338.24-.694.27-1.074.01-.116.016-.24.02-.374l2.73 2.73a.75.75 0 101.06-1.061l-4-4-2-2-8-8-6-6zm11.66 13.78l-6.5-6.5H7c-.948 0-1.61 0-2.122.047-.503.046-.788.13-1.003.254a2.25 2.25 0 00-.824.824c-.124.215-.208.5-.254 1.003-.046.512-.047 1.174-.047 2.122v1c0 .978.006 1.32.077 1.582a2.25 2.25 0 001.59 1.591c.195.052.434.07.943.075.026-.102.058-.201.1-.3a2.75 2.75 0 011.488-1.489c.29-.12.59-.167.907-.188.304-.021.675-.021 1.12-.021H14.19zm1.5 1.5H9c-.476 0-.796 0-1.043.017-.241.017-.358.046-.435.078a1.25 1.25 0 00-.677.677c-.032.077-.061.194-.078.435-.017.247-.017.567-.017 1.043s0 .796.017 1.043c.017.241.046.358.078.435.127.307.37.55.677.677.077.032.194.061.435.078.247.017.567.017 1.043.017h5.8c.572 0 .957 0 1.252-.025.288-.023.425-.065.515-.111a1.25 1.25 0 00.547-.547c.046-.09.088-.227.111-.515.024-.295.025-.68.025-1.252v-.49l-1.56-1.56z"/>
</svg>
