<svg xmlns="http://www.w3.org/2000/svg" width="24" height="24" fill="currentColor" viewBox="0 0 24 24">
  <path fill-rule="evenodd" d="M19 13a1 1 0 100-2 1 1 0 000 2zm-16-.75a.75.75 0 01.75.75v3.25H15a.75.75 0 010 1.5H1.766a2.806 2.806 0 002.79 2.5H19a.75.75 0 010 1.5H4.556A4.306 4.306 0 01.25 17.444c0-.66.535-1.194 1.194-1.194h.806V13a.75.75 0 01.75-.75z" opacity=".4"/>
  <path fill-rule="evenodd" d="M9.4 2.25h-.033c-1.092 0-1.958 0-2.655.057-.714.058-1.317.18-1.868.46a4.75 4.75 0 00-2.076 2.077c-.281.55-.403 1.154-.461 1.868-.057.697-.057 1.563-.057 2.655V13a.75.75 0 001.5 0V9.4c0-1.132 0-1.937.052-2.566.05-.62.147-1.005.302-1.31a3.25 3.25 0 011.42-1.42c.305-.155.69-.251 1.31-.302.63-.051 1.434-.052 2.566-.052h9.1c.966 0 1.75.784 1.75 1.75V6a.75.75 0 001.5 0v-.5a3.25 3.25 0 00-3.25-3.25H9.4zm8.8 6h-.03c-.535 0-.98 0-1.345.03-.38.03-.736.098-1.073.27a2.75 2.75 0 00-1.202 1.202c-.172.337-.24.693-.27 1.073-.03.365-.03.81-.03 1.345v5.66c0 .535 0 .98.03 1.345.03.38.098.736.27 1.073.263.518.684.939 1.201 1.202.338.172.694.24 1.074.27.365.03.81.03 1.345.03H19.83c.535 0 .98 0 1.345-.03.38-.03.736-.098 1.073-.27a2.751 2.751 0 001.202-1.201c.172-.338.24-.694.27-1.074.03-.365.03-.81.03-1.345v-5.66c0-.535 0-.98-.03-1.345-.03-.38-.098-.736-.27-1.073A2.75 2.75 0 0022.25 8.55c-.338-.172-.694-.24-1.074-.27-.365-.03-.81-.03-1.345-.03H18.2zm-1.767 1.636c.09-.046.227-.088.515-.111.295-.024.68-.025 1.252-.025h1.6c.572 0 .957 0 1.252.025.288.023.425.065.515.111.236.12.427.311.547.546.046.091.088.228.111.515.024.296.025.68.025 1.253v5.6c0 .572 0 .957-.025 1.252-.023.288-.065.425-.111.515a1.25 1.25 0 01-.547.547c-.09.046-.227.088-.515.111-.295.024-.68.025-1.252.025h-1.6c-.572 0-.957 0-1.252-.025-.288-.023-.425-.065-.515-.111a1.25 1.25 0 01-.547-.547c-.046-.09-.088-.227-.111-.515-.024-.295-.025-.68-.025-1.252v-5.6c0-.572 0-.957.025-1.252.023-.288.065-.425.111-.516a1.25 1.25 0 01.547-.546z"/>
</svg>
