<svg xmlns="http://www.w3.org/2000/svg" width="24" height="24" fill="currentColor" viewBox="0 0 24 24">
  <path fill-rule="evenodd" d="M9.75 9a.75.75 0 00-1.5 0v6a.75.75 0 001.5 0V9zm3.75-.75a2.25 2.25 0 00-2.25 2.25v3a2.25 2.25 0 004.5 0v-3a2.25 2.25 0 00-2.25-2.25zm-.75 2.25a.75.75 0 011.5 0v3a.75.75 0 01-1.5 0v-3z" opacity=".4"/>
  <path fill-rule="evenodd" d="M4.02 4.202C5.78 2.735 8.444 1.25 12 1.25A10.73 10.73 0 0122.75 12c0 5.937-4.813 10.75-10.75 10.75S1.25 17.937 1.25 12a.75.75 0 011.5 0 9.25 9.25 0 0018.5 0A9.23 9.23 0 0012 2.75c-3.11 0-5.447 1.293-7.02 2.604a12.69 12.69 0 00-1.77 1.802 9.994 9.994 0 00-.563.779l-.004.006a.75.75 0 01-1.393-.385v-5a.75.75 0 111.5 0V5.4c.355-.378.778-.788 1.27-1.198z"/>
</svg>
