<svg xmlns="http://www.w3.org/2000/svg" width="24" height="24" fill="currentColor" viewBox="0 0 24 24">
  <path fill-rule="evenodd" d="M11.25 2a.75.75 0 01.75-.75c2.059 0 4.305.73 6.043 1.454l.067.028c.904.377 1.499.625 2.12 1.2.491.456.996 1.214 1.228 1.843.293.795.292 1.562.292 2.738V11a.75.75 0 01-1.5 0V8.624c0-1.323-.01-1.814-.2-2.331a3.822 3.822 0 00-.84-1.26c-.409-.38-.762-.535-1.744-.945C15.78 3.386 13.756 2.75 12 2.75a.75.75 0 01-.75-.75z" opacity=".4"/>
  <path fill-rule="evenodd" d="M12 2.75c-1.757 0-3.78.636-5.466 1.338-.982.41-1.335.565-1.744.945-.318.294-.69.853-.84 1.26-.19.517-.2 1.008-.2 2.33v2.074c0 2.344.008 3.364.357 4.435.27.83.929 1.967 1.515 2.615.76.841 1.425 1.23 2.977 2.12.71.407 1.397.76 2.004 1.01.626.257 1.096.373 1.397.373.355 0 .93-.16 1.691-.5.736-.327 1.561-.782 2.386-1.282.925-.562 1.323-.806 1.857-1.302.972-.903 1.9-2.55 2.167-3.85.146-.708.149-1.347.149-2.816V11a.75.75 0 011.5 0v.571c0 1.38 0 2.175-.18 3.049-.33 1.605-1.414 3.53-2.615 4.645-.653.607-1.172.922-2.07 1.467l-.03.018c-.852.517-1.737 1.008-2.554 1.371-.792.353-1.611.629-2.301.629-.601 0-1.293-.21-1.966-.485a19.122 19.122 0 01-2.181-1.097l-.056-.032c-1.492-.856-2.356-1.352-3.288-2.383-.727-.804-1.493-2.125-1.829-3.156-.43-1.322-.43-2.587-.43-4.784V8.624v-.111c0-1.176 0-1.943.292-2.738A5.292 5.292 0 013.77 3.933c.621-.576 1.216-.824 2.12-1.201l.067-.028C7.695 1.979 9.94 1.25 12 1.25a.75.75 0 010 1.5z"/>
</svg>
