<svg xmlns="http://www.w3.org/2000/svg" width="24" height="24" fill="currentColor" viewBox="0 0 24 24">
  <path fill-rule="evenodd" d="M1.75 7a.75.75 0 01.75-.75H8a.75.75 0 010 1.5H2.5A.75.75 0 011.75 7zm0 5a.75.75 0 01.75-.75h19a.75.75 0 010 1.5h-19a.75.75 0 01-.75-.75zM16 6.25a.75.75 0 000 1.5h5.5a.75.75 0 000-1.5H16zM15.25 17a.75.75 0 01.75-.75h5.5a.75.75 0 010 1.5H16a.75.75 0 01-.75-.75zM2.5 16.25a.75.75 0 000 1.5H8a.75.75 0 000-1.5H2.5z" opacity=".4"/>
  <path fill-rule="evenodd" d="M9.966 1.25h4.068c1.371 0 2.447 0 3.311.07.88.073 1.607.221 2.265.557a5.75 5.75 0 012.513 2.513c.336.658.485 1.385.556 2.265.071.864.071 1.94.071 3.311v4.068c0 1.371 0 2.447-.07 3.311-.072.88-.221 1.607-.557 2.265a5.75 5.75 0 01-2.513 2.513c-.658.336-1.385.485-2.265.556-.864.071-1.94.071-3.311.071H9.966c-1.371 0-2.447 0-3.311-.07-.88-.072-1.607-.221-2.265-.557a5.75 5.75 0 01-2.513-2.513c-.336-.658-.484-1.385-.556-2.265-.071-.864-.071-1.94-.071-3.311V9.966c0-1.371 0-2.447.07-3.311.073-.88.221-1.607.557-2.265A5.75 5.75 0 014.39 1.877c.658-.336 1.385-.484 2.265-.556.864-.071 1.94-.071 3.311-.071zM6.777 2.816c-.787.064-1.295.188-1.706.397a4.25 4.25 0 00-1.858 1.858c-.21.411-.333.919-.397 1.706-.065.796-.066 1.81-.066 3.223v4c0 1.412 0 2.427.066 3.223.064.787.188 1.295.397 1.707a4.25 4.25 0 001.858 1.857c.411.21.919.333 1.706.397.15.013.307.022.473.03V2.786c-.166.008-.323.018-.473.03zM10 21.25c-.456 0-.87 0-1.25-.002V2.752c.38-.002.794-.002 1.25-.002h4c.456 0 .87 0 1.25.002v18.496c-.38.002-.794.002-1.25.002h-4zm6.75-.035c.166-.009.323-.018.473-.03.787-.065 1.295-.189 1.707-.398a4.251 4.251 0 001.857-1.857c.21-.412.333-.92.397-1.707.065-.796.066-1.81.066-3.223v-4c0-1.413 0-2.427-.066-3.223-.064-.787-.188-1.295-.397-1.706a4.25 4.25 0 00-1.857-1.858c-.412-.21-.92-.333-1.707-.397-.15-.013-.307-.023-.473-.03v18.429z"/>
</svg>
