<svg xmlns="http://www.w3.org/2000/svg" width="24" height="24" fill="currentColor" viewBox="0 0 24 24">
  <path fill-rule="evenodd" d="M16.03 1.97a.75.75 0 10-1.06 1.06l.5.5 1.08 1.08c1.395 1.396 2.409 2.41 3.142 3.274.728.858 1.136 1.517 1.353 2.185a6.25 6.25 0 010 3.862c-.217.668-.625 1.328-1.353 2.185-.733.864-1.747 1.878-3.142 3.273l-1.58 1.58-.5.5a.75.75 0 101.06 1.061l.5-.5 1.58-1.58.025-.024c1.366-1.366 2.423-2.423 3.2-3.34.789-.928 1.334-1.76 1.636-2.691a7.75 7.75 0 000-4.79c-.302-.93-.847-1.763-1.635-2.692-.778-.916-1.835-1.973-3.201-3.339l-.024-.024-1.08-1.08-.5-.5zM7.75 10a1.25 1.25 0 112.5 0 1.25 1.25 0 01-2.5 0zM9 7.25a2.75 2.75 0 100 5.5 2.75 2.75 0 000-5.5z" opacity=".4"/>
  <path fill-rule="evenodd" d="M11.102 3.84c-.354-.085-.739-.09-1.753-.09H8.4c-1.132 0-1.937 0-2.566.052-.62.05-1.005.147-1.31.302a3.25 3.25 0 00-1.42 1.42c-.155.305-.251.69-.302 1.31-.051.63-.052 1.434-.052 2.566v.949c0 1.014.005 1.399.09 1.753.08.332.21.649.389.94.19.31.459.585 1.176 1.302l2.6 2.6c.8.801 1.37 1.37 1.851 1.778.475.403.815.606 1.14.712a3.25 3.25 0 002.008 0c.325-.106.665-.31 1.14-.712.481-.409 1.05-.977 1.851-1.778l.95-.949c.8-.8 1.368-1.37 1.777-1.851.403-.475.606-.815.712-1.14a3.25 3.25 0 000-2.008c-.106-.325-.31-.665-.712-1.14-.409-.481-.977-1.05-1.778-1.851l-2.6-2.6c-.717-.717-.992-.986-1.303-1.176a3.25 3.25 0 00-.94-.39zm-1.66-1.59c.89 0 1.462 0 2.01.131a4.75 4.75 0 011.373.569c.48.294.885.7 1.514 1.328l.066.066 2.6 2.6.023.024c.772.772 1.384 1.384 1.837 1.917.464.546.805 1.059.996 1.647a4.75 4.75 0 010 2.936c-.192.588-.532 1.101-.996 1.647-.453.533-1.064 1.145-1.837 1.917l-.023.024-.95.949-.023.023c-.772.772-1.384 1.384-1.917 1.837-.546.464-1.059.805-1.647.996-.954.31-1.982.31-2.936 0-.588-.192-1.101-.532-1.647-.996-.533-.453-1.145-1.065-1.917-1.837l-.024-.023-2.6-2.6-.066-.066c-.629-.629-1.034-1.034-1.328-1.514a4.75 4.75 0 01-.569-1.373c-.131-.548-.131-1.12-.131-2.01V9.368c0-1.092 0-1.958.057-2.655.058-.714.18-1.317.46-1.868a4.75 4.75 0 012.077-2.076c.55-.281 1.154-.403 1.868-.461.697-.057 1.563-.057 2.655-.057h1.076z"/>
</svg>
