<svg xmlns="http://www.w3.org/2000/svg" width="24" height="24" fill="currentColor" viewBox="0 0 24 24">
  <path fill-rule="evenodd" d="M3 12.25a.75.75 0 01.75.75v3.25h16.5V13a.75.75 0 011.5 0v3.25h.806c.66 0 1.194.535 1.194 1.194a4.306 4.306 0 01-4.306 4.306H4.556A4.306 4.306 0 01.25 17.444c0-.66.535-1.194 1.194-1.194h.806V13a.75.75 0 01.75-.75zm18 5.5H1.766a2.806 2.806 0 002.79 2.5h14.888a2.806 2.806 0 002.79-2.5H21z" opacity=".4"/>
  <path fill-rule="evenodd" d="M9.367 2.25H14.633c1.092 0 1.958 0 2.655.057.714.058 1.317.18 1.869.46a4.75 4.75 0 012.075 2.077c.281.55.403 1.154.461 1.868.057.697.057 1.563.057 2.655V13a.75.75 0 01-1.5 0V9.4c0-1.132 0-1.937-.052-2.566-.05-.62-.147-1.005-.302-1.31a3.25 3.25 0 00-1.42-1.42c-.305-.155-.69-.251-1.31-.302-.63-.051-1.434-.052-2.566-.052H9.4c-1.132 0-1.937 0-2.566.052-.62.05-1.005.147-1.31.302a3.25 3.25 0 00-1.42 1.42c-.155.305-.251.69-.302 1.31-.051.63-.052 1.434-.052 2.566V13a.75.75 0 01-1.5 0V9.367c0-1.092 0-1.958.057-2.655.058-.714.18-1.317.46-1.868a4.75 4.75 0 012.077-2.076c.55-.281 1.154-.403 1.868-.461.697-.057 1.563-.057 2.655-.057z"/>
</svg>
