<svg xmlns="http://www.w3.org/2000/svg" width="24" height="24" fill="currentColor" viewBox="0 0 24 24">
  <path fill-rule="evenodd" d="M4 2.75a1.25 1.25 0 100 2.5 1.25 1.25 0 000-2.5zM1.25 4a2.75 2.75 0 115.5 0 2.75 2.75 0 01-5.5 0zM4 10.75a1.25 1.25 0 100 2.5 1.25 1.25 0 000-2.5zM1.25 12a2.75 2.75 0 115.5 0 2.75 2.75 0 01-5.5 0zm1.5 8a1.25 1.25 0 112.5 0 1.25 1.25 0 01-2.5 0zM4 17.25a2.75 2.75 0 100 5.5 2.75 2.75 0 000-5.5z" opacity=".4"/>
  <path fill-rule="evenodd" d="M11 3.25a.75.75 0 000 1.5h11a.75.75 0 000-1.5H11zM10.25 12a.75.75 0 01.75-.75h11a.75.75 0 010 1.5H11a.75.75 0 01-.75-.75zm0 8a.75.75 0 01.75-.75h11a.75.75 0 010 1.5H11a.75.75 0 01-.75-.75z"/>
</svg>
