<svg xmlns="http://www.w3.org/2000/svg" width="24" height="24" fill="currentColor" viewBox="0 0 24 24">
  <path fill-rule="evenodd" d="M14.53 5.47a.75.75 0 010 1.06l-3 3a.75.75 0 11-1.06-1.06l3-3a.75.75 0 011.06 0z" opacity=".4"/>
  <path fill-rule="evenodd" d="M11.53 8.47a.75.75 0 010 1.06l-.737.738c-.405.404-.676.676-.868.903-.187.22-.254.346-.285.443a1.25 1.25 0 000 .772c.031.097.098.224.285.443.192.227.463.499.868.903l3.737 3.738a.75.75 0 11-1.06 1.06l-3.738-3.737-.021-.021a17.789 17.789 0 01-.93-.972c-.246-.29-.451-.59-.568-.95a2.75 2.75 0 010-1.7c.117-.36.322-.66.568-.95.237-.279.552-.594.93-.972l.021-.021.738-.737a.75.75 0 011.06 0z"/>
</svg>
