<svg xmlns="http://www.w3.org/2000/svg" width="24" height="24" fill="currentColor" viewBox="0 0 24 24">
  <path fill-rule="evenodd" d="M15 3.75a.75.75 0 010-1.5h6a.75.75 0 01.75.75v6a.75.75 0 01-1.5 0V4.81l-7.72 7.72a.75.75 0 11-1.06-1.06l7.72-7.72H15z" opacity=".4"/>
  <path fill-rule="evenodd" d="M9.379 2.25H10a.75.75 0 010 1.5h-.5c-1.438 0-2.025.005-2.492.117a4.25 4.25 0 00-3.14 3.14c-.113.468-.118 1.055-.118 2.493V13c0 1.412 0 2.427.066 3.223.064.787.188 1.295.397 1.707a4.25 4.25 0 001.858 1.857c.411.21.919.333 1.706.397.796.065 1.81.066 3.223.066h3.5c1.438 0 2.025-.005 2.492-.117a4.25 4.25 0 003.14-3.14c.113-.468.118-1.055.118-2.493V14a.75.75 0 011.5 0v.621c0 1.279 0 2.059-.159 2.721a5.75 5.75 0 01-4.249 4.25c-.662.158-1.442.158-2.72.158H10.965c-1.371 0-2.447 0-3.311-.07-.88-.072-1.607-.221-2.265-.557a5.75 5.75 0 01-2.513-2.513c-.336-.658-.484-1.385-.556-2.265-.071-.864-.071-1.94-.071-3.311V9.5v-.121c0-1.279 0-2.058.159-2.721a5.75 5.75 0 014.249-4.25C7.32 2.25 8.1 2.25 9.378 2.25z"/>
</svg>
