<svg xmlns="http://www.w3.org/2000/svg" width="24" height="24" fill="currentColor" viewBox="0 0 24 24">
  <path fill-rule="evenodd" d="M6.53 4.53a.75.75 0 00-1.06-1.06l-.5.5-.689.688-.072.073c-.969.968-1.546 1.546-1.964 2.227a6.75 6.75 0 00-.808 1.952c-.187.777-.187 1.594-.187 2.963V16a.75.75 0 001.5 0v-4.024c0-1.503.005-2.132.145-2.716a5.25 5.25 0 01.629-1.518c.314-.512.755-.96 1.818-2.023l.688-.689.5-.5zm12 0a.75.75 0 00-1.06-1.06l-.5.5-.689.688-.072.073c-.969.968-1.546 1.546-1.964 2.227a6.751 6.751 0 00-.808 1.952c-.187.777-.187 1.594-.187 2.963V16a.75.75 0 001.5 0v-4.024c0-1.503.005-2.132.145-2.716.129-.536.34-1.048.629-1.518.314-.512.755-.96 1.818-2.023l.688-.689.5-.5z" opacity=".4"/>
  <path fill-rule="evenodd" d="M5.2 11.25h-.03c-.535 0-.98 0-1.345.03-.38.03-.736.098-1.073.27A2.75 2.75 0 001.55 12.75c-.172.338-.24.694-.27 1.074-.03.365-.03.81-.03 1.345V16.83c0 .535 0 .98.03 1.345.03.38.098.736.27 1.073a2.75 2.75 0 001.202 1.202c.337.172.693.24 1.073.27.365.03.81.03 1.345.03H6.83c.535 0 .98 0 1.345-.03.38-.03.736-.098 1.073-.27a2.75 2.75 0 001.202-1.201c.172-.338.24-.694.27-1.074.03-.364.03-.81.03-1.345V15.17c0-.535 0-.98-.03-1.345-.03-.38-.098-.736-.27-1.073a2.75 2.75 0 00-1.202-1.202c-.337-.172-.693-.24-1.073-.27-.365-.03-.81-.03-1.345-.03H5.2zm-1.767 1.636c.09-.046.227-.088.514-.111.296-.024.68-.025 1.253-.025h1.6c.572 0 .957 0 1.253.025.287.023.424.065.514.111.236.12.427.311.547.546.046.091.088.228.111.515.024.296.025.68.025 1.253v1.6c0 .572 0 .957-.025 1.252-.023.288-.065.425-.111.515a1.25 1.25 0 01-.547.547c-.09.046-.227.088-.514.111-.296.024-.68.025-1.253.025H5.2c-.572 0-.957 0-1.253-.025-.287-.023-.424-.065-.514-.111a1.25 1.25 0 01-.547-.547c-.046-.09-.088-.227-.111-.515-.024-.295-.025-.68-.025-1.252v-1.6c0-.572 0-.957.025-1.252.023-.288.065-.425.111-.516a1.25 1.25 0 01.547-.546zM17.2 11.25h-.03c-.535 0-.98 0-1.345.03-.38.03-.736.098-1.073.27a2.751 2.751 0 00-1.202 1.201c-.172.338-.24.694-.27 1.074-.03.365-.03.81-.03 1.345V16.83c0 .535 0 .98.03 1.345.03.38.098.736.27 1.073.263.518.684.939 1.201 1.202.338.172.694.24 1.074.27.364.03.81.03 1.345.03H18.83c.535 0 .98 0 1.345-.03.38-.03.736-.098 1.073-.27a2.751 2.751 0 001.202-1.201c.172-.338.24-.694.27-1.074.03-.365.03-.81.03-1.345V15.17c0-.535 0-.98-.03-1.345-.03-.38-.098-.736-.27-1.073a2.751 2.751 0 00-1.201-1.202c-.338-.172-.694-.24-1.074-.27-.365-.03-.81-.03-1.345-.03H17.2zm-1.768 1.636c.091-.046.228-.088.515-.111.296-.024.68-.025 1.253-.025h1.6c.572 0 .957 0 1.252.025.288.023.425.065.515.111.236.12.427.311.547.546.046.091.088.228.111.515.024.296.025.68.025 1.253v1.6c0 .572 0 .957-.025 1.252-.023.288-.065.425-.111.515a1.25 1.25 0 01-.547.547c-.09.046-.227.088-.515.111-.295.024-.68.025-1.252.025h-1.6c-.572 0-.957 0-1.252-.025-.288-.023-.425-.065-.516-.111a1.25 1.25 0 01-.546-.547c-.046-.09-.088-.227-.111-.515-.024-.295-.025-.68-.025-1.252v-1.6c0-.572 0-.957.025-1.252.023-.288.065-.425.111-.516a1.25 1.25 0 01.546-.546z"/>
</svg>
