<svg xmlns="http://www.w3.org/2000/svg" width="24" height="24" fill="currentColor" viewBox="0 0 24 24">
  <path fill-rule="evenodd" d="M21 4.25a.75.75 0 01.75.75v14a.75.75 0 01-1.5 0V5a.75.75 0 01.75-.75z" opacity=".4"/>
  <path fill-rule="evenodd" d="M10.708 5.933l.034.021 2.143 1.34.033.02c1.052.658 1.885 1.179 2.499 1.645.62.47 1.107.952 1.37 1.564a3.75 3.75 0 010 2.954c-.263.612-.75 1.093-1.37 1.564-.614.466-1.447.988-2.5 1.645l-.032.02-2.143 1.34-.034.021c-1.17.731-2.093 1.308-2.846 1.688-.756.381-1.456.627-2.163.57a3.75 3.75 0 01-2.71-1.502c-.422-.568-.585-1.293-.662-2.135-.077-.84-.077-1.929-.077-3.308V10.62c0-1.379 0-2.467.077-3.307.077-.843.24-1.567.663-2.136A3.75 3.75 0 015.7 3.675c.706-.057 1.406.189 2.162.57.753.38 1.676.957 2.846 1.688zm-3.522-.349c-.69-.348-1.083-.437-1.366-.414a2.25 2.25 0 00-1.626.901c-.17.228-.303.609-.373 1.379-.07.763-.071 1.782-.071 3.21v2.68c0 1.428 0 2.447.07 3.21.071.77.204 1.151.374 1.379.386.52.98.85 1.626.901.283.023.676-.066 1.366-.414.685-.346 1.55-.885 2.76-1.642l2.144-1.34c1.092-.682 1.867-1.167 2.42-1.587.552-.42.79-.709.898-.96a2.25 2.25 0 000-1.773c-.108-.252-.346-.54-.899-.96-.552-.42-1.327-.906-2.42-1.588l-2.143-1.34c-1.21-.757-2.075-1.296-2.76-1.642z"/>
</svg>
