<svg xmlns="http://www.w3.org/2000/svg" width="24" height="24" fill="currentColor" viewBox="0 0 24 24">
  <path fill-rule="evenodd" d="M19.052 5.775c-.295-.024-.68-.025-1.252-.025H17a.75.75 0 010-1.5H17.83c.535 0 .98 0 1.345.03.38.03.736.098 1.073.27a2.75 2.75 0 011.202 1.202c.172.337.24.693.27 1.073.03.365.03.81.03 1.345v.66c0 .535 0 .98-.03 1.345-.03.38-.098.736-.27 1.073a2.751 2.751 0 01-1.201 1.202c-.338.172-.694.24-1.074.27-.365.03-.81.03-1.345.03H14.2c-.572 0-.957 0-1.252.025-.288.023-.425.065-.516.111a1.25 1.25 0 00-.546.546c-.046.091-.088.228-.111.515-.024.296-.025.68-.025 1.253v.8a.75.75 0 01-1.5 0V15.17c0-.535 0-.98.03-1.345.03-.38.098-.736.27-1.073a2.751 2.751 0 011.201-1.202c.338-.172.694-.24 1.074-.27.365-.03.81-.03 1.345-.03h3.63c.572 0 .957 0 1.252-.025.288-.023.425-.065.515-.111a1.25 1.25 0 00.547-.546c.046-.091.088-.228.111-.515.024-.296.025-.68.025-1.253v-.6c0-.572 0-.957-.025-1.253-.023-.287-.065-.424-.111-.514a1.25 1.25 0 00-.547-.547c-.09-.046-.227-.088-.515-.111z" opacity=".4"/>
  <path fill-rule="evenodd" d="M8 1.25h-.025c-.445 0-.816 0-1.12.02a2.823 2.823 0 00-.907.19 2.75 2.75 0 00-1.489 1.488c-.12.29-.167.59-.188.907-.021.304-.021.675-.021 1.12v.05c0 .445 0 .816.02 1.12.022.317.07.617.19.907a2.75 2.75 0 001.488 1.489c.29.12.59.167.907.188.304.021.675.021 1.12.021H14.025c.445 0 .816 0 1.12-.02.318-.022.617-.07.907-.19a2.75 2.75 0 001.489-1.488c.12-.29.167-.59.188-.907.021-.304.021-.675.021-1.12v-.05c0-.445 0-.816-.02-1.12a2.822 2.822 0 00-.19-.907 2.75 2.75 0 00-1.488-1.489c-.29-.12-.59-.167-.907-.188-.304-.021-.675-.021-1.12-.021H8zM6.522 2.845c.077-.032.194-.061.435-.078A17.09 17.09 0 018 2.75h6c.476 0 .796 0 1.043.017.241.017.358.046.435.078.307.127.55.37.677.677.032.077.061.194.078.435.017.247.017.567.017 1.043s0 .796-.017 1.043c-.017.241-.046.358-.078.435a1.25 1.25 0 01-.677.677c-.077.032-.194.061-.435.078-.247.017-.567.017-1.043.017H8c-.476 0-.796 0-1.043-.017-.241-.017-.358-.046-.435-.078a1.25 1.25 0 01-.677-.677c-.032-.077-.061-.194-.078-.435A17.09 17.09 0 015.75 5c0-.476 0-.796.017-1.043.017-.241.046-.358.078-.435.127-.307.37-.55.677-.677zM11 15.25A2.75 2.75 0 008.25 18v2a2.75 2.75 0 105.5 0v-2A2.75 2.75 0 0011 15.25zM9.75 18a1.25 1.25 0 112.5 0v2a1.25 1.25 0 11-2.5 0v-2z"/>
</svg>
