<svg xmlns="http://www.w3.org/2000/svg" width="24" height="24" fill="currentColor" viewBox="0 0 24 24">
  <path fill-rule="evenodd" d="M2.403 11.633c1.017-.647 2.04-.585 3.188-.078 1.152.508 2.32 1.416 3.567 2.385l.135.105c1.245.967 2.594 2.004 3.946 2.474.696.241 1.43.349 2.18.202.756-.148 1.461-.54 2.111-1.19l1.5-1.5a.75.75 0 10-1.06-1.061l-1.5 1.5c-.475.474-.92.697-1.338.78-.423.082-.883.032-1.4-.148-1.074-.373-2.223-1.235-3.519-2.241l-.196-.153c-1.191-.927-2.493-1.94-3.82-2.526-1.446-.637-3.03-.814-4.6.185a.75.75 0 10.806 1.266zm17.461 5.517a.274.274 0 01.032-.015h.01a.79.79 0 01.189 0h.009l.032.015.006.004a4.624 4.624 0 01.14.155c.497.578.968 1.369.968 2.247 0 .658-.199 1.078-.427 1.325-.23.25-.529.369-.823.369-.294 0-.593-.119-.823-.37-.228-.246-.427-.666-.427-1.325 0-.878.472-1.668.968-2.246.046-.055.075-.088.1-.116a.47.47 0 01.046-.043zm.727-1.434A1.826 1.826 0 0020 15.63c-.158 0-.39.015-.591.087a1.636 1.636 0 00-.51.285 2.583 2.583 0 00-.305.314l-.015.017c-.592.69-1.329 1.822-1.329 3.223 0 .972.301 1.774.823 2.342.52.564 1.221.853 1.927.853s1.407-.289 1.927-.853c.522-.568.823-1.37.823-2.341 0-1.402-.737-2.533-1.329-3.224l-.015-.017a2.59 2.59 0 00-.304-.314 1.635 1.635 0 00-.51-.285z" opacity=".4"/>
  <path fill-rule="evenodd" d="M13.004 2.566a3.25 3.25 0 00-2.008 0c-.325.105-.665.309-1.14.712-.481.409-1.05.977-1.851 1.778l-2.95 2.949c-.8.8-1.368 1.37-1.777 1.851-.403.475-.606.815-.712 1.14a3.25 3.25 0 000 2.008c.106.325.31.665.712 1.14.409.481.977 1.05 1.778 1.851l.949.95c.8.8 1.37 1.368 1.851 1.777.475.403.815.606 1.14.712a3.25 3.25 0 002.008 0c.325-.106.665-.31 1.14-.712.481-.409 1.05-.977 1.851-1.778l2.95-2.949c.8-.8 1.368-1.37 1.777-1.851.403-.475.606-.815.712-1.14a3.25 3.25 0 000-2.008c-.106-.325-.31-.665-.712-1.14-.409-.481-.977-1.05-1.778-1.851l-.949-.95c-.8-.8-1.37-1.368-1.851-1.777-.475-.403-.815-.607-1.14-.712zm-2.472-1.427a4.75 4.75 0 012.936 0c.588.191 1.101.532 1.647.995.533.453 1.145 1.065 1.917 1.838l.024.023.949.95.023.022c.773.773 1.385 1.385 1.837 1.918.464.546.805 1.059.996 1.647.31.954.31 1.982 0 2.936-.192.588-.532 1.1-.996 1.646-.452.534-1.065 1.146-1.837 1.918l-.023.024-2.95 2.949-.022.023c-.773.772-1.385 1.384-1.918 1.837-.546.464-1.059.804-1.647.995a4.75 4.75 0 01-2.936 0c-.588-.19-1.101-.531-1.647-.995-.533-.453-1.145-1.065-1.917-1.837l-.024-.023-.949-.95-.023-.023c-.772-.772-1.384-1.384-1.837-1.918-.464-.545-.804-1.058-.996-1.646a4.75 4.75 0 010-2.936c.192-.588.532-1.101.996-1.647.453-.533 1.065-1.145 1.837-1.918l.023-.023 2.95-2.949.023-.023c.772-.773 1.384-1.385 1.917-1.838.546-.463 1.059-.804 1.647-.995z"/>
</svg>
