<svg xmlns="http://www.w3.org/2000/svg" width="24" height="24" fill="currentColor" viewBox="0 0 24 24">
  <path fill-rule="evenodd" d="M6.75 12c0-2.9 2.35-5.25 5.25-5.25a.75.75 0 000-1.5 6.75 6.75 0 00-5.625 10.483.75.75 0 101.25-.83A5.222 5.222 0 016.75 12zm9.75-5.031a.75.75 0 00-1 1.118 5.25 5.25 0 01-5.25 8.865.75.75 0 10-.5 1.414A6.75 6.75 0 0016.5 6.969zM12.75 10a.75.75 0 00-1.5 0v4a.75.75 0 001.5 0v-4z" opacity=".4"/>
  <path fill-rule="evenodd" d="M7.7 2.145A10.716 10.716 0 0112 1.25c5.937 0 10.75 4.813 10.75 10.75a.75.75 0 01-1.5 0A9.25 9.25 0 0012 2.75a9.216 9.216 0 00-3.7.77.75.75 0 11-.6-1.375zM4.45 5.4a.75.75 0 01.149 1.05A9.206 9.206 0 002.75 12c0 4.474 3.177 8.208 7.4 9.065a.75.75 0 11-.3 1.47c-4.906-.996-8.6-5.333-8.6-10.535 0-2.42.8-4.654 2.15-6.45a.75.75 0 011.05-.15zm16.588 10.95a.75.75 0 01.273 1.025 10.763 10.763 0 01-7.162 5.16.75.75 0 01-.298-1.47 9.263 9.263 0 006.162-4.44.75.75 0 011.025-.274z"/>
</svg>
