<svg xmlns="http://www.w3.org/2000/svg" width="24" height="24" fill="currentColor" viewBox="0 0 24 24">
  <path fill-rule="evenodd" d="M12.875 9.015l.028.02 1.516 1.01.027.018c.31.207.585.39.794.558.215.174.444.395.574.709.178.429.178.911 0 1.34-.13.314-.359.536-.574.71-.209.167-.483.35-.794.557l-.027.018-1.516 1.01-.028.02c-.38.253-.707.471-.981.62-.275.149-.614.296-.998.274a1.75 1.75 0 01-1.292-.692c-.232-.306-.297-.671-.326-.982-.028-.31-.028-.704-.028-1.16v-2.09c0-.456 0-.849.028-1.16.029-.31.094-.675.326-.982a1.75 1.75 0 011.292-.691c.384-.023.723.125.998.274.274.148.601.366.98.62zm-1.905.605a.25.25 0 00-.16.086c-.006.017-.024.08-.038.226-.021.234-.022.557-.022 1.058v2.02c0 .501 0 .824.022 1.058.014.147.032.209.038.226a.25.25 0 00.16.086c.018-.005.08-.024.21-.094.206-.112.475-.29.892-.568l1.515-1.01c.346-.231.562-.376.71-.496a.86.86 0 00.135-.125.25.25 0 000-.174.848.848 0 00-.134-.124c-.149-.12-.365-.266-.71-.496l-1.516-1.01a13.314 13.314 0 00-.893-.569c-.13-.07-.191-.089-.209-.094z" opacity=".4"/>
  <path fill-rule="evenodd" d="M12 2.75c-.313 0-.622.015-.926.046a.75.75 0 11-.148-1.493c.353-.035.712-.053 1.074-.053 5.937 0 10.75 4.813 10.75 10.75S17.937 22.75 12 22.75c-.362 0-.72-.018-1.074-.053a.75.75 0 01.148-1.493A9.25 9.25 0 1012 2.75zm-3.313-.218a.75.75 0 01-.387.987c-.66.289-1.28.652-1.85 1.08a.75.75 0 11-.9-1.2c.661-.496 1.382-.919 2.15-1.254a.75.75 0 01.987.387zM4.45 5.4a.75.75 0 01.149 1.05 9.241 9.241 0 00-1.08 1.85.75.75 0 01-1.374-.6c.335-.768.758-1.489 1.255-2.15a.75.75 0 011.05-.15zm-2.327 4.854a.75.75 0 01.673.82 9.368 9.368 0 000 1.852.75.75 0 11-1.493.148 10.871 10.871 0 010-2.148.75.75 0 01.82-.672zm.409 5.059a.75.75 0 01.987.387 9.24 9.24 0 001.08 1.85.75.75 0 11-1.2.9 10.74 10.74 0 01-1.254-2.15.75.75 0 01.387-.987zm2.867 4.236a.75.75 0 011.05-.149A9.24 9.24 0 008.3 20.48a.75.75 0 01-.6 1.375A10.74 10.74 0 015.549 20.6a.75.75 0 01-.15-1.05z"/>
</svg>
