<svg xmlns="http://www.w3.org/2000/svg" width="24" height="24" fill="currentColor" viewBox="0 0 24 24">
  <path fill-rule="evenodd" d="M12 1.25A3.75 3.75 0 008.25 5v.5a.75.75 0 001.5 0V5a2.25 2.25 0 014.5 0v.5a.75.75 0 001.5 0V5A3.75 3.75 0 0012 1.25zM2.75 3a.75.75 0 10-1.5 0v1.097c0 .652 0 1.103.104 1.536.091.382.243.748.449 1.084.232.38.551.698 1.012 1.159l.06.06L4.47 9.53a.75.75 0 001.06-1.06L3.936 6.876c-.544-.545-.726-.734-.854-.943a2.25 2.25 0 01-.27-.65c-.057-.24-.062-.502-.062-1.271V3zM22 2.25a.75.75 0 01.75.75v1.097c0 .652 0 1.103-.104 1.536a3.751 3.751 0 01-.449 1.084c-.232.38-.551.698-1.012 1.159l-.06.06L19.53 9.53a.75.75 0 11-1.06-1.06l1.594-1.594c.544-.545.726-.734.854-.943.124-.201.215-.42.27-.65.057-.24.062-.502.062-1.271V3a.75.75 0 01.75-.75zm-3.53 13.22a.75.75 0 011.06 0l1.594 1.594.06.06c.462.46.78.78 1.013 1.16.206.335.358.7.45 1.083.103.433.103.884.103 1.536V22a.75.75 0 01-1.5 0v-1.012c0-.77-.005-1.032-.062-1.27a2.248 2.248 0 00-.27-.651c-.128-.21-.31-.398-.854-.943L18.47 16.53a.75.75 0 010-1.06zm-12.94 0a.75.75 0 010 1.06l-1.594 1.594c-.544.545-.726.734-.854.943a2.25 2.25 0 00-.27.65c-.057.24-.062.502-.062 1.271V22a.75.75 0 01-1.5 0v-1.097c0-.652 0-1.103.104-1.536a3.75 3.75 0 01.449-1.084c.232-.38.551-.698 1.012-1.159l.06-.06L4.47 15.47a.75.75 0 011.06 0z" opacity=".4"/>
  <path fill-rule="evenodd" d="M12 4.25A7.75 7.75 0 004.25 12v3a7.75 7.75 0 0015.5 0v-3A7.75 7.75 0 0012 4.25zM5.75 12a6.25 6.25 0 1112.5 0v3a6.25 6.25 0 01-5.53 6.209.75.75 0 00.03-.209v-6a.75.75 0 00-1.5 0v6c0 .073.01.143.03.209A6.25 6.25 0 015.75 15v-3z"/>
</svg>
