<svg xmlns="http://www.w3.org/2000/svg" width="24" height="24" fill="currentColor" viewBox="0 0 24 24">
  <path fill-rule="evenodd" d="M12 1.25h-.067c-2.178 0-3.79 0-5.04.18a.75.75 0 10.214 1.484C8.237 2.752 9.74 2.75 12 2.75c1.883 0 3.245 0 4.312.097 1.057.096 1.75.281 2.313.606a5.25 5.25 0 011.922 1.922c.325.563.51 1.256.606 2.313.096 1.067.097 2.429.097 4.312 0 2.26-.002 3.763-.164 4.893a.75.75 0 001.484.214c.18-1.25.18-2.862.18-5.04V11.962c0-1.837 0-3.267-.104-4.41-.105-1.16-.322-2.098-.8-2.927a6.75 6.75 0 00-2.471-2.47c-.83-.48-1.767-.696-2.927-.801-1.143-.104-2.573-.104-4.41-.104H12zm-9.47.22a.75.75 0 00-1.06 1.06l1.256 1.257a6.75 6.75 0 00-.572.838c-.478.83-.695 1.767-.8 2.927-.104 1.143-.104 2.573-.104 4.41v.076c0 1.837 0 3.267.104 4.41.105 1.16.322 2.098.8 2.927a6.75 6.75 0 002.471 2.47c.83.48 1.767.696 2.927.802 1.143.103 2.573.103 4.41.103h.076c1.837 0 3.267 0 4.41-.104 1.16-.105 2.098-.322 2.927-.8a6.75 6.75 0 00.838-.572l1.257 1.256a.75.75 0 101.06-1.06l-1.757-1.758L4.288 3.227 2.53 1.47zm.923 3.905c.104-.18.219-.353.342-.519l15.349 15.349a5.257 5.257 0 01-.519.342c-.563.325-1.256.51-2.313.606-1.067.096-2.429.097-4.312.097-1.883 0-3.245 0-4.312-.097-1.057-.096-1.75-.281-2.313-.606a5.25 5.25 0 01-1.922-1.922c-.325-.563-.51-1.256-.606-2.313-.096-1.067-.097-2.429-.097-4.312 0-1.883 0-3.245.097-4.312.096-1.057.281-1.75.606-2.313zM14.75 8a1.25 1.25 0 112.5 0 1.25 1.25 0 01-2.5 0zM16 5.25a2.75 2.75 0 100 5.5 2.75 2.75 0 000-5.5z" opacity=".4"/>
  <path fill-rule="evenodd" d="M2.53 1.47a.75.75 0 00-1.06 1.06l1.256 1.257a6.75 6.75 0 00-.572.838c-.478.83-.695 1.767-.8 2.927-.104 1.143-.104 2.573-.104 4.41v.076c0 1.837 0 3.267.104 4.41.105 1.16.322 2.098.8 2.927a6.75 6.75 0 002.471 2.47c.83.48 1.767.696 2.927.802 1.143.103 2.573.103 4.41.103h.076c1.837 0 3.267 0 4.41-.104 1.16-.105 2.098-.322 2.927-.8a6.75 6.75 0 00.838-.572l1.257 1.256a.75.75 0 101.06-1.06l-1.757-1.758L4.288 3.227 2.53 1.47zm.923 3.905c.104-.18.219-.353.342-.519l15.349 15.349a5.257 5.257 0 01-.519.342c-.409.236-.887.398-1.523.506a.749.749 0 00-.072-.083l-6.237-6.238-.021-.021a17.823 17.823 0 00-.972-.93c-.29-.246-.59-.451-.95-.568a2.75 2.75 0 00-1.7 0c-.36.117-.66.322-.95.568-.279.237-.594.552-.972.93l-.021.021-2.275 2.276a10.69 10.69 0 01-.085-.696C2.751 15.245 2.75 13.883 2.75 12c0-1.883 0-3.245.097-4.312.096-1.057.281-1.75.606-2.313zm-.01 13.23l.01.02a5.25 5.25 0 001.922 1.922c.563.325 1.256.51 2.313.606 1.067.096 2.429.097 4.312.097 1.266 0 2.296 0 3.16-.03l-5.428-5.427c-.404-.405-.676-.676-.903-.868-.22-.187-.346-.254-.443-.285a1.25 1.25 0 00-.772 0c-.097.031-.224.098-.443.285-.227.192-.499.463-.903.868L3.53 18.53a.754.754 0 01-.088.076z"/>
</svg>
