<svg xmlns="http://www.w3.org/2000/svg" width="24" height="24" fill="currentColor" viewBox="0 0 24 24">
  <path fill-rule="evenodd" d="M4 2.75a1.25 1.25 0 100 2.5 1.25 1.25 0 000-2.5zM1.25 4a2.75 2.75 0 115.5 0 2.75 2.75 0 01-5.5 0zM12 18.75a1.25 1.25 0 100 2.5 1.25 1.25 0 000-2.5zM9.25 20a2.75 2.75 0 115.5 0 2.75 2.75 0 01-5.5 0zm9.5-16a1.25 1.25 0 112.5 0 1.25 1.25 0 01-2.5 0zM20 1.25a2.75 2.75 0 100 5.5 2.75 2.75 0 000-5.5z" opacity=".4"/>
  <path fill-rule="evenodd" d="M10.75 4a1.25 1.25 0 112.5 0 1.25 1.25 0 01-2.5 0zM12 1.25a2.75 2.75 0 100 5.5 2.75 2.75 0 000-5.5zM2.75 12a1.25 1.25 0 112.5 0 1.25 1.25 0 01-2.5 0zM4 9.25a2.75 2.75 0 100 5.5 2.75 2.75 0 000-5.5zm8 1.5a1.25 1.25 0 100 2.5 1.25 1.25 0 000-2.5zM9.25 12a2.75 2.75 0 115.5 0 2.75 2.75 0 01-5.5 0zm9.5 0a1.25 1.25 0 112.5 0 1.25 1.25 0 01-2.5 0zM20 9.25a2.75 2.75 0 100 5.5 2.75 2.75 0 000-5.5z"/>
</svg>
