<svg xmlns="http://www.w3.org/2000/svg" width="24" height="24" fill="currentColor" viewBox="0 0 24 24">
  <path fill-rule="evenodd" d="M12 2.75c-2.968 0-5.917.491-7.723 1.21a.75.75 0 11-.554-1.394C5.759 1.756 8.91 1.25 12 1.25c3.089 0 6.24.506 8.277 1.316a.75.75 0 01-.554 1.394C17.917 3.24 14.968 2.75 12 2.75z" opacity=".4"/>
  <path fill-rule="evenodd" d="M4.697 2.986a.75.75 0 01-.42.974c-.578.23-.996.466-1.255.686-.263.221-.272.343-.272.353 0 .004.004.042.05.12.054.089.149.205.302.342.307.274.78.57 1.392.844 1.22.546 2.866.945 4.506.945a.75.75 0 01.75.75v14a.75.75 0 01-.75.75c-1.606 0-3.452-.398-4.909-.993-.728-.298-1.397-.661-1.9-1.08-.477-.398-.941-.964-.941-1.677V5c0-.64.38-1.143.804-1.5.433-.366 1.015-.674 1.669-.934a.75.75 0 01.974.42zM2.75 7.068V19c0 .037.036.22.402.525.342.285.86.578 1.507.843 1.068.437 2.381.754 3.591.85V8.727c-1.601-.1-3.153-.508-4.369-1.052a8.382 8.382 0 01-1.131-.606zm16.553-4.082a.75.75 0 01.974-.42c.654.26 1.236.568 1.669.933.424.358.804.86.804 1.501v14c0 .636-.318 1.19-.745 1.626-.429.438-1.017.814-1.697 1.12-1.364.614-3.223 1.004-5.308 1.004a.75.75 0 01-.75-.75V8a.75.75 0 01.75-.75c1.9 0 3.54-.404 4.681-.94.573-.268.993-.557 1.258-.822.279-.277.311-.447.311-.488 0-.007-.004-.128-.272-.354-.26-.22-.677-.456-1.255-.686a.75.75 0 01-.42-.974zM21.25 7.15c-.281.186-.594.36-.931.518-1.195.56-2.777.971-4.569 1.062v12.5c1.593-.08 2.958-.41 3.942-.853.57-.256.982-.536 1.24-.8.261-.267.318-.464.318-.578V7.151z"/>
</svg>
