<svg xmlns="http://www.w3.org/2000/svg" width="24" height="24" fill="currentColor" viewBox="0 0 24 24">
  <path fill-rule="evenodd" d="M20.53 2.53a.75.75 0 00-1.06-1.06l-1 1-5.5 5.5-2 2a.75.75 0 101.06 1.06l1.716-1.716 4.607.921a.75.75 0 00.677-.205l3.5-3.5a.75.75 0 000-1.06L20.06 3l.47-.47zM19 4.06l-3.979 3.98 3.232.646L20.94 6 19 4.06z" opacity=".4"/>
  <path fill-rule="evenodd" d="M8 10.75a5.25 5.25 0 100 10.5 5.25 5.25 0 000-10.5zM1.25 16a6.75 6.75 0 1113.5 0 6.75 6.75 0 01-13.5 0z"/>
</svg>
