<svg xmlns="http://www.w3.org/2000/svg" width="24" height="24" fill="currentColor" viewBox="0 0 24 24">
  <g clip-path="url(#clip0_2029:3964)">
    <path fill-rule="evenodd" d="M18.074 1.982a.75.75 0 10-1.148-.964l-5.242 6.24a.592.592 0 00-.018.02l-5.24 6.24a.75.75 0 001.148.964l4.676-5.566 4.676 5.566a.75.75 0 101.148-.964L13.23 7.75l4.845-5.768zm-11.648 0a.75.75 0 111.148-.964l3.36 4a.75.75 0 11-1.148.964l-3.36-4z" opacity=".4"/>
    <path fill-rule="evenodd" d="M14.75 18a3.25 3.25 0 116.5 0 3.25 3.25 0 01-6.5 0zM18 13.25a4.75 4.75 0 100 9.5 4.75 4.75 0 000-9.5zM2.75 18a3.25 3.25 0 116.5 0 3.25 3.25 0 01-6.5 0zM6 13.25a4.75 4.75 0 100 9.5 4.75 4.75 0 000-9.5z"/>
  </g>
  <defs>
    <clipPath id="clip0_2029:3964">
      <path d="M0 0h24v24H0z"/>
    </clipPath>
  </defs>
</svg>
