<svg xmlns="http://www.w3.org/2000/svg" width="24" height="24" fill="currentColor" viewBox="0 0 24 24">
  <path fill-rule="evenodd" d="M5.89 9.064a.75.75 0 011.046-.174l.82.585.095.068c.89.636 1.464 1.046 1.886 1.583.373.475.651 1.017.821 1.596.192.656.192 1.36.192 2.455V20a1.25 1.25 0 102.5 0v-3a.75.75 0 011.5 0v3a2.75 2.75 0 11-5.5 0v-4.706c0-1.252-.007-1.726-.131-2.15a3.25 3.25 0 00-.562-1.092c-.273-.347-.655-.629-1.673-1.356l-.82-.586a.75.75 0 01-.174-1.046z" opacity=".4"/>
  <path fill-rule="evenodd" d="M2.25 3.635A2.385 2.385 0 014.635 1.25h14.73a2.385 2.385 0 012.385 2.385 7.29 7.29 0 01-3.052 5.931l-1.929 1.378c-.665.475-.917.659-1.116.867a3.25 3.25 0 00-.847 1.644c-.053.283-.056.594-.056 1.412V17a.75.75 0 01-1.5 0v-2.133-.076c0-.716 0-1.177.083-1.615a4.75 4.75 0 011.236-2.403c.309-.322.683-.59 1.266-1.006l.062-.044 1.929-1.377a5.79 5.79 0 002.424-4.711.885.885 0 00-.885-.885H4.635a.885.885 0 00-.885.885 5.79 5.79 0 002.424 4.71l.762.545a.75.75 0 11-.872 1.22l-.762-.544A7.29 7.29 0 012.25 3.635z"/>
</svg>
