<svg xmlns="http://www.w3.org/2000/svg" width="24" height="24" fill="currentColor" viewBox="0 0 24 24">
  <path fill-rule="evenodd" d="M21 14.25a.75.75 0 01.75.75h-1.5a.75.75 0 01.75-.75zm0 .75h-.75V21a.75.75 0 001.5 0V15H21z" opacity=".4"/>
  <path fill-rule="evenodd" d="M8.53 2.47a.75.75 0 010 1.06L4.81 7.25h9.828c1.09 0 1.955 0 2.652.057.712.058 1.315.18 1.867.46a4.75 4.75 0 012.075 2.077c.281.55.403 1.154.461 1.868.057.697.057 1.563.057 2.655V15a.75.75 0 01-1.5 0v-.6c0-1.133 0-1.937-.052-2.566-.05-.62-.147-1.005-.302-1.31a3.25 3.25 0 00-1.42-1.42c-.305-.155-.69-.251-1.309-.302-.628-.051-1.431-.052-2.562-.052H4.81l3.72 3.72a.75.75 0 11-1.061 1.06l-5-5a.75.75 0 010-1.06l5-5a.75.75 0 011.06 0z"/>
</svg>
