<svg xmlns="http://www.w3.org/2000/svg" width="24" height="24" fill="currentColor" viewBox="0 0 24 24">
  <path fill-rule="evenodd" d="M14.75 2.5a.75.75 0 00-1.5 0V4.83c0 .535 0 .98.03 1.345.03.38.098.736.27 1.074A2.75 2.75 0 0014.75 8.45c.338.172.694.24 1.074.27.365.03.81.03 1.345.03H19.5a.75.75 0 000-1.5h-2.3c-.572 0-.957 0-1.252-.025-.288-.023-.425-.065-.516-.111a1.25 1.25 0 01-.546-.546c-.046-.091-.088-.228-.111-.515-.024-.296-.025-.68-.025-1.253V2.5zM4.75 16a.75.75 0 00-1.5 0v.54c0 .426 0 .686.018.911a5.75 5.75 0 005.28 5.281c.226.018.486.018.912.018h5.08c.426 0 .686 0 .911-.018a5.75 5.75 0 005.281-5.28c.018-.226.018-.486.018-.912V16a.75.75 0 00-1.5 0v.5c0 .479 0 .674-.013.834a4.25 4.25 0 01-3.903 3.903c-.16.012-.355.013-.834.013h-5c-.479 0-.674 0-.833-.013a4.25 4.25 0 01-3.904-3.903c-.012-.16-.013-.355-.013-.834V16z" opacity=".4"/>
  <path fill-rule="evenodd" d="M11.778 2.75c1.165 0 1.635.004 2.07.1.485.108.946.3 1.364.566.377.24.712.569 1.536 1.393l.378.378c.89.89 1.246 1.252 1.498 1.663.233.38.405.795.509 1.229.112.469.117.976.117 2.235v.936H4.75V9.778c0-1.307 0-2.245.056-2.984.056-.73.162-1.204.342-1.59a4.25 4.25 0 012.056-2.056c.386-.18.86-.286 1.59-.342.739-.055 1.677-.056 2.984-.056zm-8.528 8.5V9.748c0-1.27 0-2.265.06-3.067.063-.816.19-1.493.479-2.111a5.75 5.75 0 012.78-2.781c.62-.289 1.296-.416 2.112-.478.802-.061 1.797-.061 3.066-.061h.123c1.045 0 1.688 0 2.304.136a5.75 5.75 0 011.844.764c.532.34.987.794 1.726 1.533l.064.065.38.379.07.07c.797.797 1.289 1.289 1.645 1.87a5.75 5.75 0 01.688 1.662c.16.662.16 1.357.159 2.486V11.25H22a.75.75 0 010 1.5H2a.75.75 0 010-1.5h1.25z"/>
</svg>
