<svg xmlns="http://www.w3.org/2000/svg" width="24" height="24" fill="currentColor" viewBox="0 0 24 24">
  <path fill-rule="evenodd" d="M20.221 1.364a2.75 2.75 0 00-2.442 0c-.407.202-.763.559-1.224 1.02l-.085.086-2 2a.75.75 0 001.06 1.06l2-2c.588-.588.759-.744.915-.822a1.25 1.25 0 011.11 0c.156.078.327.234.915.822.588.588.744.759.822.915.173.35.173.76 0 1.11-.078.156-.234.327-.822.915l-2 2a.75.75 0 001.06 1.06l2-2 .086-.086c.461-.46.818-.816 1.02-1.223a2.75 2.75 0 000-2.442c-.202-.407-.559-.763-1.02-1.223l-.086-.086-.085-.086c-.46-.461-.817-.818-1.224-1.02zM7.531 13.47a.75.75 0 00-1.061 1.06l3 3a.75.75 0 001.06-1.06l-3-3z" opacity=".4"/>
  <path fill-rule="evenodd" d="M13.004 4.566a3.25 3.25 0 00-2.008 0c-.325.106-.665.31-1.14.712-.481.409-1.05.977-1.851 1.778l-2.95 2.949c-.8.8-1.368 1.37-1.777 1.851-.403.475-.606.815-.712 1.14a3.25 3.25 0 000 2.008c.106.325.31.665.712 1.14.409.481.977 1.05 1.778 1.851l.949.95c.8.8 1.37 1.368 1.851 1.777.475.403.815.606 1.14.712a3.25 3.25 0 002.008 0c.325-.106.665-.31 1.14-.712.481-.409 1.05-.977 1.851-1.778l2.95-2.949c.8-.8 1.368-1.37 1.777-1.851.403-.475.606-.815.712-1.14a3.25 3.25 0 000-2.008c-.106-.325-.31-.665-.712-1.14-.409-.481-.977-1.05-1.778-1.851l-.949-.95c-.8-.8-1.37-1.368-1.851-1.777-.475-.403-.815-.606-1.14-.712zm-2.472-1.427a4.75 4.75 0 012.936 0c.588.192 1.101.532 1.647.996.533.453 1.145 1.065 1.917 1.837l.024.023.949.95.023.023c.773.772 1.385 1.384 1.837 1.917.464.546.805 1.059.996 1.647a4.75 4.75 0 010 2.936c-.192.588-.532 1.101-.996 1.647-.452.533-1.064 1.145-1.837 1.917l-.023.024-2.95 2.949-.022.023c-.773.772-1.385 1.385-1.918 1.837-.546.464-1.059.805-1.647.996-.954.31-1.982.31-2.936 0-.588-.192-1.101-.532-1.647-.996-.533-.452-1.145-1.064-1.917-1.837l-.024-.023-.949-.95-.023-.023c-.772-.772-1.384-1.384-1.837-1.917-.464-.546-.804-1.059-.996-1.647a4.75 4.75 0 010-2.936c.192-.588.532-1.101.996-1.647.453-.533 1.065-1.145 1.837-1.917l.023-.024 2.95-2.949.023-.023C7.74 5.2 8.352 4.588 8.885 4.135c.546-.464 1.059-.804 1.647-.996z"/>
</svg>
