<svg xmlns="http://www.w3.org/2000/svg" width="24" height="24" fill="currentColor" viewBox="0 0 24 24">
  <path fill-rule="evenodd" d="M8.25 10A.75.75 0 019 9.25h6a.75.75 0 010 1.5H9a.75.75 0 01-.75-.75z" opacity=".4"/>
  <path fill-rule="evenodd" d="M4 1.25a2.75 2.75 0 00-.75 5.396v8.987c0 1.092 0 1.958.057 2.655.058.714.18 1.317.46 1.869a4.75 4.75 0 002.077 2.075c.55.281 1.154.403 1.868.461.697.057 1.563.057 2.655.057h3.266c1.092 0 1.958 0 2.655-.057.714-.058 1.317-.18 1.869-.46a4.75 4.75 0 002.075-2.076c.281-.552.403-1.155.461-1.869.057-.697.057-1.563.057-2.655V6.646A2.751 2.751 0 0020 1.25H4zm15.25 5.5H4.75v8.85c0 1.133 0 1.937.052 2.566.05.62.147 1.005.302 1.31a3.25 3.25 0 001.42 1.42c.305.155.69.251 1.31.302.63.051 1.434.052 2.566.052h3.2c1.133 0 1.937 0 2.566-.052.62-.05 1.005-.147 1.31-.302a3.25 3.25 0 001.42-1.42c.155-.305.251-.69.302-1.31.051-.63.052-1.433.052-2.566V6.75zM2.75 4c0-.69.56-1.25 1.25-1.25h16a1.25 1.25 0 110 2.5H4c-.69 0-1.25-.56-1.25-1.25z"/>
</svg>
