<svg xmlns="http://www.w3.org/2000/svg" width="24" height="24" fill="currentColor" viewBox="0 0 24 24">
  <path fill-rule="evenodd" d="M17.296 9.993a.75.75 0 01.961-.447c2.618.955 4.493 3.454 4.493 6.393 0 3.768-3.078 6.811-6.86 6.811a6.867 6.867 0 01-4.365-1.555.75.75 0 01.95-1.16 5.367 5.367 0 003.414 1.215c2.967 0 5.361-2.384 5.361-5.31 0-2.284-1.456-4.236-3.507-4.985a.75.75 0 01-.447-.962z" opacity=".4"/>
  <path fill-rule="evenodd" d="M6.75 8a5.25 5.25 0 1110.5 0 5.25 5.25 0 01-10.5 0zM12 1.25a6.75 6.75 0 00-6.551 8.382A6.813 6.813 0 001.25 15.94c0 3.755 3.015 6.811 6.75 6.811s6.75-3.056 6.75-6.81c0-.581-.072-1.146-.208-1.685A6.752 6.752 0 0012 1.25zm1.097 13.411a6.75 6.75 0 01-7.126-3.622 5.313 5.313 0 00-3.221 4.9c0 2.94 2.358 5.311 5.25 5.311s5.25-2.37 5.25-5.31c0-.442-.053-.87-.153-1.279z"/>
</svg>
