<svg xmlns="http://www.w3.org/2000/svg" width="24" height="24" fill="currentColor" viewBox="0 0 24 24">
  <path fill-rule="evenodd" d="M14.445 1.896a.75.75 0 01.159 1.049L11.432 7.25H21a.75.75 0 010 1.5h-5.482l5.578 7.294a.75.75 0 11-1.192.912L17.04 13.21l-6.436 8.735a.75.75 0 11-1.208-.89l3.172-4.305H3a.75.75 0 010-1.5h5.482L2.904 7.956a.75.75 0 011.192-.912L6.96 10.79l6.436-8.735a.75.75 0 011.049-.159zm-.816 6.854h-3.303L7.91 12.03l2.462 3.22h3.303l2.417-3.28-2.462-3.22z" opacity=".4"/>
  <path fill-rule="evenodd" d="M12 2.75a9.25 9.25 0 100 18.5 9.25 9.25 0 000-18.5zM1.25 12C1.25 6.063 6.063 1.25 12 1.25S22.75 6.063 22.75 12 17.937 22.75 12 22.75 1.25 17.937 1.25 12z"/>
</svg>
