<svg xmlns="http://www.w3.org/2000/svg" width="24" height="24" fill="currentColor" viewBox="0 0 24 24">
  <path fill-rule="evenodd" d="M22 3a1 1 0 11-2 0 1 1 0 012 0zm0 5a1 1 0 11-2 0 1 1 0 012 0zm0 4a1 1 0 11-2 0 1 1 0 012 0zm0 4a1 1 0 11-2 0 1 1 0 012 0zM3 22a1 1 0 100-2 1 1 0 000 2zm5-1a1 1 0 11-2 0 1 1 0 012 0zm9 1a1 1 0 100-2 1 1 0 000 2zm4 0a1 1 0 100-2 1 1 0 000 2zM3 17a1 1 0 100-2 1 1 0 000 2zm14-4a1 1 0 100-2 1 1 0 000 2zm-9-1a1 1 0 11-2 0 1 1 0 012 0zm-5 1a1 1 0 100-2 1 1 0 000 2zm0-4a1 1 0 100-2 1 1 0 000 2zm14-5a1 1 0 100-2 1 1 0 000 2zM8 3a1 1 0 11-2 0 1 1 0 012 0zM3 4a1 1 0 100-2 1 1 0 000 2z" opacity=".4"/>
  <path fill-rule="evenodd" d="M12 1.25a.75.75 0 01.75.75v20a.75.75 0 01-1.5 0V2a.75.75 0 01.75-.75z"/>
</svg>
