<svg xmlns="http://www.w3.org/2000/svg" width="24" height="24" fill="currentColor" viewBox="0 0 24 24">
  <path fill-rule="evenodd" d="M11.75 8a.75.75 0 00-1.5 0v2.25H8a.75.75 0 000 1.5h2.25V14a.75.75 0 001.5 0v-2.25H14a.75.75 0 000-1.5h-2.25V8zm6.28 8.97a.75.75 0 10-1.06 1.06l3.5 3.5a.75.75 0 101.06-1.06l-3.5-3.5z" opacity=".4"/>
  <path fill-rule="evenodd" d="M11 2.75a8.25 8.25 0 100 16.5 8.25 8.25 0 000-16.5zM1.25 11c0-5.385 4.365-9.75 9.75-9.75s9.75 4.365 9.75 9.75-4.365 9.75-9.75 9.75S1.25 16.385 1.25 11z"/>
</svg>
