<svg xmlns="http://www.w3.org/2000/svg" width="24" height="24" fill="currentColor" viewBox="0 0 24 24">
  <path fill-rule="evenodd" d="M9 1.25a.75.75 0 01.75.75v4a.75.75 0 01-1.5 0V2A.75.75 0 019 1.25zm4 0a.75.75 0 01.75.75v2a.75.75 0 01-1.5 0V2a.75.75 0 01.75-.75zM4.372 8.349l.005.002.024.014.106.056c.096.05.24.124.43.213.378.178.931.417 1.622.658 1.384.481 3.299.958 5.441.958s4.057-.477 5.441-.958c.69-.24 1.244-.48 1.623-.658a11.442 11.442 0 00.535-.27l.024-.013.005-.002a.75.75 0 01.744 1.302L20 9l.372.651-.002.001-.003.002-.01.006-.037.02-.131.07c-.114.06-.277.143-.487.241-.418.197-1.021.457-1.768.717-1.49.519-3.576 1.042-5.934 1.042s-4.443-.523-5.934-1.042c-.747-.26-1.35-.52-1.768-.717a12.925 12.925 0 01-.618-.31l-.036-.02-.01-.007-.004-.002h-.001L4 9l-.372.651a.75.75 0 01.744-1.302z" opacity=".4"/>
  <path fill-rule="evenodd" d="M3.25 5.168A3.918 3.918 0 017.168 1.25h9.664a3.918 3.918 0 013.918 3.918v5.43a4.637 4.637 0 01-2.563 4.147l-2.114 1.057a1.88 1.88 0 00-1.014 1.991l.188 1.125a3.291 3.291 0 11-6.494 0l.188-1.125a1.88 1.88 0 00-1.014-1.991l-2.114-1.057a4.637 4.637 0 01-2.563-4.147v-5.43zM7.168 2.75A2.418 2.418 0 004.75 5.168v5.43c0 1.188.671 2.274 1.734 2.805l2.114 1.057a3.38 3.38 0 011.822 3.58l-.187 1.124a1.791 1.791 0 103.534 0l-.187-1.124a3.38 3.38 0 011.822-3.58l2.114-1.057a3.137 3.137 0 001.734-2.805v-5.43a2.418 2.418 0 00-2.418-2.418H7.168z"/>
</svg>
