<svg xmlns="http://www.w3.org/2000/svg" width="24" height="24" fill="currentColor" viewBox="0 0 24 24">
  <path fill-rule="evenodd" d="M12.75 14a.75.75 0 00-1.5 0v3.326H9.33a.75.75 0 00-.665 1.345L9 18l-.335.671.002.001.003.001.006.003.017.009.053.024c.044.018.103.043.178.071.15.057.366.128.644.198.558.139 1.369.272 2.432.272s1.874-.133 2.432-.272c.278-.07.493-.141.644-.198a3.617 3.617 0 00.23-.095l.018-.009.007-.003.002-.001h.001c.001-.001.001-.001-.334-.672l.335.67a.75.75 0 00-.665-1.344h-1.92V14zm-1.5 3.326H9.33a4.49 4.49 0 00.602.196c.314.079.754.16 1.318.202v-.398zm1.5.398v-.398h1.92a4.5 4.5 0 01-.602.196c-.314.079-.754.16-1.318.202z" opacity=".4"/>
  <path fill-rule="evenodd" d="M12 2.75A7.25 7.25 0 004.75 10c0 2.587 1.98 4.745 3.439 5.966.902.754 1.561 1.878 1.561 3.146 0 1.18.957 2.138 2.138 2.138h.239c1.172 0 2.123-.95 2.123-2.123 0-1.28.673-2.409 1.584-3.162C17.287 14.762 19.25 12.63 19.25 10A7.25 7.25 0 0012 2.75zM3.25 10a8.75 8.75 0 0117.5 0c0 3.35-2.45 5.871-3.96 7.12-.644.534-1.04 1.267-1.04 2.007a3.623 3.623 0 01-3.623 3.623h-.24a3.638 3.638 0 01-3.637-3.638c0-.736-.388-1.464-1.023-1.996C5.723 15.858 3.25 13.31 3.25 10z"/>
</svg>
