<svg xmlns="http://www.w3.org/2000/svg" width="24" height="24" fill="currentColor" viewBox="0 0 24 24">
  <path fill-rule="evenodd" d="M6.25 3A.75.75 0 017 2.25h10a.75.75 0 010 1.5h-4.25V13a.75.75 0 01-1.5 0V3.75H7A.75.75 0 016.25 3z" opacity=".4"/>
  <path fill-rule="evenodd" d="M22.53 18.47a.75.75 0 010 1.06l-2.5 2.5a.75.75 0 01-1.06-1.06l1.22-1.22H3.81l1.22 1.22a.75.75 0 11-1.06 1.06l-2.5-2.5a.75.75 0 010-1.06l2.5-2.5a.75.75 0 011.06 1.06l-1.22 1.22h16.38l-1.22-1.22a.75.75 0 111.06-1.06l2.5 2.5z"/>
</svg>
