<svg xmlns="http://www.w3.org/2000/svg" width="24" height="24" fill="currentColor" viewBox="0 0 24 24">
  <path fill-rule="evenodd" d="M10.75 11a1.25 1.25 0 112.5 0 1.25 1.25 0 01-2.5 0zM12 8.25a2.75 2.75 0 100 5.5 2.75 2.75 0 000-5.5zm5.665 2.079a.75.75 0 01.785.07l2.08 1.56.083.063c.624.468 1.056.791 1.374 1.21.282.371.491.79.619 1.238.145.506.144 1.046.144 1.826V20a.75.75 0 01-.932.727l-4-1A.75.75 0 0117.25 19v-8a.75.75 0 01.415-.671zm1.085 2.17v5.915l2.5.625V16.4c0-.923-.007-1.238-.086-1.517a2.248 2.248 0 00-.372-.742c-.175-.232-.423-.426-1.162-.98l-.88-.66zM6.336 10.33a.75.75 0 01.414.67v8a.75.75 0 01-.568.728l-4 1A.75.75 0 011.25 20v-3.704c0-.78 0-1.32.144-1.826a3.75 3.75 0 01.619-1.237c.318-.42.75-.743 1.374-1.211l.083-.062 2.08-1.56a.75.75 0 01.786-.071zm-1.086 2.17l-.88.66c-.739.555-.987.75-1.162.98a2.25 2.25 0 00-.371.743c-.08.279-.087.594-.087 1.518v2.64l2.5-.626V12.5z" opacity=".4"/>
  <path fill-rule="evenodd" d="M11.338 2.938a2.25 2.25 0 011.324 0c.203.062.426.184.76.447.34.27.746.644 1.33 1.185l.687.636c.784.726 1.077 1.005 1.285 1.325.196.3.34.63.427.977.094.37.1.776.1 1.844V16c0 .942-.001 1.611-.037 2.137-.036.52-.103.846-.211 1.107a3.25 3.25 0 01-1.76 1.759c-.26.108-.586.175-1.105.21-.375.026-.822.034-1.388.036v-2.25a.75.75 0 00-1.5 0v2.25a22.562 22.562 0 01-1.387-.035c-.52-.036-.846-.103-1.107-.211a3.25 3.25 0 01-1.758-1.76c-.109-.26-.176-.586-.212-1.105-.035-.527-.036-1.196-.036-2.138V9.352c0-1.068.005-1.474.099-1.844a3.25 3.25 0 01.427-.977c.208-.32.502-.6 1.285-1.325l.688-.636c.583-.54.99-.916 1.33-1.185.333-.263.556-.385.759-.447zm1.766-1.433a3.75 3.75 0 00-2.208 0c-.45.138-.841.383-1.246.703-.393.31-.842.726-1.398 1.24l-.023.021-.687.636-.072.067c-.687.636-1.13 1.046-1.452 1.541a4.75 4.75 0 00-.624 1.428c-.144.573-.144 1.176-.144 2.112v6.774c0 .909 0 1.63.04 2.213.04.596.125 1.104.322 1.578a4.75 4.75 0 002.57 2.57c.475.197.982.281 1.578.322.584.04 1.304.04 2.213.04h.054c.91 0 1.63 0 2.213-.04.596-.04 1.104-.125 1.578-.322a4.75 4.75 0 002.57-2.57c.197-.475.282-.982.322-1.578.04-.584.04-1.304.04-2.213V9.253c0-.936 0-1.539-.144-2.112a4.748 4.748 0 00-.624-1.428c-.322-.495-.765-.905-1.452-1.54l-.072-.068-.687-.636-.023-.02c-.555-.515-1.005-.931-1.397-1.241-.405-.32-.796-.565-1.247-.703z"/>
</svg>
