<svg xmlns="http://www.w3.org/2000/svg" width="24" height="24" fill="currentColor" viewBox="0 0 24 24">
  <path fill-rule="evenodd" d="M11.362 1.606a.75.75 0 011.032-.244L12 2l.394-.638.003.002.006.003.02.013.074.047a21.504 21.504 0 011.207.856 24.296 24.296 0 012.839 2.533c2.049 2.15 4.207 5.292 4.207 9.036a.75.75 0 01-1.5 0c0-3.17-1.842-5.954-3.793-8.001a22.798 22.798 0 00-3.535-3.005 12.563 12.563 0 00-.3-.198l-.014-.008-.002-.002a.75.75 0 01-.244-1.032zm.243 1.032z" opacity=".4"/>
  <path fill-rule="evenodd" d="M12.394 2.638l-.003.001-.014.01a7.33 7.33 0 00-.3.197A22.802 22.802 0 008.542 5.85c-1.95 2.047-3.792 4.831-3.792 8 0 2.518.92 4.348 2.253 5.556C8.35 20.625 10.163 21.25 12 21.25c1.836 0 3.65-.625 4.997-1.843 1.333-1.208 2.253-3.038 2.253-5.556a.75.75 0 011.5 0c0 2.915-1.08 5.159-2.747 6.668-1.653 1.497-3.84 2.23-6.003 2.23-2.164 0-4.35-.733-6.003-2.23-1.667-1.51-2.747-3.753-2.747-6.667 0-3.745 2.158-6.887 4.207-9.036a24.3 24.3 0 013.778-3.211 14.45 14.45 0 01.341-.225l.02-.013.007-.004h.002v-.001L12 2l-.394-.639a.75.75 0 01.788 1.277z"/>
</svg>
