<svg xmlns="http://www.w3.org/2000/svg" width="24" height="24" fill="currentColor" viewBox="0 0 24 24">
  <path fill-rule="evenodd" d="M9.214 7.402c.176-.816.398-1.555.654-2.195.34-.852.728-1.492 1.12-1.906.39-.412.732-.551 1.012-.551s.622.139 1.012.551c.392.414.78 1.054 1.12 1.906.256.64.478 1.38.655 2.196-.89-.1-1.825-.153-2.787-.153s-1.896.053-2.786.152zm-1.578.234c.207-1.107.491-2.116.84-2.986.382-.957.857-1.782 1.422-2.38.567-.599 1.277-1.02 2.102-1.02s1.535.421 2.102 1.02c.565.598 1.04 1.423 1.423 2.38.348.87.632 1.879.839 2.986 1.107.207 2.116.491 2.986.84.957.382 1.782.857 2.38 1.422.599.567 1.02 1.277 1.02 2.102s-.421 1.535-1.02 2.102c-.598.565-1.423 1.04-2.38 1.423-.87.348-1.879.632-2.986.839-.207 1.107-.491 2.116-.84 2.986-.382.957-.857 1.782-1.422 2.38-.567.599-1.277 1.02-2.102 1.02s-1.535-.421-2.102-1.02c-.565-.598-1.04-1.423-1.423-2.38-.348-.87-.632-1.879-.839-2.986-1.107-.207-2.116-.491-2.986-.84-.957-.382-1.782-.857-2.38-1.422-.599-.567-1.02-1.277-1.02-2.102s.421-1.535 1.02-2.102c.598-.565 1.423-1.04 2.38-1.423.87-.348 1.879-.632 2.986-.839zm-.234 7.15a13.862 13.862 0 01-2.195-.654c-.852-.34-1.492-.728-1.906-1.12-.412-.39-.551-.732-.551-1.012s.139-.622.551-1.012c.414-.392 1.054-.78 1.906-1.12.64-.256 1.38-.478 2.196-.654-.1.89-.153 1.824-.153 2.786s.053 1.896.152 2.787zm1.544.268A23.293 23.293 0 018.75 12c0-1.073.07-2.1.196-3.054A23.293 23.293 0 0112 8.75c1.073 0 2.1.07 3.054.196.127.955.196 1.981.196 3.054 0 1.073-.07 2.1-.196 3.054-.955.127-1.981.196-3.054.196-1.073 0-2.1-.07-3.054-.196zm.268 1.543c.176.817.398 1.556.654 2.195.34.853.728 1.493 1.12 1.907.39.412.732.551 1.012.551s.622-.139 1.012-.551c.392-.414.78-1.054 1.12-1.907.256-.64.478-1.378.655-2.195-.89.1-1.825.153-2.787.153s-1.896-.053-2.786-.152zm7.383-1.81a13.86 13.86 0 002.195-.655c.853-.34 1.493-.728 1.907-1.12.412-.39.551-.732.551-1.012s-.139-.622-.551-1.012c-.414-.392-1.054-.78-1.907-1.12a13.85 13.85 0 00-2.195-.654c.1.89.153 1.824.153 2.786s-.053 1.896-.152 2.787z" opacity=".4"/>
  <path fill-rule="evenodd" d="M12 2.75a9.25 9.25 0 100 18.5 9.25 9.25 0 000-18.5zM1.25 12C1.25 6.063 6.063 1.25 12 1.25S22.75 6.063 22.75 12 17.937 22.75 12 22.75 1.25 17.937 1.25 12z"/>
</svg>
