<svg xmlns="http://www.w3.org/2000/svg" width="24" height="24" fill="currentColor" viewBox="0 0 24 24">
  <path fill-rule="evenodd" d="M13.25 2.772c-.34-.02-.784-.022-1.472-.022-1.307 0-2.245 0-2.984.056-.73.056-1.204.162-1.59.342a.75.75 0 01-.634-1.36c.618-.288 1.295-.415 2.11-.477.803-.061 1.798-.061 3.067-.061h.123c1.045 0 1.688 0 2.304.136a5.75 5.75 0 011.844.764c.532.34.987.794 1.726 1.533l.064.065.222.222.083.082c.94.94 1.52 1.52 1.912 2.224.214.385.384.794.505 1.219.22.774.22 1.593.22 2.924V16a.75.75 0 01-1.5 0V10.535c0-.818-.002-1.367-.03-1.786h-2.05c-.535 0-.98 0-1.345-.03-.38-.03-.736-.098-1.073-.27A2.75 2.75 0 0113.55 7.25c-.172-.338-.24-.694-.27-1.074-.03-.365-.03-.81-.03-1.345V2.772zm5.59 4.478a4.29 4.29 0 00-.126-.245c-.277-.498-.695-.925-1.744-1.975l-.222-.221c-.824-.824-1.16-1.154-1.536-1.393a4.246 4.246 0 00-.462-.256V4.8c0 .572 0 .957.025 1.253.023.287.065.424.111.515.12.235.311.426.546.546.091.046.228.088.515.111.296.024.68.025 1.253.025h1.64z" opacity=".4"/>
  <path fill-rule="evenodd" d="M1.47 1.47a.75.75 0 011.06 0l2.61 2.609L19.921 18.86l2.608 2.609a.75.75 0 11-1.06 1.06l-1.962-1.961a5.75 5.75 0 01-1.898 1.554c-.658.336-1.385.485-2.265.556-.864.071-1.94.071-3.311.071h-.068c-1.371 0-2.447 0-3.311-.07-.88-.072-1.607-.221-2.265-.557a5.75 5.75 0 01-2.513-2.513c-.336-.658-.484-1.385-.556-2.265-.071-.864-.071-1.94-.071-3.311V9.748c0-1.27 0-2.265.06-3.067.056-.731.164-1.35.394-1.916L1.47 2.53a.75.75 0 010-1.06zm3.44 4.5c-.046.236-.08.505-.104.824-.056.739-.056 1.677-.056 2.984V14c0 1.412 0 2.427.066 3.223.064.787.188 1.295.397 1.707a4.25 4.25 0 001.858 1.857c.411.21.919.333 1.706.397.796.065 1.81.066 3.223.066 1.412 0 2.427 0 3.223-.066.787-.064 1.295-.188 1.707-.397a4.25 4.25 0 001.508-1.288L4.91 5.97z"/>
</svg>
