<svg xmlns="http://www.w3.org/2000/svg" width="24" height="24" fill="currentColor" viewBox="0 0 24 24">
  <path fill-rule="evenodd" d="M19.34 3.186c-.261.037-.601.116-1.118.238l-7.2 1.694c-.34.08-.558.132-.722.183a.82.82 0 00-.244.106.75.75 0 00-.246.311.819.819 0 00-.047.262c-.013.171-.013.394-.013.744v3.315L19 7.727c.718-.18.858-.23.95-.298a.75.75 0 00.242-.31c.044-.105.058-.253.058-.993V5.03c0-.53 0-.88-.024-1.142-.023-.257-.061-.344-.083-.38a.75.75 0 00-.415-.329c-.04-.012-.133-.03-.388.007zm-9.59 8.4l9.614-2.404c.038-.01.077-.02.114-.028.535-.133 1.004-.25 1.37-.524.32-.24.571-.56.726-.93.178-.422.177-.905.176-1.456V4.997c0-.489 0-.905-.03-1.241-.03-.35-.099-.7-.29-1.02a2.25 2.25 0 00-1.245-.985c-.355-.114-.712-.1-1.06-.05-.333.048-.738.143-1.215.255l-.032.008-7.2 1.694-.024.006c-.31.073-.58.136-.802.206-.238.074-.468.17-.683.327a2.25 2.25 0 00-.74.934 2.268 2.268 0 00-.162.74c-.017.232-.017.51-.017.828V19a.75.75 0 001.5 0v-7.415z" opacity=".4"/>
  <path fill-rule="evenodd" d="M9.75 14a.75.75 0 00-1.5 0v2a3.75 3.75 0 101.5 3v-5zm-1.5 5a2.25 2.25 0 10-4.5 0 2.25 2.25 0 004.5 0z"/>
</svg>
