<svg xmlns="http://www.w3.org/2000/svg" width="24" height="24" fill="currentColor" viewBox="0 0 24 24">
  <path fill-rule="evenodd" d="M13.579 5.691l.029.017.095.054.032.018c.573.326 1.049.597 1.402.843.357.249.696.542.882.957a2.25 2.25 0 010 1.84c-.186.415-.525.708-.882.957-.354.246-.829.517-1.402.843l-.032.018-1.34.762 1.34.762.032.018c.573.326 1.049.597 1.402.843.357.249.696.542.882.957a2.25 2.25 0 010 1.84c-.186.415-.525.708-.882.957-.354.247-.829.517-1.402.843l-.032.018-.095.054-.03.017c-.367.209-.687.39-.955.512-.272.124-.602.24-.968.2a1.75 1.75 0 01-1.227-.714c-.215-.298-.278-.642-.305-.94-.027-.293-.027-.661-.027-1.084v-2.887L7.414 15.17a.75.75 0 01-.828-1.251l2.76-1.827-2.68-1.33a.75.75 0 11.667-1.344l2.763 1.371V7.717c0-.423 0-.79.027-1.084.027-.298.09-.642.305-.94.29-.4.736-.66 1.227-.713.366-.04.696.075.968.199.268.121.588.303.956.512zm-1.983 7.598v2.96c0 .467 0 .765.02.981.013.135.03.192.035.207a.25.25 0 00.155.09.95.95 0 00.198-.072c.197-.09.457-.236.862-.467l.095-.054c.614-.349 1.028-.585 1.319-.788.294-.205.355-.306.37-.34a.75.75 0 000-.613c-.015-.033-.076-.134-.37-.34-.29-.202-.705-.438-1.319-.787l-1.365-.777zm0-2.578V7.75c0-.467 0-.765.02-.981a.971.971 0 01.035-.207.25.25 0 01.155-.09.959.959 0 01.198.072c.197.09.457.236.862.467l.095.054c.614.349 1.028.585 1.319.788.294.205.355.306.37.34a.75.75 0 010 .613c-.015.033-.076.134-.37.34-.29.202-.705.438-1.319.787l-1.365.777z" opacity=".4"/>
  <path fill-rule="evenodd" d="M11.566 1.25H12.434c1.651 0 2.937 0 3.968.084 1.047.086 1.897.262 2.662.652a6.75 6.75 0 012.95 2.95c.39.765.566 1.615.652 2.662.084 1.031.084 2.317.084 3.968V12.434c0 1.651 0 2.937-.084 3.968-.086 1.047-.262 1.897-.652 2.662a6.75 6.75 0 01-2.95 2.95c-.765.39-1.615.566-2.662.652-1.031.084-2.317.084-3.968.084H11.566c-1.651 0-2.937 0-3.968-.084-1.047-.086-1.897-.262-2.662-.652a6.75 6.75 0 01-2.95-2.95c-.39-.765-.566-1.615-.652-2.662-.084-1.031-.084-2.317-.084-3.968V11.566c0-1.651 0-2.937.084-3.968.086-1.047.262-1.897.652-2.662a6.75 6.75 0 012.95-2.95c.765-.39 1.615-.566 2.662-.652 1.031-.084 2.317-.084 3.968-.084zM7.72 2.83c-.954.077-1.585.228-2.103.492a5.25 5.25 0 00-2.295 2.295c-.264.518-.415 1.15-.493 2.103-.078.963-.079 2.187-.079 3.88v.8c0 1.692 0 2.917.08 3.88.077.954.228 1.585.492 2.103a5.25 5.25 0 002.295 2.295c.518.264 1.15.415 2.103.493.963.078 2.187.079 3.88.079h.8c1.692 0 2.917 0 3.88-.08.954-.077 1.585-.228 2.103-.492a5.25 5.25 0 002.295-2.295c.264-.518.415-1.15.493-2.103.078-.963.079-2.188.079-3.88v-.8c0-1.693 0-2.917-.08-3.88-.077-.954-.228-1.585-.492-2.103a5.25 5.25 0 00-2.295-2.295c-.518-.264-1.15-.415-2.103-.493-.963-.078-2.188-.079-3.88-.079h-.8c-1.693 0-2.917 0-3.88.08z"/>
</svg>
