<svg xmlns="http://www.w3.org/2000/svg" width="24" height="24" fill="currentColor" viewBox="0 0 24 24">
  <path fill-rule="evenodd" d="M2 4.25a.75.75 0 000 1.5h8a.75.75 0 000-1.5H2zM13.25 12a.75.75 0 01.75-.75h8a.75.75 0 010 1.5h-8a.75.75 0 01-.75-.75zm-12 7a.75.75 0 01.75-.75h8a.75.75 0 010 1.5H2a.75.75 0 01-.75-.75z" opacity=".4"/>
  <path fill-rule="evenodd" d="M16 1.25a3.75 3.75 0 103.675 4.5H22a.75.75 0 000-1.5h-2.325a3.751 3.751 0 00-3.675-3zM13.75 5a2.25 2.25 0 114.5 0 2.25 2.25 0 01-4.5 0zM2 11.25a.75.75 0 000 1.5h2.325A3.751 3.751 0 0011.75 12a3.75 3.75 0 00-7.425-.75H2zm3.75.75a2.25 2.25 0 104.5 0 2.25 2.25 0 00-4.5 0zM16 15.25a3.751 3.751 0 013.675 3H22a.75.75 0 010 1.5h-2.325A3.751 3.751 0 0112.25 19 3.75 3.75 0 0116 15.25zm0 1.5a2.25 2.25 0 100 4.5 2.25 2.25 0 000-4.5z"/>
</svg>
