<svg xmlns="http://www.w3.org/2000/svg" width="24" height="24" fill="currentColor" viewBox="0 0 24 24">
  <path fill-rule="evenodd" d="M18.166 11.802c-.63-.051-1.433-.052-2.566-.052H14a.75.75 0 010-1.5h1.633c1.092 0 1.958 0 2.655.057.714.058 1.317.18 1.869.46a4.75 4.75 0 012.075 2.077c.281.55.403 1.154.461 1.868.057.697.057 1.563.057 2.655V18a.75.75 0 01-1.5 0v-.6c0-1.133 0-1.937-.052-2.566-.05-.62-.147-1.005-.302-1.31a3.25 3.25 0 00-1.42-1.42c-.305-.155-.69-.251-1.31-.302z" opacity=".4"/>
  <path fill-rule="evenodd" d="M7.53 5.47a.75.75 0 010 1.06l-3.72 3.72H14a.75.75 0 010 1.5H3.81l3.72 3.72a.75.75 0 11-1.06 1.06l-5-5a.75.75 0 010-1.06l5-5a.75.75 0 011.06 0z"/>
</svg>
