<svg xmlns="http://www.w3.org/2000/svg" width="24" height="24" fill="currentColor" viewBox="0 0 24 24">
  <path fill-rule="evenodd" d="M18.47 8.47a.75.75 0 011.06 0l3 3a.75.75 0 010 1.06l-3 3a.75.75 0 11-1.06-1.06l1.72-1.72H16a.75.75 0 010-1.5h4.19l-1.72-1.72a.75.75 0 010-1.06z" opacity=".4"/>
  <path fill-rule="evenodd" d="M8.47 5.53a.75.75 0 010-1.06l3-3a.75.75 0 011.06 0l3 3a.75.75 0 01-1.06 1.06l-1.72-1.72V8a.75.75 0 01-1.5 0V3.81L9.53 5.53a.75.75 0 01-1.06 0zM5.53 8.47a.75.75 0 00-1.06 0l-3 3a.75.75 0 000 1.06l3 3a.75.75 0 001.06-1.06l-1.72-1.72H8a.75.75 0 000-1.5H3.81l1.72-1.72a.75.75 0 000-1.06zm2.94 11.06a.75.75 0 111.06-1.06l1.72 1.72V16a.75.75 0 011.5 0v4.19l1.72-1.72a.75.75 0 111.06 1.06l-3 3a.75.75 0 01-1.06 0l-3-3z"/>
</svg>
