<svg xmlns="http://www.w3.org/2000/svg" width="24" height="24" fill="currentColor" viewBox="0 0 24 24">
  <g opacity=".12">
    <path d="M16.678 15.42l2.408.601c.38.095.569.143.729.214a2 2 0 011.155 1.479c.03.172.03.368.03.759 0 .446 0 .67-.048.885-.173.774-.92 1.452-1.708 1.549-.218.027-.401.01-.767-.027a21.451 21.451 0 01-3.57-.645c-.568-.155-.852-.232-1.16-.465-.61-.46-.933-1.49-.695-2.217.12-.366.36-.653.839-1.226.295-.353.442-.53.61-.66a2 2 0 011.294-.422c.214.007.437.063.883.175zM8.58 7.322L7.98 4.914c-.095-.38-.143-.569-.214-.729A2 2 0 006.286 3.03C6.114 3 5.918 3 5.527 3c-.446 0-.67 0-.885.048-.774.173-1.452.92-1.549 1.708-.027.219-.009.402.027.767.122 1.258.339 2.449.645 3.57.155.568.233.852.465 1.16.46.61 1.49.933 2.217.695.366-.12.653-.36 1.226-.839.353-.295.53-.442.66-.61a2 2 0 00.422-1.294c-.007-.213-.063-.437-.174-.883z"/>
  </g>
  <path fill-rule="evenodd" d="M5.527 2.25h-.065c-.383 0-.686 0-.983.066-1.084.242-1.995 1.246-2.13 2.348-.038.302-.012.562.02.885l.004.047c.258 2.64.917 5.016 1.957 7.085.304.605.64 1.184 1.01 1.736a.75.75 0 001.246-.834c-.226-.338-.44-.69-.64-1.052l1.997-1.67.084-.07c.476-.397.849-.708 1.09-1.111.21-.354.34-.75.377-1.161.043-.467-.075-.939-.226-1.54l-.027-.106-.535-2.14-.014-.06c-.08-.321-.143-.572-.242-.793a2.75 2.75 0 00-2.034-1.588c-.238-.042-.497-.042-.829-.042h-.06zm1.454 7.46l-1.713 1.432c-.72-1.68-1.196-3.582-1.402-5.691-.038-.387-.043-.483-.029-.604.059-.473.504-.963.969-1.067.116-.026.243-.03.721-.03.42 0 .537.003.629.019.409.072.755.343.924.722.038.085.069.197.171.605l.535 2.14c.19.76.231.966.215 1.147a1.25 1.25 0 01-.172.528c-.093.155-.248.298-.848.8zm10.146 5.049l-.107-.027c-.6-.15-1.072-.269-1.539-.226a2.75 2.75 0 00-1.161.378c-.403.24-.714.614-1.11 1.089l-.071.084-1.67 1.997a14.17 14.17 0 01-2.613-1.85L19.53 5.53a.75.75 0 00-1.06-1.06l-15 15a.75.75 0 101.06 1.06l3.264-3.264a15.777 15.777 0 003.525 2.404c2.07 1.04 4.445 1.7 7.085 1.957l.047.004c.323.032.583.058.885.02 1.102-.135 2.106-1.046 2.348-2.13.066-.297.066-.6.066-.983v-.125c0-.332 0-.59-.042-.83a2.75 2.75 0 00-1.587-2.033c-.222-.099-.473-.161-.795-.242l-.058-.014-2.14-.535zm1.422 5.375c-2.11-.206-4.01-.682-5.691-1.402l1.431-1.713c.502-.6.645-.755.8-.848a1.25 1.25 0 01.528-.172c.181-.016.387.025 1.146.215l2.141.535c.408.102.52.133.605.171.38.17.65.515.722.924.016.092.019.208.019.629 0 .478-.004.605-.03.722-.104.464-.594.91-1.067.968-.121.014-.217.009-.604-.03z"/>
</svg>
