<svg xmlns="http://www.w3.org/2000/svg" width="24" height="24" fill="currentColor" viewBox="0 0 24 24">
  <path d="M3 3h18v18H3z" opacity=".12"/>
  <path fill-rule="evenodd" d="M14.625 3c0 .414.336.75.75.75h3.814L12 10.94 4.81 3.75h3.815a.75.75 0 000-1.5H3a.75.75 0 00-.75.75v5.625a.75.75 0 001.5 0V4.811L10.94 12l-7.19 7.19v-3.815a.75.75 0 00-1.5 0V21c0 .414.336.75.75.75h5.625a.75.75 0 000-1.5H4.811L12 13.06l7.19 7.19h-3.815a.75.75 0 000 1.5H21a.75.75 0 00.75-.75v-5.625a.75.75 0 00-1.5 0v3.814L13.06 12l7.19-7.19v3.815a.75.75 0 001.5 0V3a.75.75 0 00-.75-.75h-5.625a.75.75 0 00-.75.75z"/>
</svg>
