<svg xmlns="http://www.w3.org/2000/svg" width="24" height="24" fill="currentColor" viewBox="0 0 24 24">
  <rect width="20" height="14" x="2" y="2" opacity=".12" rx="4"/>
  <path fill-rule="evenodd" d="M8.367 1.25H15.633c1.092 0 1.958 0 2.655.057.714.058 1.317.18 1.869.46a4.75 4.75 0 012.075 2.077c.281.55.403 1.154.461 1.868.057.697.057 1.563.057 2.655V9.633c0 1.092 0 1.958-.057 2.655-.058.714-.18 1.317-.46 1.868a4.75 4.75 0 01-2.076 2.076c-.552.281-1.155.403-1.869.461-.697.057-1.563.057-2.655.057H8.367c-1.092 0-1.958 0-2.655-.057-.714-.058-1.317-.18-1.868-.46a4.75 4.75 0 01-2.076-2.077c-.281-.55-.403-1.154-.461-1.868-.057-.697-.057-1.563-.057-2.655V8.367c0-1.092 0-1.958.057-2.655.058-.714.18-1.317.46-1.868a4.75 4.75 0 012.077-2.076c.55-.281 1.154-.403 1.868-.461.697-.057 1.563-.057 2.655-.057zM5.834 2.802c-.62.05-1.005.147-1.31.302a3.25 3.25 0 00-1.42 1.42c-.155.305-.251.69-.302 1.31-.051.63-.052 1.434-.052 2.566v1.2c0 1.133 0 1.937.052 2.566.05.62.147 1.005.302 1.31a3.25 3.25 0 001.42 1.42c.305.155.69.251 1.31.302.63.051 1.434.052 2.566.052h7.2c1.133 0 1.937 0 2.566-.052.62-.05 1.005-.147 1.31-.302a3.25 3.25 0 001.42-1.42c.155-.305.251-.69.302-1.31.051-.63.052-1.434.052-2.566V8.4c0-1.132 0-1.937-.052-2.566-.05-.62-.147-1.005-.302-1.31a3.25 3.25 0 00-1.42-1.42c-.305-.155-.69-.251-1.31-.302-.63-.051-1.433-.052-2.566-.052H8.4c-1.132 0-1.937 0-2.566.052zM9.25 11a.75.75 0 01.75-.75h4a.75.75 0 010 1.5h-4a.75.75 0 01-.75-.75zM6 12a1 1 0 100-2 1 1 0 000 2zm13-1a1 1 0 11-2 0 1 1 0 012 0zm-1-3a1 1 0 100-2 1 1 0 000 2zM7 7a1 1 0 11-2 0 1 1 0 012 0zm3 1a1 1 0 100-2 1 1 0 000 2zm5-1a1 1 0 11-2 0 1 1 0 012 0zm-3.386 13.64a1.25 1.25 0 01.772 0c.097.031.224.098.443.285.227.192.499.463.903.868l.738.737a.75.75 0 101.06-1.06l-.737-.738-.021-.021a17.79 17.79 0 00-.972-.93c-.29-.246-.59-.451-.95-.568a2.75 2.75 0 00-1.7 0c-.36.117-.66.322-.95.568-.279.237-.594.552-.972.93l-.021.021-.737.738a.75.75 0 101.06 1.06l.738-.737c.404-.405.676-.676.903-.868.22-.187.346-.254.443-.285z"/>
</svg>
