<svg xmlns="http://www.w3.org/2000/svg" width="24" height="24" fill="currentColor" viewBox="0 0 24 24">
  <path d="M3 3.444C3 2.647 3.647 2 4.444 2h15.112C20.353 2 21 2.647 21 3.444V6A9 9 0 113 6V3.444z" opacity=".12"/>
  <path fill-rule="evenodd" d="M4.444 1.25A2.194 2.194 0 002.25 3.444V6c0 5.132 3.966 9.339 9 9.722v5.528H8a.75.75 0 000 1.5h8a.75.75 0 000-1.5h-3.25v-5.528c5.034-.383 9-4.59 9-9.722V3.444a2.194 2.194 0 00-2.194-2.194H4.444zM3.75 3.444c0-.383.31-.694.694-.694h15.112c.383 0 .694.31.694.694V6a8.25 8.25 0 11-16.5 0V3.444z"/>
</svg>
