<svg xmlns="http://www.w3.org/2000/svg" width="24" height="24" fill="currentColor" viewBox="0 0 24 24">
  <rect width="16" height="16" x="4" y="2" opacity=".12" rx="8"/>
  <path fill-rule="evenodd" d="M12 1.25a8.75 8.75 0 00-5.776 15.323l-.962 5.293a.75.75 0 00.861.874l1.792-.299c1.587-.264 2.332-.388 3.078-.437.67-.044 1.343-.044 2.014 0 .746.05 1.49.173 3.078.437l1.792.299a.75.75 0 00.86-.874l-.961-5.293A8.75 8.75 0 0012 1.25zm4.428 16.298A8.71 8.71 0 0112 18.75a8.71 8.71 0 01-4.428-1.202l-.643 3.537.74-.123.045-.008c1.53-.255 2.351-.392 3.18-.447a16.754 16.754 0 012.212 0c.829.055 1.65.192 3.18.447l.046.008.74.123-.644-3.537zM4.75 10a7.25 7.25 0 1114.5 0 7.25 7.25 0 01-14.5 0z"/>
</svg>
