<svg xmlns="http://www.w3.org/2000/svg" width="24" height="24" fill="currentColor" viewBox="0 0 24 24">
  <path d="M10.303 9.697l-1.206 1.206c-1.285 1.285-1.928 1.928-1.971 2.48a1.5 1.5 0 00.521 1.258c.42.359 1.33.359 3.147.359h2.412c1.817 0 2.726 0 3.147-.36a1.5 1.5 0 00.52-1.258c-.043-.551-.685-1.194-1.97-2.48l-1.206-1.205c-.594-.594-.891-.891-1.234-1.002a1.5 1.5 0 00-.927 0c-.342.111-.64.408-1.233 1.002z" opacity=".12"/>
  <path fill-rule="evenodd" d="M10.756 15.75H13.244c.876 0 1.585 0 2.125-.048.524-.046 1.068-.147 1.47-.491a2.25 2.25 0 00.783-1.888c-.042-.528-.356-.984-.693-1.387-.348-.416-.85-.917-1.469-1.536l-.027-.027-1.206-1.206-.02-.02c-.28-.28-.52-.521-.736-.704-.226-.192-.473-.363-.776-.462a2.25 2.25 0 00-1.39 0c-.303.099-.55.27-.776.462-.215.183-.457.424-.736.703l-.02.02-1.206 1.207-.027.027c-.62.62-1.121 1.12-1.47 1.536-.337.403-.65.86-.692 1.387a2.25 2.25 0 00.782 1.888c.403.344.947.445 1.47.491.54.048 1.25.048 2.126.048zm-1.993-1.542c-.49-.043-.611-.123-.629-.138a.75.75 0 01-.26-.629c.001-.023.03-.164.347-.542.3-.358.753-.813 1.406-1.466l1.206-1.206c.306-.305.504-.502.666-.64.156-.133.23-.166.27-.179a.75.75 0 01.463 0c.04.013.113.046.269.179.162.138.36.335.666.64l1.206 1.206c.653.653 1.106 1.107 1.406 1.466.316.378.346.519.347.542a.75.75 0 01-.26.63c-.018.014-.139.094-.63.137-.465.041-1.107.042-2.03.042h-2.412c-.924 0-1.565 0-2.031-.042z"/>
</svg>
