<svg xmlns="http://www.w3.org/2000/svg" width="24" height="24" fill="currentColor" viewBox="0 0 24 24">
  <circle cx="12" cy="12" r="10" opacity=".12"/>
  <path fill-rule="evenodd" d="M19.977 4.171C18.217 2.72 15.554 1.25 12 1.25A10.73 10.73 0 001.25 12a.75.75 0 001.5 0A9.23 9.23 0 0112 2.75c3.113 0 5.45 1.281 7.023 2.579.604.498 1.092.997 1.464 1.421H18.5a.75.75 0 000 1.5H22a.75.75 0 00.75-.75V4a.75.75 0 00-1.5 0v1.36c-.355-.375-.78-.782-1.273-1.189zM22 11.25a.75.75 0 00-.75.75A9.25 9.25 0 0112 21.25c-2.506 0-4.585-1.25-6.075-2.563a14.4 14.4 0 01-1.413-1.437H6.5a.75.75 0 000-1.5H3a.75.75 0 00-.75.75V20a.75.75 0 001.5 0v-1.349c.337.367.732.764 1.183 1.162 1.63 1.436 4.05 2.937 7.067 2.937 5.937 0 10.75-4.813 10.75-10.75a.75.75 0 00-.75-.75zm-10-4a.75.75 0 01.75.75v4a.75.75 0 01-1.5 0V8a.75.75 0 01.75-.75zM12 16a1 1 0 100-2 1 1 0 000 2z"/>
</svg>
