<svg xmlns="http://www.w3.org/2000/svg" width="24" height="24" fill="currentColor" viewBox="0 0 24 24">
  <path d="M8.4 21h7.2c2.24 0 3.36 0 4.216-.436.163-.083.32-.177.468-.28L8 8H2.006C2 8.413 2 8.876 2 9.4v5.2c0 2.24 0 3.36.436 4.216a4 4 0 001.748 1.748C5.04 21 6.16 21 8.4 21z" opacity=".12"/>
  <path fill-rule="evenodd" d="M2.53 1.47a.75.75 0 00-1.06 1.06L2.61 3.672a4.75 4.75 0 00-.843 1.172c-.281.55-.403 1.154-.461 1.868-.057.697-.057 1.563-.057 2.655V14.633c0 1.092 0 1.958.057 2.655.058.714.18 1.317.46 1.869a4.75 4.75 0 002.077 2.075c.55.281 1.154.403 1.868.461.697.057 1.563.057 2.655.057H15.633c1.092 0 1.958 0 2.655-.057.714-.058 1.317-.18 1.869-.46l.01-.006 1.303 1.303a.75.75 0 101.06-1.06l-1.716-1.716L8.53 7.47 4.246 3.186 2.53 1.47zm.574 4.055c.15-.293.341-.56.568-.793L6.189 7.25H2.776c.007-.147.015-.285.026-.416.05-.62.147-1.005.302-1.31zM2.75 8.75h4.94l11.318 11.319c-.225.059-.497.1-.842.129-.63.051-1.433.052-2.566.052H8.4c-1.132 0-1.937 0-2.566-.052-.62-.05-1.005-.147-1.31-.302a3.25 3.25 0 01-1.42-1.42c-.155-.305-.251-.69-.302-1.31-.051-.63-.052-1.434-.052-2.566V9.4v-.65zm12.85-5c1.133 0 1.937 0 2.566.052.62.05 1.005.147 1.31.302a3.25 3.25 0 011.42 1.42c.155.305.251.69.302 1.31.011.14.02.29.027.449a.75.75 0 00-.22-.033H12a.75.75 0 000 1.5h9.006a.749.749 0 00.243-.04l.001.69v5.2c0 1.005 0 1.754-.037 2.354-.01.168-.023.32-.04.46a.75.75 0 001.491.171c.02-.172.035-.351.046-.54.04-.65.04-1.445.04-2.422V9.367c0-1.092 0-1.958-.057-2.655-.058-.714-.18-1.317-.46-1.868a4.75 4.75 0 00-2.076-2.076c-.552-.281-1.155-.403-1.869-.461-.697-.057-1.563-.057-2.655-.057H8.396c-.521 0-.988 0-1.406.006a.75.75 0 10.02 1.5c.407-.006.864-.006 1.39-.006h7.2zM6 11.25a.75.75 0 000 1.5h2a.75.75 0 000-1.5H6z"/>
</svg>
