<svg xmlns="http://www.w3.org/2000/svg" width="24" height="24" fill="currentColor" viewBox="0 0 24 24">
  <path fill-rule="evenodd" d="M2 5.2c0-1.12 0-1.68.218-2.108a2 2 0 01.874-.874C3.52 2 4.08 2 5.2 2h1.6c1.12 0 1.68 0 2.108.218a2 2 0 01.874.874C10 3.52 10 4.08 10 5.2v3.6c0 1.12 0 1.68-.218 2.108a2 2 0 01-.874.874C8.48 12 7.92 12 6.8 12H5.2c-1.12 0-1.68 0-2.108-.218a2 2 0 01-.874-.874C2 10.48 2 9.92 2 8.8V5.2zM2 19c0-.932 0-1.398.152-1.765a2 2 0 011.083-1.083C3.602 16 4.068 16 5 16h2c.932 0 1.398 0 1.765.152a2 2 0 011.083 1.083C10 17.602 10 18.068 10 19c0 .932 0 1.398-.152 1.765a2 2 0 01-1.083 1.083C8.398 22 7.932 22 7 22H5c-.932 0-1.398 0-1.765-.152a2 2 0 01-1.083-1.083C2 20.398 2 19.932 2 19zm12.218-5.908C14 13.52 14 14.08 14 15.2v3.6c0 1.12 0 1.68.218 2.108a2 2 0 00.874.874C15.52 22 16.08 22 17.2 22h1.6c1.12 0 1.68 0 2.108-.218a2 2 0 00.874-.874C22 20.48 22 19.92 22 18.8v-3.6c0-1.12 0-1.68-.218-2.108a2 2 0 00-.874-.874C20.48 12 19.92 12 18.8 12h-1.6c-1.12 0-1.68 0-2.108.218a2 2 0 00-.874.874z" opacity=".12"/>
  <path fill-rule="evenodd" d="M5.2 1.25h-.03c-.535 0-.98 0-1.345.03-.38.03-.736.098-1.073.27A2.75 2.75 0 001.55 2.752c-.172.337-.24.693-.27 1.073-.03.365-.03.81-.03 1.345V8.83c0 .535 0 .98.03 1.345.03.38.098.736.27 1.073a2.75 2.75 0 001.202 1.202c.337.172.693.24 1.073.27.365.03.81.03 1.345.03H6.83c.535 0 .98 0 1.345-.03.38-.03.736-.098 1.073-.27a2.75 2.75 0 001.202-1.201c.172-.338.24-.694.27-1.074.03-.365.03-.81.03-1.345V5.17c0-.535 0-.98-.03-1.345-.03-.38-.098-.736-.27-1.073A2.75 2.75 0 009.248 1.55c-.337-.172-.693-.24-1.073-.27-.365-.03-.81-.03-1.345-.03H5.2zM3.433 2.886c.09-.046.227-.088.514-.111.296-.024.68-.025 1.253-.025h1.6c.572 0 .957 0 1.253.025.287.023.424.065.514.111.236.12.427.311.547.547.046.09.088.227.111.514.024.296.025.68.025 1.253v3.6c0 .572 0 .957-.025 1.252-.023.288-.065.425-.111.516a1.25 1.25 0 01-.547.546c-.09.046-.227.088-.514.111-.296.024-.68.025-1.253.025H5.2c-.572 0-.957 0-1.253-.025-.287-.023-.424-.065-.514-.111a1.25 1.25 0 01-.547-.546c-.046-.091-.088-.228-.111-.515-.024-.296-.025-.68-.025-1.253V5.2c0-.572 0-.957.025-1.253.023-.287.065-.424.111-.514a1.25 1.25 0 01.547-.547zM5 15.25h-.025c-.445 0-.816 0-1.12.02a2.824 2.824 0 00-.907.19 2.75 2.75 0 00-1.489 1.488c-.12.29-.167.59-.188.907-.021.304-.021.675-.021 1.12v.05c0 .445 0 .816.02 1.12.022.317.07.617.19.907a2.75 2.75 0 001.488 1.489c.29.12.59.167.907.188.304.021.675.021 1.12.021h2.05c.445 0 .816 0 1.12-.02.317-.022.617-.069.907-.19a2.75 2.75 0 001.489-1.488c.12-.29.167-.59.188-.907.021-.304.021-.675.021-1.12v-.05c0-.445 0-.816-.02-1.12a2.822 2.822 0 00-.19-.907 2.75 2.75 0 00-1.488-1.489c-.29-.12-.59-.167-.907-.188-.304-.021-.675-.021-1.12-.021H5zm-1.478 1.595c.077-.032.194-.061.435-.078A17.07 17.07 0 015 16.75h2c.476 0 .796 0 1.043.017.241.017.358.046.435.078.307.127.55.37.677.677.032.077.061.194.078.435.017.247.017.567.017 1.043s0 .796-.017 1.043c-.017.241-.046.358-.078.435a1.25 1.25 0 01-.677.677c-.077.032-.194.061-.435.078A17.07 17.07 0 017 21.25H5c-.476 0-.796 0-1.043-.017-.241-.017-.358-.046-.435-.078a1.25 1.25 0 01-.677-.677c-.032-.077-.061-.194-.078-.435A17.091 17.091 0 012.75 19c0-.476 0-.796.017-1.043.017-.241.046-.358.078-.435.127-.307.37-.55.677-.677zM16.975 1.25h2.05c.445 0 .816 0 1.12.02.317.022.617.07.907.19a2.75 2.75 0 011.489 1.488c.12.29.167.59.188.907.021.304.021.675.021 1.12v.05c0 .445 0 .816-.02 1.12a2.822 2.822 0 01-.19.907 2.75 2.75 0 01-1.488 1.489c-.29.12-.59.167-.907.188-.304.021-.675.021-1.12.021h-2.05c-.445 0-.816 0-1.12-.02a2.823 2.823 0 01-.907-.19 2.75 2.75 0 01-1.489-1.488c-.12-.29-.167-.59-.188-.907-.021-.304-.021-.675-.021-1.12v-.05c0-.445 0-.816.02-1.12.022-.317.07-.617.19-.907a2.75 2.75 0 011.488-1.489c.29-.12.59-.167.907-.188.304-.021.675-.021 1.12-.021zm-1.018 1.517c-.241.017-.358.046-.435.078a1.25 1.25 0 00-.677.677c-.032.077-.061.194-.078.435A17.07 17.07 0 0014.75 5c0 .476 0 .796.017 1.043.017.241.046.358.078.435.127.307.37.55.677.677.077.032.194.061.435.078.247.017.567.017 1.043.017h2c.476 0 .796 0 1.043-.017.241-.017.358-.046.435-.078.307-.127.55-.37.677-.677.032-.077.061-.194.078-.435.017-.247.017-.567.017-1.043s0-.796-.017-1.043c-.017-.241-.046-.358-.078-.435a1.25 1.25 0 00-.677-.677c-.077-.032-.194-.061-.435-.078A17.091 17.091 0 0019 2.75h-2c-.476 0-.796 0-1.043.017zM17.2 11.25h-.03c-.535 0-.98 0-1.345.03-.38.03-.736.098-1.073.27a2.751 2.751 0 00-1.202 1.201c-.172.338-.24.694-.27 1.074-.03.365-.03.81-.03 1.345V18.83c0 .535 0 .98.03 1.345.03.38.098.736.27 1.073.263.518.684.939 1.201 1.202.338.172.694.24 1.074.27.364.03.81.03 1.344.03h1.661c.535 0 .98 0 1.345-.03.38-.03.736-.098 1.073-.27a2.751 2.751 0 001.202-1.201c.172-.338.24-.694.27-1.074.03-.364.03-.81.03-1.344V15.17c0-.535 0-.98-.03-1.345-.03-.38-.098-.736-.27-1.073a2.751 2.751 0 00-1.201-1.202c-.338-.172-.694-.24-1.074-.27-.365-.03-.81-.03-1.345-.03H17.2zm-1.768 1.636c.091-.046.228-.088.515-.111.296-.024.68-.025 1.253-.025h1.6c.572 0 .957 0 1.252.025.288.023.425.065.515.111.236.12.427.311.547.546.046.091.088.228.111.515.024.296.025.68.025 1.253v3.6c0 .572 0 .957-.025 1.252-.023.288-.065.425-.111.515a1.25 1.25 0 01-.547.547c-.09.046-.227.088-.515.111-.295.024-.68.025-1.252.025h-1.6c-.572 0-.957 0-1.252-.025-.288-.023-.425-.065-.516-.111a1.25 1.25 0 01-.546-.547c-.046-.09-.088-.227-.111-.515-.024-.295-.025-.68-.025-1.252v-3.6c0-.572 0-.957.025-1.252.023-.288.065-.425.111-.516a1.25 1.25 0 01.546-.546z"/>
</svg>
