<svg xmlns="http://www.w3.org/2000/svg" width="24" height="24" fill="currentColor" viewBox="0 0 24 24">
  <path d="M12 5.2c0-1.12 0-1.68.218-2.108a2 2 0 01.874-.874C13.52 2 14.08 2 15.2 2h.4c2.24 0 3.36 0 4.216.436a4 4 0 011.748 1.748C22 5.04 22 6.16 22 8.4v7.2c0 2.24 0 3.36-.436 4.216a4 4 0 01-1.748 1.748C18.96 22 17.84 22 15.6 22h-.4c-1.12 0-1.68 0-2.108-.218a2 2 0 01-.874-.874C12 20.48 12 19.92 12 18.8V5.2z" opacity=".12"/>
  <path fill-rule="evenodd" d="M15.6 2.75c1.133 0 1.937 0 2.566.052.62.05 1.005.147 1.31.302a3.25 3.25 0 011.42 1.42c.155.305.251.69.302 1.31.051.63.052 1.434.052 2.566v7.2c0 1.133 0 1.937-.052 2.566-.05.62-.147 1.005-.302 1.31a3.25 3.25 0 01-1.42 1.42c-.305.155-.69.251-1.31.302-.63.051-1.433.052-2.566.052H14a.75.75 0 000 1.5h1.633c1.092 0 1.958 0 2.655-.057.714-.058 1.317-.18 1.869-.46a4.75 4.75 0 002.075-2.076c.281-.552.403-1.155.461-1.869.057-.697.057-1.563.057-2.655V8.367c0-1.092 0-1.958-.057-2.655-.058-.714-.18-1.317-.46-1.868a4.75 4.75 0 00-2.076-2.076c-.552-.281-1.155-.403-1.869-.461-.697-.057-1.563-.057-2.655-.057H14a.75.75 0 000 1.5h1.6zm-5.07 4.72a.75.75 0 10-1.06 1.06l2.72 2.72H2a.75.75 0 000 1.5h10.19l-2.72 2.72a.75.75 0 101.06 1.06l4-4a.75.75 0 000-1.06l-4-4z"/>
</svg>
