<svg xmlns="http://www.w3.org/2000/svg" width="24" height="24" fill="currentColor" viewBox="0 0 24 24">
  <path d="M2 11.4c0-2.24 0-3.36.436-4.216a4 4 0 011.748-1.748C5.04 5 6.16 5 8.4 5h5.2c2.24 0 3.36 0 4.216.436a4 4 0 011.748 1.748C20 8.04 20 9.16 20 11.4v1.2c0 2.24 0 3.36-.436 4.216a4 4 0 01-1.748 1.748C16.96 19 15.84 19 13.6 19H8.4c-2.24 0-3.36 0-4.216-.436a4 4 0 01-1.748-1.748C2 15.96 2 14.84 2 12.6v-1.2z" opacity=".12"/>
  <path fill-rule="evenodd" d="M8.4 4.25h-.033c-1.092 0-1.958 0-2.655.057-.714.058-1.317.18-1.868.46a4.75 4.75 0 00-2.076 2.077c-.281.55-.403 1.154-.461 1.868-.057.697-.057 1.563-.057 2.655V12.633c0 1.092 0 1.958.057 2.655.058.714.18 1.317.46 1.869a4.75 4.75 0 002.077 2.075c.55.281 1.154.403 1.868.461.697.057 1.563.057 2.655.057H13.633c1.092 0 1.958 0 2.655-.057.714-.058 1.317-.18 1.869-.46a4.75 4.75 0 002.075-2.076c.248-.486.371-1.011.437-1.617l.253-.1a3.704 3.704 0 000-6.88l-.253-.1c-.066-.606-.19-1.131-.437-1.616a4.75 4.75 0 00-2.075-2.076c-.552-.281-1.155-.403-1.869-.461-.697-.057-1.563-.057-2.655-.057H8.4zm12.346 5.901c.004.371.004.775.004 1.216V12.633c0 .44 0 .845-.004 1.216a2.205 2.205 0 000-3.698zM4.525 6.104c.304-.155.688-.251 1.309-.302.63-.051 1.434-.052 2.566-.052h5.2c1.133 0 1.937 0 2.566.052.62.05 1.005.147 1.31.302a3.25 3.25 0 011.42 1.42c.155.305.251.69.302 1.31.051.63.052 1.434.052 2.566v1.2c0 1.133 0 1.937-.052 2.566-.05.62-.147 1.005-.302 1.31a3.25 3.25 0 01-1.42 1.42c-.305.155-.69.251-1.31.302-.63.051-1.434.052-2.566.052H8.4c-1.132 0-1.937 0-2.566-.052-.62-.05-1.005-.147-1.31-.302a3.25 3.25 0 01-1.42-1.42c-.155-.305-.251-.69-.302-1.31-.051-.63-.052-1.434-.052-2.566v-1.2c0-1.133 0-1.937.052-2.566.05-.62.147-1.005.302-1.31a3.25 3.25 0 011.42-1.42z"/>
</svg>
