<svg xmlns="http://www.w3.org/2000/svg" width="24" height="24" fill="currentColor" viewBox="0 0 24 24">
  <path d="M9.697 10.303c-.594.594-.891.891-1.002 1.233a1.5 1.5 0 000 .928c.111.342.408.639 1.002 1.233l1.206 1.206c1.285 1.285 1.928 1.928 2.48 1.971a1.5 1.5 0 001.258-.521c.359-.42.359-1.33.359-3.147v-2.412c0-1.817 0-2.726-.36-3.147a1.5 1.5 0 00-1.258-.521c-.551.043-1.194.686-2.48 1.971l-1.205 1.206z" opacity=".12"/>
  <path fill-rule="evenodd" d="M14.07 8.134a.75.75 0 00-.629-.26c-.023.002-.164.03-.542.347-.358.3-.813.753-1.466 1.406l-1.206 1.206a12.8 12.8 0 00-.64.666c-.133.156-.166.23-.179.27a.75.75 0 000 .463c.013.04.046.113.179.269.138.162.335.36.64.666l1.206 1.206c.653.653 1.108 1.106 1.466 1.406.378.316.519.346.542.347a.75.75 0 00.63-.26c.014-.018.094-.139.137-.63.041-.465.042-1.107.042-2.03v-2.412c0-.923 0-1.565-.042-2.03-.043-.491-.123-.612-.138-.63zm-.747-1.756a2.25 2.25 0 011.888.782c.344.403.445.947.491 1.47.048.54.048 1.25.048 2.126V13.244c0 .877 0 1.585-.048 2.125-.046.524-.147 1.068-.491 1.471a2.25 2.25 0 01-1.888.782c-.528-.042-.984-.355-1.387-.693-.416-.348-.917-.849-1.536-1.469l-.027-.027-1.206-1.206-.02-.02c-.28-.28-.521-.52-.704-.736-.192-.226-.363-.473-.462-.776a2.25 2.25 0 010-1.39c.099-.303.27-.55.462-.776.183-.215.424-.456.703-.736l.02-.02 1.207-1.206.027-.027c.62-.62 1.12-1.121 1.536-1.47.403-.336.86-.65 1.387-.692z"/>
</svg>
