<svg xmlns="http://www.w3.org/2000/svg" width="24" height="24" fill="currentColor" viewBox="0 0 24 24">
  <path d="M20 4H5v12h15l-1.569-3.138c-.525-1.05-.787-1.574-.89-2.124a4.003 4.003 0 010-1.476c.103-.55.365-1.075.89-2.124L20 4z" opacity=".12"/>
  <path fill-rule="evenodd" d="M5 1.25a.75.75 0 01.75.75v1.25H20a.75.75 0 01.67 1.085l-1.568 3.138c-.544 1.089-.745 1.505-.824 1.928a3.25 3.25 0 000 1.198c.08.423.28.84.824 1.928l1.569 3.138A.75.75 0 0120 16.75H5.75V22a.75.75 0 01-1.5 0V2A.75.75 0 015 1.25zm.75 14h13.037l-1.027-2.052a93.859 93.859 0 00-.05-.102c-.477-.952-.784-1.565-.906-2.22a4.75 4.75 0 010-1.752c.123-.655.43-1.268.906-2.22l.05-.102 1.026-2.052H5.75v10.5z"/>
</svg>
