<svg xmlns="http://www.w3.org/2000/svg" width="24" height="24" fill="currentColor" viewBox="0 0 24 24">
  <path d="M2 6.8c0-1.68 0-2.52.327-3.162a3 3 0 011.311-1.311C4.28 2 5.12 2 6.8 2h1.517c.801 0 1.202 0 1.564.091a3 3 0 011.538.95c.243.284.422.642.781 1.359.239.478.359.717.52.906a2 2 0 001.026.633c.241.061.508.061 1.043.061h.811c2.24 0 3.36 0 4.216.436a4 4 0 011.748 1.748C22 9.04 22 10.16 22 12.4v3.2c0 2.24 0 3.36-.436 4.216a4 4 0 01-1.748 1.748C18.96 22 17.84 22 15.6 22H8.4c-2.24 0-3.36 0-4.216-.436a4 4 0 01-1.748-1.748C2 18.96 2 17.84 2 15.6V6.8z" opacity=".12"/>
  <path fill-rule="evenodd" d="M8.317 2.75c.841 0 1.13.006 1.38.069a2.25 2.25 0 011.153.712c.169.196.303.452.68 1.204l.035.073c.204.407.363.726.588.987a2.75 2.75 0 001.41.871c.333.085.69.084 1.145.084h.892c1.133 0 1.937 0 2.566.052.62.05 1.005.147 1.31.302a3.25 3.25 0 011.42 1.42c.155.305.251.69.302 1.31.051.63.052 1.434.052 2.566v3.2c0 1.133 0 1.937-.052 2.566-.05.62-.147 1.005-.302 1.31a3.25 3.25 0 01-1.42 1.42c-.305.155-.69.251-1.31.302-.63.052-1.433.052-2.566.052H8.4c-1.132 0-1.937 0-2.566-.052-.62-.05-1.005-.147-1.31-.302a3.25 3.25 0 01-1.42-1.42c-.155-.305-.251-.69-.302-1.31-.051-.63-.052-1.433-.052-2.566V6.8c0-.852 0-1.447.038-1.91.037-.453.107-.714.207-.911a2.25 2.25 0 01.984-.984c.197-.1.458-.17.912-.207.462-.037 1.057-.038 1.909-.038h1.517zm1.748-1.386c-.454-.114-.943-.114-1.653-.114H6.768c-.813 0-1.469 0-2 .043-.546.045-1.026.14-1.47.366a3.75 3.75 0 00-1.64 1.639c-.226.444-.32.924-.365 1.47-.043.531-.043 1.187-.043 2v8.865c0 1.092 0 1.958.057 2.655.058.714.18 1.317.46 1.869a4.75 4.75 0 002.077 2.075c.55.281 1.154.403 1.868.461.697.057 1.563.057 2.655.057H15.633c1.092 0 1.958 0 2.655-.057.714-.058 1.317-.18 1.869-.46a4.75 4.75 0 002.075-2.076c.281-.552.403-1.155.461-1.869.057-.697.057-1.563.057-2.655v-3.266c0-1.092 0-1.958-.057-2.655-.058-.714-.18-1.317-.46-1.868a4.75 4.75 0 00-2.076-2.076c-.552-.281-1.155-.403-1.869-.461-.697-.057-1.563-.057-2.655-.057H14.789c-.575 0-.73-.005-.86-.038a1.25 1.25 0 01-.64-.396c-.087-.101-.161-.238-.418-.751l-.043-.086c-.317-.634-.536-1.072-.841-1.427a3.75 3.75 0 00-1.922-1.188zm-.035 9.606a.75.75 0 10-1.06 1.06L10.94 14l-1.97 1.97a.75.75 0 001.06 1.06L12 15.06l1.97 1.97a.75.75 0 101.06-1.06L13.06 14l1.97-1.97a.75.75 0 00-1.06-1.06L12 12.94l-1.97-1.97z"/>
</svg>
