<svg xmlns="http://www.w3.org/2000/svg" width="24" height="24" fill="currentColor" viewBox="0 0 24 24">
  <path fill-rule="evenodd" d="M2 8a3 3 0 116 0 3 3 0 01-6 0zm14 0a3 3 0 116 0 3 3 0 01-6 0zm-4 5a3 3 0 100 6 3 3 0 000-6z" opacity=".12"/>
  <path fill-rule="evenodd" d="M5.75 2a.75.75 0 00-1.5 0v2.325A3.751 3.751 0 005 11.75a3.75 3.75 0 00.75-7.425V2zM5 5.75a2.25 2.25 0 100 4.5 2.25 2.25 0 000-4.5zm14-4.5a.75.75 0 01.75.75v2.325A3.751 3.751 0 0119 11.75a3.75 3.75 0 01-.75-7.425V2a.75.75 0 01.75-.75zM16.75 8a2.25 2.25 0 114.5 0 2.25 2.25 0 01-4.5 0zm-4 11.675A3.751 3.751 0 0012 12.25a3.75 3.75 0 00-.75 7.425V22a.75.75 0 001.5 0v-2.325zM12 18.25a2.25 2.25 0 110-4.5 2.25 2.25 0 010 4.5zm7-5a.75.75 0 01.75.75v8a.75.75 0 01-1.5 0v-8a.75.75 0 01.75-.75zM12.75 2a.75.75 0 00-1.5 0v8a.75.75 0 001.5 0V2zM5 13.25a.75.75 0 01.75.75v8a.75.75 0 01-1.5 0v-8a.75.75 0 01.75-.75z"/>
</svg>
