<svg xmlns="http://www.w3.org/2000/svg" width="24" height="24" fill="currentColor" viewBox="0 0 24 24">
  <path d="M2.531 14.655c-.525-2.624-.787-3.936-.432-4.963A4 4 0 013.855 7.55C4.793 7 6.131 7 8.808 7h6.386c2.676 0 4.014 0 4.952.55A4 4 0 0121.9 9.692c.355 1.027.093 2.34-.432 4.963l-.44 2.2c-.367 1.833-.55 2.75-1.028 3.435a4 4 0 01-1.678 1.375c-.766.335-1.7.335-3.57.335H9.247c-1.87 0-2.804 0-3.57-.335A4 4 0 014 20.29c-.478-.686-.661-1.602-1.028-3.435l-.44-2.2z" opacity=".12"/>
  <path fill-rule="evenodd" d="M9.643 2.386a.75.75 0 00-1.286-.772L5.527 6.33c-.794.076-1.464.23-2.051.574A4.75 4.75 0 001.39 9.447c-.23.666-.242 1.38-.15 2.21.09.817.292 1.828.548 3.11l.008.035.44 2.2.005.029c.179.892.32 1.602.48 2.173.163.586.357 1.076.663 1.515a4.75 4.75 0 001.993 1.633c.49.215 1.01.309 1.616.354.59.044 1.315.044 2.224.044H14.783c.91 0 1.633 0 2.224-.044.607-.045 1.125-.139 1.616-.354a4.751 4.751 0 001.993-1.633c.306-.44.5-.93.663-1.515.16-.571.301-1.281.48-2.173l.005-.029.44-2.2.008-.035c.256-1.282.458-2.293.548-3.11.092-.83.08-1.544-.15-2.21a4.75 4.75 0 00-2.086-2.544c-.587-.344-1.257-.498-2.052-.574l-2.829-4.715a.75.75 0 10-1.286.772l2.321 3.869c-.44-.005-.922-.005-1.448-.005H8.77c-.526 0-1.007 0-1.448.005l2.321-3.87zm-5.408 5.81c.33-.193.77-.316 1.51-.38.745-.065 1.71-.066 3.062-.066h6.386c1.352 0 2.317 0 3.063.066.739.064 1.18.187 1.509.38a3.25 3.25 0 011.427 1.741c.125.361.16.818.078 1.555-.083.744-.271 1.69-.537 3.016l-.44 2.2c-.185.927-.316 1.583-.459 2.093-.14.502-.276.813-.448 1.06a3.25 3.25 0 01-1.364 1.117c-.275.12-.607.194-1.126.232-.529.04-1.197.04-2.143.04H9.247c-.946 0-1.614 0-2.143-.04-.52-.038-.851-.112-1.126-.232a3.25 3.25 0 01-1.364-1.118c-.172-.246-.309-.557-.448-1.059-.143-.51-.274-1.166-.46-2.093l-.44-2.2c-.265-1.325-.453-2.272-.536-3.016-.081-.738-.047-1.194.078-1.555a3.25 3.25 0 011.427-1.74z"/>
</svg>
