<svg xmlns="http://www.w3.org/2000/svg" width="24" height="24" fill="currentColor" viewBox="0 0 24 24">
  <path fill-rule="evenodd" d="M7 2v.2c0 1.68 0 2.52-.327 3.162a3 3 0 01-1.311 1.311C4.72 7 3.88 7 2.2 7H2v6h.2c1.68 0 2.52 0 3.162.327a3 3 0 011.311 1.311C7 15.28 7 16.12 7 17.8v.2h10v-.2c0-1.68 0-2.52.327-3.162a3 3 0 011.311-1.311C19.28 13 20.12 13 21.8 13h.2V7h-.2c-1.68 0-2.52 0-3.162-.327a3 3 0 01-1.311-1.311C17 4.72 17 3.88 17 2.2V2H7zm5 10a2 2 0 100-4 2 2 0 000 4z" opacity=".12"/>
  <path fill-rule="evenodd" d="M8.367 1.25H15.633c1.092 0 1.958 0 2.655.057.714.058 1.317.18 1.869.46a4.75 4.75 0 012.075 2.077c.281.55.403 1.154.461 1.868.057.697.057 1.563.057 2.655v3.266c0 1.092 0 1.958-.057 2.655-.058.714-.18 1.317-.46 1.869a4.75 4.75 0 01-2.076 2.075c-.552.281-1.155.403-1.869.461-.697.057-1.563.057-2.655.057H8.367c-1.092 0-1.958 0-2.655-.057-.714-.058-1.317-.18-1.868-.46a4.75 4.75 0 01-2.076-2.076c-.281-.552-.403-1.155-.461-1.869-.057-.697-.057-1.563-.057-2.655V8.367c0-1.092 0-1.958.057-2.655.058-.714.18-1.317.46-1.868a4.75 4.75 0 012.077-2.076c.55-.281 1.154-.403 1.868-.461.697-.057 1.563-.057 2.655-.057zM5.834 2.802c-.62.05-1.005.147-1.31.302a3.25 3.25 0 00-1.42 1.42c-.155.305-.251.69-.302 1.31-.01.13-.02.269-.026.416.565 0 .98-.004 1.314-.027.38-.026.602-.074.771-.144A2.25 2.25 0 006.079 4.86c.07-.169.118-.39.144-.77.023-.335.026-.75.027-1.315a11.68 11.68 0 00-.416.026zM2.75 8.4v-.65c.575 0 1.049-.003 1.443-.03.456-.031.86-.097 1.242-.255a3.75 3.75 0 002.03-2.03c.158-.382.224-.786.255-1.242.027-.394.03-.868.03-1.443h8.5c0 .575.003 1.049.03 1.443.031.456.097.86.255 1.242a3.75 3.75 0 002.03 2.03c.382.158.786.224 1.242.255.394.027.868.03 1.443.03v4.5c-.575 0-1.049.003-1.442.03-.457.031-.86.097-1.243.256a3.75 3.75 0 00-2.03 2.029c-.158.382-.224.786-.255 1.242-.027.394-.03.868-.03 1.443h-8.5c0-.575-.003-1.049-.03-1.443-.031-.456-.097-.86-.255-1.242a3.75 3.75 0 00-2.03-2.03c-.382-.158-.786-.224-1.242-.255-.394-.027-.868-.03-1.443-.03V8.4zm.026 5.35c.007.147.015.285.026.416.05.62.147 1.005.302 1.31a3.25 3.25 0 001.42 1.42c.305.155.69.251 1.31.302.13.01.269.02.416.026 0-.565-.004-.98-.027-1.314-.026-.38-.074-.602-.144-.771a2.25 2.25 0 00-1.218-1.218c-.169-.07-.39-.118-.77-.144-.335-.023-.75-.026-1.315-.027zm17.134.027c.334-.023.75-.026 1.314-.027-.007.147-.015.285-.026.416-.05.62-.147 1.005-.302 1.31a3.25 3.25 0 01-1.42 1.42c-.305.155-.69.251-1.31.302-.13.01-.269.02-.416.026 0-.565.004-.98.027-1.314.026-.38.074-.602.144-.771a2.25 2.25 0 011.218-1.218c.169-.07.39-.118.77-.144zm1.314-7.527a11.541 11.541 0 00-.026-.416c-.05-.62-.147-1.005-.302-1.31a3.25 3.25 0 00-1.42-1.42c-.305-.155-.69-.251-1.31-.302-.13-.01-.269-.02-.416-.026 0 .565.004.98.027 1.314.026.38.074.602.144.771.229.551.667.99 1.218 1.218.169.07.39.118.77.144.335.023.75.026 1.315.027zM12 8.75a1.25 1.25 0 100 2.5 1.25 1.25 0 000-2.5zM9.25 10a2.75 2.75 0 115.5 0 2.75 2.75 0 01-5.5 0zM5 21.25a.75.75 0 000 1.5h14a.75.75 0 000-1.5H5z"/>
</svg>
