<svg xmlns="http://www.w3.org/2000/svg" width="24" height="24" fill="currentColor" viewBox="0 0 24 24">
  <rect width="20" height="20" x="2" y="2" opacity=".12" rx="5"/>
  <path fill-rule="evenodd" d="M10 1.25h-.034c-1.371 0-2.447 0-3.311.07-.88.073-1.607.221-2.265.557A5.75 5.75 0 001.877 4.39c-.336.658-.484 1.385-.556 2.265-.071.864-.071 1.94-.071 3.311v4.068c0 1.371 0 2.447.07 3.311.073.88.221 1.607.557 2.265a5.75 5.75 0 002.513 2.513c.658.336 1.385.485 2.265.556.864.071 1.94.071 3.311.071h4.068c1.371 0 2.447 0 3.311-.07.88-.072 1.607-.221 2.265-.557a5.75 5.75 0 002.513-2.513c.336-.658.485-1.385.556-2.265.071-.864.071-1.94.071-3.311V9.966c0-1.371 0-2.447-.07-3.311-.072-.88-.221-1.607-.557-2.265a5.75 5.75 0 00-2.513-2.513c-.658-.336-1.385-.484-2.265-.556-.864-.071-1.94-.071-3.311-.071H10zM5.07 3.213c.412-.21.92-.333 1.707-.397.796-.065 1.81-.066 3.223-.066h4c1.412 0 2.427 0 3.223.066.787.064 1.295.188 1.707.397a4.25 4.25 0 011.857 1.858c.21.411.333.919.397 1.706.065.796.066 1.81.066 3.223v4c0 1.412 0 2.427-.066 3.223-.064.787-.188 1.295-.397 1.707a4.251 4.251 0 01-1.857 1.857c-.412.21-.92.333-1.707.397-.796.065-1.81.066-3.223.066h-4c-1.413 0-2.427 0-3.223-.066-.787-.064-1.295-.188-1.706-.397a4.25 4.25 0 01-1.858-1.857c-.21-.412-.333-.92-.397-1.707-.065-.796-.066-1.81-.066-3.223v-4c0-1.413 0-2.427.066-3.223.064-.787.188-1.295.397-1.706a4.25 4.25 0 011.858-1.858zm1.481 6.278A.75.75 0 005.25 10v4c0 .414.336.75.75.75h4a.75.75 0 000-1.5H7.68c.22-.217.468-.447.74-.676.62-.522 1.329-1.012 2.083-1.353l6.77 2.964a.75.75 0 001.455-.367L18 14c.728-.182.727-.182.727-.183v-.003l-.002-.005-.004-.015-.012-.046a6.015 6.015 0 00-.248-.673 6.787 6.787 0 00-.941-1.548c-.932-1.147-2.51-2.277-5.02-2.277-1.387 0-2.669.538-3.734 1.21l-2.215-.969zm0 0L6 9.25l.551.241zm0 0l2.215.97c-.486.306-.927.641-1.312.965-.255.215-.49.43-.704.635V10a.747.747 0 00-.199-.509zm3.952 1.73l-1.737-.76 1.737.76zm6.77 2.963v-.001l-.006-.02a4.508 4.508 0 00-.18-.487 5.284 5.284 0 00-.732-1.203c-.693-.853-1.865-1.723-3.855-1.723-.68 0-1.355.181-1.997.471l6.77 2.963z"/>
</svg>
