<svg xmlns="http://www.w3.org/2000/svg" width="24" height="24" fill="currentColor" viewBox="0 0 24 24">
  <path fill-rule="evenodd" d="M2 10.327v3.346c0 2.387 0 3.58.499 4.246a2.5 2.5 0 001.823.995c.83.06 1.834-.586 3.841-1.876L11 15.214v-1.54c0 2.386 0 3.579.499 4.245a2.5 2.5 0 001.823.995c.83.06 1.834-.585 3.841-1.876l2.603-1.673c1.742-1.12 2.613-1.68 2.914-2.392a2.5 2.5 0 000-1.946c-.301-.712-1.172-1.272-2.914-2.392l-2.603-1.673c-2.007-1.29-3.011-1.936-3.841-1.876a2.5 2.5 0 00-1.823.995C11 6.747 11 7.94 11 10.327V8.786L8.163 6.962c-2.007-1.29-3.011-1.936-3.841-1.876a2.5 2.5 0 00-1.823.995C2 6.747 2 7.94 2 10.327z" opacity=".12"/>
  <path fill-rule="evenodd" d="M8.569 6.331l-.034-.021c-.975-.627-1.752-1.127-2.388-1.458-.637-.332-1.25-.56-1.879-.515a3.25 3.25 0 00-2.37 1.294c-.377.505-.517 1.143-.583 1.86-.065.713-.065 1.636-.065 2.796v3.426c0 1.16 0 2.083.065 2.797.066.715.206 1.354.583 1.859a3.25 3.25 0 002.37 1.294c.63.044 1.242-.183 1.88-.515.635-.331 1.412-.83 2.387-1.458l.034-.021 1.75-1.125c.067.702.208 1.328.58 1.825a3.25 3.25 0 002.37 1.294c.628.044 1.24-.183 1.878-.515.636-.331 1.413-.83 2.388-1.458l.034-.021 2.603-1.673.031-.02c.844-.543 1.521-.979 2.021-1.369.507-.395.921-.809 1.147-1.342a3.25 3.25 0 000-2.53c-.226-.533-.64-.947-1.146-1.342-.5-.39-1.178-.826-2.022-1.368l-.031-.02-2.603-1.674-.034-.021c-.975-.627-1.752-1.127-2.388-1.458-.637-.332-1.25-.56-1.879-.515a3.25 3.25 0 00-2.37 1.294c-.371.497-.512 1.123-.58 1.825l-1.75-1.125zm1.683 2.866L7.757 7.593c-1.016-.653-1.734-1.115-2.302-1.41-.574-.299-.878-.364-1.08-.35A1.75 1.75 0 003.1 6.53c-.12.162-.23.453-.29 1.097-.058.638-.059 1.492-.059 2.7v3.346c0 1.208 0 2.062.06 2.7.058.644.168.935.29 1.097.303.406.769.66 1.275.696.202.015.506-.05 1.08-.349.568-.295 1.286-.756 2.302-1.41l2.495-1.604c-.002-.337-.002-.7-.002-1.09v-3.426c0-.39 0-.753.002-1.09zm3.123-3.363c.202-.015.506.05 1.08.349.568.295 1.286.757 2.303 1.41l2.602 1.673c.884.568 1.502.967 1.942 1.31.44.342.611.564.687.743a1.75 1.75 0 010 1.362c-.076.18-.248.4-.687.744-.44.342-1.058.741-1.942 1.309l-2.602 1.673c-1.017.654-1.735 1.115-2.303 1.41-.574.299-.878.364-1.08.35a1.75 1.75 0 01-1.276-.697c-.12-.162-.23-.453-.29-1.097-.058-.638-.059-1.492-.059-2.7v-3.346c0-1.208 0-2.062.06-2.7.058-.644.168-.935.29-1.097a1.75 1.75 0 011.275-.696z"/>
</svg>
