<svg xmlns="http://www.w3.org/2000/svg" width="24" height="24" fill="currentColor" viewBox="0 0 24 24">
  <path d="M2 9h20v6.6c0 2.24 0 3.36-.436 4.216a4 4 0 01-1.748 1.748C18.96 22 17.84 22 15.6 22H8.4c-2.24 0-3.36 0-4.216-.436a4 4 0 01-1.748-1.748C2 18.96 2 17.84 2 15.6V9z" opacity=".12"/>
  <path fill-rule="evenodd" d="M10 1.25h-.034c-1.371 0-2.447 0-3.311.07-.88.073-1.607.221-2.265.557A5.75 5.75 0 001.877 4.39c-.336.658-.484 1.385-.556 2.265-.053.64-.066 1.396-.07 2.302a.76.76 0 000 .08l-.001.927V14.034a295.171 295.171 0 00.001 1.01c.004.905.017 1.661.07 2.301.072.88.22 1.607.556 2.265a5.75 5.75 0 002.513 2.513c.658.336 1.385.485 2.265.556.864.071 1.94.071 3.311.071h4.068c1.371 0 2.447 0 3.311-.07.88-.072 1.607-.221 2.265-.557a5.75 5.75 0 002.513-2.513c.336-.658.485-1.385.556-2.265.053-.64.066-1.396.07-2.302a.774.774 0 000-.08l.001-.93V9.965v-.926a.796.796 0 00-.001-.081c-.004-.906-.017-1.662-.07-2.302-.071-.88-.22-1.607-.556-2.265a5.75 5.75 0 00-2.513-2.513c-.658-.336-1.385-.484-2.265-.556-.864-.071-1.94-.071-3.311-.071H10zm11.25 13v-4.5h-8.5v4.5h8.5zm-10 0v-4.5h-8.5v4.5h8.5zm-8.493 1.5h8.493v5.5H10c-1.413 0-2.427 0-3.223-.066-.787-.064-1.295-.188-1.706-.397a4.25 4.25 0 01-1.858-1.857c-.21-.412-.333-.92-.397-1.707-.035-.421-.051-.903-.059-1.473zm9.993 0h8.493a22.18 22.18 0 01-.059 1.473c-.064.787-.188 1.295-.397 1.707a4.251 4.251 0 01-1.857 1.857c-.412.21-.92.333-1.707.397-.796.065-1.81.066-3.223.066h-1.25v-5.5zm-9.993-7.5h18.486a22.181 22.181 0 00-.059-1.473c-.064-.787-.188-1.295-.397-1.706a4.25 4.25 0 00-1.857-1.858c-.412-.21-.92-.333-1.707-.397-.796-.065-1.81-.066-3.223-.066h-4c-1.413 0-2.427 0-3.223.066-.787.064-1.295.188-1.706.397a4.25 4.25 0 00-1.858 1.858c-.21.411-.333.919-.397 1.706-.035.421-.051.903-.059 1.473z"/>
</svg>
