<svg xmlns="http://www.w3.org/2000/svg" width="24" height="24" fill="currentColor" viewBox="0 0 24 24">
  <path d="M17.2 8H6.8c-1.68 0-2.52 0-3.162.327a3 3 0 00-1.311 1.311C2 10.28 2 11.12 2 12.8V14c0 .93 0 1.395.102 1.777a3 3 0 002.122 2.12C4.605 18 5.07 18 6 18a2 2 0 012-2h8a2 2 0 012 2c.93 0 1.395 0 1.776-.102a3 3 0 002.122-2.121C22 15.395 22 14.93 22 14v-1.2c0-1.68 0-2.52-.327-3.162a3 3 0 00-1.311-1.311C19.72 8 18.88 8 17.2 8z" opacity=".12"/>
  <path fill-rule="evenodd" d="M9.2 1.25h-.03c-.535 0-.98 0-1.345.03-.38.03-.736.098-1.073.27A2.75 2.75 0 005.55 2.752c-.172.337-.24.693-.27 1.073-.03.365-.03.81-.03 1.345V7.266c-.17.006-.331.015-.481.027-.547.045-1.027.14-1.471.366a3.75 3.75 0 00-1.64 1.639c-.226.444-.32.924-.365 1.47-.043.531-.043 1.187-.043 2v1.348c0 .818 0 1.376.128 1.855a3.75 3.75 0 002.651 2.651c.344.092.729.118 1.221.125v.278c0 .445 0 .816.02 1.12.022.317.07.617.19.907a2.75 2.75 0 001.488 1.489c.29.12.59.167.907.188.304.021.675.021 1.12.021H15.025c.445 0 .816 0 1.12-.02.317-.022.617-.069.907-.19a2.75 2.75 0 001.489-1.488c.12-.29.167-.59.188-.907.021-.304.021-.675.021-1.12v-.278c.492-.007.877-.033 1.22-.125a3.75 3.75 0 002.652-2.651c.128-.48.128-1.037.128-1.855v-1.348c0-.813 0-1.469-.043-2-.045-.546-.14-1.026-.366-1.47a3.75 3.75 0 00-1.639-1.64c-.444-.226-.924-.32-1.47-.365-.15-.012-.311-.02-.482-.027V5.17c0-.535 0-.98-.03-1.345-.03-.38-.098-.736-.27-1.073A2.75 2.75 0 0017.25 1.55c-.338-.172-.694-.24-1.074-.27-.365-.03-.81-.03-1.345-.03H9.2zm8.05 6V5.2c0-.572 0-.957-.025-1.253-.023-.287-.065-.424-.111-.514a1.25 1.25 0 00-.547-.547c-.09-.046-.227-.088-.514-.111-.296-.024-.68-.025-1.253-.025H9.2c-.572 0-.957 0-1.252.025-.288.023-.425.065-.515.111a1.25 1.25 0 00-.547.547c-.046.09-.088.227-.111.514-.024.296-.025.68-.025 1.253v2.05H17.25zm1.39 9.998c.51-.006.748-.023.942-.075a2.25 2.25 0 001.591-1.59c.07-.263.077-.605.077-1.583v-1.2c0-.853 0-1.447-.038-1.91-.037-.453-.107-.714-.207-.911a2.25 2.25 0 00-.983-.984c-.198-.1-.459-.17-.913-.207-.462-.037-1.057-.038-1.909-.038H6.8c-.852 0-1.447 0-1.91.038-.453.037-.714.107-.911.207a2.25 2.25 0 00-.984.984c-.1.197-.17.458-.207.912-.037.462-.038 1.056-.038 1.909V14c0 .978.006 1.32.077 1.582a2.25 2.25 0 001.59 1.591c.195.052.434.07.943.075.026-.102.058-.201.1-.3a2.75 2.75 0 011.488-1.489c.29-.12.59-.167.907-.188.304-.021.675-.021 1.12-.021H15.025c.445 0 .816 0 1.12.02.317.022.617.069.907.19a2.75 2.75 0 011.489 1.488c.04.099.073.198.099.3zm-11.118-.403c.077-.032.194-.061.435-.078A17.07 17.07 0 019 16.75h6c.476 0 .796 0 1.043.017.241.017.358.046.435.078.307.127.55.37.677.677.032.077.061.194.078.435.017.247.017.567.017 1.043s0 .796-.017 1.043c-.017.241-.046.358-.078.435a1.25 1.25 0 01-.677.677c-.077.032-.194.061-.435.078-.247.017-.567.017-1.043.017H9c-.476 0-.796 0-1.043-.017-.24-.017-.358-.046-.435-.078a1.25 1.25 0 01-.677-.677c-.032-.077-.061-.194-.078-.435A17.091 17.091 0 016.75 19c0-.476 0-.796.017-1.043.017-.241.046-.358.078-.435.127-.307.37-.55.677-.677zM4.25 11a.75.75 0 01.75-.75h1a.75.75 0 010 1.5H5a.75.75 0 01-.75-.75z"/>
</svg>
