<svg xmlns="http://www.w3.org/2000/svg" width="24" height="24" fill="currentColor" viewBox="0 0 24 24">
  <path d="M3 3h18v18H3z" opacity=".12"/>
  <path fill-rule="evenodd" d="M21.75 2a.75.75 0 00-1.5 0v20a.75.75 0 001.5 0V2zM15 4a1 1 0 100-2 1 1 0 000 2zm-4 5a1 1 0 100-2 1 1 0 000 2zm4 4a1 1 0 100-2 1 1 0 000 2zm-4 4a1 1 0 100-2 1 1 0 000 2zm-7 4a1 1 0 11-2 0 1 1 0 012 0zm3 1a1 1 0 100-2 1 1 0 000 2zm5-1a1 1 0 11-2 0 1 1 0 012 0zm4 0a1 1 0 11-2 0 1 1 0 012 0zM4 16a1 1 0 11-2 0 1 1 0 012 0zm8-4a1 1 0 11-2 0 1 1 0 012 0zm-5 1a1 1 0 100-2 1 1 0 000 2zm-3-1a1 1 0 11-2 0 1 1 0 012 0zm0-4a1 1 0 11-2 0 1 1 0 012 0zm8-5a1 1 0 11-2 0 1 1 0 012 0zM7 4a1 1 0 100-2 1 1 0 000 2zM4 3a1 1 0 11-2 0 1 1 0 012 0z"/>
</svg>
