<svg xmlns="http://www.w3.org/2000/svg" width="24" height="24" fill="currentColor" viewBox="0 0 24 24">
  <path d="M2 11.997C2 17.52 6.479 22 12.003 22c5.402 0 9.805-4.282 9.997-9.637A7.78 7.78 0 0111.637 2C6.282 2.193 2 6.595 2 11.997z" opacity=".12"/>
  <path fill-rule="evenodd" d="M11.61 1.25a.75.75 0 01.558.22L22.53 11.832a.75.75 0 01.22.557c-.207 5.758-4.94 10.361-10.747 10.361-5.939 0-10.753-4.814-10.753-10.753 0-5.808 4.603-10.54 10.36-10.747zm-1.107 1.614c-4.397.717-7.753 4.533-7.753 9.133a9.253 9.253 0 0018.386 1.5A8.53 8.53 0 0110.503 2.864zm1.421.484a7.03 7.03 0 008.728 8.728l-8.728-8.728z"/>
</svg>
