<svg xmlns="http://www.w3.org/2000/svg" width="24" height="24" fill="currentColor" viewBox="0 0 24 24">
  <g opacity=".12">
    <path d="M2 19V5c0 1.306 3.5 3 7 3v14c-3 0-7-1.5-7-3zM22 19V5c0 1.306-3 3-7 3v14c4 0 7-1.5 7-3z"/>
  </g>
  <path fill-rule="evenodd" d="M2.75 5c0 .003.004.041.05.119.054.089.149.205.302.342.307.274.78.57 1.392.844 1.22.546 2.866.945 4.506.945a.75.75 0 01.75.75v14a.75.75 0 01-.75.75c-1.606 0-3.452-.398-4.909-.993-.728-.298-1.397-.661-1.9-1.08-.477-.398-.941-.964-.941-1.677V5c0-.814.604-1.404 1.203-1.796.638-.416 1.501-.764 2.475-1.046C6.885 1.593 9.457 1.25 12 1.25s5.115.343 7.072.908c.974.282 1.838.63 2.475 1.046.599.392 1.203.982 1.203 1.796v14c0 .636-.318 1.19-.745 1.626-.429.439-1.017.814-1.697 1.12-1.364.614-3.223 1.004-5.308 1.004a.75.75 0 01-.75-.75V8a.75.75 0 01.75-.75c1.9 0 3.54-.404 4.681-.94.573-.268.993-.557 1.258-.821.279-.278.311-.448.311-.489 0-.015-.025-.214-.524-.54-.46-.301-1.165-.6-2.07-.86-1.8-.521-4.229-.85-6.656-.85-2.427 0-4.856.329-6.656.85-.905.26-1.61.559-2.07.86-.494.323-.523.521-.524.54zm18.5 2.151c-.281.186-.594.36-.931.518-1.195.56-2.777.971-4.569 1.062v12.5c1.593-.08 2.958-.41 3.942-.852.57-.257.982-.537 1.24-.802.261-.266.318-.463.318-.577V7.151zm-18.5-.083V19c0 .037.036.22.402.525.342.285.86.579 1.507.843 1.068.437 2.381.754 3.591.85V8.727c-1.601-.1-3.153-.508-4.369-1.051a8.38 8.38 0 01-1.131-.607z"/>
</svg>
