<svg xmlns="http://www.w3.org/2000/svg" width="24" height="24" fill="currentColor" viewBox="0 0 24 24">
  <g clip-path="url(#clip0_2011:12310)">
    <path d="M21.466 6.478c.502-1.791.752-2.687.52-3.302a2 2 0 00-1.162-1.162c-.615-.233-1.51.018-3.302.52L7.296 5.397C4.466 6.19 3.05 6.586 2.64 7.258a2 2 0 00-.09 1.917c.345.708 1.716 1.236 4.459 2.29l2.663 1.024c.488.188.733.282.938.429a2 2 0 01.471.47c.146.206.24.45.428.94l1.024 2.662c1.055 2.743 1.583 4.114 2.291 4.459a2 2 0 001.916-.09c.673-.41 1.07-1.825 1.862-4.655l2.863-10.226z" opacity=".12"/>
    <path fill-rule="evenodd" d="M19.75 2.736c-.483.089-1.116.265-2.026.52L7.498 6.12c-1.429.4-2.453.688-3.175.957-.766.284-.985.48-1.041.573a1.25 1.25 0 00-.057 1.197c.048.098.247.313.983.669.694.335 1.687.718 3.071 1.25l2.663 1.024c.024.01.048.02.072.028.418.16.748.287 1.032.49.25.178.47.396.648.647.202.284.328.614.489 1.032l.027.072 1.024 2.663c.533 1.384.916 2.377 1.251 3.071.355.735.57.935.668.983a1.25 1.25 0 001.198-.057c.093-.056.289-.275.573-1.04.269-.723.556-1.748.957-3.176l2.863-10.226c.255-.91.431-1.543.52-2.025.09-.488.062-.698.02-.81a1.25 1.25 0 00-.726-.725c-.11-.042-.32-.07-.809.02zm-.271-1.475c.561-.103 1.107-.139 1.61.052a2.75 2.75 0 011.598 1.598c.19.504.155 1.049.052 1.61-.103.559-.298 1.258-.54 2.123l-.01.036-2.864 10.226-.01.038c-.388 1.383-.692 2.468-.985 3.256-.28.752-.618 1.445-1.198 1.799a2.75 2.75 0 01-2.635.124c-.611-.297-1.014-.956-1.363-1.678-.365-.757-.77-1.809-1.286-3.15l-.014-.036-1.024-2.662c-.201-.525-.26-.663-.339-.774a1.25 1.25 0 00-.294-.294c-.11-.079-.249-.138-.774-.34l-2.662-1.024-.036-.014c-1.341-.515-2.393-.92-3.15-1.286-.722-.349-1.38-.751-1.678-1.362A2.75 2.75 0 012 6.868c.353-.58 1.047-.919 1.799-1.198.788-.293 1.873-.597 3.256-.985l.038-.01L17.32 1.812l.036-.01c.865-.243 1.564-.438 2.123-.541z"/>
  </g>
  <defs>
    <clipPath id="clip0_2011:12310">
      <path d="M0 0h24v24H0z"/>
    </clipPath>
  </defs>
</svg>
