<svg xmlns="http://www.w3.org/2000/svg" width="24" height="24" fill="currentColor" viewBox="0 0 24 24">
  <path d="M4 20l.62-3.1c.141-.706.212-1.06.341-1.389.115-.292.263-.57.443-.827.202-.29.457-.545.966-1.054L10.5 9.5l4 4-4.13 4.13c-.51.51-.764.764-1.054.966-.257.18-.535.328-.827.443-.33.13-.683.2-1.39.341L4 20z" opacity=".12"/>
  <path fill-rule="evenodd" d="M19.221 2.364a2.75 2.75 0 00-2.442 0c-.407.202-.763.559-1.223 1.02l-.086.086-3 3a.75.75 0 001.06 1.06l.98-.979a4.763 4.763 0 002.938 2.94l-.978.979a.75.75 0 001.06 1.06l3-3 .086-.086c.461-.46.818-.816 1.02-1.223a2.75 2.75 0 000-2.442c-.202-.407-.559-.763-1.02-1.224l-.086-.085-.085-.086c-.46-.461-.817-.818-1.224-1.02zm-.518 5.873l.767-.767c.588-.588.744-.76.822-.915a1.25 1.25 0 000-1.11c-.078-.156-.234-.327-.822-.915-.588-.588-.759-.744-.915-.822a1.25 1.25 0 00-1.11 0c-.156.078-.326.234-.915.822l-.767.767a3.251 3.251 0 002.94 2.94zM4.53 2.47a.75.75 0 10-1.06 1.06L9.44 9.5l-3.6 3.6-.048.048c-.464.463-.762.762-1.003 1.107a4.75 4.75 0 00-.526.982c-.154.392-.237.807-.365 1.45l-.013.066-.62 3.1a.75.75 0 00.882.882l3.1-.62.067-.013c.642-.128 1.057-.211 1.448-.365.348-.136.677-.313.983-.526.345-.24.644-.54 1.107-1.003l.048-.048 3.6-3.6 5.97 5.97a.75.75 0 001.06-1.06l-6.5-6.5-4-4-6.5-6.5zM6.9 14.16l3.6-3.6 2.94 2.94-3.6 3.6c-.528.527-.73.725-.953.88-.21.147-.435.268-.672.36-.254.1-.53.158-1.262.305l-1.997.399.4-1.997c.146-.731.204-1.008.303-1.262.093-.237.214-.463.36-.672.156-.223.354-.425.882-.953z"/>
</svg>
