<svg xmlns="http://www.w3.org/2000/svg" width="24" height="24" fill="currentColor" viewBox="0 0 24 24">
  <circle cx="12" cy="12" r="10" opacity=".12"/>
  <path fill-rule="evenodd" d="M12 2.75a9.25 9.25 0 100 18.5 9.25 9.25 0 000-18.5zM1.25 12C1.25 6.063 6.063 1.25 12 1.25S22.75 6.063 22.75 12 17.937 22.75 12 22.75 1.25 17.937 1.25 12zm9.843-4.744a.75.75 0 01.651.837l-.207 1.657h1.488l.23-1.843a.75.75 0 111.49.186l-.208 1.657H16a.75.75 0 010 1.5h-1.65l-.188 1.5H15.5a.75.75 0 010 1.5h-1.525l-.23 1.843a.75.75 0 01-1.49-.186l.208-1.657h-1.488l-.23 1.843a.75.75 0 01-1.49-.186l.208-1.657H8a.75.75 0 010-1.5h1.65l.188-1.5H8.5a.75.75 0 010-1.5h1.525l.23-1.843a.75.75 0 01.838-.651zm.07 5.494h1.487l.188-1.5H11.35l-.188 1.5z"/>
</svg>
