<svg xmlns="http://www.w3.org/2000/svg" width="24" height="24" fill="currentColor" viewBox="0 0 24 24">
  <path d="M12 2C6.477 2 2 6.477 2 12c0 2.251.744 4.329 2 6l.879-.879A7.243 7.243 0 0110 15a2 2 0 114 0c1.92 0 3.763.763 5.121 2.121l.88.88A9.955 9.955 0 0022 12c0-5.523-4.477-10-10-10z" opacity=".12"/>
  <path fill-rule="evenodd" d="M4.95 6.011a9.21 9.21 0 00-2.17 5.239H4a.75.75 0 010 1.5H2.78a9.194 9.194 0 001.33 4.08l.592-.593a6.786 6.786 0 014.651-1.985 2.756 2.756 0 011.897-1.899V9a.75.75 0 011.5 0v3.354c.916.259 1.638.981 1.897 1.898a6.786 6.786 0 014.651 1.985l.593.593a9.194 9.194 0 001.329-4.08H20a.75.75 0 010-1.5h1.22a9.21 9.21 0 00-2.17-5.239l-.52.52a.75.75 0 11-1.06-1.061l.52-.52a9.21 9.21 0 00-5.24-2.17V4a.75.75 0 01-1.5 0V2.78a9.21 9.21 0 00-5.239 2.17l.52.52A.75.75 0 015.47 6.53l-.52-.519zM12 13.75a1.25 1.25 0 100 2.5 1.25 1.25 0 000-2.5zm-6.237 3.548a5.285 5.285 0 013.591-1.546 2.751 2.751 0 005.292 0 5.285 5.285 0 013.591 1.546l.757.756A9.228 9.228 0 0112 21.25a9.229 9.229 0 01-6.994-3.196l.757-.756zM22.75 12c0-5.937-4.813-10.75-10.75-10.75S1.25 6.063 1.25 12 6.063 22.75 12 22.75 22.75 17.937 22.75 12z"/>
</svg>
