<svg xmlns="http://www.w3.org/2000/svg" width="24" height="24" fill="currentColor" viewBox="0 0 24 24">
  <path fill-rule="evenodd" d="M3.218 4.092C3 4.52 3 5.08 3 6.2v11.6c0 1.12 0 1.68.218 2.108a2 2 0 00.874.874C4.52 21 5.08 21 6.2 21h.6c1.12 0 1.68 0 2.108-.218a2 2 0 00.874-.874C10 19.48 10 18.92 10 17.8V6.2c0-1.12 0-1.68-.218-2.108a2 2 0 00-.874-.874C8.48 3 7.92 3 6.8 3h-.6c-1.12 0-1.68 0-2.108.218a2 2 0 00-.874.874zm11 0C14 4.52 14 5.08 14 6.2v11.6c0 1.12 0 1.68.218 2.108a2 2 0 00.874.874C15.52 21 16.08 21 17.2 21h.6c1.12 0 1.68 0 2.108-.218a2 2 0 00.874-.874C21 19.48 21 18.92 21 17.8V6.2c0-1.12 0-1.68-.218-2.108a2 2 0 00-.874-.874C19.48 3 18.92 3 17.8 3h-.6c-1.12 0-1.68 0-2.108.218a2 2 0 00-.874.874z" opacity=".12"/>
  <path fill-rule="evenodd" d="M6.2 2.25h-.03c-.535 0-.98 0-1.345.03-.38.03-.736.098-1.073.27A2.75 2.75 0 002.55 3.752c-.172.337-.24.693-.27 1.073-.03.365-.03.81-.03 1.345V17.83c0 .535 0 .98.03 1.345.03.38.098.736.27 1.073a2.75 2.75 0 001.202 1.202c.337.172.693.24 1.073.27.365.03.81.03 1.345.03h.66c.535 0 .98 0 1.345-.03.38-.03.736-.098 1.073-.27a2.75 2.75 0 001.202-1.201c.172-.338.24-.694.27-1.074.03-.365.03-.81.03-1.345V6.17c0-.535 0-.98-.03-1.345-.03-.38-.098-.736-.27-1.073A2.75 2.75 0 009.248 2.55c-.337-.172-.693-.24-1.073-.27-.365-.03-.81-.03-1.345-.03H6.2zM4.433 3.886c.09-.046.227-.088.514-.111.296-.024.68-.025 1.253-.025h.6c.572 0 .957 0 1.253.025.287.023.424.065.514.111.236.12.427.311.547.547.046.09.088.227.111.514.024.296.025.68.025 1.253v11.6c0 .572 0 .957-.025 1.252-.023.288-.065.425-.111.515a1.25 1.25 0 01-.547.547c-.09.046-.227.088-.514.111-.296.024-.68.025-1.253.025h-.6c-.572 0-.957 0-1.253-.025-.287-.023-.424-.065-.514-.111a1.25 1.25 0 01-.547-.547c-.046-.09-.088-.227-.111-.515-.024-.295-.025-.68-.025-1.252V6.2c0-.572 0-.957.025-1.253.023-.287.065-.424.111-.514a1.25 1.25 0 01.547-.547zM17.2 2.25h-.03c-.535 0-.98 0-1.345.03-.38.03-.736.098-1.073.27a2.75 2.75 0 00-1.202 1.202c-.172.337-.24.693-.27 1.073-.03.365-.03.81-.03 1.345V17.83c0 .535 0 .98.03 1.345.03.38.098.736.27 1.073.263.518.684.939 1.201 1.202.338.172.694.24 1.074.27.365.03.81.03 1.345.03h.66c.535 0 .98 0 1.345-.03.38-.03.736-.098 1.073-.27a2.751 2.751 0 001.202-1.201c.172-.338.24-.694.27-1.074.03-.365.03-.81.03-1.345V6.17c0-.535 0-.98-.03-1.345-.03-.38-.098-.736-.27-1.073A2.75 2.75 0 0020.25 2.55c-.338-.172-.694-.24-1.074-.27-.365-.03-.81-.03-1.345-.03h-.63zm-1.768 1.636c.091-.046.228-.088.515-.111.296-.024.68-.025 1.253-.025h.6c.572 0 .957 0 1.252.025.288.023.425.065.515.111.236.12.427.311.547.547.046.09.088.227.111.514.024.296.025.68.025 1.253v11.6c0 .572 0 .957-.025 1.252-.023.288-.065.425-.111.515a1.25 1.25 0 01-.547.547c-.09.046-.227.088-.515.111-.295.024-.68.025-1.252.025h-.6c-.572 0-.957 0-1.252-.025-.288-.023-.425-.065-.516-.111a1.25 1.25 0 01-.546-.547c-.046-.09-.088-.227-.111-.515-.024-.295-.025-.68-.025-1.252V6.2c0-.572 0-.957.025-1.253.023-.287.065-.424.111-.514a1.25 1.25 0 01.546-.547z"/>
</svg>
