<svg xmlns="http://www.w3.org/2000/svg" width="24" height="24" fill="currentColor" viewBox="0 0 24 24">
  <path fill-rule="evenodd" d="M19 8a3 3 0 100-6 3 3 0 000 6zM5 8a3 3 0 100-6 3 3 0 000 6zm17 11a3 3 0 11-6 0 3 3 0 016 0zM5 22a3 3 0 100-6 3 3 0 000 6z" opacity=".12"/>
  <path fill-rule="evenodd" d="M16.75 5A2.25 2.25 0 1119 7.25 2.25 2.25 0 0116.75 5zm-1.425.75h-6.65A3.754 3.754 0 015.75 8.675v6.65a3.755 3.755 0 012.925 2.925h6.65a3.755 3.755 0 012.925-2.925v-6.65a3.755 3.755 0 01-2.925-2.925zm-6.65 14h6.65a3.751 3.751 0 104.425-4.425v-6.65a3.751 3.751 0 10-4.425-4.425h-6.65A3.751 3.751 0 104.25 8.675v6.65a3.751 3.751 0 104.425 4.425zM7.25 19a2.25 2.25 0 10-4.5 0 2.25 2.25 0 004.5 0zM19 21.25a2.25 2.25 0 01-2.25-2.249V19a2.25 2.25 0 012.249-2.25H19a2.25 2.25 0 010 4.5zM5 2.75a2.25 2.25 0 100 4.5 2.25 2.25 0 000-4.5z"/>
</svg>
