<svg xmlns="http://www.w3.org/2000/svg" width="24" height="24" fill="currentColor" viewBox="0 0 24 24">
  <path d="M12 22c5.523 0 10-4.477 10-10S17.523 2 12 2 2 6.477 2 12s4.477 10 10 10z" opacity=".12"/>
  <path fill-rule="evenodd" d="M12 2.75a9.25 9.25 0 100 18.5 9.25 9.25 0 000-18.5zM1.25 12C1.25 6.063 6.063 1.25 12 1.25S22.75 6.063 22.75 12 17.937 22.75 12 22.75 1.25 17.937 1.25 12zm7-2.257a2.493 2.493 0 012.493-2.493h.507V6.5a.75.75 0 011.5 0v.75H13A2.75 2.75 0 0115.75 10a.75.75 0 01-1.5 0c0-.69-.56-1.25-1.25-1.25h-.25v2.71l1.295.431a2.493 2.493 0 01-.788 4.859h-.507v.75a.75.75 0 01-1.5 0v-.75H11A2.75 2.75 0 018.25 14a.75.75 0 011.5 0c0 .69.56 1.25 1.25 1.25h.25v-2.71l-1.295-.431A2.493 2.493 0 018.25 9.743zm3 1.216V8.75h-.507a.993.993 0 00-.314 1.936l.82.273zm1.5 2.082v2.209h.507a.993.993 0 00.314-1.936l-.821-.273z"/>
</svg>
