<svg xmlns="http://www.w3.org/2000/svg" width="24" height="24" fill="currentColor" viewBox="0 0 24 24">
  <path d="M2 8.4c0-2.24 0-3.36.436-4.216a4 4 0 011.748-1.748C5.04 2 6.16 2 8.4 2h.4c1.12 0 1.68 0 2.108.218a2 2 0 01.874.874C12 3.52 12 4.08 12 5.2v13.6c0 1.12 0 1.68-.218 2.108a2 2 0 01-.874.874C10.48 22 9.92 22 8.8 22h-.4c-2.24 0-3.36 0-4.216-.436a4 4 0 01-1.748-1.748C2 18.96 2 17.84 2 15.6V8.4z" opacity=".12"/>
  <path fill-rule="evenodd" d="M8.4 1.25h-.033c-1.092 0-1.958 0-2.655.057-.714.058-1.317.18-1.868.46a4.75 4.75 0 00-2.076 2.077c-.281.55-.403 1.154-.461 1.868-.057.697-.057 1.563-.057 2.655V15.633c0 1.092 0 1.958.057 2.655.058.714.18 1.317.46 1.869a4.75 4.75 0 002.077 2.075c.55.281 1.154.403 1.868.461.697.057 1.563.057 2.655.057H10a.75.75 0 000-1.5H8.4c-1.132 0-1.937 0-2.566-.052-.62-.05-1.005-.147-1.31-.302a3.25 3.25 0 01-1.42-1.42c-.155-.305-.251-.69-.302-1.31-.051-.63-.052-1.433-.052-2.566V8.4c0-1.132 0-1.937.052-2.566.05-.62.147-1.005.302-1.31a3.25 3.25 0 011.42-1.42c.305-.155.69-.251 1.31-.302.63-.051 1.434-.052 2.566-.052H10a.75.75 0 000-1.5H8.4zm10.13 6.22a.75.75 0 10-1.06 1.06l2.72 2.72H10a.75.75 0 000 1.5h10.19l-2.72 2.72a.75.75 0 101.06 1.06l4-4a.75.75 0 000-1.06l-4-4z"/>
</svg>
