<svg xmlns="http://www.w3.org/2000/svg" width="24" height="24" fill="currentColor" viewBox="0 0 24 24">
  <path fill-rule="evenodd" d="M17.58 10.21a6 6 0 10-11.16 0A6 6 0 1012 20.472a6 6 0 105.58-10.262z" opacity=".12"/>
  <path fill-rule="evenodd" d="M6.75 8a5.25 5.25 0 1110.5 0 5.25 5.25 0 01-10.5 0zM12 1.25a6.75 6.75 0 00-6.551 8.382A6.813 6.813 0 001.25 15.94c0 3.755 3.015 6.811 6.75 6.811 1.46 0 2.81-.467 3.913-1.26a6.867 6.867 0 003.976 1.26c3.783 0 6.861-3.043 6.861-6.81 0-2.831-1.738-5.253-4.205-6.282A6.75 6.75 0 0012 1.25zm6.017 9.813a6.775 6.775 0 01-3.475 3.192c.136.54.208 1.104.208 1.684a6.822 6.822 0 01-1.692 4.51 5.37 5.37 0 002.831.801c2.967 0 5.361-2.383 5.361-5.31 0-2.18-1.328-4.06-3.233-4.877zm-4.92 3.598a6.75 6.75 0 01-7.126-3.622 5.313 5.313 0 00-3.221 4.9c0 2.94 2.358 5.311 5.25 5.311s5.25-2.37 5.25-5.31c0-.442-.053-.87-.153-1.279z"/>
</svg>
