<svg xmlns="http://www.w3.org/2000/svg" width="24" height="24" fill="currentColor" viewBox="0 0 24 24">
  <path d="M3 8.624c0-1.281 0-1.921.246-2.59.19-.518.63-1.176 1.034-1.551.522-.485 1.003-.686 1.966-1.087C7.957 2.682 10.092 2 12 2c1.908 0 4.043.682 5.755 1.396.962.401 1.443.602 1.965 1.087a4.554 4.554 0 011.034 1.55c.246.67.246 1.31.246 2.59v2.074c0 2.306 0 3.46-.394 4.667-.303.931-1.015 2.16-1.671 2.886-.852.943-1.622 1.384-3.161 2.267C14.324 21.35 12.902 22 12 22c-.902 0-2.324-.65-3.774-1.483-1.54-.883-2.309-1.324-3.16-2.267-.657-.726-1.37-1.955-1.672-2.886C3 14.156 3 13.004 3 10.697V8.624z" opacity=".12"/>
  <path fill-rule="evenodd" d="M6.534 4.088C8.22 3.386 10.244 2.75 12 2.75c1.757 0 3.78.636 5.466 1.338.982.41 1.335.565 1.744.945.318.294.69.853.84 1.26.19.517.2 1.008.2 2.33v2.074c0 2.344-.008 3.364-.357 4.435-.27.83-.929 1.967-1.515 2.615-.76.841-1.425 1.23-2.977 2.12-.71.407-1.397.76-2.004 1.01-.626.257-1.096.373-1.397.373-.3 0-.771-.116-1.397-.373a17.655 17.655 0 01-2.004-1.01c-1.552-.89-2.217-1.279-2.978-2.12-.585-.648-1.244-1.784-1.514-2.615-.35-1.07-.357-2.09-.357-4.435V8.624c0-1.323.01-1.814.2-2.331.15-.407.522-.966.84-1.26.409-.38.762-.535 1.744-.945zM12 1.25c-2.059 0-4.305.73-6.043 1.454l-.067.028c-.904.377-1.499.625-2.12 1.2a5.292 5.292 0 00-1.228 1.843c-.293.795-.292 1.562-.292 2.738v2.3c0 2.197 0 3.462.43 4.784.336 1.03 1.102 2.352 1.829 3.156.932 1.031 1.796 1.527 3.287 2.383l.057.032c.74.425 1.49.813 2.18 1.097.674.276 1.366.485 1.967.485s1.293-.21 1.966-.485c.692-.284 1.44-.672 2.181-1.097l.056-.032c1.492-.856 2.356-1.352 3.288-2.383.727-.804 1.493-2.125 1.829-3.156.43-1.322.43-2.587.43-4.784V8.513c0-1.176 0-1.943-.292-2.738a5.291 5.291 0 00-1.228-1.842c-.621-.576-1.216-.824-2.12-1.201l-.067-.028C16.305 1.979 14.06 1.25 12 1.25zm4.03 8.78a.75.75 0 10-1.06-1.06L11 12.94l-1.47-1.47a.75.75 0 00-1.06 1.06l2 2a.75.75 0 001.06 0l4.5-4.5z"/>
</svg>
