<svg xmlns="http://www.w3.org/2000/svg" width="24" height="24" fill="currentColor" viewBox="0 0 24 24">
  <path d="M13.6 2h-3.2c-2.24 0-3.36 0-4.216.436a4 4 0 00-1.748 1.748C4 5.04 4 6.16 4 8.4V18l.063-.063c.346-.346.519-.519.72-.642.18-.11.374-.19.579-.24.23-.055.474-.055.963-.055H20V8.4c0-2.24 0-3.36-.436-4.216a4 4 0 00-1.748-1.748C16.96 2 15.84 2 13.6 2z" opacity=".12"/>
  <path fill-rule="evenodd" d="M10.367 1.25h3.266c1.092 0 1.958 0 2.655.057.714.058 1.317.18 1.869.46a4.75 4.75 0 012.075 2.077c.281.55.403 1.154.461 1.868.057.697.057 1.563.057 2.655V17.527c-.003.6-.017 1.024-.091 1.4a4.75 4.75 0 01-3.732 3.732c-.46.091-.994.091-1.832.091H6.5a3.25 3.25 0 01-3.25-3.25V8.367c0-1.092 0-1.958.057-2.655.058-.714.18-1.317.46-1.868a4.75 4.75 0 012.077-2.076c.55-.281 1.154-.403 1.868-.461.697-.057 1.563-.057 2.655-.057zM4.75 19.5c0 .966.784 1.75 1.75 1.75H15c.965 0 1.338-.004 1.634-.062a3.25 3.25 0 002.554-2.554c.04-.203.054-.442.06-.884H6.5a1.75 1.75 0 00-1.75 1.75zm0-2.74V8.4c0-1.132 0-1.937.052-2.566.05-.62.147-1.005.302-1.31a3.25 3.25 0 011.42-1.42c.305-.155.69-.251 1.31-.302.63-.051 1.434-.052 2.566-.052h3.2c1.133 0 1.937 0 2.566.052.62.05 1.005.147 1.31.302a3.25 3.25 0 011.42 1.42c.155.305.251.69.302 1.31.051.63.052 1.434.052 2.566v7.85H6.5c-.644 0-1.245.188-1.75.51zM8.25 7A.75.75 0 019 6.25h6a.75.75 0 010 1.5H9A.75.75 0 018.25 7z"/>
</svg>
