<svg xmlns="http://www.w3.org/2000/svg" width="24" height="24" fill="currentColor" viewBox="0 0 24 24">
  <path d="M4 10c0 3.639 3.391 6.371 4.588 7.222A.96.96 0 019 18s1 .5 3 .5 3-.5 3-.5c0-.31.163-.598.417-.776.258-.18.617-.444 1.02-.787L5.432 5.432A7.963 7.963 0 004 10z" opacity=".12"/>
  <path fill-rule="evenodd" d="M7.922 4.004A7.25 7.25 0 0119.25 10c0 1.332-.501 2.54-1.205 3.58a.75.75 0 001.242.84c.816-1.204 1.463-2.701 1.463-4.42A8.75 8.75 0 007.078 2.765a.75.75 0 00.844 1.24zM3.53 2.47a.75.75 0 00-1.06 1.06l2.004 2.004A8.713 8.713 0 003.25 10c0 3.31 2.473 5.858 3.977 7.116.635.532 1.023 1.26 1.023 1.996a3.638 3.638 0 003.638 3.638h.239a3.623 3.623 0 003.623-3.623c0-.584.248-1.165.67-1.647l3.05 3.05a.75.75 0 101.06-1.06l-3.562-3.563L5.962 4.901 3.53 2.47zM4.75 10c0-1.215.298-2.359.826-3.364l9.782 9.782a4.478 4.478 0 00-.632.884.78.78 0 00-.056.024H9.33a.744.744 0 00-.043-.019 4.563 4.563 0 00-1.098-1.341C6.729 14.745 4.75 12.586 4.75 10zm4.999 9.02l.001.092c0 1.18.957 2.138 2.138 2.138h.239c1.172 0 2.123-.95 2.123-2.123 0-.036 0-.071.002-.107a10.31 10.31 0 01-2.252.23c-.954 0-1.704-.107-2.251-.23zm-.402-1.686a.5.5 0 01-.017-.008h5.34a4.5 4.5 0 01-.602.196c-.442.111-1.131.228-2.068.228s-1.626-.117-2.068-.228a4.49 4.49 0 01-.585-.188z"/>
</svg>
