<svg xmlns="http://www.w3.org/2000/svg" width="24" height="24" fill="currentColor" viewBox="0 0 24 24">
  <path d="M22 14.282v-7a.498.498 0 00-.757-.425L14.5 10.973c-.908.555-1.363.832-1.848.94-.43.096-.876.096-1.306 0-.485-.108-.94-.385-1.848-.94L2.757 6.857A.498.498 0 002 7.282v7c0 .991 0 1.487.142 1.932a3 3 0 00.605 1.068c.309.351.734.606 1.583 1.116l5.2 3.12c.898.539 1.347.808 1.827.914a3 3 0 001.287 0c.479-.106.928-.375 1.826-.914l5.2-3.12c.85-.51 1.274-.765 1.583-1.116a3 3 0 00.605-1.068c.142-.445.142-.94.142-1.932z" opacity=".12"/>
  <path fill-rule="evenodd" d="M12.804.836a3.75 3.75 0 00-1.608 0c-.601.132-1.15.462-1.945.939l-.106.064-5.2 3.12-.101.06c-.753.451-1.273.763-1.66 1.203a3.75 3.75 0 00-.756 1.336c-.179.558-.178 1.165-.178 2.043v4.798c0 .878 0 1.485.178 2.043.157.493.414.947.756 1.336.387.44.907.752 1.66 1.203l.1.06 5.2 3.12.107.064c.795.477 1.344.807 1.945.94.53.116 1.078.116 1.608 0 .601-.133 1.15-.462 1.945-.94l.106-.064 5.2-3.12.1-.06c.754-.451 1.274-.763 1.661-1.203a3.75 3.75 0 00.756-1.336c.179-.558.178-1.165.178-2.043V9.601c0-.878 0-1.485-.178-2.043a3.75 3.75 0 00-.756-1.336c-.387-.44-.907-.752-1.66-1.203l-.1-.06-5.2-3.12-.107-.064c-.795-.477-1.344-.807-1.945-.94zM11.517 2.3c.318-.07.648-.07.966 0 .33.073.658.258 1.6.824l5.2 3.12c.322.193.566.34.758.462L12 11.621 3.96 6.707c.19-.121.435-.27.756-.462l5.2-3.12c.943-.566 1.27-.751 1.601-.824zM2.923 7.832c-.024.06-.047.12-.066.182-.099.308-.107.663-.107 1.704v4.564c0 1.04.008 1.396.107 1.704.094.295.248.568.453.801.213.243.514.433 1.406.968l5.2 3.12c.699.42 1.06.63 1.334.74v-8.694L2.923 7.832zm9.827 13.783c.274-.11.635-.32 1.334-.74l5.2-3.12c.892-.535 1.193-.725 1.406-.968.204-.233.359-.506.453-.801.099-.308.107-.663.107-1.704V9.718c0-1.04-.008-1.396-.107-1.704a2.266 2.266 0 00-.067-.182l-8.326 5.089v8.694z"/>
</svg>
