<svg xmlns="http://www.w3.org/2000/svg" width="24" height="24" fill="currentColor" viewBox="0 0 24 24">
  <path fill-rule="evenodd" d="M2.436 6.184C2 7.04 2 8.16 2 10.4v5.2c0 2.24 0 3.36.436 4.216a4 4 0 001.748 1.748C5.04 22 6.16 22 8.4 22h5.2c2.24 0 3.36 0 4.216-.436a4 4 0 001.748-1.748C20 18.96 20 17.84 20 15.6V4H8.4c-2.24 0-3.36 0-4.216.436a4 4 0 00-1.748 1.748zM9 11.99v2.02c0 .972 0 1.457.202 1.725a1 1 0 00.738.395c.335.02.74-.25 1.548-.788l1.515-1.01c.668-.446 1.002-.668 1.118-.949a1 1 0 000-.766c-.116-.28-.45-.503-1.118-.948l-1.515-1.01c-.808-.54-1.213-.809-1.548-.789a1 1 0 00-.738.395C9 10.533 9 11.018 9 11.99z" opacity=".12"/>
  <path fill-rule="evenodd" d="M20.75 1a.75.75 0 00-1.5 0v2.25H17a.75.75 0 000 1.5h2.25V7a.75.75 0 001.5 0V4.75H23a.75.75 0 000-1.5h-2.25V1zM8.367 3.25H13.5a.75.75 0 010 1.5H8.4c-1.132 0-1.937 0-2.566.052-.62.05-1.005.147-1.31.302a3.25 3.25 0 00-1.42 1.42c-.155.305-.251.69-.302 1.31-.051.63-.052 1.434-.052 2.566v5.2c0 1.133 0 1.937.052 2.566.05.62.147 1.005.302 1.31a3.25 3.25 0 001.42 1.42c.305.155.69.251 1.31.302.63.051 1.434.052 2.566.052h5.2c1.133 0 1.937 0 2.566-.052.62-.05 1.005-.147 1.31-.302a3.25 3.25 0 001.42-1.42c.155-.305.251-.69.302-1.31.051-.63.052-1.433.052-2.566v-5.1a.75.75 0 011.5 0v5.133c0 1.092 0 1.958-.057 2.655-.058.714-.18 1.317-.46 1.869a4.75 4.75 0 01-2.076 2.075c-.552.281-1.155.403-1.869.461-.697.057-1.563.057-2.655.057H8.367c-1.092 0-1.958 0-2.655-.057-.714-.058-1.317-.18-1.868-.46a4.75 4.75 0 01-2.076-2.076c-.281-.552-.403-1.155-.461-1.869-.057-.697-.057-1.563-.057-2.655V10.367c0-1.092 0-1.958.057-2.655.058-.714.18-1.317.46-1.868a4.75 4.75 0 012.077-2.076c.55-.281 1.154-.403 1.868-.461.697-.057 1.563-.057 2.655-.057zm3.508 6.765l.028.02 1.516 1.01.027.018c.31.207.585.39.794.558.215.173.444.395.574.709.178.429.178.911 0 1.34-.13.314-.359.536-.574.71-.209.167-.483.35-.794.557l-.027.018-1.516 1.01-.028.02c-.38.253-.707.47-.981.62-.275.148-.614.296-.998.273a1.75 1.75 0 01-1.292-.69c-.232-.308-.297-.672-.326-.983-.028-.31-.028-.704-.028-1.16V11.955c0-.456 0-.85.028-1.16.029-.31.094-.675.326-.982a1.75 1.75 0 011.292-.691c.384-.023.723.125.998.273.274.15.601.367.98.62zm-1.905.605a.25.25 0 00-.16.086 1.04 1.04 0 00-.038.226c-.021.234-.022.557-.022 1.058v2.02c0 .5 0 .824.022 1.058.014.147.032.209.038.226a.25.25 0 00.16.086c.018-.005.08-.024.21-.094.206-.112.475-.29.892-.568l1.515-1.01c.346-.231.562-.377.71-.496a.856.856 0 00.135-.125.251.251 0 000-.174.856.856 0 00-.134-.125c-.149-.12-.365-.265-.71-.495l-1.516-1.01a13.317 13.317 0 00-.893-.569c-.13-.07-.191-.089-.209-.094z"/>
</svg>
