<svg xmlns="http://www.w3.org/2000/svg" width="24" height="24" fill="currentColor" viewBox="0 0 24 24">
  <path d="M2 15.2c0-1.12 0-1.68.218-2.108a2 2 0 01.874-.874C3.52 12 4.08 12 5.2 12h13.6c1.12 0 1.68 0 2.108.218a2 2 0 01.874.874C22 13.52 22 14.08 22 15.2v.4c0 2.24 0 3.36-.436 4.216a4 4 0 01-1.748 1.748C18.96 22 17.84 22 15.6 22H8.4c-2.24 0-3.36 0-4.216-.436a4 4 0 01-1.748-1.748C2 18.96 2 17.84 2 15.6v-.4z" opacity=".12"/>
  <path fill-rule="evenodd" d="M12.75 2a.75.75 0 00-1.5 0v10.19L8.53 9.47a.75.75 0 00-1.06 1.06l4 4a.75.75 0 001.06 0l4-4a.75.75 0 10-1.06-1.06l-2.72 2.72V2zm-10 12a.75.75 0 00-1.5 0v1.633c0 1.092 0 1.958.057 2.655.058.714.18 1.317.46 1.869a4.75 4.75 0 002.077 2.075c.55.281 1.154.403 1.868.461.697.057 1.563.057 2.655.057H15.633c1.092 0 1.958 0 2.655-.057.714-.058 1.317-.18 1.869-.46a4.75 4.75 0 002.075-2.076c.281-.552.403-1.155.461-1.869.057-.697.057-1.563.057-2.655V14a.75.75 0 00-1.5 0v1.6c0 1.133 0 1.937-.052 2.566-.05.62-.147 1.005-.302 1.31a3.25 3.25 0 01-1.42 1.42c-.305.155-.69.251-1.31.302-.63.051-1.433.052-2.566.052H8.4c-1.132 0-1.937 0-2.566-.052-.62-.05-1.005-.147-1.31-.302a3.25 3.25 0 01-1.42-1.42c-.155-.305-.251-.69-.302-1.31-.051-.63-.052-1.433-.052-2.566V14z"/>
</svg>
