<svg xmlns="http://www.w3.org/2000/svg" width="24" height="24" fill="currentColor" viewBox="0 0 24 24">
  <path fill-rule="evenodd" d="M22 6l-3.5 3.5-5-1L19 3l3 3zM8 22a6 6 0 100-12 6 6 0 000 12z" opacity=".12"/>
  <path fill-rule="evenodd" d="M20.53 1.47a.75.75 0 010 1.06l-.47.47 2.47 2.47a.75.75 0 010 1.06l-3.5 3.5a.75.75 0 01-.677.205l-4.607-.92-1.466 1.465a6.75 6.75 0 11-1.289-.833L12.97 7.97l5.5-5.5 1-1a.75.75 0 011.06 0zm-5.509 6.57l3.232.646L20.94 6 19 4.06l-3.979 3.98zM8 10.75a5.25 5.25 0 100 10.5 5.25 5.25 0 000-10.5z"/>
</svg>
