<svg xmlns="http://www.w3.org/2000/svg" width="24" height="24" fill="currentColor" viewBox="0 0 24 24">
  <path d="M12 3c-4.253 0-7.7 3.552-7.7 7.933l.001.143C2.403 11.579 1 13.354 1 15.466 1 17.97 2.97 20 5.4 20h12.1c3.038 0 5.5-2.537 5.5-5.667 0-2.41-1.46-4.469-3.52-5.288C18.659 5.575 15.622 3 12 3z" opacity=".12"/>
  <path fill-rule="evenodd" d="M5.05 10.933C5.05 6.945 8.183 3.75 12 3.75c3.251 0 6.003 2.314 6.75 5.468a.75.75 0 00.453.524c1.773.705 3.047 2.488 3.047 4.591 0 2.737-2.148 4.917-4.75 4.917H5.4c-1.995 0-3.65-1.673-3.65-3.783 0-1.778 1.179-3.252 2.743-3.666a.75.75 0 00.558-.738l-.001-.13zM12 2.25c-4.555 0-8.237 3.691-8.441 8.281C1.614 11.294.25 13.225.25 15.467c0 2.896 2.285 5.283 5.15 5.283h12.1c3.473 0 6.25-2.894 6.25-6.417 0-2.577-1.482-4.81-3.636-5.83C19.096 4.904 15.86 2.25 12 2.25zm-1.47 8.22a.75.75 0 10-1.06 1.06L10.94 13l-1.47 1.47a.75.75 0 101.06 1.06L12 14.06l1.47 1.47a.75.75 0 101.06-1.06L13.06 13l1.47-1.47a.75.75 0 10-1.06-1.06L12 11.94l-1.47-1.47z"/>
</svg>
