<svg xmlns="http://www.w3.org/2000/svg" width="24" height="24" fill="currentColor" viewBox="0 0 24 24">
  <path d="M2 13.784v-3.568c0-3.675 0-5.513.771-6.567a4 4 0 012.84-1.62c1.3-.128 2.881.807 6.045 2.677l3.02 1.784c3.069 1.814 4.604 2.72 5.122 3.898a4 4 0 010 3.224c-.518 1.177-2.053 2.084-5.122 3.898l-3.02 1.784C8.492 21.164 6.91 22.1 5.61 21.971a4 4 0 01-2.839-1.62C2 19.297 2 17.46 2 13.784z" opacity=".12"/>
  <path fill-rule="evenodd" d="M12.002 4.04l.035.02 3.02 1.784.035.02c1.505.89 2.68 1.585 3.54 2.205.865.624 1.511 1.242 1.852 2.016a4.75 4.75 0 010 3.83c-.34.774-.987 1.392-1.852 2.015-.86.621-2.035 1.316-3.54 2.205l-.035.02-3.02 1.785-.035.02c-1.552.918-2.762 1.633-3.747 2.1-.988.467-1.86.742-2.718.658a4.75 4.75 0 01-3.371-1.924c-.509-.696-.717-1.587-.816-2.675-.1-1.085-.1-2.491-.1-4.294v-3.65c0-1.803 0-3.21.1-4.294.1-1.088.307-1.98.816-2.675a4.75 4.75 0 013.37-1.924c.858-.084 1.731.19 2.72.659.984.466 2.194 1.181 3.746 2.098zm-4.389-.744c-.919-.435-1.487-.564-1.93-.52A3.25 3.25 0 003.377 4.09c-.263.36-.44.915-.534 1.927-.092 1.008-.093 2.345-.093 4.198v3.568c0 1.852 0 3.19.093 4.198.093 1.012.27 1.567.534 1.926a3.25 3.25 0 002.306 1.317c.443.043 1.011-.086 1.93-.521.915-.434 2.067-1.113 3.661-2.056l3.02-1.784c1.547-.914 2.663-1.574 3.46-2.15.8-.577 1.18-1.002 1.358-1.404a3.25 3.25 0 000-2.62c-.178-.402-.558-.827-1.358-1.404-.797-.576-1.913-1.236-3.46-2.15l-3.02-1.785C9.68 4.41 8.528 3.73 7.614 3.296z"/>
</svg>
