<svg xmlns="http://www.w3.org/2000/svg" width="24" height="24" fill="currentColor" viewBox="0 0 24 24">
  <path fill-rule="evenodd" d="M2.545 4.73C2 5.8 2 7.2 2 10v4c0 2.8 0 4.2.545 5.27a5 5 0 002.185 2.185C5.8 22 7.2 22 10 22h4c2.8 0 4.2 0 5.27-.545a5 5 0 002.185-2.185C22 18.2 22 16.8 22 14v-4c0-2.8 0-4.2-.545-5.27a5 5 0 00-2.185-2.185C18.2 2 16.8 2 14 2h-4c-2.8 0-4.2 0-5.27.545A5 5 0 002.545 4.73zm3.673 2.362C6 7.52 6 8.08 6 9.2v5.6c0 1.12 0 1.68.218 2.108a2 2 0 00.874.874C7.52 18 8.08 18 9.2 18h5.6c1.12 0 1.68 0 2.108-.218a2 2 0 00.874-.874C18 16.48 18 15.92 18 14.8V9.2c0-1.12 0-1.68-.218-2.108a2 2 0 00-.874-.874C16.48 6 15.92 6 14.8 6H9.2c-1.12 0-1.68 0-2.108.218a2 2 0 00-.874.874z" opacity=".12"/>
  <path fill-rule="evenodd" d="M10 1.25h-.034c-1.371 0-2.447 0-3.311.07-.88.073-1.607.221-2.265.557A5.75 5.75 0 001.877 4.39c-.336.658-.484 1.385-.556 2.265-.071.864-.071 1.94-.071 3.311v4.068c0 1.371 0 2.447.07 3.311.073.88.221 1.607.557 2.265a5.75 5.75 0 002.513 2.513c.658.336 1.385.485 2.265.556.864.071 1.94.071 3.311.071h4.068c1.371 0 2.447 0 3.311-.07.88-.072 1.607-.221 2.265-.557a5.75 5.75 0 002.513-2.513c.336-.658.485-1.385.556-2.265.071-.864.071-1.94.071-3.311V9.966c0-1.371 0-2.447-.07-3.311-.072-.88-.221-1.607-.557-2.265a5.75 5.75 0 00-2.513-2.513c-.658-.336-1.385-.484-2.265-.556-.864-.071-1.94-.071-3.311-.071H10zM5.07 3.213c.412-.21.92-.333 1.707-.397.796-.065 1.81-.066 3.223-.066h4c1.412 0 2.427 0 3.223.066.787.064 1.295.188 1.707.397a4.25 4.25 0 011.857 1.858c.21.411.333.919.397 1.706.065.796.066 1.81.066 3.223v4c0 1.412 0 2.427-.066 3.223-.064.787-.188 1.295-.397 1.707a4.251 4.251 0 01-1.857 1.857c-.412.21-.92.333-1.707.397-.796.065-1.81.066-3.223.066h-4c-1.413 0-2.427 0-3.223-.066-.787-.064-1.295-.188-1.706-.397a4.25 4.25 0 01-1.858-1.857c-.21-.412-.333-.92-.397-1.707-.065-.796-.066-1.81-.066-3.223v-4c0-1.413 0-2.427.066-3.223.064-.787.188-1.295.397-1.706a4.25 4.25 0 011.858-1.858zM9.2 5.25h-.03c-.535 0-.98 0-1.345.03-.38.03-.736.098-1.074.27A2.75 2.75 0 005.55 6.752c-.172.337-.24.693-.27 1.073-.03.365-.03.81-.03 1.345v5.66c0 .535 0 .98.03 1.345.03.38.098.736.27 1.073A2.75 2.75 0 006.75 18.45c.338.172.694.24 1.074.27.365.03.81.03 1.344.03h5.661c.534 0 .98 0 1.345-.03.38-.03.736-.098 1.073-.27a2.75 2.75 0 001.202-1.201c.172-.338.24-.694.27-1.074.03-.365.03-.81.03-1.345V9.17c0-.535 0-.98-.03-1.345-.03-.38-.098-.736-.27-1.073a2.75 2.75 0 00-1.202-1.202c-.337-.172-.694-.24-1.073-.27-.365-.03-.81-.03-1.345-.03H9.2zM7.432 6.886c.091-.046.228-.088.515-.111.296-.024.68-.025 1.253-.025h5.6c.572 0 .957 0 1.252.025.288.023.425.065.515.111.236.12.427.311.547.547.046.09.088.227.111.514.024.296.025.68.025 1.253v5.6c0 .572 0 .957-.025 1.252-.023.288-.065.425-.111.515a1.25 1.25 0 01-.547.547c-.09.046-.227.088-.515.111-.295.024-.68.025-1.252.025H9.2c-.572 0-.957 0-1.253-.025-.287-.023-.424-.065-.515-.111a1.25 1.25 0 01-.546-.547c-.046-.09-.088-.227-.111-.515-.024-.295-.025-.68-.025-1.252V9.2c0-.572 0-.957.025-1.253.023-.287.065-.424.111-.514a1.25 1.25 0 01.546-.547z"/>
</svg>
