<svg xmlns="http://www.w3.org/2000/svg" width="24" height="24" fill="currentColor" viewBox="0 0 24 24">
  <path fill-rule="evenodd" d="M9.782 18.908C10 18.48 10 17.92 10 16.8v-1.6c0-1.12 0-1.68-.218-2.108a2 2 0 00-.874-.874C8.48 12 7.92 12 6.8 12H5.2c-1.12 0-1.68 0-2.108.218a2 2 0 00-.874.874C2 13.52 2 14.08 2 15.2v1.6c0 1.12 0 1.68.218 2.108a2 2 0 00.874.874C3.52 20 4.08 20 5.2 20h1.6c1.12 0 1.68 0 2.108-.218a2 2 0 00.874-.874zm12 0C22 18.48 22 17.92 22 16.8v-1.6c0-1.12 0-1.68-.218-2.108a2 2 0 00-.874-.874C20.48 12 19.92 12 18.8 12h-1.6c-1.12 0-1.68 0-2.108.218a2 2 0 00-.874.874C14 13.52 14 14.08 14 15.2v1.6c0 1.12 0 1.68.218 2.108a2 2 0 00.874.874C15.52 20 16.08 20 17.2 20h1.6c1.12 0 1.68 0 2.108-.218a2 2 0 00.874-.874z" opacity=".12"/>
  <path fill-rule="evenodd" d="M6.53 4.53a.75.75 0 00-1.06-1.06l-.5.5-.689.688-.072.073c-.969.968-1.546 1.546-1.964 2.227a6.75 6.75 0 00-.808 1.952c-.187.777-.187 1.594-.187 2.963v4.957c0 .535 0 .98.03 1.345.03.38.098.736.27 1.073a2.75 2.75 0 001.202 1.202c.337.172.693.24 1.073.27.365.03.81.03 1.345.03H6.83c.535 0 .98 0 1.345-.03.38-.03.736-.098 1.073-.27a2.75 2.75 0 001.202-1.201c.172-.338.24-.694.27-1.074.03-.364.03-.81.03-1.345V15.17c0-.535 0-.98-.03-1.345-.03-.38-.098-.736-.27-1.073a2.75 2.75 0 00-1.202-1.202c-.337-.172-.693-.24-1.073-.27-.365-.03-.81-.03-1.345-.03H5.17c-.535 0-.98 0-1.345.03-.38.03-.736.098-1.073.27H2.75c.002-1.202.019-1.765.145-2.29a5.25 5.25 0 01.629-1.518c.314-.512.755-.96 1.818-2.023l.688-.689.5-.5zM2.75 15.2v1.6c0 .572 0 .957.025 1.252.023.288.065.425.111.515.12.236.311.427.547.547.09.046.227.088.514.111.296.024.68.025 1.253.025h1.6c.572 0 .957 0 1.253-.025.287-.023.424-.065.514-.111a1.25 1.25 0 00.547-.547c.046-.09.088-.227.111-.515.024-.295.025-.68.025-1.252v-1.6c0-.572 0-.957-.025-1.252-.023-.288-.065-.425-.111-.516a1.25 1.25 0 00-.546-.546c-.091-.046-.228-.088-.515-.111-.296-.024-.68-.025-1.253-.025H5.2c-.572 0-.957 0-1.253.025-.287.023-.424.065-.514.111a1.25 1.25 0 00-.547.546c-.046.091-.088.228-.111.515-.024.296-.025.68-.025 1.253zM18.53 3.47a.75.75 0 010 1.06l-.5.5-.688.689c-1.063 1.063-1.504 1.511-1.818 2.023-.288.47-.5.982-.629 1.518-.126.525-.143 1.088-.145 2.29h.002c.337-.172.693-.24 1.073-.27.365-.03.81-.03 1.345-.03H18.83c.535 0 .98 0 1.345.03.38.03.736.098 1.073.27.518.263.939.684 1.202 1.201.172.338.24.694.27 1.074.03.365.03.81.03 1.345V16.83c0 .535 0 .98-.03 1.345-.03.38-.098.736-.27 1.073a2.751 2.751 0 01-1.201 1.202c-.338.172-.694.24-1.074.27-.364.03-.81.03-1.345.03H17.17c-.535 0-.98 0-1.345-.03-.38-.03-.736-.098-1.073-.27a2.751 2.751 0 01-1.202-1.201c-.172-.338-.24-.694-.27-1.074-.03-.365-.03-.81-.03-1.345V15.17v-3.297c0-1.369 0-2.186.187-2.963a6.751 6.751 0 01.808-1.952c.418-.681.995-1.259 1.964-2.227l.073-.073.688-.688.5-.5a.75.75 0 011.06 0zM14.75 15.2v1.6c0 .572 0 .957.025 1.252.023.288.065.425.111.515.12.236.311.427.546.547.091.046.228.088.515.111.296.024.68.025 1.253.025h1.6c.572 0 .957 0 1.252-.025.288-.023.425-.065.515-.111a1.25 1.25 0 00.547-.547c.046-.09.088-.227.111-.515.024-.295.025-.68.025-1.252v-1.6c0-.572 0-.957-.025-1.252-.023-.288-.065-.425-.111-.516a1.25 1.25 0 00-.547-.546c-.09-.046-.227-.088-.515-.111-.295-.024-.68-.025-1.252-.025h-1.6c-.572 0-.957 0-1.252.025-.288.023-.425.065-.516.111a1.25 1.25 0 00-.546.546c-.046.091-.088.228-.111.515-.024.296-.025.68-.025 1.253z"/>
</svg>
