<svg xmlns="http://www.w3.org/2000/svg" width="24" height="24" fill="currentColor" viewBox="0 0 24 24">
  <path d="M16 18.01v-2.02c0-.972 0-1.457.203-1.725a1 1 0 01.737-.395c.335-.02.74.25 1.547.788l1.516 1.01c.668.446 1.002.668 1.118.949a1 1 0 010 .766c-.116.28-.45.503-1.118.948l-1.515 1.01c-.808.54-1.213.809-1.548.789a1 1 0 01-.738-.395C16 19.467 16 18.982 16 18.01z" opacity=".12"/>
  <path fill-rule="evenodd" d="M1.25 4A.75.75 0 012 3.25h18a.75.75 0 010 1.5H2A.75.75 0 011.25 4zm17.625 10.015l.029.02 1.515 1.01.027.018c.31.207.585.39.794.558.215.173.444.395.574.709.178.429.178.911 0 1.34-.13.314-.359.535-.574.71-.209.167-.483.35-.794.557l-.027.018-1.515 1.01-.03.02c-.379.253-.706.47-.98.62-.275.148-.614.296-.998.273a1.75 1.75 0 01-1.292-.69c-.232-.308-.297-.672-.326-.983-.028-.31-.028-.704-.028-1.16V15.955c0-.456 0-.85.028-1.16.029-.31.094-.675.326-.982a1.75 1.75 0 011.292-.691c.384-.023.723.125.998.273.274.15.601.367.98.62zm-1.905.605a.25.25 0 00-.16.086c-.006.017-.024.08-.038.226-.021.234-.022.557-.022 1.058v2.02c0 .5 0 .824.022 1.058.014.147.032.209.038.226a.25.25 0 00.16.086c.018-.005.08-.024.21-.094.206-.112.475-.29.892-.568l1.515-1.01c.346-.231.562-.377.71-.496a.856.856 0 00.135-.125.251.251 0 000-.174.856.856 0 00-.134-.125c-.149-.12-.365-.265-.71-.495l-1.517-1.01a13.317 13.317 0 00-.892-.569c-.13-.07-.191-.089-.209-.094zM2 8.25a.75.75 0 000 1.5h14a.75.75 0 000-1.5H2zM1.25 14a.75.75 0 01.75-.75h9a.75.75 0 010 1.5H2a.75.75 0 01-.75-.75zM2 18.25a.75.75 0 000 1.5h7a.75.75 0 000-1.5H2z"/>
</svg>
