<svg xmlns="http://www.w3.org/2000/svg" width="24" height="24" fill="currentColor" viewBox="0 0 24 24">
  <path d="M3 9.4c0-2.24 0-3.36.436-4.216a4 4 0 011.748-1.748C6.04 3 7.16 3 9.4 3h5.2c2.24 0 3.36 0 4.216.436a4 4 0 011.748 1.748C21 6.04 21 7.16 21 9.4V17H3V9.4z" opacity=".12"/>
  <path fill-rule="evenodd" d="M9.4 2.25h-.033c-1.092 0-1.958 0-2.655.057-.714.058-1.317.18-1.868.46a4.75 4.75 0 00-2.076 2.077c-.281.55-.403 1.154-.461 1.868-.057.697-.057 1.563-.057 2.655v6.883h-.806c-.66 0-1.194.535-1.194 1.194a4.306 4.306 0 004.306 4.306h14.888a4.306 4.306 0 004.306-4.306c0-.66-.535-1.194-1.194-1.194h-.806V9.367c0-1.092 0-1.958-.057-2.655-.058-.714-.18-1.317-.46-1.868a4.75 4.75 0 00-2.076-2.076c-.552-.281-1.155-.403-1.869-.461-.697-.057-1.563-.057-2.655-.057H9.4zm10.85 14V9.4c0-1.132 0-1.937-.052-2.566-.05-.62-.147-1.005-.302-1.31a3.25 3.25 0 00-1.42-1.42c-.305-.155-.69-.251-1.31-.302-.63-.051-1.434-.052-2.566-.052H9.4c-1.132 0-1.937 0-2.566.052-.62.05-1.005.147-1.31.302a3.25 3.25 0 00-1.42 1.42c-.155.305-.251.69-.302 1.31-.051.63-.052 1.434-.052 2.566v6.85h16.5zM3 17.75H1.766a2.806 2.806 0 002.79 2.5h14.888a2.806 2.806 0 002.79-2.5H3z"/>
</svg>
