<svg xmlns="http://www.w3.org/2000/svg" width="24" height="24" fill="currentColor" viewBox="0 0 24 24">
  <path fill-rule="evenodd" d="M12 22c5.523 0 10-4.477 10-10S17.523 2 12 2 2 6.477 2 12s4.477 10 10 10zm0-7a3 3 0 100-6 3 3 0 000 6z" opacity=".12"/>
  <path fill-rule="evenodd" d="M2.75 12a9.25 9.25 0 1118.5 0 9.25 9.25 0 01-18.5 0zM12 1.25C6.063 1.25 1.25 6.063 1.25 12S6.063 22.75 12 22.75 22.75 17.937 22.75 12 17.937 1.25 12 1.25zM9.75 12a2.25 2.25 0 114.5 0 2.25 2.25 0 01-4.5 0zM12 8.25a3.75 3.75 0 100 7.5 3.75 3.75 0 000-7.5z"/>
</svg>
