<svg xmlns="http://www.w3.org/2000/svg" width="24" height="24" fill="currentColor" viewBox="0 0 24 24">
  <path fill-rule="evenodd" d="M14 4.8V2.116C13.469 2 12.902 2 11.778 2c-2.591 0-3.887 0-4.891.469a5 5 0 00-2.418 2.418C4 5.89 4 7.187 4 9.778V14c0 2.8 0 4.2.545 5.27a5 5 0 002.185 2.185C7.8 22 9.2 22 12 22c2.8 0 4.2 0 5.27-.545a5 5 0 002.185-2.185C20 18.2 20 16.8 20 14v-3.686c0-1.155 0-1.765-.116-2.314H17.2c-1.12 0-1.68 0-2.108-.218a2 2 0 01-.874-.874C14 6.48 14 5.92 14 4.8zm-2.216 12.01l-2.587-2.263a1.662 1.662 0 012.092-2.58L12 12.5l.711-.533a1.662 1.662 0 012.092 2.58l-2.587 2.264a.329.329 0 01-.432 0z" opacity=".12"/>
  <path fill-rule="evenodd" d="M13.25 2.772c-.34-.02-.784-.022-1.472-.022-1.307 0-2.245 0-2.984.056-.73.056-1.204.162-1.59.342a4.25 4.25 0 00-2.056 2.056c-.18.386-.286.86-.342 1.59-.056.739-.056 1.677-.056 2.984V14c0 1.412 0 2.427.066 3.223.064.787.188 1.295.397 1.707a4.25 4.25 0 001.858 1.857c.411.21.919.333 1.706.397.796.065 1.81.066 3.223.066 1.412 0 2.427 0 3.223-.066.787-.064 1.295-.188 1.707-.397a4.25 4.25 0 001.857-1.857c.21-.412.333-.92.397-1.707.065-.796.066-1.81.066-3.223v-3.686c0-.726-.002-1.201-.024-1.564H17.17c-.535 0-.98 0-1.345-.03-.38-.03-.736-.098-1.073-.27A2.75 2.75 0 0113.55 7.25c-.172-.338-.24-.694-.27-1.074-.03-.365-.03-.81-.03-1.345V2.772zm5.59 4.478a4.263 4.263 0 00-.216-.4c-.252-.41-.607-.773-1.497-1.663l-.38-.378c-.823-.824-1.158-1.154-1.535-1.393a4.246 4.246 0 00-.462-.256V4.8c0 .572 0 .957.025 1.253.023.287.065.424.111.515.12.235.311.426.546.546.091.046.228.088.515.111.296.024.68.025 1.253.025h1.64zm-4.666-5.864c-.616-.136-1.26-.136-2.304-.136h-.122c-1.27 0-2.265 0-3.067.06-.816.063-1.493.19-2.111.479a5.75 5.75 0 00-2.781 2.78c-.289.62-.416 1.296-.478 2.112-.061.802-.061 1.797-.061 3.066v4.287c0 1.371 0 2.447.07 3.311.073.88.221 1.607.557 2.265a5.75 5.75 0 002.513 2.513c.658.336 1.385.485 2.265.556.864.071 1.94.071 3.311.071h.068c1.371 0 2.447 0 3.311-.07.88-.072 1.607-.221 2.265-.557a5.75 5.75 0 002.513-2.513c.336-.658.485-1.385.556-2.265.071-.864.071-1.94.071-3.311v-3.82c0-1.128 0-1.823-.159-2.485a5.75 5.75 0 00-.688-1.662c-.356-.581-.848-1.073-1.646-1.87l-.07-.07-.379-.38-.064-.064c-.74-.739-1.194-1.194-1.726-1.533a5.75 5.75 0 00-1.844-.764zm.247 11.34a.912.912 0 00-1.26-.16l-.711.534a.75.75 0 01-.9 0l-.711-.533a.912.912 0 00-1.148 1.416L12 16.003l2.31-2.02a.912.912 0 00.11-1.256zm-2.16-1.36a2.412 2.412 0 013.036 3.746l-2.587 2.263a1.078 1.078 0 01-1.42 0l-2.587-2.263a2.412 2.412 0 013.036-3.745l.261.195.261-.195z"/>
</svg>
