<svg xmlns="http://www.w3.org/2000/svg" width="24" height="24" fill="currentColor" viewBox="0 0 24 24">
  <path fill-rule="evenodd" d="M14 2.116V4.8c0 1.12 0 1.68.218 2.108a2 2 0 00.874.874C15.52 8 16.08 8 17.2 8h2.684C20 8.549 20 9.159 20 10.314V14c0 2.8 0 4.2-.545 5.27a5 5 0 01-2.185 2.185C16.2 22 14.8 22 12 22c-2.8 0-4.2 0-5.27-.545a5 5 0 01-2.185-2.185C4 18.2 4 16.8 4 14V9.778c0-2.591 0-3.887.469-4.891a5 5 0 012.418-2.418C7.89 2 9.187 2 11.778 2c1.124 0 1.69 0 2.222.116z" opacity=".12"/>
  <path fill-rule="evenodd" d="M13.25 2.772c-.34-.02-.784-.022-1.472-.022-1.307 0-2.245 0-2.984.056-.73.056-1.204.162-1.59.342a4.25 4.25 0 00-2.056 2.056c-.18.386-.286.86-.342 1.59-.056.739-.056 1.677-.056 2.984V11a.75.75 0 01-1.5 0V9.748c0-1.27 0-2.265.06-3.067.063-.816.19-1.493.479-2.111a5.75 5.75 0 012.78-2.781c.62-.289 1.296-.416 2.112-.478.802-.061 1.797-.061 3.066-.061h.123c1.045 0 1.688 0 2.304.136a5.75 5.75 0 011.844.764c.532.34.987.794 1.726 1.533l.064.065.38.379.07.07c.797.797 1.289 1.289 1.645 1.87a5.75 5.75 0 01.688 1.662c.16.662.16 1.357.159 2.486V11a.75.75 0 01-1.5 0v-.686c0-.726-.002-1.201-.024-1.564H17.17c-.535 0-.98 0-1.345-.03-.38-.03-.736-.098-1.073-.27A2.75 2.75 0 0113.55 7.25c-.172-.338-.24-.694-.27-1.074-.03-.365-.03-.81-.03-1.345V2.772zm5.59 4.478a4.263 4.263 0 00-.216-.4c-.252-.41-.607-.773-1.497-1.663l-.38-.378c-.823-.824-1.158-1.154-1.535-1.393a4.246 4.246 0 00-.462-.256V4.8c0 .572 0 .957.025 1.253.023.287.065.424.111.515.12.235.311.426.546.546.091.046.228.088.515.111.296.024.68.025 1.253.025h1.64zM4.75 15a.75.75 0 00-1.5 0v1.54c0 .426 0 .686.018.911a5.75 5.75 0 005.28 5.281c.226.018.486.018.911.018H10a.75.75 0 000-1.5h-.5c-.479 0-.674 0-.833-.013a4.25 4.25 0 01-3.904-3.903 12.12 12.12 0 01-.013-.834V15zm16 0a.75.75 0 00-1.5 0v1.5c0 .479 0 .674-.013.834a4.25 4.25 0 01-3.903 3.903c-.16.012-.355.013-.834.013H14a.75.75 0 000 1.5h.54c.426 0 .686 0 .911-.018a5.75 5.75 0 005.281-5.28c.018-.226.018-.486.018-.912V15z"/>
</svg>
