<svg xmlns="http://www.w3.org/2000/svg" width="24" height="24" fill="currentColor" viewBox="0 0 24 24">
  <path fill-rule="evenodd" d="M2.996 17.377c.411.468.978.807 2.11 1.487l3.6 2.16c1.198.718 1.797 1.078 2.436 1.218.565.124 1.15.124 1.716 0 .639-.14 1.237-.5 2.434-1.218l3.6-2.16c1.134-.68 1.7-1.02 2.111-1.488a4 4 0 00.807-1.424c.19-.594.19-1.254.19-2.576v-2.752c0-1.322 0-1.983-.19-2.576a3.998 3.998 0 00-.806-1.425c-.412-.468-.979-.808-2.112-1.487l-3.6-2.16c-1.197-.719-1.795-1.078-2.434-1.218a4 4 0 00-1.716 0c-.64.14-1.238.5-2.435 1.218l-3.6 2.16c-1.133.68-1.7 1.02-2.111 1.487a4 4 0 00-.807 1.425C2 8.64 2 9.302 2 10.623v2.753c0 1.322 0 1.982.19 2.576a4 4 0 00.807 1.425zM12 9a3 3 0 100 6 3 3 0 000-6z" opacity=".12"/>
  <path fill-rule="evenodd" d="M11.303 2.49c.459-.1.934-.1 1.394 0 .49.108.967.383 2.21 1.129l3.6 2.16c1.175.705 1.617.98 1.933 1.34.296.336.52.73.656 1.157.145.456.154.977.154 2.348v2.752c0 1.371-.009 1.892-.154 2.348a3.25 3.25 0 01-.656 1.157c-.316.36-.758.635-1.934 1.34l-3.6 2.16c-1.242.745-1.719 1.02-2.21 1.128-.458.101-.934.101-1.393 0-.491-.107-.968-.383-2.21-1.128l-3.6-2.16c-1.176-.705-1.618-.98-1.934-1.34a3.25 3.25 0 01-.655-1.157c-.146-.456-.154-.977-.154-2.348v-2.752c0-1.371.008-1.892.154-2.348.136-.427.36-.82.655-1.157.316-.36.758-.635 1.934-1.34l3.6-2.16c1.242-.746 1.719-1.021 2.21-1.129zm1.715-1.465a4.75 4.75 0 00-2.037 0c-.76.167-1.459.586-2.543 1.237l-.117.07-3.6 2.16-.11.066c-1.027.617-1.689 1.013-2.178 1.57a4.75 4.75 0 00-.958 1.692c-.226.706-.226 1.477-.225 2.675v3.01c0 1.197 0 1.969.225 2.675.199.624.525 1.2.958 1.692.49.557 1.15.953 2.178 1.57l.11.065 3.6 2.16.117.07c1.084.652 1.782 1.07 2.543 1.238a4.75 4.75 0 002.037 0c.76-.167 1.459-.587 2.544-1.238l.116-.07 3.6-2.16.11-.066c1.028-.616 1.69-1.012 2.179-1.57a4.749 4.749 0 00.957-1.69c.226-.707.226-1.479.226-2.676v-3.01c0-1.198 0-1.969-.226-2.675-.199-.624-.525-1.2-.957-1.692-.49-.557-1.151-.953-2.179-1.57l-.11-.066-3.6-2.16-.117-.07c-1.084-.65-1.782-1.07-2.543-1.237zM12 8.25a3.75 3.75 0 100 7.5 3.75 3.75 0 000-7.5zM9.75 12a2.25 2.25 0 114.5 0 2.25 2.25 0 01-4.5 0z"/>
</svg>
