<svg xmlns="http://www.w3.org/2000/svg" width="24" height="24" fill="currentColor" viewBox="0 0 24 24">
  <path d="M20 22V10c0-2.8 0-4.2-.545-5.27a5 5 0 00-2.185-2.185C16.2 2 14.8 2 12 2c-2.8 0-4.2 0-5.27.545A5 5 0 004.545 4.73C4 5.8 4 7.2 4 10v12l2.276-1.138c2.099-1.05 3.148-1.574 4.249-1.78a7.997 7.997 0 012.95 0c1.101.206 2.15.73 4.25 1.78L20 22z" opacity=".12"/>
  <path fill-rule="evenodd" d="M12 1.25h-.034c-1.371 0-2.447 0-3.311.07-.88.073-1.607.221-2.265.557A5.75 5.75 0 003.877 4.39c-.336.658-.484 1.385-.556 2.265-.071.864-.071 1.94-.071 3.311V22a.75.75 0 001.085.67l2.276-1.137c2.138-1.069 3.079-1.532 4.052-1.714a7.249 7.249 0 012.674 0c.973.182 1.914.645 4.052 1.714l2.276 1.138A.75.75 0 0020.75 22V9.966c0-1.371 0-2.447-.07-3.311-.072-.88-.221-1.607-.557-2.265a5.75 5.75 0 00-2.513-2.513c-.658-.336-1.385-.484-2.265-.556-.864-.071-1.94-.071-3.311-.071H12zM7.07 3.213c.412-.21.92-.333 1.707-.397.796-.065 1.81-.066 3.223-.066 1.412 0 2.427 0 3.223.066.787.064 1.295.188 1.707.397a4.25 4.25 0 011.857 1.858c.21.411.333.919.397 1.706.065.796.066 1.81.066 3.223v10.787l-1.19-.596-.118-.058c-1.987-.994-3.124-1.563-4.329-1.789-1.066-.2-2.16-.2-3.226 0-1.205.226-2.342.795-4.33 1.789l-.117.058-1.19.596V10c0-1.413 0-2.427.066-3.223.064-.787.188-1.295.397-1.706a4.25 4.25 0 011.858-1.858zm8.96 5.317a.75.75 0 00-1.06-1.06L11 11.44 9.53 9.97a.75.75 0 00-1.06 1.06l2 2a.75.75 0 001.06 0l4.5-4.5z"/>
</svg>
