<svg xmlns="http://www.w3.org/2000/svg" width="24" height="24" fill="currentColor" viewBox="0 0 24 24">
  <path fill-rule="evenodd" d="M6.122 7.325C6 7.806 6 8.32 6 9.352V16c0 1.864 0 2.796.305 3.53a4 4 0 002.164 2.165C9.204 22 10.136 22 12 22s2.796 0 3.53-.305a4 4 0 002.166-2.164C18 18.796 18 17.864 18 16V9.352c0-1.03 0-1.546-.121-2.027a4.002 4.002 0 00-.526-1.203c-.27-.416-.649-.766-1.405-1.466l-.687-.637c-1.15-1.064-1.724-1.596-2.378-1.798a3 3 0 00-1.766 0c-.653.202-1.228.734-2.378 1.798l-.687.637c-.756.7-1.134 1.05-1.405 1.466a4 4 0 00-.525 1.203zM12 13a2 2 0 100-4 2 2 0 000 4z" opacity=".12"/>
  <path fill-rule="evenodd" d="M12.662 2.938a2.25 2.25 0 00-1.324 0c-.202.062-.426.184-.76.447-.34.27-.746.644-1.33 1.185l-.687.636c-.783.726-1.077 1.005-1.285 1.325-.195.3-.34.63-.427.977-.094.37-.099.776-.099 1.844v6.681c0 .925.001 1.584.036 2.104.036.52.103.846.212 1.107a3.25 3.25 0 001.758 1.759c.261.108.587.175 1.107.21.374.026.82.034 1.387.036v-2.25a.75.75 0 011.5 0v2.25c.566-.002 1.013-.01 1.388-.035.52-.036.845-.103 1.106-.211a3.25 3.25 0 001.759-1.76c.108-.26.175-.586.21-1.105.037-.527.037-1.196.037-2.138V9.352c0-1.068-.005-1.474-.099-1.844a3.252 3.252 0 00-.427-.977c-.208-.32-.502-.6-1.285-1.325l-.687-.636c-.584-.54-.99-.916-1.33-1.185-.334-.263-.557-.385-.76-.447zm6.088 7.687V9.253c0-.936 0-1.539-.144-2.112a4.75 4.75 0 00-.624-1.428c-.322-.495-.765-.905-1.452-1.54l-.072-.068-.687-.636-.023-.02c-.555-.515-1.005-.931-1.397-1.241-.405-.32-.796-.565-1.247-.703a3.75 3.75 0 00-2.208 0c-.45.138-.841.383-1.247.703-.392.31-.841.726-1.397 1.24l-.023.021-.687.636-.072.067c-.687.636-1.13 1.046-1.452 1.541a4.75 4.75 0 00-.624 1.428c-.144.573-.144 1.176-.144 2.112V10.625L3.47 11.96l-.083.062c-.624.468-1.056.791-1.374 1.21-.281.371-.491.79-.619 1.238-.144.506-.144 1.046-.144 1.826V20a.75.75 0 00.932.727l3.45-.862a4.75 4.75 0 002.55 2.523c.475.197.982.281 1.578.322.584.04 1.304.04 2.213.04h.054c.91 0 1.63 0 2.213-.04.596-.04 1.104-.125 1.578-.322a4.75 4.75 0 002.55-2.523l3.45.862A.75.75 0 0022.75 20v-3.704c0-.78 0-1.32-.144-1.826a3.751 3.751 0 00-.619-1.237c-.318-.42-.75-.743-1.374-1.211l-.083-.062-1.78-1.335zm0 1.875v5.914l2.5.625V16.4c0-.923-.007-1.238-.086-1.517a2.248 2.248 0 00-.372-.742c-.175-.232-.423-.426-1.162-.98l-.88-.66zm-14.38.66l.88-.66v5.914l-2.5.625V16.4c0-.923.007-1.238.087-1.517a2.25 2.25 0 01.37-.742c.176-.232.424-.426 1.163-.98zM10.75 11a1.25 1.25 0 112.5 0 1.25 1.25 0 01-2.5 0zM12 8.25a2.75 2.75 0 100 5.5 2.75 2.75 0 000-5.5z"/>
</svg>
