<svg xmlns="http://www.w3.org/2000/svg" width="24" height="24" fill="currentColor" viewBox="0 0 24 24">
  <path fill-rule="evenodd" d="M22 10.327v3.346c0 2.387 0 3.58-.499 4.246a2.5 2.5 0 01-1.823.995c-.83.06-1.834-.586-3.841-1.876L13 15.214v-1.54c0 2.386 0 3.579-.499 4.245a2.5 2.5 0 01-1.823.995c-.83.06-1.834-.586-3.841-1.876l-2.603-1.673c-1.742-1.12-2.613-1.68-2.914-2.392a2.5 2.5 0 010-1.946c.301-.712 1.172-1.272 2.914-2.392l2.603-1.673c2.007-1.29 3.011-1.936 3.841-1.876a2.5 2.5 0 011.823.995C13 6.747 13 7.94 13 10.327V8.786l2.837-1.824c2.007-1.29 3.011-1.936 3.841-1.876a2.5 2.5 0 011.823.995C22 6.747 22 7.94 22 10.327z" opacity=".12"/>
  <path fill-rule="evenodd" d="M16.243 7.593c1.016-.653 1.735-1.115 2.302-1.41.574-.299.878-.364 1.08-.35.506.037.972.291 1.276.697.12.162.23.453.29 1.097.058.638.059 1.492.059 2.7v3.346c0 1.208 0 2.062-.06 2.7-.058.644-.168.935-.29 1.097a1.75 1.75 0 01-1.275.696c-.202.015-.506-.05-1.08-.349-.568-.295-1.286-.756-2.302-1.41l-2.495-1.604c.002-.337.002-.7.002-1.09v-3.426c0-.39 0-.753-.002-1.09l2.495-1.604zm-2.562-.137l1.75-1.125.034-.021c.975-.627 1.752-1.127 2.388-1.458.637-.332 1.25-.56 1.879-.515a3.25 3.25 0 012.37 1.294c.378.505.517 1.143.583 1.86.065.713.065 1.636.065 2.796v3.426c0 1.16 0 2.083-.065 2.797-.066.715-.205 1.354-.583 1.859a3.25 3.25 0 01-2.37 1.294c-.63.044-1.242-.183-1.88-.515-.635-.331-1.412-.83-2.387-1.458l-.034-.021-1.75-1.125c-.067.702-.207 1.328-.58 1.825a3.25 3.25 0 01-2.37 1.294c-.628.044-1.24-.183-1.878-.515-.636-.331-1.413-.83-2.388-1.458l-.034-.021-2.603-1.673-.031-.02v-.001c-.844-.542-1.521-.978-2.021-1.368-.507-.395-.921-.809-1.147-1.342a3.25 3.25 0 010-2.53c.226-.533.64-.947 1.147-1.342.5-.39 1.177-.826 2.02-1.368l.032-.02L6.431 6.33l.034-.021c.975-.627 1.752-1.127 2.388-1.458.637-.332 1.25-.56 1.879-.515a3.25 3.25 0 012.37 1.294c.371.497.512 1.123.58 1.825zm-6.438.137c1.016-.653 1.735-1.115 2.302-1.41.574-.299.878-.364 1.08-.35.506.037.972.291 1.276.697.12.162.23.453.29 1.097.058.638.059 1.492.059 2.7v3.346c0 1.208 0 2.062-.06 2.7-.058.644-.168.935-.29 1.097a1.75 1.75 0 01-1.275.696c-.202.015-.506-.05-1.08-.349-.567-.295-1.286-.756-2.302-1.41L4.64 14.734c-.884-.568-1.502-.966-1.942-1.31-.44-.342-.611-.564-.687-.743a1.75 1.75 0 010-1.362c.076-.18.248-.4.687-.744.44-.342 1.058-.741 1.942-1.309l2.603-1.673z"/>
</svg>
