<svg xmlns="http://www.w3.org/2000/svg" width="24" height="24" fill="currentColor" viewBox="0 0 24 24">
  <rect width="20" height="20" x="2" y="2" opacity=".12" rx="10"/>
  <path fill-rule="evenodd" d="M12 1.25c-3.21 0-5.862 1.337-7.686 2.64A17.12 17.12 0 002.75 5.153V3a.75.75 0 00-1.5 0v4c0 .414.336.75.75.75h3.5a.75.75 0 000-1.5H3.773c.387-.351.86-.745 1.413-1.14C6.862 3.913 9.21 2.75 12 2.75c2.83 0 5.13.94 6.72 2.53 1.59 1.59 2.53 3.89 2.53 6.72 0 2.83-.94 5.13-2.53 6.72-1.59 1.59-3.89 2.53-6.72 2.53-5.537 0-9.25-4.643-9.25-9.25a.75.75 0 00-1.5 0c0 5.334 4.287 10.75 10.75 10.75 3.17 0 5.87-1.06 7.78-2.97 1.91-1.91 2.97-4.61 2.97-7.78s-1.06-5.87-2.97-7.78C17.87 2.31 15.17 1.25 12 1.25zM12.75 8a.75.75 0 00-1.5 0v4c0 .25.125.485.334.624l3 2a.75.75 0 10.832-1.248l-2.666-1.777V8z"/>
</svg>
