<svg xmlns="http://www.w3.org/2000/svg" width="24" height="24" fill="currentColor" viewBox="0 0 24 24">
  <path d="M2 8.4c0-2.24 0-3.36.436-4.216a4 4 0 011.748-1.748C5.04 2 6.16 2 8.4 2h7.2c2.24 0 3.36 0 4.216.436a4 4 0 011.748 1.748C22 5.04 22 6.16 22 8.4v7.2c0 2.24 0 3.36-.436 4.216a4 4 0 01-1.748 1.748C18.96 22 17.84 22 15.6 22H8.4c-2.24 0-3.36 0-4.216-.436a4 4 0 01-1.748-1.748C2 18.96 2 17.84 2 15.6V8.4z" opacity=".12"/>
  <path fill-rule="evenodd" d="M9.966 1.25h4.068a295.171 295.171 0 011.01.001c.905.004 1.661.017 2.301.07.88.072 1.607.22 2.265.556a5.75 5.75 0 012.513 2.513c.336.658.485 1.385.556 2.265.071.864.071 1.94.071 3.311v4.068c0 1.371 0 2.447-.07 3.311-.072.88-.221 1.607-.557 2.265a5.75 5.75 0 01-2.513 2.513c-.658.336-1.385.485-2.265.556-.64.053-1.396.066-2.302.07a.774.774 0 01-.081 0l-.928.001H9.038a.796.796 0 01-.081-.001c-.906-.004-1.662-.017-2.302-.07-.88-.071-1.607-.22-2.265-.556a5.75 5.75 0 01-2.513-2.513c-.336-.658-.484-1.385-.556-2.265-.071-.864-.071-1.94-.071-3.311V9.966c0-1.371 0-2.447.07-3.311.073-.88.221-1.607.557-2.265A5.75 5.75 0 014.39 1.877c.658-.336 1.385-.484 2.265-.556.64-.053 1.396-.066 2.302-.07a.76.76 0 01.08 0l.927-.001h.002zm5.784 19.993a22.18 22.18 0 001.473-.059c.787-.064 1.295-.188 1.707-.397a4.251 4.251 0 001.857-1.857c.21-.412.333-.92.397-1.707.065-.796.066-1.81.066-3.223v-4c0-1.413 0-2.427-.066-3.223-.064-.787-.188-1.295-.397-1.706a4.25 4.25 0 00-1.857-1.858c-.412-.21-.92-.333-1.707-.397-.421-.035-.903-.051-1.473-.059v18.486zM14.25 2.75v18.5h-4.5V2.75h4.5zm-7.473.066c.421-.035.903-.051 1.473-.059v18.486a22.18 22.18 0 01-1.473-.059c-.787-.064-1.295-.188-1.706-.397a4.25 4.25 0 01-1.858-1.857c-.21-.412-.333-.92-.397-1.707-.065-.796-.066-1.81-.066-3.223v-4c0-1.413 0-2.427.066-3.223.064-.787.188-1.295.397-1.706a4.25 4.25 0 011.858-1.858c.411-.21.919-.333 1.706-.397z"/>
</svg>
