<svg xmlns="http://www.w3.org/2000/svg" width="24" height="24" fill="currentColor" viewBox="0 0 24 24">
  <path fill-rule="evenodd" d="M15.6 6H2v9.6c0 2.24 0 3.36.436 4.216a4 4 0 001.748 1.748C5.04 22 6.16 22 8.4 22h7.2c2.24 0 3.36 0 4.216-.436a4 4 0 001.748-1.748c.334-.655.412-1.466.43-2.816H21a3 3 0 110-6h.994c-.018-1.35-.096-2.16-.43-2.816a4 4 0 00-1.748-1.748C18.96 6 17.84 6 15.6 6z" opacity=".12"/>
  <path fill-rule="evenodd" d="M10.8 2.75c1.217 0 1.679.007 2.092.125.388.11.752.292 1.072.536.343.26.626.626 1.356 1.599l.18.24H4a1.25 1.25 0 110-2.5h6.8zM1.25 4A2.75 2.75 0 014 1.25h6.913c1.065 0 1.75 0 2.391.183a4.75 4.75 0 011.567.783c.531.403.942.952 1.581 1.803l.068.091.865 1.153c.33.008.63.022.903.044.714.058 1.317.18 1.869.46a4.75 4.75 0 012.075 2.077c.281.55.403 1.154.461 1.868.057.697.057 1.563.057 2.655v3.266c0 1.092 0 1.958-.057 2.655-.058.714-.18 1.317-.46 1.869a4.75 4.75 0 01-2.076 2.075c-.552.281-1.155.403-1.869.461-.697.057-1.563.057-2.655.057H8.367c-1.092 0-1.958 0-2.655-.057-.714-.058-1.317-.18-1.868-.46a4.75 4.75 0 01-2.076-2.076c-.281-.552-.403-1.155-.461-1.869-.057-.697-.057-1.563-.057-2.655V4zM15.6 6.75c1.133 0 1.937 0 2.566.052.62.05 1.005.147 1.31.302a3.25 3.25 0 011.42 1.42c.155.305.251.69.302 1.31.01.13.02.269.026.416H21a3.75 3.75 0 000 7.5h.224c-.007.147-.015.285-.026.416-.05.62-.147 1.005-.302 1.31a3.25 3.25 0 01-1.42 1.42c-.305.155-.69.251-1.31.302-.63.051-1.433.052-2.566.052H8.4c-1.132 0-1.937 0-2.566-.052-.62-.05-1.005-.147-1.31-.302a3.25 3.25 0 01-1.42-1.42c-.155-.305-.251-.69-.302-1.31-.051-.63-.052-1.433-.052-2.566V6.45c.375.192.8.3 1.25.3h11.6zm5.4 5h.25v4.5H21a2.25 2.25 0 110-4.5zm-13.5 1.5a.75.75 0 000 1.5h5a.75.75 0 000-1.5h-5z"/>
</svg>
