<svg xmlns="http://www.w3.org/2000/svg" width="24" height="24" fill="currentColor" viewBox="0 0 24 24">
  <path d="M4 12a8 8 0 1116 0 8 8 0 01-16 0z" opacity=".12"/>
  <path fill-rule="evenodd" d="M11.361.25h1.278c.757 0 1.35-.001 1.865.215.45.19.843.495 1.136.887.334.446.477 1.022.66 1.757l.034.133.34 1.36A8.744 8.744 0 0120.75 12a8.744 8.744 0 01-4.077 7.399l-.34 1.359-.033.133c-.183.735-.326 1.31-.66 1.757a2.75 2.75 0 01-1.136.887c-.515.216-1.108.216-1.865.215H11.36c-.757 0-1.35.001-1.865-.215a2.75 2.75 0 01-1.136-.887c-.334-.446-.477-1.022-.66-1.757l-.034-.133-.34-1.36A8.744 8.744 0 013.25 12a8.744 8.744 0 014.077-7.399l.34-1.359.033-.133c.183-.735.326-1.31.66-1.757A2.75 2.75 0 019.496.465c.515-.216 1.108-.216 1.865-.215zM9.086 20.253l.036.141c.233.934.31 1.183.439 1.355.133.178.311.317.516.403.199.084.459.098 1.421.098h1.004c.962 0 1.222-.014 1.42-.098a1.25 1.25 0 00.517-.403c.129-.172.206-.42.44-1.355l.035-.14A8.737 8.737 0 0112 20.75a8.737 8.737 0 01-2.914-.497zm5.792-16.647l.036.14A8.736 8.736 0 0012 3.25a8.736 8.736 0 00-2.914.497l.036-.141c.233-.934.31-1.183.439-1.355a1.25 1.25 0 01.516-.403c.199-.084.459-.098 1.421-.098h1.004c.962 0 1.222.014 1.42.098.205.086.384.225.517.403.129.172.206.42.44 1.355zM4.75 12a7.25 7.25 0 1114.5 0 7.25 7.25 0 01-14.5 0zm8-2a.75.75 0 00-1.5 0v2c0 .25.125.485.334.624l1.5 1a.75.75 0 10.832-1.248l-1.166-.777V10z"/>
</svg>
