<svg xmlns="http://www.w3.org/2000/svg" width="24" height="24" fill="currentColor" viewBox="0 0 24 24">
  <path d="M12 2C7.747 2 4.3 5.552 4.3 9.933l.001.143C2.403 10.579 1 12.354 1 14.466 1 16.97 2.97 19 5.4 19h12.1c3.038 0 5.5-2.537 5.5-5.667 0-2.41-1.46-4.469-3.52-5.288C18.659 4.575 15.622 2 12 2z" opacity=".12"/>
  <path fill-rule="evenodd" d="M5.05 9.743C5.05 5.877 8.166 2.75 12 2.75c3.264 0 6.009 2.266 6.752 5.327a.75.75 0 00.457.522 4.782 4.782 0 013.041 4.462 4.782 4.782 0 01-1.902 3.827.75.75 0 10.904 1.197 6.283 6.283 0 002.498-5.024 6.283 6.283 0 00-3.64-5.708C19.085 3.83 15.846 1.25 12 1.25c-4.534 0-8.228 3.587-8.44 8.083a5.175 5.175 0 00-3.31 4.834 5.177 5.177 0 002.573 4.481.75.75 0 10.754-1.296 3.677 3.677 0 01-1.827-3.185 3.672 3.672 0 012.739-3.559.75.75 0 00.562-.74l-.001-.125zM12.75 13a.75.75 0 00-1.5 0v7.19l-2.22-2.22a.75.75 0 00-1.06 1.06l3.5 3.5a.75.75 0 001.06 0l3.5-3.5a.75.75 0 10-1.06-1.06l-2.22 2.22V13z"/>
</svg>
