<svg xmlns="http://www.w3.org/2000/svg" width="24" height="24" fill="currentColor" viewBox="0 0 24 24">
  <path fill-rule="evenodd" d="M12 22c5.523 0 10-4.477 10-10S17.523 2 12 2 2 6.477 2 12s4.477 10 10 10zM10.203 9.265C10 9.533 10 10.018 10 10.99v2.02c0 .972 0 1.457.203 1.725a1 1 0 00.737.395c.335.02.74-.25 1.548-.788l1.515-1.01c.668-.446 1.002-.668 1.118-.949a1 1 0 000-.766c-.116-.28-.45-.503-1.118-.948l-1.515-1.01c-.808-.54-1.213-.809-1.548-.789a1 1 0 00-.737.395z" opacity=".12"/>
  <path fill-rule="evenodd" d="M2.75 12a9.25 9.25 0 1118.5 0 9.25 9.25 0 01-18.5 0zM12 1.25C6.063 1.25 1.25 6.063 1.25 12S6.063 22.75 12 22.75 22.75 17.937 22.75 12 17.937 1.25 12 1.25zm.903 7.784l-.028-.019c-.38-.253-.707-.47-.981-.62-.275-.148-.614-.296-.998-.273a1.75 1.75 0 00-1.292.69c-.232.308-.297.672-.326.983-.028.31-.028.704-.028 1.16V13.045c0 .456 0 .85.028 1.16.029.31.094.675.326.982.31.408.78.66 1.292.691.384.023.723-.125.998-.273.274-.15.601-.367.98-.62l.03-.02 1.515-1.01.027-.018c.31-.207.585-.39.794-.558.215-.173.444-.395.574-.709a1.75 1.75 0 000-1.34c-.13-.314-.359-.536-.574-.71-.209-.167-.483-.35-.794-.557l-.027-.018-1.516-1.01zm-2.093.672a.25.25 0 01.16-.086c.018.005.08.024.21.094.206.112.475.29.892.568l1.515 1.01c.346.231.562.377.71.496a.856.856 0 01.135.125c.02.056.02.118 0 .174a.856.856 0 01-.134.125c-.149.12-.365.265-.71.495l-1.516 1.01c-.417.278-.686.457-.893.569-.13.07-.191.089-.209.094a.25.25 0 01-.16-.086 1.044 1.044 0 01-.038-.226 13.333 13.333 0 01-.022-1.058v-2.02c0-.5 0-.824.022-1.058.014-.147.032-.209.038-.226z"/>
</svg>
