<svg xmlns="http://www.w3.org/2000/svg" width="24" height="24" fill="currentColor" viewBox="0 0 24 24">
  <path fill-rule="evenodd" d="M17 8a3 3 0 100-6 3 3 0 000 6zM3.17 17.07l3.138-4.883c.896-1.393 1.344-2.09 1.914-2.33a2 2 0 011.556 0c.57.24 1.018.937 1.914 2.33l2.808 4.369.308-.48c.896-1.394 1.344-2.09 1.914-2.33a2 2 0 011.556 0c.57.24 1.018.936 1.914 2.33l.638.994c1.033 1.605 1.549 2.409 1.502 3.072a2 2 0 01-.797 1.459C21.002 22 20.048 22 18.14 22H5.86c-1.909 0-2.863 0-3.396-.399a2 2 0 01-.797-1.459c-.047-.663.47-1.466 1.502-3.072z" opacity=".12"/>
  <path fill-rule="evenodd" d="M14.75 5a2.25 2.25 0 114.5 0 2.25 2.25 0 01-4.5 0zM17 1.25a3.75 3.75 0 100 7.5 3.75 3.75 0 000-7.5zm-8.487 9.297a1.25 1.25 0 01.974 0c.107.046.265.159.534.504.27.345.584.833 1.04 1.542l2.808 4.368 2.757 4.289H5.861c-.97 0-1.644 0-2.146-.047-.508-.046-.706-.131-.8-.202a1.25 1.25 0 01-.498-.912c-.009-.118.027-.33.262-.784.233-.446.597-1.014 1.121-1.83l3.14-4.882c.455-.71.77-1.197 1.039-1.542.269-.345.427-.458.534-.504zm11.772 10.656c-.454.042-1.05.046-1.876.047l-3.017-4.694.047-.074c.456-.71.77-1.197 1.04-1.542.269-.345.427-.458.535-.504a1.25 1.25 0 01.973 0c.107.046.265.159.534.504.27.345.584.833 1.04 1.542l.639.993c.524.816.888 1.384 1.12 1.83.236.453.272.666.264.784a1.25 1.25 0 01-.498.912c-.095.07-.293.156-.801.202zm-7.962-9.421l2.177 3.387a16.9 16.9 0 01.796-1.152c.321-.412.672-.768 1.134-.963a2.75 2.75 0 012.14 0c.462.195.813.55 1.134.963.316.406.668.952 1.099 1.622l.02.032.638.993.021.032c.499.776.901 1.402 1.17 1.917.268.516.467 1.037.428 1.583a2.75 2.75 0 01-1.095 2.005c-.438.328-.984.443-1.563.496-.579.053-1.323.053-2.245.053H5.823c-.922 0-1.666 0-2.245-.053-.58-.053-1.125-.168-1.563-.496A2.75 2.75 0 01.92 20.196c-.039-.546.16-1.067.429-1.583.268-.515.67-1.141 1.169-1.917l.02-.032 3.14-4.882.02-.031c.43-.67.782-1.217 1.098-1.623.321-.412.672-.768 1.134-.963a2.75 2.75 0 012.14 0c.462.196.813.551 1.134.963.316.406.668.952 1.099 1.623l.02.03z"/>
</svg>
