<svg xmlns="http://www.w3.org/2000/svg" width="24" height="24" fill="currentColor" viewBox="0 0 24 24">
  <path fill-rule="evenodd" d="M12 2C6.477 2 2 6.477 2 12s4.477 10 10 10 10-4.477 10-10S17.523 2 12 2zm0 10a2 2 0 00-2 2v2a2 2 0 104 0v-2a2 2 0 00-2-2z" opacity=".12"/>
  <path fill-rule="evenodd" d="M12 1.25C6.063 1.25 1.25 6.063 1.25 12S6.063 22.75 12 22.75 22.75 17.937 22.75 12 17.937 1.25 12 1.25zM2.75 12a9.25 9.25 0 1118.5 0 9.25 9.25 0 01-18.5 0zM9 10a1 1 0 100-2 1 1 0 000 2zm7-1a1 1 0 11-2 0 1 1 0 012 0zm-4 2.25A2.75 2.75 0 009.25 14v2a2.75 2.75 0 105.5 0v-2A2.75 2.75 0 0012 11.25zM10.75 14a1.25 1.25 0 112.5 0v2a1.25 1.25 0 11-2.5 0v-2z"/>
</svg>
