<svg xmlns="http://www.w3.org/2000/svg" width="24" height="24" fill="currentColor" viewBox="0 0 24 24">
  <path d="M2 7h20v7c0 2.8 0 4.2-.545 5.27a5 5 0 01-2.185 2.185C18.2 22 16.8 22 14 22h-4c-2.8 0-4.2 0-5.27-.545a5 5 0 01-2.185-2.185C2 18.2 2 16.8 2 14V7z" opacity=".12"/>
  <path fill-rule="evenodd" d="M10 2.75h.075l2.1 3.5H8.441L6.545 2.837c.075-.008.152-.015.232-.021.796-.065 1.81-.066 3.223-.066zm-4.955.476a4.25 4.25 0 00-1.832 1.845c-.158.311-.268.678-.34 1.18h3.852l-1.68-3.025zM7.986 7.75h-5.22C2.75 8.37 2.75 9.106 2.75 10v4c0 1.413 0 2.427.066 3.223.064.787.188 1.295.397 1.707a4.25 4.25 0 001.858 1.857c.411.21.919.333 1.706.398.796.065 1.81.065 3.223.065h4c1.412 0 2.427 0 3.223-.066.787-.064 1.295-.188 1.707-.397a4.25 4.25 0 001.857-1.857c.21-.412.333-.92.397-1.707.065-.796.066-1.81.066-3.223v-4c0-.894 0-1.63-.017-2.25H7.986zm3.839-5l2.1 3.5h3.75l-2.018-3.364a.75.75 0 01-.062-.13c-.47-.006-.997-.006-1.595-.006h-2.175zM14 1.25H9.966c-1.371 0-2.447 0-3.311.07-.88.073-1.607.221-2.265.557A5.75 5.75 0 001.877 4.39c-.336.658-.484 1.385-.556 2.265-.071.864-.071 1.94-.071 3.312v4.067c0 1.371 0 2.447.07 3.311.073.88.221 1.607.557 2.266a5.75 5.75 0 002.513 2.512c.658.336 1.385.485 2.265.556.864.071 1.94.071 3.311.071h4.068c1.371 0 2.447 0 3.311-.07.88-.072 1.607-.221 2.265-.557a5.75 5.75 0 002.513-2.512c.336-.659.485-1.386.556-2.266.071-.864.071-1.94.071-3.311V9.967c0-1.372 0-2.448-.07-3.312-.072-.88-.221-1.607-.557-2.265a5.75 5.75 0 00-2.513-2.513c-.658-.336-1.385-.484-2.265-.556-.864-.07-1.94-.07-3.311-.07H14zm3.372 1.579l2.053 3.421h1.702c-.072-.501-.181-.868-.34-1.18a4.25 4.25 0 00-1.857-1.857c-.385-.196-.855-.317-1.558-.384z"/>
</svg>
