<svg xmlns="http://www.w3.org/2000/svg" width="24" height="24" fill="currentColor" viewBox="0 0 24 24">
  <path d="M14.781 9.682L12 12l2.781 2.318c2.335 1.945 3.502 2.917 3.773 3.716a3 3 0 01-1.276 3.526c-.72.44-2.24.44-5.278.44-3.038 0-4.558 0-5.278-.44a3 3 0 01-1.276-3.526c.271-.799 1.438-1.771 3.773-3.716L12 12 9.219 9.682C6.884 7.737 5.717 6.764 5.446 5.966A3 3 0 016.722 2.44C7.442 2 8.962 2 12 2c3.038 0 4.558 0 5.278.44a3 3 0 011.276 3.526c-.271.798-1.438 1.771-3.773 3.716z" opacity=".12"/>
  <path fill-rule="evenodd" d="M15.46 2.803c-.82-.053-1.93-.053-3.46-.053h-1.066c-1.088 0-1.878 0-2.465.027-.608.029-.898.084-1.04.143a2.25 2.25 0 00-1.133 3.13c.072.135.259.364.708.774.433.397 1.04.903 1.876 1.6l.6.5a.75.75 0 01-.96 1.152l-.6-.5-.017-.014c-.816-.68-1.45-1.208-1.912-1.631-.45-.413-.817-.793-1.022-1.183a3.75 3.75 0 011.888-5.215c.407-.168.932-.226 1.542-.254.627-.029 1.451-.029 2.514-.029h1.117c1.494 0 2.653 0 3.527.057.851.055 1.58.168 2.112.493a3.75 3.75 0 011.595 4.407c-.2.59-.688 1.144-1.306 1.731-.635.603-1.526 1.345-2.673 2.301l-.024.02L9.7 14.893c-1.176.98-2.028 1.69-2.624 2.256-.616.585-.848.917-.92 1.126a2.25 2.25 0 00.958 2.644c.188.115.58.222 1.427.277.82.053 1.93.053 3.46.053h1.066c1.088 0 1.878 0 2.465-.027.608-.029.898-.084 1.04-.143a2.25 2.25 0 001.133-3.13c-.072-.135-.259-.363-.708-.774-.433-.397-1.04-.903-1.876-1.6l-.6-.5a.75.75 0 01.96-1.152l.6.5.016.013c.817.68 1.45 1.209 1.913 1.632.45.413.817.793 1.022 1.183a3.75 3.75 0 01-1.888 5.215c-.407.168-.932.226-1.542.254-.627.029-1.451.029-2.514.029H11.97c-1.494 0-2.653 0-3.527-.056-.851-.056-1.58-.169-2.112-.494a3.75 3.75 0 01-1.595-4.407c.2-.59.688-1.144 1.306-1.731.636-.603 1.526-1.345 2.674-2.301l.023-.02L14.3 9.107c1.176-.98 2.028-1.69 2.624-2.256.616-.585.848-.917.92-1.126a2.25 2.25 0 00-.958-2.644c-.188-.115-.58-.222-1.427-.277z"/>
</svg>
