<svg xmlns="http://www.w3.org/2000/svg" width="24" height="24" fill="currentColor" viewBox="0 0 24 24">
  <path fill-rule="evenodd" d="M14 2.116V4.8c0 1.12 0 1.68.218 2.108a2 2 0 00.874.874C15.52 8 16.08 8 17.2 8h2.684C20 8.549 20 9.159 20 10.314V12H4V9.778c0-2.591 0-3.887.469-4.891a5 5 0 012.418-2.418C7.89 2 9.187 2 11.778 2c1.124 0 1.69 0 2.222.116z" opacity=".12"/>
  <path fill-rule="evenodd" d="M11.778 2.75c.688 0 1.133.001 1.472.022V4.83c0 .535 0 .98.03 1.345.03.38.098.736.27 1.074A2.75 2.75 0 0014.75 8.45c.338.172.694.24 1.074.27.365.03.81.03 1.345.03H19.226c.022.363.024.838.024 1.564v.936H4.75V9.778c0-1.307 0-2.245.056-2.984.056-.73.162-1.204.342-1.59a4.25 4.25 0 012.056-2.056c.386-.18.86-.286 1.59-.342.739-.055 1.677-.056 2.984-.056zm-8.528 8.5H2a.75.75 0 000 1.5h20a.75.75 0 000-1.5h-1.25v-1.036c0-1.128 0-1.823-.159-2.485a5.75 5.75 0 00-.688-1.662c-.356-.581-.848-1.073-1.646-1.87l-.07-.07-.379-.38-.064-.064c-.74-.739-1.194-1.194-1.726-1.533a5.75 5.75 0 00-1.844-.764c-.616-.136-1.26-.136-2.304-.136h-.122c-1.27 0-2.265 0-3.067.06-.816.063-1.493.19-2.111.479a5.75 5.75 0 00-2.781 2.78c-.289.62-.416 1.296-.478 2.112-.061.802-.061 1.797-.061 3.066v1.503zm15.374-4.4c.079.13.151.263.216.4H17.2c-.572 0-.957 0-1.252-.025-.288-.023-.425-.065-.516-.111a1.25 1.25 0 01-.546-.546c-.046-.091-.088-.228-.111-.515-.024-.296-.025-.68-.025-1.253V3.16c.159.075.313.16.462.256.377.24.712.569 1.536 1.393l.378.378c.89.89 1.246 1.252 1.498 1.663zM4 15.25a.75.75 0 01.75.75v.5c0 .479 0 .674.013.834a4.25 4.25 0 003.904 3.903c.159.012.354.013.833.013h5c.479 0 .674 0 .834-.013a4.25 4.25 0 003.903-3.903c.012-.16.013-.355.013-.834V16a.75.75 0 011.5 0v.54c0 .426 0 .686-.018.911a5.75 5.75 0 01-5.28 5.281c-.226.018-.486.018-.912.018H9.46c-.426 0-.686 0-.911-.018a5.75 5.75 0 01-5.281-5.28 12.42 12.42 0 01-.018-.912V16a.75.75 0 01.75-.75z"/>
</svg>
