<svg xmlns="http://www.w3.org/2000/svg" width="24" height="24" fill="currentColor" viewBox="0 0 24 24">
  <path fill-rule="evenodd" d="M2.11 12.277c-.11-.46-.11-.95-.11-1.928V9.4c0-2.24 0-3.36.436-4.216a4 4 0 011.748-1.748C5.04 3 6.16 3 8.4 3h.949c.978 0 1.468 0 1.928.11.408.099.798.26 1.156.48.404.247.75.593 1.441 1.285l2.6 2.6c1.585 1.584 2.377 2.376 2.673 3.289a4 4 0 010 2.472c-.296.913-1.088 1.705-2.672 3.29l-.95.948c-1.584 1.585-2.376 2.377-3.289 2.673a4 4 0 01-2.472 0c-.913-.296-1.705-1.088-3.29-2.672l-2.6-2.6c-.691-.692-1.037-1.038-1.285-1.442a3.998 3.998 0 01-.478-1.156zM9 12a2 2 0 100-4 2 2 0 000 4z" opacity=".12"/>
  <path fill-rule="evenodd" d="M14.97 1.97a.75.75 0 011.06 0l.5.5 1.08 1.08.025.024c1.366 1.366 2.423 2.423 3.2 3.34.789.928 1.334 1.76 1.636 2.691a7.75 7.75 0 010 4.79c-.302.93-.847 1.763-1.635 2.692-.778.916-1.835 1.973-3.201 3.339l-.024.024-1.58 1.58-.5.5a.75.75 0 01-1.061-1.06l.5-.5 1.58-1.58c1.395-1.396 2.409-2.41 3.142-3.274.728-.857 1.136-1.517 1.353-2.185a6.25 6.25 0 000-3.862c-.217-.668-.625-1.327-1.353-2.185-.733-.864-1.747-1.878-3.142-3.273l-1.08-1.08-.5-.5a.75.75 0 010-1.061zM9 8.75a1.25 1.25 0 100 2.5 1.25 1.25 0 000-2.5zM6.25 10a2.75 2.75 0 115.5 0 2.75 2.75 0 01-5.5 0zm3.099-6.25c1.014 0 1.399.005 1.753.09.332.08.649.21.94.389.31.19.585.459 1.302 1.176l2.6 2.6c.801.8 1.37 1.37 1.778 1.851.403.475.606.815.712 1.14a3.25 3.25 0 010 2.008c-.106.325-.31.665-.712 1.14-.409.481-.977 1.05-1.778 1.851l-.949.95c-.8.8-1.37 1.368-1.851 1.777-.475.403-.815.606-1.14.712a3.25 3.25 0 01-2.008 0c-.325-.106-.665-.31-1.14-.712-.481-.409-1.05-.977-1.851-1.778l-2.6-2.6c-.717-.717-.986-.992-1.176-1.303a3.25 3.25 0 01-.39-.94c-.084-.353-.089-.738-.089-1.752V9.4c0-1.132 0-1.937.052-2.566.05-.62.147-1.005.302-1.31a3.25 3.25 0 011.42-1.42c.305-.155.69-.251 1.31-.302.63-.051 1.434-.052 2.566-.052h.949zm2.103-1.369c-.548-.131-1.12-.131-2.01-.131H8.368c-1.092 0-1.958 0-2.655.057-.714.058-1.317.18-1.868.46a4.75 4.75 0 00-2.076 2.077c-.281.55-.403 1.154-.461 1.868-.057.697-.057 1.563-.057 2.655v1.076c0 .888 0 1.461.131 2.009.117.485.309.948.569 1.373.294.48.7.885 1.328 1.514l.066.066 2.6 2.6.024.023c.772.773 1.384 1.385 1.917 1.837.546.464 1.059.805 1.647.996.954.31 1.982.31 2.936 0 .588-.192 1.101-.532 1.647-.996.533-.452 1.145-1.064 1.917-1.837l.024-.023.949-.95.023-.023c.773-.772 1.385-1.384 1.838-1.917.463-.546.803-1.059.995-1.647a4.75 4.75 0 000-2.936c-.192-.588-.532-1.101-.995-1.647-.453-.533-1.066-1.145-1.838-1.917l-.023-.024-2.6-2.6-.066-.066c-.629-.629-1.034-1.034-1.514-1.328a4.75 4.75 0 00-1.373-.569z"/>
</svg>
