<svg xmlns="http://www.w3.org/2000/svg" width="24" height="24" fill="currentColor" viewBox="0 0 24 24">
  <path d="M4 11h16v6.2c0 1.68 0 2.52-.327 3.162a3 3 0 01-1.311 1.311C17.72 22 16.88 22 15.2 22H8.8c-1.68 0-2.52 0-3.162-.327a3 3 0 01-1.311-1.311C4 19.72 4 18.88 4 17.2V11z" opacity=".12"/>
  <path fill-rule="evenodd" d="M15.5 2.75a1.75 1.75 0 110 3.5h-2.492l.659-2.196A1.83 1.83 0 0115.42 2.75h.08zm3.25 1.75c0 .644-.188 1.245-.51 1.75H20a2.75 2.75 0 01.75 5.396v5.586c0 .813 0 1.469-.043 2-.045.546-.14 1.026-.366 1.47a3.75 3.75 0 01-1.639 1.64c-.444.226-.924.32-1.47.365-.531.043-1.187.043-2 .043H8.768c-.813 0-1.469 0-2-.043-.546-.045-1.026-.14-1.47-.366a3.75 3.75 0 01-1.64-1.639c-.226-.444-.32-.924-.365-1.47-.043-.531-.043-1.187-.043-2v-5.585A2.751 2.751 0 014 6.25h1.76a3.25 3.25 0 012.74-5h.08a3.33 3.33 0 013.19 2.373l.23.767.23-.767a3.33 3.33 0 013.19-2.373h.08a3.25 3.25 0 013.25 3.25zm-14 7.25v5.45c0 .852 0 1.447.038 1.91.037.453.107.714.207.912.216.423.56.767.984.983.197.1.458.17.912.207.462.037 1.057.038 1.909.038h2.45v-9.5h-6.5zm8 0v9.5h2.45c.852 0 1.447 0 1.91-.038.453-.038.714-.107.912-.207.423-.216.767-.56.983-.983.1-.198.17-.459.207-.913.037-.462.038-1.057.038-1.909v-5.45h-6.5zM21.25 9c0 .69-.56 1.25-1.25 1.25h-7.25v-2.5H20c.69 0 1.25.56 1.25 1.25zm-10 1.25v-2.5H4a1.25 1.25 0 100 2.5h7.25zm-.258-4l-.659-2.196A1.83 1.83 0 008.58 2.75H8.5a1.75 1.75 0 100 3.5h2.492z"/>
</svg>
