<svg xmlns="http://www.w3.org/2000/svg" width="24" height="24" fill="currentColor" viewBox="0 0 24 24">
  <path d="M6.157 18.84l-.738.46c-.303.19-.455.285-.596.345a2 2 0 01-2.22-.44c-.107-.11-.21-.255-.418-.546-.163-.228-.244-.342-.313-.479-.345-.684-.212-1.672.302-2.241.103-.114.181-.178.338-.305 1.782-1.45 3.651-2.431 5.488-3.005A13.425 13.425 0 0112 12c1.283 0 2.632.201 4 .629 1.837.574 3.706 1.556 5.488 3.005.157.127.235.191.338.305.514.569.647 1.557.302 2.241-.069.137-.15.251-.313.479-.208.29-.311.436-.419.546a2 2 0 01-2.219.44c-.141-.06-.293-.155-.596-.344l-.738-.461c-.492-.308-.739-.462-.925-.668a2 2 0 01-.384-.623c-.1-.258-.127-.548-.18-1.126L16 12.629A13.426 13.426 0 0012 12c-1.283 0-2.632.201-4 .629l-.353 3.794c-.054.578-.081.868-.181 1.126a2 2 0 01-.384.623c-.186.206-.433.36-.925.668z" opacity=".12"/>
  <path fill-rule="evenodd" d="M7 3.25a.75.75 0 00-.75.75v4a.75.75 0 001.5 0V5.81l1.457 1.458.021.021c.378.378.693.693.972.93.29.246.59.451.95.568a2.75 2.75 0 001.7 0c.36-.117.66-.322.95-.568.279-.237.594-.552.972-.93l.021-.021L17.03 5.03a.75.75 0 00-1.06-1.06l-2.238 2.237c-.404.405-.676.676-.903.868-.22.187-.346.254-.443.285a1.25 1.25 0 01-.772 0c-.097-.031-.224-.098-.443-.285-.227-.192-.499-.463-.903-.868L8.81 4.75H11a.75.75 0 000-1.5H7zm5 8c-1.361 0-2.786.214-4.224.663-1.931.604-3.884 1.632-5.737 3.139l-.015.012c-.147.12-.265.215-.407.372-.375.416-.589.954-.66 1.48-.07.526-.007 1.101.245 1.602.096.19.209.347.35.546l.023.03.032.046c.176.247.312.437.46.589a2.75 2.75 0 003.052.606 5.05 5.05 0 00.65-.369l.047-.03.738-.46.074-.046c.42-.263.752-.47 1.01-.754.227-.25.406-.541.528-.856.138-.358.174-.747.22-1.242l.008-.086.306-3.287a12.528 12.528 0 013.3-.455c1.057 0 2.167.146 3.3.455l.306 3.287.008.086c.046.495.082.884.22 1.242.122.315.301.605.528.856.258.284.59.49 1.01.754l.074.046.738.46.047.03c.257.16.455.285.65.369a2.75 2.75 0 003.052-.606c.148-.152.284-.342.46-.589l.032-.045.023-.031c.141-.198.254-.357.35-.546.252-.5.316-1.076.245-1.602-.071-.526-.285-1.064-.66-1.48a3.256 3.256 0 00-.407-.372l-.015-.012c-1.853-1.507-3.806-2.535-5.737-3.139A14.174 14.174 0 0012 11.25zm-9.015 4.966c1.36-1.106 2.765-1.923 4.16-2.485L6.9 16.353c-.058.621-.08.787-.134.926a1.251 1.251 0 01-.24.39c-.1.11-.238.204-.767.535l-.738.46c-.326.205-.419.26-.494.292a1.25 1.25 0 01-1.387-.275c-.057-.059-.121-.145-.345-.458-.173-.242-.216-.305-.253-.38a1.275 1.275 0 01-.098-.727c.038-.281.148-.521.286-.674.06-.066.095-.096.255-.226zm14.115.137l-.244-2.622c1.394.562 2.8 1.38 4.159 2.485.16.13.195.16.255.226.138.153.248.393.286.674.038.282-.005.543-.098.727-.037.075-.08.138-.253.38-.224.313-.288.4-.345.458a1.25 1.25 0 01-1.387.275c-.075-.032-.168-.087-.494-.291l-.738-.461c-.53-.331-.667-.425-.767-.536a1.25 1.25 0 01-.24-.389c-.054-.139-.076-.305-.134-.926z"/>
</svg>
