<svg xmlns="http://www.w3.org/2000/svg" width="24" height="24" fill="currentColor" viewBox="0 0 24 24">
  <circle cx="19" cy="5" r="3" opacity=".12"/>
  <path fill-rule="evenodd" d="M16.75 5a2.25 2.25 0 114.5 0 2.25 2.25 0 01-4.5 0zM19 1.25a3.75 3.75 0 100 7.5 3.75 3.75 0 000-7.5zm-9 1h-.034c-1.371 0-2.447 0-3.311.07-.88.073-1.607.221-2.265.557A5.75 5.75 0 001.877 5.39c-.336.658-.484 1.385-.556 2.265-.071.864-.071 1.94-.071 3.311V14.034c0 1.371 0 2.447.07 3.311.073.88.221 1.607.557 2.265a5.75 5.75 0 002.513 2.513c.658.336 1.385.485 2.265.556.864.071 1.94.071 3.311.071H13.034c1.371 0 2.447 0 3.311-.07.88-.072 1.607-.221 2.265-.557a5.75 5.75 0 002.513-2.513c.336-.658.485-1.385.556-2.265.071-.864.071-1.94.071-3.311V12a.75.75 0 00-1.5 0v2c0 1.412 0 2.427-.066 3.223-.064.787-.188 1.295-.397 1.707a4.251 4.251 0 01-1.857 1.857c-.412.21-.92.333-1.707.397-.796.065-1.81.066-3.223.066h-3c-1.413 0-2.427 0-3.223-.066-.787-.064-1.295-.188-1.706-.397a4.25 4.25 0 01-1.858-1.857c-.21-.412-.333-.92-.397-1.707-.065-.796-.066-1.81-.066-3.223v-3c0-1.413 0-2.427.066-3.223.064-.787.188-1.295.397-1.706a4.25 4.25 0 011.858-1.858c.411-.21.919-.333 1.706-.397.796-.065 1.81-.066 3.223-.066h2a.75.75 0 000-1.5h-2z"/>
</svg>
