<svg xmlns="http://www.w3.org/2000/svg" width="24" height="24" fill="currentColor" viewBox="0 0 24 24">
  <path d="M3 3h18v18H3z" opacity=".12"/>
  <path fill-rule="evenodd" d="M21 4a1 1 0 100-2 1 1 0 000 2zm1 3a1 1 0 11-2 0 1 1 0 012 0zM2 11.25a.75.75 0 000 1.5h20a.75.75 0 000-1.5H2zM22 17a1 1 0 11-2 0 1 1 0 012 0zM3 22a1 1 0 100-2 1 1 0 000 2zm6-1a1 1 0 11-2 0 1 1 0 012 0zm3 1a1 1 0 100-2 1 1 0 000 2zm5-1a1 1 0 11-2 0 1 1 0 012 0zm5 0a1 1 0 11-2 0 1 1 0 012 0zm-10-3a1 1 0 100-2 1 1 0 000 2zm-8-1a1 1 0 11-2 0 1 1 0 012 0zm8-9a1 1 0 100-2 1 1 0 000 2zM4 7a1 1 0 11-2 0 1 1 0 012 0zm13-4a1 1 0 11-2 0 1 1 0 012 0zm-5 1a1 1 0 100-2 1 1 0 000 2zM9 3a1 1 0 11-2 0 1 1 0 012 0zM3 4a1 1 0 100-2 1 1 0 000 2z"/>
</svg>
