<svg xmlns="http://www.w3.org/2000/svg" width="24" height="24" fill="currentColor" viewBox="0 0 24 24">
  <path d="M7.757 16.243c1.365 1.364 2.815 2.492 4.243 3.348 1.428-.856 2.878-1.984 4.243-3.348 1.364-1.365 2.492-2.815 3.348-4.243-.856-1.428-1.984-2.878-3.348-4.243C14.878 6.393 13.428 5.265 12 4.41c-1.428.856-2.878 1.984-4.243 3.348C6.393 9.122 5.265 10.572 4.41 12c.856 1.428 1.984 2.878 3.348 4.243z" opacity=".12"/>
  <path fill-rule="evenodd" d="M3.712 8.763c.19.572.44 1.167.746 1.775a23.737 23.737 0 012.77-3.311 23.737 23.737 0 013.31-2.769 13.351 13.351 0 00-1.775-.747c-2.219-.74-3.855-.528-4.718.334-.862.862-1.073 2.5-.333 4.718zm-1.423.474c.298.895.719 1.825 1.252 2.763a15.682 15.682 0 00-1.252 2.763c-.796 2.388-.785 4.772.695 6.253 1.481 1.48 3.865 1.492 6.253.696.895-.299 1.825-.72 2.763-1.253.938.533 1.868.954 2.763 1.253 2.388.795 4.772.784 6.253-.696 1.48-1.481 1.492-3.865.696-6.253A15.684 15.684 0 0020.46 12c.532-.938.953-1.868 1.252-2.763.796-2.388.784-4.772-.696-6.253-1.481-1.48-3.865-1.491-6.253-.696A15.68 15.68 0 0012 3.54a15.683 15.683 0 00-2.763-1.252c-2.388-.796-4.772-.784-6.253.696-1.48 1.481-1.491 3.865-.695 6.253zm6.474 11.051a13.37 13.37 0 001.775-.746 23.738 23.738 0 01-3.31-2.77 23.73 23.73 0 01-2.77-3.31 13.349 13.349 0 00-.746 1.775c-.74 2.219-.53 3.856.333 4.718.863.862 2.5 1.073 4.718.334zm-.475-4.576A21.792 21.792 0 0012 18.71a21.795 21.795 0 003.712-2.998A21.795 21.795 0 0018.71 12a21.792 21.792 0 00-2.998-3.712A21.798 21.798 0 0012 5.29a21.798 21.798 0 00-3.712 2.998A21.797 21.797 0 005.29 12a21.798 21.798 0 002.998 3.712zm6.95 4.576c-.573-.19-1.168-.44-1.776-.746a23.729 23.729 0 003.311-2.769 23.736 23.736 0 002.769-3.31c.306.607.556 1.202.746 1.774.74 2.219.53 3.855-.333 4.718-.862.862-2.499 1.073-4.718.333zm5.05-11.525c-.19.572-.44 1.167-.746 1.775a23.736 23.736 0 00-2.769-3.311 23.73 23.73 0 00-3.31-2.769 13.353 13.353 0 011.774-.746c2.219-.74 3.856-.53 4.718.333.863.863 1.073 2.5.334 4.718zM12 13a1 1 0 100-2 1 1 0 000 2z"/>
</svg>
