<svg xmlns="http://www.w3.org/2000/svg" width="24" height="24" fill="currentColor" viewBox="0 0 24 24">
  <path d="M6.205 14.81l-.162.1c-.701.439-1.052.658-1.392.732a2 2 0 01-1.743-.45c-.262-.229-.463-.59-.865-1.314-.285-.514-.428-.77-.49-1.063a2.16 2.16 0 01.302-1.541c.168-.248.36-.402.743-.71C4.354 9.155 6.193 8.195 8 7.63A13.426 13.426 0 0112 7c1.283 0 2.632.201 4 .629 1.807.565 3.646 1.524 5.402 2.936.383.307.575.461.743.709a2.16 2.16 0 01.302 1.54c-.062.293-.205.55-.49 1.064-.402.723-.603 1.085-.865 1.314a2 2 0 01-1.743.45c-.34-.074-.69-.293-1.392-.731l-.162-.102c-.43-.268-.645-.403-.813-.576a2 2 0 01-.466-.768c-.076-.23-.096-.482-.135-.988L16 7.63A13.426 13.426 0 0012 7c-1.283 0-2.632.201-4 .629l-.38 4.848c-.04.506-.06.759-.136.988a2 2 0 01-.466.768c-.168.173-.383.308-.813.576z" opacity=".12"/>
  <path fill-rule="evenodd" d="M7.776 6.913A14.176 14.176 0 0112 6.25c1.361 0 2.786.214 4.224.663 1.9.594 3.822 1.6 5.648 3.067l.049.039c.339.272.612.492.845.833.397.585.562 1.428.415 2.119-.087.405-.282.756-.528 1.198l-.04.074-.012.019c-.191.345-.351.633-.496.86-.15.238-.31.453-.518.634a2.75 2.75 0 01-2.398.619 2.844 2.844 0 01-.76-.304c-.237-.13-.516-.304-.851-.513l-.019-.011-.161-.102-.065-.04c-.367-.229-.656-.41-.889-.649a2.748 2.748 0 01-.64-1.056c-.105-.317-.132-.657-.165-1.088l-.006-.076-.34-4.333A12.528 12.528 0 0012 7.75a12.53 12.53 0 00-3.293.453l-.34 4.333-.006.076c-.033.431-.06.77-.164 1.088a2.75 2.75 0 01-.641 1.056c-.233.24-.522.42-.89.65l-.064.04-.161.1-.019.012c-.335.21-.614.384-.851.513-.246.135-.49.245-.76.304a2.75 2.75 0 01-2.398-.619 2.842 2.842 0 01-.518-.633c-.145-.228-.305-.516-.496-.861l-.011-.02-.041-.074c-.246-.441-.441-.792-.528-1.197a2.905 2.905 0 01.415-2.119c.233-.341.506-.561.846-.833l.048-.04c1.827-1.467 3.748-2.472 5.648-3.066zm-.614 1.81a16.193 16.193 0 00-4.095 2.426c-.404.325-.499.41-.592.546-.167.246-.25.672-.189.963.034.159.107.306.413.856.205.37.344.618.462.804.116.182.187.263.24.31a1.25 1.25 0 001.09.281c.07-.015.172-.051.361-.154.194-.106.435-.257.794-.48l.161-.102c.462-.288.583-.37.674-.463.132-.136.232-.3.291-.48.04-.123.057-.269.1-.811l.29-3.695zm9.676 0l.29 3.696c.043.542.06.688.1.811.06.18.159.344.291.48.09.093.212.175.674.463l.161.101c.359.224.6.375.794.48.19.104.29.14.36.155a1.25 1.25 0 001.09-.28c.054-.048.125-.129.24-.31.12-.187.258-.436.463-.805.306-.55.379-.697.413-.856a1.418 1.418 0 00-.189-.963c-.093-.137-.188-.22-.592-.546a16.197 16.197 0 00-4.095-2.425z"/>
</svg>
