<svg xmlns="http://www.w3.org/2000/svg" width="24" height="24" fill="currentColor" viewBox="0 0 24 24">
  <path fill-rule="evenodd" d="M2.327 3.638C2 4.28 2 5.12 2 6.8v8.8c0 2.24 0 3.36.436 4.216a4 4 0 001.748 1.748C5.04 22 6.16 22 8.4 22h7.2c2.24 0 3.36 0 4.216-.436a4 4 0 001.748-1.748C22 18.96 22 17.84 22 15.6v-3.2c0-2.24 0-3.36-.436-4.216a4 4 0 00-1.748-1.748C18.96 6 17.84 6 15.6 6h-.811c-.535 0-.802 0-1.043-.061a2 2 0 01-1.025-.633c-.162-.189-.282-.428-.521-.906-.358-.717-.538-1.075-.781-1.358a3 3 0 00-1.538-.95C9.519 2 9.118 2 8.317 2H6.8c-1.68 0-2.52 0-3.162.327a3 3 0 00-1.311 1.311zM11 17.5a2 2 0 100-4 2 2 0 000 4z" opacity=".12"/>
  <path fill-rule="evenodd" d="M9.697 2.819c-.25-.063-.539-.069-1.38-.069H6.8c-.852 0-1.447 0-1.91.038-.453.038-.714.107-.911.207a2.25 2.25 0 00-.984.984c-.1.197-.17.458-.207.912-.037.462-.038 1.057-.038 1.909v8.8c0 1.133 0 1.937.052 2.566.05.62.147 1.005.302 1.31a3.25 3.25 0 001.42 1.42c.305.155.69.251 1.31.302.63.052 1.434.052 2.566.052h7.2c1.133 0 1.937 0 2.566-.052.62-.05 1.005-.147 1.31-.302a3.25 3.25 0 001.42-1.42c.155-.305.251-.69.302-1.31.051-.63.052-1.433.052-2.566v-3.2c0-1.132 0-1.937-.052-2.566-.05-.62-.147-1.005-.302-1.31a3.25 3.25 0 00-1.42-1.42c-.305-.155-.69-.251-1.31-.302-.63-.051-1.433-.052-2.566-.052h-.891c-.456 0-.813 0-1.147-.084a2.75 2.75 0 01-1.41-.87c-.224-.262-.383-.58-.587-.988l-.036-.073c-.376-.752-.51-1.008-.679-1.204a2.25 2.25 0 00-1.153-.712zM8.412 1.25c.71 0 1.199 0 1.653.114a3.75 3.75 0 011.922 1.188c.305.355.524.793.841 1.427l.043.086c.257.513.331.65.418.751.168.195.392.333.64.396.13.033.285.038.86.038H15.633c1.092 0 1.958 0 2.655.057.714.058 1.317.18 1.869.46a4.75 4.75 0 012.075 2.077c.281.55.403 1.154.461 1.868.057.697.057 1.563.057 2.655v3.266c0 1.092 0 1.958-.057 2.655-.058.714-.18 1.317-.46 1.869a4.75 4.75 0 01-2.076 2.075c-.552.281-1.155.403-1.869.461-.697.057-1.563.057-2.655.057H8.367c-1.092 0-1.958 0-2.655-.057-.714-.058-1.317-.18-1.868-.46a4.75 4.75 0 01-2.076-2.076c-.281-.552-.403-1.155-.461-1.869-.057-.697-.057-1.563-.057-2.655V6.768c0-.813 0-1.469.043-2 .045-.546.14-1.026.366-1.47a3.75 3.75 0 011.639-1.64c.444-.226.924-.32 1.47-.365.531-.043 1.187-.043 2-.043h1.644zm2.588 13a1.25 1.25 0 100 2.5 1.25 1.25 0 000-2.5zm1.25-1.2a2.75 2.75 0 101.5 2.45v-3.69l.72.72a.75.75 0 001.06-1.06l-2-2a.75.75 0 00-1.28.53v3.05z"/>
</svg>
