<svg xmlns="http://www.w3.org/2000/svg" width="24" height="24" fill="currentColor" viewBox="0 0 24 24">
  <path fill-rule="evenodd" d="M5.436 4.184C5 5.04 5 6.16 5 8.4v7.2c0 2.24 0 3.36.436 4.216a4 4 0 001.748 1.748C8.04 22 9.16 22 11.4 22h1.2c2.24 0 3.36 0 4.216-.436a4 4 0 001.748-1.748C19 18.96 19 17.84 19 15.6V8.4c0-2.24 0-3.36-.436-4.216a4 4 0 00-1.748-1.748C15.96 2 14.84 2 12.6 2h-1.2c-2.24 0-3.36 0-4.216.436a4 4 0 00-1.748 1.748zM11 17a2 2 0 100-4 2 2 0 000 4z" opacity=".12"/>
  <path fill-rule="evenodd" d="M11.367 1.25H12.633c1.092 0 1.958 0 2.655.057.714.058 1.317.18 1.869.46a4.75 4.75 0 012.075 2.077c.226.443.35.92.419 1.462A3.751 3.751 0 0122.75 9v6a3.751 3.751 0 01-3.099 3.694c-.07.541-.193 1.019-.419 1.463a4.75 4.75 0 01-2.075 2.075c-.552.281-1.155.403-1.869.461-.697.057-1.563.057-2.655.057H11.367c-1.092 0-1.958 0-2.655-.057-.714-.058-1.317-.18-1.868-.46a4.75 4.75 0 01-2.076-2.076c-.226-.444-.35-.922-.419-1.463A3.751 3.751 0 011.25 15V9a3.751 3.751 0 013.099-3.694c.07-.541.193-1.019.419-1.462a4.75 4.75 0 012.076-2.076c.55-.281 1.154-.403 1.868-.461.697-.057 1.563-.057 2.655-.057zm8.376 15.875A2.251 2.251 0 0021.25 15V9a2.25 2.25 0 00-1.507-2.125c.007.445.007.94.007 1.492V15.633c0 .553 0 1.047-.007 1.492zM4.25 15.633c0 .553 0 1.047.007 1.492A2.251 2.251 0 012.75 15V9c0-.982.63-1.818 1.507-2.125-.007.445-.007.94-.007 1.492V15.633zM8.834 2.802c-.62.05-1.005.147-1.31.302a3.25 3.25 0 00-1.42 1.42c-.155.305-.251.69-.302 1.31-.051.63-.052 1.434-.052 2.566v7.2c0 1.133 0 1.937.052 2.566.05.62.147 1.005.302 1.31a3.25 3.25 0 001.42 1.42c.305.155.69.251 1.31.302.63.051 1.434.052 2.566.052h1.2c1.133 0 1.937 0 2.566-.052.62-.05 1.005-.147 1.31-.302a3.25 3.25 0 001.42-1.42c.155-.305.251-.69.302-1.31.051-.63.052-1.433.052-2.566V8.4c0-1.132 0-1.937-.052-2.566-.05-.62-.147-1.005-.302-1.31a3.25 3.25 0 00-1.42-1.42c-.305-.155-.69-.251-1.31-.302-.63-.051-1.434-.052-2.566-.052h-1.2c-1.133 0-1.937 0-2.566.052zM11 13.75a1.25 1.25 0 100 2.5 1.25 1.25 0 000-2.5zm1.25-1.2a2.75 2.75 0 101.5 2.45V8.401l1.834 1.223a.75.75 0 10.832-1.248l-3-2A.75.75 0 0012.25 7v5.55z"/>
</svg>
