<svg xmlns="http://www.w3.org/2000/svg" width="24" height="24" fill="currentColor" viewBox="0 0 24 24">
  <rect width="16" height="20" x="4" y="2" opacity=".12" rx="8"/>
  <path fill-rule="evenodd" d="M8.719 1.886A8.75 8.75 0 0120.75 10a.75.75 0 01-1.5 0 7.25 7.25 0 00-9.969-6.723.75.75 0 11-.562-1.39zM6.224 4.415a.75.75 0 01.116 1.054A7.216 7.216 0 004.75 10v4a7.253 7.253 0 004.984 6.89.75.75 0 01-.468 1.424A8.753 8.753 0 013.25 14v-4c0-2.069.719-3.971 1.92-5.47a.75.75 0 011.054-.115zM20 13.25a.75.75 0 01.75.75 8.754 8.754 0 01-6.016 8.314.75.75 0 11-.468-1.425A7.253 7.253 0 0019.25 14a.75.75 0 01.75-.75zm-8-4a.75.75 0 01.75.75v4a.75.75 0 01-1.5 0v-4a.75.75 0 01.75-.75zm0-4A4.75 4.75 0 007.25 10v4a.75.75 0 001.5 0v-4A3.25 3.25 0 0112 6.75a.75.75 0 000-1.5zm4.114 2.374a.75.75 0 00-1.298.752c.276.477.434 1.03.434 1.624v4a3.25 3.25 0 01-4.874 2.816.75.75 0 10-.752 1.298A4.75 4.75 0 0016.75 14v-4c0-.864-.231-1.676-.636-2.376z"/>
</svg>
