<svg xmlns="http://www.w3.org/2000/svg" width="24" height="24" fill="currentColor" viewBox="0 0 24 24">
  <circle cx="12" cy="12" r="10" opacity=".12"/>
  <path fill-rule="evenodd" d="M1.25 12A10.73 10.73 0 0112 1.25c3.554 0 6.217 1.469 7.977 2.921.494.407.918.814 1.273 1.19V4a.75.75 0 011.5 0v3.5a.75.75 0 01-.75.75h-3.5a.75.75 0 010-1.5h1.987c-.372-.424-.86-.923-1.464-1.421C17.45 4.03 15.113 2.75 12 2.75A9.23 9.23 0 002.75 12a.75.75 0 01-1.5 0zM22 11.25a.75.75 0 01.75.75c0 5.937-4.813 10.75-10.75 10.75-3.017 0-5.438-1.5-7.067-2.937-.45-.398-.846-.795-1.183-1.162V20a.75.75 0 01-1.5 0v-3.5a.75.75 0 01.75-.75h3.5a.75.75 0 010 1.5H4.512c.367.43.842.934 1.413 1.437 1.49 1.314 3.57 2.563 6.075 2.563A9.25 9.25 0 0021.25 12a.75.75 0 01.75-.75z"/>
</svg>
