<svg xmlns="http://www.w3.org/2000/svg" width="24" height="24" fill="currentColor" viewBox="0 0 24 24">
  <path d="M3 3h18v18H3z" opacity=".12"/>
  <path fill-rule="evenodd" d="M12 1.25a.75.75 0 01.75.75v9.25H22a.75.75 0 010 1.5h-9.25V22a.75.75 0 01-1.5 0v-9.25H2a.75.75 0 010-1.5h9.25V2a.75.75 0 01.75-.75zM22 3a1 1 0 11-2 0 1 1 0 012 0zm0 4a1 1 0 11-2 0 1 1 0 012 0zm0 10a1 1 0 11-2 0 1 1 0 012 0zM3 22a1 1 0 100-2 1 1 0 000 2zm5-1a1 1 0 11-2 0 1 1 0 012 0zm9 1a1 1 0 100-2 1 1 0 000 2zm4 0a1 1 0 100-2 1 1 0 000 2zM3 18a1 1 0 100-2 1 1 0 000 2zM3 8a1 1 0 100-2 1 1 0 000 2zm14-4a1 1 0 100-2 1 1 0 000 2zM8 3a1 1 0 11-2 0 1 1 0 012 0zM3 4a1 1 0 100-2 1 1 0 000 2z"/>
</svg>
