<svg xmlns="http://www.w3.org/2000/svg" width="24" height="24" fill="currentColor" viewBox="0 0 24 24">
  <path fill-rule="evenodd" d="M18.5 9a3.5 3.5 0 100-7 3.5 3.5 0 000 7zm-13 13a3.5 3.5 0 100-7 3.5 3.5 0 000 7z" opacity=".12"/>
  <path fill-rule="evenodd" d="M18.5 2.75a2.75 2.75 0 100 5.5 2.75 2.75 0 000-5.5zM6.768 14.442a8.206 8.206 0 017.674-7.674A4.252 4.252 0 0022.75 5.5a4.25 4.25 0 00-8.494-.222 9.705 9.705 0 00-8.978 8.978 4.25 4.25 0 101.49.186zM2.75 18.5a2.75 2.75 0 115.5 0 2.75 2.75 0 01-5.5 0z"/>
</svg>
