<svg xmlns="http://www.w3.org/2000/svg" width="24" height="24" fill="currentColor" viewBox="0 0 24 24">
  <g clip-path="url(#clip0_2007:10423)">
    <path fill-rule="evenodd" d="M18 22a4 4 0 100-8 4 4 0 000 8zM6 22a4 4 0 100-8 4 4 0 000 8z" opacity=".12"/>
    <path fill-rule="evenodd" d="M17.982.926a.75.75 0 01.092 1.056L13.23 7.75l4.622 5.502.149-.002a4.75 4.75 0 11-1.81.357l-3.94-4.69-4.08 4.856a4.75 4.75 0 11-1.553-.484l5.05-6.01a.727.727 0 01.017-.021l5.242-6.24a.75.75 0 011.056-.092zM14.75 18a3.25 3.25 0 116.5 0 3.25 3.25 0 01-6.5 0zm-12 0a3.25 3.25 0 116.5 0 3.25 3.25 0 01-6.5 0zM6.426 1.982a.75.75 0 111.148-.964l3.36 4a.75.75 0 11-1.148.964l-3.36-4z"/>
  </g>
  <defs>
    <clipPath id="clip0_2007:10423">
      <path d="M0 0h24v24H0z"/>
    </clipPath>
  </defs>
</svg>
