<svg xmlns="http://www.w3.org/2000/svg" width="24" height="24" fill="currentColor" viewBox="0 0 24 24">
  <path fill-rule="evenodd" d="M4.545 4.73C4 5.8 4 7.2 4 10v4c0 2.8 0 4.2.545 5.27a5 5 0 002.185 2.185C7.8 22 9.2 22 12 22c2.8 0 4.2 0 5.27-.545a5 5 0 002.185-2.185C20 18.2 20 16.8 20 14v-4c0-2.8 0-4.2-.545-5.27a5 5 0 00-2.185-2.185C16.2 2 14.8 2 12 2c-2.8 0-4.2 0-5.27.545A5 5 0 004.545 4.73zM12 12a3 3 0 100-6 3 3 0 000 6z" opacity=".12"/>
  <path fill-rule="evenodd" d="M12 1.25h-.034c-1.371 0-2.447 0-3.311.07-.88.073-1.607.221-2.265.557A5.75 5.75 0 003.877 4.39c-.336.658-.484 1.385-.556 2.265-.071.864-.071 1.94-.071 3.311v4.068c0 1.371 0 2.447.07 3.311.073.88.221 1.607.557 2.265a5.75 5.75 0 002.513 2.513c.658.336 1.385.485 2.265.556.864.071 1.94.071 3.311.071h.068c1.371 0 2.447 0 3.311-.07.88-.072 1.607-.221 2.265-.557a5.75 5.75 0 002.513-2.513c.336-.658.485-1.385.556-2.265.071-.864.071-1.94.071-3.311V9.966c0-1.371 0-2.447-.07-3.311-.072-.88-.221-1.607-.557-2.265a5.75 5.75 0 00-2.513-2.513c-.658-.336-1.385-.484-2.265-.556-.864-.071-1.94-.071-3.311-.071H12zM7.07 3.213c.412-.21.92-.333 1.707-.397.796-.065 1.81-.066 3.223-.066 1.412 0 2.427 0 3.223.066.787.064 1.295.188 1.707.397a4.25 4.25 0 011.857 1.858c.21.411.333.919.397 1.706.065.796.066 1.81.066 3.223v4c0 1.412 0 2.427-.066 3.223-.064.787-.188 1.295-.397 1.707a4.251 4.251 0 01-1.857 1.857c-.412.21-.92.333-1.707.397-.796.065-1.81.066-3.223.066-1.412 0-2.427 0-3.223-.066-.787-.064-1.295-.188-1.706-.397a4.25 4.25 0 01-1.858-1.857c-.21-.412-.333-.92-.397-1.707-.065-.796-.066-1.81-.066-3.223v-4c0-1.413 0-2.427.066-3.223.064-.787.188-1.295.397-1.706a4.25 4.25 0 011.858-1.858zM9.75 9a2.25 2.25 0 114.5 0 2.25 2.25 0 01-4.5 0zM12 5.25a3.75 3.75 0 100 7.5 3.75 3.75 0 000-7.5zM11 17a1 1 0 11-2 0 1 1 0 012 0zm3 1a1 1 0 100-2 1 1 0 000 2z"/>
</svg>
