<svg xmlns="http://www.w3.org/2000/svg" width="24" height="24" fill="currentColor" viewBox="0 0 24 24">
  <path d="M9.492 16H9c-.93 0-1.395 0-1.776-.102a3 3 0 01-2.122-2.122C5 13.395 5 12.93 5 12s0-1.395.102-1.777a3 3 0 012.122-2.121C7.605 8 8.07 8 9 8h.492c.426 0 .64 0 .837-.04a2 2 0 001.01-.54c.143-.143.261-.32.498-.675 1.197-1.796 1.796-2.694 2.274-2.931a2 2 0 012.622.793C17 5.071 17 6.15 17 8.308v7.383c0 2.159 0 3.238-.267 3.701a2 2 0 01-2.622.794c-.479-.238-1.077-1.135-2.274-2.931-.237-.355-.355-.532-.498-.675a2 2 0 00-1.01-.54c-.198-.04-.41-.04-.837-.04z" opacity=".12"/>
  <path fill-rule="evenodd" d="M13.778 3.142a2.75 2.75 0 013.605 1.091c.234.406.3.963.332 1.548.035.618.035 1.444.035 2.501v7.436c0 1.057 0 1.883-.035 2.502-.032.585-.098 1.142-.332 1.547a2.75 2.75 0 01-3.605 1.091c-.419-.207-.783-.634-1.135-1.103-.371-.495-.83-1.183-1.416-2.062l-.014-.022c-.254-.38-.326-.482-.403-.558a1.25 1.25 0 00-.63-.338c-.107-.021-.23-.025-.688-.025h-.608c-.818 0-1.376 0-1.855-.128a3.75 3.75 0 01-2.651-2.651c-.128-.479-.128-1.037-.128-1.855a220.06 220.06 0 000-.232c0-.818 0-1.376.128-1.854a3.75 3.75 0 012.651-2.652c.48-.128 1.037-.128 1.855-.128h.608c.458 0 .581-.003.687-.025a1.25 1.25 0 00.631-.338c.077-.076.149-.177.403-.558l.014-.021c.586-.88 1.045-1.568 1.416-2.063.352-.469.716-.895 1.135-1.103zm2.305 1.84a1.25 1.25 0 00-1.638-.496c-.06.03-.235.17-.602.66-.343.457-.778 1.11-1.382 2.015l-.036.053c-.202.303-.36.541-.558.738a2.75 2.75 0 01-1.388.743c-.274.055-.56.055-.923.055H9c-.978 0-1.32.007-1.582.077a2.25 2.25 0 00-1.591 1.59c-.07.263-.077.605-.077 1.583s.006 1.32.077 1.582a2.25 2.25 0 001.59 1.591c.263.07.605.077 1.583.077h.556c.364 0 .65 0 .923.056a2.75 2.75 0 011.388.743c.198.196.356.434.558.737l.036.053c.604.906 1.039 1.558 1.382 2.016.367.488.542.63.602.66a1.25 1.25 0 001.638-.497c.034-.058.1-.272.135-.882.032-.572.032-1.356.032-2.444V8.308c0-1.088 0-1.872-.032-2.444-.034-.61-.101-.824-.135-.882z"/>
</svg>
