<svg xmlns="http://www.w3.org/2000/svg" width="24" height="24" fill="currentColor" viewBox="0 0 24 24">
  <rect width="20" height="20" x="2" y="2" opacity=".12" rx="6"/>
  <path fill-rule="evenodd" d="M12 1.25h-.038c-1.837 0-3.267 0-4.41.104-1.16.105-2.098.322-2.927.8a6.75 6.75 0 00-2.47 2.471c-.48.83-.696 1.767-.801 2.927-.104 1.143-.104 2.573-.104 4.41v.076c0 1.837 0 3.267.104 4.41.105 1.16.322 2.098.8 2.927a6.75 6.75 0 002.471 2.47c.83.48 1.767.696 2.927.802 1.143.103 2.573.103 4.41.103h.076c1.837 0 3.267 0 4.41-.104 1.16-.105 2.098-.322 2.927-.8a6.752 6.752 0 002.47-2.471c.48-.83.696-1.767.802-2.927.103-1.143.103-2.573.103-4.41v-.076c0-1.837 0-3.267-.104-4.41-.105-1.16-.322-2.098-.8-2.927a6.75 6.75 0 00-2.471-2.47c-.83-.48-1.767-.696-2.927-.801-1.143-.104-2.573-.104-4.41-.104H12zM5.375 3.453c.563-.325 1.256-.51 2.313-.606C8.755 2.751 10.117 2.75 12 2.75c1.883 0 3.245 0 4.312.097 1.057.096 1.75.281 2.313.606a5.25 5.25 0 011.922 1.922c.325.563.51 1.256.606 2.313.096 1.067.097 2.429.097 4.312 0 1.883 0 3.245-.097 4.312-.096 1.057-.281 1.75-.606 2.313a5.25 5.25 0 01-1.922 1.922c-.563.325-1.256.51-2.313.606-1.067.096-2.429.097-4.312.097-1.883 0-3.245 0-4.312-.097-1.057-.096-1.75-.281-2.313-.606a5.25 5.25 0 01-1.922-1.922c-.325-.563-.51-1.256-.606-2.313-.096-1.067-.097-2.429-.097-4.312 0-1.883 0-3.245.097-4.312.096-1.057.281-1.75.606-2.313a5.25 5.25 0 011.922-1.922zM12 5.25a.75.75 0 00-.75.75v1.5a.75.75 0 001.5 0v-.697a5.251 5.251 0 11-4.462 1.485.75.75 0 00-1.061-1.061A6.75 6.75 0 1012 5.25zm-.97 4.72a.75.75 0 10-1.06 1.06l1.5 1.5a.75.75 0 101.06-1.06l-1.5-1.5z"/>
</svg>
