<svg xmlns="http://www.w3.org/2000/svg" width="24" height="24" fill="currentColor" viewBox="0 0 24 24">
  <path d="M22 14v-2.155c0-1.412 0-2.118-.18-2.77a5.001 5.001 0 00-.772-1.606c-.397-.548-.948-.989-2.05-1.871l-2-1.6c-1.784-1.427-2.676-2.14-3.665-2.414a5 5 0 00-2.666 0c-.99.274-1.881.987-3.665 2.414l-2 1.6C3.9 6.48 3.35 6.921 2.952 7.468a5 5 0 00-.772 1.607C2 9.727 2 10.433 2 11.845V14c0 2.8 0 4.2.545 5.27a5 5 0 002.185 2.185C5.8 22 7.2 22 10 22h4c2.8 0 4.2 0 5.27-.545a5 5 0 002.185-2.185C22 18.2 22 16.8 22 14z" opacity=".12"/>
  <path fill-rule="evenodd" d="M10.867 2.307a4.25 4.25 0 012.266 0c.384.106.776.304 1.31.67.542.372 1.186.886 2.086 1.607l2 1.6c1.135.908 1.589 1.279 1.912 1.725.299.412.521.875.656 1.365.147.532.153 1.117.153 2.571V14c0 1.412 0 2.427-.066 3.223-.064.787-.188 1.295-.397 1.707a4.251 4.251 0 01-1.857 1.857c-.412.21-.92.333-1.707.397-.796.065-1.81.066-3.223.066h-4c-1.413 0-2.427 0-3.223-.066-.787-.064-1.295-.188-1.706-.397a4.25 4.25 0 01-1.858-1.857c-.21-.412-.333-.92-.397-1.707-.065-.796-.066-1.81-.066-3.223v-2.155c0-1.454.006-2.04.153-2.57a4.25 4.25 0 01.656-1.366c.323-.446.777-.817 1.912-1.725l2-1.6c.9-.72 1.544-1.235 2.086-1.607.534-.366.926-.564 1.31-.67zM13.533.861a5.75 5.75 0 00-3.066 0c-.606.168-1.154.464-1.759.88-.592.406-1.279.955-2.151 1.653l-.023.018-2 1.6-.09.072c-1.017.813-1.643 1.314-2.1 1.944a5.75 5.75 0 00-.887 1.848c-.207.75-.207 1.552-.207 2.854v2.304c0 1.371 0 2.447.07 3.311.073.88.221 1.607.557 2.265a5.75 5.75 0 002.513 2.513c.658.336 1.385.485 2.265.556.864.071 1.94.071 3.311.071h4.068c1.371 0 2.447 0 3.311-.07.88-.072 1.607-.221 2.265-.557a5.75 5.75 0 002.513-2.513c.336-.658.485-1.385.556-2.265.071-.864.071-1.94.071-3.311V11.73c0-1.302 0-2.103-.206-2.854a5.75 5.75 0 00-.889-1.848c-.457-.63-1.082-1.13-2.099-1.944l-.09-.072-2-1.6-.023-.018c-.872-.698-1.559-1.247-2.151-1.654-.605-.415-1.153-.711-1.759-.879zM9 15.25a.75.75 0 000 1.5h6a.75.75 0 000-1.5H9z"/>
</svg>
