<svg xmlns="http://www.w3.org/2000/svg" width="24" height="24" fill="currentColor" viewBox="0 0 24 24">
  <path d="M2 10c0-2.8 0-4.2.545-5.27A5 5 0 014.73 2.545C5.8 2 7.2 2 10 2h4c2.8 0 4.2 0 5.27.545a5 5 0 012.185 2.185C22 5.8 22 7.2 22 10v9.17c0 1.027 0 1.54-.163 1.86a1.5 1.5 0 01-1.442.817c-.359-.025-.799-.29-1.678-.817-.525-.315-.788-.472-1.063-.595a4.998 4.998 0 00-1.439-.399C15.916 20 15.61 20 14.998 20H10c-2.8 0-4.2 0-5.27-.545a5 5 0 01-2.185-2.185C2 16.2 2 14.8 2 12v-2z" opacity=".12"/>
  <path fill-rule="evenodd" d="M9.966 1.25h4.068c1.371 0 2.447 0 3.311.07.88.073 1.607.221 2.265.557a5.75 5.75 0 012.513 2.513c.336.658.485 1.385.556 2.265.071.864.071 1.94.071 3.311V19.198c0 .49 0 .896-.022 1.218-.022.324-.07.656-.222.954a2.25 2.25 0 01-2.164 1.225c-.334-.023-.643-.153-.932-.3a19.443 19.443 0 01-1.056-.608l-.023-.014c-.54-.324-.758-.453-.983-.553a4.252 4.252 0 00-1.223-.34c-.244-.029-.497-.03-1.127-.03H9.966c-1.371 0-2.447 0-3.311-.07-.88-.072-1.607-.221-2.265-.557a5.75 5.75 0 01-2.513-2.513c-.336-.658-.484-1.385-.556-2.265-.071-.864-.071-1.94-.071-3.311V9.966c0-1.371 0-2.447.07-3.311.073-.88.221-1.607.557-2.265A5.75 5.75 0 014.39 1.877c.658-.336 1.385-.484 2.265-.556.864-.071 1.94-.071 3.311-.071zM6.777 2.816c-.787.064-1.295.188-1.706.397a4.25 4.25 0 00-1.858 1.858c-.21.411-.333.919-.397 1.706-.065.796-.066 1.81-.066 3.223v2c0 1.412 0 2.427.066 3.223.064.787.188 1.295.397 1.707a4.25 4.25 0 001.858 1.857c.411.21.919.333 1.706.397.796.065 1.81.066 3.223.066h5.048c.565 0 .913 0 1.257.042a5.75 5.75 0 011.655.458c.317.141.615.32 1.1.611l.042.026c.45.27.754.451.99.572.24.123.33.138.355.14a.75.75 0 00.722-.409c.01-.022.044-.107.062-.376.019-.265.019-.62.019-1.143V10c0-1.413 0-2.427-.066-3.223-.064-.787-.188-1.295-.397-1.706a4.25 4.25 0 00-1.857-1.858c-.412-.21-.92-.333-1.707-.397-.796-.065-1.81-.066-3.223-.066h-4c-1.413 0-2.427 0-3.223.066zM6.25 8A.75.75 0 017 7.25h8a.75.75 0 010 1.5H7A.75.75 0 016.25 8zM7 11.25a.75.75 0 000 1.5h4a.75.75 0 000-1.5H7z"/>
</svg>
