<svg xmlns="http://www.w3.org/2000/svg" width="24" height="24" fill="currentColor" viewBox="0 0 24 24">
  <path d="M4 10.4c0-2.24 0-3.36.436-4.216a4 4 0 011.748-1.748C7.04 4 8.16 4 10.4 4H18v11.6c0 2.24 0 3.36-.436 4.216a4 4 0 01-1.748 1.748C14.96 22 13.84 22 11.6 22h-1.2c-2.24 0-3.36 0-4.216-.436a4 4 0 01-1.748-1.748C4 18.96 4 17.84 4 15.6v-5.2z" opacity=".12"/>
  <path fill-rule="evenodd" d="M18 .25a.75.75 0 01.75.75v2.25H21a.75.75 0 010 1.5h-2.25V7a.75.75 0 01-1.5 0V4.75H15a.75.75 0 010-1.5h2.25V1A.75.75 0 0118 .25zm-7.633 3H11.5a.75.75 0 010 1.5h-1.1c-1.132 0-1.937 0-2.566.052-.62.05-1.005.147-1.31.302a3.25 3.25 0 00-1.42 1.42c-.155.305-.251.69-.302 1.31-.051.63-.052 1.434-.052 2.566v5.2c0 1.133 0 1.937.052 2.566.05.62.147 1.005.302 1.31a3.25 3.25 0 001.42 1.42c.305.155.69.251 1.31.302.63.051 1.434.052 2.566.052h1.2c1.133 0 1.937 0 2.566-.052.62-.05 1.005-.147 1.31-.302a3.25 3.25 0 001.42-1.42c.155-.305.251-.69.302-1.31.051-.63.052-1.433.052-2.566v-5.1a.75.75 0 011.5 0v5.133c0 1.092 0 1.958-.057 2.655-.058.714-.18 1.317-.46 1.869a4.75 4.75 0 01-2.076 2.075c-.552.281-1.155.403-1.869.461-.697.057-1.563.057-2.655.057H10.367c-1.092 0-1.958 0-2.655-.057-.714-.058-1.317-.18-1.868-.46a4.75 4.75 0 01-2.076-2.076c-.281-.552-.403-1.155-.461-1.869-.057-.697-.057-1.563-.057-2.655V10.367c0-1.092 0-1.958.057-2.655.058-.714.18-1.317.46-1.868a4.75 4.75 0 012.077-2.076c.55-.281 1.154-.403 1.868-.461.697-.057 1.563-.057 2.655-.057zM8 7.25a.75.75 0 000 1.5h6a.75.75 0 000-1.5H8zM7.25 12a.75.75 0 01.75-.75h4a.75.75 0 010 1.5H8a.75.75 0 01-.75-.75zM8 15.25a.75.75 0 000 1.5h2a.75.75 0 000-1.5H8z"/>
</svg>
