<svg xmlns="http://www.w3.org/2000/svg" width="24" height="24" fill="currentColor" viewBox="0 0 24 24">
  <path d="M3 3h18v18H3z" opacity=".12"/>
  <path fill-rule="evenodd" d="M21 4a1 1 0 100-2 1 1 0 000 2zm1 4a1 1 0 11-2 0 1 1 0 012 0zm-1 5a1 1 0 100-2 1 1 0 000 2zm1 3a1 1 0 11-2 0 1 1 0 012 0zM3 22a1 1 0 100-2 1 1 0 000 2zm6-1a1 1 0 11-2 0 1 1 0 012 0zm3 1a1 1 0 100-2 1 1 0 000 2zm5-1a1 1 0 11-2 0 1 1 0 012 0zm5 0a1 1 0 11-2 0 1 1 0 012 0zm-10-4a1 1 0 100-2 1 1 0 000 2zm-8-1a1 1 0 11-2 0 1 1 0 012 0zm13-4a1 1 0 11-2 0 1 1 0 012 0zm-5 1a1 1 0 100-2 1 1 0 000 2zm-3-1a1 1 0 11-2 0 1 1 0 012 0zm-6 1a1 1 0 100-2 1 1 0 000 2zm9-4a1 1 0 100-2 1 1 0 000 2zM4 8a1 1 0 11-2 0 1 1 0 012 0zm13-5a1 1 0 11-2 0 1 1 0 012 0zm-5 1a1 1 0 100-2 1 1 0 000 2zM9 3a1 1 0 11-2 0 1 1 0 012 0zM3 4a1 1 0 100-2 1 1 0 000 2z"/>
</svg>
