<svg xmlns="http://www.w3.org/2000/svg" width="24" height="24" fill="currentColor" viewBox="0 0 24 24">
  <rect width="20" height="20" x="2" y="2" opacity=".12" rx="6"/>
  <path fill-rule="evenodd" d="M11.566 1.25H12.434c1.651 0 2.937 0 3.968.084 1.047.086 1.897.262 2.662.652a6.75 6.75 0 012.95 2.95c.39.765.566 1.615.652 2.662.084 1.031.084 2.317.084 3.968V12.434c0 1.652 0 2.937-.084 3.968-.086 1.047-.262 1.897-.652 2.662a6.75 6.75 0 01-2.95 2.95c-.765.39-1.615.566-2.662.652-1.031.084-2.317.084-3.968.084H11.566c-1.651 0-2.937 0-3.968-.084-1.047-.086-1.897-.262-2.662-.652a6.75 6.75 0 01-2.95-2.95c-.39-.765-.566-1.615-.652-2.662-.084-1.031-.084-2.317-.084-3.968V11.566c0-1.651 0-2.937.084-3.968.086-1.047.262-1.897.652-2.662a6.75 6.75 0 012.95-2.95c.765-.39 1.615-.566 2.662-.652 1.031-.084 2.317-.084 3.968-.084zM7.72 2.83c-.954.077-1.585.228-2.103.492a5.25 5.25 0 00-2.295 2.295c-.264.518-.415 1.15-.493 2.103-.078.963-.079 2.187-.079 3.88v.8c0 1.692 0 2.917.08 3.88.077.954.228 1.585.492 2.103a5.25 5.25 0 002.295 2.295c.518.264 1.15.415 2.103.493.963.078 2.187.079 3.88.079h.8c1.692 0 2.917 0 3.88-.08.954-.077 1.585-.228 2.103-.492a5.25 5.25 0 002.295-2.295c.264-.518.415-1.15.493-2.103.078-.963.079-2.188.079-3.88v-.8c0-1.693 0-2.917-.08-3.88-.077-.954-.228-1.585-.492-2.103a5.25 5.25 0 00-2.295-2.295c-.518-.264-1.15-.415-2.103-.493-.963-.078-2.188-.079-3.88-.079h-.8c-1.693 0-2.917 0-3.88.08zM12 7.75a8.836 8.836 0 00-6.454 2.764.75.75 0 01-1.092-1.028A10.336 10.336 0 0112 6.25c2.983 0 5.672 1.245 7.546 3.236a.75.75 0 01-1.092 1.028A8.836 8.836 0 0012 7.75zm-4.484 4.794A6.487 6.487 0 0112 10.75c1.734 0 3.31.68 4.483 1.794a.75.75 0 001.034-1.088A7.987 7.987 0 0012 9.25c-2.136 0-4.077.84-5.516 2.206a.75.75 0 101.032 1.088zm3.416 1.406c-.29.131-.566.329-.974.644a.75.75 0 01-.916-1.188c.4-.309.802-.61 1.273-.823.49-.222 1.021-.333 1.685-.333.664 0 1.194.11 1.685.333.471.212.873.514 1.273.823a.75.75 0 11-.916 1.188c-.408-.315-.683-.513-.974-.644-.271-.123-.587-.2-1.068-.2-.481 0-.797.077-1.068.2zM12 18a1 1 0 100-2 1 1 0 000 2z"/>
</svg>
