<svg xmlns="http://www.w3.org/2000/svg" width="24" height="24" fill="currentColor" viewBox="0 0 24 24">
  <path d="M2 11.4c0-2.24 0-3.36.436-4.216a4 4 0 011.748-1.748C5.04 5 6.16 5 8.4 5h5.2c2.24 0 3.36 0 4.216.436a4 4 0 011.748 1.748C20 8.04 20 9.16 20 11.4v1.2c0 2.24 0 3.36-.436 4.216a4 4 0 01-1.748 1.748C16.96 19 15.84 19 13.6 19H8.4c-2.24 0-3.36 0-4.216-.436a4 4 0 01-1.748-1.748C2 15.96 2 14.84 2 12.6v-1.2z" opacity=".12"/>
  <path fill-rule="evenodd" d="M6.452 4.25H7a.75.75 0 110 1.5h-.5c-.482 0-.669 0-.819.016A3.25 3.25 0 002.766 8.68c-.015.15-.016.337-.016.819v5c0 .482 0 .669.016.819a3.25 3.25 0 002.915 2.915c.15.015.337.016.819.016H7a.75.75 0 010 1.5h-.548c-.418 0-.685 0-.918-.023a4.75 4.75 0 01-4.261-4.261c-.023-.233-.023-.5-.023-.918V9.452c0-.418 0-.685.023-.918a4.75 4.75 0 014.261-4.261c.233-.023.5-.023.918-.023zm9.867 1.516c-.15-.015-.337-.016-.819-.016H15a.75.75 0 010-1.5h.548c.418 0 .685 0 .918.023a4.75 4.75 0 014.256 4.208l.2.08a3.704 3.704 0 010 6.878l-.2.08A4.75 4.75 0 0116 19.75h-1a.75.75 0 010-1.5h1a3.25 3.25 0 003.25-3.267V9.5c0-.482 0-.669-.016-.819a3.25 3.25 0 00-2.915-2.915zM21.75 12c0 .754-.384 1.445-1 1.846v-3.692c.616.401 1 1.092 1 1.846zM11.711 6.237a.75.75 0 10-1.422-.474l-2 6A.75.75 0 009 12.75h2.96l-1.671 5.013a.75.75 0 001.422.474l2-6A.75.75 0 0013 11.25h-2.96l1.671-5.013z"/>
</svg>
