<svg xmlns="http://www.w3.org/2000/svg" width="24" height="24" fill="currentColor" viewBox="0 0 24 24">
  <path fill-rule="evenodd" d="M2.654 5.276C2 6.56 2 8.24 2 11.6v.8c0 3.36 0 5.04.654 6.324a6 6 0 002.622 2.622C6.56 22 8.24 22 11.6 22h3.572c.337 0 .505 0 .668-.009l.16-.01V19.2c0-1.12 0-1.68.218-2.108a2 2 0 01.874-.874C17.52 16 18.08 16 19.2 16h2.78c.005-.053.008-.107.011-.16.009-.163.009-.331.009-.668V11.6c0-3.36 0-5.04-.654-6.324a6 6 0 00-2.622-2.622C17.44 2 15.76 2 12.4 2h-.8c-3.36 0-5.04 0-6.324.654a6 6 0 00-2.622 2.622z" opacity=".12"/>
  <path fill-rule="evenodd" d="M11.6 1.25h-.034c-1.651 0-2.937 0-3.968.084-1.047.086-1.897.262-2.662.652a6.75 6.75 0 00-2.95 2.95c-.39.765-.566 1.615-.652 2.662-.084 1.031-.084 2.317-.084 3.968V12.434c0 1.651 0 2.937.084 3.968.086 1.047.262 1.897.652 2.662a6.75 6.75 0 002.95 2.95c.765.39 1.615.566 2.662.652 1.031.084 2.317.084 3.968.084h3.629c.315 0 .503 0 .685-.01a6.75 6.75 0 004.142-1.715c.136-.123.269-.255.492-.478l.016-.017.017-.016c.223-.223.355-.356.478-.492a6.75 6.75 0 001.715-4.141c.01-.183.01-.371.01-.686v-3.629c0-1.651 0-2.937-.084-3.968-.086-1.047-.262-1.897-.652-2.662a6.75 6.75 0 00-2.95-2.95c-.765-.39-1.615-.566-2.662-.652-1.031-.084-2.317-.084-3.968-.084H11.6zM5.617 3.322c.518-.264 1.15-.415 2.103-.493.963-.078 2.187-.079 3.88-.079h.8c1.692 0 2.917 0 3.88.08.954.077 1.585.228 2.103.492a5.25 5.25 0 012.295 2.295c.264.518.415 1.15.493 2.103.078.963.079 2.187.079 3.88v3.65H19.17c-.535 0-.98 0-1.345.03-.38.03-.736.098-1.073.27a2.751 2.751 0 00-1.202 1.201c-.172.338-.24.694-.27 1.074-.03.364-.03.81-.03 1.345V21.25H11.6c-1.693 0-2.917 0-3.88-.08-.954-.077-1.585-.228-2.103-.492a5.25 5.25 0 01-2.295-2.295c-.264-.518-.415-1.15-.493-2.103-.078-.963-.079-2.188-.079-3.88v-.8c0-1.693 0-2.917.08-3.88.077-.954.228-1.585.492-2.103a5.25 5.25 0 012.295-2.295zm11.133 17.78a5.25 5.25 0 002.27-1.194c.103-.092.206-.194.45-.438.244-.244.346-.347.438-.45a5.25 5.25 0 001.195-2.27H19.2c-.572 0-.957 0-1.252.025-.288.023-.425.065-.515.111a1.25 1.25 0 00-.547.547c-.046.09-.088.227-.111.514-.024.296-.025.68-.025 1.253v1.903z"/>
</svg>
