<svg xmlns="http://www.w3.org/2000/svg" width="24" height="24" fill="currentColor" viewBox="0 0 24 24">
  <path fill-rule="evenodd" d="M2.436 7.184C2 8.04 2 9.16 2 11.4v1.2c0 2.24 0 3.36.436 4.216a4 4 0 001.748 1.748C5.04 19 6.16 19 8.4 19h7.2c2.24 0 3.36 0 4.216-.436a4 4 0 001.748-1.748C22 15.96 22 14.84 22 12.6v-1.2c0-2.24 0-3.36-.436-4.216a4 4 0 00-1.748-1.748C18.96 5 17.84 5 15.6 5H8.4c-2.24 0-3.36 0-4.216.436a4 4 0 00-1.748 1.748zM10 10.99v2.02c0 .972 0 1.457.203 1.725a1 1 0 00.737.395c.335.02.74-.25 1.548-.788l1.515-1.01c.668-.446 1.002-.668 1.118-.949a1 1 0 000-.766c-.116-.28-.45-.503-1.118-.948l-1.515-1.01c-.808-.54-1.213-.809-1.548-.789a1 1 0 00-.737.395C10 9.533 10 10.018 10 10.99z" opacity=".12"/>
  <path fill-rule="evenodd" d="M8 2.75c-.997 0-1.842.648-2.138 1.546.671-.046 1.49-.046 2.505-.046H15.633c1.015 0 1.834 0 2.505.046A2.251 2.251 0 0016 2.75H8zm0-1.5a3.75 3.75 0 00-3.727 3.334c-.147.052-.29.113-.43.184a4.75 4.75 0 00-2.075 2.076c-.281.55-.403 1.154-.461 1.868-.057.697-.057 1.563-.057 2.655V12.633c0 .82 0 1.51.024 2.1.008.196.019.38.033.555.058.714.18 1.317.46 1.869a4.753 4.753 0 002.077 2.075 3.498 3.498 0 00.429.184A3.75 3.75 0 008 22.75h8a3.75 3.75 0 003.727-3.334c.147-.052.29-.113.43-.184a4.75 4.75 0 002.075-2.075c.281-.552.403-1.155.461-1.869.057-.697.057-1.563.057-2.655V11.367c0-1.092 0-1.958-.057-2.655-.058-.714-.18-1.317-.46-1.868a4.75 4.75 0 00-2.076-2.076 3.588 3.588 0 00-.43-.184A3.75 3.75 0 0016 1.25H8zM5.862 19.704A2.25 2.25 0 008 21.25h8c.997 0 1.842-.648 2.138-1.546-.671.046-1.49.046-2.505.046H8.367c-.956 0-1.738 0-2.386-.038l-.119-.008zM5.834 5.802c-.543.044-.905.124-1.191.247a3.25 3.25 0 00-1.539 1.476c-.155.304-.251.688-.302 1.309-.051.63-.052 1.434-.052 2.566v1.2c0 1.133 0 1.937.052 2.566.05.62.147 1.005.302 1.31a3.25 3.25 0 001.42 1.42c.305.155.69.251 1.31.302l.244.017c.591.035 1.331.035 2.322.035h7.2c1.133 0 1.937 0 2.566-.052.62-.05 1.005-.147 1.31-.302a3.25 3.25 0 001.42-1.42c.155-.305.251-.69.302-1.31.051-.63.052-1.434.052-2.566v-1.2c0-1.133 0-1.937-.052-2.566-.05-.62-.147-1.005-.302-1.31a3.25 3.25 0 00-1.42-1.42c-.305-.155-.69-.251-1.31-.302-.63-.051-1.433-.052-2.566-.052H8.4c-.99 0-1.73 0-2.322.035-.084.005-.165.01-.244.017zm7.07 3.232l-.03-.019c-.379-.253-.706-.47-.98-.62-.275-.148-.614-.296-.998-.273a1.75 1.75 0 00-1.292.69c-.232.308-.297.672-.326.983-.028.31-.028.704-.028 1.16V13.045c0 .456 0 .85.028 1.16.029.31.094.675.326.982.31.408.78.66 1.292.691.384.023.723-.125.998-.273.274-.15.601-.367.98-.62l.03-.02 1.515-1.01.027-.018c.31-.207.585-.39.794-.558.215-.173.444-.395.574-.709a1.75 1.75 0 000-1.34c-.13-.314-.359-.536-.574-.71-.209-.167-.483-.35-.794-.557l-.027-.018-1.516-1.01zm-2.094.672a.25.25 0 01.16-.086c.018.005.08.024.21.094.206.112.475.29.892.568l1.515 1.01c.346.231.562.377.71.496a.856.856 0 01.135.125c.02.056.02.118 0 .174a.856.856 0 01-.134.125c-.149.12-.365.265-.71.495l-1.516 1.01c-.417.278-.686.457-.893.569-.13.07-.191.089-.209.094a.25.25 0 01-.16-.086 1.044 1.044 0 01-.038-.226 13.333 13.333 0 01-.022-1.058v-2.02c0-.5 0-.824.022-1.058.014-.147.032-.209.038-.226z"/>
</svg>
