<svg xmlns="http://www.w3.org/2000/svg" width="24" height="24" fill="currentColor" viewBox="0 0 24 24">
  <path d="M4 10v12l.845-.422c3.51-1.756 5.266-2.634 7.155-2.634 1.889 0 3.644.878 7.155 2.634L20 22v-3.6L4.198 5.758C4 6.718 4 8.003 4 10z" opacity=".12"/>
  <path fill-rule="evenodd" d="M11.966 1.25h.068c1.371 0 2.447 0 3.311.07.88.073 1.607.221 2.265.557a5.75 5.75 0 012.513 2.513c.336.658.485 1.385.556 2.265.071.864.071 1.94.071 3.311V14a.75.75 0 01-1.5 0v-4c0-1.413 0-2.427-.066-3.223-.064-.787-.188-1.295-.397-1.706a4.25 4.25 0 00-1.857-1.858c-.412-.21-.92-.333-1.707-.397-.796-.065-1.81-.066-3.223-.066-1.412 0-2.427 0-3.223.066-.787.064-1.295.188-1.706.397a.75.75 0 11-.681-1.336c.658-.336 1.385-.484 2.265-.556.864-.071 1.94-.071 3.311-.071zM1.414 3.531a.75.75 0 011.055-.117l2.197 1.758 15.802 12.642 2 1.6a.75.75 0 01-.936 1.172l-.782-.625V22a.75.75 0 01-1.085.67l-.845-.422c-3.579-1.789-5.15-2.554-6.82-2.554s-3.241.765-6.82 2.555l-.845.422A.75.75 0 013.25 22V9.9c0-1.637 0-2.863.134-3.832L1.531 4.586a.75.75 0 01-.117-1.055zm3.374 3.66C4.751 7.908 4.75 8.81 4.75 10v10.787c3.295-1.648 5.192-2.593 7.25-2.593s3.956.945 7.25 2.593V18.76L4.788 7.19z"/>
</svg>
