<svg xmlns="http://www.w3.org/2000/svg" width="24" height="24" fill="currentColor" viewBox="0 0 24 24">
  <rect width="14" height="17" x="5" y="5" opacity=".12" rx="7"/>
  <path fill-rule="evenodd" d="M12 1.25A3.75 3.75 0 008.25 5v.216a7.787 7.787 0 00-3 2.973L3.936 6.876c-.544-.545-.726-.734-.854-.943a2.25 2.25 0 01-.27-.65c-.057-.24-.062-.502-.062-1.271V3a.75.75 0 00-1.5 0v1.097c0 .652 0 1.103.104 1.536.091.382.243.748.449 1.084.232.38.551.698 1.012 1.159l.06.06L4.47 9.53a.752.752 0 00.145.114A7.745 7.745 0 004.25 12v3c0 .223.01.443.028.662l-1.402 1.402-.06.06c-.462.46-.78.78-1.013 1.16a3.75 3.75 0 00-.45 1.083c-.103.433-.103.884-.103 1.536V22a.75.75 0 001.5 0v-1.012c0-.77.005-1.032.062-1.27.055-.23.146-.45.27-.651.128-.21.31-.398.854-.943l.7-.7a7.753 7.753 0 0014.727 0l.7.7c.545.545.727.734.855.943.124.201.215.42.27.65.057.24.062.502.062 1.271V22a.75.75 0 001.5 0v-1.097c0-.652 0-1.103-.104-1.536a3.751 3.751 0 00-.449-1.084c-.232-.38-.551-.698-1.012-1.159l-.06-.06-1.403-1.402c.019-.219.028-.44.028-.662v-3c0-.822-.128-1.613-.365-2.356a.753.753 0 00.145-.114l1.594-1.594.06-.06c.462-.46.78-.78 1.013-1.16.206-.335.358-.7.45-1.083.103-.433.103-.884.103-1.536V3a.75.75 0 00-1.5 0v1.012c0 .77-.005 1.032-.062 1.27-.055.23-.146.45-.27.651-.128.21-.31.398-.854.943L18.75 8.189a7.787 7.787 0 00-3-2.973V5A3.75 3.75 0 0012 1.25zm2.209 3.32a2.25 2.25 0 00-4.418 0c.7-.208 1.441-.32 2.209-.32.767 0 1.509.112 2.209.32zM12 5.75A6.25 6.25 0 005.75 12v3a6.25 6.25 0 005.53 6.209.75.75 0 01-.03-.209v-6a.75.75 0 011.5 0v6a.75.75 0 01-.03.209A6.25 6.25 0 0018.25 15v-3A6.25 6.25 0 0012 5.75z"/>
</svg>
