<svg xmlns="http://www.w3.org/2000/svg" width="24" height="24" fill="currentColor" viewBox="0 0 24 24">
  <path d="M18.2 2h-2.4c-1.68 0-2.52 0-3.162.327a3 3 0 00-1.311 1.311C11 4.28 11 5.12 11 6.8v1c0 1.12 0 1.68-.218 2.108a2 2 0 01-.874.874C9.48 11 8.92 11 7.8 11H4.2c-1.12 0-1.68 0-2.108.218a2 2 0 00-.874.874C1 12.52 1 13.08 1 14.2V16c0 .932 0 1.398.152 1.765a2 2 0 001.083 1.083C2.602 19 3.068 19 4 19a3 3 0 116 0h4a3 3 0 116 0 3 3 0 003-3V6.8c0-1.68 0-2.52-.327-3.162a3 3 0 00-1.311-1.311C20.72 2 19.88 2 18.2 2z" opacity=".12"/>
  <path fill-rule="evenodd" d="M15.8 1.25h-.032c-.813 0-1.469 0-2 .043-.546.045-1.026.14-1.47.366a3.75 3.75 0 00-1.64 1.639c-.226.444-.32.924-.365 1.47-.012.15-.02.311-.027.482H7.495c-1.198 0-1.969 0-2.675.225-.624.2-1.2.525-1.692.958-.557.49-.953 1.15-1.57 2.178l-.065.11-.224.373-.032.053c-.31.515-.508.847-.651 1.207-.127.318-.218.65-.274.987-.062.382-.062.769-.062 1.37V16.024c0 .445 0 .816.02 1.12.022.317.07.617.19.907a2.75 2.75 0 001.488 1.489c.29.12.59.167.907.188.142.01.298.015.47.018a3.751 3.751 0 007.35.003h2.65a3.751 3.751 0 007.362-.063A3.751 3.751 0 0023.75 16V6.768c0-.813 0-1.469-.043-2-.045-.546-.14-1.026-.366-1.47a3.75 3.75 0 00-1.639-1.64c-.444-.226-.924-.32-1.47-.365-.531-.043-1.187-.043-2-.043H15.8zm4.854 16.904A2.251 2.251 0 0022.25 16V6.8c0-.852 0-1.447-.038-1.91-.038-.453-.107-.714-.207-.911a2.25 2.25 0 00-.983-.984c-.198-.1-.459-.17-.913-.207-.462-.037-1.057-.038-1.909-.038h-2.4c-.853 0-1.447 0-1.91.038-.453.037-.714.107-.912.207a2.25 2.25 0 00-.983.984c-.1.197-.17.458-.207.912-.036.439-.038.996-.038 1.78V8.007c0 .456-.003.844-.03 1.168-.03.38-.098.736-.27 1.073a2.75 2.75 0 01-1.201 1.202c-.338.172-.694.24-1.074.27-.365.03-.81.03-1.345.03H1.771c-.02.213-.021.488-.021 1.023V16c0 .476 0 .796.017 1.043.017.241.046.358.078.435.127.307.37.55.677.677.077.032.194.061.435.078.107.007.228.011.369.014a3.751 3.751 0 017.349.003h2.65a3.751 3.751 0 017.33-.096zM10.25 6.75V7.894c0 .521-.002.88-.025 1.159-.023.287-.065.424-.111.514a1.25 1.25 0 01-.546.547c-.091.046-.228.088-.515.111-.296.024-.68.025-1.253.025H2.326c.064-.109.14-.235.23-.384l.223-.373c.705-1.175.98-1.618 1.34-1.934a3.25 3.25 0 011.157-.655c.456-.146.977-.154 2.348-.154h2.626zm-1 12.247a2.25 2.25 0 100 .003v-.003zM17 16.75a2.25 2.25 0 100 4.5 2.25 2.25 0 000-4.5z"/>
</svg>
