<svg xmlns="http://www.w3.org/2000/svg" width="24" height="24" fill="currentColor" viewBox="0 0 24 24">
  <path d="M20 13.852c0 10.864-16 10.864-16 0 0-4.928 4.064-8.853 6.399-10.7.453-.358.679-.538 1.072-.645a2.412 2.412 0 011.058 0c.393.107.619.286 1.072.645C15.935 4.999 20 8.924 20 13.852z" opacity=".12"/>
  <path fill-rule="evenodd" d="M12 3.198c-.155 0-.275.017-.331.032-.223.061-.335.138-.805.51-1.136.9-2.678 2.293-3.93 4.043C5.68 9.535 4.75 11.598 4.75 13.852c0 2.517.92 4.348 2.253 5.555C8.35 20.626 10.163 21.25 12 21.25c1.836 0 3.65-.624 4.997-1.843 1.333-1.207 2.253-3.038 2.253-5.555 0-2.254-.93-4.317-2.184-6.069-1.253-1.75-2.795-3.144-3.93-4.043-.47-.372-.583-.449-.805-.51A1.423 1.423 0 0012 3.198zm0-1.5c.231 0 .497.023.727.086.542.148.878.414 1.29.742l.049.038c1.199.948 2.856 2.441 4.22 4.346 1.362 1.904 2.464 4.268 2.464 6.942 0 2.915-1.08 5.158-2.747 6.667-1.653 1.497-3.84 2.231-6.003 2.231-2.164 0-4.35-.734-6.003-2.23-1.667-1.51-2.747-3.753-2.747-6.668 0-2.674 1.102-5.037 2.464-6.941 1.363-1.906 3.021-3.399 4.22-4.347l.048-.038c.413-.328.749-.594 1.29-.742.23-.063.496-.086.728-.086z"/>
</svg>
