<svg xmlns="http://www.w3.org/2000/svg" width="24" height="24" fill="currentColor" viewBox="0 0 24 24">
  <path d="M21.515 15.94L22 14h-3.287c-.627 0-.94 0-1.224.086a2.001 2.001 0 00-.689.369c-.229.188-.403.449-.75.97l-.1.15c-.347.521-.521.782-.75.97a2.001 2.001 0 01-.69.369c-.283.086-.596.086-1.223.086h-2.574c-.627 0-.94 0-1.224-.086a2 2 0 01-.689-.369c-.229-.189-.403-.449-.75-.97l-.1-.15c-.347-.521-.521-.782-.75-.97a2 2 0 00-.69-.369C6.228 14 5.915 14 5.288 14H2l.485 1.94c.542 2.167.812 3.25 1.416 4.057a5 5 0 002.066 1.613c.93.39 2.046.39 4.28.39h3.507c2.233 0 3.35 0 4.279-.39a5 5 0 002.065-1.613c.604-.807.875-1.89 1.417-4.057z" opacity=".12"/>
  <path fill-rule="evenodd" d="M11.47 1.47a.75.75 0 011.06 0l3 3a.75.75 0 01-1.06 1.06l-1.72-1.72V11a.75.75 0 01-1.5 0V3.81L9.53 5.53a.75.75 0 01-1.06-1.06l3-3zM7.5 7.25h1a.75.75 0 010 1.5h-.916c-.74 0-.995.004-1.216.053a2.25 2.25 0 00-1.261.78c-.143.175-.26.401-.592 1.063l-.254.51c-.268.534-.385.77-.482 1.003a7.25 7.25 0 00-.353 1.091h1.955c.534 0 .954 0 1.348.119.346.105.667.277.947.507.317.26.55.61.846 1.055l.052.078.1.15c.373.56.48.705.603.807.126.104.273.182.43.23.152.046.333.054 1.005.054h2.575c.673 0 .853-.008 1.006-.054.157-.048.303-.126.43-.23.123-.101.23-.247.603-.807l.1-.15.052-.078c.296-.445.529-.795.846-1.055.28-.23.601-.402.947-.507.393-.12.813-.12 1.348-.119h1.954a7.257 7.257 0 00-.353-1.09 16.443 16.443 0 00-.481-1.005l-.254-.508c-.331-.663-.449-.889-.592-1.064a2.25 2.25 0 00-1.26-.78c-.222-.049-.477-.053-1.217-.053H15.5a.75.75 0 010-1.5h1c.624 0 1.055 0 1.457.089a3.75 3.75 0 012.101 1.299c.26.32.452.704.73 1.263l.038.075.255.508.014.03c.25.498.392.783.512 1.072a8.75 8.75 0 01.533 4.856c-.055.308-.132.617-.267 1.158l-.008.031-.015.062c-.167.666-.269 1.074-.411 1.432a5.75 5.75 0 01-4.577 3.574c-.382.051-.802.051-1.49.051H8.628c-.687 0-1.107 0-1.489-.051a5.75 5.75 0 01-4.577-3.574c-.143-.358-.244-.766-.411-1.432l-.015-.062-.008-.031c-.135-.54-.213-.85-.267-1.158a8.75 8.75 0 01.533-4.856c.12-.29.263-.574.512-1.073l.014-.029.255-.508.037-.075c.28-.559.472-.944.73-1.264A3.75 3.75 0 016.044 7.34c.402-.09.833-.09 1.457-.089zm13.269 7.5h-2.057c-.672 0-.853.008-1.005.054a1.252 1.252 0 00-.43.23c-.124.101-.23.247-.603.807l-.1.15-.052.078c-.296.445-.529.795-.846 1.056-.28.23-.601.401-.947.506-.394.12-.814.12-1.348.119h-2.762c-.535 0-.955 0-1.348-.119a2.748 2.748 0 01-.947-.506c-.317-.261-.55-.611-.846-1.056l-.052-.078-.1-.15c-.373-.56-.48-.705-.603-.807a1.252 1.252 0 00-.43-.23c-.153-.046-.333-.054-1.006-.054H3.231c-.012.478.023.958.107 1.433.043.249.107.504.252 1.085.187.747.264 1.05.365 1.303a4.25 4.25 0 003.383 2.641c.27.036.582.038 1.352.038h6.62c.77 0 1.082-.002 1.352-.038a4.25 4.25 0 003.383-2.641c.1-.253.178-.556.365-1.303.145-.581.208-.836.252-1.085.083-.475.119-.955.107-1.433z"/>
</svg>
