<svg xmlns="http://www.w3.org/2000/svg" width="24" height="24" fill="currentColor" viewBox="0 0 24 24">
  <path d="M3 3h18v18H3z" opacity=".12"/>
  <path fill-rule="evenodd" d="M17 2.25a.75.75 0 000 1.5h2.19l-2.72 2.72-2 2a.75.75 0 001.06 1.06l2-2 2.72-2.72V7a.75.75 0 001.5 0V3a.75.75 0 00-.75-.75h-4zM9.53 15.53a.75.75 0 10-1.06-1.06l-2 2-2.72 2.72V17a.75.75 0 00-1.5 0v4c0 .414.336.75.75.75h4a.75.75 0 000-1.5H4.81l2.72-2.72 2-2zM3 2.25a.75.75 0 00-.75.75v4a.75.75 0 001.5 0V4.81l2.72 2.72 2 2a.75.75 0 001.06-1.06l-2-2-2.72-2.72H7a.75.75 0 000-1.5H3zm12.53 12.22a.75.75 0 10-1.06 1.06l2 2 2.72 2.72H17a.75.75 0 000 1.5h4a.75.75 0 00.75-.75v-4a.75.75 0 00-1.5 0v2.19l-2.72-2.72-2-2z"/>
</svg>
