<svg xmlns="http://www.w3.org/2000/svg" width="24" height="24" fill="currentColor" viewBox="0 0 24 24">
  <path d="M12 2a8 8 0 00-8 8c0 3.639 3.391 6.371 4.588 7.222A.96.96 0 019 18s1 .5 3 .5 3-.5 3-.5c0-.31.16-.597.415-.774C16.615 16.39 20 13.703 20 10a8 8 0 00-8-8z" opacity=".12"/>
  <path fill-rule="evenodd" d="M12 2.75A7.25 7.25 0 004.75 10c0 2.587 1.98 4.745 3.439 5.966.44.368.822.824 1.098 1.341a.744.744 0 01.043.02h1.92V14a.75.75 0 011.5 0v3.326h1.92a.727.727 0 01.055-.024c.28-.517.667-.971 1.109-1.337C17.287 14.762 19.25 12.63 19.25 10A7.25 7.25 0 0012 2.75zm-.75 14.576H9.33l.007.003.01.005a4.49 4.49 0 00.584.188c.315.079.755.16 1.319.202v-.398zm1.5.398v-.398h1.92a4.5 4.5 0 01-.602.196c-.314.079-.754.16-1.318.202zm-3 1.388l-.001-.092c.547.123 1.297.23 2.251.23s1.704-.107 2.252-.23c-.002.036-.002.071-.002.107 0 1.172-.95 2.123-2.123 2.123h-.24a2.138 2.138 0 01-2.137-2.138zM3.25 10a8.75 8.75 0 0117.5 0c0 3.35-2.45 5.871-3.96 7.12-.644.534-1.04 1.267-1.04 2.007a3.623 3.623 0 01-3.623 3.623h-.24a3.638 3.638 0 01-3.637-3.638c0-.736-.388-1.464-1.023-1.996C5.723 15.858 3.25 13.31 3.25 10z"/>
</svg>
