<svg xmlns="http://www.w3.org/2000/svg" width="24" height="24" fill="currentColor" viewBox="0 0 24 24">
  <rect width="20" height="20" x="2" y="2" opacity=".12" rx="6"/>
  <path fill-rule="evenodd" d="M2.75 7.5A4.75 4.75 0 017.5 2.75H8a.75.75 0 000-1.5h-.5A6.25 6.25 0 001.25 7.5V8a.75.75 0 001.5 0v-.5zM16 1.25a.75.75 0 000 1.5h.5a4.75 4.75 0 014.75 4.75V8a.75.75 0 001.5 0v-.5a6.25 6.25 0 00-6.25-6.25H16zM2.75 16a.75.75 0 00-1.5 0v.5a6.25 6.25 0 006.25 6.25H8a.75.75 0 000-1.5h-.5a4.75 4.75 0 01-4.75-4.75V16zm20 0a.75.75 0 00-1.5 0v.5a4.75 4.75 0 01-4.75 4.75H16a.75.75 0 000 1.5h.5a6.25 6.25 0 006.25-6.25V16zM2 11.25a.75.75 0 000 1.5h20a.75.75 0 100-1.5H2z"/>
</svg>
