<svg xmlns="http://www.w3.org/2000/svg" width="24" height="24" fill="currentColor" viewBox="0 0 24 24">
  <path fill-rule="evenodd" d="M2.545 4.73C2 5.8 2 7.2 2 10v4c0 2.8 0 4.2.545 5.27a5 5 0 002.185 2.185C5.8 22 7.2 22 10 22h4c2.8 0 4.2 0 5.27-.545a5 5 0 002.185-2.185C22 18.2 22 16.8 22 14v-4c0-2.8 0-4.2-.545-5.27a5 5 0 00-2.185-2.185C18.2 2 16.8 2 14 2h-4c-2.8 0-4.2 0-5.27.545A5 5 0 002.545 4.73zm6.15 6.806c.111-.342.408-.639 1.002-1.233l1.206-1.206c1.285-1.285 1.928-1.928 2.48-1.971a1.5 1.5 0 011.258.521c.359.42.359 1.33.359 3.147v2.412c0 1.817 0 2.726-.36 3.147a1.5 1.5 0 01-1.258.521c-.551-.043-1.194-.686-2.48-1.971l-1.205-1.206c-.594-.594-.891-.891-1.002-1.233a1.5 1.5 0 010-.928z" opacity=".12"/>
  <path fill-rule="evenodd" d="M10 1.25h-.034c-1.371 0-2.447 0-3.311.07-.88.073-1.607.221-2.265.557A5.75 5.75 0 001.877 4.39c-.336.658-.484 1.385-.556 2.265-.071.864-.071 1.94-.071 3.311v4.068c0 1.371 0 2.447.07 3.311.073.88.221 1.607.557 2.265a5.75 5.75 0 002.513 2.513c.658.336 1.385.485 2.265.556.864.071 1.94.071 3.311.071h4.068c1.371 0 2.447 0 3.311-.07.88-.072 1.607-.221 2.265-.557a5.75 5.75 0 002.513-2.513c.336-.658.485-1.385.556-2.265.071-.864.071-1.94.071-3.311V9.966c0-1.371 0-2.447-.07-3.311-.072-.88-.221-1.607-.557-2.265a5.75 5.75 0 00-2.513-2.513c-.658-.336-1.385-.484-2.265-.556-.864-.071-1.94-.071-3.311-.071H10zM5.07 3.213c.412-.21.92-.333 1.707-.397.796-.065 1.81-.066 3.223-.066h4c1.412 0 2.427 0 3.223.066.787.064 1.295.188 1.706.397a4.25 4.25 0 011.858 1.858c.21.411.333.919.397 1.706.065.796.066 1.81.066 3.223v4c0 1.412 0 2.427-.066 3.223-.064.787-.188 1.295-.397 1.707a4.25 4.25 0 01-1.858 1.857c-.411.21-.919.333-1.706.397-.796.065-1.81.066-3.223.066h-4c-1.413 0-2.427 0-3.223-.066-.787-.064-1.295-.188-1.706-.397a4.25 4.25 0 01-1.858-1.857c-.21-.412-.333-.92-.397-1.707-.065-.796-.066-1.81-.066-3.223v-4c0-1.413 0-2.427.066-3.223.064-.787.188-1.295.397-1.706a4.25 4.25 0 011.858-1.858zm8.371 4.66a.75.75 0 01.63.261c.014.018.094.139.137.63.041.465.042 1.107.042 2.03v2.412c0 .924 0 1.565-.042 2.03-.043.491-.123.612-.138.63a.75.75 0 01-.629.26c-.023-.001-.164-.03-.542-.347-.358-.3-.813-.753-1.466-1.406l-1.206-1.206a12.786 12.786 0 01-.64-.666c-.133-.156-.166-.23-.179-.27a.75.75 0 010-.463c.013-.04.046-.113.179-.269.138-.162.335-.36.64-.666l1.206-1.206c.653-.653 1.108-1.106 1.466-1.406.378-.316.519-.346.542-.347zm1.77-.713a2.25 2.25 0 00-1.888-.782c-.528.042-.984.356-1.387.693-.416.348-.917.85-1.536 1.469l-.027.027-1.206 1.206-.02.02c-.28.28-.521.52-.704.736-.192.226-.363.473-.462.776a2.25 2.25 0 000 1.39c.099.303.27.55.462.776.183.215.424.456.703.736l.02.02 1.207 1.206.027.027c.62.62 1.12 1.121 1.536 1.47.403.337.86.65 1.387.692a2.25 2.25 0 001.888-.782c.344-.403.445-.947.491-1.47.048-.54.048-1.25.048-2.126V10.756c0-.876 0-1.585-.048-2.125-.046-.524-.147-1.068-.491-1.47z"/>
</svg>
