<svg xmlns="http://www.w3.org/2000/svg" width="24" height="24" fill="currentColor" viewBox="0 0 24 24">
  <path d="M11.55 15h4.395c1.497 0 2.245 0 2.87-.211a4 4 0 002.285-1.983c.297-.588.403-1.329.615-2.81.082-.575.123-.862.064-1.092a1.2 1.2 0 00-.705-.813C20.854 8 20.564 8 19.984 8H5l.215 1.505c.278 1.948.418 2.923.888 3.655a4 4 0 001.704 1.478C8.598 15 9.583 15 11.55 15z" opacity=".12"/>
  <path fill-rule="evenodd" d="M1 .25h.5V1 .25c1.808 0 3.34 1.33 3.596 3.119L5.65 7.25h3.81l.734-2.205.048-.142c.347-1.042.586-1.761 1.044-2.309A3.75 3.75 0 0112.79 1.51c.664-.26 1.421-.26 2.52-.26H16.764c1.027 0 1.736 0 2.361.228a3.75 3.75 0 011.647 1.187c.415.521.638 1.193.963 2.168l.044.133.144.432.01.031c.18.54.284.85.364 1.165.225.893.309 1.817.246 2.737-.022.324-.068.646-.148 1.21l-.005.032-.015.105c-.133.935-.219 1.532-.416 2.041a4.75 4.75 0 01-3.352 2.908c-.532.123-1.136.123-2.08.123H11.52c-.959 0-1.721 0-2.34-.047-.636-.049-1.178-.15-1.686-.383a4.75 4.75 0 01-2.023-1.754c-.302-.47-.48-.993-.617-1.615-.135-.607-.243-1.361-.378-2.31l-.004-.03-.862-6.03a2.133 2.133 0 00-2.11-1.831H1a.75.75 0 110-1.5zm8.983 8.5h11.08c0 .16-.005.32-.016.48-.018.261-.056.526-.142 1.131-.154 1.075-.217 1.488-.345 1.816a3.25 3.25 0 01-2.293 1.989c-.343.08-.76.084-1.846.084h-4.87c-.996 0-1.7 0-2.256-.043-.547-.042-.893-.121-1.177-.251a3.25 3.25 0 01-1.384-1.2c-.169-.263-.296-.595-.415-1.13-.12-.544-.22-1.241-.362-2.227l-.092-.649h4.118zm10.926-1.5H11.04l.576-1.73c.414-1.242.568-1.663.82-1.963a2.25 2.25 0 01.902-.65c.365-.144.813-.157 2.12-.157h1.165c1.223 0 1.642.011 1.986.137.389.142.73.388.988.712.228.286.371.68.758 1.84l.144.434c.194.58.278.834.342 1.088.024.096.047.192.067.289zM7.75 20a1.25 1.25 0 112.5 0 1.25 1.25 0 01-2.5 0zM9 17.25a2.75 2.75 0 100 5.5 2.75 2.75 0 000-5.5zM17.75 20a1.25 1.25 0 112.5 0 1.25 1.25 0 01-2.5 0zM19 17.25a2.75 2.75 0 100 5.5 2.75 2.75 0 000-5.5z"/>
</svg>
