<svg xmlns="http://www.w3.org/2000/svg" width="24" height="24" fill="currentColor" viewBox="0 0 24 24">
  <path d="M3 3h18v18H3z" opacity=".12"/>
  <path fill-rule="evenodd" d="M2 2.25a.75.75 0 000 1.5h20a.75.75 0 000-1.5H2zM22 9a1 1 0 11-2 0 1 1 0 012 0zm-1 5a1 1 0 100-2 1 1 0 000 2zm1 3a1 1 0 11-2 0 1 1 0 012 0zM3 22a1 1 0 100-2 1 1 0 000 2zm6-1a1 1 0 11-2 0 1 1 0 012 0zm3 1a1 1 0 100-2 1 1 0 000 2zm5-1a1 1 0 11-2 0 1 1 0 012 0zm5 0a1 1 0 11-2 0 1 1 0 012 0zm-10-3a1 1 0 100-2 1 1 0 000 2zm-8-1a1 1 0 11-2 0 1 1 0 012 0zm13-4a1 1 0 11-2 0 1 1 0 012 0zm-5 1a1 1 0 100-2 1 1 0 000 2zm-3-1a1 1 0 11-2 0 1 1 0 012 0zm-6 1a1 1 0 100-2 1 1 0 000 2zm9-4a1 1 0 100-2 1 1 0 000 2zM4 9a1 1 0 11-2 0 1 1 0 012 0z"/>
</svg>
