<svg xmlns="http://www.w3.org/2000/svg" width="24" height="24" fill="currentColor" viewBox="0 0 24 24">
  <path fill-rule="evenodd" d="M2 11.6c0-3.36 0-5.04.654-6.324a6 6 0 012.622-2.622C6.56 2 8.24 2 11.6 2h.8c3.36 0 5.04 0 6.324.654a6 6 0 012.622 2.622C22 6.56 22 8.24 22 11.6v.8c0 3.36 0 5.04-.654 6.324a6 6 0 01-2.622 2.622C17.44 22 15.76 22 12.4 22h-.8c-3.36 0-5.04 0-6.324-.654a6 6 0 01-2.622-2.622C2 17.44 2 15.76 2 12.4v-.8zm14 4.067A2.667 2.667 0 0013.333 13h-2.666A2.667 2.667 0 008 15.667C8 16.403 8.597 17 9.333 17h5.334c.736 0 1.333-.597 1.333-1.333zM12 10a2 2 0 100-4 2 2 0 000 4z" opacity=".12"/>
  <path fill-rule="evenodd" d="M11.566 1.25H12.434c1.651 0 2.937 0 3.968.084 1.047.086 1.897.262 2.662.652a6.75 6.75 0 012.95 2.95c.39.765.566 1.615.652 2.662.084 1.031.084 2.317.084 3.968V12.434c0 1.651 0 2.937-.084 3.968-.086 1.047-.262 1.897-.652 2.662a6.75 6.75 0 01-2.95 2.95c-.765.39-1.615.566-2.662.652-1.031.084-2.317.084-3.968.084H11.566c-1.651 0-2.937 0-3.968-.084-1.047-.086-1.897-.262-2.662-.652a6.75 6.75 0 01-2.95-2.95c-.39-.765-.566-1.615-.652-2.662-.084-1.031-.084-2.317-.084-3.968V11.566c0-1.651 0-2.937.084-3.968.086-1.047.262-1.897.652-2.662a6.75 6.75 0 012.95-2.95c.765-.39 1.615-.566 2.662-.652 1.031-.084 2.317-.084 3.968-.084zM7.72 2.83c-.954.077-1.585.228-2.103.492a5.25 5.25 0 00-2.295 2.295c-.264.518-.415 1.15-.493 2.103-.078.963-.079 2.187-.079 3.88v.8c0 1.692 0 2.917.08 3.88.077.954.228 1.585.492 2.103a5.25 5.25 0 002.295 2.295c.518.264 1.15.415 2.103.493.963.078 2.187.079 3.88.079h.8c1.692 0 2.917 0 3.88-.08.954-.077 1.585-.228 2.103-.492a5.25 5.25 0 002.295-2.295c.264-.518.415-1.15.493-2.103.078-.963.079-2.188.079-3.88v-.8c0-1.693 0-2.917-.08-3.88-.077-.954-.228-1.585-.492-2.103a5.25 5.25 0 00-2.295-2.295c-.518-.264-1.15-.415-2.103-.493-.963-.078-2.188-.079-3.88-.079h-.8c-1.693 0-2.917 0-3.88.08zm2.947 10.92a1.917 1.917 0 00-1.917 1.917c0 .322.261.583.583.583h5.334a.583.583 0 00.583-.583 1.917 1.917 0 00-1.917-1.917h-2.666zM7.25 15.667a3.417 3.417 0 013.417-3.417h2.666a3.417 3.417 0 013.417 3.417c0 1.15-.933 2.083-2.083 2.083H9.333a2.083 2.083 0 01-2.083-2.083zM10.75 8a1.25 1.25 0 112.5 0 1.25 1.25 0 01-2.5 0zM12 5.25a2.75 2.75 0 100 5.5 2.75 2.75 0 000-5.5z"/>
</svg>
