<svg xmlns="http://www.w3.org/2000/svg" width="24" height="24" fill="currentColor" viewBox="0 0 24 24">
  <path d="M2 4h19v16H2z" opacity=".1"/>
  <path fill-rule="evenodd" d="M19.53.47a.75.75 0 10-1.06 1.06l1.72 1.72h-4.605c-1.181 0-1.996-.001-2.695.293a3.75 3.75 0 00-1.55 1.21c-.454.606-.651 1.397-.937 2.543l-.04.158-2.182 8.728c-.342 1.368-.473 1.833-.722 2.167-.24.32-.561.57-.93.725-.384.162-.867.176-2.277.176H2a.75.75 0 000 1.5H4.415c1.181 0 1.996.001 2.695-.293a3.75 3.75 0 001.55-1.21c.454-.606.651-1.397.937-2.543l.04-.158 2.182-8.728c.341-1.368.473-1.833.722-2.167.24-.32.561-.57.93-.725.384-.162.867-.176 2.277-.176h4.441l-1.72 1.72a.75.75 0 001.061 1.06l3-3a.75.75 0 000-1.06l-3-3zm0 23.06a.75.75 0 11-1.06-1.06l1.72-1.72H12a.75.75 0 010-1.5h8.19l-1.72-1.72a.75.75 0 111.06-1.06l3 3a.75.75 0 010 1.06l-3 3zM2 4.75a.75.75 0 010-1.5h6a.75.75 0 010 1.5H2z"/>
</svg>
