<svg xmlns="http://www.w3.org/2000/svg" width="24" height="24" fill="currentColor" viewBox="0 0 24 24">
  <path d="M12.4 2H11c-2.796 0-4.193 0-5.296.457a6 6 0 00-3.247 3.247C2 6.807 2 8.204 2 11c6.075 0 11 4.925 11 11 2.796 0 4.194 0 5.296-.457a6 6 0 003.247-3.247C22 17.194 22 15.796 22 13v-1.4c0-3.36 0-5.04-.654-6.324a6 6 0 00-2.622-2.622C17.44 2 15.76 2 12.4 2z" opacity=".12"/>
  <path fill-rule="evenodd" d="M10 1.25h-.034c-1.371 0-2.447 0-3.311.07-.88.073-1.607.221-2.265.557A5.75 5.75 0 001.877 4.39c-.336.658-.484 1.385-.556 2.265-.071.864-.071 1.94-.071 3.311v.534a.75.75 0 001.5 0V10c0-1.413 0-2.427.066-3.223.064-.787.188-1.295.397-1.706a4.25 4.25 0 011.858-1.858c.411-.21.919-.333 1.706-.397.796-.065 1.81-.066 3.223-.066h4c1.412 0 2.427 0 3.223.066.787.064 1.295.188 1.707.397a4.25 4.25 0 011.857 1.858c.21.411.333.919.397 1.706.065.796.066 1.81.066 3.223v4c0 1.412 0 2.427-.066 3.223-.064.787-.188 1.295-.397 1.707a4.251 4.251 0 01-1.857 1.857c-.412.21-.92.333-1.707.397-.796.065-1.81.066-3.223.066h-.5a.75.75 0 000 1.5h.534c1.371 0 2.447 0 3.311-.07.88-.072 1.607-.221 2.265-.557a5.75 5.75 0 002.513-2.513c.336-.658.485-1.385.556-2.265.071-.864.071-1.94.071-3.311V9.966c0-1.371 0-2.447-.07-3.311-.072-.88-.221-1.607-.557-2.265a5.75 5.75 0 00-2.513-2.513c-.658-.336-1.385-.484-2.265-.556-.864-.071-1.94-.071-3.311-.071H10zM2 23a1 1 0 100-2 1 1 0 000 2zm-.75-9a.75.75 0 01.75-.75c4.767 0 8.75 4.03 8.75 8.75a.75.75 0 01-1.5 0c0-3.896-3.316-7.25-7.25-7.25a.75.75 0 01-.75-.75zM2 17.25a.75.75 0 000 1.5c1.758 0 3.25 1.508 3.25 3.25a.75.75 0 001.5 0c0-2.566-2.158-4.75-4.75-4.75z"/>
</svg>
