<svg xmlns="http://www.w3.org/2000/svg" width="24" height="24" fill="currentColor" viewBox="0 0 24 24">
  <rect width="20" height="20" x="2" y="2" opacity=".12" rx="5"/>
  <path fill-rule="evenodd" d="M10 1.25h-.034c-1.371 0-2.447 0-3.311.07-.88.073-1.607.221-2.265.557A5.75 5.75 0 001.877 4.39c-.336.658-.484 1.385-.556 2.265-.071.864-.071 1.94-.071 3.311v4.068c0 1.371 0 2.447.07 3.311.073.88.221 1.607.557 2.265a5.75 5.75 0 002.513 2.513c.658.336 1.385.485 2.265.556.864.071 1.94.071 3.311.071h4.068c1.371 0 2.447 0 3.311-.07.88-.072 1.607-.221 2.265-.557a5.75 5.75 0 002.513-2.513c.336-.658.485-1.385.556-2.265.071-.864.071-1.94.071-3.311V9.966c0-1.371 0-2.447-.07-3.311-.072-.88-.221-1.607-.557-2.265a5.75 5.75 0 00-2.513-2.513c-.658-.336-1.385-.484-2.265-.556-.864-.071-1.94-.071-3.311-.071H10zM5.07 3.213c.412-.21.92-.333 1.707-.397.796-.065 1.81-.066 3.223-.066h4c1.412 0 2.427 0 3.223.066.787.064 1.295.188 1.707.397a4.25 4.25 0 011.857 1.858c.21.411.333.919.397 1.706.065.796.066 1.81.066 3.223v4c0 1.412 0 2.427-.066 3.223-.064.787-.188 1.295-.397 1.707a4.25 4.25 0 01-1.857 1.857c-.412.21-.92.333-1.707.397-.796.065-1.81.066-3.223.066h-4c-1.413 0-2.427 0-3.223-.066-.787-.064-1.295-.188-1.706-.397a4.25 4.25 0 01-1.858-1.857c-.21-.412-.333-.92-.397-1.707-.065-.796-.066-1.81-.066-3.223v-4c0-1.412 0-2.427.066-3.223.064-.787.188-1.295.397-1.706a4.25 4.25 0 011.858-1.858zM6 17.25a.75.75 0 000 1.5h12a.75.75 0 000-1.5H6zM13.25 10a.75.75 0 01.75-.75h4a.75.75 0 010 1.5h-4a.75.75 0 01-.75-.75zM14 5.25a.75.75 0 000 1.5h4a.75.75 0 000-1.5h-4zM5.25 14a.75.75 0 01.75-.75h12a.75.75 0 010 1.5H6a.75.75 0 01-.75-.75zm2.51-8.75h-.027c-.285 0-.542 0-.757.017-.23.02-.475.062-.716.185a1.85 1.85 0 00-.808.808 1.877 1.877 0 00-.185.716 9.922 9.922 0 00-.017.757v.534c0 .285 0 .542.017.757.02.23.062.475.185.716.177.348.46.631.808.808.241.123.487.166.716.184.215.018.472.018.757.018h.534c.285 0 .542 0 .757-.018.23-.018.475-.06.716-.184a1.85 1.85 0 00.808-.808c.123-.241.166-.487.184-.716.018-.215.018-.472.018-.757v-.534c0-.285 0-.542-.018-.757a1.878 1.878 0 00-.184-.716 1.85 1.85 0 00-.808-.808 1.877 1.877 0 00-.716-.185 9.922 9.922 0 00-.757-.017H7.76zm-.819 1.538a.583.583 0 01.158-.026c.145-.011.34-.012.661-.012h.48c.32 0 .516 0 .661.013a.583.583 0 01.158.025.35.35 0 01.153.153.583.583 0 01.026.158c.011.145.012.34.012.661v.48c0 .32 0 .516-.012.661a.583.583 0 01-.026.158.35.35 0 01-.153.153.583.583 0 01-.158.026 9.214 9.214 0 01-.661.012h-.48c-.32 0-.516 0-.661-.012a.583.583 0 01-.158-.026.35.35 0 01-.153-.153.583.583 0 01-.026-.158 9.214 9.214 0 01-.012-.661v-.48c0-.32 0-.516.013-.661a.583.583 0 01.025-.158.35.35 0 01.153-.153z"/>
</svg>
