<svg xmlns="http://www.w3.org/2000/svg" width="24" height="24" fill="currentColor" viewBox="0 0 24 24">
  <path fill-rule="evenodd" d="M14 11a2 2 0 100-4 2 2 0 000 4zm0 6l-2.237-2.237c-.792-.792-1.188-1.188-1.645-1.337a2 2 0 00-1.236 0c-.457.149-.853.545-1.645 1.337L4 18a9.985 9.985 0 008 4 9.954 9.954 0 005.411-1.589 10.054 10.054 0 003-3l-1.148-1.148c-.792-.792-1.188-1.188-1.645-1.337a2 2 0 00-1.236 0c-.457.149-.853.545-1.645 1.337L14 17z" opacity=".12"/>
  <path fill-rule="evenodd" d="M12 2.75a9.25 9.25 0 00-7.89 14.08l.36-.36 2.237-2.238.021-.021c.378-.378.693-.693.972-.93.29-.246.59-.451.95-.568a2.75 2.75 0 011.7 0c.36.117.66.322.95.568.279.237.594.552.972.93l.021.021L14 15.94l.207-.207.021-.021c.378-.378.693-.693.972-.93.29-.246.59-.451.95-.568a2.75 2.75 0 011.7 0c.36.117.66.322.95.568.278.237.594.552.971.93l.022.021.456.457A9.21 9.21 0 0021.25 12 9.25 9.25 0 0012 2.75zm0 18.5a9.228 9.228 0 01-6.994-3.196.815.815 0 00.024-.024l.5-.5 2.238-2.237c.404-.405.676-.676.903-.868.22-.187.346-.254.443-.285a1.25 1.25 0 01.772 0c.097.031.224.098.443.285.227.192.499.463.903.868l2.238 2.237 2.719 2.72a9.21 9.21 0 01-4.189 1zm7.439-3.75a9.305 9.305 0 01-1.94 1.939L15.061 17l.207-.207c.404-.405.676-.676.903-.868.22-.187.346-.254.443-.285a1.25 1.25 0 01.772 0c.097.031.224.098.443.285.226.192.499.463.903.868l.707.706zM1.25 12C1.25 6.063 6.063 1.25 12 1.25S22.75 6.063 22.75 12 17.937 22.75 12 22.75 1.25 17.937 1.25 12zm11.5-3a1.25 1.25 0 112.5 0 1.25 1.25 0 01-2.5 0zM14 6.25a2.75 2.75 0 100 5.5 2.75 2.75 0 000-5.5z"/>
</svg>
