<svg xmlns="http://www.w3.org/2000/svg" width="24" height="24" fill="currentColor" viewBox="0 0 24 24">
  <circle cx="17" cy="19" r="2" opacity=".12"/>
  <path fill-rule="evenodd" d="M1.25 4A.75.75 0 012 3.25h18a.75.75 0 010 1.5H2A.75.75 0 011.25 4zm18.166 6.376A.75.75 0 0018.25 11v5.55a2.75 2.75 0 101.5 2.45v-6.599l1.834 1.223a.75.75 0 10.832-1.248l-3-2zM18.25 19a1.25 1.25 0 10-2.5 0 1.25 1.25 0 002.5 0zM2 8.25a.75.75 0 000 1.5h14a.75.75 0 000-1.5H2zM1.25 14a.75.75 0 01.75-.75h10a.75.75 0 010 1.5H2a.75.75 0 01-.75-.75zM2 18.25a.75.75 0 000 1.5h7a.75.75 0 000-1.5H2z"/>
</svg>
