<svg xmlns="http://www.w3.org/2000/svg" width="24" height="24" fill="currentColor" viewBox="0 0 24 24">
  <path d="M12 3c-4.253 0-7.7 3.552-7.7 7.933l.001.143C2.403 11.579 1 13.354 1 15.466 1 17.97 2.97 20 5.4 20h12.1c3.038 0 5.5-2.537 5.5-5.667 0-2.41-1.46-4.469-3.52-5.288C18.659 5.575 15.622 3 12 3z" opacity=".12"/>
  <path fill-rule="evenodd" d="M12 3.75c-3.817 0-6.95 3.195-6.95 7.183l.001.13a.75.75 0 01-.558.738c-1.564.414-2.743 1.888-2.743 3.666 0 2.11 1.655 3.783 3.65 3.783h12.1c2.602 0 4.75-2.18 4.75-4.917 0-2.103-1.274-3.886-3.047-4.59a.75.75 0 01-.452-.525C18.003 6.064 15.25 3.75 12 3.75zm-8.441 6.781C3.763 5.941 7.445 2.25 12 2.25c3.86 0 7.095 2.653 8.114 6.254 2.154 1.019 3.636 3.252 3.636 5.83 0 3.522-2.777 6.416-6.25 6.416H5.4c-2.865 0-5.15-2.387-5.15-5.283 0-2.242 1.364-4.173 3.309-4.936z"/>
</svg>
