<svg xmlns="http://www.w3.org/2000/svg" width="24" height="24" fill="currentColor" viewBox="0 0 24 24">
  <path d="M13.656 17.41c2.397 1.498 3.595 2.247 4.584 2.168a3 3 0 002.168-1.202c.592-.797.592-2.21.592-5.036v-2.68c0-2.826 0-4.24-.592-5.036a3 3 0 00-2.168-1.202c-.989-.08-2.187.67-4.584 2.168l-2.143 1.34c-2.16 1.35-3.24 2.024-3.61 2.888a3 3 0 000 2.364c.37.864 1.45 1.539 3.61 2.888l2.143 1.34z" opacity=".12"/>
  <path fill-rule="evenodd" d="M14.053 7.226c1.212-.757 2.076-1.296 2.76-1.642.69-.348 1.084-.437 1.367-.414a2.25 2.25 0 011.626.901c.17.228.303.609.373 1.379.07.763.071 1.782.071 3.21v2.68c0 1.428 0 2.447-.07 3.21-.071.77-.204 1.151-.374 1.379-.387.52-.98.85-1.626.901-.283.023-.676-.066-1.366-.414-.685-.346-1.55-.885-2.76-1.642l-2.144-1.34c-1.092-.682-1.867-1.167-2.42-1.587-.552-.42-.79-.709-.898-.96a2.25 2.25 0 010-1.773c.108-.252.346-.54.899-.96.552-.42 1.327-.906 2.42-1.588l2.143-1.34zM18.3 3.675c-.706-.057-1.406.189-2.162.57-.753.38-1.676.957-2.846 1.688l-.034.021-2.143 1.34-.033.02c-1.052.658-1.885 1.179-2.499 1.645-.62.47-1.107.952-1.37 1.564a3.75 3.75 0 000 2.954c.263.612.75 1.093 1.37 1.564.614.466 1.447.988 2.5 1.645l.032.02 2.143 1.34.034.021c1.17.731 2.093 1.308 2.846 1.688.756.381 1.456.627 2.162.57a3.75 3.75 0 002.71-1.502c.423-.568.586-1.293.663-2.135.077-.84.077-1.929.077-3.308V10.62c0-1.379 0-2.467-.077-3.307-.077-.843-.24-1.567-.662-2.136a3.75 3.75 0 00-2.71-1.502zM3.75 5a.75.75 0 10-1.5 0v14a.75.75 0 001.5 0V5z"/>
</svg>
