<svg xmlns="http://www.w3.org/2000/svg" width="24" height="24" fill="currentColor" viewBox="0 0 24 24">
  <path fill-rule="evenodd" d="M2.152 14.235C2 14.602 2 15.068 2 16v3c0 .932 0 1.398.152 1.765a2 2 0 001.083 1.083C3.602 22 4.068 22 5 22c.932 0 1.398 0 1.765-.152a2 2 0 001.083-1.083C8 20.398 8 19.932 8 19v-3c0-.932 0-1.398-.152-1.765a2 2 0 00-1.083-1.083C6.398 13 5.932 13 5 13c-.932 0-1.398 0-1.765.152a2 2 0 00-1.083 1.083zm14 0C16 14.602 16 15.068 16 16v3c0 .932 0 1.398.152 1.765a2 2 0 001.083 1.083C17.602 22 18.068 22 19 22c.932 0 1.398 0 1.765-.152a2 2 0 001.083-1.083C22 20.398 22 19.932 22 19v-3c0-.932 0-1.398-.152-1.765a2 2 0 00-1.083-1.083C20.398 13 19.932 13 19 13c-.932 0-1.398 0-1.765.152a2 2 0 00-1.083 1.083z" opacity=".12"/>
  <path fill-rule="evenodd" d="M12 1.25A7.75 7.75 0 004.25 9v3.255a8.433 8.433 0 00-.395.016 2.822 2.822 0 00-.907.188 2.75 2.75 0 00-1.489 1.489c-.12.29-.167.59-.188.907-.021.304-.021.675-.021 1.12v3.05c0 .445 0 .816.02 1.12.022.317.07.617.19.907a2.75 2.75 0 001.488 1.489c.29.12.59.167.907.188.304.021.675.021 1.12.021h.05c.445 0 .816 0 1.12-.02.317-.022.617-.069.907-.19a2.75 2.75 0 001.489-1.488c.12-.29.167-.59.188-.907.021-.304.021-.675.021-1.12v-3.05c0-.445 0-.816-.02-1.12a2.823 2.823 0 00-.19-.907 2.75 2.75 0 00-1.488-1.489c-.29-.12-.59-.167-.907-.188a8.434 8.434 0 00-.395-.017V9a6.25 6.25 0 1112.5 0v3.255a8.439 8.439 0 00-.395.016 2.822 2.822 0 00-.907.188 2.75 2.75 0 00-1.489 1.489c-.12.29-.167.59-.188.907-.021.304-.021.675-.021 1.12v3.05c0 .445 0 .816.02 1.12.022.317.069.617.19.907a2.75 2.75 0 001.488 1.489c.29.12.59.167.907.188.304.021.675.021 1.12.021h.05c.445 0 .816 0 1.12-.02.317-.022.617-.069.907-.19a2.75 2.75 0 001.489-1.488c.12-.29.167-.59.188-.907.021-.304.021-.675.021-1.12v-3.05c0-.445 0-.816-.02-1.12a2.822 2.822 0 00-.19-.907 2.75 2.75 0 00-1.488-1.489c-.29-.12-.59-.167-.907-.188a8.439 8.439 0 00-.395-.017V9A7.75 7.75 0 0012 1.25zm7 12.5c-.476 0-.796 0-1.043.017-.241.017-.358.046-.435.078a1.25 1.25 0 00-.677.677c-.032.077-.061.194-.078.435-.017.247-.017.567-.017 1.043v3c0 .476 0 .796.017 1.043.017.241.046.358.078.435.127.307.37.55.677.677.077.032.194.061.435.078.247.017.567.017 1.043.017s.796 0 1.043-.017c.241-.017.358-.046.435-.078.307-.127.55-.37.677-.677.032-.077.061-.194.078-.435.017-.247.017-.567.017-1.043v-3c0-.476 0-.796-.017-1.043-.017-.241-.046-.358-.078-.435a1.25 1.25 0 00-.677-.677c-.077-.032-.194-.061-.435-.078A17.073 17.073 0 0019 13.75zm-14 0c-.476 0-.796 0-1.043.017-.241.017-.358.046-.435.078a1.25 1.25 0 00-.677.677c-.032.077-.061.194-.078.435-.017.247-.017.567-.017 1.043v3c0 .476 0 .796.017 1.043.017.241.046.358.078.435.127.307.37.55.677.677.077.032.194.061.435.078.247.017.567.017 1.043.017s.796 0 1.043-.017c.241-.017.358-.046.435-.078.307-.127.55-.37.677-.677.032-.077.061-.194.078-.435.017-.247.017-.567.017-1.043v-3c0-.476 0-.796-.017-1.043-.017-.241-.046-.358-.078-.435a1.25 1.25 0 00-.677-.677c-.077-.032-.194-.061-.435-.078A17.07 17.07 0 005 13.75z"/>
</svg>
