<svg xmlns="http://www.w3.org/2000/svg" width="24" height="24" fill="currentColor" viewBox="0 0 24 24">
  <path fill-rule="evenodd" d="M2.436 4.184C2 5.04 2 6.16 2 8.4v7.2c0 2.24 0 3.36.436 4.216a4 4 0 001.748 1.748C5.04 22 6.16 22 8.4 22h1.2c2.24 0 3.36 0 4.216-.436a4 4 0 001.748-1.748C16 18.96 16 17.84 16 15.6V8.4c0-2.24 0-3.36-.436-4.216a4 4 0 00-1.748-1.748C12.96 2 11.84 2 9.6 2H8.4c-2.24 0-3.36 0-4.216.436a4 4 0 00-1.748 1.748zM8 17a2 2 0 100-4 2 2 0 000 4z" opacity=".12"/>
  <path fill-rule="evenodd" d="M8.367 1.25H9.633c1.092 0 1.958 0 2.655.057.714.058 1.317.18 1.868.46a4.75 4.75 0 012.076 2.077c.281.55.403 1.154.461 1.868.057.697.057 1.563.057 2.655V15.633c0 1.092 0 1.958-.057 2.655-.058.714-.18 1.317-.46 1.869a4.75 4.75 0 01-2.077 2.075c-.55.281-1.154.403-1.868.461-.697.057-1.563.057-2.655.057H8.367c-1.092 0-1.958 0-2.655-.057-.714-.058-1.317-.18-1.868-.46a4.75 4.75 0 01-2.076-2.076c-.281-.552-.403-1.155-.461-1.869-.057-.697-.057-1.563-.057-2.655V8.367c0-1.092 0-1.958.057-2.655.058-.714.18-1.317.46-1.868a4.75 4.75 0 012.077-2.076c.55-.281 1.154-.403 1.868-.461.697-.057 1.563-.057 2.655-.057zM5.834 2.802c-.62.05-1.005.147-1.31.302a3.25 3.25 0 00-1.42 1.42c-.155.305-.251.69-.302 1.31-.051.63-.052 1.434-.052 2.566v7.2c0 1.133 0 1.937.052 2.566.05.62.147 1.005.302 1.31a3.25 3.25 0 001.42 1.42c.305.155.69.251 1.31.302.63.051 1.434.052 2.566.052h1.2c1.133 0 1.937 0 2.566-.052.62-.05 1.005-.147 1.31-.302a3.25 3.25 0 001.42-1.42c.155-.305.251-.69.302-1.31.051-.63.052-1.433.052-2.566V8.4c0-1.132 0-1.937-.052-2.566-.05-.62-.147-1.005-.302-1.31a3.25 3.25 0 00-1.42-1.42c-.305-.155-.69-.251-1.31-.302-.63-.051-1.434-.052-2.566-.052H8.4c-1.132 0-1.937 0-2.566.052zM19 5.25a.75.75 0 01.75.75v12a.75.75 0 01-1.5 0V6a.75.75 0 01.75-.75zM22.75 8a.75.75 0 00-1.5 0v8a.75.75 0 001.5 0V8zM8 13.75a1.25 1.25 0 100 2.5 1.25 1.25 0 000-2.5zm1.25-1.2a2.75 2.75 0 101.5 2.45V8.401l1.834 1.223a.75.75 0 10.832-1.248l-3-2A.75.75 0 009.25 7v5.55z"/>
</svg>
