<svg xmlns="http://www.w3.org/2000/svg" width="24" height="24" fill="currentColor" viewBox="0 0 24 24">
  <path d="M4 10.896c0-1.072 0-1.609.108-2.12a5 5 0 01.471-1.302c.245-.463.588-.875 1.275-1.699l.9-1.08c.731-.878 1.097-1.317 1.53-1.652a5 5 0 011.975-.924C10.794 2 11.365 2 12.509 2c2.321 0 3.482 0 4.398.378a5 5 0 012.715 2.715C20 6.009 20 7.17 20 9.491v4.51c0 2.8 0 4.2-.545 5.27a5 5 0 01-2.185 2.184C16.2 22 14.8 22 12 22c-2.8 0-4.2 0-5.27-.545a5 5 0 01-2.185-2.185C4 18.2 4 16.8 4 14v-3.104z" opacity=".12"/>
  <path fill-rule="evenodd" d="M12.508 1.25h-.093c-1.054 0-1.702 0-2.318.137a5.75 5.75 0 00-2.27 1.063c-.5.386-.915.884-1.59 1.694l-.06.071-.9 1.08-.055.066c-.634.761-1.024 1.23-1.306 1.762a5.75 5.75 0 00-.542 1.498c-.124.589-.124 1.199-.124 2.19v3.223c0 1.371 0 2.447.07 3.311.072.88.221 1.607.556 2.266a5.75 5.75 0 002.513 2.512c.658.336 1.386.485 2.266.556.864.071 1.94.071 3.311.071h.067c1.372 0 2.447 0 3.312-.07.88-.072 1.607-.221 2.265-.557a5.75 5.75 0 002.513-2.512c.335-.659.484-1.386.556-2.266.07-.864.07-1.94.07-3.311v-4.57c0-1.138 0-2.03-.048-2.75-.05-.733-.153-1.343-.386-1.907a5.75 5.75 0 00-3.122-3.122c-.564-.233-1.175-.336-1.907-.386-.72-.049-1.612-.049-2.75-.049h-.027zm-2.087 1.601c.436-.097.91-.1 2.088-.1 1.17 0 2.011 0 2.675.045.657.044 1.085.13 1.437.275a4.25 4.25 0 012.308 2.308c.145.352.23.78.275 1.437.045.664.046 1.504.046 2.675v4.51c0 1.412 0 2.426-.066 3.222-.064.787-.188 1.295-.398 1.707a4.25 4.25 0 01-1.857 1.857c-.411.21-.919.333-1.706.398-.796.065-1.81.065-3.223.065-1.413 0-2.427 0-3.223-.066-.788-.064-1.295-.188-1.707-.397a4.25 4.25 0 01-1.857-1.857c-.21-.412-.333-.92-.398-1.707-.065-.796-.065-1.81-.065-3.223v-3.104c0-1.103.004-1.548.092-1.965a4.25 4.25 0 01.4-1.107c.2-.377.482-.72 1.188-1.569l.9-1.08c.753-.903 1.06-1.265 1.413-1.538a4.25 4.25 0 011.678-.786zM9.75 9a.75.75 0 00-1.5 0v2a.75.75 0 001.5 0V9zM15 6.25a.75.75 0 01.75.75v4a.75.75 0 01-1.5 0V7a.75.75 0 01.75-.75zM12.75 7a.75.75 0 00-1.5 0v4a.75.75 0 001.5 0V7z"/>
</svg>
