<svg xmlns="http://www.w3.org/2000/svg" width="24" height="24" fill="currentColor" viewBox="0 0 24 24">
  <path fill-rule="evenodd" d="M2.218 6.092C2 6.52 2 7.08 2 8.2v1.6c0 1.12 0 1.68.218 2.108a2 2 0 00.874.874C3.52 13 4.08 13 5.2 13h1.6c1.12 0 1.68 0 2.108-.218a2 2 0 00.874-.874C10 11.48 10 10.92 10 9.8V8.2c0-1.12 0-1.68-.218-2.108a2 2 0 00-.874-.874C8.48 5 7.92 5 6.8 5H5.2c-1.12 0-1.68 0-2.108.218a2 2 0 00-.874.874zm12 6C14 12.52 14 13.08 14 14.2v1.6c0 1.12 0 1.68.218 2.108a2 2 0 00.874.874C15.52 19 16.08 19 17.2 19h1.6c1.12 0 1.68 0 2.108-.218a2 2 0 00.874-.874C22 17.48 22 16.92 22 15.8v-1.6c0-1.12 0-1.68-.218-2.108a2 2 0 00-.874-.874C20.48 11 19.92 11 18.8 11h-1.6c-1.12 0-1.68 0-2.108.218a2 2 0 00-.874.874z" opacity=".12"/>
  <path fill-rule="evenodd" d="M6.75 2a.75.75 0 00-1.5 0v2.25h-.08c-.535 0-.98 0-1.345.03-.38.03-.736.098-1.073.27A2.75 2.75 0 001.55 5.752c-.172.337-.24.693-.27 1.073-.03.365-.03.81-.03 1.345V9.83c0 .535 0 .98.03 1.345.03.38.098.736.27 1.073a2.75 2.75 0 001.202 1.202c.337.172.693.24 1.073.27.365.03.81.03 1.345.03H6.83c.535 0 .98 0 1.345-.03.38-.03.736-.098 1.073-.27a2.75 2.75 0 001.202-1.201c.172-.338.24-.694.27-1.074.03-.365.03-.81.03-1.345V8.17c0-.535 0-.98-.03-1.345-.03-.38-.098-.736-.27-1.073A2.75 2.75 0 009.248 4.55c-.337-.172-.693-.24-1.073-.27-.365-.03-.81-.03-1.345-.03h-.08V2zM5.2 5.75h1.6c.572 0 .957 0 1.253.025.287.023.424.065.514.111.236.12.427.311.547.547.046.09.088.227.111.514.024.296.025.68.025 1.253v1.6c0 .572 0 .957-.025 1.252-.023.288-.065.425-.111.516a1.25 1.25 0 01-.547.546c-.09.046-.227.088-.514.111-.296.024-.68.025-1.253.025H5.2c-.572 0-.957 0-1.253-.025-.287-.023-.424-.065-.514-.111a1.25 1.25 0 01-.547-.546c-.046-.091-.088-.228-.111-.515-.024-.296-.025-.68-.025-1.253V8.2c0-.572 0-.957.025-1.253.023-.287.065-.424.111-.514a1.25 1.25 0 01.547-.547c.09-.046.227-.088.514-.111.296-.024.68-.025 1.253-.025zM6.75 16a.75.75 0 00-1.5 0v6a.75.75 0 001.5 0v-6zM18 18.25h.8c.572 0 .957 0 1.252-.025.288-.023.425-.065.515-.111a1.25 1.25 0 00.547-.547c.046-.09.088-.227.111-.515.024-.295.025-.68.025-1.252v-1.6c0-.572 0-.957-.025-1.252-.023-.288-.065-.425-.111-.516a1.25 1.25 0 00-.547-.546c-.09-.046-.227-.088-.515-.111-.295-.024-.68-.025-1.252-.025h-1.6c-.572 0-.957 0-1.252.025-.288.023-.425.065-.516.111a1.25 1.25 0 00-.546.546c-.046.091-.088.228-.111.515-.024.296-.025.68-.025 1.253v1.6c0 .572 0 .957.025 1.252.023.288.065.425.111.515.12.236.311.427.546.547.091.046.228.088.515.111.296.024.68.025 1.253.025h.8zm.75 3.75v-2.25h.08c.535 0 .98 0 1.345-.03.38-.03.736-.098 1.073-.27a2.751 2.751 0 001.202-1.201c.172-.338.24-.694.27-1.074.03-.365.03-.81.03-1.345V14.17c0-.535 0-.98-.03-1.345-.03-.38-.098-.736-.27-1.073a2.751 2.751 0 00-1.201-1.202c-.338-.172-.694-.24-1.074-.27-.365-.03-.81-.03-1.345-.03H17.17c-.535 0-.98 0-1.345.03-.38.03-.736.098-1.073.27a2.751 2.751 0 00-1.202 1.201c-.172.338-.24.694-.27 1.074-.03.365-.03.81-.03 1.345V15.83c0 .535 0 .98.03 1.345.03.38.098.736.27 1.073.263.518.684.939 1.201 1.202.338.172.694.24 1.074.27.365.03.81.03 1.345.03h.08V22a.75.75 0 001.5 0zM18 1.25a.75.75 0 01.75.75v6a.75.75 0 01-1.5 0V2a.75.75 0 01.75-.75z"/>
</svg>
