<svg xmlns="http://www.w3.org/2000/svg" width="24" height="24" fill="currentColor" viewBox="0 0 24 24">
  <path d="M12 22c5.523 0 10-4.477 10-10S17.523 2 12 2 2 6.477 2 12s4.477 10 10 10z" opacity=".12"/>
  <path fill-rule="evenodd" d="M2.75 12a9.25 9.25 0 1118.5 0 9.25 9.25 0 01-18.5 0zM12 1.25C6.063 1.25 1.25 6.063 1.25 12S6.063 22.75 12 22.75 22.75 17.937 22.75 12 17.937 1.25 12 1.25zM8.75 12c0-.084.003-.168.01-.25H12a.75.75 0 000-1.5H9.26a3.248 3.248 0 015.178-.4.75.75 0 001.124-.992 4.752 4.752 0 00-7.98 1.392H7a.75.75 0 000 1.5h.256a4.83 4.83 0 000 .5H7a.75.75 0 000 1.5h.583a4.752 4.752 0 007.98 1.392.75.75 0 00-1.125-.992 3.247 3.247 0 01-5.177-.4H11a.75.75 0 000-1.5H8.76a3.294 3.294 0 01-.01-.25z"/>
</svg>
