<svg xmlns="http://www.w3.org/2000/svg" width="24" height="24" fill="currentColor" viewBox="0 0 24 24">
  <path d="M20 11a9 9 0 11-18 0 9 9 0 0118 0z" opacity=".12"/>
  <path fill-rule="evenodd" d="M11 2.75a8.25 8.25 0 100 16.5 8.25 8.25 0 000-16.5zM1.25 11c0-5.385 4.365-9.75 9.75-9.75s9.75 4.365 9.75 9.75a9.712 9.712 0 01-2.346 6.344l3.126 3.126a.75.75 0 11-1.06 1.06l-3.126-3.126A9.712 9.712 0 0111 20.75c-5.385 0-9.75-4.365-9.75-9.75zm10.5-3a.75.75 0 00-1.5 0v2.25H8a.75.75 0 000 1.5h2.25V14a.75.75 0 001.5 0v-2.25H14a.75.75 0 000-1.5h-2.25V8z"/>
</svg>
