<svg xmlns="http://www.w3.org/2000/svg" width="24" height="24" fill="currentColor" viewBox="0 0 24 24">
  <path d="M12 22c5.523 0 10-4.477 10-10S17.523 2 12 2 2 6.477 2 12c0 1.499.33 2.921.921 4.197.467 1.008.91 1.867.584 3-.157.546-.55 1.083-.596 1.65a1 1 0 001.16 1.069c1.309-.218 1.939-1.259 3.457-.902.164.04.593.192 1.45.5.908.324 1.885.486 3.024.486z" opacity=".12"/>
  <path fill-rule="evenodd" d="M2.75 12A9.25 9.25 0 1112 21.25c-1.065 0-1.955-.151-2.771-.443l-.13-.046c-.744-.267-1.195-.428-1.402-.477l-.171.73.171-.73c-.985-.232-1.704.005-2.3.288-.16.076-.3.147-.428.213-.366.187-.64.327-1.023.39a.25.25 0 01-.29-.266c.012-.145.072-.319.193-.586l.061-.134a5.6 5.6 0 00.315-.784c.39-1.358-.112-2.43-.54-3.344A9.21 9.21 0 012.75 12zM12 1.25C6.063 1.25 1.25 6.063 1.25 12c0 1.61.355 3.14.99 4.512l.681-.315-.68.316.023.05c.478 1.032.751 1.621.52 2.428a3.677 3.677 0 01-.21.515c-.029.06-.06.127-.092.2-.126.278-.286.657-.32 1.08a1.75 1.75 0 002.03 1.87l-.122-.74.123.74c.635-.106 1.18-.387 1.58-.594.098-.05.188-.097.268-.135.425-.202.78-.308 1.313-.183.11.026.476.156 1.37.475l.252-.706-.252.706c.998.357 2.062.531 3.276.531 5.937 0 10.75-4.813 10.75-10.75S17.937 1.25 12 1.25zm4.03 8.78a.75.75 0 10-1.06-1.06L11 12.94l-1.47-1.47a.75.75 0 00-1.06 1.06l2 2a.75.75 0 001.06 0l4.5-4.5z"/>
</svg>
