<svg xmlns="http://www.w3.org/2000/svg" width="24" height="24" fill="currentColor" viewBox="0 0 24 24">
  <path fill-rule="evenodd" d="M12 22c5.523 0 10-4.477 10-10S17.523 2 12 2 2 6.477 2 12s4.477 10 10 10zM10 9.5a1.5 1.5 0 11-3 0 1.5 1.5 0 013 0zm5.5 6.5a1.5 1.5 0 100-3 1.5 1.5 0 000 3z" opacity=".12"/>
  <path fill-rule="evenodd" d="M2.75 12a9.25 9.25 0 1118.5 0 9.25 9.25 0 01-18.5 0zM12 1.25C6.063 1.25 1.25 6.063 1.25 12S6.063 22.75 12 22.75 22.75 17.937 22.75 12 17.937 1.25 12 1.25zm3.643 6.136a.75.75 0 00-1.286-.772l-6 10a.75.75 0 001.286.772l6-10zM8.5 8.75a.75.75 0 100 1.5.75.75 0 000-1.5zm-2.25.75a2.25 2.25 0 114.5 0 2.25 2.25 0 01-4.5 0zm8.5 5a.75.75 0 111.5 0 .75.75 0 01-1.5 0zm.75-2.25a2.25 2.25 0 100 4.5 2.25 2.25 0 000-4.5z"/>
</svg>
