<svg xmlns="http://www.w3.org/2000/svg" width="24" height="24" fill="currentColor" viewBox="0 0 24 24">
  <path d="M2 10c0-2.8 0-4.2.545-5.27A5 5 0 014.73 2.545C5.8 2 7.2 2 10 2h4c2.8 0 4.2 0 5.27.545a5 5 0 012.185 2.185C22 5.8 22 7.2 22 10v9.17c0 1.027 0 1.54-.163 1.86a1.5 1.5 0 01-1.442.817c-.359-.025-.799-.29-1.678-.817-.525-.315-.788-.472-1.063-.595a4.998 4.998 0 00-1.439-.399C15.916 20 15.61 20 14.998 20H10c-2.8 0-4.2 0-5.27-.545a5 5 0 01-2.185-2.185C2 16.2 2 14.8 2 12v-2z" opacity=".12"/>
  <path fill-rule="evenodd" d="M10 1.25h-.034c-1.371 0-2.447 0-3.311.07-.88.073-1.607.221-2.265.557A5.75 5.75 0 001.877 4.39c-.336.658-.484 1.385-.556 2.265-.071.864-.071 1.94-.071 3.311V12.034c0 1.371 0 2.447.07 3.311.073.88.221 1.607.557 2.265a5.75 5.75 0 002.513 2.513c.658.336 1.385.485 2.265.556.864.071 1.94.071 3.311.071h5.032c.63 0 .883.001 1.127.03.423.052.835.166 1.223.34.225.1.443.23.983.553l.023.014c.42.252.768.461 1.056.608.289.147.598.277.932.3a2.25 2.25 0 002.164-1.225c.151-.298.2-.63.222-.954.022-.322.022-.728.022-1.218V9.966c0-1.371 0-2.447-.07-3.311-.072-.88-.221-1.607-.557-2.265a5.75 5.75 0 00-2.513-2.513c-.658-.336-1.385-.484-2.265-.556-.864-.071-1.94-.071-3.311-.071H10zM5.07 3.213c.412-.21.92-.333 1.707-.397.796-.065 1.81-.066 3.223-.066h4c1.412 0 2.427 0 3.223.066.787.064 1.295.188 1.707.397a4.25 4.25 0 011.857 1.858c.21.411.333.919.397 1.706.065.796.066 1.81.066 3.223v9.17c0 .525 0 .88-.019 1.144-.018.27-.051.354-.062.377a.75.75 0 01-.722.408c-.024-.002-.114-.017-.355-.14-.236-.12-.54-.303-.99-.572l-.042-.026c-.485-.29-.783-.47-1.1-.611a5.75 5.75 0 00-1.655-.458c-.344-.042-.692-.042-1.258-.042H10c-1.413 0-2.427 0-3.223-.066-.787-.064-1.295-.188-1.706-.397a4.25 4.25 0 01-1.858-1.857c-.21-.412-.333-.92-.397-1.707-.065-.796-.066-1.81-.066-3.223v-2c0-1.413 0-2.427.066-3.223.064-.787.188-1.295.397-1.706a4.25 4.25 0 011.858-1.858zm4.96 4.757a.75.75 0 10-1.06 1.06L10.94 11l-1.97 1.97a.75.75 0 101.06 1.06L12 12.06l1.97 1.97a.75.75 0 101.06-1.06L13.06 11l1.97-1.97a.75.75 0 00-1.06-1.06L12 9.94l-1.97-1.97z"/>
</svg>
