<svg xmlns="http://www.w3.org/2000/svg" width="24" height="24" fill="currentColor" viewBox="0 0 24 24">
  <path d="M15 16a7 7 0 006.71-9l-2.447 2.447c-.792.792-1.188 1.188-1.645 1.337a2 2 0 01-1.236 0c-.457-.149-.853-.545-1.645-1.337l-.184-.184c-.792-.792-1.188-1.188-1.337-1.645a2 2 0 010-1.236c.149-.457.545-.853 1.337-1.645L17 2.29A7 7 0 008 9c0 1.074.068 2.59.5 3.5l-6 6c-.08.08-.12.12-.152.155a2 2 0 000 2.69c.033.036.072.075.152.155s.12.12.155.151a2 2 0 002.69 0c.036-.032.075-.071.155-.151l6-6c.91.432 2.426.5 3.5.5z" opacity=".12"/>
  <path fill-rule="evenodd" d="M15 2.75A6.25 6.25 0 008.75 9c0 .524.017 1.14.083 1.727.068.6.182 1.11.344 1.451a.75.75 0 01-.147.852l-6 6c-.085.086-.11.11-.127.13a1.25 1.25 0 000 1.68c.017.02.042.044.127.13.086.085.11.11.13.127a1.25 1.25 0 001.68 0c.02-.018.044-.042.13-.127l6-6a.75.75 0 01.852-.147c.342.162.85.276 1.45.344.588.066 1.204.083 1.728.083a6.25 6.25 0 006.233-6.712l-1.44 1.44-.021.021c-.378.378-.693.693-.972.93-.29.246-.59.451-.95.568a2.75 2.75 0 01-1.7 0c-.36-.117-.66-.322-.95-.568-.279-.237-.594-.552-.972-.93l-.021-.021-.185-.185-.021-.021c-.378-.378-.693-.693-.93-.972-.246-.29-.451-.59-.568-.95a2.75 2.75 0 010-1.7c.117-.36.322-.66.568-.95.237-.279.552-.594.93-.972l.021-.021 1.44-1.44A6.35 6.35 0 0015 2.75zM7.25 9a7.75 7.75 0 019.964-7.429.75.75 0 01.316 1.25l-2.447 2.447c-.405.404-.676.676-.868.903-.187.22-.254.346-.285.443a1.25 1.25 0 000 .772c.03.097.098.224.285.443.192.227.463.499.868.903l.185.185c.404.405.676.676.903.868.22.187.346.254.443.285.25.082.521.082.772 0 .097-.03.224-.098.443-.285.227-.192.499-.463.903-.868L21.18 6.47a.75.75 0 011.249.316A7.75 7.75 0 0115 16.75c-.55 0-1.229-.017-1.896-.093a7.575 7.575 0 01-1.418-.282L6.03 22.03l-.012.013c-.068.067-.12.12-.168.163a2.75 2.75 0 01-3.7 0c-.049-.044-.1-.096-.168-.163l-.012-.013-.013-.012c-.067-.068-.12-.12-.164-.168a2.75 2.75 0 010-3.7c.045-.049.097-.1.164-.168l.013-.012 5.655-5.656a7.577 7.577 0 01-.282-1.418A17.205 17.205 0 017.25 9z"/>
</svg>
