<svg xmlns="http://www.w3.org/2000/svg" width="24" height="24" fill="currentColor" viewBox="0 0 24 24">
  <path fill-rule="evenodd" d="M12 22c5.523 0 10-4.477 10-10S17.523 2 12 2 2 6.477 2 12s4.477 10 10 10zM9.163 9.819C9 10.139 9 10.559 9 11.4v1.2c0 .84 0 1.26.163 1.581a1.5 1.5 0 00.656.655c.32.164.74.164 1.581.164h1.2c.84 0 1.26 0 1.581-.164a1.5 1.5 0 00.655-.655c.164-.32.164-.74.164-1.581v-1.2c0-.84 0-1.26-.164-1.581a1.5 1.5 0 00-.655-.656C13.861 9 13.441 9 12.6 9h-1.2c-.84 0-1.26 0-1.581.163a1.5 1.5 0 00-.656.656z" opacity=".12"/>
  <path fill-rule="evenodd" d="M2.75 12a9.25 9.25 0 1118.5 0 9.25 9.25 0 01-18.5 0zM12 1.25C6.063 1.25 1.25 6.063 1.25 12S6.063 22.75 12 22.75 22.75 17.937 22.75 12 17.937 1.25 12 1.25zm-.6 7h-.029c-.395 0-.736 0-1.017.023-.297.024-.592.078-.875.222a2.25 2.25 0 00-.984.984c-.144.283-.198.578-.222.875-.023.28-.023.622-.023 1.017V12.63c0 .395 0 .736.023 1.017.024.297.078.592.222.875.216.424.56.768.984.984.283.144.578.198.875.222.28.023.622.023 1.017.023H12.63c.395 0 .736 0 1.017-.023.297-.024.592-.078.875-.222.424-.216.768-.56.984-.984.144-.283.198-.578.222-.875.023-.28.023-.622.023-1.017V11.37c0-.395 0-.736-.023-1.017-.024-.297-.078-.592-.222-.875a2.25 2.25 0 00-.984-.984c-.283-.144-.578-.198-.875-.222-.28-.023-.622-.023-1.017-.023H11.4zm-1.24 1.582c.037-.02.112-.047.316-.064.212-.017.492-.018.924-.018h1.2c.432 0 .712 0 .924.018.204.017.28.045.317.064a.75.75 0 01.327.327c.02.038.047.113.064.317.017.212.018.492.018.924v1.2c0 .432 0 .712-.018.924-.017.204-.045.28-.064.317a.751.751 0 01-.327.327c-.038.02-.113.047-.317.064-.212.017-.492.018-.924.018h-1.2c-.432 0-.712 0-.924-.018-.204-.017-.28-.045-.317-.064a.75.75 0 01-.327-.327c-.02-.038-.047-.113-.064-.317a12.747 12.747 0 01-.018-.924v-1.2c0-.432 0-.712.018-.924.017-.204.045-.28.064-.317a.75.75 0 01.327-.327z"/>
</svg>
