<svg xmlns="http://www.w3.org/2000/svg" width="24" height="24" fill="currentColor" viewBox="0 0 24 24">
  <path fill-rule="evenodd" d="M19.84 3.903a1.25 1.25 0 0 0-1.68 0 4.748 4.748 0 0 0-.13.127l-.307.307a1.903 1.903 0 0 0 1.94 1.94l.307-.307c.085-.086.11-.11.127-.13a1.25 1.25 0 0 0 0-1.68 4.717 4.717 0 0 0-.127-.13 4.766 4.766 0 0 0-.13-.127Zm-1.448 3.645a3.428 3.428 0 0 1-1.94-1.94l-2.668 2.669c-.483.483-.665.668-.811.87a3.25 3.25 0 0 0-.346.611c-.099.23-.164.48-.33 1.144l-.266 1.067 1.067-.267c.663-.165.914-.23 1.144-.33a3.19 3.19 0 0 0 .61-.345c.203-.146.388-.328.871-.81l2.669-2.67ZM17.15 2.793a2.75 2.75 0 0 1 3.867.164l.013.013.013.012c.067.068.12.12.163.168a2.75 2.75 0 0 1-.163 3.868l-.013.012-4.246 4.247-.044.044c-.425.425-.698.698-1.012.924-.279.2-.578.37-.892.505-.355.153-.73.247-1.313.392l-.06.016-2.281.57a.75.75 0 0 1-.91-.91l.57-2.28.016-.06c.145-.583.239-.959.392-1.314.136-.314.305-.613.505-.892.226-.314.5-.587.924-1.012l.044-.044L16.97 2.97l.012-.013c.068-.067.12-.12.168-.164ZM9.367 2.25H12a.75.75 0 0 1 0 1.5H9.4c-1.132 0-1.937 0-2.566.052-.62.05-1.005.147-1.31.302a3.25 3.25 0 0 0-1.42 1.42c-.155.305-.251.69-.302 1.31-.051.63-.052 1.433-.052 2.566v5.2c0 1.132 0 1.937.052 2.566.05.62.147 1.005.302 1.31a3.25 3.25 0 0 0 1.42 1.42c.305.155.69.251 1.31.302.63.051 1.434.052 2.566.052h5.2c1.133 0 1.937 0 2.566-.052.62-.05 1.005-.147 1.31-.302a3.25 3.25 0 0 0 1.42-1.42c.155-.305.251-.69.302-1.31.051-.63.052-1.434.052-2.566V12a.75.75 0 0 1 1.5 0v2.633c0 1.092 0 1.958-.057 2.655-.058.714-.18 1.317-.46 1.868a4.75 4.75 0 0 1-2.076 2.076c-.552.281-1.155.403-1.869.461-.697.057-1.563.057-2.655.057H9.367c-1.092 0-1.958 0-2.655-.057-.714-.058-1.317-.18-1.868-.46a4.75 4.75 0 0 1-2.076-2.077c-.281-.55-.403-1.154-.461-1.868-.057-.697-.057-1.563-.057-2.655V9.367c0-1.092 0-1.958.057-2.655.058-.714.18-1.317.46-1.869a4.75 4.75 0 0 1 2.077-2.075c.55-.281 1.154-.403 1.868-.461.697-.057 1.563-.057 2.655-.057Z" clip-rule="evenodd"/>
</svg>
