<svg xmlns="http://www.w3.org/2000/svg" width="24" height="24" fill="currentColor" viewBox="0 0 24 24">
  <path fill-rule="evenodd" d="M11.4 1.25h-.033c-1.092 0-1.958 0-2.655.057-.714.058-1.317.18-1.868.46a4.75 4.75 0 00-2.076 2.077c-.226.443-.35.92-.419 1.462A3.751 3.751 0 001.25 9v6a3.751 3.751 0 003.099 3.694c.07.541.193 1.019.419 1.463a4.75 4.75 0 002.076 2.075c.55.281 1.154.403 1.868.461.697.057 1.563.057 2.655.057H12.633c1.092 0 1.958 0 2.655-.057.714-.058 1.317-.18 1.869-.46a4.75 4.75 0 002.075-2.076c.226-.444.35-.922.419-1.463A3.751 3.751 0 0022.75 15V9a3.751 3.751 0 00-3.099-3.694c-.07-.541-.193-1.019-.419-1.462a4.75 4.75 0 00-2.075-2.076c-.552-.281-1.155-.403-1.869-.461-.697-.057-1.563-.057-2.655-.057H11.4zm8.343 5.625c.007.445.007.94.007 1.492V15.633c0 .553 0 1.047-.007 1.492A2.251 2.251 0 0021.25 15V9a2.25 2.25 0 00-1.507-2.125zM2.75 9c0-.982.63-1.818 1.507-2.125-.007.445-.007.94-.007 1.492V15.633c0 .553 0 1.047.007 1.492A2.251 2.251 0 012.75 15V9zm7 6a1.25 1.25 0 112.5 0 1.25 1.25 0 01-2.5 0zM11 12.25c.45 0 .875.108 1.25.3V7a.75.75 0 011.166-.624l3 2a.75.75 0 11-.832 1.248L13.75 8.401V15A2.75 2.75 0 1111 12.25z"/>
</svg>
