<svg xmlns="http://www.w3.org/2000/svg" width="24" height="24" fill="currentColor" viewBox="0 0 24 24">
  <path fill-rule="evenodd" d="M3 1.25a.75.75 0 00-.75.75v1.83c0 .535 0 .98.03 1.345.03.38.098.736.27 1.073A2.75 2.75 0 003.752 7.45c.337.172.693.24 1.073.27.365.03.81.03 1.345.03H17.83c.535 0 .98 0 1.345-.03.38-.03.736-.098 1.073-.27a2.75 2.75 0 001.202-1.202c.172-.337.24-.693.27-1.073.03-.365.03-.81.03-1.345V2a.75.75 0 00-.75-.75H3zm3.17 15H17.83c.535 0 .98 0 1.345.03.38.03.736.098 1.073.27.518.263.939.684 1.202 1.201.172.338.24.694.27 1.074.03.365.03.81.03 1.345V22a.75.75 0 01-.75.75H3a.75.75 0 01-.75-.75v-1.83c0-.535 0-.98.03-1.345.03-.38.098-.736.27-1.073a2.75 2.75 0 011.202-1.202c.337-.172.693-.24 1.073-.27.365-.03.81-.03 1.345-.03zM20 13a1 1 0 100-2 1 1 0 000 2zm-3-1a1 1 0 11-2 0 1 1 0 012 0zm-5 1a1 1 0 100-2 1 1 0 000 2zm-3-1a1 1 0 11-2 0 1 1 0 012 0zm-5 1a1 1 0 100-2 1 1 0 000 2z"/>
</svg>
