<svg xmlns="http://www.w3.org/2000/svg" width="24" height="24" fill="currentColor" viewBox="0 0 24 24">
  <path fill-rule="evenodd" d="M10 1.25h-.034c-1.371 0-2.447 0-3.311.07-.88.073-1.607.221-2.265.557A5.75 5.75 0 001.877 4.39c-.336.658-.484 1.385-.556 2.265-.071.864-.071 1.94-.071 3.311v4.068c0 1.371 0 2.447.07 3.311.073.88.221 1.607.557 2.265a5.75 5.75 0 002.513 2.513c.658.336 1.385.485 2.265.556.864.071 1.94.071 3.311.071h4.068c1.371 0 2.447 0 3.311-.07.88-.072 1.607-.221 2.265-.557a5.75 5.75 0 002.513-2.513c.336-.658.485-1.385.556-2.265.071-.864.071-1.94.071-3.311V9.966c0-1.371 0-2.447-.07-3.311-.072-.88-.221-1.607-.557-2.265a5.75 5.75 0 00-2.513-2.513c-.658-.336-1.385-.484-2.265-.556-.864-.071-1.94-.071-3.311-.071H10zm1.946 10.206a2.276 2.276 0 00-3.296 0l-1.13 1.166a2.784 2.784 0 000 3.844 2.528 2.528 0 003.66 0l.474-.49a.75.75 0 111.077 1.045l-.473.489a4.028 4.028 0 01-5.815 0c-1.59-1.64-1.59-4.291 0-5.932l1.13-1.166a3.776 3.776 0 015.45 0l.182.188a.75.75 0 11-1.077 1.044l-.182-.188zm5.611-4.966a4.028 4.028 0 00-5.815 0l-.473.489a.75.75 0 001.077 1.044l.473-.489a2.528 2.528 0 013.661 0 2.784 2.784 0 010 3.844l-1.13 1.166a2.276 2.276 0 01-3.296 0l-.182-.188a.75.75 0 00-1.077 1.044l.182.188a3.776 3.776 0 005.45 0l1.13-1.166c1.59-1.64 1.59-4.291 0-5.932z"/>
</svg>
