<svg xmlns="http://www.w3.org/2000/svg" width="24" height="24" fill="currentColor" viewBox="0 0 24 24">
  <path fill-rule="evenodd" d="M4.088 7.736a8.069 8.069 0 0115.824 0l1.254 6.27c.403 2.013-.666 4.037-2.534 4.867-.681.303-1.381.557-2.093.761l-.104.234a4.853 4.853 0 01-8.87 0l-.104-.234a16.1 16.1 0 01-2.093-.761c-1.868-.83-2.937-2.854-2.534-4.868l1.254-6.269zM12 21.25c.997 0 1.924-.442 2.551-1.177a16.53 16.53 0 01-5.102 0A3.353 3.353 0 0012 21.25zm3.53-12.78a.75.75 0 010 1.06l-4 4a.75.75 0 01-1.06 0l-1.5-1.5a.75.75 0 111.06-1.06l.97.97 3.47-3.47a.75.75 0 011.06 0z"/>
</svg>
