<svg xmlns="http://www.w3.org/2000/svg" width="24" height="24" fill="currentColor" viewBox="0 0 24 24">
  <path fill-rule="evenodd" d="M12 1.25C6.063 1.25 1.25 6.063 1.25 12a10.7 10.7 0 001.465 5.42c.957-1.025 1.535-1.64 2.228-2.089a6.751 6.751 0 012.02-.878c.81-.203 1.666-.203 3.1-.203h.082c.205-.506.61-.909 1.118-1.11a.752.752 0 01-.013-.14V9a.75.75 0 011.5 0v4a.752.752 0 01-.013.14c.507.201.913.604 1.118 1.11h.081c1.435 0 2.29 0 3.1.203.717.18 1.4.477 2.021.878.693.448 1.271 1.064 2.228 2.09A10.7 10.7 0 0022.75 12c0-5.937-4.813-10.75-10.75-10.75zm-1.855 14.5a2 2 0 003.71 0c1.556 0 2.211.006 2.816.158a5.25 5.25 0 011.572.683c.527.34.98.82 2.055 1.97l.119.127A10.73 10.73 0 0112 22.75a10.73 10.73 0 01-8.417-4.062l.119-.127c1.074-1.15 1.528-1.63 2.055-1.97a5.25 5.25 0 011.572-.683c.605-.152 1.26-.158 2.816-.158zM12.75 3a.75.75 0 00-1.5 0v1.5a.75.75 0 001.5 0V3zm-10.5 9a.75.75 0 01.75-.75h1.5a.75.75 0 010 1.5H3a.75.75 0 01-.75-.75zm17.25.75H21a.75.75 0 000-1.5h-1.5a.75.75 0 000 1.5zm-.97-7.28a.75.75 0 010 1.06l-1 1a.75.75 0 11-1.06-1.06l1-1a.75.75 0 011.06 0zm-12 0a.75.75 0 00-1.06 1.06l1 1a.75.75 0 001.06-1.06l-1-1z"/>
</svg>
