<svg xmlns="http://www.w3.org/2000/svg" width="24" height="24" fill="currentColor" viewBox="0 0 24 24">
  <path fill-rule="evenodd" d="M10 1.25h-.034c-1.371 0-2.447 0-3.311.07-.88.073-1.607.221-2.265.557A5.75 5.75 0 001.877 4.39c-.336.658-.484 1.385-.556 2.265-.071.864-.071 1.94-.071 3.311v4.068c0 1.371 0 2.447.07 3.311.073.88.221 1.607.557 2.265a5.75 5.75 0 002.513 2.513c.658.336 1.385.485 2.265.556.864.071 1.94.071 3.311.071h4.068c1.371 0 2.447 0 3.311-.07.88-.072 1.607-.221 2.265-.557a5.75 5.75 0 002.513-2.513c.336-.658.485-1.385.556-2.265.071-.864.071-1.94.071-3.311V9.966c0-1.371 0-2.447-.07-3.311-.072-.88-.221-1.607-.557-2.265a5.75 5.75 0 00-2.513-2.513c-.658-.336-1.385-.484-2.265-.556-.864-.071-1.94-.071-3.311-.071H10zm5.77 2.036a.75.75 0 01.944.484l1 3.1a.75.75 0 01-1.25.756 6.25 6.25 0 101.527 2.588.75.75 0 111.438-.428 7.75 7.75 0 11-3.855-4.665l-.288-.89a.75.75 0 01.484-.945zM10.5 8.75a.75.75 0 00-.75.75V12c0 .414.336.75.75.75h2.25v1H10.5a.75.75 0 000 1.5h3a.75.75 0 00.75-.75V12a.75.75 0 00-.75-.75h-2.25v-1h2.25a.75.75 0 000-1.5h-3z"/>
</svg>
