<svg xmlns="http://www.w3.org/2000/svg" width="24" height="24" fill="currentColor" viewBox="0 0 24 24">
  <path fill-rule="evenodd" d="M11.933 1.25H12.038c1.837 0 3.267 0 4.41.104 1.16.105 2.098.322 2.927.8a6.75 6.75 0 012.47 2.471c.48.83.696 1.767.802 2.927.103 1.143.103 2.573.103 4.41V12.067c0 2.178 0 3.79-.18 5.04a.75.75 0 01-1.484-.214c.162-1.13.164-2.633.164-4.893 0-1.883 0-3.245-.097-4.312-.096-1.057-.281-1.75-.606-2.313a5.25 5.25 0 00-1.922-1.922c-.563-.325-1.256-.51-2.313-.606-1.067-.096-2.429-.097-4.312-.097-2.26 0-3.763.002-4.893.164a.75.75 0 11-.214-1.484c1.25-.18 2.862-.18 5.04-.18zM1.47 1.47a.75.75 0 011.06 0l1.758 1.757 16.485 16.485 1.757 1.758a.75.75 0 11-1.06 1.06l-1.257-1.256a6.75 6.75 0 01-.838.572c-.83.479-1.767.695-2.927.8-1.143.104-2.573.104-4.41.104h-.076c-1.837 0-3.267 0-4.41-.104-1.16-.105-2.098-.322-2.927-.8a6.75 6.75 0 01-2.47-2.471c-.48-.83-.696-1.767-.801-2.927-.104-1.143-.104-2.573-.104-4.41v-.076c0-1.837 0-3.267.104-4.41.105-1.16.322-2.098.8-2.927a6.75 6.75 0 01.572-.838L1.47 2.53a.75.75 0 010-1.06zm2.325 3.386a5.252 5.252 0 00-.342.519c-.325.563-.51 1.256-.606 2.313C2.751 8.755 2.75 10.117 2.75 12c0 1.883 0 3.245.097 4.312.023.252.051.482.085.696l1.71-1.71.036-.037c.635-.635 1.165-1.165 1.642-1.529.504-.384 1.036-.654 1.68-.654.644 0 1.176.27 1.68.654.477.364 1.007.894 1.642 1.53l.037.036 5.671 5.672c.027.026.05.054.072.083.636-.108 1.114-.27 1.523-.506.18-.104.353-.219.519-.342L3.795 4.856zM13.25 8a2.75 2.75 0 115.5 0 2.75 2.75 0 01-5.5 0z"/>
</svg>
