<svg xmlns="http://www.w3.org/2000/svg" width="24" height="24" fill="currentColor" viewBox="0 0 24 24">
  <path fill-rule="evenodd" d="M2 2.25a.75.75 0 01.75.75v18a.75.75 0 01-1.5 0V3A.75.75 0 012 2.25zm9.8 1h-.032c-.813 0-1.469 0-2 .043-.546.045-1.026.14-1.47.366a3.75 3.75 0 00-1.64 1.639c-.226.444-.32.924-.365 1.47-.043.531-.043 1.187-.043 2v6.464c0 .813 0 1.469.043 2 .045.546.14 1.026.366 1.47a3.75 3.75 0 001.639 1.64c.444.226.924.32 1.47.365.531.043 1.187.043 2 .043H12.232c.813 0 1.469 0 2-.043.546-.045 1.026-.14 1.47-.366a3.75 3.75 0 001.64-1.639c.226-.444.32-.924.365-1.47.043-.531.043-1.187.043-2V8.768c0-.813 0-1.469-.043-2-.045-.546-.14-1.026-.366-1.47a3.75 3.75 0 00-1.639-1.64c-.444-.226-.924-.32-1.47-.365-.531-.043-1.187-.043-2-.043H11.8zM22.75 3a.75.75 0 00-1.5 0v18a.75.75 0 001.5 0V3z"/>
</svg>
