<svg xmlns="http://www.w3.org/2000/svg" width="24" height="24" fill="currentColor" viewBox="0 0 24 24">
  <path fill-rule="evenodd" d="M1.5.25H1a.75.75 0 000 1.5h.5c1.061 0 1.961.78 2.111 1.831l1.058 7.404.004.03c.1.705.182 1.277.285 1.739.106.478.245.893.488 1.271a3.75 3.75 0 001.597 1.386c.41.187.84.266 1.328.303.472.036 1.05.036 1.762.036H22a.75.75 0 000-1.5h-1.55v-.002c.172-.337.24-.693.27-1.073.03-.365.03-.81.03-1.345V8.17c0-.535 0-.98-.03-1.345-.03-.38-.098-.736-.27-1.073A2.75 2.75 0 0019.25 4.55c-.338-.172-.694-.24-1.074-.27-.365-.03-.81-.03-1.345-.03H13.17c-.535 0-.98 0-1.345.03-.38.03-.736.098-1.073.27A2.75 2.75 0 009.55 5.752c-.172.337-.24.693-.27 1.073-.03.365-.03.81-.03 1.345V11.83c0 .535 0 .98.03 1.345.03.38.098.736.27 1.073v.001a15.486 15.486 0 01-1.065-.03c-.398-.031-.634-.088-.818-.172a2.25 2.25 0 01-.959-.832c-.11-.17-.199-.396-.286-.786-.088-.4-.162-.914-.268-1.656L5.096 3.369A3.633 3.633 0 001.5.25V1 .25zM6.25 20a2.75 2.75 0 115.5 0 2.75 2.75 0 01-5.5 0zm10 0a2.75 2.75 0 115.5 0 2.75 2.75 0 01-5.5 0z"/>
</svg>
