<svg xmlns="http://www.w3.org/2000/svg" width="24" height="24" fill="currentColor" viewBox="0 0 24 24">
  <path fill-rule="evenodd" d="M9.966 1.25h4.068c1.371 0 2.447 0 3.311.07.88.073 1.607.221 2.265.557a5.75 5.75 0 012.513 2.513c.336.658.485 1.385.556 2.265.016.187.028.384.037.592.042.923.063 1.385-.233 1.694-.295.309-.776.309-1.737.309H3.254c-.961 0-1.442 0-1.737-.309-.296-.31-.275-.77-.233-1.694.01-.208.021-.405.037-.592.072-.88.22-1.607.556-2.265A5.75 5.75 0 014.39 1.877c.658-.336 1.385-.484 2.265-.556.864-.071 1.94-.071 3.311-.071zm.784 11.5c0-.943 0-1.414.293-1.707.293-.293.764-.293 1.707-.293h8c.943 0 1.414 0 1.707.293.293.293.293.764.293 1.707v1.284c0 .676 0 1.015-.164 1.265a1.008 1.008 0 01-.287.287c-.25.164-.59.164-1.272.164H12.75c-.943 0-1.414 0-1.707-.293-.293-.293-.293-.764-.293-1.707v-1zm-1.5 3.75v-3.75c0-.943 0-1.414-.293-1.707-.293-.293-.764-.293-1.707-.293h-4c-.943 0-1.414 0-1.707.293-.293.293-.293.764-.293 1.707v1.284c0 1.371 0 2.447.07 3.311.073.88.221 1.607.557 2.265a5.75 5.75 0 002.513 2.513c.658.336 1.385.485 2.265.556.187.016.384.028.592.037.923.042 1.385.063 1.694-.233.309-.295.309-.776.309-1.737V16.5zm1.5 2.75c0-.943 0-1.414.293-1.707.293-.293.764-.293 1.707-.293h9.841c.052 0 .093.044.088.095-.071.88-.22 1.607-.556 2.265a5.75 5.75 0 01-2.513 2.513c-.658.336-1.385.485-2.265.556-.864.071-1.94.071-3.311.071H12.75c-.943 0-1.414 0-1.707-.293-.293-.293-.293-.764-.293-1.707v-1.5z"/>
</svg>
