<svg xmlns="http://www.w3.org/2000/svg" width="24" height="24" fill="currentColor" viewBox="0 0 24 24">
  <path fill-rule="evenodd" d="M11.47 1.47a.75.75 0 011.06 0l3 3a.75.75 0 01-1.06 1.06l-1.72-1.72V9a.75.75 0 01-1.5 0V3.81L9.53 5.53a.75.75 0 01-1.06-1.06l3-3zM17 18.75H2a.75.75 0 010-1.5h4.298a5.751 5.751 0 0111.403 0H22a.75.75 0 010 1.5h-5zm-11 2.5a.75.75 0 000 1.5h12a.75.75 0 000-1.5H6zM3.399 9.398a.75.75 0 011.06 0l2.122 2.122a.75.75 0 01-1.061 1.06L3.399 10.46a.75.75 0 010-1.06zm14.02 2.122a.75.75 0 101.061 1.06l2.121-2.121a.75.75 0 00-1.06-1.06l-2.122 2.12z"/>
</svg>
