<svg xmlns="http://www.w3.org/2000/svg" width="24" height="24" fill="currentColor" viewBox="0 0 24 24">
  <path fill-rule="evenodd" d="M19.47 1.53A.75.75 0 0120.53.47l3 3a.75.75 0 01-1.06 1.06l-3-3zM2.166 1.466a.75.75 0 011.053 0l2.974 2.929 14.36 14.142 2.973 2.929a.75.75 0 01-1.052 1.068l-2.466-2.428a10.955 10.955 0 01-7.162 2.644C6.835 22.75 1.942 17.948 1.942 12c0-2.7 1.01-5.166 2.674-7.052L2.692 3.053 1.526 4.2A.75.75 0 01.474 3.132l1.692-1.666zm10.68 1.284a9.49 9.49 0 00-4.183.963.75.75 0 11-.66-1.347 10.99 10.99 0 014.843-1.116C18.857 1.25 23.75 6.052 23.75 12c0 1.717-.409 3.341-1.136 4.782a.75.75 0 11-1.339-.675A9.086 9.086 0 0022.25 12c0-5.098-4.2-9.25-9.404-9.25z"/>
</svg>
