<svg xmlns="http://www.w3.org/2000/svg" width="24" height="24" fill="currentColor" viewBox="0 0 24 24">
  <path fill-rule="evenodd" d="M2.348 2.348c.602-.602 1.36-.86 2.26-.981.867-.117 1.97-.117 3.337-.117H13.036c.904 0 1.633 0 2.222.053.606.055 1.136.172 1.617.45a3.75 3.75 0 011.373 1.372c.277.481.394 1.011.449 1.617.053.589.053 1.318.053 2.222v.198L18.749 8h-6.846c-.622 0-1.271 0-1.815.073-.63.084-1.41.299-2.063.952-.653.653-.868 1.432-.952 2.063C7 11.632 7 12.28 7 12.903v1.9a4.25 4.25 0 00-1.979.868l-.028.022c-.118.088-.213.16-.29.208-1.43.906-3.312-.034-3.446-1.723a5.023 5.023 0 01-.007-.356V7.945c0-1.367 0-2.47.117-3.337.12-.9.38-1.658.981-2.26zm10.6 6.902H18.052c.899 0 1.648 0 2.242.08.628.084 1.195.27 1.65.726.456.455.642 1.022.726 1.65.08.594.08 1.344.08 2.242V20.364c0 1.652-1.98 2.5-3.176 1.36a3.017 3.017 0 00-2.08-.831H12.948c-.899 0-1.648 0-2.242-.08-.628-.084-1.195-.27-1.65-.726-.456-.455-.642-1.022-.726-1.65-.08-.594-.08-1.344-.08-2.242v-2.247c0-.899 0-1.648.08-2.242.084-.628.27-1.195.725-1.65.456-.456 1.023-.642 1.65-.726.595-.08 1.345-.08 2.243-.08z"/>
</svg>
