<svg xmlns="http://www.w3.org/2000/svg" width="24" height="24" fill="currentColor" viewBox="0 0 24 24">
  <path fill-rule="evenodd" d="M10 1.25h-.034c-1.371 0-2.447 0-3.311.07-.88.073-1.607.221-2.265.557A5.75 5.75 0 001.877 4.39c-.336.658-.484 1.385-.556 2.265-.071.864-.071 1.94-.071 3.311v4.068c0 1.371 0 2.447.07 3.311.073.88.221 1.607.557 2.265a5.75 5.75 0 002.513 2.513c.658.336 1.385.485 2.265.556.864.071 1.94.071 3.311.071h4.068c1.371 0 2.447 0 3.311-.07.88-.072 1.607-.221 2.265-.557a5.75 5.75 0 002.513-2.513c.336-.658.485-1.385.556-2.265.071-.864.071-1.94.071-3.311V9.966c0-1.371 0-2.447-.07-3.311-.072-.88-.221-1.607-.557-2.265a5.75 5.75 0 00-2.513-2.513c-.658-.336-1.385-.484-2.265-.556-.864-.071-1.94-.071-3.311-.071H10zM9.25 17a.75.75 0 01.75-.75h8a.75.75 0 010 1.5h-8a.75.75 0 01-.75-.75zm.75-5.75a.75.75 0 000 1.5h8a.75.75 0 000-1.5h-8zM9.25 7a.75.75 0 01.75-.75h8a.75.75 0 010 1.5h-8A.75.75 0 019.25 7zm-4.196-.727C5 6.38 5 6.52 5 6.8v.4c0 .28 0 .42.054.527a.5.5 0 00.219.219C5.38 8 5.52 8 5.8 8h.4c.28 0 .42 0 .527-.054a.5.5 0 00.218-.219C7 7.62 7 7.48 7 7.2v-.4c0-.28 0-.42-.054-.527a.5.5 0 00-.219-.218C6.62 6 6.48 6 6.2 6h-.4c-.28 0-.42 0-.527.054a.5.5 0 00-.218.219zM5 11.8c0-.28 0-.42.054-.527a.5.5 0 01.219-.218C5.38 11 5.52 11 5.8 11h.4c.28 0 .42 0 .527.055a.5.5 0 01.218.218C7 11.38 7 11.52 7 11.8v.4c0 .28 0 .42-.054.527a.5.5 0 01-.219.218C6.62 13 6.48 13 6.2 13h-.4c-.28 0-.42 0-.527-.055a.5.5 0 01-.218-.218C5 12.62 5 12.48 5 12.2v-.4zm.054 4.473C5 16.38 5 16.52 5 16.8v.4c0 .28 0 .42.054.527a.5.5 0 00.219.218C5.38 18 5.52 18 5.8 18h.4c.28 0 .42 0 .527-.055a.5.5 0 00.218-.218C7 17.62 7 17.48 7 17.2v-.4c0-.28 0-.42-.054-.527a.5.5 0 00-.219-.218C6.62 16 6.48 16 6.2 16h-.4c-.28 0-.42 0-.527.055a.5.5 0 00-.218.218z"/>
</svg>
