<svg xmlns="http://www.w3.org/2000/svg" width="24" height="24" fill="currentColor" viewBox="0 0 24 24">
  <path fill-rule="evenodd" d="M10.367 1.25H15.633c1.092 0 1.958 0 2.655.057.714.058 1.317.18 1.869.46a4.75 4.75 0 012.075 2.077c.281.55.403 1.154.461 1.868.057.697.057 1.563.057 2.655v3.266c0 1.092 0 1.958-.057 2.655-.058.714-.18 1.317-.46 1.869a4.75 4.75 0 01-2.076 2.075c-.512.26-1.068.384-1.715.447a4.75 4.75 0 01-2.625 2.71c-.473.196-.981.28-1.577.321-.584.04-1.304.04-2.213.04H10.566c-1.651 0-2.937 0-3.968-.084-1.047-.086-1.897-.262-2.662-.652a6.75 6.75 0 01-2.95-2.95C.596 17.3.42 16.45.334 15.402.25 14.37.25 13.085.25 11.434V7a.75.75 0 011.5 0v4.4c0 1.692 0 2.917.08 3.88.077.954.228 1.585.492 2.104a5.25 5.25 0 002.295 2.294c.518.264 1.15.415 2.103.493.963.078 2.187.079 3.88.079H12c.942 0 1.611 0 2.138-.036.52-.036.845-.103 1.106-.211a3.25 3.25 0 001.496-1.256c-.34.003-.708.003-1.105.003H10.367c-1.092 0-1.958 0-2.655-.057-.714-.058-1.317-.18-1.868-.46a4.75 4.75 0 01-2.076-2.076c-.281-.552-.403-1.155-.461-1.869-.057-.697-.057-1.563-.057-2.655V8.367c0-1.092 0-1.958.057-2.655.058-.714.18-1.317.46-1.868a4.75 4.75 0 012.077-2.076c.55-.281 1.154-.403 1.868-.461.697-.057 1.563-.057 2.655-.057zM8.469 5.414a.75.75 0 10-.938 1.172l.834.666.168.135.023.018c.694.556 1.247.998 1.726 1.326.491.338.945.584 1.451.725a4.75 4.75 0 002.534 0c.506-.14.96-.387 1.451-.725.479-.328 1.032-.77 1.726-1.326l.023-.018.168-.135.833-.666a.75.75 0 10-.936-1.172l-.834.667-.169.135c-.721.577-1.232.985-1.66 1.279-.42.288-.718.436-1.002.515a3.25 3.25 0 01-1.734 0c-.284-.079-.583-.227-1.002-.515-.428-.294-.939-.702-1.66-1.28l-.17-.134-.832-.667z"/>
</svg>
