<svg xmlns="http://www.w3.org/2000/svg" width="24" height="24" fill="currentColor" viewBox="0 0 24 24">
  <path fill-rule="evenodd" d="M4.53.47a.75.75 0 010 1.06l-3 3A.75.75 0 01.47 3.47l3-3a.75.75 0 011.06 0zm7.47.78C6.063 1.25 1.25 6.063 1.25 12S6.063 22.75 12 22.75 22.75 17.937 22.75 12 17.937 1.25 12 1.25zm4.53 7.22a.75.75 0 010 1.06l-5 5a.75.75 0 01-1.06 0l-2-2a.75.75 0 111.06-1.06L11 12.94l4.47-4.47a.75.75 0 011.06 0zm2.94-6.94A.75.75 0 0120.53.47l3 3a.75.75 0 01-1.06 1.06l-3-3z"/>
</svg>
