<svg xmlns="http://www.w3.org/2000/svg" width="24" height="24" fill="currentColor" viewBox="0 0 24 24">
  <path fill-rule="evenodd" d="M12.728.82a2.75 2.75 0 00-1.456 0c-.68.187-1.158.705-1.566 1.314-.412.615-.846 1.47-1.377 2.53a.75.75 0 101.342.672c.544-1.088.933-1.847 1.281-2.367.353-.526.572-.663.717-.702.217-.06.445-.06.662 0 .153.042.384.19.762.77.37.57.787 1.4 1.38 2.588l.048.095.62-.31-.62.31.047.094c.267.534.477.954.804 1.277.221.218.478.397.76.53.416.195.883.247 1.476.312l.104.012c1.234.137 2.102.234 2.73.368.646.137.862.28.948.38.213.25.319.572.296.899-.009.131-.097.376-.534.87-.425.481-1.065 1.076-1.974 1.92a46.47 46.47 0 01-1.17 1.051.75.75 0 00.983 1.133c.41-.355.812-.716 1.207-1.084l.032-.03c.87-.808 1.566-1.453 2.046-1.996.474-.537.861-1.103.907-1.76a2.75 2.75 0 00-.652-1.976c-.428-.502-1.077-.726-1.777-.875-.71-.15-1.652-.255-2.833-.386l-.043-.005c-.748-.083-.947-.115-1.108-.19a1.25 1.25 0 01-.345-.242c-.127-.124-.225-.3-.562-.973l-.047-.095-.671.335.67-.335-.022-.045c-.566-1.132-1.02-2.04-1.443-2.69-.423-.65-.914-1.204-1.622-1.399zM3.53 2.47a.75.75 0 00-1.06 1.06l2.997 2.997c-.9.102-1.639.195-2.22.318-.7.149-1.35.373-1.778.875a2.75 2.75 0 00-.652 1.975c.046.658.433 1.224.907 1.76.48.544 1.176 1.19 2.046 1.998l.032.03.51-.55-.51.55.14.13c.61.566.766.726.853.897.085.169.13.354.134.543.003.191-.06.406-.336 1.19l-.013.039c-.406 1.156-.727 2.073-.908 2.787-.176.696-.271 1.38-.03 1.973a2.75 2.75 0 001.836 1.617c.62.166 1.285-.014 1.954-.277.686-.27 1.555-.704 2.65-1.252l.037-.018.645-.322c.713-.357.907-.441 1.096-.463.093-.01.187-.01.28 0 .19.022.384.106 1.096.463l.645.322.036.018c1.096.548 1.965.983 2.651 1.252.669.263 1.335.443 1.954.277a2.75 2.75 0 001.715-1.361l1.233 1.232a.75.75 0 001.06-1.06l-2.3-2.301L7.613 6.554 3.53 2.47z"/>
</svg>
