<svg xmlns="http://www.w3.org/2000/svg" width="24" height="24" fill="currentColor" viewBox="0 0 24 24">
  <path fill-rule="evenodd" d="M11.6 1.25h-.034c-1.651 0-2.937 0-3.968.084-1.047.086-1.897.262-2.662.652a6.75 6.75 0 00-2.95 2.95c-.39.765-.566 1.615-.652 2.662-.084 1.031-.084 2.317-.084 3.968V12.434c0 1.651 0 2.937.084 3.968.086 1.047.262 1.897.652 2.662a6.75 6.75 0 002.95 2.95c.765.39 1.615.566 2.662.652 1.031.084 2.317.084 3.968.084H12.434c1.652 0 2.937 0 3.968-.084 1.047-.086 1.897-.262 2.662-.652a6.75 6.75 0 002.95-2.95c.39-.765.566-1.615.652-2.662.084-1.031.084-2.317.084-3.968V11.566c0-1.651 0-2.937-.084-3.968-.086-1.047-.262-1.897-.652-2.662a6.75 6.75 0 00-2.95-2.95c-.765-.39-1.615-.566-2.662-.652-1.031-.084-2.317-.084-3.968-.084H11.6zm.4 8.5a2.25 2.25 0 100 4.5 2.25 2.25 0 000-4.5zM15.75 12a3.75 3.75 0 10-1.081 2.634c.306.455.815.816 1.531.816.94 0 1.604-.557 1.996-1.224.384-.653.554-1.467.554-2.226A6.75 6.75 0 1015 18.048a.75.75 0 00-.667-1.343A5.25 5.25 0 1117.25 12c0 .562-.13 1.097-.346 1.465-.208.353-.444.485-.704.485a.323.323 0 01-.177-.041.386.386 0 01-.122-.132 1.237 1.237 0 01-.151-.61V12z"/>
</svg>
