<svg xmlns="http://www.w3.org/2000/svg" width="24" height="24" fill="currentColor" viewBox="0 0 24 24">
  <path fill-rule="evenodd" d="M1.47 1.47a.75.75 0 011.06 0l3 3 14 14 2 2a.75.75 0 11-1.06 1.06l-1.78-1.78H8.366c-1.092 0-1.958 0-2.655-.057-.714-.058-1.317-.18-1.868-.46a4.75 4.75 0 01-2.076-2.077c-.281-.55-.403-1.154-.461-1.868-.057-.697-.057-1.563-.057-2.655V8A3.75 3.75 0 013.5 4.562L1.47 2.53a.75.75 0 010-1.06zM9.25 5a.75.75 0 01.75-.75h3.633c1.092 0 1.958 0 2.655.057.714.058 1.317.18 1.868.46a4.75 4.75 0 012.076 2.077c.247.485.371 1.01.437 1.616l.253.1a3.704 3.704 0 010 6.88l-.629.25a.74.74 0 01-.427.048.75.75 0 01-.616-.755V11.4c0-1.133 0-1.937-.052-2.566-.05-.62-.147-1.005-.302-1.31a3.25 3.25 0 00-1.42-1.42c-.305-.155-.69-.251-1.31-.302-.63-.051-1.434-.052-2.566-.052H10A.75.75 0 019.25 5zm11.5 8.846a2.204 2.204 0 00-.004-3.695c.004.371.004.775.004 1.216v2.479z"/>
</svg>
