<svg xmlns="http://www.w3.org/2000/svg" width="24" height="24" fill="currentColor" viewBox="0 0 24 24">
  <path fill-rule="evenodd" d="M8.367 2.25H15.633c1.092 0 1.958 0 2.655.057.714.058 1.317.18 1.869.46a4.75 4.75 0 012.075 2.077c.281.55.403 1.154.461 1.868.057.697.057 1.563.057 2.655V10.5a.75.75 0 01-.75.75h-2c-.471 0-.707 0-.854-.146C19 10.957 19 10.72 19 10.25V10c0-.932 0-1.398-.152-1.765a2 2 0 00-1.083-1.083C17.398 7 16.932 7 16 7c-.932 0-1.398 0-1.765.152a2 2 0 00-1.083 1.083C13 8.602 13 9.068 13 10v.25c0 .471 0 .707-.146.854-.147.146-.383.146-.854.146s-.707 0-.854-.146C11 10.957 11 10.72 11 10.25V10c0-.932 0-1.398-.152-1.765a2 2 0 00-1.083-1.083C9.398 7 8.932 7 8 7c-.932 0-1.398 0-1.765.152a2 2 0 00-1.083 1.083C5 8.602 5 9.068 5 10v.25c0 .471 0 .707-.146.854-.147.146-.383.146-.854.146H2a.75.75 0 01-.75-.75V9.367c0-1.092 0-1.958.057-2.655.058-.714.18-1.317.46-1.868a4.75 4.75 0 012.077-2.076c.55-.281 1.154-.403 1.868-.461.697-.057 1.563-.057 2.655-.057zM1.25 13a.75.75 0 01.75-.75h20a.75.75 0 01.75.75v4.937c0 .485 0 .89-.025 1.222-.025.345-.08.67-.223.983a2.75 2.75 0 01-1.36 1.36c-.313.142-.638.198-.983.223-.332.025-.737.025-1.221.025h-.127c-.555 0-.99 0-1.392-.124a2.75 2.75 0 01-1.166-.72c-.292-.304-.486-.694-.734-1.19l-.044-.089-.261-.523c-.346-.69-.447-.871-.575-.997a1.25 1.25 0 00-.467-.289c-.17-.058-.377-.068-1.15-.068h-2.044c-.773 0-.98.01-1.15.068a1.25 1.25 0 00-.467.289c-.128.126-.23.307-.575.997l-.261.523-.044.088c-.248.497-.443.887-.734 1.19a2.75 2.75 0 01-1.166.72c-.402.126-.837.125-1.392.125h-.126c-.485 0-.89 0-1.222-.025-.345-.025-.67-.08-.983-.223a2.75 2.75 0 01-1.36-1.36c-.142-.313-.198-.638-.223-.983a17.776 17.776 0 01-.025-1.221V13z"/>
</svg>
