<svg xmlns="http://www.w3.org/2000/svg" width="24" height="24" fill="currentColor" viewBox="0 0 24 24">
  <path fill-rule="evenodd" d="M8 1.25a.75.75 0 01.75.75v1.26c.476-.01 1.012-.01 1.617-.01h.883V2a.75.75 0 011.5 0v1.25h.883c.605 0 1.14 0 1.617.01V2a.75.75 0 011.5 0v1.357c.518.07.978.193 1.407.41a4.75 4.75 0 012.075 2.077c.219.428.34.888.412 1.406H22a.75.75 0 010 1.5h-1.26c.01.476.01 1.012.01 1.617v.883H22a.75.75 0 010 1.5h-1.25v.883c0 .605 0 1.14-.01 1.617H22a.75.75 0 010 1.5h-1.357c-.07.518-.192.978-.41 1.407a4.75 4.75 0 01-2.076 2.075c-.429.219-.889.34-1.407.412V22a.75.75 0 01-1.5 0v-1.26c-.476.01-1.012.01-1.617.01h-.883V22a.75.75 0 01-1.5 0v-1.25h-.883c-.605 0-1.141 0-1.617-.01V22a.75.75 0 01-1.5 0v-1.357c-.518-.07-.978-.192-1.406-.41a4.75 4.75 0 01-2.076-2.076c-.218-.429-.34-.889-.411-1.407H2a.75.75 0 010-1.5h1.26c-.01-.476-.01-1.012-.01-1.617v-.883H2a.75.75 0 010-1.5h1.25v-.883c0-.605 0-1.141.01-1.617H2a.75.75 0 010-1.5h1.357c.07-.518.193-.978.41-1.406a4.75 4.75 0 012.077-2.076c.428-.218.888-.34 1.406-.411V2A.75.75 0 018 1.25zm1.163 8.569C9 10.139 9 10.559 9 11.4v1.2c0 .84 0 1.26.163 1.581a1.5 1.5 0 00.656.655c.32.164.74.164 1.581.164h1.2c.84 0 1.26 0 1.581-.164a1.5 1.5 0 00.655-.655c.164-.32.164-.74.164-1.581v-1.2c0-.84 0-1.26-.164-1.581a1.5 1.5 0 00-.655-.656C13.861 9 13.441 9 12.6 9h-1.2c-.84 0-1.26 0-1.581.163a1.5 1.5 0 00-.656.656z"/>
</svg>
