<svg xmlns="http://www.w3.org/2000/svg" width="24" height="24" fill="currentColor" viewBox="0 0 24 24">
  <path fill-rule="evenodd" d="M21.39 6.752c.526-1.88.79-2.821.545-3.467a2.1 2.1 0 00-1.22-1.22c-.645-.244-1.586.019-3.467.546L7.76 5.267c-2.972.832-4.457 1.248-4.888 1.954a2.1 2.1 0 00-.094 2.013c.362.743 1.802 1.297 4.681 2.405l2.146.825c.376.144.809.06 1.094-.224l2.77-2.77a.75.75 0 011.06 1.06l-2.77 2.77a1.029 1.029 0 00-.224 1.094l.825 2.145c1.108 2.88 1.662 4.32 2.405 4.682a2.1 2.1 0 002.013-.095c.706-.43 1.122-1.916 1.954-4.887l2.656-9.487z"/>
</svg>
