<svg xmlns="http://www.w3.org/2000/svg" width="24" height="24" fill="currentColor" viewBox="0 0 24 24">
  <path fill-rule="evenodd" d="M9.966 1.25h4.068c1.371 0 2.447 0 3.311.07.88.073 1.607.221 2.265.557a5.75 5.75 0 012.513 2.513c.336.658.485 1.385.556 2.265.071.864.071 1.94.071 3.311v4.068c0 1.371 0 2.447-.07 3.311-.072.88-.221 1.607-.557 2.265a5.75 5.75 0 01-2.513 2.513c-.658.336-1.385.485-2.265.556-.864.071-1.94.071-3.311.071H9.966c-1.371 0-2.447 0-3.311-.07-.88-.072-1.607-.221-2.265-.557a5.75 5.75 0 01-2.513-2.513c-.336-.658-.484-1.385-.556-2.265-.071-.864-.071-1.94-.071-3.311V9.966c0-1.371 0-2.447.07-3.311.073-.88.221-1.607.557-2.265A5.75 5.75 0 014.39 1.877c.658-.336 1.385-.484 2.265-.556.864-.071 1.94-.071 3.311-.071zm1.511 5.361a2.492 2.492 0 013.495 3.495.75.75 0 001.186.918 3.991 3.991 0 00-5.6-5.598.75.75 0 00.92 1.185zM7.53 5.47a.75.75 0 00-1.06 1.06L7.94 8l-.97.97a5.7 5.7 0 008.06 8.06l.97-.97 1.47 1.47a.75.75 0 101.06-1.06l-2-2-2.352-2.352L11.78 9.72 9.53 7.47l-2-2zm.5 4.56L9 9.06l1.19 1.19-.993.993a2.485 2.485 0 103.578 3.448l.893-.962L14.94 15l-.97.97a4.2 4.2 0 01-5.939-5.94zm2.227 2.273l.993-.992 1.357 1.356-.931 1.003a.985.985 0 11-1.419-1.367zm9.273.227a.75.75 0 00-1.06-1.06l-1 1a.75.75 0 101.06 1.06l1-1z"/>
</svg>
