<svg xmlns="http://www.w3.org/2000/svg" width="24" height="24" fill="currentColor" viewBox="0 0 24 24">
  <path fill-rule="evenodd" d="M7.5 7.25h9c.624 0 1.055 0 1.457.089a3.75 3.75 0 012.101 1.299c.26.32.452.704.73 1.263l.038.075.255.508.014.03c.25.498.392.783.512 1.072.223.54.39 1.097.501 1.664H18.62c-.535 0-.955 0-1.348.119a2.748 2.748 0 00-.947.507c-.317.26-.55.61-.846 1.055l-.052.078-.1.15c-.373.56-.48.705-.603.807a1.252 1.252 0 01-.43.23c-.153.046-.333.054-1.006.054h-2.575c-.672 0-.853-.008-1.005-.054a1.252 1.252 0 01-.43-.23c-.124-.101-.23-.247-.603-.807l-.1-.15-.052-.078c-.296-.445-.529-.795-.846-1.055a2.748 2.748 0 00-.947-.507c-.394-.12-.814-.12-1.348-.119H1.892a8.748 8.748 0 01.501-1.664c.12-.29.263-.574.512-1.073l.014-.029.255-.508.037-.075c.28-.559.472-.944.73-1.264A3.75 3.75 0 016.044 7.34c.402-.09.833-.09 1.457-.089zm-5.77 7.5a8.748 8.748 0 00.13 1.692c.054.308.132.617.267 1.158l.008.031.015.062c.167.666.268 1.074.41 1.432a5.75 5.75 0 004.578 3.574c.382.051.802.051 1.49.051h6.745c.687 0 1.107 0 1.489-.051a5.75 5.75 0 004.577-3.574c.142-.358.244-.766.41-1.432l.016-.062.008-.031c.135-.54.212-.85.267-1.158a8.743 8.743 0 00.13-1.692h-3.558c-.672 0-.853.008-1.005.054a1.252 1.252 0 00-.43.23c-.124.101-.23.247-.603.807l-.1.15-.052.078c-.296.445-.529.795-.846 1.056-.28.23-.601.401-.947.506-.394.12-.814.12-1.348.119h-2.762c-.535 0-.955 0-1.348-.119a2.748 2.748 0 01-.947-.506c-.317-.261-.55-.611-.846-1.056l-.052-.078-.1-.15c-.373-.56-.48-.705-.603-.807a1.252 1.252 0 00-.43-.23c-.153-.046-.333-.054-1.006-.054H1.731zm9.74-13.28a.75.75 0 011.06 0l3 3a.75.75 0 01-1.06 1.06l-1.72-1.72V11a.75.75 0 01-1.5 0V3.81L9.53 5.53a.75.75 0 01-1.06-1.06l3-3z"/>
</svg>
