<svg xmlns="http://www.w3.org/2000/svg" width="24" height="24" fill="currentColor" viewBox="0 0 24 24">
  <path fill-rule="evenodd" d="M11.778 2.75c.688 0 1.133.001 1.472.022v1.28c0 .899 0 1.648.08 2.243.084.627.27 1.194.726 1.65.455.455 1.022.64 1.65.725.594.08 1.343.08 2.242.08h1.272c.028.42.03.968.03 1.786V16a.75.75 0 001.5 0V10.418c0-1.33 0-2.15-.22-2.924a5.75 5.75 0 00-.505-1.22c-.391-.703-.971-1.282-1.912-2.223l-.083-.082-.222-.222-.064-.065c-.74-.739-1.194-1.194-1.726-1.533a5.75 5.75 0 00-1.844-.764c-.616-.136-1.26-.136-2.304-.136h-.122c-1.27 0-2.265 0-3.067.06-.816.063-1.493.19-2.111.479a.75.75 0 00.634 1.36c.386-.18.86-.287 1.59-.343.739-.055 1.677-.056 2.984-.056zm6.936 4.255c.045.08.087.162.126.245H18c-.964 0-1.612-.002-2.095-.066-.461-.063-.659-.17-.789-.3-.13-.13-.237-.328-.3-.79-.064-.482-.066-1.13-.066-2.094v-.84c.159.075.313.16.462.256.377.24.712.569 1.536 1.393l.222.221c1.05 1.05 1.467 1.477 1.744 1.975zM1.47 1.47a.75.75 0 011.06 0l2.61 2.609L19.921 18.86l2.608 2.609a.75.75 0 11-1.06 1.06l-1.962-1.961a5.75 5.75 0 01-1.898 1.554c-.658.336-1.385.485-2.265.556-.864.071-1.94.071-3.311.071h-.068c-1.371 0-2.447 0-3.311-.07-.88-.072-1.607-.221-2.265-.557a5.75 5.75 0 01-2.513-2.513c-.336-.658-.484-1.385-.556-2.265-.071-.864-.071-1.94-.071-3.311V9.748c0-1.27 0-2.265.06-3.067.056-.731.164-1.35.394-1.916L1.47 2.53a.75.75 0 010-1.06z"/>
</svg>
