<svg xmlns="http://www.w3.org/2000/svg" width="24" height="24" fill="currentColor" viewBox="0 0 24 24">
  <path fill-rule="evenodd" d="M4.53.47a.75.75 0 010 1.06l-3 3A.75.75 0 01.47 3.47l3-3a.75.75 0 011.06 0zm7.47.78C6.063 1.25 1.25 6.063 1.25 12S6.063 22.75 12 22.75 22.75 17.937 22.75 12 17.937 1.25 12 1.25zM8.47 8.47a.75.75 0 011.06 0L12 10.94l2.47-2.47a.75.75 0 111.06 1.06L13.06 12l2.47 2.47a.75.75 0 11-1.06 1.06L12 13.06l-2.47 2.47a.75.75 0 01-1.06-1.06L10.94 12 8.47 9.53a.75.75 0 010-1.06zm11-6.94A.75.75 0 0120.53.47l3 3a.75.75 0 01-1.06 1.06l-3-3z"/>
</svg>
