<svg xmlns="http://www.w3.org/2000/svg" width="24" height="24" fill="currentColor" viewBox="0 0 24 24">
  <path fill-rule="evenodd" d="M12 1.25C6.063 1.25 1.25 6.063 1.25 12S6.063 22.75 12 22.75 22.75 17.937 22.75 12 17.937 1.25 12 1.25zM8.076 8.617C8 8.801 8 9.034 8 9.5v5c0 .466 0 .699.076.883a1 1 0 00.541.54c.184.077.417.077.883.077s.699 0 .883-.076a1 1 0 00.54-.541c.077-.184.077-.417.077-.883v-5c0-.466 0-.699-.076-.883a1 1 0 00-.541-.54C10.199 8 9.966 8 9.5 8s-.699 0-.883.076a1 1 0 00-.54.541zM13 9.5c0-.466 0-.699.076-.883a1 1 0 01.541-.54C13.801 8 14.034 8 14.5 8s.699 0 .883.076a1 1 0 01.54.541c.077.184.077.417.077.883v5c0 .466 0 .699-.076.883a1 1 0 01-.541.54c-.184.077-.417.077-.883.077s-.699 0-.883-.076a1 1 0 01-.54-.541C13 15.199 13 14.966 13 14.5v-5z"/>
</svg>
