<svg xmlns="http://www.w3.org/2000/svg" width="24" height="24" fill="currentColor" viewBox="0 0 24 24">
  <path fill-rule="evenodd" d="M7.8 1.25h-.032c-.813 0-1.469 0-2 .043-.546.045-1.026.14-1.47.366a3.75 3.75 0 00-1.64 1.639c-.226.444-.32.924-.365 1.47-.043.531-.043 1.187-.043 2v3.266c0 1.371 0 2.447.07 3.311.073.88.221 1.607.557 2.265a5.75 5.75 0 002.513 2.513c.658.336 1.385.485 2.265.556.864.071 1.94.071 3.311.071h.068c1.371 0 2.447 0 3.311-.07.88-.072 1.607-.221 2.265-.557a5.75 5.75 0 002.513-2.513c.283-.555.433-1.159.517-1.863.185-.002.354-.007.505-.018.317-.021.617-.068.907-.188a2.75 2.75 0 001.489-1.489c.12-.29.167-.59.188-.907.021-.304.021-.675.021-1.12V8.975c0-.445 0-.816-.02-1.12a2.824 2.824 0 00-.19-.907 2.75 2.75 0 00-1.488-1.489c-.29-.12-.59-.167-.907-.188a8.625 8.625 0 00-.41-.017 10.817 10.817 0 00-.028-.485c-.045-.547-.14-1.027-.366-1.471a3.75 3.75 0 00-1.639-1.64c-.444-.226-.924-.32-1.47-.365-.531-.043-1.187-.043-2-.043H7.8zm11.95 5.505v3.279c0 .842 0 1.573-.016 2.211.116-.002.217-.006.31-.012.24-.017.357-.046.434-.078.307-.127.55-.37.677-.677.032-.077.061-.194.078-.435.017-.247.017-.567.017-1.043V9c0-.476 0-.796-.017-1.043-.017-.241-.046-.358-.078-.435a1.25 1.25 0 00-.677-.677c-.077-.032-.194-.061-.435-.078a6.615 6.615 0 00-.293-.012zM1.25 22a.75.75 0 01.75-.75h18a.75.75 0 010 1.5H2a.75.75 0 01-.75-.75z"/>
</svg>
