<svg xmlns="http://www.w3.org/2000/svg" width="24" height="24" fill="currentColor" viewBox="0 0 24 24">
  <path fill-rule="evenodd" d="M13.566 2.59c-.404.247-.75.593-1.441 1.285L7 9c-1.09 1.09-1.636 1.636-1.927 2.224a4 4 0 00.092 3.722c.426.727.64 1.09 1.126 1.153.487.062.858-.31 1.6-1.052l.579-.577a.75.75 0 011.06 1.06l-.577.578c-.743.742-1.114 1.114-1.052 1.6.063.488.426.7 1.152 1.127a4 4 0 003.723.092C13.364 18.636 13.91 18.09 15 17l5.125-5.126c.692-.691 1.037-1.037 1.285-1.44.22-.359.38-.749.479-1.157.11-.46.11-.95.11-1.928V6.8c0-1.68 0-2.52-.327-3.162a3 3 0 00-1.31-1.311C19.718 2 18.878 2 17.198 2h-.549c-.978 0-1.467 0-1.928.11a4 4 0 00-1.156.48zM17.002 9a2 2 0 11-4 0 2 2 0 014 0zM5.46 8.54c-.34.341-.51.511-.71.587a1 1 0 01-.554.046c-.21-.042-.406-.182-.798-.462l-.86-.614c-.528-.378-.793-.567-.904-.809a1 1 0 01-.056-.678c.07-.257.3-.487.759-.947l.348-.348c.664-.664.996-.996 1.39-1.206a3 3 0 011.12-.34c.444-.042.905.05 1.825.234l1.015.203c.476.095.715.143.826.268a.5.5 0 01.121.4c-.023.167-.195.339-.538.682L5.46 8.54zm13.225 12.776c.664-.665.996-.997 1.206-1.39a3 3 0 00.34-1.121c.043-.444-.05-.904-.233-1.825l-.204-1.015c-.095-.476-.143-.714-.268-.826a.5.5 0 00-.4-.121c-.167.023-.339.195-.682.538l-2.984 2.984c-.34.341-.51.511-.587.711a1 1 0 00-.046.553c.043.21.183.406.463.798l.614.86c.378.529.566.793.809.904a1 1 0 00.678.056c.257-.07.487-.3.946-.759l.348-.347z"/>
</svg>
