<svg xmlns="http://www.w3.org/2000/svg" width="24" height="24" fill="currentColor" viewBox="0 0 24 24">
  <path fill-rule="evenodd" d="M8.412 1.25c.71 0 1.199 0 1.653.114a3.75 3.75 0 011.922 1.188c.305.355.524.792.841 1.427l.043.086c.218.436.304.6.379.702V7a2.75 2.75 0 005.5 0V5.38c.677.096 1.264.273 1.791.607a4.75 4.75 0 011.472 1.471c.399.63.573 1.344.656 2.195.081.832.081 1.871.081 3.182v1.221c0 1.838 0 3.294-.153 4.433-.158 1.172-.49 2.121-1.238 2.87-.749.748-1.698 1.08-2.87 1.238-1.14.153-2.595.153-4.433.153H9.944c-1.838 0-3.294 0-4.433-.153-1.172-.158-2.121-.49-2.87-1.238-.748-.749-1.08-1.698-1.238-2.87-.153-1.14-.153-2.595-.153-4.433v-6.54c0-1.163 0-2.101.086-2.848.09-.773.28-1.435.727-2a3.75 3.75 0 01.606-.605c.564-.448 1.226-.638 1.999-.727.747-.086 1.685-.086 2.848-.086h.896zm8.838 4.018a75.078 75.078 0 00-2.086-.018h-.415V7a1.25 1.25 0 002.5 0V5.268zM16 12.25a.75.75 0 01.75.75v1a.75.75 0 11-1.5 0v-1a.75.75 0 01.75-.75zm.75 4.75a.75.75 0 10-1.5 0v1a.75.75 0 101.5 0v-1z"/>
</svg>
