<svg xmlns="http://www.w3.org/2000/svg" width="24" height="24" fill="currentColor" viewBox="0 0 24 24">
  <path fill-rule="evenodd" d="M11.566 1.25H12.434c1.651 0 2.937 0 3.968.084 1.047.086 1.897.262 2.662.652a6.75 6.75 0 012.95 2.95c.39.765.566 1.615.652 2.662.084 1.031.084 2.317.084 3.968V12.434c0 1.651 0 2.937-.084 3.968-.086 1.047-.262 1.897-.652 2.662a6.75 6.75 0 01-2.95 2.95c-.765.39-1.615.566-2.662.652-1.031.084-2.317.084-3.968.084H11.566c-1.651 0-2.937 0-3.968-.084-1.047-.086-1.897-.262-2.662-.652a6.75 6.75 0 01-2.95-2.95c-.39-.765-.566-1.615-.652-2.662-.084-1.031-.084-2.317-.084-3.968V11.566c0-1.651 0-2.937.084-3.968.086-1.047.262-1.897.652-2.662a6.75 6.75 0 012.95-2.95c.765-.39 1.615-.566 2.662-.652 1.031-.084 2.317-.084 3.968-.084zM8.85 6.663a.75.75 0 00-.7-1.326C5.824 6.565 4.25 9.099 4.25 12c0 2.9 1.574 5.435 3.9 6.663a.75.75 0 00.7-1.326c-1.823-.963-3.1-2.98-3.1-5.337 0-2.358 1.277-4.374 3.1-5.337zm7-1.326a.75.75 0 00-.7 1.326c1.823.963 3.1 2.98 3.1 5.337 0 2.357-1.277 4.374-3.1 5.337a.75.75 0 00.7 1.326c2.326-1.228 3.9-3.762 3.9-6.663 0-2.9-1.574-5.435-3.9-6.663zM9.817 9.573a.75.75 0 00-.968-1.146C7.864 9.26 7.25 10.562 7.25 12c0 1.438.614 2.74 1.599 3.573a.75.75 0 10.968-1.146C9.183 13.891 8.75 13.015 8.75 12c0-1.015.433-1.891 1.067-2.427zm5.334-1.146a.75.75 0 10-.968 1.146c.634.536 1.067 1.412 1.067 2.427 0 1.015-.433 1.891-1.067 2.427a.75.75 0 00.968 1.146c.985-.833 1.599-2.135 1.599-3.573 0-1.438-.614-2.74-1.599-3.573zM13.5 12a1.5 1.5 0 11-3 0 1.5 1.5 0 013 0z"/>
</svg>
