<svg xmlns="http://www.w3.org/2000/svg" width="24" height="24" fill="currentColor" viewBox="0 0 24 24">
  <path fill-rule="evenodd" d="M5 3h14a3 3 0 013 3v2.743a.257.257 0 01-.257.257A2.743 2.743 0 0019 11.743v.514A2.743 2.743 0 0021.743 15c.142 0 .257.115.257.257V18a3 3 0 01-3 3H5a3 3 0 01-3-3v-2.743c0-.142.115-.257.257-.257A2.743 2.743 0 005 12.257v-.514A2.743 2.743 0 002.257 9 .257.257 0 012 8.743V6a3 3 0 013-3zm4.75 8a.75.75 0 00-1.5 0v2a.75.75 0 001.5 0v-2zm-1.5-4V5h1.5v2a.75.75 0 01-1.5 0zm1.5 10a.75.75 0 00-1.5 0v2h1.5v-2z"/>
</svg>
