<svg xmlns="http://www.w3.org/2000/svg" width="24" height="24" fill="currentColor" viewBox="0 0 24 24">
  <path fill-rule="evenodd" d="M12 2.25h-.028c-1.374 0-2.444 0-3.306.059-.875.06-1.591.182-2.25.455a6.75 6.75 0 00-3.652 3.653c-.273.658-.395 1.374-.455 2.249-.059.862-.059 1.932-.059 3.306v.056c0 1.374 0 2.444.059 3.306.06.875.182 1.591.455 2.25a6.75 6.75 0 003.653 3.652c.658.273 1.374.395 2.249.455.862.059 1.932.059 3.306.059h.056c1.374 0 2.444 0 3.306-.059.875-.06 1.591-.182 2.25-.455a6.75 6.75 0 003.652-3.653c.273-.658.395-1.374.455-2.249.059-.862.059-1.932.059-3.306v-.056c0-1.374 0-2.444-.059-3.306-.06-.875-.182-1.591-.455-2.25a6.75 6.75 0 00-3.653-3.652c-.658-.273-1.374-.395-2.249-.455-.862-.059-1.932-.059-3.306-.059H12zm11.53.22a.75.75 0 010 1.06l-11 11a.75.75 0 01-1.06 0l-3-3a.75.75 0 111.06-1.06L12 12.94 22.47 2.47a.75.75 0 011.06 0z"/>
</svg>
