<svg xmlns="http://www.w3.org/2000/svg" width="24" height="24" fill="currentColor" viewBox="0 0 24 24">
  <path fill-rule="evenodd" d="M11.2.25h-.03c-.535 0-.98 0-1.345.03-.38.03-.736.098-1.073.27A2.75 2.75 0 007.55 1.752c-.172.337-.24.693-.27 1.073-.03.365-.03.81-.03 1.345V4.483a9.747 9.747 0 00-5 8.517c0 5.385 4.365 9.75 9.75 9.75s9.75-4.365 9.75-9.75c0-3.66-2.017-6.85-5-8.517V4.17c0-.535 0-.98-.03-1.345-.03-.38-.098-.736-.27-1.073A2.75 2.75 0 0015.25.55c-.338-.172-.694-.24-1.074-.27-.365-.03-.81-.03-1.345-.03H11.2zm.8 3c1.14 0 2.233.195 3.25.555a11.55 11.55 0 00-.025-.858c-.023-.287-.065-.424-.111-.514a1.25 1.25 0 00-.546-.547c-.091-.046-.228-.088-.515-.111-.296-.024-.68-.025-1.253-.025h-1.6c-.572 0-.957 0-1.253.025-.287.023-.424.065-.514.111a1.25 1.25 0 00-.547.547c-.046.09-.088.227-.111.514-.018.222-.023.494-.025.858A9.734 9.734 0 0112 3.25zM8.75 14a.75.75 0 00-1.5 0A4.75 4.75 0 0012 18.75a.75.75 0 000-1.5A3.25 3.25 0 018.75 14z"/>
</svg>
