<svg xmlns="http://www.w3.org/2000/svg" width="24" height="24" fill="currentColor" viewBox="0 0 24 24">
  <path fill-rule="evenodd" d="M9.966 1.25h4.068c1.371 0 2.447 0 3.311.07.88.073 1.607.221 2.265.557a5.75 5.75 0 012.513 2.513c.336.658.485 1.385.556 2.265.071.864.071 1.94.071 3.311v4.068c0 1.371 0 2.447-.07 3.311-.072.88-.221 1.607-.557 2.265a5.75 5.75 0 01-2.513 2.513c-.658.336-1.385.485-2.265.556-.864.071-1.94.071-3.311.071h-.186a1.098 1.098 0 01-1.098-1.099c0-5.744-4.657-10.401-10.402-10.401a1.098 1.098 0 01-1.098-1.098v-.186c0-1.371 0-2.447.07-3.311.073-.88.221-1.607.557-2.265A5.75 5.75 0 014.39 1.877c.658-.336 1.385-.484 2.265-.556.864-.071 1.94-.071 3.311-.071zM2 23a1 1 0 100-2 1 1 0 000 2zm-.75-9a.75.75 0 01.75-.75c4.767 0 8.75 4.03 8.75 8.75a.75.75 0 01-1.5 0c0-3.896-3.316-7.25-7.25-7.25a.75.75 0 01-.75-.75zM2 17.25a.75.75 0 000 1.5c1.758 0 3.25 1.508 3.25 3.25a.75.75 0 001.5 0c0-2.566-2.158-4.75-4.75-4.75z"/>
</svg>
