<svg xmlns="http://www.w3.org/2000/svg" width="24" height="24" fill="currentColor" viewBox="0 0 24 24">
  <path fill-rule="evenodd" d="M8 .25a.75.75 0 01.75.75v.282c.908-.032 1.967-.032 3.212-.032h.076c1.245 0 2.303 0 3.212.032V1a.75.75 0 011.5 0v.384c1.023.115 1.869.334 2.625.77a6.75 6.75 0 012.47 2.471c.48.83.696 1.767.802 2.927.103 1.143.103 2.573.103 4.41v.076c0 1.837 0 3.267-.104 4.41-.105 1.16-.322 2.098-.8 2.927a6.752 6.752 0 01-2.471 2.47c-.83.48-1.767.696-2.927.802-1.143.103-2.573.103-4.41.103h-.076c-1.837 0-3.267 0-4.41-.104-1.16-.105-2.098-.322-2.927-.8a6.75 6.75 0 01-2.47-2.471c-.48-.83-.696-1.767-.801-2.927-.104-1.143-.104-2.573-.104-4.41v-.076c0-1.837 0-3.267.104-4.41.105-1.16.322-2.098.8-2.927a6.75 6.75 0 012.471-2.47c.756-.437 1.602-.656 2.625-.77V1A.75.75 0 018 .25zm4.47 8.22a.75.75 0 011.06 0l3 3a.75.75 0 010 1.06l-3 3a.75.75 0 11-1.06-1.06l1.72-1.72H8a.75.75 0 010-1.5h6.19l-1.72-1.72a.75.75 0 010-1.06z"/>
</svg>
