<svg xmlns="http://www.w3.org/2000/svg" width="24" height="24" fill="currentColor" viewBox="0 0 24 24">
  <path fill-rule="evenodd" d="M11.966 1.25h.068c1.371 0 2.447 0 3.311.07.88.073 1.607.221 2.265.557a5.75 5.75 0 012.513 2.513c.336.658.485 1.385.556 2.265.071.864.071 1.94.071 3.311V22a.75.75 0 01-1.085.67l-2.276-1.137c-2.138-1.069-3.079-1.532-4.052-1.714a7.249 7.249 0 00-2.674 0c-.973.182-1.914.645-4.052 1.714l-2.276 1.138A.75.75 0 013.25 22V9.966c0-1.371 0-2.447.07-3.311.073-.88.221-1.607.557-2.265A5.75 5.75 0 016.39 1.877c.658-.336 1.385-.484 2.265-.556.864-.071 1.94-.071 3.311-.071zm4.064 7.28a.75.75 0 00-1.06-1.06L11 11.44 9.53 9.97a.75.75 0 00-1.06 1.06l2 2a.75.75 0 001.06 0l4.5-4.5z"/>
</svg>
