<svg xmlns="http://www.w3.org/2000/svg" width="24" height="24" fill="currentColor" viewBox="0 0 24 24">
  <path fill-rule="evenodd" d="M10.778 3.141a2.75 2.75 0 013.605 1.092c.234.405.3.962.333 1.547.034.619.034 1.445.034 2.502v7.435c0 1.057 0 1.884-.034 2.502-.033.585-.1 1.142-.333 1.547a2.75 2.75 0 01-3.605 1.092c-.419-.208-.783-.635-1.134-1.103-.372-.496-.83-1.183-1.417-2.063l-.014-.021c-.254-.381-.326-.482-.403-.558a1.25 1.25 0 00-.63-.338c-.107-.022-.23-.025-.688-.025h-.608c-.818 0-1.376 0-1.855-.128a3.75 3.75 0 01-2.651-2.652c-.128-.479-.128-1.037-.128-1.855v-.231c0-.818 0-1.376.128-1.855a3.75 3.75 0 012.651-2.652c.48-.128 1.037-.128 1.855-.127h.608c.458 0 .581-.004.687-.026a1.25 1.25 0 00.631-.337c.077-.076.149-.177.403-.558l.014-.022c.587-.88 1.045-1.567 1.417-2.062.351-.47.715-.896 1.134-1.104zM17.53 9.47a.75.75 0 00-1.06 1.06l1.97 1.97-1.97 1.97a.75.75 0 101.06 1.06l1.97-1.97 1.97 1.97a.75.75 0 001.06-1.06l-1.97-1.97 1.97-1.97a.75.75 0 10-1.06-1.06l-1.97 1.97-1.97-1.97z"/>
</svg>
