<svg xmlns="http://www.w3.org/2000/svg" width="24" height="24" fill="currentColor" viewBox="0 0 24 24">
  <path fill-rule="evenodd" d="M9.966 1.25h4.068c1.371 0 2.447 0 3.311.07.88.073 1.607.221 2.265.557a5.75 5.75 0 012.513 2.513c.336.658.485 1.385.556 2.265.071.864.071 1.94.071 3.311v4.068c0 1.371 0 2.447-.07 3.311-.072.88-.221 1.607-.557 2.265a5.75 5.75 0 01-2.513 2.513c-.658.336-1.385.485-2.265.556-.864.071-1.94.071-3.311.071H9.966c-1.371 0-2.447 0-3.311-.07-.88-.072-1.607-.221-2.265-.557a5.75 5.75 0 01-2.513-2.513c-.336-.658-.484-1.385-.556-2.265-.071-.864-.071-1.94-.071-3.311V9.966c0-1.371 0-2.447.07-3.311.073-.88.221-1.607.557-2.265A5.75 5.75 0 014.39 1.877c.658-.336 1.385-.484 2.265-.556.864-.071 1.94-.071 3.311-.071zm2.034 4A6.737 6.737 0 005.25 12a.75.75 0 001.5 0A5.237 5.237 0 0112 6.75c1.794 0 3 .667 3.762 1.32.07.06.137.12.2.18H15a.75.75 0 000 1.5h2.5a.75.75 0 00.75-.75V6.5a.75.75 0 00-1.5 0v.44l-.012-.01C15.75 6.084 14.206 5.25 12 5.25zM18.75 12a.75.75 0 00-1.5 0c0 2.9-2.35 5.25-5.25 5.25-1.427 0-2.642-.647-3.531-1.341a8.158 8.158 0 01-.197-.159H9a.75.75 0 000-1.5H6.5a.75.75 0 00-.75.75v2.5a.75.75 0 001.5 0v-.65c.094.08.193.16.296.241 1.033.806 2.567 1.659 4.454 1.659A6.75 6.75 0 0018.75 12z"/>
</svg>
