<svg xmlns="http://www.w3.org/2000/svg" width="24" height="24" fill="currentColor" viewBox="0 0 24 24">
  <path fill-rule="evenodd" d="M15.261 10.258c-.646.54-.97.808-1.111 1.12a1.5 1.5 0 000 1.245c.142.31.465.58 1.111 1.119l.22.182.6.5.015.013c.817.68 1.45 1.209 1.913 1.632.45.413.817.793 1.022 1.183a3.75 3.75 0 01-1.888 5.215c-.407.168-.932.226-1.542.254-.627.029-1.451.029-2.514.029H11.97c-1.494 0-2.653 0-3.527-.056-.851-.056-1.58-.169-2.112-.494a3.75 3.75 0 01-1.595-4.407c.2-.59.688-1.144 1.306-1.731.636-.603 1.526-1.345 2.673-2.301l.024-.02c.646-.538.97-.807 1.111-1.118a1.5 1.5 0 000-1.246c-.142-.31-.465-.58-1.111-1.119l-.22-.182-.6-.5-.016-.014c-.816-.68-1.45-1.208-1.912-1.631-.45-.413-.817-.793-1.022-1.183a3.75 3.75 0 011.888-5.215c.407-.168.932-.226 1.542-.254.627-.029 1.451-.029 2.514-.029h1.117c1.494 0 2.653 0 3.527.057.851.055 1.58.168 2.112.493a3.75 3.75 0 011.595 4.407c-.2.59-.688 1.144-1.306 1.731-.636.603-1.526 1.345-2.673 2.301l-.024.02z"/>
</svg>
