<svg xmlns="http://www.w3.org/2000/svg" width="24" height="24" fill="currentColor" viewBox="0 0 24 24">
  <path fill-rule="evenodd" d="M9.966 1.25h4.068c1.371 0 2.447 0 3.311.07.88.073 1.607.221 2.265.557a5.75 5.75 0 012.513 2.513c.336.658.485 1.385.556 2.265.071.864.071 1.94.071 3.311v4.068c0 1.371 0 2.447-.07 3.311-.072.88-.221 1.607-.557 2.265a5.75 5.75 0 01-2.513 2.513c-.658.336-1.385.485-2.265.556-.864.071-1.94.071-3.311.071H9.966c-1.371 0-2.447 0-3.311-.07-.88-.072-1.607-.221-2.265-.557a5.75 5.75 0 01-2.513-2.513c-.336-.658-.484-1.385-.556-2.265-.071-.864-.071-1.94-.071-3.311V9.966c0-1.371 0-2.447.07-3.311.073-.88.221-1.607.557-2.265A5.75 5.75 0 014.39 1.877c.658-.336 1.385-.484 2.265-.556.864-.071 1.94-.071 3.311-.071zM7 17.25a.75.75 0 000 1.5h10a.75.75 0 000-1.5H7zm0-12h10a.75.75 0 010 1.5H7a.75.75 0 010-1.5zm5.67 3.415a.75.75 0 00-1.34 0l-1.8 3.6-1.2 2.4a.75.75 0 101.34.67l.838-1.675c.377.159.875.29 1.492.29a3.81 3.81 0 001.492-.29l.837 1.675a.75.75 0 101.342-.67l-1.2-2.4-1.8-3.6zM12 12.45a2.37 2.37 0 01-.818-.136L12 10.677l.818 1.637a2.37 2.37 0 01-.818.136z"/>
</svg>
