<svg xmlns="http://www.w3.org/2000/svg" width="24" height="24" fill="currentColor" viewBox="0 0 24 24">
  <path fill-rule="evenodd" d="M6.8 1.25h-.032c-.813 0-1.469 0-2 .043-.546.045-1.026.14-1.47.366a3.75 3.75 0 00-1.64 1.639c-.226.444-.32.924-.365 1.47-.043.531-.043 1.187-.043 2V7a.75.75 0 101.5 0v-.2c0-.852 0-1.447.038-1.91.037-.453.106-.714.207-.911a2.25 2.25 0 01.983-.984c.198-.1.459-.17.913-.207.462-.037 1.056-.038 1.909-.038H7a.75.75 0 000-1.5h-.2zm10.4 1.5c.852 0 1.447 0 1.91.038.453.037.714.107.911.207.424.216.768.56.984.984.1.197.17.458.207.912.037.462.038 1.057.038 1.909V7a.75.75 0 001.5 0v-.232c0-.813 0-1.469-.044-2-.044-.546-.139-1.026-.365-1.47a3.75 3.75 0 00-1.639-1.64c-.444-.226-.924-.32-1.47-.365-.532-.043-1.187-.043-2-.043H17a.75.75 0 000 1.5h.2zM2.75 17a.75.75 0 00-1.5 0v.232c0 .813 0 1.469.043 2 .045.546.14 1.026.366 1.47a3.75 3.75 0 001.638 1.64c.445.226.925.32 1.471.365.531.043 1.187.043 2 .043H7a.75.75 0 000-1.5h-.2c-.853 0-1.447 0-1.91-.038-.453-.038-.714-.107-.912-.207a2.25 2.25 0 01-.983-.983c-.1-.198-.17-.459-.207-.913-.038-.462-.038-1.057-.038-1.909V17zm20 0a.75.75 0 00-1.5 0v.2c0 .852 0 1.447-.038 1.91-.038.453-.107.714-.207.912a2.25 2.25 0 01-.984.983c-.197.1-.458.17-.912.207-.462.037-1.057.038-1.91.038H17a.75.75 0 000 1.5h.233c.813 0 1.468 0 2-.043.546-.045 1.026-.14 1.47-.366a3.751 3.751 0 001.64-1.639c.226-.444.32-.924.364-1.47.044-.531.044-1.187.044-2V17zM9.2 6.25h-.03c-.535 0-.98 0-1.345.03-.38.03-.736.098-1.074.27A2.75 2.75 0 005.55 7.752c-.172.337-.24.693-.27 1.073-.03.365-.03.81-.03 1.345v.08h13.5v-.08c0-.535 0-.98-.03-1.345-.03-.38-.098-.736-.27-1.073a2.75 2.75 0 00-1.202-1.202c-.337-.172-.694-.24-1.074-.27-.364-.03-.81-.03-1.344-.03H9.2zM5.25 13.8v-2.05h13.5V13.83c0 .535 0 .98-.03 1.345-.03.38-.098.736-.27 1.073a2.75 2.75 0 01-1.202 1.202c-.337.172-.694.24-1.074.27-.364.03-.81.03-1.344.03H9.17c-.535 0-.98 0-1.345-.03-.38-.03-.736-.098-1.074-.27A2.75 2.75 0 015.55 16.25c-.172-.338-.24-.694-.27-1.074-.03-.365-.03-.81-.03-1.345v-.03z"/>
</svg>
