<svg xmlns="http://www.w3.org/2000/svg" width="24" height="24" fill="currentColor" viewBox="0 0 24 24">
  <path fill-rule="evenodd" d="M11.966 1.25h.068c1.371 0 2.447 0 3.311.07.88.073 1.607.221 2.265.557a5.75 5.75 0 012.513 2.513c.336.658.485 1.385.556 2.265.071.864.071 1.94.071 3.311v4.068c0 1.371 0 2.447-.07 3.311-.072.88-.221 1.607-.557 2.265a5.75 5.75 0 01-2.513 2.513c-.658.336-1.385.485-2.265.556-.864.071-1.94.071-3.311.071h-.068c-1.371 0-2.447 0-3.311-.07-.88-.072-1.607-.221-2.265-.557a5.75 5.75 0 01-2.513-2.513c-.316-.619-.466-1.299-.543-2.11H5a1.5 1.5 0 000-3H3.25v-1H5a1.5 1.5 0 000-3H3.25v-1H5a1.5 1.5 0 100-3H3.334c.077-.811.227-1.491.543-2.11A5.75 5.75 0 016.39 1.877c.658-.336 1.385-.484 2.265-.556.864-.071 1.94-.071 3.311-.071zm4.034 5a.75.75 0 01.75.75v4a.75.75 0 01-1.5 0V7a.75.75 0 01.75-.75zm-14 9a.75.75 0 000 1.5h3a.75.75 0 000-1.5H2zM1.25 12a.75.75 0 01.75-.75h3a.75.75 0 010 1.5H2a.75.75 0 01-.75-.75zM2 7.25a.75.75 0 000 1.5h3a.75.75 0 000-1.5H2z"/>
</svg>
