<svg xmlns="http://www.w3.org/2000/svg" width="24" height="24" fill="currentColor" viewBox="0 0 24 24">
  <path fill-rule="evenodd" d="M8.75 1a.75.75 0 00-1.5 0v2a.75.75 0 001.5 0V1zm4.75.252c.35.002.683.005 1 .01V3a1.5 1.5 0 003 0V1.494c.699.13 1.312.335 1.875.66a6.75 6.75 0 012.47 2.471c.48.83.696 1.767.802 2.928.103 1.142.103 2.572.103 4.41v.075c0 1.837 0 3.267-.104 4.41-.105 1.16-.322 2.098-.8 2.927a6.75 6.75 0 01-2.471 2.47c-.83.48-1.767.696-2.927.802-1.143.103-2.573.103-4.41.103h-.076c-1.837 0-3.267 0-4.41-.104-1.16-.105-2.098-.322-2.927-.8a6.75 6.75 0 01-2.47-2.471c-.48-.83-.696-1.767-.801-2.927-.104-1.143-.104-2.573-.104-4.41v-.076c0-1.837 0-3.267.104-4.41.105-1.16.322-2.098.8-2.927a6.75 6.75 0 012.471-2.47c.563-.326 1.176-.53 1.875-.66V3a1.5 1.5 0 003 0V1.263c.317-.006.65-.009 1-.01V3a1.5 1.5 0 003 0V1.252zM12 .25a.75.75 0 01.75.75v2a.75.75 0 01-1.5 0V1A.75.75 0 0112 .25zm4.75.75a.75.75 0 00-1.5 0v2a.75.75 0 001.5 0V1z"/>
</svg>
