<svg xmlns="http://www.w3.org/2000/svg" width="24" height="24" fill="currentColor" viewBox="0 0 24 24">
  <path fill-rule="evenodd" d="M6.343 6.343a24.455 24.455 0 00-3.477 4.346c-.226-.491-.419-.976-.578-1.452-.795-2.388-.784-4.772.696-6.253 1.481-1.48 3.865-1.492 6.253-.696.476.159.96.352 1.452.578-1.491.926-2.97 2.1-4.346 3.477zm11.314 11.314a24.454 24.454 0 01-4.346 3.477c.491.226.976.419 1.452.577 2.388.796 4.772.785 6.253-.695 1.48-1.481 1.492-3.865.696-6.253-.159-.476-.352-.96-.578-1.452a24.451 24.451 0 01-3.477 4.346zM14.763 2.288c2.388-.795 4.772-.784 6.253.696 1.48 1.481 1.492 3.865.696 6.253-.812 2.436-2.531 5.128-4.939 7.536-2.408 2.408-5.1 4.127-7.536 4.939-2.388.796-4.772.784-6.253-.696-1.48-1.481-1.491-3.865-.696-6.253.812-2.436 2.531-5.128 4.939-7.536 2.408-2.408 5.1-4.127 7.536-4.939zM12 14a2 2 0 100-4 2 2 0 000 4z"/>
</svg>
