<svg xmlns="http://www.w3.org/2000/svg" width="24" height="24" fill="currentColor" viewBox="0 0 24 24">
  <path fill-rule="evenodd" d="M11.566 1.25H12.434c1.651 0 2.937 0 3.968.084 1.047.086 1.897.262 2.662.652a6.75 6.75 0 012.95 2.95c.39.765.566 1.615.652 2.662.084 1.031.084 2.317.084 3.968V12.434c0 1.652 0 2.937-.084 3.968-.086 1.047-.262 1.897-.652 2.662a6.75 6.75 0 01-2.95 2.95c-.765.39-1.615.566-2.662.652-1.031.084-2.317.084-3.968.084H11.566c-1.651 0-2.937 0-3.968-.084-1.047-.086-1.897-.262-2.662-.652a6.75 6.75 0 01-2.95-2.95c-.39-.765-.566-1.615-.652-2.662-.084-1.031-.084-2.317-.084-3.968V11.566c0-1.651 0-2.937.084-3.968.086-1.047.262-1.897.652-2.662a6.75 6.75 0 012.95-2.95c.765-.39 1.615-.566 2.662-.652 1.031-.084 2.317-.084 3.968-.084zM9.75 5a.75.75 0 00-1.5 0V16.19l-1.72-1.72a.75.75 0 00-1.06 1.06l3 3A.75.75 0 009.75 18V5zm2.5 8a.75.75 0 01.75-.75h3a.75.75 0 01.643 1.136l-2.318 3.864H16a.75.75 0 010 1.5h-3a.75.75 0 01-.643-1.136l2.318-3.864H13a.75.75 0 01-.75-.75zm2.25-8.75a2.25 2.25 0 00-2.25 2.25V10a.75.75 0 001.5 0V8.875h1.5V10a.75.75 0 001.5 0V6.5a2.25 2.25 0 00-2.25-2.25zm.75 2.25v.875h-1.5V6.5a.75.75 0 011.5 0z"/>
</svg>
