<svg xmlns="http://www.w3.org/2000/svg" width="24" height="24" fill="currentColor" viewBox="0 0 24 24">
  <path fill-rule="evenodd" d="M8.853 4.852c.637-.331 1.25-.56 1.879-.514a3.25 3.25 0 012.37 1.293c.371.497.512 1.123.58 1.825l1.75-1.125.032-.021c.976-.627 1.753-1.126 2.389-1.458.637-.331 1.25-.56 1.878-.514a3.25 3.25 0 012.37 1.293c.379.505.518 1.144.584 1.86.065.713.065 1.636.065 2.796v3.426c0 1.16 0 2.083-.066 2.797-.065.716-.204 1.354-.582 1.859a3.25 3.25 0 01-2.37 1.294c-.63.045-1.242-.183-1.88-.515-.635-.331-1.412-.83-2.387-1.458l-.034-.021-1.75-1.125c-.067.702-.208 1.328-.58 1.825a3.25 3.25 0 01-2.37 1.294c-.628.045-1.24-.183-1.878-.515-.636-.331-1.413-.83-2.388-1.458l-.034-.021-2.603-1.673-.031-.02c-.844-.543-1.521-.979-2.022-1.369-.506-.395-.92-.809-1.146-1.342a3.25 3.25 0 010-2.53c.226-.533.64-.947 1.147-1.342.5-.39 1.177-.825 2.02-1.368l.032-.02L6.431 6.33l.034-.021c.975-.627 1.752-1.126 2.388-1.458z"/>
</svg>
