<svg xmlns="http://www.w3.org/2000/svg" width="24" height="24" fill="currentColor" viewBox="0 0 24 24">
  <path fill-rule="evenodd" d="M9.056 3.944c-.91-.91-2.022-1.532-3.192-1.667C4.669 2.14 3.479 2.521 2.5 3.5c-.98.98-1.36 2.169-1.223 3.364.135 1.17.758 2.283 1.667 3.192.91.91 2.022 1.532 3.192 1.667a3.925 3.925 0 002.792-.734L9.939 12l-2.47 2.47-6 6a.75.75 0 101.061 1.06l6-6L11 13.06l5.17 5.17 3.3 3.3a.75.75 0 101.06-1.06l-3.3-3.3-5.5-5.5-.199-.2-.001-.001-1.541-1.541a3.925 3.925 0 00.734-2.792c-.135-1.17-.758-2.283-1.667-3.192zM19.47 2.47a.75.75 0 011.06 0l.738.737.021.021c.378.378.693.693.93.972.246.29.451.59.568.95a2.75 2.75 0 010 1.7c-.117.36-.322.66-.568.95-.237.279-.552.594-.93.972l-.021.021-4.738 4.737a.75.75 0 01-1.06 0l-3-3a.75.75 0 010-1.06l7-7z"/>
</svg>
