<svg xmlns="http://www.w3.org/2000/svg" width="24" height="24" fill="currentColor" viewBox="0 0 24 24">
  <path fill-rule="evenodd" d="M9.75 11.585l9.614-2.403.114-.028c.535-.133 1.004-.25 1.37-.524.32-.24.571-.56.726-.93.178-.422.177-.905.176-1.456V4.997c0-.489 0-.905-.03-1.241-.03-.35-.099-.7-.29-1.02a2.25 2.25 0 00-1.245-.985c-.355-.114-.712-.1-1.06-.05-.333.048-.738.143-1.215.255l-.032.008-7.2 1.694-.024.006c-.31.073-.58.136-.802.206-.238.074-.468.17-.683.327a2.25 2.25 0 00-.74.934 2.267 2.267 0 00-.162.74c-.017.232-.017.51-.017.828V16a3.75 3.75 0 101.5 3v-7.415z"/>
</svg>
