<svg xmlns="http://www.w3.org/2000/svg" width="24" height="24" fill="currentColor" viewBox="0 0 24 24">
  <path fill-rule="evenodd" d="M9.34 3.332l.034.016 10.237 5.119.035.017c.892.446 1.608.804 2.134 1.13.524.325.988.691 1.233 1.208a2.75 2.75 0 010 2.356c-.245.517-.709.883-1.233 1.207-.526.327-1.242.685-2.134 1.13l-.035.018-10.237 5.118-.034.017c-1.47.735-2.615 1.308-3.488 1.662-.442.18-.847.316-1.211.388-.361.071-.743.09-1.106-.027a2.75 2.75 0 01-1.837-2.006c-.084-.371-.032-.75.071-1.103.103-.357.275-.748.493-1.172.43-.84 1.1-1.93 1.962-3.33l.02-.032 1.085-1.764c.203-.329.56-.534.947-.534H11a.75.75 0 000-1.5H6.276c-.387 0-.744-.205-.947-.534L4.243 8.952l-.02-.032c-.86-1.4-1.531-2.49-1.961-3.33a6.829 6.829 0 01-.493-1.172c-.103-.353-.155-.731-.07-1.103a2.75 2.75 0 011.836-2.006c.363-.117.745-.098 1.106-.027a6.83 6.83 0 011.21.388c.874.354 2.02.927 3.49 1.662z"/>
</svg>
