<svg xmlns="http://www.w3.org/2000/svg" width="24" height="24" fill="currentColor" viewBox="0 0 24 24">
  <path fill-rule="evenodd" d="M4.25 6a4.75 4.75 0 119.5 0 4.75 4.75 0 01-9.5 0zm13.22.47a.75.75 0 011.06 0l1.97 1.97 1.97-1.97a.75.75 0 111.06 1.06L21.56 9.5l1.97 1.97a.75.75 0 11-1.06 1.06l-1.97-1.97-1.97 1.97a.75.75 0 11-1.06-1.06l1.97-1.97-1.97-1.97a.75.75 0 010-1.06zM6.8 13.25a5.55 5.55 0 00-5.55 5.55 3.95 3.95 0 003.95 3.95h7.6a3.95 3.95 0 003.95-3.95 5.55 5.55 0 00-5.55-5.55H6.8z"/>
</svg>
