<svg xmlns="http://www.w3.org/2000/svg" width="24" height="24" fill="currentColor" viewBox="0 0 24 24">
  <path fill-rule="evenodd" d="M12 1.25c-4.555 0-8.237 3.691-8.441 8.281C1.614 10.294.25 12.225.25 14.467c0 2.76 2.075 5.057 4.75 5.267v-6.613c0-.72 0-1.08.15-1.322a1 1 0 01.577-.435c.274-.078.62.02 1.313.219l4.52 1.291c.164.047.246.07.329.08.074.008.148.008.222 0 .083-.01.165-.033.329-.08l4.52-1.291c.693-.198 1.039-.297 1.313-.22a1 1 0 01.577.436c.15.242.15.602.15 1.322v6.443c2.74-.69 4.75-3.233 4.75-6.23 0-2.578-1.482-4.811-3.636-5.83C19.096 3.904 15.86 1.25 12 1.25zm-4 12a.75.75 0 01.75.75v2a.75.75 0 01-1.5 0v-2a.75.75 0 01.75-.75zm0 5a.75.75 0 01.75.75v2a.75.75 0 01-1.5 0v-2a.75.75 0 01.75-.75zM16.75 14a.75.75 0 00-1.5 0v2a.75.75 0 001.5 0v-2zM16 18.25a.75.75 0 01.75.75v2a.75.75 0 01-1.5 0v-2a.75.75 0 01.75-.75zM12.75 15a.75.75 0 00-1.5 0v2a.75.75 0 001.5 0v-2zM12 19.25a.75.75 0 01.75.75v2a.75.75 0 01-1.5 0v-2a.75.75 0 01.75-.75z"/>
</svg>
