<svg xmlns="http://www.w3.org/2000/svg" width="24" height="24" fill="currentColor" viewBox="0 0 24 24">
  <path stroke="#22272F" stroke-linecap="round" stroke-linejoin="round" stroke-width="1.5" d="M18.003 5.294c2.208-.441 3.843-.24 4.39.706.546.947-.098 2.462-1.583 4.153-1.516 1.727-3.91 3.637-6.81 5.311C8.26 18.778 2.712 19.914 1.608 18c-.547-.947.097-2.462 1.582-4.153"/>
  <path fill-rule="evenodd" d="M2.25 12c0-5.385 4.365-9.75 9.75-9.75 4.448 0 8.2 2.978 9.371 7.049-.189.267-.417.556-.688.864-1.381 1.573-3.634 3.386-6.433 5.002-2.769 1.599-5.44 2.639-7.485 3.058-.884.18-1.589.232-2.105.195A9.713 9.713 0 012.25 12zm5.932 8.974c1.173.5 2.463.776 3.818.776 4.882 0 8.926-3.588 9.639-8.272-1.565 1.47-3.59 2.958-5.89 4.285-2.646 1.528-5.295 2.635-7.567 3.211z"/>
</svg>
