<svg xmlns="http://www.w3.org/2000/svg" width="24" height="24" fill="currentColor" viewBox="0 0 24 24">
  <path fill-rule="evenodd" d="M11.962 1.25h.076c1.837 0 3.267 0 4.41.104 1.16.105 2.098.322 2.927.8a6.75 6.75 0 012.47 2.471c.48.83.696 1.767.802 2.927.103 1.143.103 2.573.103 4.41V15.25h-2.802c-.899 0-1.648 0-2.242.08-.628.084-1.195.27-1.65.725-.456.456-.642 1.023-.726 1.65-.08.595-.08 1.345-.08 2.243v2.802h-3.288c-1.837 0-3.267 0-4.41-.104-1.16-.105-2.098-.322-2.927-.8a6.75 6.75 0 01-2.47-2.471c-.48-.83-.696-1.767-.801-2.927-.104-1.143-.104-2.573-.104-4.41v-.076c0-1.837 0-3.267.104-4.41.105-1.16.322-2.098.8-2.927a6.75 6.75 0 012.471-2.47c.83-.48 1.767-.696 2.927-.801 1.143-.104 2.573-.104 4.41-.104zm4.788 21.386a6.75 6.75 0 003.272-1.611c.136-.123.269-.255.492-.478l.016-.017.017-.016c.223-.223.355-.356.478-.492a6.75 6.75 0 001.611-3.272H20c-.964 0-1.612.002-2.095.067-.461.062-.659.169-.789.3-.13.13-.237.327-.3.788-.064.483-.066 1.131-.066 2.095v2.636z"/>
</svg>
