<svg xmlns="http://www.w3.org/2000/svg" width="24" height="24" fill="currentColor" viewBox="0 0 24 24">
  <path fill-rule="evenodd" d="M11.25.635a2.758 2.758 0 00-.234.077c-.421.162-.755.45-1.067.79-.305.33-.645.773-1.059 1.31l-.02.028-4.598 5.977-.07.09c-.616.8-1.01 1.312-1.243 1.847a4.75 4.75 0 00.283 4.35c.3.5.757.956 1.472 1.67l.08.08.034.034c.26.26.439.44.638.592a3.75 3.75 0 001.78.737c.248.033.502.033.869.033H15.885c.367 0 .621 0 .87-.033a3.75 3.75 0 001.78-.737c.198-.152.378-.332.637-.592l.034-.034.08-.08c.715-.714 1.172-1.17 1.473-1.67a4.75 4.75 0 00.282-4.35c-.234-.535-.627-1.047-1.244-1.848l-.069-.09-4.597-5.976-.021-.027c-.414-.538-.754-.98-1.059-1.311-.313-.34-.646-.628-1.067-.79a2.758 2.758 0 00-.234-.077V7a.75.75 0 01-1.5 0V.635zM14 12a2 2 0 11-4 0 2 2 0 014 0zm-8.75 9c0-.966.784-1.75 1.75-1.75h10a1.75 1.75 0 110 3.5H7A1.75 1.75 0 015.25 21z"/>
</svg>
