<svg xmlns="http://www.w3.org/2000/svg" width="24" height="24" fill="currentColor" viewBox="0 0 24 24">
  <path fill-rule="evenodd" d="M1.25 3.5A2.25 2.25 0 013.5 1.25h17a2.25 2.25 0 010 4.5h-17A2.25 2.25 0 011.25 3.5zM4 7.25a.75.75 0 00-.75.75v7.633c0 1.092 0 1.958.057 2.655.058.714.18 1.317.46 1.869a4.75 4.75 0 002.077 2.075c.55.281 1.154.403 1.868.461.697.057 1.563.057 2.655.057h3.266c1.092 0 1.958 0 2.655-.057.714-.058 1.317-.18 1.869-.46a4.75 4.75 0 002.075-2.076c.281-.552.403-1.155.461-1.869.057-.697.057-1.563.057-2.655V8a.75.75 0 00-.75-.75H4zM8.25 13a.75.75 0 01.75-.75h6a.75.75 0 010 1.5H9a.75.75 0 01-.75-.75z"/>
</svg>
