<svg xmlns="http://www.w3.org/2000/svg" width="24" height="24" fill="currentColor" viewBox="0 0 24 24">
  <path fill-rule="evenodd" d="M12 6.25c-1.361 0-2.786.214-4.224.663-1.9.594-3.821 1.6-5.648 3.067l-.048.039c-.34.272-.613.492-.846.833a2.905 2.905 0 00-.415 2.119c.087.405.282.755.528 1.197l.04.075.012.019c.191.345.351.633.496.86.15.238.31.453.518.634a2.75 2.75 0 002.398.619c.27-.059.514-.17.76-.304.237-.13.516-.304.851-.513l.019-.012.161-.1.065-.04c.367-.23.656-.41.889-.65.29-.299.51-.66.64-1.056.105-.317.132-.657.165-1.088l.006-.076.34-4.333A12.53 12.53 0 0112 7.75c1.054 0 2.162.145 3.293.453l.34 4.333.006.076c.033.431.06.77.165 1.088.13.396.35.757.64 1.056.233.24.522.42.89.65l.064.04.161.1.019.012c.335.21.614.384.851.513.247.135.49.245.76.304a2.75 2.75 0 002.398-.619c.207-.181.367-.396.518-.633.145-.228.305-.516.496-.861l.011-.02.041-.073c.246-.442.441-.793.528-1.198a2.906 2.906 0 00-.415-2.119c-.233-.341-.506-.561-.845-.833l-.049-.04c-1.826-1.467-3.748-2.472-5.648-3.066A14.176 14.176 0 0012 6.25z"/>
</svg>
