<svg xmlns="http://www.w3.org/2000/svg" width="24" height="24" fill="currentColor" viewBox="0 0 24 24">
  <path fill-rule="evenodd" d="M9.966 1.25h4.068c1.371 0 2.447 0 3.311.07.88.073 1.607.221 2.265.557a5.75 5.75 0 012.513 2.513c.336.658.485 1.385.556 2.265.071.864.071 1.94.071 3.311v4.068c0 1.371 0 2.447-.07 3.311-.072.88-.221 1.607-.557 2.265a5.75 5.75 0 01-2.513 2.513c-.658.336-1.385.485-2.265.556-.864.071-1.94.071-3.311.071H9.966c-1.371 0-2.447 0-3.311-.07-.88-.072-1.607-.221-2.265-.557a5.75 5.75 0 01-2.513-2.513c-.336-.658-.484-1.385-.556-2.265-.071-.864-.071-1.94-.071-3.311V9.966c0-1.371 0-2.447.07-3.311.073-.88.221-1.607.557-2.265A5.75 5.75 0 014.39 1.877c.658-.336 1.385-.484 2.265-.556.864-.071 1.94-.071 3.311-.071zM6.75 11.823c0-2.78 2.33-5.073 5.25-5.073s5.25 2.292 5.25 5.073c0 1.951-1.141 3.657-2.835 4.507a.75.75 0 00.337 1.42H18a.75.75 0 000-1.5h-1.01a6.454 6.454 0 001.76-4.427c0-3.65-3.043-6.573-6.75-6.573s-6.75 2.922-6.75 6.573c0 1.71.67 3.262 1.76 4.427H6a.75.75 0 000 1.5h3.249a.75.75 0 00.336-1.42c-1.694-.85-2.835-2.556-2.835-4.506z"/>
</svg>
