<svg xmlns="http://www.w3.org/2000/svg" width="24" height="24" fill="currentColor" viewBox="0 0 24 24">
  <path fill-rule="evenodd" d="M16 3.2c0-1.12 0-1.68.218-2.108a2 2 0 01.874-.874C17.52 0 18.08 0 19.2 0h1.6c1.12 0 1.68 0 2.108.218a2 2 0 01.874.874C24 1.52 24 2.08 24 3.2v1.6c0 1.12 0 1.68-.218 2.108a2 2 0 01-.874.874C22.48 8 21.92 8 20.8 8h-1.6c-1.12 0-1.68 0-2.108-.218a2 2 0 01-.874-.874C16 6.48 16 5.92 16 4.8V3.2zm4-1.95a.75.75 0 01.75.75v1.25H22a.75.75 0 010 1.5h-1.25V6a.75.75 0 01-1.5 0V4.75H18a.75.75 0 010-1.5h1.25V2a.75.75 0 01.75-.75zM13.6 4l.9.001V4.852c0 .515 0 .988.032 1.384.035.426.115.892.35 1.353a3.5 3.5 0 001.529 1.53c.46.234.927.314 1.353.349.396.032.869.032 1.384.032H19.999l.001.9v5.2c0 2.24 0 3.36-.436 4.216a4 4 0 01-1.748 1.748C16.96 22 15.84 22 13.6 22H8.4c-2.24 0-3.36 0-4.216-.436a4 4 0 01-1.748-1.748C2 18.96 2 17.84 2 15.6v-5.2c0-2.24 0-3.36.436-4.216a4 4 0 011.748-1.748C5.04 4 6.16 4 8.4 4h5.2zM7.75 15a1.25 1.25 0 112.5 0 1.25 1.25 0 01-2.5 0zM9 12.25c.45 0 .875.108 1.25.3V9a.75.75 0 011.166-.624l3 2a.75.75 0 11-.832 1.248l-1.834-1.223V15A2.75 2.75 0 119 12.25z"/>
</svg>
