<svg xmlns="http://www.w3.org/2000/svg" width="24" height="24" fill="currentColor" viewBox="0 0 24 24">
  <path fill-rule="evenodd" d="M8 1.25a.75.75 0 000 1.5h8a.75.75 0 000-1.5H8zM5.25 5A.75.75 0 016 4.25h12a.75.75 0 010 1.5H6A.75.75 0 015.25 5zM8.4 7.25h-.033c-1.092 0-1.958 0-2.655.057-.714.058-1.317.18-1.868.46a4.75 4.75 0 00-2.076 2.077c-.281.55-.403 1.154-.461 1.868-.057.697-.057 1.563-.057 2.655V15.633c0 1.092 0 1.958.057 2.655.058.714.18 1.317.46 1.869a4.75 4.75 0 002.077 2.075c.55.281 1.154.403 1.868.461.697.057 1.563.057 2.655.057H15.633c1.092 0 1.958 0 2.655-.057.714-.058 1.317-.18 1.869-.46a4.75 4.75 0 002.075-2.076c.281-.552.403-1.155.461-1.869.057-.697.057-1.563.057-2.655V14.367c0-1.092 0-1.958-.057-2.655-.058-.714-.18-1.317-.46-1.868a4.75 4.75 0 00-2.076-2.076c-.552-.281-1.155-.403-1.869-.461-.697-.057-1.563-.057-2.655-.057H8.4zm1.6 8.76v-2.02c0-.972 0-1.457.203-1.725a1 1 0 01.737-.395c.335-.02.74.25 1.548.788l1.515 1.01c.668.446 1.002.668 1.118.949a1 1 0 010 .766c-.116.28-.45.503-1.118.948l-1.515 1.01c-.808.54-1.213.809-1.548.789a1 1 0 01-.737-.395C10 17.467 10 16.982 10 16.01z"/>
</svg>
