<svg xmlns="http://www.w3.org/2000/svg" width="24" height="24" fill="currentColor" viewBox="0 0 24 24">
  <path fill-rule="evenodd" d="M8.4 1.25h-.033c-1.092 0-1.958 0-2.655.057-.714.058-1.317.18-1.868.46a4.75 4.75 0 00-2.076 2.077c-.281.55-.403 1.154-.461 1.868-.057.697-.057 1.563-.057 2.655V15.633c0 1.092 0 1.958.057 2.655.058.714.18 1.317.46 1.869a4.75 4.75 0 002.077 2.075c.55.281 1.154.403 1.868.461.697.057 1.563.057 2.655.057H9.633c1.092 0 1.958 0 2.655-.057.714-.058 1.317-.18 1.868-.46a4.75 4.75 0 002.076-2.076c.281-.552.403-1.155.461-1.869.057-.697.057-1.563.057-2.655V8.367c0-1.092 0-1.958-.057-2.655-.058-.714-.18-1.317-.46-1.868a4.75 4.75 0 00-2.077-2.076c-.55-.281-1.154-.403-1.868-.461-.697-.057-1.563-.057-2.655-.057H8.4zM6.75 15a1.25 1.25 0 112.5 0 1.25 1.25 0 01-2.5 0zM8 12.25c.45 0 .875.108 1.25.3V7a.75.75 0 011.166-.624l3 2a.75.75 0 11-.832 1.248L10.75 8.401V15A2.75 2.75 0 118 12.25zm11-7a.75.75 0 01.75.75v12a.75.75 0 01-1.5 0V6a.75.75 0 01.75-.75zM22.75 8a.75.75 0 00-1.5 0v8a.75.75 0 001.5 0V8z"/>
</svg>
