<svg xmlns="http://www.w3.org/2000/svg" width="24" height="24" fill="currentColor" viewBox="0 0 24 24">
  <path fill-rule="evenodd" d="M15.325 5.75H11c-.942 0-1.611 0-2.138.036-.52.036-.845.103-1.106.211a3.25 3.25 0 00-1.759 1.76 2.538 2.538 0 00-.156.588 3.751 3.751 0 010 7.31c.038.242.09.427.156.589a3.25 3.25 0 001.76 1.759c.26.108.586.175 1.105.21.527.037 1.196.037 2.138.037h4.325a3.751 3.751 0 017.425.75 3.75 3.75 0 01-7.425.75h-4.352c-.91 0-1.63 0-2.213-.04-.596-.04-1.104-.125-1.578-.322a4.75 4.75 0 01-2.57-2.57 4.264 4.264 0 01-.28-1.127 3.751 3.751 0 010-7.382c.05-.408.135-.777.28-1.127a4.75 4.75 0 012.57-2.57c.474-.197.982-.282 1.578-.322.584-.04 1.304-.04 2.213-.04h4.352A3.751 3.751 0 0122.75 5a3.75 3.75 0 01-7.425.75z"/>
</svg>
