<svg xmlns="http://www.w3.org/2000/svg" width="24" height="24" fill="currentColor" viewBox="0 0 24 24">
  <path fill-rule="evenodd" d="M12.893 2.875c-.414-.118-.876-.125-2.093-.125H4a1.25 1.25 0 00-.009 2.5H15.5l-.18-.24c-.73-.973-1.013-1.339-1.356-1.599a3.25 3.25 0 00-1.072-.536zM1.25 6V4v-.001A2.75 2.75 0 014 1.25h6.913c1.065 0 1.75 0 2.391.183a4.75 4.75 0 011.567.783c.531.403.942.952 1.581 1.803l.068.091.864 1.153c.33.008.63.022.904.044.714.058 1.317.18 1.869.46a4.75 4.75 0 012.075 2.077c.281.55.403 1.154.461 1.868.014.169.024.348.032.538H21a3.75 3.75 0 100 7.5h1.725c-.008.19-.018.369-.032.538-.058.714-.18 1.317-.46 1.869a4.75 4.75 0 01-2.076 2.075c-.552.281-1.155.403-1.869.461-.697.057-1.563.057-2.655.057H8.367c-1.092 0-1.958 0-2.655-.057-.714-.058-1.317-.18-1.868-.46a4.75 4.75 0 01-2.076-2.076c-.281-.552-.403-1.155-.461-1.869-.057-.697-.057-1.563-.057-2.655V6zm21.5 9.636v.614H21a2.25 2.25 0 010-4.5h1.75v3.886zm-12-4.136a.75.75 0 00-1.5 0v1.75H7.5a.75.75 0 000 1.5h1.75v1.75a.75.75 0 001.5 0v-1.75h1.75a.75.75 0 000-1.5h-1.75V11.5z"/>
</svg>
