<svg xmlns="http://www.w3.org/2000/svg" width="24" height="24" fill="currentColor" viewBox="0 0 24 24">
  <path fill-rule="evenodd" d="M13.48 5.747c-.027-.1-.152-.136-.224-.063L5.84 13.1l-.048.048c-.464.463-.762.762-1.003 1.107-.214.306-.39.636-.526.983-.154.392-.237.806-.365 1.448l-.013.067-.62 3.1a.75.75 0 00.882.883l3.1-.62.067-.014c.642-.128 1.057-.211 1.448-.365.348-.136.677-.312.983-.526.345-.24.644-.54 1.107-1.002l.048-.049 7.416-7.415c.073-.073.036-.198-.063-.225a6.75 6.75 0 01-4.773-4.773zm5.479 3.394c.365.063.548.095.78.021.233-.074.396-.236.72-.56l.071-.072.086-.085c.461-.46.818-.817 1.02-1.224a2.75 2.75 0 000-2.442c-.202-.407-.559-.763-1.02-1.223l-.086-.086-.085-.086c-.46-.46-.817-.818-1.224-1.02a2.75 2.75 0 00-2.442 0c-.407.202-.763.56-1.223 1.02l-.086.086-.071.07c-.325.325-.487.488-.56.72-.075.233-.043.416.02.782.02.112.043.216.07.317a5.25 5.25 0 003.712 3.712c.1.027.205.05.318.07z"/>
</svg>
