<svg xmlns="http://www.w3.org/2000/svg" width="24" height="24" fill="currentColor" viewBox="0 0 24 24">
  <path fill-rule="evenodd" d="M9.103 1.257a.747.747 0 01.453.24.75.75 0 01.112.843L7.713 6.252c.33-.002.683-.002 1.057-.002h6.46c.374 0 .726 0 1.057.002l-1.955-3.91a.748.748 0 01.297-.994.747.747 0 011.018.272l2.825 4.71c.795.075 1.465.229 2.052.573a4.75 4.75 0 012.086 2.544c.23.666.242 1.38.15 2.21-.09.817-.292 1.828-.549 3.11l-.007.035-.44 2.2-.005.029c-.179.892-.32 1.602-.48 2.173-.163.586-.357 1.076-.663 1.515a4.75 4.75 0 01-1.993 1.633c-.49.215-1.01.309-1.616.354-.59.044-1.315.044-2.224.044H9.217c-.91 0-1.633 0-2.224-.044-.607-.045-1.125-.139-1.616-.354a4.75 4.75 0 01-1.993-1.633c-.306-.44-.5-.93-.663-1.515-.16-.571-.301-1.281-.48-2.173l-.005-.029-.44-2.2-.008-.035c-.256-1.282-.458-2.293-.548-3.11-.092-.83-.08-1.544.15-2.21a4.75 4.75 0 012.086-2.544c.587-.344 1.257-.498 2.052-.574l2.826-4.71a.746.746 0 01.75-.362z"/>
</svg>
