<svg xmlns="http://www.w3.org/2000/svg" width="24" height="24" fill="currentColor" viewBox="0 0 24 24">
  <path fill-rule="evenodd" d="M15.25 2.467c0-.203 0-.304-.015-.39a1.003 1.003 0 00-.811-.812c-.087-.015-.187-.015-.389-.015h-4.07c-.202 0-.302 0-.388.015a1.003 1.003 0 00-.812.812c-.015.086-.015.187-.015.39V5.25c0 .943 0 1.414.293 1.707.293.293.764.293 1.707.293h2.5c.943 0 1.414 0 1.707-.293.293-.293.293-.764.293-1.707V2.467zm0 8.283c0-.943 0-1.414-.293-1.707-.293-.293-.764-.293-1.707-.293h-2.5c-.943 0-1.414 0-1.707.293-.293.293-.293.764-.293 1.707v2.5c0 .943 0 1.414.293 1.707.293.293.764.293 1.707.293h2.5c.943 0 1.414 0 1.707-.293.293-.293.293-.764.293-1.707v-2.5zm-10-3.5c.943 0 1.414 0 1.707-.293.293-.293.293-.764.293-1.707V1.88a.555.555 0 00-.595-.56c-.88.073-1.607.221-2.265.557A5.75 5.75 0 001.877 4.39c-.336.658-.484 1.385-.556 2.265a.555.555 0 00.559.595h3.37zm-4 2.716c0-.203 0-.304.015-.39.073-.412.399-.738.81-.81.087-.016.19-.016.394-.016H5.25c.943 0 1.414 0 1.707.293.293.293.293.764.293 1.707v2.5c0 .943 0 1.414-.293 1.707-.293.293-.764.293-1.707.293H2.467c-.203 0-.304 0-.39-.015a1.003 1.003 0 01-.812-.811c-.015-.087-.015-.187-.015-.389V9.966zm15.5.784c0-.943 0-1.414.293-1.707.293-.293.764-.293 1.707-.293h2.782c.204 0 .306 0 .393.015.411.073.737.399.81.81.015.087.015.188.015.391v4.068c0 .203 0 .303-.015.39a1.003 1.003 0 01-.811.81c-.087.016-.188.016-.391.016H18.75c-.943 0-1.414 0-1.707-.293-.293-.293-.293-.764-.293-1.707v-2.5zm5.93-4.095a.555.555 0 01-.56.595h-3.37c-.943 0-1.414 0-1.707-.293-.293-.293-.293-.764-.293-1.707V1.88c0-.325.271-.586.595-.56.88.073 1.607.221 2.265.557a5.75 5.75 0 012.513 2.513c.336.658.485 1.385.556 2.265zM7.25 18.75c0-.943 0-1.414-.293-1.707-.293-.293-.764-.293-1.707-.293H1.88a.555.555 0 00-.56.595c.073.88.221 1.607.557 2.265a5.75 5.75 0 002.513 2.513c.658.336 1.385.485 2.265.556a.555.555 0 00.595-.56V18.75zm8 0c0-.943 0-1.414-.293-1.707-.293-.293-.764-.293-1.707-.293h-2.5c-.943 0-1.414 0-1.707.293-.293.293-.293.764-.293 1.707v2.782c0 .204 0 .306.015.392.073.412.399.738.811.81.086.016.187.016.39.016h4.068c.203 0 .304 0 .39-.015.412-.073.738-.399.81-.811.016-.086.016-.188.016-.391V18.75zm2.095 3.93a.555.555 0 01-.595-.56v-3.37c0-.943 0-1.414.293-1.707.293-.293.764-.293 1.707-.293h3.37c.325 0 .586.271.56.595-.072.88-.221 1.607-.557 2.265a5.75 5.75 0 01-2.513 2.513c-.658.336-1.385.485-2.265.556z"/>
</svg>
