<svg xmlns="http://www.w3.org/2000/svg" width="24" height="24" fill="currentColor" viewBox="0 0 24 24">
  <path fill-rule="evenodd" d="M14.538 1.409a.75.75 0 01.644-.137l1.576.394.133.034c.735.183 1.31.326 1.757.66.392.293.698.686.887 1.136.216.515.216 1.108.215 1.865v4.77c0 .611 0 1.091-.15 1.53a2.75 2.75 0 01-.636 1.027c-.324.332-.754.546-1.3.819l-.098.048-1.816.909V22a.75.75 0 01-1.5 0V2a.75.75 0 01.288-.591zM4.75 2a.75.75 0 10-1.5 0v5.381c0 .534 0 .955.119 1.348.105.346.277.667.506.947.261.317.611.55 1.056.846l.078.052 1.24.827V22a.75.75 0 001.5 0V11.401l1.242-.827.078-.052c.445-.296.794-.529 1.055-.846.23-.28.402-.601.507-.947.12-.393.12-.814.119-1.348V2a.75.75 0 00-1.5 0v5.287c0 .673-.008.853-.054 1.006a1.25 1.25 0 01-.23.43c-.102.123-.247.23-.807.603l-.41.273V2a.75.75 0 10-1.5 0v7.599l-.408-.273c-.56-.373-.706-.48-.807-.603a1.25 1.25 0 01-.23-.43c-.046-.153-.054-.333-.054-1.006V2z"/>
</svg>
