<svg xmlns="http://www.w3.org/2000/svg" width="24" height="24" fill="currentColor" viewBox="0 0 24 24">
  <path fill-rule="evenodd" d="M16.659 2.295A4.75 4.75 0 0120.749 7v7.034c0 1.371 0 2.447-.07 3.311-.072.88-.22 1.607-.556 2.265a5.75 5.75 0 01-2.513 2.513c-.658.336-1.385.485-2.265.556-.864.071-1.94.071-3.311.071h-.068c-1.371 0-2.447 0-3.311-.07-.88-.072-1.607-.221-2.266-.557a5.75 5.75 0 01-2.512-2.513c-.336-.658-.485-1.385-.557-2.265-.07-.864-.07-1.94-.07-3.311V7c0-2.4 1.78-4.384 4.091-4.705A2.751 2.751 0 0110 .25h4c1.275 0 2.348.868 2.659 2.045zM8.75 3c0-.69.56-1.25 1.25-1.25h4a1.25 1.25 0 110 2.5h-4c-.69 0-1.25-.56-1.25-1.25zm1.78 7.47a.75.75 0 00-1.06 1.06L10.94 13l-1.47 1.47a.75.75 0 101.06 1.06L12 14.06l1.47 1.47a.75.75 0 001.06-1.06L13.06 13l1.47-1.47a.75.75 0 10-1.06-1.06L12 11.94l-1.47-1.47z"/>
</svg>
