<svg xmlns="http://www.w3.org/2000/svg" width="24" height="24" fill="currentColor" viewBox="0 0 24 24">
  <path fill-rule="evenodd" d="M1.5 1.75H1a.75.75 0 110-1.5h.5V1 .25h.027c.2 0 .337 0 .464.009a3.75 3.75 0 013.274 2.47c.043.12.08.25.135.443l.008.026.015.052H16.752c1.037 0 1.866 0 2.524.059.67.06 1.254.185 1.76.496a3.75 3.75 0 011.635 2.141c.167.57.135 1.166.016 1.829-.116.65-.334 1.45-.607 2.45l-.01.035-.06.221-.046.168c-.416 1.527-.683 2.508-1.26 3.254a4.749 4.749 0 01-1.947 1.488c-.873.36-1.889.36-3.471.36h-2.63c-1.565 0-2.57 0-3.435-.354a4.75 4.75 0 01-1.939-1.462C6.705 13.2 6.43 12.234 6 10.73l-.047-.166-1.817-6.358-.17-.596a6.524 6.524 0 00-.112-.373 2.25 2.25 0 00-1.965-1.482A6.52 6.52 0 001.5 1.75zM7.25 20a2.75 2.75 0 115.5 0 2.75 2.75 0 01-5.5 0zM18 17.25a2.75 2.75 0 100 5.5 2.75 2.75 0 000-5.5z"/>
</svg>
