<svg xmlns="http://www.w3.org/2000/svg" width="24" height="24" fill="currentColor" viewBox="0 0 24 24">
  <path fill-rule="evenodd" d="M8 1.25a.75.75 0 01.75.75v2a.75.75 0 01-1.5 0V2A.75.75 0 018 1.25zM3.53 2.47a.75.75 0 00-1.06 1.06l2.98 2.98a4.75 4.75 0 00-3.109 3.563c-.091.46-.091.994-.091 1.832v1.15c0 .877 0 1.375.042 1.803a8.75 8.75 0 007.85 7.85c.428.042.926.042 1.803.042h.111c.876 0 1.374 0 1.802-.042a8.734 8.734 0 005.299-2.49l2.313 2.312a.75.75 0 101.06-1.06l-2.865-2.865L7.537 6.476 3.53 2.47zM16 7.75c.965 0 1.338.004 1.634.062a3.25 3.25 0 012.554 2.554c.058.296.062.669.062 1.634v1c0 .947 0 1.365-.035 1.71a7.281 7.281 0 01-.195 1.103.75.75 0 101.453.374c.111-.431.19-.875.235-1.33.042-.427.042-.925.042-1.802v-1.15c0-.838 0-1.372-.091-1.832a4.75 4.75 0 00-3.732-3.732c-.328-.065-.692-.084-1.177-.089V2a.75.75 0 00-1.5 0v4.25H11a.75.75 0 000 1.5h5z"/>
</svg>
