<svg xmlns="http://www.w3.org/2000/svg" width="24" height="24" fill="currentColor" viewBox="0 0 24 24">
  <path fill-rule="evenodd" d="M12 1.25c-2.059 0-4.305.73-6.043 1.454l-.067.028c-.904.377-1.499.625-2.12 1.2a5.292 5.292 0 00-1.228 1.843c-.293.795-.292 1.562-.292 2.738v2.3c0 2.197 0 3.462.43 4.784.336 1.03 1.102 2.352 1.829 3.156.932 1.031 1.796 1.527 3.287 2.383l.057.032c.74.425 1.49.813 2.18 1.097.674.276 1.366.485 1.967.485s1.293-.21 1.966-.485c.692-.284 1.44-.672 2.181-1.097l.056-.032c1.492-.856 2.356-1.352 3.288-2.383.727-.804 1.493-2.125 1.829-3.156.43-1.322.43-2.587.43-4.784V8.513c0-1.176 0-1.943-.292-2.738a5.291 5.291 0 00-1.228-1.842c-.621-.576-1.216-.824-2.12-1.201l-.067-.028C16.305 1.979 14.06 1.25 12 1.25zm4.03 7.72a.75.75 0 010 1.06l-4.5 4.5a.75.75 0 01-1.06 0l-2-2a.75.75 0 111.06-1.06L11 12.94l3.97-3.97a.75.75 0 011.06 0z"/>
</svg>
