<svg xmlns="http://www.w3.org/2000/svg" width="24" height="24" fill="currentColor" viewBox="0 0 24 24">
  <path fill-rule="evenodd" d="M11.25 2.5c0-.232 0-.348-.02-.445a1 1 0 00-.785-.786c-.097-.019-.213-.019-.445-.019h-.034c-1.371 0-2.447 0-3.311.07-.88.073-1.607.221-2.265.557A5.75 5.75 0 001.877 4.39c-.336.658-.484 1.385-.556 2.265-.071.864-.071 1.94-.071 3.311v4.068c0 1.371 0 2.447.07 3.311.073.88.221 1.607.557 2.265a5.75 5.75 0 002.513 2.513c.658.336 1.385.485 2.265.556.864.071 1.94.071 3.311.071H10c.232 0 .348 0 .445-.02a1 1 0 00.786-.785c.019-.096.019-.213.019-.445v-19zm1.5 19c0 .232 0 .349.02.445a1 1 0 00.785.786c.097.019.213.019.445.019h.034c1.371 0 2.447 0 3.311-.07.88-.072 1.607-.221 2.265-.557a5.75 5.75 0 002.513-2.513c.336-.658.485-1.385.556-2.265.071-.864.071-1.94.071-3.311V9.966c0-1.371 0-2.447-.07-3.311-.072-.88-.221-1.607-.557-2.265a5.75 5.75 0 00-2.513-2.513c-.658-.336-1.385-.484-2.265-.556-.864-.071-1.94-.071-3.311-.071H14c-.232 0-.348 0-.445.02a1 1 0 00-.786.785c-.019.097-.019.213-.019.445v19z"/>
</svg>
