<svg xmlns="http://www.w3.org/2000/svg" width="24" height="24" fill="currentColor" viewBox="0 0 24 24">
  <path fill-rule="evenodd" d="M11.5 1.25h-.033c-1.605 0-2.854 0-3.858.08-1.018.08-1.846.247-2.594.616a6.75 6.75 0 00-3.069 3.069c-.369.748-.535 1.576-.616 2.595-.08 1.003-.08 2.252-.08 3.857V12.038c0 1.837 0 3.267.104 4.41.105 1.16.322 2.098.8 2.927a6.75 6.75 0 002.471 2.47c.83.48 1.767.696 2.927.802 1.143.103 2.573.103 4.41.103H12.533c1.605 0 2.854 0 3.857-.08 1.019-.08 1.847-.247 2.595-.616a6.75 6.75 0 003.069-3.069c.369-.748.535-1.576.616-2.595.08-1.003.08-2.252.08-3.857V12a.75.75 0 00-1.5 0v.5c0 1.645 0 2.835-.075 3.772l-.002.028-.002-.002-.037-.037c-.635-.635-1.165-1.165-1.642-1.529-.503-.384-1.035-.654-1.68-.654-.644 0-1.176.27-1.68.654-.477.365-1.007.895-1.642 1.53l-.012.011-2.128-2.066-.037-.036c-.636-.617-1.166-1.132-1.643-1.485-.503-.373-1.032-.633-1.67-.628-.637.005-1.162.272-1.66.652-.471.36-.994.883-1.62 1.51l-.037.037-2.751 2.75a10.69 10.69 0 01-.085-.695C2.751 15.245 2.75 13.883 2.75 12v-.5c0-1.645 0-2.835.075-3.772.074-.928.217-1.543.466-2.05a5.25 5.25 0 012.387-2.387c.507-.25 1.122-.392 2.05-.466.937-.074 2.127-.075 3.772-.075h.5a.75.75 0 000-1.5h-.5zM18.75 3a.75.75 0 00-1.5 0v2.25H15a.75.75 0 000 1.5h2.25V9a.75.75 0 001.5 0V6.75H21a.75.75 0 000-1.5h-2.25V3z"/>
</svg>
