<svg xmlns="http://www.w3.org/2000/svg" width="24" height="24" fill="currentColor" viewBox="0 0 24 24">
  <path fill-rule="evenodd" d="M10 1.25c.232 0 .348 0 .445.02a1 1 0 01.786.785c.019.097.019.213.019.445v6.75c0 .943 0 1.414-.293 1.707-.293.293-.764.293-1.707.293H2.5c-.232 0-.348 0-.445-.02a1 1 0 01-.786-.785c-.019-.097-.019-.213-.019-.445v-.034c0-1.371 0-2.447.07-3.311.073-.88.221-1.607.557-2.265A5.75 5.75 0 014.39 1.877c.658-.336 1.385-.484 2.265-.556.864-.071 1.94-.071 3.311-.071H10zm-7.5 11.5c-.232 0-.348 0-.445.02a1 1 0 00-.786.785c-.019.097-.019.213-.019.445v.034c0 1.371 0 2.447.07 3.311.073.88.221 1.607.557 2.265a5.75 5.75 0 002.513 2.513c.658.336 1.385.485 2.265.556.864.071 1.94.071 3.311.071H10c.232 0 .348 0 .445-.02a1 1 0 00.786-.785c.019-.096.019-.213.019-.445v-6.75c0-.943 0-1.414-.293-1.707-.293-.293-.764-.293-1.707-.293H2.5zm12.25 0c-.943 0-1.414 0-1.707.293-.293.293-.293.764-.293 1.707v6.75c0 .232 0 .349.02.445a1 1 0 00.785.786c.097.019.213.019.445.019h.034c1.371 0 2.447 0 3.311-.07.88-.072 1.607-.221 2.265-.557a5.75 5.75 0 002.513-2.513c.336-.658.485-1.385.556-2.265.071-.864.071-1.94.071-3.311V14c0-.232 0-.348-.02-.445a1 1 0 00-.785-.786c-.096-.019-.213-.019-.445-.019h-6.75zm6.75-1.5c.232 0 .349 0 .445-.02a1 1 0 00.786-.785c.019-.097.019-.213.019-.445v-.034c0-1.371 0-2.447-.07-3.311-.072-.88-.221-1.607-.557-2.265a5.75 5.75 0 00-2.513-2.513c-.658-.336-1.385-.484-2.265-.556-.864-.071-1.94-.071-3.311-.071H14c-.232 0-.348 0-.445.02a1 1 0 00-.786.785c-.019.097-.019.213-.019.445v6.75c0 .943 0 1.414.293 1.707.293.293.764.293 1.707.293h6.75z"/>
</svg>
