<svg xmlns="http://www.w3.org/2000/svg" width="24" height="24" fill="currentColor" viewBox="0 0 24 24">
  <path fill-rule="evenodd" d="M21.066 2.934c-.895-.895-2.035-1.3-3.48-1.494-1.411-.19-3.22-.19-5.529-.19H10.955c-1.837 0-3.276 0-4.419.124-1.165.126-2.11.388-2.916.974A5.75 5.75 0 002.348 3.62c-.586.807-.848 1.75-.974 2.916-.124 1.143-.124 2.582-.124 4.419v.09c0 1.837 0 3.276.124 4.418.126 1.166.388 2.11.974 2.917a5.75 5.75 0 001.272 1.272c.807.586 1.75.848 2.916.974 1.143.124 2.582.124 4.419.124h4.043c.63 0 .883.001 1.127.03.423.052.835.166 1.223.34.225.1.443.23.983.553l.023.014c.42.252.768.461 1.056.608.289.147.598.277.932.3a2.25 2.25 0 002.164-1.225c.151-.298.2-.63.222-.954.022-.322.022-.728.022-1.218V11.943c0-2.309 0-4.118-.19-5.53-.194-1.444-.6-2.584-1.494-3.479zM8.25 11a.75.75 0 01.75-.75h6a.75.75 0 010 1.5H9a.75.75 0 01-.75-.75z"/>
</svg>
