<svg xmlns="http://www.w3.org/2000/svg" width="24" height="24" fill="currentColor" viewBox="0 0 24 24">
  <path fill-rule="evenodd" d="M12 2l.323-.677A.75.75 0 0011.25 2c0 .803.04 1.687.079 2.568l.031.713c.047 1.125.076 2.215.017 3.172-.061.975-.21 1.718-.463 2.198-.12.23-.25.372-.38.458a.928.928 0 01-.534.141c-.369 0-.611-.09-.789-.22-.185-.137-.362-.365-.515-.746C8.38 9.493 8.25 8.247 8.25 6.5a.75.75 0 00-1.234-.573L7.5 6.5l-.484-.573-.002.002-.004.003-.01.01a3.902 3.902 0 00-.163.147c-.106.099-.254.243-.43.43-.35.371-.815.915-1.28 1.61C4.2 9.512 3.25 11.531 3.25 14c0 4.962 3.839 8.75 8.75 8.75s8.75-3.788 8.75-8.75c0-4.357-2.135-7.537-4.223-9.602a18.176 18.176 0 00-2.87-2.303 15.622 15.622 0 00-1.226-.718 6.02 6.02 0 00-.076-.038l-.022-.01-.006-.004-.002-.001h-.001L12 2z"/>
</svg>
