<svg xmlns="http://www.w3.org/2000/svg" width="24" height="24" fill="currentColor" viewBox="0 0 24 24">
  <path fill-rule="evenodd" d="M4.088 7.736a8.069 8.069 0 0115.824 0l1.254 6.27c.403 2.013-.666 4.037-2.534 4.867-.681.303-1.381.557-2.093.761l-.104.234a4.853 4.853 0 01-8.87 0l-.104-.234a16.1 16.1 0 01-2.093-.761c-1.868-.83-2.937-2.854-2.534-4.868l1.254-6.269zM12 21.25c.997 0 1.924-.442 2.551-1.177a16.53 16.53 0 01-5.102 0A3.353 3.353 0 0012 21.25zM8.25 11a.75.75 0 01.75-.75h6a.75.75 0 010 1.5H9a.75.75 0 01-.75-.75z"/>
</svg>
