<svg xmlns="http://www.w3.org/2000/svg" width="24" height="24" fill="currentColor" viewBox="0 0 24 24">
  <path fill-rule="evenodd" d="M10 1.25h-.034c-1.371 0-2.447 0-3.311.07-.88.073-1.607.221-2.265.557A5.75 5.75 0 001.877 4.39c-.336.658-.484 1.385-.556 2.265-.071.864-.071 1.94-.071 3.311v4.068c0 1.371 0 2.447.07 3.311.073.88.221 1.607.557 2.265a5.75 5.75 0 002.513 2.513c.658.336 1.385.485 2.265.556.864.071 1.94.071 3.311.071h4.068c1.371 0 2.447 0 3.311-.07.88-.072 1.607-.221 2.265-.557a5.75 5.75 0 002.513-2.513c.336-.658.485-1.385.556-2.265.071-.864.071-1.94.071-3.311V9.966c0-1.371 0-2.447-.07-3.311-.072-.88-.221-1.607-.557-2.265a5.75 5.75 0 00-2.513-2.513c-.658-.336-1.385-.484-2.265-.556-.864-.071-1.94-.071-3.311-.071H10zm-1 7.5a3.25 3.25 0 000 6.5h1.25a.75.75 0 010 1.5H9a4.75 4.75 0 110-9.5h1.25a.75.75 0 010 1.5H9zM13 8a.75.75 0 01.75-.75H15a4.75 4.75 0 110 9.5h-1.25a.75.75 0 010-1.5H15a3.25 3.25 0 000-6.5h-1.25A.75.75 0 0113 8zm-3 3.25a.75.75 0 000 1.5h4a.75.75 0 000-1.5h-4z"/>
</svg>
