<svg xmlns="http://www.w3.org/2000/svg" width="24" height="24" fill="currentColor" viewBox="0 0 24 24">
  <path fill-rule="evenodd" d="M17.239 3.655c.685-.16 1.15-.27 1.512-.322.355-.05.523-.032.63.002.289.092.535.287.69.547.058.095.115.255.146.613.032.363.033.842.033 1.545V13a3.75 3.75 0 101.5 3V6.006c0-.66 0-1.206-.038-1.643-.04-.45-.126-.874-.354-1.253a2.75 2.75 0 00-1.52-1.204c-.422-.135-.853-.122-1.301-.057-.435.062-.965.187-1.608.338l-.034.008-5.6 1.318-.025.006c-.42.098-.772.182-1.06.272-.302.095-.58.211-.837.4a2.75 2.75 0 00-.904 1.14c-.124.293-.174.59-.197.907-.022.3-.022.663-.022 1.094V16a3.75 3.75 0 101.5 3V7.358c0-.464 0-.771.018-1.01.017-.231.047-.347.082-.43a1.25 1.25 0 01.41-.518c.073-.053.179-.109.4-.178.228-.072.528-.143.979-.249l5.6-1.318z"/>
</svg>
