<svg xmlns="http://www.w3.org/2000/svg" width="24" height="24" fill="currentColor" viewBox="0 0 24 24">
  <path fill-rule="evenodd" d="M17.383 4.233a2.75 2.75 0 00-3.605-1.091c-.419.208-.783.634-1.135 1.103-.371.495-.83 1.183-1.416 2.063l-.014.021c-.254.381-.326.482-.403.558a1.25 1.25 0 01-.63.338c-.107.022-.23.025-.688.025h-.608c-.818 0-1.376 0-1.855.128a3.75 3.75 0 00-2.651 2.652c-.128.478-.128 1.036-.128 1.854v.232c0 .818 0 1.376.128 1.855a3.75 3.75 0 002.651 2.651c.48.129 1.037.128 1.855.128h.608c.458 0 .581.004.687.025.24.049.458.166.631.338.077.076.149.177.403.558l.014.022c.586.88 1.045 1.567 1.416 2.062.352.469.716.896 1.135 1.103a2.75 2.75 0 003.605-1.091c.234-.405.3-.962.332-1.547.035-.619.035-1.445.035-2.502V8.282c0-1.057 0-1.883-.035-2.501-.032-.585-.098-1.142-.332-1.548z"/>
</svg>
