<svg xmlns="http://www.w3.org/2000/svg" width="24" height="24" fill="currentColor" viewBox="0 0 24 24">
  <path fill-rule="evenodd" d="M12 1.25C6.063 1.25 1.25 6.063 1.25 12S6.063 22.75 12 22.75 22.75 17.937 22.75 12 17.937 1.25 12 1.25zm-1.425 5.004a.75.75 0 01.671.82L11.03 9.25h2.492l.233-2.325a.75.75 0 011.492.15L15.03 9.25H17a.75.75 0 010 1.5h-2.121l-.25 2.5h1.746a.75.75 0 010 1.5h-1.896l-.233 2.325a.75.75 0 01-1.492-.15l.217-2.175H10.48l-.233 2.325a.75.75 0 01-1.492-.15l.217-2.175H7a.75.75 0 010-1.5h2.121l.25-2.5H7.625a.75.75 0 010-1.5h1.896l.233-2.325a.75.75 0 01.82-.671zm.054 6.996h2.492l.25-2.5H10.88l-.25 2.5z"/>
</svg>
