<svg xmlns="http://www.w3.org/2000/svg" width="24" height="24" fill="currentColor" viewBox="0 0 24 24">
  <path fill-rule="evenodd" d="M8 1.25a.75.75 0 01.75.75v4.25h6.5V2a.75.75 0 011.5 0v4.252c.485.005.85.024 1.177.09a4.75 4.75 0 013.732 3.731c.091.46.091.994.091 1.832v1.15c0 .877 0 1.375-.042 1.803a8.75 8.75 0 01-7.85 7.85c-.428.042-.926.042-1.802.042h-.112c-.876 0-1.374 0-1.802-.042a8.75 8.75 0 01-7.85-7.85c-.042-.428-.042-.926-.042-1.803v-1.15c0-.838 0-1.372.091-1.832a4.75 4.75 0 013.732-3.732c.328-.065.692-.084 1.177-.089V2A.75.75 0 018 1.25z"/>
</svg>
