<svg xmlns="http://www.w3.org/2000/svg" width="24" height="24" fill="currentColor" viewBox="0 0 24 24">
  <path fill-rule="evenodd" d="M6.8 2.25h-.032c-.813 0-1.469 0-2 .043-.546.045-1.026.14-1.47.366a3.75 3.75 0 00-1.64 1.639c-.226.444-.32.924-.365 1.47-.043.531-.043 1.187-.043 2v8.464c0 .813 0 1.469.043 2 .045.546.14 1.026.366 1.47a3.75 3.75 0 001.638 1.64c.445.226.925.32 1.471.365.531.043 1.187.043 2 .043h2.464c.813 0 1.468 0 2-.043.546-.045 1.026-.14 1.47-.366a3.75 3.75 0 001.64-1.639c.226-.444.32-.924.364-1.47.044-.531.044-1.187.044-2V7.768c0-.813 0-1.469-.043-2-.045-.546-.14-1.026-.366-1.47a3.75 3.75 0 00-1.639-1.64c-.444-.226-.924-.32-1.47-.365-.532-.043-1.187-.043-2-.043H6.8zm11.2 3a.75.75 0 01.75.75v12a.75.75 0 01-1.5 0V6a.75.75 0 01.75-.75zM22.75 9a.75.75 0 00-1.5 0v6a.75.75 0 001.5 0V9z"/>
</svg>
