<svg xmlns="http://www.w3.org/2000/svg" width="24" height="24" fill="currentColor" viewBox="0 0 24 24">
  <path fill-rule="evenodd" d="M9.966 1.25h4.068c1.371 0 2.447 0 3.311.07.88.073 1.607.221 2.265.557a5.75 5.75 0 012.513 2.513c.336.658.485 1.385.556 2.265.016.187.028.384.037.592.042.923.063 1.385-.233 1.694-.295.309-.776.309-1.737.309H3.254c-.961 0-1.442 0-1.737-.309-.296-.31-.275-.77-.233-1.694.01-.208.021-.405.037-.592.072-.88.22-1.607.556-2.265A5.75 5.75 0 014.39 1.877c.658-.336 1.385-.484 2.265-.556.864-.071 1.94-.071 3.311-.071zm5.284 11.5c0-.943 0-1.414-.293-1.707-.293-.293-.764-.293-1.707-.293h-2.5c-.943 0-1.414 0-1.707.293-.293.293-.293.764-.293 1.707v8.783c0 .203 0 .305.015.39.073.413.399.739.811.812.086.015.187.015.39.015h4.068c.203 0 .304 0 .39-.015.412-.073.738-.399.81-.81.016-.087.016-.19.016-.393V12.75zm2.095 9.93a.555.555 0 01-.595-.56v-9.37c0-.943 0-1.414.293-1.707.293-.293.764-.293 1.707-.293h2c.943 0 1.414 0 1.707.293.293.293.293.764.293 1.707v1.284c0 1.371 0 2.447-.07 3.311-.072.88-.221 1.607-.557 2.265a5.75 5.75 0 01-2.513 2.513c-.658.336-1.385.485-2.265.556zM1.25 12.75c0-.943 0-1.414.293-1.707.293-.293.764-.293 1.707-.293h2c.943 0 1.414 0 1.707.293.293.293.293.764.293 1.707v9.37a.555.555 0 01-.595.56c-.88-.072-1.607-.221-2.265-.557a5.75 5.75 0 01-2.513-2.513c-.336-.658-.484-1.385-.556-2.265-.071-.864-.071-1.94-.071-3.311V12.75z"/>
</svg>
