<svg xmlns="http://www.w3.org/2000/svg" width="24" height="24" fill="currentColor" viewBox="0 0 24 24">
  <path fill-rule="evenodd" d="M2.53 1.47a.75.75 0 10-1.06 1.06l1.847 1.848a4.821 4.821 0 00-.334.465c-.734 1.164-.734 2.426-.733 4.352v.379c0 3.641 0 5.745 1.144 7.758.089.155.236.393.335.541 1.288 1.924 2.737 2.649 5.231 3.896l.09.045c1.02.51 2.098.936 2.95.936.852 0 1.93-.426 2.95-.936l.086-.044c1.502-.75 2.645-1.322 3.591-2.082l1.843 1.842a.75.75 0 101.06-1.06l-2.34-2.34L4.902 3.84 2.53 1.47zm5.703 1.984C9.498 3.04 10.814 2.75 12 2.75c1.519 0 3.243.476 4.783 1.065 1.683.644 2.279.894 2.82 1.617.042.056.108.152.145.212.477.756.502 1.556.502 3.737 0 2.567-.004 4.166-.286 5.459a.75.75 0 001.465.32c.321-1.47.321-3.235.321-5.688v-.277c0-1.926.001-3.188-.733-4.352a5.405 5.405 0 00-.213-.31c-.824-1.1-1.836-1.488-3.364-2.072l-.12-.047C15.716 1.8 13.79 1.25 12 1.25c-1.407 0-2.893.34-4.233.778a.75.75 0 00.466 1.426z"/>
</svg>
