<svg xmlns="http://www.w3.org/2000/svg" width="24" height="24" fill="currentColor" viewBox="0 0 24 24">
  <path fill-rule="evenodd" d="M8.4 1.25h-.033c-1.092 0-1.958 0-2.655.057-.714.058-1.317.18-1.868.46a4.75 4.75 0 00-2.076 2.077c-.281.55-.403 1.154-.461 1.868-.057.697-.057 1.563-.057 2.655V9.633c0 1.092 0 1.958.057 2.655.058.714.18 1.317.46 1.868a4.75 4.75 0 002.077 2.076c.55.281 1.154.403 1.868.461.697.057 1.563.057 2.655.057H15.633c1.092 0 1.958 0 2.655-.057.714-.058 1.317-.18 1.869-.46a4.75 4.75 0 002.075-2.077c.281-.55.403-1.154.461-1.868.057-.697.057-1.563.057-2.655V8.367c0-1.092 0-1.958-.057-2.655-.058-.714-.18-1.317-.46-1.868a4.75 4.75 0 00-2.076-2.076c-.552-.281-1.155-.403-1.869-.461-.697-.057-1.563-.057-2.655-.057H8.4zM9.25 11a.75.75 0 01.75-.75h4a.75.75 0 010 1.5h-4a.75.75 0 01-.75-.75zM6 12a1 1 0 100-2 1 1 0 000 2zm13-1a1 1 0 11-2 0 1 1 0 012 0zm-1-3a1 1 0 100-2 1 1 0 000 2zM7 7a1 1 0 11-2 0 1 1 0 012 0zm3 1a1 1 0 100-2 1 1 0 000 2zm5-1a1 1 0 11-2 0 1 1 0 012 0zm-3.386 14.36c.25.082.521.082.772 0 .097-.031.224-.098.443-.285.227-.192.499-.463.903-.868l.738-.737a.75.75 0 111.06 1.06l-.737.738-.021.021c-.378.378-.693.693-.972.93-.29.246-.59.451-.95.568a2.75 2.75 0 01-1.7 0c-.36-.117-.66-.322-.95-.568-.279-.237-.594-.552-.972-.93l-.021-.021-.737-.738a.75.75 0 111.06-1.06l.738.737c.404.405.676.676.903.868.22.187.346.254.443.285z"/>
</svg>
