<svg xmlns="http://www.w3.org/2000/svg" width="24" height="24" fill="currentColor" viewBox="0 0 24 24">
  <path fill-rule="evenodd" d="M14.034 1.25H9.966c-1.371 0-2.447 0-3.311.07-.88.073-1.607.221-2.265.557A5.75 5.75 0 001.877 4.39c-.336.658-.484 1.385-.556 2.265-.071.864-.071 1.94-.071 3.311v4.068c0 1.371 0 2.447.07 3.311.073.88.221 1.607.557 2.265a5.75 5.75 0 002.513 2.513c.658.336 1.385.485 2.265.556.864.071 1.94.071 3.311.071h4.068c1.371 0 2.447 0 3.311-.07.88-.072 1.607-.221 2.265-.557a5.75 5.75 0 002.513-2.513c.336-.658.485-1.385.556-2.265.071-.864.071-1.94.071-3.311V9.966c0-1.371 0-2.447-.07-3.311-.072-.88-.221-1.607-.557-2.265a5.75 5.75 0 00-2.513-2.513c-.658-.336-1.385-.484-2.265-.556-.864-.071-1.94-.071-3.311-.071zm1.271 10.287c-.111-.343-.408-.64-1.002-1.234l-1.206-1.206c-1.285-1.285-1.928-1.928-2.48-1.971a1.5 1.5 0 00-1.258.521C9 8.068 9 8.977 9 10.794v2.412c0 1.817 0 2.726.36 3.147a1.5 1.5 0 001.258.521c.551-.043 1.194-.686 2.48-1.971l1.205-1.206c.594-.594.891-.891 1.002-1.233a1.5 1.5 0 000-.928z"/>
</svg>
