<svg xmlns="http://www.w3.org/2000/svg" width="24" height="24" fill="currentColor" viewBox="0 0 24 24">
  <path fill-rule="evenodd" d="M14 1.25h.034c1.371 0 2.447 0 3.311.07.88.073 1.607.221 2.265.557a5.75 5.75 0 012.513 2.513c.336.658.485 1.385.556 2.265.071.864.071 1.94.071 3.311v4.068c0 1.371 0 2.447-.07 3.311-.072.88-.221 1.607-.557 2.265a5.75 5.75 0 01-2.513 2.513c-.658.336-1.385.485-2.265.556-.864.071-1.94.071-3.311.071H9.966c-1.371 0-2.447 0-3.311-.07-.88-.072-1.607-.221-2.265-.557a5.75 5.75 0 01-2.513-2.513c-.336-.658-.484-1.385-.556-2.265-.071-.864-.071-1.94-.071-3.311V9.966c0-1.371 0-2.447.07-3.311.073-.88.221-1.607.557-2.265A5.75 5.75 0 014.39 1.877c.658-.336 1.385-.484 2.265-.556.864-.071 1.94-.071 3.311-.071H14zm1.53 7.22a.75.75 0 010 1.06L13.06 12l2.47 2.47a.75.75 0 11-1.06 1.06l-3-3a.75.75 0 010-1.06l3-3a.75.75 0 011.06 0zm-2-1.94a.75.75 0 00-1.06-1.06L8.732 9.207l-.021.021a17.82 17.82 0 00-.93.972c-.246.29-.451.59-.568.95a2.75 2.75 0 000 1.7c.117.36.322.66.568.95.237.279.552.594.93.971l.021.022 3.738 3.737a.75.75 0 101.06-1.06l-3.737-3.738c-.405-.404-.676-.676-.868-.903-.187-.22-.254-.346-.285-.443a1.25 1.25 0 010-.772c.031-.097.098-.224.285-.443.192-.227.463-.499.868-.903L13.53 6.53z"/>
</svg>
