<svg xmlns="http://www.w3.org/2000/svg" width="24" height="24" fill="currentColor" viewBox="0 0 24 24">
  <path fill-rule="evenodd" d="M11.467 1.25H12a.75.75 0 010 1.5h-.5c-1.645 0-2.835 0-3.772.075-.928.074-1.543.217-2.05.466a5.25 5.25 0 00-2.387 2.387c-.25.507-.392 1.122-.466 2.05-.074.937-.075 2.127-.075 3.772v.5c0 1.883 0 3.245.097 4.312.023.252.051.482.085.696l2.75-2.751.037-.037c.627-.627 1.15-1.15 1.621-1.51.498-.38 1.023-.648 1.66-.652.638-.005 1.167.255 1.67.628.477.353 1.008.868 1.643 1.486l.037.035 2.128 2.066.012-.01c.635-.636 1.165-1.166 1.642-1.53.504-.385 1.036-.655 1.68-.655.645 0 1.177.27 1.68.654.477.364 1.007.894 1.642 1.53l.037.036.002.002.002-.028c.074-.937.075-2.127.075-3.772V12a.75.75 0 011.5 0v.533c0 1.605 0 2.854-.08 3.857-.08 1.019-.247 1.847-.616 2.595a6.75 6.75 0 01-3.069 3.069c-.748.369-1.576.535-2.595.616-1.003.08-2.252.08-3.857.08H11.962c-1.837 0-3.267 0-4.41-.104-1.16-.105-2.098-.322-2.927-.8a6.75 6.75 0 01-2.47-2.471c-.48-.83-.696-1.767-.801-2.927-.104-1.143-.104-2.573-.104-4.41V11.467c0-1.605 0-2.854.08-3.858.08-1.018.247-1.846.616-2.594a6.75 6.75 0 013.069-3.069c.748-.369 1.576-.535 2.595-.616 1.003-.08 2.252-.08 3.857-.08zm6.003 2.22a2.164 2.164 0 113.06 3.06l-1.802 1.803-.08.08C17.89 9.17 17.4 9.66 16.793 9.99l-.045.024c-.612.323-1.291.459-2.344.67l-.11.021-.146.03a.75.75 0 01-.882-.883l.029-.146.022-.11c.21-1.052.346-1.732.669-2.344l.024-.045c.33-.608.82-1.098 1.579-1.857l.079-.079L17.47 3.47z"/>
</svg>
