<svg xmlns="http://www.w3.org/2000/svg" width="24" height="24" fill="currentColor" viewBox="0 0 24 24">
  <path fill-rule="evenodd" d="M4.088 7.736a8.069 8.069 0 0115.824 0l1.254 6.27c.403 2.013-.666 4.037-2.534 4.867-.681.303-1.381.557-2.093.761l-.104.234a4.853 4.853 0 01-8.87 0l-.104-.234a16.1 16.1 0 01-2.093-.761c-1.868-.83-2.937-2.854-2.534-4.868l1.254-6.269zm5.36 12.337a3.353 3.353 0 005.103 0 16.53 16.53 0 01-5.102 0zM12.75 8a.75.75 0 00-1.5 0v2.25H9a.75.75 0 000 1.5h2.25V14a.75.75 0 001.5 0v-2.25H15a.75.75 0 000-1.5h-2.25V8z"/>
</svg>
