<svg xmlns="http://www.w3.org/2000/svg" width="24" height="24" fill="currentColor" viewBox="0 0 24 24">
  <path fill-rule="evenodd" d="M9.966 1.25h4.068c1.371 0 2.447 0 3.311.07.88.073 1.607.221 2.265.557a5.75 5.75 0 012.513 2.513c.336.658.485 1.385.556 2.265.071.864.071 1.94.071 3.311v4.068c0 1.371 0 2.447-.07 3.311-.072.88-.221 1.607-.557 2.265a5.75 5.75 0 01-2.513 2.513c-.658.336-1.385.485-2.265.556-.864.071-1.94.071-3.311.071H9.966c-1.371 0-2.447 0-3.311-.07-.88-.072-1.607-.221-2.265-.557a5.75 5.75 0 01-2.513-2.513c-.336-.658-.484-1.385-.556-2.265-.071-.864-.071-1.94-.071-3.311V9.966c0-1.371 0-2.447.07-3.311.073-.88.221-1.607.557-2.265A5.75 5.75 0 014.39 1.877c.658-.336 1.385-.484 2.265-.556.864-.071 1.94-.071 3.311-.071zm1.273 5.572a2.49 2.49 0 013.586 3.456l-3.15 3.392a.985.985 0 11-1.418-1.367L13.53 9.03a.75.75 0 00-1.06-1.06l-3.273 3.273a2.485 2.485 0 103.578 3.448l3.15-3.392a3.99 3.99 0 00-5.747-5.538L6.97 8.97a5.7 5.7 0 108.06 8.06l4.5-4.5a.75.75 0 10-1.06-1.06l-4.5 4.5a4.2 4.2 0 01-5.94-5.94l3.209-3.208z"/>
</svg>
