<svg xmlns="http://www.w3.org/2000/svg" width="24" height="24" fill="currentColor" viewBox="0 0 24 24">
  <path fill-rule="evenodd" d="M6.463 5.403c-.73-.73-1.094-1.095-1.028-1.585.066-.491.464-.717 1.258-1.17A10.701 10.701 0 0112 1.25c5.937 0 10.75 4.813 10.75 10.75a10.7 10.7 0 01-1.399 5.306c-.452.795-.678 1.193-1.168 1.259-.491.066-.856-.299-1.586-1.028L6.463 5.403zm-1.06 1.06c-.73-.73-1.095-1.094-1.585-1.028-.491.066-.717.464-1.17 1.258A10.701 10.701 0 001.25 12c0 5.937 4.813 10.75 10.75 10.75a10.7 10.7 0 005.306-1.399c.795-.452 1.193-.678 1.259-1.168.066-.491-.299-.856-1.028-1.586L5.403 6.463z"/>
</svg>
