<svg xmlns="http://www.w3.org/2000/svg" width="24" height="24" fill="currentColor" viewBox="0 0 24 24">
  <path fill-rule="evenodd" d="M12 2.25c-4.555 0-8.237 3.691-8.441 8.281C1.614 11.294.25 13.225.25 15.467c0 2.896 2.285 5.283 5.15 5.283h12.1c3.473 0 6.25-2.894 6.25-6.417 0-2.577-1.482-4.81-3.636-5.83C19.096 4.904 15.86 2.25 12 2.25zm-2.53 8.22a.75.75 0 011.06 0L12 11.94l1.47-1.47a.75.75 0 111.06 1.06L13.06 13l1.47 1.47a.75.75 0 11-1.06 1.06L12 14.06l-1.47 1.47a.75.75 0 11-1.06-1.06L10.94 13l-1.47-1.47a.75.75 0 010-1.06z"/>
</svg>
