<svg xmlns="http://www.w3.org/2000/svg" width="24" height="24" fill="currentColor" viewBox="0 0 24 24">
  <path fill-rule="evenodd" d="M14 1.25h.034c1.371 0 2.447 0 3.311.07.88.073 1.607.221 2.265.557a5.75 5.75 0 012.513 2.513c.336.658.485 1.385.556 2.265.071.864.071 1.94.071 3.311v4.068c0 1.371 0 2.447-.07 3.311-.072.88-.221 1.607-.557 2.265a5.75 5.75 0 01-2.513 2.513c-.658.336-1.385.485-2.265.556-.864.071-1.94.071-3.311.071H9.966c-1.371 0-2.447 0-3.311-.07-.88-.072-1.607-.221-2.265-.557a5.75 5.75 0 01-2.513-2.513c-.336-.658-.484-1.385-.556-2.265-.071-.864-.071-1.94-.071-3.311V9.966c0-1.371 0-2.447.07-3.311.073-.88.221-1.607.557-2.265A5.75 5.75 0 014.39 1.877c.658-.336 1.385-.484 2.265-.556.864-.071 1.94-.071 3.311-.071H14zm-1.47 6.22a.75.75 0 010 1.06l-1.72 1.72h2.422c.813 0 1.469 0 2 .043.546.045 1.026.14 1.47.366a3.75 3.75 0 011.64 1.638c.226.445.32.925.365 1.471.043.531.043 1.187.043 2V16a.75.75 0 01-1.5 0v-.2c0-.853 0-1.447-.038-1.91-.038-.453-.107-.714-.207-.912a2.252 2.252 0 00-.983-.983c-.198-.1-.459-.17-.913-.207-.462-.037-1.056-.038-1.909-.038h-2.39l1.72 1.72a.75.75 0 11-1.06 1.06l-3-3a.75.75 0 010-1.06l3-3a.75.75 0 011.06 0zm-4 1.06a.75.75 0 00-1.06-1.06l-.738.737-.021.021a17.82 17.82 0 00-.93.972c-.246.29-.451.59-.568.95a2.75 2.75 0 000 1.7c.117.36.322.66.568.95.237.279.552.594.93.971l.021.022.738.737a.75.75 0 001.06-1.06l-.737-.738c-.405-.404-.676-.676-.868-.903-.187-.22-.254-.346-.285-.443a1.25 1.25 0 010-.772c.031-.097.098-.224.285-.443.192-.227.463-.499.868-.903l.737-.738z"/>
</svg>
