<svg xmlns="http://www.w3.org/2000/svg" width="24" height="24" fill="currentColor" viewBox="0 0 24 24">
  <path fill-rule="evenodd" d="M7.118 1.25h-.03c-.705 0-1.277 0-1.745.036-.483.036-.91.114-1.317.298a3.75 3.75 0 00-1.593 1.367c-.244.374-.385.784-.495 1.256-.107.457-.194 1.022-.301 1.72l-.004.03-.524 3.4-.005.033c-.142.924-.256 1.665-.296 2.266-.041.616-.012 1.164.185 1.68a3.75 3.75 0 001.65 1.924c.48.273 1.018.385 1.633.438.6.052 1.35.052 2.284.052h1.901c.258 0 .319.001.35.005a.75.75 0 01.633.96c-.01.03-.032.086-.133.323l-1.072 2.5a2.304 2.304 0 003.746 2.537l4.734-4.733.072-.073c.969-.968 1.546-1.546 1.964-2.227a6.75 6.75 0 00.809-1.951c.186-.778.186-1.595.186-2.964V6.768c0-.813 0-1.469-.043-2-.045-.546-.14-1.026-.366-1.47a3.75 3.75 0 00-1.639-1.64c-.444-.226-.924-.32-1.47-.365-.531-.043-1.187-.043-2-.043H7.118zM22 15.75a.75.75 0 01-.75-.75V3a.75.75 0 011.5 0v12a.75.75 0 01-.75.75z"/>
</svg>
