<svg xmlns="http://www.w3.org/2000/svg" width="24" height="24" fill="currentColor" viewBox="0 0 24 24">
  <path fill-rule="evenodd" d="M15 1.25A7.75 7.75 0 007.25 9c0 .55.017 1.229.093 1.896.053.47.138.966.282 1.418L1.97 17.97l-.013.012c-.067.068-.12.12-.164.168a2.75 2.75 0 000 3.7c.045.049.097.1.164.168l.013.012.012.013c.068.067.12.12.168.163a2.75 2.75 0 003.868-.163l.012-.013 5.656-5.655c.452.144.948.229 1.418.282A17.19 17.19 0 0015 16.75a7.75 7.75 0 007.429-9.964.75.75 0 00-1.25-.316l-2.447 2.447c-.404.405-.676.676-.903.868-.22.187-.346.254-.443.285a1.25 1.25 0 01-.772 0c-.097-.03-.224-.098-.443-.285-.226-.192-.499-.463-.903-.868l-.185-.185c-.405-.404-.676-.676-.868-.903-.187-.22-.254-.346-.285-.443a1.25 1.25 0 010-.772c.03-.097.098-.224.285-.443.192-.227.463-.499.868-.903L17.53 2.82a.75.75 0 00-.316-1.249A7.75 7.75 0 0015 1.25z"/>
</svg>
