<svg xmlns="http://www.w3.org/2000/svg" width="24" height="24" fill="currentColor" viewBox="0 0 24 24">
  <path fill-rule="evenodd" d="M12 1.25c-4.555 0-8.237 3.691-8.441 8.281C1.614 10.294.25 12.225.25 14.467c0 2.76 2.075 5.057 4.75 5.267v-6.613c0-.72 0-1.08.15-1.322a1 1 0 01.577-.435c.274-.078.62.02 1.313.219l4.52 1.291c.164.047.246.07.329.08.074.008.148.008.222 0 .083-.01.165-.033.329-.08l4.52-1.291c.693-.198 1.039-.297 1.313-.22a1 1 0 01.577.436c.15.242.15.602.15 1.322v6.443c2.74-.69 4.75-3.233 4.75-6.23 0-2.578-1.482-4.811-3.636-5.83C19.096 3.904 15.86 1.25 12 1.25zM9 15a1 1 0 11-2 0 1 1 0 012 0zm0 5a1 1 0 11-2 0 1 1 0 012 0zm7-4a1 1 0 100-2 1 1 0 000 2zm1 4a1 1 0 11-2 0 1 1 0 012 0zm-5-2a1 1 0 100-2 1 1 0 000 2zm1 4a1 1 0 11-2 0 1 1 0 012 0z"/>
</svg>
