<svg xmlns="http://www.w3.org/2000/svg" width="24" height="24" fill="currentColor" viewBox="0 0 24 24">
  <path fill-rule="evenodd" d="M16.25 1.25H7.75v.982c0 .813 0 1.469-.043 2-.045.546-.14 1.026-.366 1.47a3.75 3.75 0 01-1.639 1.64c-.444.226-.924.32-1.47.365-.531.043-1.187.043-2 .043H1.25v4.5h.982c.813 0 1.469 0 2 .043.546.045 1.026.14 1.47.366a3.75 3.75 0 011.64 1.638c.226.445.32.925.365 1.471.043.531.043 1.187.043 2v.982H16.25v-.982c0-.813 0-1.469.043-2 .045-.546.14-1.026.366-1.47a3.75 3.75 0 011.639-1.64c.444-.226.924-.32 1.47-.365.531-.043 1.187-.043 2-.043h.982V8.364 7.75h-.982c-.813 0-1.469 0-2-.043-.546-.045-1.026-.14-1.47-.366a3.75 3.75 0 01-1.64-1.639c-.226-.444-.32-.924-.365-1.47-.043-.531-.043-1.187-.043-2V1.25zm-10 17.475V17.8c0-.852 0-1.447-.038-1.91-.037-.453-.107-.714-.207-.912a2.25 2.25 0 00-.984-.983c-.197-.1-.458-.17-.912-.207-.462-.037-1.057-.038-1.909-.038h-.925c.008.19.018.369.032.538.058.714.18 1.317.46 1.869a4.75 4.75 0 002.077 2.075c.55.281 1.154.403 1.868.461.169.014.348.024.538.032zm12.038-.032c-.169.014-.348.024-.538.032V17.8c0-.852 0-1.447.038-1.91.038-.453.107-.714.207-.912.216-.423.56-.767.983-.983.198-.1.459-.17.913-.207.462-.037 1.057-.038 1.909-.038h.925c-.008.19-.018.369-.032.538-.058.714-.18 1.317-.46 1.869a4.75 4.75 0 01-2.076 2.075c-.552.281-1.155.403-1.869.461zM22.725 6.25c-.008-.19-.018-.369-.032-.538-.058-.714-.18-1.317-.46-1.868a4.75 4.75 0 00-2.076-2.076c-.552-.281-1.155-.403-1.869-.461-.169-.014-.348-.024-.538-.032V2.2c0 .852 0 1.447.038 1.91.038.453.107.714.207.911.216.424.56.768.983.984.198.1.459.17.913.207.462.037 1.057.038 1.909.038h.925zM5.712 1.307c.169-.014.348-.024.538-.032V2.2c0 .852 0 1.447-.038 1.91-.037.453-.107.714-.207.911a2.25 2.25 0 01-.984.984c-.197.1-.458.17-.912.207-.462.037-1.057.038-1.909.038h-.925c.008-.19.018-.369.032-.538.058-.714.18-1.317.46-1.868a4.75 4.75 0 012.077-2.076c.55-.281 1.154-.403 1.868-.461zM12 8.75a1.25 1.25 0 100 2.5 1.25 1.25 0 000-2.5zM9.25 10a2.75 2.75 0 115.5 0 2.75 2.75 0 01-5.5 0zM5 21.25a.75.75 0 000 1.5h14a.75.75 0 000-1.5H5z"/>
</svg>
