<svg xmlns="http://www.w3.org/2000/svg" width="24" height="24" fill="currentColor" viewBox="0 0 24 24">
  <path fill-rule="evenodd" d="M10.388 3.25H13.612c1.593 0 2.57 0 3.432.277a5.75 5.75 0 012.97 2.21c.514.746.795 1.682 1.253 3.209l.042.14.324 1.082.006.017c.13.438.203.678.265.918.182.706.303 1.425.362 2.147h-3.647c-.535 0-.955 0-1.348.119a2.748 2.748 0 00-.947.507c-.317.26-.55.61-.846 1.055l-.052.078-.1.15c-.373.56-.48.705-.603.807a1.252 1.252 0 01-.43.23c-.153.046-.333.054-1.006.054h-2.575c-.672 0-.853-.008-1.005-.054a1.252 1.252 0 01-.43-.23c-.124-.101-.23-.247-.603-.807l-.1-.15-.052-.078c-.296-.445-.529-.795-.846-1.055a2.748 2.748 0 00-.947-.507c-.394-.12-.814-.12-1.348-.119H1.734c.059-.723.18-1.44.362-2.147.062-.24.134-.48.265-.918l.006-.018.324-1.082.042-.14c.458-1.526.739-2.462 1.252-3.208a5.75 5.75 0 012.97-2.21c.862-.277 1.84-.277 3.433-.277zM1.7 14.75c.026.72.113 1.439.261 2.148.051.243.112.486.223.93l.004.018.011.044c.12.48.193.773.286 1.033a5.75 5.75 0 004.867 3.8c.276.027.578.027 1.072.027h7.151c.495 0 .797 0 1.073-.026a5.75 5.75 0 004.867-3.8c.092-.261.166-.555.286-1.034l.01-.045.005-.018c.11-.443.172-.686.223-.929.148-.71.235-1.428.26-2.148h-3.587c-.672 0-.853.008-1.005.054a1.252 1.252 0 00-.43.23c-.124.101-.23.247-.603.807l-.1.15-.052.078c-.296.445-.529.795-.846 1.056-.28.23-.601.401-.947.506-.394.12-.814.12-1.348.119h-2.762c-.535 0-.955 0-1.348-.119a2.748 2.748 0 01-.947-.506c-.317-.261-.55-.611-.846-1.056l-.052-.078-.1-.15c-.373-.56-.48-.705-.603-.807a1.252 1.252 0 00-.43-.23c-.153-.046-.333-.054-1.006-.054H1.7zM12 .25a.75.75 0 01.75.75v8.19l1.72-1.72a.75.75 0 111.06 1.06l-3 3a.75.75 0 01-1.06 0l-3-3a.75.75 0 111.06-1.06l1.72 1.72V1A.75.75 0 0112 .25z"/>
</svg>
