<svg xmlns="http://www.w3.org/2000/svg" width="24" height="24" fill="currentColor" viewBox="0 0 24 24">
  <path fill-rule="evenodd" d="M9.966 1.25h4.068c1.371 0 2.447 0 3.311.07.88.073 1.607.221 2.265.557a5.75 5.75 0 012.513 2.513c.336.658.485 1.385.556 2.265.071.864.071 1.94.071 3.31v4.069c0 1.371 0 2.447-.07 3.311-.072.88-.221 1.607-.557 2.265a5.75 5.75 0 01-2.513 2.513c-.658.336-1.385.485-2.265.556-.864.071-1.94.071-3.31.071H9.965c-1.372 0-2.447 0-3.311-.07-.88-.072-1.607-.221-2.265-.557a5.75 5.75 0 01-2.513-2.513c-.336-.658-.484-1.385-.556-2.265-.071-.864-.071-1.94-.071-3.311V9.966c0-1.371 0-2.447.07-3.311.073-.88.221-1.607.557-2.265A5.75 5.75 0 014.39 1.877c.658-.336 1.385-.484 2.265-.556.864-.071 1.94-.071 3.311-.071zM7 18a1 1 0 110-2 1 1 0 010 2zm4-1a1 1 0 102 0 1 1 0 00-2 0zm6 1a1 1 0 110-2 1 1 0 010 2zM6 12a1 1 0 102 0 1 1 0 00-2 0zm6 1a1 1 0 110-2 1 1 0 010 2zm4-1a1 1 0 102 0 1 1 0 00-2 0zM7 8a1 1 0 110-2 1 1 0 010 2zm4-1a1 1 0 102 0 1 1 0 00-2 0zm6 1a1 1 0 110-2 1 1 0 010 2z"/>
</svg>
