<svg xmlns="http://www.w3.org/2000/svg" width="24" height="24" fill="currentColor" viewBox="0 0 24 24">
  <path fill-rule="evenodd" d="M9.966 1.25h4.068c1.371 0 2.447 0 3.311.07.88.073 1.607.221 2.265.557a5.75 5.75 0 012.513 2.513c.336.658.485 1.385.556 2.265.071.864.071 1.94.071 3.311v4.068c0 1.371 0 2.447-.07 3.311-.072.88-.221 1.607-.557 2.265a5.75 5.75 0 01-2.513 2.513c-.658.336-1.385.485-2.265.556-.864.071-1.94.071-3.311.071H9.966c-1.371 0-2.447 0-3.311-.07-.88-.072-1.607-.221-2.265-.557a5.75 5.75 0 01-2.513-2.513c-.336-.658-.484-1.385-.556-2.265-.071-.864-.071-1.94-.071-3.311V9.966c0-1.371 0-2.447.07-3.311.073-.88.221-1.607.557-2.265A5.75 5.75 0 014.39 1.877c.658-.336 1.385-.484 2.265-.556.864-.071 1.94-.071 3.311-.071zm6.748 2.52a.75.75 0 00-1.428.46l.288.891a7.75 7.75 0 103.855 4.665.75.75 0 00-1.438.428 6.25 6.25 0 11-1.527-2.588.75.75 0 001.25-.755l-1-3.101zM10.75 11a2.25 2.25 0 014.5 0v2a2.25 2.25 0 01-4.5 0v-2zm2.25-.75a.75.75 0 00-.75.75v2a.75.75 0 001.5 0v-2a.75.75 0 00-.75-.75zm-2.75-.75a.75.75 0 00-1.5 0v5a.75.75 0 001.5 0v-5z"/>
</svg>
