<svg xmlns="http://www.w3.org/2000/svg" width="24" height="24" fill="currentColor" viewBox="0 0 24 24">
  <path fill-rule="evenodd" d="M12 2.75a3.251 3.251 0 00-3.163 2.5h6.326A3.251 3.251 0 0012 2.75zm0-1.5a4.751 4.751 0 00-4.691 4.002c-.615.005-1.142.018-1.597.055-.714.058-1.317.18-1.868.46a4.75 4.75 0 00-2.076 2.077c-.281.55-.403 1.154-.461 1.868-.015.184-.026.38-.034.59l.007.002.04.015.166.06c.148.053.367.129.65.22a36.057 36.057 0 005.114 1.239V11a.75.75 0 011.5 0v1.05c1.04.123 2.135.2 3.25.2 1.115 0 2.21-.076 3.25-.2V11a.75.75 0 011.5 0v.838a36.062 36.062 0 005.114-1.239 24.272 24.272 0 00.816-.28l.04-.015.007-.003c-.008-.209-.019-.405-.034-.59-.058-.713-.18-1.316-.46-1.867a4.75 4.75 0 00-2.076-2.076c-.552-.281-1.155-.403-1.869-.461-.455-.037-.982-.05-1.596-.055A4.751 4.751 0 0012 1.25zm3.25 12.31V14a.75.75 0 001.5 0v-.643a37.407 37.407 0 006-1.472v3.748c0 1.092 0 1.958-.057 2.655-.058.714-.18 1.317-.46 1.869a4.75 4.75 0 01-2.076 2.075c-.552.281-1.155.403-1.869.461-.697.057-1.563.057-2.655.057H8.367c-1.092 0-1.958 0-2.655-.057-.714-.058-1.317-.18-1.868-.46a4.75 4.75 0 01-2.076-2.076c-.281-.552-.403-1.155-.461-1.869-.057-.697-.057-1.563-.057-2.655v-3.266-.482a36.442 36.442 0 002.9.843c.905.223 1.955.448 3.1.629V14a.75.75 0 001.5 0v-.44c1.04.118 2.133.19 3.25.19s2.21-.072 3.25-.19z"/>
</svg>
