<svg xmlns="http://www.w3.org/2000/svg" width="24" height="24" fill="currentColor" viewBox="0 0 24 24">
  <path fill-rule="evenodd" d="M2.53 1.47a.75.75 0 00-1.06 1.06l2.417 2.417A10.711 10.711 0 001.25 12c0 1.61.355 3.14.99 4.512l.681-.315-.68.316.023.05c.478 1.032.751 1.621.52 2.428a3.677 3.677 0 01-.21.515c-.029.06-.06.127-.092.2-.126.278-.286.657-.32 1.08a1.75 1.75 0 002.03 1.87l-.122-.74.123.74c.635-.106 1.18-.387 1.58-.594.098-.05.188-.097.268-.135.425-.202.78-.308 1.313-.183.11.026.476.156 1.37.475l.252-.706-.252.706c.998.357 2.062.531 3.276.531 2.698 0 5.165-.995 7.053-2.637l2.417 2.417a.75.75 0 101.06-1.06l-2.929-2.93L5.46 4.4 2.53 1.469zM8.3 3.52a9.216 9.216 0 013.7-.77A9.25 9.25 0 0121.25 12a9.216 9.216 0 01-.77 3.7.75.75 0 001.375.6c.576-1.318.895-2.773.895-4.3 0-5.937-4.813-10.75-10.75-10.75-1.527 0-2.982.319-4.3.895a.75.75 0 00.6 1.374z"/>
</svg>
