<svg xmlns="http://www.w3.org/2000/svg" width="24" height="24" fill="currentColor" viewBox="0 0 24 24">
  <path fill-rule="evenodd" d="M9.966 1.25h4.068c1.371 0 2.447 0 3.311.07.88.073 1.607.221 2.265.557a5.75 5.75 0 012.513 2.513c.336.658.485 1.385.556 2.265.071.864.071 1.94.071 3.311V10c0 .232 0 .348-.02.445a1 1 0 01-.785.786c-.096.019-.213.019-.445.019h-19c-.232 0-.348 0-.445-.02a1 1 0 01-.786-.785c-.019-.097-.019-.213-.019-.445v-.034c0-1.371 0-2.447.07-3.311.073-.88.221-1.607.557-2.265A5.75 5.75 0 014.39 1.877c.658-.336 1.385-.484 2.265-.556.864-.071 1.94-.071 3.311-.071zM2.5 12.75c-.232 0-.348 0-.445.02a1 1 0 00-.786.785c-.019.097-.019.213-.019.445v.034c0 1.371 0 2.447.07 3.311.073.88.221 1.607.557 2.265a5.75 5.75 0 002.513 2.513c.658.336 1.385.485 2.265.556.864.071 1.94.071 3.311.071h4.068c1.371 0 2.447 0 3.311-.07.88-.072 1.607-.221 2.265-.557a5.75 5.75 0 002.513-2.513c.336-.658.485-1.385.556-2.265.071-.864.071-1.94.071-3.311V14c0-.232 0-.348-.02-.445a1 1 0 00-.785-.786c-.096-.019-.213-.019-.445-.019h-19z"/>
</svg>
