<svg xmlns="http://www.w3.org/2000/svg" width="24" height="24" fill="currentColor" viewBox="0 0 24 24">
  <path fill-rule="evenodd" d="M1.25 4A.75.75 0 012 3.25h18a.75.75 0 010 1.5H2A.75.75 0 011.25 4zm0 5A.75.75 0 012 8.25h14a.75.75 0 010 1.5H2A.75.75 0 011.25 9zM2 13.25a.75.75 0 000 1.5h9a.75.75 0 000-1.5H2zM1.25 19a.75.75 0 01.75-.75h7a.75.75 0 010 1.5H2a.75.75 0 01-.75-.75zM14 17a5 5 0 1110 0 5 5 0 01-10 0zm5-2.75a.75.75 0 01.75.75v1.25H21a.75.75 0 010 1.5h-1.25V19a.75.75 0 01-1.5 0v-1.25H17a.75.75 0 010-1.5h1.25V15a.75.75 0 01.75-.75z"/>
</svg>
