<svg xmlns="http://www.w3.org/2000/svg" width="24" height="24" fill="currentColor" viewBox="0 0 24 24">
  <path fill-rule="evenodd" d="M8.367 2.25H15.633c1.092 0 1.958 0 2.655.057.714.058 1.317.18 1.869.46a4.75 4.75 0 012.075 2.077c.281.55.403 1.154.461 1.868.057.697.057 1.563.057 2.655V14.633c0 1.092 0 1.958-.057 2.655-.058.714-.18 1.317-.46 1.869a4.75 4.75 0 01-2.076 2.075c-.552.281-1.155.403-1.869.461-.697.057-1.563.057-2.655.057H11a.75.75 0 010-1.5h4.6c1.133 0 1.937 0 2.566-.052.62-.05 1.005-.147 1.31-.302a3.25 3.25 0 001.42-1.42c.155-.305.251-.69.302-1.31.051-.63.052-1.434.052-2.566V9.316c0-.537 0-.806-.109-1.02a1.013 1.013 0 00-.437-.437c-.214-.109-.486-.109-1.03-.109H4.326c-.544 0-.816 0-1.03.109a1.013 1.013 0 00-.437.437c-.109.214-.109.483-.109 1.02v5.97a.75.75 0 01-1.5 0V9.367c0-1.092 0-1.958.057-2.655.058-.714.18-1.317.46-1.868a4.75 4.75 0 012.077-2.076c.55-.281 1.154-.403 1.868-.461.697-.057 1.563-.057 2.655-.057zM5.47 16.47a.75.75 0 011.06 0l2 2a.75.75 0 010 1.06l-2 2a.75.75 0 01-1.06-1.06l.72-.72H2a.75.75 0 010-1.5h4.19l-.72-.72a.75.75 0 010-1.06zM15 11.25a.75.75 0 000 1.5h3a.75.75 0 000-1.5h-3z"/>
</svg>
