<svg xmlns="http://www.w3.org/2000/svg" width="24" height="24" fill="currentColor" viewBox="0 0 24 24">
  <path fill-rule="evenodd" d="M2.53 1.47a.75.75 0 00-1.06 1.06l2.532 2.533C2.893 6.558 2.25 8.416 2.25 10.5c0 4.17 1.866 7.233 3.984 9.239a13.29 13.29 0 003.183 2.24c.976.484 1.912.77 2.583.77.77 0 1.908-.379 3.08-1.031a13.537 13.537 0 003.144-2.434l3.246 3.246a.75.75 0 101.06-1.06l-3.803-3.804L5.539 4.478 2.53 1.47zM7.96 3.67C9.144 3.08 10.52 2.75 12 2.75c4.643 0 8.25 3.22 8.25 7.75 0 1.595-.306 2.998-.802 4.218a.75.75 0 001.39.564c.567-1.396.912-2.99.912-4.782 0-5.47-4.393-9.25-9.75-9.25-1.704 0-3.31.38-4.71 1.079a.75.75 0 00.67 1.342zM12 7.25a.75.75 0 000 1.5A2.25 2.25 0 0114.25 11a.75.75 0 001.5 0A3.75 3.75 0 0012 7.25z"/>
</svg>
