<svg xmlns="http://www.w3.org/2000/svg" width="24" height="24" fill="currentColor" viewBox="0 0 24 24">
  <path fill-rule="evenodd" d="M12.415 1.25h.121c1.138 0 2.03 0 2.75.05.732.049 1.342.152 1.907.385a5.75 5.75 0 013.122 3.122c.233.564.336 1.174.386 1.907.049.72.049 1.612.049 2.75v4.57c0 1.371 0 2.447-.07 3.311-.073.88-.222 1.607-.557 2.266a5.75 5.75 0 01-2.513 2.512c-.658.336-1.385.485-2.265.556-.865.071-1.94.071-3.312.071h-.067c-1.372 0-2.447 0-3.311-.07-.88-.072-1.608-.221-2.266-.557a5.75 5.75 0 01-2.513-2.512c-.335-.659-.484-1.386-.556-2.266-.07-.864-.07-1.94-.07-3.311V10.81c0-.99 0-1.6.124-2.19a5.75 5.75 0 01.542-1.497c.282-.532.672-1 1.306-1.762l.056-.066.9-1.08.059-.071c.675-.81 1.09-1.308 1.59-1.694a5.75 5.75 0 012.27-1.063c.616-.137 1.264-.137 2.318-.137zM9.75 9a.75.75 0 00-1.5 0v2a.75.75 0 001.5 0V9zM15 6.25a.75.75 0 01.75.75v4a.75.75 0 01-1.5 0V7a.75.75 0 01.75-.75zM12.75 7a.75.75 0 00-1.5 0v4a.75.75 0 101.5 0V7z"/>
</svg>
