<svg xmlns="http://www.w3.org/2000/svg" width="24" height="24" fill="currentColor" viewBox="0 0 24 24">
  <path fill-rule="evenodd" d="M13.646 1.273c.297.024.592.078.875.222.424.216.768.56.984.984.144.283.198.578.222.875.023.28.023.622.023 1.017v1.697c0 .306 0 .575-.062.836-.055.23-.146.449-.27.65-.14.23-.33.42-.546.635l-.045.044-2.297 2.297a.75.75 0 01-1.06 0L9.173 8.233l-.045-.044c-.216-.215-.406-.406-.546-.635a2.25 2.25 0 01-.27-.65c-.063-.261-.062-.53-.062-.836V4.371c0-.395 0-.736.023-1.017.024-.297.078-.592.222-.875a2.25 2.25 0 01.984-.984c.283-.144.578-.198.875-.222.28-.023.622-.023 1.017-.023H12.63c.395 0 .736 0 1.017.023zM6.068 8.25c.306 0 .575 0 .836.062.23.055.449.146.65.27.23.14.42.33.635.546l.044.045 2.297 2.297a.75.75 0 010 1.06l-2.297 2.297-.044.045c-.215.216-.406.406-.635.546-.201.124-.42.215-.65.27-.261.063-.53.062-.836.062H4.371c-.395 0-.736 0-1.017-.023-.297-.024-.592-.078-.875-.222a2.25 2.25 0 01-.984-.984c-.144-.283-.198-.578-.222-.875-.023-.28-.023-.622-.023-1.017V11.37c0-.395 0-.736.023-1.017.024-.297.078-.592.222-.875a2.25 2.25 0 01.984-.984c.283-.144.578-.198.875-.222.28-.023.622-.023 1.017-.023h1.697zm11.926 0h-.062c-.305 0-.575 0-.836.062a2.25 2.25 0 00-.65.27c-.23.14-.42.33-.635.546l-.044.045-2.297 2.297a.75.75 0 000 1.06l2.297 2.297.044.045c.215.216.405.406.635.546.201.124.42.215.65.27.261.063.53.062.836.062h1.697c.395 0 .736 0 1.017-.023.297-.024.592-.078.875-.222a2.25 2.25 0 00.984-.984c.144-.283.198-.578.222-.875.023-.28.023-.622.023-1.017V11.37c0-.395 0-.736-.023-1.017-.024-.297-.078-.592-.222-.875a2.25 2.25 0 00-.983-.984c-.284-.144-.58-.198-.876-.222-.28-.023-.622-.023-1.017-.023h-1.635zm-5.464 5.22a.75.75 0 00-1.06 0l-2.297 2.297-.045.044c-.216.215-.406.405-.546.635a2.25 2.25 0 00-.27.65c-.063.261-.062.53-.062.836v1.697c0 .395 0 .736.023 1.017.024.297.078.592.222.875.216.424.56.768.984.984.283.144.578.198.875.222.28.023.622.023 1.017.023H12.63c.395 0 .736 0 1.017-.023.297-.024.592-.078.875-.222a2.25 2.25 0 00.984-.983c.144-.284.198-.58.222-.876.023-.28.023-.622.023-1.017v-1.697c0-.305 0-.575-.062-.836a2.248 2.248 0 00-.27-.65c-.14-.23-.33-.42-.546-.635l-.045-.044-2.297-2.297z"/>
</svg>
