<svg xmlns="http://www.w3.org/2000/svg" width="24" height="24" fill="currentColor" viewBox="0 0 24 24">
  <path fill-rule="evenodd" d="M16 1.25a3.75 3.75 0 103.675 4.5H22a.75.75 0 000-1.5h-2.325a3.751 3.751 0 00-3.675-3zm-14 10a.75.75 0 000 1.5h2.325A3.751 3.751 0 0011.75 12a3.75 3.75 0 00-7.425-.75H2zm17.675 8.5A3.751 3.751 0 0112.25 19a3.75 3.75 0 017.425-.75H22a.75.75 0 010 1.5h-2.325zM2 18.25a.75.75 0 000 1.5h8a.75.75 0 000-1.5H2zM13.25 12a.75.75 0 01.75-.75h8a.75.75 0 010 1.5h-8a.75.75 0 01-.75-.75zM2 4.25a.75.75 0 100 1.5h8a.75.75 0 000-1.5H2z"/>
</svg>
