<svg xmlns="http://www.w3.org/2000/svg" width="24" height="24" fill="currentColor" viewBox="0 0 24 24">
  <path fill-rule="evenodd" d="M8.45.4a.75.75 0 10-.9 1.2l2.2 1.65H8.367c-1.092 0-1.958 0-2.655.057-.714.058-1.317.18-1.868.46a4.75 4.75 0 00-2.076 2.077c-.281.55-.403 1.154-.461 1.868-.057.697-.057 1.563-.057 2.655v3.266c0 1.092 0 1.958.057 2.655.058.714.18 1.317.46 1.869a4.75 4.75 0 002.077 2.075c.55.281 1.154.403 1.868.461.322.026.68.04 1.079.048l-.462.924a.75.75 0 001.342.67l.793-1.585h7.072l.793 1.585a.75.75 0 001.342-.67l-.462-.924c.4-.008.757-.022 1.08-.048.713-.058 1.316-.18 1.867-.46a4.75 4.75 0 002.076-2.076c.281-.552.403-1.155.461-1.869.057-.697.057-1.563.057-2.655v-3.266c0-1.092 0-1.958-.057-2.655-.058-.714-.18-1.317-.46-1.868a4.75 4.75 0 00-2.076-2.076c-.552-.281-1.155-.403-1.869-.461-.697-.057-1.563-.057-2.655-.057H14.25l2.2-1.65a.75.75 0 00-.9-1.2L12 3.063 8.45.4zM12 18a1.5 1.5 0 100-3 1.5 1.5 0 000 3z"/>
</svg>
