<svg xmlns="http://www.w3.org/2000/svg" width="24" height="24" fill="currentColor" viewBox="0 0 24 24">
  <path fill-rule="evenodd" d="M1.25 4A.75.75 0 012 3.25h18a.75.75 0 010 1.5H2A.75.75 0 011.25 4zm17.654 10.034l-.03-.019c-.379-.253-.706-.47-.98-.62-.275-.148-.614-.296-.998-.273a1.75 1.75 0 00-1.292.69c-.232.308-.297.672-.326.983-.028.31-.028.704-.028 1.16V18.045c0 .456 0 .85.028 1.16.029.31.094.675.326.982.31.408.78.66 1.292.691.384.023.723-.125.998-.273.274-.15.601-.367.98-.62l.03-.02 1.515-1.01.027-.018c.31-.207.585-.39.794-.558.215-.174.444-.395.574-.709a1.75 1.75 0 000-1.34c-.13-.314-.359-.535-.574-.71-.209-.167-.483-.35-.794-.557l-.027-.018-1.515-1.01zM2 8.25a.75.75 0 000 1.5h14a.75.75 0 000-1.5H2zM1.25 14a.75.75 0 01.75-.75h9a.75.75 0 010 1.5H2a.75.75 0 01-.75-.75zM2 18.25a.75.75 0 000 1.5h7a.75.75 0 000-1.5H2z"/>
</svg>
