<svg xmlns="http://www.w3.org/2000/svg" width="24" height="24" fill="currentColor" viewBox="0 0 24 24">
  <path fill-rule="evenodd" d="M6.86 3.305A2.251 2.251 0 019 1.75h8a.75.75 0 000-1.5H9a3.75 3.75 0 00-3.722 3.29 4.503 4.503 0 00-.888.337A5.75 5.75 0 001.877 6.39c-.336.658-.484 1.385-.556 2.265-.071.864-.071 1.94-.071 3.311V14.034c0 1.371 0 2.447.07 3.311.073.88.221 1.607.557 2.265a5.75 5.75 0 002.513 2.513c.658.336 1.385.485 2.265.556.864.071 1.94.071 3.311.071h4.068c1.371 0 2.447 0 3.311-.07.88-.072 1.607-.221 2.265-.557a5.75 5.75 0 002.513-2.513c.336-.658.485-1.385.556-2.265.071-.864.071-1.94.071-3.311V11.966c0-1.371 0-2.447-.07-3.311-.072-.88-.221-1.607-.557-2.265a5.75 5.75 0 00-2.513-2.513c-.658-.336-1.385-.484-2.265-.556-.864-.071-1.94-.071-3.311-.071H9.966c-1.265 0-2.279 0-3.107.055zM6.75 11a1.25 1.25 0 112.5 0 1.25 1.25 0 01-2.5 0zM8 8.25a2.75 2.75 0 100 5.5 2.75 2.75 0 000-5.5zm5.25.75a.75.75 0 01.75-.75h4a.75.75 0 010 1.5h-4a.75.75 0 01-.75-.75zm.75 3.25a.75.75 0 000 1.5h4a.75.75 0 000-1.5h-4z"/>
</svg>
