<svg xmlns="http://www.w3.org/2000/svg" width="24" height="24" fill="currentColor" viewBox="0 0 24 24">
  <path fill-rule="evenodd" d="M10.98 1.025a4.75 4.75 0 012.038 0c.76.167 1.459.586 2.543 1.237l.117.07 3.6 2.16.11.066c1.028.617 1.69 1.013 2.179 1.57.432.492.758 1.068.957 1.692.226.706.226 1.477.226 2.675v3.01c0 1.197 0 1.969-.226 2.675-.199.624-.525 1.2-.957 1.692-.49.557-1.151.953-2.179 1.57l-.11.065-3.6 2.16-.116.07c-1.085.652-1.783 1.07-2.543 1.238a4.75 4.75 0 01-2.038 0c-.76-.167-1.459-.587-2.543-1.238l-.117-.07-3.6-2.16-.11-.066c-1.027-.616-1.689-1.012-2.178-1.57a4.75 4.75 0 01-.958-1.69c-.226-.707-.226-1.479-.225-2.676v-3.01c0-1.198 0-1.969.225-2.675.199-.624.525-1.2.958-1.692.49-.557 1.15-.953 2.178-1.57l.11-.066 3.6-2.16.117-.07c1.084-.65 1.782-1.07 2.543-1.237zM12 9a3 3 0 100 6 3 3 0 000-6z"/>
</svg>
