<svg xmlns="http://www.w3.org/2000/svg" width="24" height="24" fill="currentColor" viewBox="0 0 24 24">
  <path fill-rule="evenodd" d="M14.034 1.25H9.966c-1.371 0-2.447 0-3.311.07-.88.073-1.607.221-2.265.557A5.75 5.75 0 001.877 4.39c-.336.658-.484 1.385-.556 2.265-.071.864-.071 1.94-.071 3.311v4.068c0 1.371 0 2.447.07 3.311.073.88.221 1.607.557 2.265a5.75 5.75 0 002.513 2.513c.658.336 1.385.485 2.265.556.864.071 1.94.071 3.311.071h4.068c1.371 0 2.447 0 3.311-.07.88-.072 1.607-.221 2.265-.557a5.75 5.75 0 002.513-2.513c.336-.658.485-1.385.556-2.265.071-.864.071-1.94.071-3.311V9.966c0-1.371 0-2.447-.07-3.311-.072-.88-.221-1.607-.557-2.265a5.75 5.75 0 00-2.513-2.513c-.658-.336-1.385-.484-2.265-.556-.864-.071-1.94-.071-3.311-.071zM6.55 9.491A.75.75 0 005.25 10v4c0 .414.336.75.75.75h4a.75.75 0 000-1.5H7.68c.22-.217.468-.447.74-.676.62-.522 1.329-1.012 2.083-1.353l6.77 2.964a.75.75 0 001.455-.367L18 14c.728-.182.727-.182.727-.183v-.003l-.002-.005-.004-.015-.012-.046a6.015 6.015 0 00-.248-.673 6.787 6.787 0 00-.941-1.548c-.932-1.147-2.51-2.277-5.02-2.277-1.387 0-2.669.538-3.734 1.21l-2.215-.969zm0 0L6 9.25l.551.241zm0 0l2.215.97c-.486.306-.927.641-1.312.965-.255.215-.49.43-.704.635V10a.747.747 0 00-.199-.509zm3.952 1.73l-1.737-.76 1.737.76zm6.77 2.963v-.001l-.006-.02a4.508 4.508 0 00-.18-.487 5.284 5.284 0 00-.732-1.203c-.693-.853-1.865-1.723-3.855-1.723-.68 0-1.355.181-1.997.471l6.77 2.963z"/>
</svg>
