<svg xmlns="http://www.w3.org/2000/svg" width="24" height="24" fill="currentColor" viewBox="0 0 24 24">
  <path fill-rule="evenodd" d="M12 1.25C6.063 1.25 1.25 6.063 1.25 12S6.063 22.75 12 22.75 22.75 17.937 22.75 12 17.937 1.25 12 1.25zM16 9a2 2 0 11-4 0 2 2 0 014 0zm2.68 5.732c.41.314.86.75 1.383 1.27A9 9 0 0112 21a8.995 8.995 0 01-7.709-4.352l.179-.178 1.671-1.672.037-.037c.635-.635 1.165-1.165 1.642-1.529.504-.384 1.036-.654 1.68-.654.644 0 1.176.27 1.68.654.477.364 1.007.894 1.642 1.53l.037.036L14 15.94c.496-.493.926-.907 1.32-1.208.504-.384 1.036-.654 1.68-.654.644 0 1.176.27 1.68.654z"/>
</svg>
