<svg xmlns="http://www.w3.org/2000/svg" width="24" height="24" fill="currentColor" viewBox="0 0 24 24">
  <path fill-rule="evenodd" d="M10.443 2.25c.888 0 1.461 0 2.009.131a4.75 4.75 0 011.373.569c.48.294.885.7 1.514 1.328l.066.066 3.6 3.6.023.024c.773.772 1.385 1.384 1.837 1.917.464.546.805 1.059.996 1.647a4.75 4.75 0 010 2.936c-.192.588-.532 1.101-.996 1.647-.452.533-1.064 1.145-1.837 1.918l-.023.023-.95.949-.023.023c-.772.772-1.384 1.385-1.917 1.837-.546.464-1.059.805-1.647.996a4.75 4.75 0 01-2.936 0c-.588-.192-1.101-.532-1.647-.996-.533-.452-1.145-1.064-1.917-1.837l-.024-.023-3.6-3.6-.066-.066c-.629-.629-1.034-1.034-1.328-1.514a4.75 4.75 0 01-.569-1.373c-.131-.548-.131-1.12-.131-2.01V9.368c0-1.092 0-1.958.057-2.655.058-.714.18-1.317.46-1.868a4.75 4.75 0 012.077-2.076c.55-.281 1.154-.403 1.868-.461.697-.057 1.563-.057 2.655-.057h1.076zM10 12a2 2 0 100-4 2 2 0 000 4z"/>
</svg>
