<svg xmlns="http://www.w3.org/2000/svg" width="24" height="24" fill="currentColor" viewBox="0 0 24 24">
  <path fill-rule="evenodd" d="M15.15 5.25c.981 0 1.808 0 2.507.033L21.47 1.47a.75.75 0 111.06 1.06l-4.05 4.051-16.95 16.95A.75.75 0 11.47 22.47l1.694-1.695c-.423-.64-.642-1.4-.76-2.286-.154-1.14-.154-2.595-.154-4.433v-6.54c0-1.163 0-2.101.086-2.848.09-.773.28-1.435.727-1.999a3.75 3.75 0 01.606-.606c.564-.448 1.226-.638 1.999-.727.747-.086 1.685-.086 2.848-.086h.896c.71 0 1.199 0 1.653.114a3.75 3.75 0 011.922 1.188c.305.355.524.793.841 1.427l.043.086c.257.513.331.65.418.751.168.195.392.333.64.396.13.033.285.038.86.038H15.15zm6.863 2.208a.75.75 0 00-1.267.803c.221.35.358.8.43 1.538.073.75.074 1.716.074 3.076V14c0 1.907-.002 3.262-.14 4.29-.135 1.005-.389 1.585-.812 2.008-.423.423-1.003.677-2.009.812-1.027.138-2.382.14-4.289.14H7a.75.75 0 000 1.5H14.056c1.838 0 3.294 0 4.433-.153 1.172-.158 2.121-.49 2.87-1.238.748-.749 1.08-1.698 1.238-2.87.153-1.14.153-2.595.153-4.433v-1.221c0-1.31 0-2.35-.081-3.182-.083-.851-.257-1.564-.656-2.195z"/>
</svg>
