<svg xmlns="http://www.w3.org/2000/svg" width="24" height="24" fill="currentColor" viewBox="0 0 24 24">
  <path fill-rule="evenodd" d="M12 1.25C6.063 1.25 1.25 6.063 1.25 12S6.063 22.75 12 22.75 22.75 17.937 22.75 12 17.937 1.25 12 1.25zM9 11.33c0-1.413 0-2.12.296-2.518a1.5 1.5 0 011.084-.6c.494-.04 1.093.334 2.292 1.083l1.072.67c1.08.675 1.62 1.012 1.805 1.444a1.5 1.5 0 010 1.182c-.186.432-.726.77-1.805 1.444l-1.072.67c-1.199.749-1.798 1.124-2.292 1.084a1.5 1.5 0 01-1.084-.601C9 14.79 9 14.083 9 12.67v-1.34z"/>
</svg>
