<svg xmlns="http://www.w3.org/2000/svg" width="24" height="24" fill="currentColor" viewBox="0 0 24 24">
  <path fill-rule="evenodd" d="M10 1.25h-.034c-1.371 0-2.447 0-3.311.07-.88.073-1.607.221-2.265.557A5.75 5.75 0 001.877 4.39c-.336.658-.484 1.385-.556 2.265-.071.864-.071 1.94-.071 3.311v4.068c0 1.371 0 2.447.07 3.311.073.88.221 1.607.557 2.265a5.75 5.75 0 002.513 2.513c.658.336 1.385.485 2.265.556.864.071 1.94.071 3.311.071h4.068c1.371 0 2.447 0 3.311-.07.88-.072 1.607-.221 2.265-.557a5.75 5.75 0 002.513-2.513c.336-.658.485-1.385.556-2.265.071-.864.071-1.94.071-3.311V9.966c0-1.371 0-2.447-.07-3.311-.072-.88-.221-1.607-.557-2.265a5.75 5.75 0 00-2.513-2.513c-.658-.336-1.385-.484-2.265-.556-.864-.071-1.94-.071-3.311-.071H10zm-1.403 4H10a.75.75 0 110 1.5H8.7c-.702 0-.898.007-1.04.047a1.25 1.25 0 00-.863.864c-.04.14-.047.337-.047 1.039V9a.75.75 0 01-1.5 0V8.597c0-.55 0-.975.103-1.343.26-.921.98-1.641 1.9-1.9.37-.105.794-.104 1.344-.104zm7.742 1.547c-.14-.04-.337-.047-1.039-.047H14a.75.75 0 010-1.5h1.403c.55 0 .975 0 1.343.103.921.26 1.641.98 1.9 1.9.105.37.104.794.104 1.344V9a.75.75 0 01-1.5 0v-.3c0-.702-.007-.898-.047-1.04a1.25 1.25 0 00-.864-.863zM6 14.25a.75.75 0 01.75.75v.3c0 .702.007.898.047 1.04.118.418.445.745.864.863.14.04.337.047 1.039.047h1.1a.75.75 0 010 1.5H8.597c-.55 0-.975 0-1.343-.103a2.75 2.75 0 01-1.9-1.9c-.105-.37-.104-.794-.104-1.344V15a.75.75 0 01.75-.75zm12 0a.75.75 0 01.75.75V15.403c0 .55 0 .975-.103 1.344a2.75 2.75 0 01-1.9 1.9c-.37.104-.794.103-1.344.103H14a.75.75 0 010-1.5h1.3c.702 0 .898-.007 1.04-.047a1.25 1.25 0 00.863-.864c.04-.14.047-.337.047-1.039V15a.75.75 0 01.75-.75zm-12-3a.75.75 0 000 1.5h12a.75.75 0 000-1.5H6z"/>
</svg>
