<svg xmlns="http://www.w3.org/2000/svg" width="24" height="24" fill="currentColor" viewBox="0 0 24 24">
  <path fill-rule="evenodd" d="M10 1.25a.75.75 0 000 1.5h1.8c1.973 0 3.407 0 4.537.093 1.12.091 1.875.27 2.5.588a6.25 6.25 0 012.732 2.732c.318.625.497 1.38.588 2.5.092 1.13.093 2.564.093 4.537V16a.75.75 0 001.5 0V13.166c0-1.931 0-3.427-.098-4.625-.099-1.213-.302-2.187-.747-3.06a7.75 7.75 0 00-3.387-3.386c-.872-.445-1.846-.648-3.06-.747-1.197-.098-2.693-.098-4.624-.098H10zM1.708 13.329a4.75 4.75 0 010-2.657c.155-.532.429-1.005.802-1.514.364-.496.855-1.068 1.471-1.788l.02-.023.514-.6.068-.079c.64-.747 1.052-1.227 1.561-1.579a4.75 4.75 0 011.481-.68c.599-.16 1.232-.16 2.215-.159h3.794c1.092 0 1.957 0 2.655.057.713.058 1.317.18 1.868.46a4.75 4.75 0 012.076 2.077c.28.55.402 1.154.46 1.868.057.697.057 1.563.057 2.655V12.633c0 1.092 0 1.958-.056 2.655-.059.714-.18 1.317-.461 1.869a4.75 4.75 0 01-2.076 2.075c-.551.281-1.155.403-1.868.461-.698.057-1.563.057-2.656.057H9.84c-.983 0-1.616 0-2.215-.158-.529-.14-1.03-.37-1.48-.681-.51-.351-.922-.832-1.562-1.579l-.068-.079-.514-.6-.02-.023c-.616-.72-1.107-1.292-1.471-1.788-.373-.51-.647-.982-.802-1.513zM10 14a2 2 0 100-4 2 2 0 000 4z"/>
</svg>
