<svg xmlns="http://www.w3.org/2000/svg" width="24" height="24" fill="currentColor" viewBox="0 0 24 24">
  <path fill-rule="evenodd" d="M11.37.815a2.25 2.25 0 011.26 0c.272.08.5.217.713.373.2.147.427.341.687.564l.02.017 1.264 1.084c.274.234.33.277.384.307a.75.75 0 00.199.073c.06.013.13.017.49.017h1.242c.395 0 .736 0 1.017.023.297.024.592.078.875.222.424.216.768.56.984.984.144.283.198.578.222.875.023.28.023.622.023 1.017V7.612c0 .36.004.431.017.491.015.07.04.137.073.2.03.053.073.11.307.383l1.084 1.264.017.02c.223.26.417.486.564.687.156.213.293.441.373.714.12.41.12.847 0 1.258-.08.273-.217.5-.373.714-.147.2-.341.427-.564.687l-.017.02-1.084 1.264c-.234.274-.277.33-.307.384a.749.749 0 00-.073.199c-.013.06-.017.13-.017.49v1.242c0 .395 0 .736-.023 1.017-.024.297-.078.592-.222.875a2.25 2.25 0 01-.984.984c-.283.144-.578.198-.875.222-.28.023-.622.023-1.017.023H16.388c-.36 0-.431.004-.491.017a.75.75 0 00-.2.073c-.053.03-.11.073-.383.307l-1.264 1.084-.02.017c-.26.223-.486.417-.687.564-.213.156-.441.293-.714.373-.41.12-.847.12-1.258 0-.273-.08-.5-.217-.714-.373-.2-.147-.427-.341-.687-.564l-.02-.017-1.264-1.084c-.274-.234-.33-.277-.384-.307a.75.75 0 00-.199-.073c-.06-.013-.13-.017-.49-.017H6.335c-.395 0-.736 0-1.017-.023-.296-.024-.59-.078-.875-.222a2.25 2.25 0 01-.983-.983c-.145-.284-.198-.58-.222-.876-.023-.28-.023-.622-.023-1.017V16.38c0-.357-.004-.427-.017-.487a.75.75 0 00-.072-.197c-.03-.054-.071-.11-.302-.383l-1.082-1.277-.017-.02c-.22-.258-.41-.483-.555-.683a2.274 2.274 0 01-.367-.709 2.25 2.25 0 010-1.248c.079-.27.213-.497.367-.71.145-.199.336-.424.555-.683l.017-.02 1.082-1.276c.23-.273.273-.329.302-.383a.75.75 0 00.072-.197c.013-.06.017-.13.017-.487V6.37c0-.395 0-.736.023-1.017.024-.297.077-.592.222-.875a2.25 2.25 0 01.983-.984c.284-.144.579-.198.875-.222.281-.023.622-.023 1.018-.023h1.275c.36 0 .431-.004.491-.017a.75.75 0 00.199-.073c.054-.03.11-.073.384-.307L9.95 1.769l.02-.017c.26-.223.486-.417.687-.564.213-.156.441-.293.714-.373zm5.16 8.715a.75.75 0 10-1.06-1.06L11 12.94l-1.47-1.47a.75.75 0 10-1.06 1.06l2 2a.75.75 0 001.06 0l5-5z"/>
</svg>
