<svg xmlns="http://www.w3.org/2000/svg" width="24" height="24" fill="currentColor" viewBox="0 0 24 24">
  <path fill-rule="evenodd" d="M5.862 4.296A2.251 2.251 0 018 2.75h8c.997 0 1.842.648 2.138 1.546-.671-.046-1.49-.046-2.505-.046H8.367c-1.015 0-1.834 0-2.505.046zm-1.59.288A3.75 3.75 0 018 1.25h8a3.75 3.75 0 013.727 3.334c.147.052.29.113.43.184a4.75 4.75 0 012.075 2.076c.281.55.403 1.154.461 1.868.057.697.057 1.563.057 2.655V12.633c0 1.092 0 1.958-.057 2.655-.058.714-.18 1.317-.46 1.869a4.75 4.75 0 01-2.076 2.075c-.14.071-.283.132-.43.184A3.75 3.75 0 0116 22.75H8a3.75 3.75 0 01-3.727-3.334 3.588 3.588 0 01-.43-.184 4.75 4.75 0 01-2.075-2.075c-.281-.552-.403-1.155-.461-1.869-.057-.697-.057-1.563-.057-2.655V11.367c0-1.092 0-1.958.057-2.655.058-.714.18-1.317.46-1.868a4.75 4.75 0 012.077-2.076c.139-.071.282-.132.429-.184zM8 21.25a2.25 2.25 0 01-2.138-1.546c.671.046 1.49.046 2.505.046H15.633c1.015 0 1.834 0 2.505-.046A2.251 2.251 0 0116 21.25H8zm2-8.24v-2.02c0-.972 0-1.457.203-1.725a1 1 0 01.737-.395c.335-.02.74.25 1.548.788l1.515 1.01c.668.446 1.002.668 1.118.949a1 1 0 010 .766c-.116.28-.45.503-1.118.948l-1.515 1.01c-.808.54-1.213.809-1.548.789a1 1 0 01-.737-.395C10 14.467 10 13.982 10 13.01z"/>
</svg>
