<svg xmlns="http://www.w3.org/2000/svg" width="24" height="24" fill="currentColor" viewBox="0 0 24 24">
  <path fill-rule="evenodd" d="M1.25 12C1.25 6.063 6.063 1.25 12 1.25S22.75 6.063 22.75 12 17.937 22.75 12 22.75 1.25 17.937 1.25 12zm14.393-4.614a.75.75 0 00-1.286-.772l-6 10a.75.75 0 001.286.772l6-10zM8.5 8.75a.75.75 0 100 1.5.75.75 0 000-1.5zm-2.25.75a2.25 2.25 0 114.5 0 2.25 2.25 0 01-4.5 0zm8.5 5a.75.75 0 111.5 0 .75.75 0 01-1.5 0zm.75-2.25a2.25 2.25 0 100 4.5 2.25 2.25 0 000-4.5z"/>
</svg>
