<svg xmlns="http://www.w3.org/2000/svg" width="24" height="24" fill="currentColor" viewBox="0 0 24 24">
  <path fill-rule="evenodd" d="M9.4 2.25h-.033c-1.092 0-1.958 0-2.655.057-.714.058-1.317.18-1.868.46a4.75 4.75 0 00-2.076 2.077c-.281.55-.403 1.154-.461 1.868-.057.697-.057 1.563-.057 2.655v2.74c0 .313 0 .591.019.822.02.247.065.505.194.756.186.367.485.665.852.852.251.129.51.174.756.194.23.019.509.019.821.019H19.108c.312 0 .59 0 .821-.019.247-.02.505-.065.756-.194a1.95 1.95 0 00.853-.852c.128-.251.173-.51.193-.756.019-.23.019-.509.019-.822v-2.74c0-1.092 0-1.958-.057-2.655-.058-.714-.18-1.317-.46-1.868a4.75 4.75 0 00-2.076-2.076c-.552-.281-1.155-.403-1.869-.461-.697-.057-1.563-.057-2.655-.057H9.4zm-7.956 14c-.66 0-1.194.535-1.194 1.194a4.306 4.306 0 004.306 4.306h14.888a4.306 4.306 0 004.306-4.306c0-.66-.535-1.194-1.194-1.194H1.444z"/>
</svg>
