<svg xmlns="http://www.w3.org/2000/svg" width="24" height="24" fill="currentColor" viewBox="0 0 24 24">
  <path fill-rule="evenodd" d="M11.2 1.25h-.03c-.535 0-.98 0-1.345.03-.38.03-.736.098-1.073.27A2.75 2.75 0 007.55 2.752c-.172.337-.24.693-.27 1.073-.03.365-.03.81-.03 1.345v1.48a8.75 8.75 0 109.5 0V5.17c0-.535 0-.98-.03-1.345-.03-.38-.098-.736-.27-1.073A2.75 2.75 0 0015.25 1.55c-.338-.172-.694-.24-1.074-.27-.365-.03-.81-.03-1.345-.03H11.2zm4.05 4.623V5.2c0-.572 0-.957-.025-1.253-.023-.287-.065-.424-.111-.514a1.25 1.25 0 00-.546-.547c-.091-.046-.228-.088-.515-.111-.296-.024-.68-.025-1.253-.025h-1.6c-.572 0-.957 0-1.253.025-.287.023-.424.065-.514.111a1.25 1.25 0 00-.547.547c-.046.09-.088.227-.111.514-.024.296-.025.68-.025 1.253v.673A8.726 8.726 0 0112 5.25c1.148 0 2.245.221 3.25.623zM12.75 13a.75.75 0 00-1.5 0v2a.75.75 0 001.5 0v-2z"/>
</svg>
