<svg xmlns="http://www.w3.org/2000/svg" width="24" height="24" fill="currentColor" viewBox="0 0 24 24">
  <path fill-rule="evenodd" d="M8.569 6.331l-.034-.021c-.975-.627-1.752-1.127-2.388-1.458-.637-.332-1.25-.56-1.879-.515a3.25 3.25 0 00-2.37 1.294c-.377.505-.517 1.143-.583 1.86-.065.713-.065 1.636-.065 2.796v3.426c0 1.16 0 2.083.065 2.797.066.715.206 1.354.583 1.859a3.25 3.25 0 002.37 1.294c.63.044 1.242-.183 1.88-.515.635-.331 1.412-.83 2.387-1.458l.034-.021 1.75-1.125c.067.702.208 1.328.58 1.825a3.25 3.25 0 002.37 1.294c.628.044 1.24-.183 1.878-.515.636-.331 1.413-.83 2.388-1.458l.034-.021 2.603-1.673.031-.02c.844-.543 1.521-.979 2.021-1.369.507-.395.921-.809 1.147-1.342a3.25 3.25 0 000-2.53c-.226-.533-.64-.947-1.146-1.342-.5-.39-1.178-.826-2.022-1.368l-.031-.02-2.603-1.674-.034-.021c-.975-.627-1.752-1.127-2.388-1.458-.637-.332-1.25-.56-1.879-.515a3.25 3.25 0 00-2.37 1.294c-.371.497-.512 1.123-.58 1.825l-1.75-1.125z"/>
</svg>
