<svg xmlns="http://www.w3.org/2000/svg" width="24" height="24" fill="currentColor" viewBox="0 0 24 24">
  <path fill-rule="evenodd" d="M17.25 4.5a1.75 1.75 0 00-1.75-1.75h-.08c-.809 0-1.521.53-1.753 1.304l-.659 2.196H15.5a1.75 1.75 0 001.75-1.75zm.99 1.75a3.25 3.25 0 00-2.74-5h-.08a3.33 3.33 0 00-3.19 2.373L12 4.39l-.23-.767A3.33 3.33 0 008.58 1.25H8.5a3.25 3.25 0 00-2.74 5H3.5a2.25 2.25 0 000 4.5h17a2.25 2.25 0 000-4.5h-2.26zm-9.74 0h2.492l-.659-2.196A1.83 1.83 0 008.58 2.75H8.5a1.75 1.75 0 100 3.5zm-2.608 6H18.108c.312 0 .59 0 .821.019.247.02.505.065.756.194.367.187.666.485.853.852.128.251.173.51.193.756.019.23.019.509.019.822v2.339c0 .813 0 1.469-.043 2-.045.546-.14 1.026-.366 1.47a3.75 3.75 0 01-1.639 1.64c-.444.226-.924.32-1.47.365-.531.043-1.187.043-2 .043H8.768c-.813 0-1.469 0-2-.043-.546-.045-1.026-.14-1.47-.366a3.75 3.75 0 01-1.64-1.639c-.226-.444-.32-.924-.365-1.47-.043-.531-.043-1.187-.043-2v-2.339c0-.313 0-.591.019-.822a1.98 1.98 0 01.194-.756 1.95 1.95 0 01.852-.852c.251-.129.51-.174.756-.194.23-.019.509-.019.821-.019z"/>
</svg>
