<svg xmlns="http://www.w3.org/2000/svg" width="24" height="24" fill="currentColor" viewBox="0 0 24 24">
  <path fill-rule="evenodd" d="M1.25 12C1.25 6.063 6.063 1.25 12 1.25S22.75 6.063 22.75 12 17.937 22.75 12 22.75 1.25 17.937 1.25 12zm11.5-8a.75.75 0 00-1.5 0v3a.75.75 0 001.5 0V4zm-9.5 8a.75.75 0 01.75-.75h3a.75.75 0 010 1.5H4a.75.75 0 01-.75-.75zm9.5 5a.75.75 0 00-1.5 0v3a.75.75 0 001.5 0v-3zm3.5-5a.75.75 0 01.75-.75h3a.75.75 0 010 1.5h-3a.75.75 0 01-.75-.75zM12 14a2 2 0 100-4 2 2 0 000 4z"/>
</svg>
