<svg xmlns="http://www.w3.org/2000/svg" width="24" height="24" fill="currentColor" viewBox="0 0 24 24">
  <path fill-rule="evenodd" d="M9.966 1.25h4.068c1.371 0 2.447 0 3.311.07.88.073 1.607.221 2.265.557a5.75 5.75 0 012.513 2.513c.336.658.485 1.385.556 2.265.071.864.071 1.94.071 3.311v4.068c0 1.371 0 2.447-.07 3.311-.072.88-.221 1.607-.557 2.265a5.75 5.75 0 01-2.513 2.513c-.658.336-1.385.485-2.265.556-.864.071-1.94.071-3.311.071H9.966c-1.371 0-2.447 0-3.311-.07-.88-.072-1.607-.221-2.265-.557a5.75 5.75 0 01-2.513-2.513c-.336-.658-.484-1.385-.556-2.265-.071-.864-.071-1.94-.071-3.311V9.966c0-1.371 0-2.447.07-3.311.073-.88.221-1.607.557-2.265A5.75 5.75 0 014.39 1.877c.658-.336 1.385-.484 2.265-.556.864-.071 1.94-.071 3.311-.071zm-1.3 4h-.084c-.347 0-.678-.001-.968.09A1.95 1.95 0 006.34 6.614c-.091.29-.09.62-.09.968V8a.75.75 0 001.5 0v-.333c0-.491.009-.564.02-.602a.45.45 0 01.295-.294c.038-.012.11-.021.602-.021h2.583v10.5H9a.75.75 0 000 1.5h6a.75.75 0 000-1.5h-2.25V6.75h2.583c.491 0 .564.009.602.02a.45.45 0 01.294.295c.012.038.021.11.021.602V8a.75.75 0 001.5 0V7.582c0-.347.001-.678-.09-.968a1.95 1.95 0 00-1.274-1.274c-.29-.091-.62-.09-.968-.09H8.667z"/>
</svg>
