<svg xmlns="http://www.w3.org/2000/svg" width="24" height="24" fill="currentColor" viewBox="0 0 24 24">
  <path fill-rule="evenodd" d="M13 4.2c0-1.12 0-1.68.218-2.108a2 2 0 01.874-.874C14.52 1 15.08 1 16.2 1h1.6c1.12 0 1.68 0 2.108.218a2 2 0 01.874.874C21 2.52 21 3.08 21 4.2v1.6c0 1.12 0 1.68-.218 2.108a2 2 0 01-.874.874C19.48 9 18.92 9 17.8 9h-1.6c-1.12 0-1.68 0-2.108-.218a2 2 0 01-.874-.874C13 7.48 13 6.92 13 5.8V4.2zm4-1.95a.75.75 0 01.75.75v1.25H19a.75.75 0 010 1.5h-1.25V7a.75.75 0 01-1.5 0V5.75H15a.75.75 0 010-1.5h1.25V3a.75.75 0 01.75-.75zm-6.39 1h-.243c-1.092 0-1.958 0-2.655.057-.714.058-1.317.18-1.868.46a4.75 4.75 0 00-2.076 2.077c-.281.55-.403 1.154-.461 1.868-.057.697-.057 1.563-.057 2.655V15.633c0 1.092 0 1.958.057 2.655.058.714.18 1.317.46 1.869a4.75 4.75 0 002.077 2.075c.55.281 1.154.403 1.868.461.697.057 1.563.057 2.655.057H11.633c1.092 0 1.958 0 2.655-.057.714-.058 1.317-.18 1.869-.46a4.75 4.75 0 002.075-2.076c.281-.552.403-1.155.461-1.869.057-.697.057-1.563.057-2.655V11.39a.896.896 0 00-.898-.89H16.148c-.515 0-.988 0-1.384-.032-.426-.035-.892-.115-1.353-.35a3.5 3.5 0 01-1.53-1.529c-.234-.46-.314-.927-.349-1.353-.032-.396-.032-.869-.032-1.384V4.148a.896.896 0 00-.89-.898zM6.25 10A.75.75 0 017 9.25h2a.75.75 0 010 1.5H7a.75.75 0 01-.75-.75zM7 13.25a.75.75 0 000 1.5h6a.75.75 0 000-1.5H7zM6.25 18a.75.75 0 01.75-.75h3a.75.75 0 010 1.5H7a.75.75 0 01-.75-.75z"/>
</svg>
