<svg xmlns="http://www.w3.org/2000/svg" width="24" height="24" fill="currentColor" viewBox="0 0 24 24">
  <path fill-rule="evenodd" d="M16 3.2c0-1.12 0-1.68.218-2.108a2 2 0 01.874-.874C17.52 0 18.08 0 19.2 0h1.6c1.12 0 1.68 0 2.108.218a2 2 0 01.874.874C24 1.52 24 2.08 24 3.2v1.6c0 1.12 0 1.68-.218 2.108a2 2 0 01-.874.874C22.48 8 21.92 8 20.8 8h-1.6c-1.12 0-1.68 0-2.108-.218a2 2 0 01-.874-.874C16 6.48 16 5.92 16 4.8V3.2zm4-1.95a.75.75 0 01.75.75v1.25H22a.75.75 0 010 1.5h-1.25V6a.75.75 0 01-1.5 0V4.75H18a.75.75 0 010-1.5h1.25V2a.75.75 0 01.75-.75zm-5.5 2.866a.865.865 0 00-.865-.866H8.367c-1.092 0-1.958 0-2.655.057-.714.058-1.317.18-1.868.46a4.75 4.75 0 00-2.076 2.077c-.281.55-.403 1.154-.461 1.868-.057.697-.057 1.563-.057 2.655V15.633c0 1.092 0 1.958.057 2.655.058.714.18 1.317.46 1.869a4.75 4.75 0 002.077 2.075c.55.281 1.154.403 1.868.461.697.057 1.563.057 2.655.057H13.633c1.092 0 1.958 0 2.655-.057.714-.058 1.317-.18 1.869-.46a4.75 4.75 0 002.075-2.076c.281-.552.403-1.155.461-1.869.057-.697.057-1.563.057-2.655V10.366a.866.866 0 00-.867-.866H19.148c-.515 0-.988 0-1.384-.032-.426-.035-.892-.115-1.353-.35a3.5 3.5 0 01-1.53-1.529c-.234-.46-.314-.927-.349-1.353-.032-.396-.032-.869-.032-1.384V4.116zM9 14.01v-2.02c0-.972 0-1.457.202-1.725a1 1 0 01.738-.395c.335-.02.74.25 1.548.788l1.515 1.01c.668.446 1.002.668 1.118.949a1 1 0 010 .766c-.116.28-.45.503-1.118.948l-1.515 1.01c-.808.54-1.213.809-1.548.789a1 1 0 01-.738-.395C9 15.467 9 14.982 9 14.01z"/>
</svg>
