<svg xmlns="http://www.w3.org/2000/svg" width="24" height="24" fill="currentColor" viewBox="0 0 24 24">
  <path fill-rule="evenodd" d="M11.314 1.25h-.156c-1.485 0-2.444 0-3.319.362s-1.553 1.04-2.602 2.09l-.11.11-1.314 1.315-.11.11c-1.05 1.05-1.73 1.727-2.091 2.602-.363.875-.362 1.834-.362 3.319v1.684c0 1.485 0 2.444.362 3.319s1.04 1.553 2.09 2.602l.11.11 1.315 1.314.11.11c1.05 1.05 1.728 1.73 2.602 2.091.875.363 1.834.362 3.319.362h1.684c1.485 0 2.444 0 3.319-.362s1.553-1.04 2.602-2.09l.11-.11 1.314-1.314.11-.11c1.05-1.05 1.73-1.728 2.091-2.603.363-.875.362-1.834.362-3.319v-1.684c0-1.485 0-2.444-.361-3.319-.363-.875-1.041-1.553-2.091-2.602l-.11-.11-1.314-1.314-.11-.11c-1.05-1.05-1.728-1.73-2.603-2.091-.875-.363-1.834-.362-3.319-.362h-1.528zM7.25 12a.75.75 0 01.75-.75h8a.75.75 0 010 1.5H8a.75.75 0 01-.75-.75z"/>
</svg>
