<svg xmlns="http://www.w3.org/2000/svg" width="24" height="24" fill="currentColor" viewBox="0 0 24 24">
  <path fill-rule="evenodd" d="M12 1.25h-.038c-1.837 0-3.267 0-4.41.104-1.16.105-2.098.322-2.927.8a6.75 6.75 0 00-2.47 2.471c-.48.83-.696 1.767-.801 2.927-.104 1.143-.104 2.573-.104 4.41v.076c0 1.837 0 3.267.104 4.41.105 1.16.322 2.098.8 2.927a6.75 6.75 0 002.471 2.47c.83.48 1.767.696 2.927.802 1.143.103 2.573.103 4.41.103h.076c1.837 0 3.267 0 4.41-.104 1.16-.105 2.098-.322 2.927-.8a6.752 6.752 0 002.47-2.471c.48-.83.696-1.767.802-2.927.103-1.143.103-2.573.103-4.41v-.076c0-1.837 0-3.267-.104-4.41-.105-1.16-.322-2.098-.8-2.927a6.75 6.75 0 00-2.471-2.47c-.83-.48-1.767-.696-2.927-.801-1.143-.104-2.573-.104-4.41-.104H12zM7 16.333A3.333 3.333 0 0110.333 13h3.334A3.333 3.333 0 0117 16.333c0 .92-.746 1.667-1.667 1.667H8.667C7.747 18 7 17.254 7 16.333zM12 11a3 3 0 100-6 3 3 0 000 6z"/>
</svg>
