<svg xmlns="http://www.w3.org/2000/svg" width="24" height="24" fill="currentColor" viewBox="0 0 24 24">
  <path fill-rule="evenodd" d="M14 1.25h.034c1.371 0 2.447 0 3.311.07.88.073 1.607.221 2.265.557a5.75 5.75 0 012.513 2.513c.336.658.485 1.385.556 2.265.071.864.071 1.94.071 3.311v4.068c0 1.371 0 2.447-.07 3.311-.072.88-.221 1.607-.557 2.265a5.75 5.75 0 01-2.513 2.513c-.658.336-1.385.485-2.265.556-.864.071-1.94.071-3.311.071H9.966c-1.371 0-2.447 0-3.311-.07-.88-.072-1.607-.221-2.265-.557a5.75 5.75 0 01-2.513-2.513c-.336-.658-.484-1.385-.556-2.265-.071-.864-.071-1.94-.071-3.311V9.966c0-1.371 0-2.447.07-3.311.073-.88.221-1.607.557-2.265A5.75 5.75 0 014.39 1.877c.658-.336 1.385-.484 2.265-.556.864-.071 1.94-.071 3.311-.071H14zM8.47 8.47a.75.75 0 011.06 0l.375.375L12 10.939l2.095-2.094.375-.375a.75.75 0 111.06 1.06l-.375.375-2.625 2.625a.75.75 0 01-1.06 0L8.845 9.905 8.47 9.53a.75.75 0 010-1.06zm-1.94 2a.75.75 0 00-1.06 1.06l3.737 3.738.021.021c.378.378.693.693.972.93.29.246.59.451.95.568a2.75 2.75 0 001.7 0c.36-.117.66-.322.95-.568.279-.237.594-.552.971-.93l.022-.021 3.737-3.738a.75.75 0 10-1.06-1.06l-3.738 3.737c-.404.405-.676.676-.903.868-.22.187-.346.254-.443.285a1.25 1.25 0 01-.772 0c-.097-.031-.224-.098-.443-.285-.227-.192-.499-.463-.903-.868L6.53 10.47z"/>
</svg>
