<svg xmlns="http://www.w3.org/2000/svg" width="24" height="24" fill="currentColor" viewBox="0 0 24 24">
  <path fill-rule="evenodd" d="M6.884 1.25h10.232c.818 0 1.376 0 1.855.128a3.75 3.75 0 012.651 2.651c.128.48.128 1.037.128 1.855v.232c0 .818 0 1.376-.128 1.855a3.75 3.75 0 01-2.651 2.651c-.48.129-1.037.128-1.855.128H6.884c-.818 0-1.376 0-1.855-.128a3.75 3.75 0 01-2.651-2.651c-.128-.479-.128-1.037-.128-1.855v-.232c0-.818 0-1.376.128-1.855a3.75 3.75 0 012.651-2.651c.48-.128 1.037-.128 1.855-.128zM18 6a1 1 0 11-2 0 1 1 0 012 0zm0 11a1 1 0 11-2 0 1 1 0 012 0zM7 12.25h-.116c-.818 0-1.376 0-1.855.128a3.75 3.75 0 00-2.651 2.652c-.128.478-.128 1.036-.128 1.854v.232c0 .818 0 1.376.128 1.855a3.75 3.75 0 002.651 2.651c.48.128 1.037.128 1.855.128h10.232c.818 0 1.376 0 1.855-.128a3.75 3.75 0 002.651-2.651c.128-.479.128-1.037.128-1.855v-.232c0-.818 0-1.376-.128-1.854a3.75 3.75 0 00-2.651-2.652c-.48-.128-1.037-.128-1.855-.128H7z"/>
</svg>
