<svg xmlns="http://www.w3.org/2000/svg" width="24" height="24" fill="currentColor" viewBox="0 0 24 24">
  <path fill-rule="evenodd" d="M7.47 10.984L5.713 13.07a16.67 16.67 0 004.91 5.018l2.49-1.864.087-.065c.812-.608 1.335-1 1.928-1.235a4.752 4.752 0 011.645-.331c.637-.014 1.271.145 2.256.391l.104.027.708.177.121.03c.667.166 1.188.295 1.603.583.459.318.81.768 1.007 1.29.178.472.178.999.177 1.67v.15c0 .482 0 .89-.029 1.227-.03.358-.096.692-.258 1.018a2.894 2.894 0 01-1.55 1.371c-.61.216-1.214.141-1.964.048l-.122-.015c-3.213-.394-6.1-1.394-8.565-2.923a18.2 18.2 0 01-6.115-6.256C2.739 10.996 1.815 8.232 1.44 5.172l-.015-.12c-.093-.751-.168-1.354.048-1.966a2.895 2.895 0 011.371-1.55c.324-.16.655-.226 1.01-.257.333-.029.733-.029 1.204-.029h.155c.687 0 1.224-.001 1.696.177A2.75 2.75 0 018.2 2.434c.288.415.417.936.583 1.603l.03.12.123.49.028.112c.264 1.054.433 1.733.407 2.411a4.75 4.75 0 01-.401 1.738c-.275.621-.726 1.157-1.425 1.988l-.075.088zM13.25 7a.75.75 0 01.75-.75c1.027 0 1.934.639 2.548 1.294.343.367.634.78.843 1.186.201.392.359.842.359 1.27a.75.75 0 01-1.5 0c0-.09-.044-.293-.193-.584a3.849 3.849 0 00-.605-.847C14.956 8.04 14.42 7.75 14 7.75a.75.75 0 01-.75-.75zM14 3.25a.75.75 0 000 1.5c2.9 0 5.25 2.35 5.25 5.25a.75.75 0 001.5 0A6.75 6.75 0 0014 3.25z"/>
</svg>
