<svg xmlns="http://www.w3.org/2000/svg" width="24" height="24" fill="currentColor" viewBox="0 0 24 24">
  <path fill-rule="evenodd" d="M5.416 3.624a.75.75 0 10-.832-1.248l-1.575 1.05-.078.052c-.445.296-.795.529-1.056.846a2.75 2.75 0 00-.507.947c-.12.393-.119.814-.118 1.348V14c0 .027.001.053.004.08-.004.241-.004.516-.004.84v.16c0 .853 0 1.372.07 1.82a5.75 5.75 0 004.78 4.78c.448.07.967.07 1.82.07h8.16c.853 0 1.372 0 1.82-.07a5.75 5.75 0 004.78-4.78c.07-.448.07-.967.07-1.82v-.16c0-.327 0-.604-.004-.847A.772.772 0 0022.75 14V6.619c0-.534 0-.955-.119-1.348a2.75 2.75 0 00-.507-.947c-.26-.317-.61-.55-1.055-.846l-.078-.052-1.575-1.05a.75.75 0 00-.832 1.248l1.575 1.05c.56.373.705.48.806.603.105.127.183.273.23.43.047.153.055.333.055 1.006v3.414A5.744 5.744 0 0017.9 8.32c-.448-.071-.967-.071-1.82-.071H7.92c-.853 0-1.372 0-1.82.07a5.744 5.744 0 00-3.35 1.807V6.713c0-.673.007-.853.054-1.006a1.25 1.25 0 01.23-.43c.101-.123.247-.23.807-.603l1.575-1.05zM10 15a2 2 0 11-4 0 2 2 0 014 0zm6 2a2 2 0 100-4 2 2 0 000 4z"/>
</svg>
