<svg xmlns="http://www.w3.org/2000/svg" width="24" height="24" fill="currentColor" viewBox="0 0 24 24">
  <path fill-rule="evenodd" d="M12 1.25c-5.449 0-8.167 4.048-9.473 7.425l-.04.102c-.432 1.116-.742 1.916-.504 3.015.098.451.332.918.6 1.31.268.39.619.777 1.004 1.03.941.62 1.981.619 3.452.618h4.211V20a1.25 1.25 0 11-2.5 0v-1a.75.75 0 00-1.5 0v1a2.75 2.75 0 105.5 0v-5.25h4.211c1.47.001 2.51.002 3.452-.617.385-.254.736-.64 1.004-1.032.268-.391.502-.858.6-1.309.238-1.099-.072-1.899-.505-3.015l-.039-.102C20.167 5.298 17.45 1.25 12 1.25z"/>
</svg>
