<svg xmlns="http://www.w3.org/2000/svg" width="24" height="24" fill="currentColor" viewBox="0 0 24 24">
  <path fill-rule="evenodd" d="M8.367 4.25H13.633c1.092 0 1.958 0 2.655.057.714.058 1.317.18 1.869.46a4.75 4.75 0 012.075 2.077c.28.549.402 1.15.46 1.86l.091.025a3.401 3.401 0 010 6.542l-.09.025c-.06.71-.181 1.311-.46 1.86a4.75 4.75 0 01-2.076 2.076c-.552.281-1.155.403-1.869.461-.697.057-1.563.057-2.655.057H8.367c-1.092 0-1.958 0-2.655-.057-.714-.058-1.317-.18-1.868-.46a4.75 4.75 0 01-2.076-2.076c-.281-.552-.403-1.155-.461-1.869-.057-.697-.057-1.563-.057-2.655V11.367c0-1.092 0-1.958.057-2.655.058-.714.18-1.317.46-1.868a4.75 4.75 0 012.077-2.076c.55-.281 1.154-.403 1.868-.461.697-.057 1.563-.057 2.655-.057zm12.383 8.385c0 .372 0 .719-.002 1.04a1.902 1.902 0 000-3.35c.002.322.002.668.002 1.04V12.635zM7.75 10a.75.75 0 00-1.5 0v4a.75.75 0 001.5 0v-4zM11 9.25a.75.75 0 01.75.75v4a.75.75 0 01-1.5 0v-4a.75.75 0 01.75-.75zm4.75.75a.75.75 0 00-1.5 0v4a.75.75 0 001.5 0v-4z"/>
</svg>
