<svg xmlns="http://www.w3.org/2000/svg" width="24" height="24" fill="currentColor" viewBox="0 0 24 24">
  <path fill-rule="evenodd" d="M4.75 2a.75.75 0 10-1.5 0v5.381c0 .534 0 .955.119 1.348.105.346.277.667.507.947.26.317.61.55 1.055.846l.078.052 1.241.827V22a.75.75 0 001.5 0V11.401l1.241-.827.078-.052c.445-.296.795-.529 1.056-.846.23-.28.401-.601.507-.947.119-.393.119-.814.118-1.348V2a.75.75 0 00-1.5 0v5.287c0 .673-.008.853-.054 1.006a1.25 1.25 0 01-.23.43c-.101.123-.247.23-.807.603l-.409.273V2a.75.75 0 10-1.5 0v7.599l-.409-.273c-.56-.373-.705-.48-.807-.603a1.25 1.25 0 01-.23-.43c-.046-.153-.054-.333-.054-1.006V2zm13 0a.75.75 0 00-1.5 0v11.34c-.816.192-1.58.681-2.172 1.323-.78.845-1.328 2.022-1.328 3.337 0 1.315.547 2.492 1.328 3.337.77.835 1.833 1.413 2.922 1.413 1.09 0 2.152-.578 2.923-1.413.78-.845 1.327-2.022 1.327-3.337 0-1.315-.547-2.492-1.327-3.337-.592-.642-1.357-1.131-2.173-1.324V2z"/>
</svg>
