<svg xmlns="http://www.w3.org/2000/svg" width="24" height="24" fill="currentColor" viewBox="0 0 24 24">
  <path fill-rule="evenodd" d="M2.921 16.197l-.68.316.023.05c.478 1.032.751 1.621.52 2.428a3.677 3.677 0 01-.21.515c-.029.06-.06.127-.092.2-.126.278-.286.657-.32 1.08a1.75 1.75 0 002.03 1.87l-.122-.74.123.74c.635-.106 1.18-.387 1.58-.594.098-.05.188-.097.268-.135.425-.202.78-.308 1.313-.183.11.026.476.156 1.37.475l.252-.706-.252.706c.998.357 2.062.531 3.276.531 5.937 0 10.75-4.813 10.75-10.75S17.937 1.25 12 1.25 1.25 6.063 1.25 12c0 1.61.355 3.14.99 4.512l.681-.315zM12 17a1 1 0 100-2 1 1 0 000 2zm0-8.25c-.69 0-1.25.56-1.25 1.25v.5a.75.75 0 01-1.5 0V10a2.75 2.75 0 115.5 0v.121c0 .762-.303 1.492-.841 2.03l-1.379 1.38a.75.75 0 11-1.06-1.061l1.378-1.379c.257-.257.402-.606.402-.97V10c0-.69-.56-1.25-1.25-1.25z"/>
</svg>
