<svg xmlns="http://www.w3.org/2000/svg" width="24" height="24" fill="currentColor" viewBox="0 0 24 24">
  <path fill-rule="evenodd" d="M12 1.25C6.063 1.25 1.25 6.063 1.25 12S6.063 22.75 12 22.75h10a.75.75 0 000-1.5h-4.52A10.745 10.745 0 0022.75 12c0-5.937-4.813-10.75-10.75-10.75zM10.75 12a1.25 1.25 0 112.5 0 1.25 1.25 0 01-2.5 0zM12 9.25a2.75 2.75 0 100 5.5 2.75 2.75 0 000-5.5zM13 6a1 1 0 11-2 0 1 1 0 012 0zm-7 7a1 1 0 100-2 1 1 0 000 2zm13-1a1 1 0 11-2 0 1 1 0 012 0zm-7 7a1 1 0 100-2 1 1 0 000 2z"/>
</svg>
