<svg xmlns="http://www.w3.org/2000/svg" width="24" height="24" fill="currentColor" viewBox="0 0 24 24">
  <path fill-rule="evenodd" d="M5.2 3.25h-.03c-.535 0-.98 0-1.345.03-.38.03-.736.098-1.073.27A2.75 2.75 0 001.55 4.752c-.172.337-.24.693-.27 1.073-.03.365-.03.81-.03 1.345V8.83c0 .535 0 .98.03 1.345.03.38.098.736.27 1.073a2.75 2.75 0 001.202 1.202c.337.172.693.24 1.073.27.365.03.81.03 1.345.03H6.83c.535 0 .98 0 1.345-.03.38-.03.736-.098 1.073-.27h.002v.8c0 .75-.001 1.065-.035 1.357a5.25 5.25 0 01-1.6 3.2c-.214.203-.465.393-1.065.843l-1 .75a.75.75 0 10.9 1.2l1-.75.041-.031c.547-.41.872-.654 1.156-.924a6.75 6.75 0 002.058-4.114c.045-.39.045-.796.045-1.48V7.17c0-.535 0-.98-.03-1.345-.03-.38-.098-.736-.27-1.073A2.75 2.75 0 009.248 3.55c-.337-.172-.693-.24-1.073-.27-.365-.03-.81-.03-1.345-.03H5.2zm12 0h-.03c-.535 0-.98 0-1.345.03-.38.03-.736.098-1.073.27a2.75 2.75 0 00-1.202 1.202c-.172.337-.24.693-.27 1.073-.03.365-.03.81-.03 1.345V8.83c0 .535 0 .98.03 1.345.03.38.098.736.27 1.073.263.518.684.939 1.201 1.202.338.172.694.24 1.074.27.364.03.81.03 1.345.03H18.83c.535 0 .98 0 1.345-.03.38-.03.736-.098 1.073-.27h.002v.8c0 .75-.001 1.065-.035 1.357a5.25 5.25 0 01-1.6 3.2c-.214.203-.465.393-1.065.843l-1 .75a.75.75 0 10.9 1.2l1-.75.041-.031c.547-.41.872-.654 1.156-.924a6.75 6.75 0 002.058-4.114c.045-.39.045-.796.045-1.479V8 7.17c0-.535 0-.98-.03-1.345-.03-.38-.098-.736-.27-1.073A2.75 2.75 0 0021.25 3.55c-.338-.172-.694-.24-1.074-.27-.365-.03-.81-.03-1.345-.03H17.2z"/>
</svg>
