<svg xmlns="http://www.w3.org/2000/svg" width="24" height="24" fill="currentColor" viewBox="0 0 24 24">
  <path fill-rule="evenodd" d="M1.708 13.329a4.75 4.75 0 010-2.657c.155-.532.428-1.005.801-1.514.364-.496.855-1.068 1.472-1.788L4 7.347l.514-.6.067-.079c.64-.746 1.052-1.227 1.562-1.579a4.75 4.75 0 011.48-.68c.6-.16 1.232-.16 2.215-.159H15.633c1.092 0 1.957 0 2.655.057.713.058 1.317.18 1.868.46a4.75 4.75 0 012.076 2.077c.281.55.403 1.154.46 1.868.058.697.058 1.563.058 2.655V12.633c0 1.092 0 1.958-.057 2.655-.058.714-.18 1.317-.46 1.869a4.75 4.75 0 01-2.077 2.075c-.55.281-1.154.403-1.868.461-.698.057-1.563.057-2.655.057H9.839c-.983 0-1.616 0-2.214-.158-.53-.14-1.03-.37-1.481-.681-.51-.351-.922-.832-1.562-1.579l-.067-.079-.515-.6-.02-.023c-.616-.72-1.107-1.292-1.47-1.788-.374-.51-.647-.982-.802-1.513zM10 14a2 2 0 100-4 2 2 0 000 4z"/>
</svg>
