<svg xmlns="http://www.w3.org/2000/svg" width="24" height="24" fill="currentColor" viewBox="0 0 24 24">
  <path fill-rule="evenodd" d="M1.5.25H1a.75.75 0 000 1.5h.5c1.061 0 1.961.78 2.111 1.831l.524 3.669H5.65l-.554-3.881A3.633 3.633 0 001.5.25V1 .25zm7.96 7h12.976a8.745 8.745 0 00-.14-.656c-.08-.315-.182-.624-.362-1.165l-.01-.03-.145-.433-.044-.133c-.325-.975-.548-1.647-.963-2.168a3.75 3.75 0 00-1.646-1.187c-.626-.229-1.335-.228-2.362-.228H15.31c-1.099 0-1.856 0-2.52.26a3.75 3.75 0 00-1.504 1.084c-.458.548-.697 1.267-1.044 2.309l-.048.142L9.46 7.25zm13.103 1.5H4.35l.123.861.004.03c.135.949.243 1.703.378 2.31.138.622.315 1.144.617 1.615a4.75 4.75 0 002.023 1.754c.508.232 1.05.334 1.685.383.62.047 1.382.047 2.34.047H16.527c.944 0 1.548 0 2.08-.123a4.75 4.75 0 003.352-2.908c.197-.509.283-1.106.416-2.041l.015-.105.005-.032c.08-.564.126-.886.148-1.21.013-.194.02-.387.02-.581zM6.25 20a2.75 2.75 0 115.5 0 2.75 2.75 0 01-5.5 0zm10 0a2.75 2.75 0 115.5 0 2.75 2.75 0 01-5.5 0z"/>
</svg>
