<svg xmlns="http://www.w3.org/2000/svg" width="24" height="24" fill="currentColor" viewBox="0 0 24 24">
  <path fill-rule="evenodd" d="M11.6 1.25h-.034c-1.651 0-2.937 0-3.968.084-1.047.086-1.897.262-2.662.652a6.75 6.75 0 00-2.95 2.95c-.39.765-.566 1.615-.652 2.662-.084 1.031-.084 2.317-.084 3.968V12.434c0 1.651 0 2.937.084 3.968.086 1.047.262 1.897.652 2.662a6.75 6.75 0 002.95 2.95c.765.39 1.615.566 2.662.652 1.031.084 2.316.084 3.968.084H12.434c1.652 0 2.937 0 3.968-.084 1.047-.086 1.897-.262 2.662-.652a6.75 6.75 0 002.95-2.95c.39-.765.566-1.615.652-2.662.084-1.031.084-2.317.084-3.968V11.566c0-1.652 0-2.937-.084-3.968-.086-1.047-.262-1.897-.652-2.662a6.75 6.75 0 00-2.95-2.95c-.765-.39-1.615-.566-2.662-.652-1.031-.084-2.317-.084-3.968-.084H11.6zm-2.6 3a.75.75 0 01.75.75v13a.75.75 0 01-1.28.53l-3-3a.75.75 0 111.06-1.06l1.72 1.72V5A.75.75 0 019 4.25zM15.417 13a.75.75 0 00-1.263-.547l-1.667 1.562a.75.75 0 001.026 1.095l.404-.379v2.519h-.584a.75.75 0 000 1.5H16a.75.75 0 000-1.5h-.583V13zm-.37-4.317a1.25 1.25 0 01-.708.52c-.14.04-.337.047-1.039.047H13a.75.75 0 000 1.5H13.403c.55 0 .975 0 1.343-.103a2.75 2.75 0 001.9-1.9c.105-.37.104-.794.104-1.344V6.5a2.25 2.25 0 10-1.703 2.183zM15.25 6.5a.75.75 0 11-1.5 0 .75.75 0 011.5 0z"/>
</svg>
