<svg xmlns="http://www.w3.org/2000/svg" width="24" height="24" fill="currentColor" viewBox="0 0 24 24">
  <path fill-rule="evenodd" d="M8.367 4.25H15.633c1.092 0 1.958 0 2.655.057.714.058 1.317.18 1.869.46a4.75 4.75 0 012.075 2.077c.281.55.403 1.154.461 1.868.057.697.057 1.563.057 2.655V12.633c0 1.092 0 1.958-.057 2.655-.058.714-.18 1.317-.46 1.869a4.75 4.75 0 01-2.076 2.075c-.552.281-1.155.403-1.869.461-.697.057-1.563.057-2.655.057H8.367c-1.092 0-1.958 0-2.655-.057-.714-.058-1.317-.18-1.868-.46a4.75 4.75 0 01-2.076-2.076c-.281-.552-.403-1.155-.461-1.869-.057-.697-.057-1.563-.057-2.655V11.367c0-1.092 0-1.958.057-2.655.058-.714.18-1.317.46-1.868a4.75 4.75 0 012.077-2.076c.55-.281 1.154-.403 1.868-.461.697-.057 1.563-.057 2.655-.057zm1.633 9a.75.75 0 000 1.5h4a.75.75 0 000-1.5h-4zM7 14a1 1 0 11-2 0 1 1 0 012 0zm11 1a1 1 0 100-2 1 1 0 000 2zm1-5a1 1 0 11-2 0 1 1 0 012 0zM6 11a1 1 0 100-2 1 1 0 000 2zm5-1a1 1 0 11-2 0 1 1 0 012 0zm3 1a1 1 0 100-2 1 1 0 000 2z"/>
</svg>
