<svg xmlns="http://www.w3.org/2000/svg" width="24" height="24" fill="currentColor" viewBox="0 0 24 24">
  <path fill-rule="evenodd" d="M10 1.25h-.034c-1.371 0-2.447 0-3.311.07-.88.073-1.607.221-2.265.557A5.75 5.75 0 001.877 4.39c-.336.658-.484 1.385-.556 2.265-.071.864-.071 1.94-.071 3.311v4.068c0 1.371 0 2.447.07 3.311.073.88.221 1.607.557 2.265a5.75 5.75 0 002.513 2.513c.658.336 1.385.485 2.265.556.864.071 1.94.071 3.311.071h4.068c1.371 0 2.447 0 3.311-.07.88-.072 1.607-.221 2.265-.557a5.75 5.75 0 002.513-2.513c.336-.658.485-1.385.556-2.265.071-.864.071-1.94.071-3.311V9.966c0-1.371 0-2.447-.07-3.311-.072-.88-.221-1.607-.557-2.265a5.75 5.75 0 00-2.513-2.513c-.658-.336-1.385-.484-2.265-.556-.864-.071-1.94-.071-3.311-.071H10zm0 4a.75.75 0 01.75.75V6.83c0 .535 0 .98-.03 1.345-.03.38-.098.736-.27 1.073a2.75 2.75 0 01-1.202 1.202c-.337.172-.693.24-1.073.27-.365.03-.81.03-1.345.03H6a.75.75 0 010-1.5h.8c.572 0 .957 0 1.253-.025.287-.023.424-.065.514-.111a1.25 1.25 0 00.547-.547c.046-.09.088-.227.111-.514.024-.296.025-.68.025-1.253V6a.75.75 0 01.75-.75zm-3.2 9.5c.572 0 .957 0 1.253.025.287.023.424.065.514.111.236.12.427.311.547.546.046.091.088.228.111.515.024.296.025.68.025 1.253v.8a.75.75 0 001.5 0V17.17c0-.535 0-.98-.03-1.345-.03-.38-.098-.736-.27-1.073a2.75 2.75 0 00-1.202-1.202c-.337-.172-.693-.24-1.073-.27-.365-.03-.81-.03-1.345-.03H6a.75.75 0 000 1.5h.8zm7.2-9.5a.75.75 0 01.75.75v.8c0 .572 0 .957.025 1.253.023.287.065.424.111.514.12.236.311.427.546.547.091.046.228.088.515.111.296.024.68.025 1.253.025h.8a.75.75 0 010 1.5H17.17c-.535 0-.98 0-1.345-.03-.38-.03-.736-.098-1.073-.27a2.75 2.75 0 01-1.202-1.202c-.172-.337-.24-.693-.27-1.073-.03-.365-.03-.81-.03-1.345V6a.75.75 0 01.75-.75zm3.2 8h-.03c-.535 0-.98 0-1.345.03-.38.03-.736.098-1.073.27a2.751 2.751 0 00-1.202 1.201c-.172.338-.24.694-.27 1.074-.03.365-.03.81-.03 1.345V18a.75.75 0 001.5 0v-.8c0-.572 0-.957.025-1.252.023-.288.065-.425.111-.516a1.25 1.25 0 01.546-.546c.091-.046.228-.088.515-.111.296-.024.68-.025 1.253-.025h.8a.75.75 0 000-1.5h-.8z"/>
</svg>
