<svg xmlns="http://www.w3.org/2000/svg" width="24" height="24" fill="currentColor" viewBox="0 0 24 24">
  <path fill-rule="evenodd" d="M10 1.25h-.034c-1.371 0-2.447 0-3.311.07-.88.073-1.607.221-2.265.557A5.75 5.75 0 001.877 4.39c-.336.658-.484 1.385-.556 2.265-.071.864-.071 1.94-.071 3.311v4.068c0 1.371 0 2.447.07 3.311.073.88.221 1.607.557 2.265a5.75 5.75 0 002.513 2.513c.658.336 1.385.485 2.265.556.864.071 1.94.071 3.311.071h4.068c1.371 0 2.447 0 3.311-.07.88-.072 1.607-.221 2.265-.557a5.75 5.75 0 002.513-2.513c.336-.658.485-1.385.556-2.265.071-.864.071-1.94.071-3.311V9.966c0-1.371 0-2.447-.07-3.311-.072-.88-.221-1.607-.557-2.265a5.75 5.75 0 00-2.513-2.513c-.658-.336-1.385-.484-2.265-.556-.864-.071-1.94-.071-3.311-.071H10zm0 10c-.943 0-1.414 0-1.707-.293C8 10.664 8 10.193 8 9.25V4.723c0-.925 0-1.387.293-1.68.293-.293.751-.293 1.668-.293H14.04c.917 0 1.375 0 1.668.293.293.293.293.755.293 1.68V9.25c0 .943 0 1.414-.293 1.707-.293.293-.764.293-1.707.293h-4zm6 3.5c0-.943 0-1.414-.293-1.707-.293-.293-.764-.293-1.707-.293h-4c-.943 0-1.414 0-1.707.293C8 13.336 8 13.807 8 14.75v4.527c0 .925 0 1.387.293 1.68.293.293.751.293 1.668.293H14.04c.917 0 1.375 0 1.668-.293.293-.293.293-.755.293-1.68V14.75zm-12-3.5a.75.75 0 000 1.5h2a.75.75 0 000-1.5H4zM3.25 7A.75.75 0 014 6.25h2a.75.75 0 010 1.5H4A.75.75 0 013.25 7zM4 16.25a.75.75 0 000 1.5h2a.75.75 0 000-1.5H4zM17.25 12a.75.75 0 01.75-.75h2a.75.75 0 010 1.5h-2a.75.75 0 01-.75-.75zM18 6.25a.75.75 0 000 1.5h2a.75.75 0 000-1.5h-2zM17.25 17a.75.75 0 01.75-.75h2a.75.75 0 010 1.5h-2a.75.75 0 01-.75-.75z"/>
</svg>
