<svg xmlns="http://www.w3.org/2000/svg" width="24" height="24" fill="currentColor" viewBox="0 0 24 24">
  <path fill-rule="evenodd" d="M13.25 3.25c0-.943 0-1.414-.293-1.707-.293-.293-.764-.293-1.707-.293H9.966c-1.371 0-2.447 0-3.311.07-.88.073-1.607.221-2.265.557A5.75 5.75 0 001.877 4.39c-.336.658-.484 1.385-.556 2.265-.071.864-.071 1.94-.071 3.311v4.068c0 1.371 0 2.447.07 3.311.073.88.221 1.607.557 2.265a5.75 5.75 0 002.513 2.513c.658.336 1.385.485 2.265.556.864.071 1.94.071 3.311.071h1.284c.943 0 1.414 0 1.707-.293.293-.293.293-.764.293-1.707V3.25zm1.5 17.496c0 .961 0 1.442.309 1.737.31.296.77.275 1.694.233.208-.01.405-.021.592-.037.88-.071 1.607-.22 2.265-.556a5.75 5.75 0 002.513-2.513c.336-.658.485-1.385.556-2.265.071-.864.071-1.94.071-3.311V9.966c0-1.371 0-2.447-.07-3.311-.072-.88-.221-1.607-.557-2.265a5.75 5.75 0 00-2.513-2.513c-.658-.336-1.385-.484-2.265-.556a16.354 16.354 0 00-.592-.037c-.923-.042-1.385-.063-1.694.233-.309.295-.309.776-.309 1.737v17.492z"/>
</svg>
