<svg xmlns="http://www.w3.org/2000/svg" width="24" height="24" fill="currentColor" viewBox="0 0 24 24">
  <path fill-rule="evenodd" d="M9.966 1.25h4.068c1.371 0 2.447 0 3.311.07.88.073 1.607.221 2.265.557a5.75 5.75 0 012.513 2.513c.336.658.485 1.385.556 2.265.071.864.071 1.94.071 3.311v4.068c0 1.371 0 2.447-.07 3.311-.072.88-.221 1.607-.557 2.265a5.75 5.75 0 01-2.513 2.513c-.658.336-1.385.485-2.265.556-.864.071-1.94.071-3.311.071H9.966c-1.371 0-2.447 0-3.311-.07-.88-.072-1.607-.221-2.265-.557a5.75 5.75 0 01-2.513-2.513c-.336-.658-.484-1.385-.556-2.265-.071-.864-.071-1.94-.071-3.311V9.966c0-1.371 0-2.447.07-3.311.073-.88.221-1.607.557-2.265A5.75 5.75 0 014.39 1.877c.658-.336 1.385-.484 2.265-.556.864-.071 1.94-.071 3.311-.071zm2.034 4c-2.206 0-3.75.833-4.738 1.68l-.012.01V6.5a.75.75 0 00-1.5 0V9c0 .414.336.75.75.75H9a.75.75 0 000-1.5h-.962c.063-.06.13-.12.2-.18C9 7.416 10.206 6.75 12 6.75A5.237 5.237 0 0117.25 12a.75.75 0 001.5 0c0-3.726-3-6.75-6.75-6.75zM6.75 12a.75.75 0 00-1.5 0A6.75 6.75 0 0012 18.75c1.887 0 3.421-.853 4.454-1.659.103-.08.202-.16.296-.24v.649a.75.75 0 001.5 0V15a.75.75 0 00-.75-.75H15a.75.75 0 000 1.5h.728a8.043 8.043 0 01-.197.159c-.889.694-2.104 1.341-3.531 1.341A5.25 5.25 0 016.75 12z"/>
</svg>
