<svg xmlns="http://www.w3.org/2000/svg" width="24" height="24" fill="currentColor" viewBox="0 0 24 24">
  <path fill-rule="evenodd" d="M11.962 1.25h.076c1.837 0 3.267 0 4.41.104 1.16.105 2.098.322 2.927.8a6.75 6.75 0 012.47 2.471c.48.83.696 1.767.802 2.927.103 1.143.103 2.573.103 4.41v.076c0 1.837 0 3.267-.104 4.41-.105 1.16-.322 2.098-.8 2.927a6.752 6.752 0 01-2.471 2.47c-.83.48-1.767.696-2.927.802-1.143.103-2.573.103-4.41.103h-.076c-1.837 0-3.267 0-4.41-.104-1.16-.105-2.098-.322-2.927-.8a6.75 6.75 0 01-2.47-2.471c-.48-.83-.696-1.767-.801-2.927-.104-1.143-.104-2.573-.104-4.41v-.076c0-1.837 0-3.267.104-4.41.105-1.16.322-2.098.8-2.927a6.75 6.75 0 012.471-2.47c.83-.48 1.767-.696 2.927-.801 1.143-.104 2.573-.104 4.41-.104zM6 14.25a.75.75 0 000 1.5h3a.75.75 0 000-1.5H6zm6-7.5A5.25 5.25 0 006.75 12a.75.75 0 01-1.5 0A6.75 6.75 0 1112 18.75H8.974a.75.75 0 010-1.5H12a5.25 5.25 0 100-10.5zm.75 4.25a.75.75 0 00-1.5 0v2a.75.75 0 001.5 0v-2z"/>
</svg>
