<svg xmlns="http://www.w3.org/2000/svg" width="24" height="24" fill="currentColor" viewBox="0 0 24 24">
  <path fill-rule="evenodd" d="M10 1.25h-.034c-1.371 0-2.447 0-3.311.07-.88.073-1.607.221-2.265.557A5.75 5.75 0 001.877 4.39c-.336.658-.484 1.385-.556 2.265-.071.864-.071 1.94-.071 3.311v4.068c0 1.371 0 2.447.07 3.311.073.88.221 1.607.557 2.265a5.75 5.75 0 002.513 2.513c.658.336 1.385.485 2.265.556.864.071 1.94.071 3.311.071h4.068c1.371 0 2.447 0 3.311-.07.88-.072 1.607-.221 2.265-.557a5.75 5.75 0 002.513-2.513c.336-.658.485-1.385.556-2.265.071-.864.071-1.94.071-3.311V9.966c0-1.371 0-2.447-.07-3.311-.072-.88-.221-1.607-.557-2.265a5.75 5.75 0 00-2.513-2.513c-.658-.336-1.385-.484-2.265-.556-.864-.071-1.94-.071-3.311-.071H10zm6.03 3.72a.75.75 0 10-1.06 1.06l.22.22h-.593c-.445 0-.819 0-1.128.023a2.78 2.78 0 00-.93.207 2.75 2.75 0 00-1.154.946 2.779 2.779 0 00-.386.871c-.083.3-.157.666-.244 1.102l-.005.026-1.093 5.467c-.072.36-.094.459-.122.535a1.25 1.25 0 01-.987.809c-.08.012-.181.014-.548.014H7a.75.75 0 000 1.5h1.053c.29 0 .514 0 .72-.031a2.75 2.75 0 002.172-1.78c.072-.197.116-.418.172-.701l.01-.052 1.094-5.467c.094-.469.157-.78.223-1.02.064-.229.118-.34.17-.415a1.25 1.25 0 01.525-.43c.084-.036.203-.068.44-.085.248-.019.566-.02 1.044-.02l.566.001-.22.22a.75.75 0 001.061 1.06l1.5-1.5a.75.75 0 000-1.06l-1.5-1.5zm-1.06 14.06a.75.75 0 001.06 0l1.5-1.5a.75.75 0 000-1.06l-1.5-1.5a.75.75 0 10-1.06 1.06l.22.22H13a.75.75 0 000 1.5h2.19l-.22.22a.75.75 0 000 1.06zM6.293 7c0 .414.335.75.75.75H9a.75.75 0 100-1.5H7.043a.75.75 0 00-.75.75z"/>
</svg>
