<svg xmlns="http://www.w3.org/2000/svg" width="24" height="24" fill="currentColor" viewBox="0 0 24 24">
  <path fill-rule="evenodd" d="M8.914 8.914A28.533 28.533 0 008.75 12c0 1.077.058 2.113.164 3.086.973.106 2.009.164 3.086.164s2.113-.058 3.086-.164c.106-.973.164-2.009.164-3.086s-.058-2.113-.164-3.086A28.533 28.533 0 0012 8.75c-1.077 0-2.113.058-3.086.164zm-1.53.215a30.3 30.3 0 00-.134 2.87c0 .99.046 1.952.134 2.872a17.255 17.255 0 01-2.906-.748c-.947-.344-1.661-.737-2.125-1.135-.465-.4-.603-.737-.603-.988 0-.252.138-.588.603-.988.464-.399 1.178-.791 2.125-1.136a17.259 17.259 0 012.906-.747zM9.13 7.384c.92-.088 1.882-.134 2.871-.134.989 0 1.951.046 2.87.134a17.254 17.254 0 00-.746-2.906c-.345-.948-.738-1.662-1.136-2.125-.4-.465-.736-.603-.988-.603s-.588.138-.988.603c-.398.463-.791 1.177-1.136 2.125a17.26 17.26 0 00-.747 2.906zm7.487 1.745c.088.92.134 1.882.134 2.87 0 .99-.046 1.952-.134 2.872a17.255 17.255 0 002.906-.748c.947-.344 1.662-.737 2.125-1.135.465-.4.603-.737.603-.988 0-.252-.138-.588-.603-.988-.463-.399-1.178-.791-2.125-1.136a17.26 17.26 0 00-2.906-.747zm-1.745 7.487c-.92.087-1.882.134-2.871.134-.989 0-1.951-.047-2.87-.134.19 1.092.444 2.074.746 2.906.345.947.738 1.661 1.136 2.125.4.465.736.603.988.603s.588-.138.988-.604c.398-.463.791-1.177 1.136-2.124.302-.832.557-1.814.747-2.906zm-7.294-.193c-1.348-.21-2.572-.512-3.611-.89-.99-.36-1.848-.8-2.488-1.322a10.764 10.764 0 008.31 8.311c-.52-.64-.961-1.498-1.321-2.488-.378-1.039-.68-2.263-.89-3.611zm8.846 0c1.349-.21 2.572-.512 3.612-.89.989-.36 1.847-.8 2.487-1.322a10.764 10.764 0 01-8.31 8.311c.52-.64.962-1.498 1.321-2.488.378-1.039.68-2.263.89-3.611zm6.1-6.634c-.641-.522-1.5-.963-2.488-1.322-1.04-.378-2.264-.68-3.612-.89-.21-1.349-.512-2.572-.89-3.612-.36-.989-.8-1.847-1.322-2.487 4.163.87 7.441 4.148 8.311 8.31zM7.576 7.577c-1.348.21-2.572.512-3.611.89-.99.36-1.848.8-2.488 1.322a10.763 10.763 0 018.31-8.311c-.52.64-.961 1.498-1.321 2.487-.378 1.04-.68 2.263-.89 3.612z"/>
</svg>
