<svg xmlns="http://www.w3.org/2000/svg" width="24" height="24" fill="currentColor" viewBox="0 0 24 24">
  <path fill-rule="evenodd" d="M10.207 1.25H13.793c.69 0 1.258 0 1.712.04.466.042.904.132 1.292.372a2.75 2.75 0 011.197 1.587c.125.44.091.885.003 1.345-.086.448-.242.994-.432 1.657l-.01.034-.17.6-.037.128c-.201.706-.358 1.259-.694 1.686a2.75 2.75 0 01-1.123.847c-.503.205-1.078.205-1.812.204h-.883l.892-3.568a.75.75 0 10-1.456-.364L11.29 9.75h-1.008c-.734 0-1.309.001-1.812-.204a2.75 2.75 0 01-1.123-.847c-.335-.427-.493-.98-.694-1.686l-.036-.128-.172-.6-.01-.033c-.189-.664-.345-1.21-.43-1.658-.089-.46-.123-.906.002-1.345a2.75 2.75 0 011.197-1.587c.388-.24.825-.33 1.292-.372.454-.04 1.022-.04 1.712-.04zM4.39 5.877c.185-.095.376-.175.575-.242.077.293.166.603.257.921l.02.073.172.6.05.176c.179.637.403 1.434.9 2.067a4 4 0 001.632 1.231c.745.304 1.573.3 2.234.298l.184-.001H13.77c.66.004 1.49.007 2.234-.297a4 4 0 001.633-1.231c.497-.633.72-1.43.9-2.066V7.4l.05-.171.17-.6.021-.073c.091-.318.18-.628.257-.92.199.066.39.146.575.24a5.75 5.75 0 012.513 2.514c.336.658.485 1.385.556 2.265.071.864.071 1.94.071 3.311v.068c0 1.371 0 2.447-.07 3.311-.072.88-.221 1.607-.557 2.265a5.75 5.75 0 01-2.513 2.513c-.658.336-1.385.485-2.265.556-.864.071-1.94.071-3.311.071H9.966c-1.371 0-2.447 0-3.311-.07-.88-.072-1.607-.221-2.265-.557a5.75 5.75 0 01-2.513-2.513c-.336-.658-.484-1.385-.556-2.265-.071-.864-.071-1.94-.071-3.311v-.068c0-1.371 0-2.447.07-3.311.073-.88.221-1.607.557-2.265A5.75 5.75 0 014.39 5.877zM10 16.25a.75.75 0 000 1.5h4a.75.75 0 000-1.5h-4z"/>
</svg>
