<svg xmlns="http://www.w3.org/2000/svg" width="24" height="24" fill="currentColor" viewBox="0 0 24 24">
  <path fill-rule="evenodd" d="M12 .25a.75.75 0 01.75.75v1.278a9.752 9.752 0 018.972 8.972H23a.75.75 0 010 1.5h-1.279a9.694 9.694 0 01-.985 3.584.75.75 0 11-1.343-.668A8.25 8.25 0 008.334 4.607a.75.75 0 01-.668-1.343 9.695 9.695 0 013.584-.986V1A.75.75 0 0112 .25zM2.53 1.47a.75.75 0 00-1.06 1.06l3.126 3.126a9.711 9.711 0 00-2.318 5.594H1a.75.75 0 000 1.5h1.278a9.752 9.752 0 008.972 8.972V23a.75.75 0 001.5 0v-1.278a9.712 9.712 0 005.594-2.318l3.126 3.126a.75.75 0 101.06-1.06l-3.635-3.635v-.001l-4.235-4.25-.002-.002-4.249-4.234h-.001L6.166 5.105 2.53 1.47zM12 20.25c2.009 0 3.85-.717 5.28-1.91l-3.204-3.217a3.75 3.75 0 01-5.205-5.191L5.66 6.721A8.25 8.25 0 0012 20.25z"/>
</svg>
