<svg xmlns="http://www.w3.org/2000/svg" width="24" height="24" fill="currentColor" viewBox="0 0 24 24">
  <path fill-rule="evenodd" d="M14.034 1.25H9.966c-1.371 0-2.447 0-3.311.07-.88.073-1.607.221-2.265.557A5.75 5.75 0 001.877 4.39c-.336.658-.484 1.385-.556 2.265-.071.864-.071 1.94-.071 3.311v4.068c0 1.371 0 2.447.07 3.311.073.88.221 1.607.557 2.265a5.75 5.75 0 002.513 2.513c.658.336 1.385.485 2.265.556.864.071 1.94.071 3.311.071h4.068c1.371 0 2.447 0 3.311-.07.88-.072 1.607-.221 2.265-.557a5.75 5.75 0 002.513-2.513c.336-.658.485-1.385.556-2.265.071-.864.071-1.94.071-3.311V9.966c0-1.371 0-2.447-.07-3.311-.072-.88-.221-1.607-.557-2.265a5.75 5.75 0 00-2.513-2.513c-.658-.336-1.385-.484-2.265-.556-.864-.071-1.94-.071-3.311-.071zm1.496 6.22a.75.75 0 10-1.06 1.06l1.72 1.72h-5.553c-.752 0-1.359 0-1.851.037-.507.039-.953.12-1.37.314A3.75 3.75 0 005.6 12.415c-.194.418-.275.864-.314 1.37-.037.493-.037 1.1-.037 1.852V16a.75.75 0 001.5 0v-.333c0-.79 0-1.339.033-1.768.032-.421.091-.665.178-.85a2.25 2.25 0 011.088-1.088c.185-.087.429-.146.85-.178.43-.033.979-.033 1.768-.033h5.522l-1.72 1.72a.75.75 0 101.061 1.06l3-3a.75.75 0 000-1.06l-3-3z"/>
</svg>
