<svg xmlns="http://www.w3.org/2000/svg" width="24" height="24" fill="currentColor" viewBox="0 0 24 24">
  <path fill-rule="evenodd" d="M11.566 1.25H12.434c1.651 0 2.937 0 3.968.084 1.047.086 1.897.262 2.662.652a6.75 6.75 0 012.95 2.95c.39.765.566 1.615.652 2.662.084 1.031.084 2.317.084 3.968V12.434c0 1.652 0 2.937-.084 3.968-.086 1.047-.262 1.897-.652 2.662a6.75 6.75 0 01-2.95 2.95c-.765.39-1.615.566-2.662.652-1.031.084-2.317.084-3.968.084H11.566c-1.652 0-2.937 0-3.968-.084-1.047-.086-1.897-.262-2.662-.652a6.75 6.75 0 01-2.95-2.95c-.39-.765-.566-1.615-.652-2.662-.084-1.031-.084-2.317-.084-3.968V11.566c0-1.651 0-2.937.084-3.968.086-1.047.262-1.897.652-2.662a6.75 6.75 0 012.95-2.95c.765-.39 1.615-.566 2.662-.652 1.031-.084 2.317-.084 3.968-.084zM12 5a2 2 0 00-.737 3.86.752.752 0 00-.013.14v7.184a4.254 4.254 0 01-3.434-3.434h1.059a.75.75 0 000-1.5H7a.75.75 0 00-.75.75 5.75 5.75 0 0011.5 0 .75.75 0 00-.75-.75h-1.875a.75.75 0 000 1.5h1.059a4.254 4.254 0 01-3.434 3.434V9a.752.752 0 00-.013-.14A2 2 0 0012 5z"/>
</svg>
