<svg xmlns="http://www.w3.org/2000/svg" width="24" height="24" fill="currentColor" viewBox="0 0 24 24">
  <path fill-rule="evenodd" d="M23.03 2.03A.75.75 0 0021.97.97L20.5 2.439a5.753 5.753 0 00-.496-.342c-.739-.452-1.577-.654-2.6-.752-1.004-.095-2.261-.095-3.865-.095h-2.584c-1.837 0-3.276 0-4.419.124-1.165.126-2.11.388-2.916.974A5.75 5.75 0 002.348 3.62c-.586.807-.848 1.75-.974 2.916-.124 1.143-.124 2.582-.124 4.419v.09c0 1.837 0 3.276.124 4.418.126 1.166.388 2.11.974 2.917.308.424.673.803 1.083 1.128L1.47 21.47a.75.75 0 101.06 1.06l2.621-2.62L21.066 3.994 23.03 2.03zm-.345 4.962a.75.75 0 00-1.5.016l.75-.008-.75.008v.017l.001.051.002.196.008.723.022 2.396c.016 1.878.032 4.125.032 5.609v3.17c0 .525 0 .88-.019 1.144-.018.27-.051.354-.062.377a.75.75 0 01-.722.408c-.024-.002-.114-.017-.355-.14-.236-.12-.54-.303-.99-.572l-.042-.025c-.484-.291-.783-.47-1.1-.612l-.306.685.306-.685a5.75 5.75 0 00-1.655-.458c-.344-.042-.692-.042-1.258-.042h-.049c-.728 0-1.453.003-2.176.006-1.441.006-2.875.011-4.313-.006a.75.75 0 10-.018 1.5c1.45.017 2.905.012 4.353.006.72-.003 1.439-.006 2.154-.006.63 0 .883.001 1.127.03.423.052.835.166 1.223.34.225.1.443.23.983.553l.023.014c.42.252.768.461 1.056.608.289.147.598.277.932.3a2.25 2.25 0 002.164-1.225c.151-.298.2-.63.222-.954.022-.322.022-.728.022-1.218V16c0-1.491-.016-3.744-.032-5.622-.008-.94-.017-1.786-.023-2.398l-.007-.723-.002-.197v-.068l-.75.008.75-.008z"/>
</svg>
