<svg xmlns="http://www.w3.org/2000/svg" width="24" height="24" fill="currentColor" viewBox="0 0 24 24">
  <path fill-rule="evenodd" d="M12 1.25C6.063 1.25 1.25 6.063 1.25 12S6.063 22.75 12 22.75 22.75 17.937 22.75 12 17.937 1.25 12 1.25zM8 11.2c0-1.12 0-1.68.218-2.108a2 2 0 01.874-.874C9.52 8 10.08 8 11.2 8h1.6c1.12 0 1.68 0 2.108.218a2 2 0 01.874.874C16 9.52 16 10.08 16 11.2v1.6c0 1.12 0 1.68-.218 2.108a2 2 0 01-.874.874C14.48 16 13.92 16 12.8 16h-1.6c-1.12 0-1.68 0-2.108-.218a2 2 0 01-.874-.874C8 14.48 8 13.92 8 12.8v-1.6z"/>
</svg>
