<svg xmlns="http://www.w3.org/2000/svg" width="24" height="24" fill="currentColor" viewBox="0 0 24 24">
  <path fill-rule="evenodd" d="M11.566 1.25H12.434c1.651 0 2.937 0 3.968.084 1.047.086 1.897.262 2.662.652a6.75 6.75 0 012.95 2.95c.39.765.566 1.615.652 2.662.084 1.031.084 2.317.084 3.968V12.434c0 1.651 0 2.937-.084 3.968-.086 1.047-.262 1.897-.652 2.662a6.75 6.75 0 01-2.95 2.95c-.765.39-1.615.566-2.662.652-1.031.084-2.317.084-3.968.084H11.566c-1.651 0-2.937 0-3.968-.084-1.047-.086-1.897-.262-2.662-.652a6.75 6.75 0 01-2.95-2.95c-.39-.765-.566-1.615-.652-2.662-.084-1.031-.084-2.317-.084-3.968V11.566c0-1.651 0-2.937.084-3.968.086-1.047.262-1.897.652-2.662a6.75 6.75 0 012.95-2.95c.765-.39 1.615-.566 2.662-.652 1.031-.084 2.317-.084 3.968-.084zM12 7.75a8.836 8.836 0 00-6.454 2.764.75.75 0 01-1.092-1.028A10.336 10.336 0 0112 6.25c2.983 0 5.672 1.245 7.546 3.236a.75.75 0 01-1.092 1.028A8.836 8.836 0 0012 7.75zm0 3c-1.734 0-3.31.68-4.484 1.794a.75.75 0 01-1.032-1.088A7.987 7.987 0 0112 9.25c2.136 0 4.077.84 5.517 2.206a.75.75 0 01-1.034 1.088A6.487 6.487 0 0012 10.75zm-2.042 3.844c.408-.315.683-.513.974-.644.271-.123.587-.2 1.068-.2.481 0 .797.077 1.068.2.29.131.566.329.974.644a.75.75 0 00.916-1.188c-.4-.309-.802-.61-1.273-.823-.49-.222-1.021-.333-1.685-.333-.664 0-1.194.11-1.685.333-.471.212-.873.514-1.273.823a.75.75 0 10.916 1.188zM13 17a1 1 0 11-2 0 1 1 0 012 0z"/>
</svg>
