<svg xmlns="http://www.w3.org/2000/svg" width="24" height="24" fill="currentColor" viewBox="0 0 24 24">
  <path fill-rule="evenodd" d="M13.628 1.372l.084.014a10.758 10.758 0 018.902 8.902l.014.084c.062.38.132.804-.034 1.245a1.843 1.843 0 01-.77.903 1.724 1.724 0 01-.705.21c-.203.02-.441.02-.69.02H15.17c-.535 0-.98 0-1.345-.03-.38-.03-.736-.098-1.073-.27a2.751 2.751 0 01-1.202-1.202c-.172-.337-.24-.693-.27-1.073-.03-.365-.03-.81-.03-1.345V3.57c0-.248 0-.486.02-.69.023-.228.075-.467.21-.704.192-.335.542-.634.903-.77.44-.166.865-.096 1.245-.034zM9.225 3.173a.75.75 0 00-.45-1.43C4.415 3.111 1.25 7.185 1.25 12c0 5.937 4.813 10.75 10.75 10.75 4.815 0 8.888-3.164 10.258-7.525a.75.75 0 10-1.431-.45A9.254 9.254 0 0112 21.25 9.25 9.25 0 012.75 12a9.254 9.254 0 016.475-8.827z"/>
</svg>
