<svg xmlns="http://www.w3.org/2000/svg" width="24" height="24" fill="currentColor" viewBox="0 0 24 24">
  <path fill-rule="evenodd" d="M5.11 1.25h-.036c-.472 0-.878 0-1.197.03-.318.028-.692.095-1.003.335a1.75 1.75 0 00-.68 1.32c-.014.393.15.736.31 1.011.162.277.398.607.672.991l.02.029 3.188 4.462.01.015 4.856 6.797v5.01H8a.75.75 0 000 1.5h8a.75.75 0 000-1.5h-3.25v-5.01l4.855-6.797a.533.533 0 00.011-.015l3.187-4.462.02-.029c.275-.384.51-.714.673-.99.16-.276.324-.62.31-1.012a1.75 1.75 0 00-.68-1.32c-.311-.24-.685-.307-1.003-.336-.32-.029-.725-.029-1.197-.029H5.109zm11.504 7l2.969-4.156c.3-.42.495-.695.618-.905.077-.132.099-.196.104-.214a.25.25 0 00-.083-.163 1.082 1.082 0 00-.235-.04c-.243-.021-.579-.022-1.096-.022H5.109c-.517 0-.853 0-1.096.023a1.084 1.084 0 00-.235.04.25.25 0 00-.084.162c.006.018.028.082.105.214.123.21.318.484.618.905L7.386 8.25h9.228z"/>
</svg>
