<svg xmlns="http://www.w3.org/2000/svg" width="24" height="24" fill="currentColor" viewBox="0 0 24 24">
  <path fill-rule="evenodd" d="M10 1.25h-.034c-1.371 0-2.447 0-3.311.07-.88.073-1.607.221-2.265.557A5.75 5.75 0 001.877 4.39c-.336.658-.484 1.385-.556 2.265-.071.864-.071 1.94-.071 3.311v4.068c0 1.371 0 2.447.07 3.311.073.88.221 1.607.557 2.265a5.75 5.75 0 002.513 2.513c.658.336 1.385.485 2.265.556.864.071 1.94.071 3.311.071h4.068c1.371 0 2.447 0 3.311-.07.88-.072 1.607-.221 2.265-.557a5.75 5.75 0 002.513-2.513c.336-.658.485-1.385.556-2.265.071-.864.071-1.94.071-3.311V9.966c0-1.371 0-2.447-.07-3.311-.072-.88-.221-1.607-.557-2.265a5.75 5.75 0 00-2.513-2.513c-.658-.336-1.385-.484-2.265-.556-.864-.071-1.94-.071-3.311-.071H10zM16.25 14a.75.75 0 011.5 0v.278a3.472 3.472 0 01-3.472 3.472H8.81l.22.22a.75.75 0 11-1.061 1.06l-1.5-1.5a.75.75 0 010-1.06l1.5-1.5a.75.75 0 011.06 1.06l-.22.22h5.468c1.089 0 1.972-.883 1.972-1.972V14zm-.22-9.03a.75.75 0 10-1.06 1.06l.22.22H9.721A3.472 3.472 0 006.25 9.722V10a.75.75 0 001.5 0v-.278c0-1.089.883-1.972 1.972-1.972h5.467l-.22.22a.75.75 0 001.061 1.06l1.5-1.5a.75.75 0 000-1.06l-1.5-1.5zm-3.243 4.337a.75.75 0 01.463.693v4a.75.75 0 01-1.5 0v-2.19l-.22.22a.75.75 0 11-1.06-1.06l1.5-1.5a.75.75 0 01.817-.163z"/>
</svg>
