<svg xmlns="http://www.w3.org/2000/svg" width="24" height="24" fill="currentColor" viewBox="0 0 24 24">
  <path fill-rule="evenodd" d="M14.034 1.25H9.966c-1.371 0-2.447 0-3.311.07-.88.073-1.607.221-2.265.557A5.75 5.75 0 001.877 4.39c-.336.658-.484 1.385-.556 2.265-.071.864-.071 1.94-.071 3.311v4.068c0 1.371 0 2.447.07 3.311.073.88.221 1.607.557 2.265a5.75 5.75 0 002.513 2.513c.658.336 1.385.485 2.265.556.864.071 1.94.071 3.311.071h4.068c1.371 0 2.447 0 3.311-.07.88-.072 1.607-.221 2.265-.557a5.75 5.75 0 002.513-2.513c.336-.658.485-1.385.556-2.265.071-.864.071-1.94.071-3.311V9.966c0-1.371 0-2.447-.07-3.311-.072-.88-.221-1.607-.557-2.265a5.75 5.75 0 00-2.513-2.513c-.658-.336-1.385-.484-2.265-.556-.864-.071-1.94-.071-3.311-.071zm-.034 4a.75.75 0 000 1.5h2.19l-1.054 1.053L13.47 9.47a.75.75 0 101.06 1.06l1.667-1.666L17.25 7.81V10a.75.75 0 001.5 0V6a.75.75 0 00-.75-.75h-4zM6.75 14a.75.75 0 00-1.5 0v4c0 .414.336.75.75.75h4a.75.75 0 000-1.5H7.81l1.054-1.053 1.666-1.667a.75.75 0 10-1.06-1.06l-1.667 1.666L6.75 16.19V14z"/>
</svg>
