<svg xmlns="http://www.w3.org/2000/svg" width="24" height="24" fill="currentColor" viewBox="0 0 24 24">
  <path fill-rule="evenodd" d="M15.8 1.25h-.032c-.813 0-1.469 0-2 .043-.546.045-1.026.14-1.47.366a3.75 3.75 0 00-1.64 1.639c-.226.444-.32.924-.365 1.47-.012.15-.02.311-.027.482H7.495c-1.198 0-1.969 0-2.675.225-.624.2-1.2.525-1.692.958-.557.49-.953 1.15-1.57 2.178l-.065.11-.224.373-.032.054c-.31.514-.508.846-.651 1.206a4.75 4.75 0 00-.274.987c-.062.382-.062.769-.062 1.37V15.83c0 .535 0 .98.03 1.345.03.38.098.736.27 1.073a2.75 2.75 0 001.202 1.202c.081.042.164.078.248.108V19.5a4.5 4.5 0 118.993.25h2.014a4.5 4.5 0 018.982-.57 3.75 3.75 0 001.352-1.477c.227-.445.321-.925.366-1.471.043-.531.043-1.187.043-2V6.768c0-.813 0-1.469-.043-2-.045-.546-.14-1.026-.366-1.47a3.75 3.75 0 00-1.639-1.64c-.444-.226-.924-.32-1.47-.365-.531-.043-1.187-.043-2-.043H15.8zM2.258 10.365c.183-.044.372-.07.567-.085.365-.03.81-.03 1.345-.03H8.6c.432 0 .712 0 .924-.018.204-.017.28-.045.317-.064a.75.75 0 00.327-.328c.02-.037.047-.112.064-.316.017-.212.018-.492.018-.924V6.75H7.624c-1.371 0-1.892.008-2.348.154a3.25 3.25 0 00-1.157.655c-.36.316-.635.759-1.34 1.934l-.224.373c-.123.206-.22.367-.297.5zM3.25 19.5a3.25 3.25 0 116.5 0 3.25 3.25 0 01-6.5 0zm14.25-3.25a3.25 3.25 0 100 6.5 3.25 3.25 0 000-6.5z"/>
</svg>
