<svg xmlns="http://www.w3.org/2000/svg" width="24" height="24" fill="currentColor" viewBox="0 0 24 24">
  <path fill-rule="evenodd" d="M11.25 2.5c0-.232 0-.348-.02-.445a1 1 0 00-.785-.786c-.097-.019-.213-.019-.445-.019h-.034c-1.371 0-2.447 0-3.311.07-.88.073-1.607.221-2.265.557A5.75 5.75 0 001.877 4.39c-.336.658-.484 1.385-.556 2.265-.016.187-.028.384-.037.592-.042.923-.063 1.385.233 1.694.295.309.776.309 1.737.309H9.25c.943 0 1.414 0 1.707-.293.293-.293.293-.764.293-1.707V2.5zM1.25 14v-1.25c0-.943 0-1.414.293-1.707.293-.293.764-.293 1.707-.293h6c.943 0 1.414 0 1.707.293.293.293.293.764.293 1.707v8.75c0 .232 0 .349-.02.445a1 1 0 01-.785.786c-.097.019-.213.019-.445.019h-.034c-1.371 0-2.447 0-3.311-.07-.88-.072-1.607-.221-2.265-.557a5.75 5.75 0 01-2.513-2.513c-.336-.658-.484-1.385-.556-2.265-.071-.864-.071-1.94-.071-3.311V14zm13.5.75c-.943 0-1.414 0-1.707.293-.293.293-.293.764-.293 1.707v4.75c0 .232 0 .349.02.445a1 1 0 00.785.786c.097.019.213.019.445.019h.034c1.371 0 2.447 0 3.311-.07.88-.072 1.607-.221 2.265-.557a5.75 5.75 0 002.513-2.513c.336-.658.485-1.385.556-2.265.016-.187.028-.384.037-.592.042-.923.063-1.385-.233-1.694-.295-.309-.776-.309-1.737-.309H14.75zm6-1.5c.943 0 1.414 0 1.707-.293.293-.293.293-.764.293-1.707V9.966c0-1.371 0-2.447-.07-3.311-.072-.88-.221-1.607-.557-2.265a5.75 5.75 0 00-2.513-2.513c-.658-.336-1.385-.484-2.265-.556-.864-.071-1.94-.071-3.311-.071H14c-.232 0-.348 0-.445.02a1 1 0 00-.786.785c-.019.097-.019.213-.019.445v8.75c0 .943 0 1.414.293 1.707.293.293.764.293 1.707.293h6z"/>
</svg>
