<svg xmlns="http://www.w3.org/2000/svg" width="24" height="24" fill="currentColor" viewBox="0 0 24 24">
  <path fill-rule="evenodd" d="M10 1.25h-.034c-1.371 0-2.447 0-3.311.07-.88.073-1.607.221-2.265.557A5.75 5.75 0 001.877 4.39c-.336.658-.484 1.385-.556 2.265-.071.864-.071 1.94-.071 3.311v4.068c0 1.371 0 2.447.07 3.311.073.88.221 1.607.557 2.265a5.75 5.75 0 002.513 2.513c.658.336 1.385.485 2.265.556.864.071 1.94.071 3.311.071h4.068c1.371 0 2.447 0 3.311-.07.88-.072 1.607-.221 2.265-.557a5.75 5.75 0 002.513-2.513c.336-.658.485-1.385.556-2.265.071-.864.071-1.94.071-3.311V9.966c0-1.371 0-2.447-.07-3.311-.072-.88-.221-1.607-.557-2.265a5.75 5.75 0 00-2.513-2.513c-.658-.336-1.385-.484-2.265-.556-.864-.071-1.94-.071-3.311-.071H10zm6.33 5.503A8.234 8.234 0 0016 6.75h-3.25V8.5a.75.75 0 01-1.5 0V6.75H10a.75.75 0 010-1.5h6.064c.243 0 .496-.001.722.06a1.75 1.75 0 011.238 1.237c.06.227.06.48.06.722V8a.75.75 0 01-1.5 0v-.667c0-.161 0-.258-.004-.33a.618.618 0 00-.006-.07.25.25 0 00-.174-.174.662.662 0 00-.07-.006zm-5.08 5.558v4.939H9.333a.75.75 0 000 1.5h5.334a.75.75 0 000-1.5H12.75v-3.44l4.72 4.72a.75.75 0 101.06-1.06l-6-6-6-6a.75.75 0 00-1.06 1.06l5.78 5.78z"/>
</svg>
