<svg xmlns="http://www.w3.org/2000/svg" width="24" height="24" fill="currentColor" viewBox="0 0 24 24">
  <path fill-rule="evenodd" d="M14.8 2.75c.572 0 .957 0 1.253.025.287.023.424.065.514.111.236.12.427.311.547.547.046.09.088.227.111.514.024.296.025.68.025 1.253v2.05H12a.75.75 0 000 1.5h5c.948 0 1.61 0 2.122.047.503.046.788.13 1.003.254.342.198.626.482.824.824.124.215.208.5.254 1.003.046.512.047 1.174.047 2.122v1c0 .978-.006 1.32-.077 1.582-.092.347-.265.66-.496.918a.75.75 0 001.118 1c.385-.43.673-.952.827-1.53.128-.478.128-1.036.128-1.854V12.964c0-.904 0-1.633-.053-2.222-.055-.606-.171-1.136-.45-1.617a3.75 3.75 0 00-1.372-1.373c-.481-.277-1.011-.394-1.617-.449a10.71 10.71 0 00-.508-.032V5.17c0-.535 0-.98-.03-1.345-.03-.38-.098-.736-.27-1.073A2.75 2.75 0 0017.25 1.55c-.338-.172-.694-.24-1.074-.27-.365-.03-.81-.03-1.344-.03H8a.75.75 0 000 1.5h6.8zM1.47 1.47a.75.75 0 01.736-.191l.207.095c.041.027.08.06.117.096l6 6L15.061 14l1.467 1.468.004.004 1.996 1.996.004.004L20 18.939l2.53 2.53a.75.75 0 01-1.06 1.061l-1.587-1.586-1.142-1.143a7.75 7.75 0 01-.02.374c-.032.38-.099.736-.27 1.073a2.75 2.75 0 01-1.203 1.202c-.337.172-.693.24-1.073.27-.365.03-.81.03-1.344.03H8.974c-.445 0-.816 0-1.12-.02a2.824 2.824 0 01-.907-.19 2.75 2.75 0 01-1.489-1.488c-.12-.29-.167-.59-.188-.907-.021-.304-.021-.675-.021-1.12v-.05c0-.445 0-.816.02-1.12.022-.317.07-.617.19-.907a2.75 2.75 0 011.488-1.489c.29-.12.59-.167.907-.188.304-.021.675-.021 1.12-.021H14.19L12.94 14H8.947c-.42 0-.83 0-1.177.024-.381.026-.833.087-1.3.28a4 4 0 00-2.165 2.165c-.194.468-.255.92-.281 1.3-.018.256-.022.544-.024.845a3.75 3.75 0 01-2.622-2.643c-.128-.48-.128-1.037-.128-1.855V12.964c0-.904 0-1.633.053-2.222.055-.606.172-1.136.45-1.617a3.75 3.75 0 011.372-1.373c.481-.277 1.011-.394 1.617-.449.41-.037.89-.048 1.449-.052L1.47 2.531a.75.75 0 010-1.061zM4.25 11a.75.75 0 01.75-.75h1a.75.75 0 010 1.5H5a.75.75 0 01-.75-.75z"/>
</svg>
