<svg xmlns="http://www.w3.org/2000/svg" width="24" height="24" fill="currentColor" viewBox="0 0 24 24">
  <path fill-rule="evenodd" d="M1.47 1.47a.75.75 0 011.06 0l1.716 1.716L8.53 7.47l.78.78 1.5 1.5 10.004 10.004 1.716 1.716a.75.75 0 11-1.06 1.06l-1.296-1.295a.016.016 0 00-.017-.003c-.552.281-1.155.403-1.869.461-.697.057-1.563.057-2.655.057H8.367c-1.092 0-1.958 0-2.655-.057-.714-.058-1.317-.18-1.868-.46a4.75 4.75 0 01-2.076-2.076c-.281-.552-.403-1.155-.461-1.869-.057-.697-.057-1.563-.057-2.655V11.35c0-.56 0-.84.109-1.054a1 1 0 01.437-.437c.214-.109.494-.109 1.054-.109h4.029a.75.75 0 000-1.5H2.866c-.572 0-.857 0-1.08-.121a1.05 1.05 0 01-.44-.481c-.102-.233-.079-.492-.033-1.01l.006-.057c.062-.657.185-1.22.449-1.737.046-.092.095-.181.148-.269a9.03 9.03 0 00.246-.425c.192-.415.157-.698-.132-1.052a4.444 4.444 0 00-.227-.234L1.47 2.53a.75.75 0 010-1.06zm16.696 2.332c-.63-.051-1.433-.052-2.566-.052H8.4c-.526 0-.983 0-1.39.006a.75.75 0 11-.02-1.5c.418-.006.885-.006 1.406-.006h7.237c1.092 0 1.958 0 2.655.057.714.058 1.317.18 1.869.46a4.75 4.75 0 012.075 2.077c.281.55.403 1.154.461 1.868.049.596.056 1.316.057 2.195a.758.758 0 010 .185v5.531c0 .977 0 1.771-.04 2.423-.011.188-.026.367-.046.54a.75.75 0 11-1.49-.171c.016-.14.029-.293.039-.46.037-.601.037-1.35.037-2.355v-3.25c0-.56 0-.84-.109-1.054a1 1 0 00-.437-.437c-.214-.109-.494-.109-1.054-.109H13a.75.75 0 010-1.5h6.83c.378 0 .568 0 .727-.056.302-.104.56-.385.64-.693.042-.164.028-.332.001-.667-.05-.62-.147-1.005-.302-1.31a3.25 3.25 0 00-1.42-1.42c-.305-.155-.69-.251-1.31-.302z"/>
</svg>
