<svg xmlns="http://www.w3.org/2000/svg" width="24" height="24" fill="currentColor" viewBox="0 0 24 24">
  <path fill-rule="evenodd" d="M15.25 2.469c0-.205 0-.307-.015-.394a1.003 1.003 0 00-.81-.81c-.087-.015-.188-.015-.391-.015H9.965c-.202 0-.302 0-.389.015a1.003 1.003 0 00-.81.811c-.016.087-.016.188-.016.391V9.25c0 .943 0 1.414.293 1.707.293.293.764.293 1.707.293h2.5c.943 0 1.414 0 1.707-.293.293-.293.293-.764.293-1.707V2.469zm0 12.281c0-.943 0-1.414-.293-1.707-.293-.293-.764-.293-1.707-.293h-2.5c-.943 0-1.414 0-1.707.293-.293.293-.293.764-.293 1.707v6.783c0 .203 0 .305.015.39.073.413.399.739.811.812.086.015.187.015.39.015h4.068c.203 0 .304 0 .39-.015.412-.073.738-.399.81-.81.016-.087.016-.19.016-.393V14.75zm2.095 7.93a.555.555 0 01-.595-.56v-7.37c0-.943 0-1.414.293-1.707.293-.293.764-.293 1.707-.293h2.75c.232 0 .349 0 .445.02a1 1 0 01.786.785c.019.097.019.213.019.445v.034c0 1.371 0 2.447-.07 3.311-.072.88-.221 1.607-.557 2.265a5.75 5.75 0 01-2.513 2.513c-.658.336-1.385.485-2.265.556zm1.405-11.43c-.943 0-1.414 0-1.707-.293-.293-.293-.293-.764-.293-1.707V1.88c0-.325.271-.586.595-.56.88.073 1.607.221 2.265.557a5.75 5.75 0 012.513 2.513c.336.658.485 1.385.556 2.265.071.864.071 1.94.071 3.311V10c0 .232 0 .348-.02.445a1 1 0 01-.785.786c-.096.019-.213.019-.445.019h-2.75zM6.655 1.32a.555.555 0 01.595.56v20.24a.555.555 0 01-.595.56c-.88-.072-1.607-.221-2.265-.557a5.75 5.75 0 01-2.513-2.513c-.336-.658-.484-1.385-.556-2.265-.071-.864-.071-1.94-.071-3.311V9.966c0-1.371 0-2.447.07-3.311.073-.88.221-1.607.557-2.265A5.75 5.75 0 014.39 1.877c.658-.336 1.385-.484 2.265-.556z"/>
</svg>
