<svg xmlns="http://www.w3.org/2000/svg" width="24" height="24" fill="currentColor" viewBox="0 0 24 24">
  <path fill-rule="evenodd" d="M10 1.25h-.034c-1.371 0-2.447 0-3.311.07-.88.073-1.607.221-2.265.557A5.75 5.75 0 001.877 4.39c-.336.658-.484 1.385-.556 2.265-.071.864-.071 1.94-.071 3.311v4.068c0 1.371 0 2.447.07 3.311.073.88.221 1.607.557 2.265a5.75 5.75 0 002.513 2.513c.658.336 1.385.485 2.265.556.864.071 1.94.071 3.311.071h4.068c1.371 0 2.447 0 3.311-.07.88-.072 1.607-.221 2.265-.557a5.75 5.75 0 002.513-2.513c.336-.658.485-1.385.556-2.265.071-.864.071-1.94.071-3.311V9.966c0-1.371 0-2.447-.07-3.311-.072-.88-.221-1.607-.557-2.265a5.75 5.75 0 00-2.513-2.513c-.658-.336-1.385-.484-2.265-.556-.864-.071-1.94-.071-3.311-.071H10zm.53 8.72a.75.75 0 010 1.06l-.22.22h3.38l-.22-.22a.75.75 0 111.06-1.06l1.5 1.5a.75.75 0 010 1.06l-1.5 1.5a.75.75 0 11-1.06-1.06l.22-.22h-3.38l.22.22a.75.75 0 11-1.06 1.06l-1.5-1.5a.75.75 0 010-1.06l1.5-1.5a.75.75 0 011.06 0zM6.75 7a.75.75 0 00-1.5 0v10a.75.75 0 001.5 0V7zm12 0a.75.75 0 00-1.5 0v10a.75.75 0 001.5 0V7z"/>
</svg>
