<svg xmlns="http://www.w3.org/2000/svg" width="24" height="24" fill="currentColor" viewBox="0 0 24 24">
  <path fill-rule="evenodd" d="M6.8 1.25h-.032c-.813 0-1.469 0-2 .043-.546.045-1.026.14-1.47.366a3.75 3.75 0 00-1.64 1.639c-.226.444-.32.924-.365 1.47-.043.531-.043 1.187-.043 2v10.464c0 .813 0 1.469.043 2 .045.546.14 1.026.366 1.47a3.75 3.75 0 001.639 1.64c.444.226.924.32 1.47.365.531.043 1.187.043 2 .043h6.464c.813 0 1.469 0 2-.043.546-.045 1.026-.14 1.47-.366a3.75 3.75 0 001.64-1.639c.226-.444.32-.924.365-1.47.033-.414.04-.902.043-1.482h.08c.535 0 .98 0 1.345-.03.38-.03.736-.098 1.073-.27a2.751 2.751 0 001.202-1.201c.172-.338.24-.694.27-1.074.03-.365.03-.81.03-1.345V9.992c0-.456-.003-.843-.03-1.167-.03-.38-.098-.736-.27-1.073A2.75 2.75 0 0021.25 6.55c-.338-.172-.694-.24-1.074-.27-.365-.03-.81-.03-1.345-.03h-.08c-.002-.58-.01-1.068-.043-1.481-.045-.547-.14-1.027-.366-1.471a3.75 3.75 0 00-1.639-1.64c-.444-.226-.924-.32-1.47-.365-.531-.043-1.187-.043-2-.043H6.8zm11.95 8v-1.5h.05c.572 0 .957 0 1.252.025.288.023.425.065.515.111.236.12.427.311.547.547.046.09.088.227.111.514.008.092.013.192.017.303H18.75zm0 7v-5.5h2.5v3.05c0 .572 0 .957-.025 1.252-.023.288-.065.425-.111.516a1.25 1.25 0 01-.547.546c-.09.046-.227.088-.515.111-.295.024-.68.025-1.252.025h-.05zM5 6.6c0-.56 0-.84.109-1.054a1 1 0 01.437-.437C5.76 5 6.04 5 6.6 5h6.8c.56 0 .84 0 1.054.109a1 1 0 01.437.437C15 5.76 15 6.04 15 6.6v1.8c0 .56 0 .84-.109 1.054a1 1 0 01-.437.437C14.24 10 13.96 10 13.4 10H6.6c-.56 0-.84 0-1.054-.109a1 1 0 01-.437-.437C5 9.24 5 8.96 5 8.4V6.6zM6 15a1 1 0 100-2 1 1 0 000 2zm1 3a1 1 0 11-2 0 1 1 0 012 0zm3-3a1 1 0 100-2 1 1 0 000 2zm1 3a1 1 0 11-2 0 1 1 0 012 0zm3-3a1 1 0 100-2 1 1 0 000 2zm1 3a1 1 0 11-2 0 1 1 0 012 0z"/>
</svg>
