<svg xmlns="http://www.w3.org/2000/svg" width="24" height="24" fill="currentColor" viewBox="0 0 24 24">
  <path fill-rule="evenodd" d="M12 .722c-1.002 0-1.701.66-2.282 1.492-.576.825-1.181 2.036-1.937 3.546l-.03.06-3.614 7.23-.024.048C3.06 15.203 2.24 16.84 1.78 18.076c-.231.622-.392 1.194-.431 1.703-.04.52.041 1.04.365 1.477.21.285.474.526.776.71.465.284.989.32 1.503.235.504-.085 1.06-.295 1.66-.58 1.188-.566 2.748-1.526 4.753-2.76l.046-.028c.444-.273.737-.453.977-.573.227-.114.359-.148.468-.157.068-.006.136-.006.204 0 .11.009.24.043.468.157.24.12.533.3.977.573l.046.028c2.005 1.234 3.565 2.194 4.754 2.76.6.285 1.155.495 1.66.58.513.085 1.037.05 1.502-.235a2.75 2.75 0 00.776-.71c.324-.438.406-.957.365-1.477-.039-.51-.2-1.08-.431-1.703-.46-1.235-1.279-2.873-2.332-4.978l-.024-.048-3.614-7.23-.03-.06c-.756-1.51-1.36-2.72-1.937-3.546-.58-.832-1.28-1.492-2.282-1.492z"/>
</svg>
