<svg xmlns="http://www.w3.org/2000/svg" width="24" height="24" fill="currentColor" viewBox="0 0 24 24">
  <path fill-rule="evenodd" d="M9.2 1.25h-.03c-.535 0-.98 0-1.345.03-.38.03-.736.098-1.073.27A2.75 2.75 0 005.55 2.752c-.172.337-.24.693-.27 1.073-.03.365-.03.81-.03 1.345v.845C5.697 6 6.194 6 6.728 6H17.272c.534 0 1.03 0 1.478.015V5.17c0-.535 0-.98-.03-1.345-.03-.38-.098-.736-.27-1.073A2.75 2.75 0 0017.25 1.55c-.338-.172-.694-.24-1.074-.27-.365-.03-.81-.03-1.345-.03H9.2zm-2.4 6h-.032c-.813 0-1.469 0-2 .043-.546.045-1.026.14-1.47.366a3.75 3.75 0 00-1.64 1.639c-.226.444-.32.924-.365 1.47-.043.531-.043 1.187-.043 2v1.348c0 .818 0 1.376.128 1.855A3.75 3.75 0 004 18.614c.002-.3.006-.59.024-.845.026-.38.087-.832.28-1.3a4 4 0 012.165-2.165c.468-.193.92-.254 1.3-.28C8.119 14 8.528 14 8.948 14h6.106c.42 0 .83 0 1.177.024.381.026.833.087 1.3.28a4 4 0 012.166 2.165c.194.468.254.92.28 1.3.018.256.022.544.024.845a3.75 3.75 0 002.622-2.643c.128-.48.128-1.037.128-1.855v-1.348c0-.813 0-1.469-.043-2-.045-.546-.14-1.026-.366-1.47a3.75 3.75 0 00-1.639-1.64c-.444-.226-.924-.32-1.47-.365-.531-.043-1.187-.043-2-.043H6.8zm-1.8 3a.75.75 0 000 1.5h1a.75.75 0 000-1.5H5zm4 5h-.025c-.445 0-.816 0-1.12.02a2.822 2.822 0 00-.907.19 2.75 2.75 0 00-1.489 1.488c-.12.29-.167.59-.188.907-.021.304-.021.675-.02 1.12v.05c-.001.445-.001.816.02 1.12.021.317.068.617.188.907a2.75 2.75 0 001.489 1.489c.29.12.59.167.907.188.304.021.675.021 1.12.021H15.025c.445 0 .816 0 1.12-.02.317-.022.617-.069.907-.19a2.75 2.75 0 001.489-1.488c.12-.29.167-.59.188-.907.021-.304.021-.675.021-1.12v-.05c0-.445 0-.816-.02-1.12a2.822 2.822 0 00-.19-.907 2.75 2.75 0 00-1.488-1.489c-.29-.12-.59-.167-.907-.188-.304-.021-.675-.021-1.12-.021H9z"/>
</svg>
