<svg xmlns="http://www.w3.org/2000/svg" width="24" height="24" fill="currentColor" viewBox="0 0 24 24">
  <path fill-rule="evenodd" d="M19 1.25a3.75 3.75 0 100 7.5 3.75 3.75 0 000-7.5zm-9.857 1h-.174c-1.828 0-2.944 0-3.868.323A5.75 5.75 0 001.573 6.1c-.324.924-.323 2.04-.323 3.868V12.551c0 2.072 0 3.695.155 4.973.159 1.306.49 2.351 1.223 3.21.195.23.409.443.638.638.859.734 1.904 1.064 3.21 1.223 1.278.155 2.901.155 4.973.155H14.03c1.828 0 2.944 0 3.868-.323a5.75 5.75 0 003.528-3.528c.323-.924.323-2.04.323-3.868V13.8a2.55 2.55 0 00-2.55-2.55 6.45 6.45 0 01-6.45-6.45 2.55 2.55 0 00-2.55-2.55H9.143z"/>
</svg>
