<svg xmlns="http://www.w3.org/2000/svg" width="24" height="24" fill="currentColor" viewBox="0 0 24 24">
  <path fill-rule="evenodd" d="M10.467.861a5.75 5.75 0 013.066 0c.606.168 1.154.464 1.759.88.592.406 1.279.955 2.151 1.653l.023.018 2 1.6.09.072c1.017.813 1.642 1.314 2.1 1.944a5.75 5.75 0 01.888 1.848c.206.75.206 1.552.206 2.854v2.304c0 1.371 0 2.447-.07 3.311-.072.88-.221 1.607-.557 2.265a5.75 5.75 0 01-2.513 2.513c-.658.336-1.385.485-2.265.556-.864.071-1.94.071-3.311.071H9.966c-1.371 0-2.447 0-3.311-.07-.88-.072-1.607-.221-2.265-.557a5.75 5.75 0 01-2.513-2.513c-.336-.658-.484-1.385-.556-2.265-.071-.864-.071-1.94-.071-3.311V11.73c0-1.302 0-2.103.206-2.854a5.75 5.75 0 01.889-1.848c.456-.63 1.082-1.13 2.099-1.944l.09-.072 2-1.6.023-.018c.872-.698 1.559-1.247 2.151-1.654.605-.415 1.153-.711 1.759-.879zM9 15.25a.75.75 0 000 1.5h6a.75.75 0 000-1.5H9z"/>
</svg>
