<svg xmlns="http://www.w3.org/2000/svg" width="24" height="24" fill="currentColor" viewBox="0 0 24 24">
  <path fill-rule="evenodd" d="M11.6 1.25h-.034c-1.651 0-2.937 0-3.968.084-1.047.086-1.897.262-2.662.652a6.75 6.75 0 00-2.95 2.95c-.39.765-.566 1.615-.652 2.662-.084 1.031-.084 2.317-.084 3.968V12.434c0 1.651 0 2.937.084 3.968.086 1.047.262 1.897.652 2.662a6.75 6.75 0 002.95 2.95c.765.39 1.615.566 2.662.652 1.031.084 2.316.084 3.968.084H12.434c1.652 0 2.937 0 3.968-.084 1.047-.086 1.897-.262 2.662-.652a6.75 6.75 0 002.95-2.95c.39-.765.566-1.615.652-2.662.084-1.031.084-2.317.084-3.968V11.566c0-1.652 0-2.937-.084-3.968-.086-1.047-.262-1.897-.652-2.662a6.75 6.75 0 00-2.95-2.95c-.765-.39-1.615-.566-2.662-.652-1.031-.084-2.317-.084-3.968-.084H11.6zm-1.025 5.004a.75.75 0 01.671.82L11.03 9.25h2.492l.233-2.325a.75.75 0 011.492.15L15.03 9.25H17a.75.75 0 010 1.5h-2.121l-.25 2.5h1.746a.75.75 0 010 1.5h-1.896l-.233 2.325a.75.75 0 01-1.492-.15l.217-2.175H10.48l-.233 2.325a.75.75 0 01-1.492-.15l.217-2.175H7a.75.75 0 010-1.5h2.121l.25-2.5H7.625a.75.75 0 010-1.5h1.896l.233-2.325a.75.75 0 01.82-.671zm.054 6.996h2.492l.25-2.5H10.88l-.25 2.5z"/>
</svg>
