<svg xmlns="http://www.w3.org/2000/svg" width="24" height="24" fill="currentColor" viewBox="0 0 24 24">
  <path fill-rule="evenodd" d="M12 1.25h-.052c-.899 0-1.648 0-2.242.08-.628.084-1.195.27-1.65.725-.509.509-.681 1.156-.752 1.872a.75.75 0 001.493.146c.058-.584.174-.812.32-.957.13-.13.327-.237.788-.3.483-.064 1.131-.066 2.095-.066.964 0 1.612.002 2.095.067.461.062.659.169.789.3.13.13.237.327.3.788.062.462.066 1.074.066 1.968a8.726 8.726 0 00-4.343-.555 8.735 8.735 0 00-.547.086.75.75 0 10.28 1.473A7.232 7.232 0 0112 6.75a7.25 7.25 0 017.123 8.61.75.75 0 001.473.28A8.72 8.72 0 0020.75 14a8.743 8.743 0 00-4-7.35V5.948c0-.899 0-1.648-.08-2.242-.084-.628-.27-1.195-.726-1.65-.455-.456-1.022-.642-1.65-.726-.594-.08-1.344-.08-2.242-.08H12zM2.47 2.47a.75.75 0 011.06 0L7.962 6.9 19.1 18.038l3.431 3.432a.75.75 0 11-1.06 1.06l-2.83-2.83A8.75 8.75 0 116.3 7.36L2.47 3.53a.75.75 0 010-1.061zM11.25 15v-2.69l1.5 1.5V15a.75.75 0 01-1.5 0z"/>
</svg>
