<svg xmlns="http://www.w3.org/2000/svg" width="24" height="24" fill="currentColor" viewBox="0 0 24 24">
  <path fill-rule="evenodd" d="M8.367 2.25H15.633c1.092 0 1.958 0 2.655.057.714.058 1.317.18 1.869.46a4.75 4.75 0 012.075 2.077c.281.55.403 1.154.461 1.868.057.697.057 1.563.057 2.655v3.919a.75.75 0 01-1.5 0v-3.97c0-.537 0-.806-.109-1.02a1.013 1.013 0 00-.437-.437c-.214-.109-.486-.109-1.03-.109H4.326c-.544 0-.816 0-1.03.109a1.013 1.013 0 00-.437.437c-.109.214-.109.483-.109 1.02V14.6c0 1.133 0 1.937.052 2.566.05.62.147 1.005.302 1.31a3.25 3.25 0 001.42 1.42c.305.155.69.251 1.31.302.63.051 1.434.052 2.566.052H14a.75.75 0 010 1.5H8.367c-1.092 0-1.958 0-2.655-.057-.714-.058-1.317-.18-1.868-.46a4.75 4.75 0 01-2.076-2.076c-.281-.552-.403-1.155-.461-1.869-.057-.697-.057-1.563-.057-2.655V9.367c0-1.092 0-1.958.057-2.655.058-.714.18-1.317.46-1.868a4.75 4.75 0 012.077-2.076c.55-.281 1.154-.403 1.868-.461.697-.057 1.563-.057 2.655-.057zM20 15.75a.75.75 0 01.75.75v1.75h1.75a.75.75 0 010 1.5h-1.75v1.75a.75.75 0 01-1.5 0v-1.75H17.5a.75.75 0 010-1.5h1.75V16.5a.75.75 0 01.75-.75zm-14-5.5a.75.75 0 000 1.5h3a.75.75 0 000-1.5H6z"/>
</svg>
