<svg xmlns="http://www.w3.org/2000/svg" width="24" height="24" fill="currentColor" viewBox="0 0 24 24">
  <path fill-rule="evenodd" d="M17.779 1.364a2.75 2.75 0 012.442 0c.407.202.763.559 1.224 1.02l.085.086.086.086c.461.46.818.816 1.02 1.223a2.75 2.75 0 010 2.442c-.202.407-.559.763-1.02 1.223l-.086.086-1.524 1.525c.392.484.683.95.855 1.477a4.75 4.75 0 010 2.936c-.192.588-.532 1.1-.996 1.647-.453.533-1.065 1.145-1.837 1.917l-.023.024-2.95 2.949-.022.023c-.773.772-1.385 1.384-1.918 1.837-.546.464-1.059.805-1.647.996a4.75 4.75 0 01-2.936 0c-.588-.192-1.101-.532-1.647-.996-.533-.453-1.145-1.064-1.917-1.837l-.024-.023-.949-.95-.023-.023c-.773-.772-1.385-1.384-1.837-1.917-.464-.546-.805-1.059-.996-1.647a4.75 4.75 0 010-2.936c.191-.588.532-1.101.996-1.647.453-.533 1.065-1.145 1.837-1.918l.023-.023 2.95-2.949.023-.023c.772-.773 1.384-1.385 1.917-1.838.546-.463 1.059-.804 1.647-.995a4.75 4.75 0 012.936 0c.527.172.993.463 1.477.855L16.47 2.47l.085-.086c.46-.461.817-.818 1.224-1.02zm2.69 5.106l-1.473 1.473c-.288-.296-.61-.618-.967-.975l-.024-.024-.95-.949-.023-.023c-.356-.357-.679-.68-.975-.968L17.53 3.53c.588-.588.759-.744.915-.822a1.25 1.25 0 011.11 0c.156.078.327.234.915.822.588.588.744.759.822.915.173.35.173.76 0 1.11-.078.156-.234.327-.822.915zm-12.939 7a.75.75 0 00-1.06 1.06l3 3a.75.75 0 101.06-1.06l-3-3z"/>
</svg>
