<svg xmlns="http://www.w3.org/2000/svg" width="24" height="24" fill="currentColor" viewBox="0 0 24 24">
  <path fill-rule="evenodd" d="M11.423.25h-.027c-.444 0-.818 0-1.127.023a2.78 2.78 0 00-.93.207 2.75 2.75 0 00-1.154.946 2.78 2.78 0 00-.386.872c-.083.298-.157.665-.244 1.101l-.005.026-.01.052c-.413.09-.792.217-1.15.4A5.75 5.75 0 003.877 6.39c-.336.658-.484 1.385-.556 2.265-.071.864-.071 1.94-.071 3.311v.068c0 1.371 0 2.447.07 3.311.073.88.221 1.607.557 2.265a5.75 5.75 0 002.513 2.513c.358.183.737.31 1.15.4l.01.052.005.026c.087.436.16.803.244 1.102.088.314.199.603.386.871.29.416.689.743 1.153.946.3.13.605.183.93.207.31.023.684.023 1.128.023H12.604c.444 0 .818 0 1.127-.023a2.78 2.78 0 00.93-.207 2.75 2.75 0 001.154-.946c.187-.268.298-.557.386-.872.083-.299.157-.665.244-1.101l.005-.026.01-.052c.413-.09.792-.217 1.15-.4a5.75 5.75 0 002.513-2.513c.336-.658.485-1.385.556-2.265.071-.864.071-1.94.071-3.311v-.068c0-1.371 0-2.447-.07-3.311-.072-.88-.221-1.607-.557-2.265a5.75 5.75 0 00-2.513-2.513 4.696 4.696 0 00-1.15-.4l-.01-.052-.005-.026c-.087-.436-.16-.803-.244-1.101a2.778 2.778 0 00-.386-.872A2.75 2.75 0 0014.662.48a2.78 2.78 0 00-.93-.207C13.421.25 13.047.25 12.603.25H11.423zM9.244 21.3a9.239 9.239 0 01-.136-.59c.78.04 1.716.04 2.858.04h.068c1.141 0 2.078 0 2.858-.04-.05.244-.092.433-.136.59-.064.23-.118.34-.17.415a1.25 1.25 0 01-.525.43c-.084.037-.203.069-.44.086-.248.018-.566.019-1.044.019h-1.154c-.478 0-.796 0-1.043-.019-.238-.018-.357-.049-.441-.086a1.25 1.25 0 01-.524-.43c-.053-.074-.107-.185-.17-.415zm5.648-18.01a9.235 9.235 0 00-.136-.59c-.064-.23-.118-.34-.17-.415a1.25 1.25 0 00-.525-.43c-.084-.037-.203-.068-.44-.086a15.666 15.666 0 00-1.044-.019h-1.154c-.478 0-.796 0-1.043.019-.238.018-.357.05-.441.086a1.25 1.25 0 00-.524.43c-.053.074-.107.185-.17.415a9.24 9.24 0 00-.137.59c.78-.04 1.717-.04 2.858-.04h.068c1.141 0 2.078 0 2.858.04zM12.75 10a.75.75 0 00-1.5 0v2c0 .25.125.485.334.624l1.5 1a.75.75 0 10.832-1.248l-1.166-.777V10z"/>
</svg>
