<svg xmlns="http://www.w3.org/2000/svg" width="24" height="24" fill="currentColor" viewBox="0 0 24 24">
  <path fill-rule="evenodd" d="M11.6 1.25h-.034c-1.651 0-2.937 0-3.968.084-1.047.086-1.897.262-2.662.652a6.75 6.75 0 00-2.95 2.95c-.39.765-.566 1.615-.652 2.662-.084 1.031-.084 2.317-.084 3.968V12.434c0 1.651 0 2.937.084 3.968.086 1.047.262 1.897.652 2.662a6.75 6.75 0 002.95 2.95c.765.39 1.615.566 2.662.652 1.031.084 2.317.084 3.968.084H12.434c1.652 0 2.937 0 3.968-.084 1.047-.086 1.897-.262 2.662-.652a6.75 6.75 0 002.95-2.95c.39-.765.566-1.615.652-2.662.084-1.031.084-2.317.084-3.968V11.566c0-1.651 0-2.937-.084-3.968-.086-1.047-.262-1.897-.652-2.662a6.75 6.75 0 00-2.95-2.95c-.765-.39-1.615-.566-2.662-.652-1.031-.084-2.317-.084-3.968-.084H11.6zM7.086 11.354l-.02-.036c-.324-.582-.486-.873-.503-1.353-.011-.322.16-.921.34-1.189.268-.398.454-.502.826-.709C8.724 7.515 10.148 7 12 7c1.852 0 3.276.515 4.27 1.067.373.207.56.311.827.71.18.267.351.866.34 1.188-.017.48-.179.77-.502 1.353l-.02.036c-.333.6-.5.899-.736 1.117-.21.193-.458.339-.728.428-.306.101-.649.101-1.334.101h-1.592l-1.87-3.364a.75.75 0 10-1.31.728L10.808 13h-.926c-.685 0-1.028 0-1.334-.101a1.999 1.999 0 01-.728-.428c-.236-.218-.403-.518-.735-1.117zM10 16.25a.75.75 0 000 1.5h4a.75.75 0 000-1.5h-4z"/>
</svg>
