<svg xmlns="http://www.w3.org/2000/svg" width="24" height="24" fill="currentColor" viewBox="0 0 24 24">
  <path fill-rule="evenodd" d="M13.25 1.27c-.384-.02-.826-.02-1.38-.02h-.122c-1.27 0-2.265 0-3.067.06-.816.063-1.493.19-2.111.479a5.75 5.75 0 00-2.781 2.78c-.289.62-.416 1.296-.478 2.112-.061.802-.061 1.797-.061 3.066v1.503H2a.75.75 0 000 1.5h20a.75.75 0 000-1.5h-1.25v-.831c0-.665 0-1.202-.027-1.669h-2.775c-.899 0-1.648 0-2.242-.08-.628-.084-1.195-.27-1.65-.725-.456-.456-.642-1.023-.726-1.65-.08-.595-.08-1.345-.08-2.243V1.27zm7.204 5.98a5.753 5.753 0 00-.43-.974c-.39-.704-.97-1.283-1.911-2.224l-.083-.082-.222-.222-.064-.065c-.74-.739-1.194-1.194-1.726-1.533a5.75 5.75 0 00-1.268-.604V4c0 .964.002 1.612.066 2.095.063.461.17.659.3.789.13.13.328.237.79.3.482.064 1.13.066 2.094.066h2.454zM6 15.25a.75.75 0 01.75.75v3a.75.75 0 01-1.5 0v-3a.75.75 0 01.75-.75zm4.75.75a.75.75 0 00-1.5 0v6a.75.75 0 001.5 0v-6zm3.25-.75a.75.75 0 01.75.75v6a.75.75 0 01-1.5 0v-6a.75.75 0 01.75-.75zm4.75.75a.75.75 0 00-1.5 0v3a.75.75 0 001.5 0v-3z"/>
</svg>
