<svg xmlns="http://www.w3.org/2000/svg" width="24" height="24" fill="currentColor" viewBox="0 0 24 24">
  <path fill-rule="evenodd" d="M9.367 2.25H18.5a3.25 3.25 0 013.25 3.25V6a.75.75 0 01-.75.75h-2.6c-1.133 0-1.937 0-2.566.052-.62.05-1.005.147-1.31.302a3.25 3.25 0 00-1.42 1.42c-.155.305-.251.69-.302 1.31-.051.63-.052 1.434-.052 2.566V14a.75.75 0 01-.75.75H3a.75.75 0 01-.75-.75V9.367c0-1.092 0-1.958.057-2.655.058-.714.18-1.317.46-1.868a4.75 4.75 0 012.077-2.076c.55-.281 1.154-.403 1.868-.461.697-.057 1.563-.057 2.655-.057zm-7.923 14c-.66 0-1.194.535-1.194 1.194a4.306 4.306 0 004.306 4.306H12a.75.75 0 00.75-.75v-4a.75.75 0 00-.75-.75H1.444zm16.726-8H19.83c.535 0 .98 0 1.345.03.38.03.736.098 1.073.27a2.75 2.75 0 011.202 1.202c.172.337.24.693.27 1.073.03.365.03.81.03 1.345v5.66c0 .535 0 .98-.03 1.345-.03.38-.098.736-.27 1.073a2.751 2.751 0 01-1.201 1.202c-.338.172-.694.24-1.074.27-.365.03-.81.03-1.345.03H18.17c-.535 0-.98 0-1.345-.03-.38-.03-.736-.098-1.073-.27a2.751 2.751 0 01-1.202-1.201c-.172-.338-.24-.694-.27-1.074-.03-.365-.03-.81-.03-1.345v-5.66c0-.535 0-.98.03-1.345.03-.38.098-.736.27-1.073A2.75 2.75 0 0115.75 8.55c.338-.172.694-.24 1.074-.27.365-.03.81-.03 1.345-.03zM19 13a1 1 0 100-2 1 1 0 000 2z"/>
</svg>
