<svg xmlns="http://www.w3.org/2000/svg" width="24" height="24" fill="currentColor" viewBox="0 0 24 24">
  <path fill-rule="evenodd" d="M14 1.75c.953 0 1.356.002 1.685.045a5.25 5.25 0 014.52 4.52c.043.329.045.732.045 1.685v11a.75.75 0 001.5 0V7.93c0-.862 0-1.372-.058-1.811a6.75 6.75 0 00-5.81-5.811C15.441.25 14.931.25 14.07.25H13a6.745 6.745 0 00-5.677 3.097c-.548.07-1.031.192-1.48.42a4.75 4.75 0 00-2.075 2.077c-.281.55-.403 1.154-.461 1.868-.057.697-.057 1.563-.057 2.655V22a.75.75 0 001.122.651l2.237-1.278c1.78-1.017 2.53-1.436 3.309-1.6a5.25 5.25 0 012.164 0c.78.165 1.53.583 3.309 1.6l2.237 1.278A.75.75 0 0018.75 22V10.367c0-1.092 0-1.958-.057-2.655-.058-.714-.18-1.317-.46-1.868a4.75 4.75 0 00-2.076-2.076c-.552-.281-1.155-.403-1.869-.461-.697-.057-1.563-.057-2.655-.057H10.367c-.374 0-.72 0-1.044.002A5.233 5.233 0 0113 1.75h1z"/>
</svg>
