<svg xmlns="http://www.w3.org/2000/svg" width="24" height="24" fill="currentColor" viewBox="0 0 24 24">
  <path fill-rule="evenodd" d="M10 1.25h-.034c-1.371 0-2.447 0-3.311.07-.88.073-1.607.221-2.265.557A5.75 5.75 0 001.877 4.39c-.336.658-.484 1.385-.556 2.265-.071.864-.071 1.94-.071 3.311v4.068c0 1.371 0 2.447.07 3.311.073.88.221 1.607.557 2.265a5.75 5.75 0 002.513 2.513c.658.336 1.385.485 2.265.556.864.071 1.94.071 3.311.071h4.068c1.371 0 2.447 0 3.311-.07.88-.072 1.607-.221 2.265-.557a5.75 5.75 0 002.513-2.513c.336-.658.485-1.385.556-2.265.071-.864.071-1.94.071-3.311V9.966c0-1.371 0-2.447-.07-3.311-.072-.88-.221-1.607-.557-2.265a5.75 5.75 0 00-2.513-2.513c-.658-.336-1.385-.484-2.265-.556-.864-.071-1.94-.071-3.311-.071H10zm4.5 8.5c.476 0 .796 0 1.043.017.241.017.358.046.435.078.307.127.55.37.677.677.032.077.061.194.078.435.017.247.017.567.017 1.043s0 .796-.017 1.043c-.017.241-.046.358-.078.435a1.25 1.25 0 01-.677.677c-.077.032-.194.061-.435.078-.247.017-.567.017-1.043.017h-.25v-4.5h.25zm2.052-1.29c-.29-.121-.59-.168-.907-.19-.304-.02-.675-.02-1.12-.02H13.5a.75.75 0 00-.75.75v6c0 .414.336.75.75.75h1.025c.445 0 .816 0 1.12-.02.318-.022.617-.069.907-.19a2.75 2.75 0 001.489-1.488c.12-.29.167-.59.188-.907.021-.304.021-.675.021-1.12v-.05c0-.445 0-.816-.02-1.12a2.821 2.821 0 00-.19-.907 2.75 2.75 0 00-1.488-1.489zM7 8.25a.75.75 0 01.75.75v2.25h2.5V9a.75.75 0 011.5 0v6a.75.75 0 01-1.5 0v-2.25h-2.5V15a.75.75 0 01-1.5 0V9A.75.75 0 017 8.25z"/>
</svg>
