<svg xmlns="http://www.w3.org/2000/svg" width="24" height="24" fill="currentColor" viewBox="0 0 24 24">
  <path fill-rule="evenodd" d="M10 1.25h-.034c-1.371 0-2.447 0-3.311.07-.88.073-1.607.221-2.265.557A5.75 5.75 0 001.877 4.39c-.336.658-.484 1.385-.556 2.265a.555.555 0 00.559.595h20.24a.555.555 0 00.56-.595c-.072-.88-.221-1.607-.557-2.265a5.75 5.75 0 00-2.513-2.513c-.658-.336-1.385-.484-2.265-.556-.864-.071-1.94-.071-3.311-.071H10zM1.25 9.965c0-.202 0-.302.015-.389.073-.412.399-.738.811-.81.087-.016.188-.016.391-.016h19.065c.204 0 .306 0 .392.015.412.073.738.399.81.811.016.086.016.187.016.39v4.068c0 .203 0 .304-.015.39a1.003 1.003 0 01-.81.81c-.087.016-.19.016-.393.016H2.469c-.205 0-.307 0-.394-.015a1.003 1.003 0 01-.81-.81c-.015-.087-.015-.188-.015-.391V9.965zm.63 6.785a.555.555 0 00-.56.595c.073.88.221 1.607.557 2.265a5.75 5.75 0 002.513 2.513c.658.336 1.385.485 2.265.556.864.071 1.94.071 3.311.071h4.068c1.371 0 2.447 0 3.311-.07.88-.072 1.607-.221 2.265-.557a5.75 5.75 0 002.513-2.513c.336-.658.485-1.385.556-2.265a.555.555 0 00-.56-.595H1.88z"/>
</svg>
