<svg xmlns="http://www.w3.org/2000/svg" width="24" height="24" fill="currentColor" viewBox="0 0 24 24">
  <path fill-rule="evenodd" d="M13.25 5a3.75 3.75 0 117.5 0 3.75 3.75 0 01-7.5 0zm-.254 7.828l1.507 2.345c.303-.46.576-.852.835-1.167.428-.522.906-.952 1.547-1.099a2.752 2.752 0 011.23 0c.64.147 1.116.573 1.543 1.093.418.508.873 1.217 1.432 2.086l.026.04.27.421.023.035c.53.825.958 1.491 1.24 2.04.282.55.486 1.105.42 1.685a2.75 2.75 0 01-.996 1.826c-.453.368-1.03.498-1.646.557-.613.06-1.405.06-2.386.06H7.261c-1.561 0-2.818 0-3.753-.138-.95-.141-1.801-.456-2.258-1.294-.458-.838-.263-1.725.133-2.6.388-.86 1.068-1.918 1.912-3.231l.036-.056 1.673-2.603.035-.053c.728-1.133 1.32-2.055 1.873-2.686.569-.651 1.22-1.14 2.088-1.14.868 0 1.519.489 2.088 1.14.552.63 1.145 1.553 1.873 2.686l.035.053z"/>
</svg>
