<svg xmlns="http://www.w3.org/2000/svg" width="24" height="24" fill="currentColor" viewBox="0 0 24 24">
  <path fill-rule="evenodd" d="M2.25 10.5c0-5.47 4.393-9.25 9.75-9.25s9.75 3.78 9.75 9.25c0 4.17-1.866 7.233-3.984 9.239a13.29 13.29 0 01-3.183 2.24c-.976.484-1.912.77-2.583.77-.67 0-1.607-.286-2.583-.77a13.29 13.29 0 01-3.183-2.24C4.116 17.733 2.25 14.671 2.25 10.5zm7.78-1.53a.75.75 0 10-1.06 1.06L10.94 12l-1.97 1.97a.75.75 0 101.06 1.06L12 13.06l1.97 1.97a.75.75 0 101.06-1.06L13.06 12l1.97-1.97a.75.75 0 10-1.06-1.06L12 10.94l-1.97-1.97z"/>
</svg>
