<svg xmlns="http://www.w3.org/2000/svg" width="24" height="24" fill="currentColor" viewBox="0 0 24 24">
  <path fill-rule="evenodd" d="M12.037 4.06l-.035-.02c-1.552-.918-2.762-1.633-3.747-2.1-.988-.467-1.86-.742-2.718-.658a4.75 4.75 0 00-3.371 1.924c-.509.695-.717 1.587-.816 2.675-.1 1.085-.1 2.491-.1 4.294v3.65c0 1.803 0 3.209.1 4.294.1 1.088.307 1.98.816 2.675a4.75 4.75 0 003.37 1.924c.858.084 1.731-.19 2.72-.659.984-.466 2.194-1.181 3.746-2.099l.035-.02 3.02-1.784.035-.02v-.001c1.505-.89 2.68-1.584 3.54-2.205.865-.623 1.511-1.24 1.852-2.016a4.75 4.75 0 000-3.829c-.34-.774-.987-1.392-1.852-2.016-.86-.62-2.035-1.315-3.54-2.204l-.035-.02-3.02-1.785z"/>
</svg>
