<svg xmlns="http://www.w3.org/2000/svg" width="24" height="24" fill="currentColor" viewBox="0 0 24 24">
  <path fill-rule="evenodd" d="M9.966 1.25h4.068c1.371 0 2.447 0 3.311.07.88.073 1.607.221 2.265.557a5.75 5.75 0 012.513 2.513c.336.658.485 1.385.556 2.265.071.864.071 1.94.071 3.311v4.068c0 1.371 0 2.447-.07 3.311-.072.88-.221 1.607-.557 2.265a5.75 5.75 0 01-2.513 2.513c-.658.336-1.385.485-2.265.556-.864.071-1.94.071-3.311.071H9.966c-1.371 0-2.447 0-3.311-.07-.88-.072-1.607-.221-2.265-.557a5.75 5.75 0 01-2.513-2.513c-.336-.658-.484-1.385-.556-2.265-.071-.864-.071-1.94-.071-3.311V9.966c0-1.371 0-2.447.07-3.311.073-.88.221-1.607.557-2.265A5.75 5.75 0 014.39 1.877c.658-.336 1.385-.484 2.265-.556.864-.071 1.94-.071 3.311-.071zm-1.243 9.966l2.57-2.57a4.753 4.753 0 004.061 4.06l-2.57 2.57-.044.045c-.425.425-.699.698-1.013.924-.278.2-.577.37-.891.505-.355.153-.73.247-1.313.392l-.06.015-2.281.57a.75.75 0 01-.91-.909l.57-2.28.016-.06c.145-.583.239-.959.392-1.314.136-.314.305-.613.505-.892.226-.314.5-.587.924-1.012l.044-.044zm8.307-.186l-.22.22H16A3.25 3.25 0 0112.75 8v-.81l.22-.22.012-.013c.068-.067.12-.12.168-.164a2.75 2.75 0 013.867.164l.013.013.013.012c.067.068.12.12.163.168a2.75 2.75 0 01-.163 3.868l-.013.012z"/>
</svg>
