<svg xmlns="http://www.w3.org/2000/svg" width="24" height="24" fill="currentColor" viewBox="0 0 24 24">
  <path fill-rule="evenodd" d="M16.03 1.97a.75.75 0 00-1.06 1.06l.5.5 1.08 1.08c1.395 1.396 2.409 2.41 3.142 3.274.728.858 1.136 1.517 1.353 2.185a6.251 6.251 0 010 3.862c-.217.668-.625 1.328-1.353 2.185-.733.864-1.747 1.878-3.142 3.273l-1.58 1.58-.5.5a.75.75 0 101.06 1.061l.5-.5 1.58-1.58.025-.024c1.366-1.366 2.423-2.423 3.2-3.34.789-.928 1.334-1.76 1.636-2.691a7.75 7.75 0 000-4.79c-.302-.93-.847-1.763-1.635-2.692-.778-.916-1.835-1.973-3.2-3.339h-.001l-.024-.024-1.08-1.08-.5-.5zm-6.587.28c.889 0 1.461 0 2.009.131.485.117.948.309 1.373.569.48.294.885.7 1.514 1.328l.066.066 2.6 2.6.023.024c.773.772 1.385 1.384 1.838 1.917.463.546.803 1.059.995 1.647a4.75 4.75 0 010 2.936c-.192.588-.532 1.101-.995 1.647-.453.533-1.066 1.145-1.838 1.917l-.023.024-.95.949-.023.023c-.772.773-1.384 1.385-1.917 1.837-.546.464-1.059.805-1.647.996-.954.31-1.982.31-2.936 0-.588-.192-1.1-.532-1.647-.996-.533-.452-1.145-1.064-1.917-1.837l-.024-.023-2.6-2.6-.066-.066c-.629-.629-1.034-1.034-1.328-1.514a4.75 4.75 0 01-.569-1.373c-.131-.548-.131-1.12-.131-2.01V9.368c0-1.092 0-1.958.057-2.655.058-.714.18-1.317.46-1.868a4.75 4.75 0 012.077-2.076c.55-.281 1.154-.403 1.868-.461.697-.057 1.563-.057 2.655-.057h1.076zM9 12a2 2 0 100-4 2 2 0 000 4z"/>
</svg>
