<svg xmlns="http://www.w3.org/2000/svg" width="24" height="24" fill="currentColor" viewBox="0 0 24 24">
  <path fill-rule="evenodd" d="M12 2.75a9.244 9.244 0 00-7.854 4.36l2.814 3.68 5.895-8.001A9.366 9.366 0 0012 2.75zm2.496.34l-3.064 4.16H19.939a9.27 9.27 0 00-5.443-4.16zm6.108 12.312L15.518 8.75h5.145A9.23 9.23 0 0121.25 12a9.227 9.227 0 01-.646 3.402zM10.008 16.75h2.56l-3.064 4.16a9.27 9.27 0 01-5.443-4.16h5.947zM12 21.25c-.288 0-.574-.013-.855-.039l5.895-8 2.814 3.678A9.244 9.244 0 0112 21.25zM2.75 12c0-1.201.229-2.349.646-3.402l5.086 6.652H3.337A9.23 9.23 0 012.75 12zm-1.5 0C1.25 6.063 6.063 1.25 12 1.25S22.75 6.063 22.75 12 17.937 22.75 12 22.75 1.25 17.937 1.25 12z"/>
</svg>
