<svg xmlns="http://www.w3.org/2000/svg" width="24" height="24" fill="currentColor" viewBox="0 0 24 24">
  <path fill-rule="evenodd" d="M8.75 1a.75.75 0 00-1.5 0v.384c-1.023.115-1.869.334-2.625.77a6.75 6.75 0 00-2.47 2.471c-.48.83-.696 1.767-.801 2.927-.104 1.143-.104 2.573-.104 4.41v.076c0 1.837 0 3.267.104 4.41.105 1.16.322 2.098.8 2.927a6.75 6.75 0 002.471 2.47c.83.48 1.767.696 2.927.802 1.143.103 2.573.103 4.41.103h.076c1.837 0 3.267 0 4.41-.104 1.16-.105 2.098-.322 2.927-.8a6.752 6.752 0 002.47-2.471c.48-.83.696-1.767.802-2.927.103-1.143.103-2.573.103-4.41v-.076c0-1.837 0-3.267-.104-4.41-.105-1.16-.322-2.098-.8-2.927a6.75 6.75 0 00-2.471-2.47c-.756-.437-1.602-.656-2.625-.77V1a.75.75 0 00-1.5 0v.282c-.909-.032-1.967-.032-3.212-.032h-.076c-1.245 0-2.304 0-3.212.032V1zm-2.5 7A.75.75 0 017 7.25h10a.75.75 0 010 1.5H7A.75.75 0 016.25 8z"/>
</svg>
