<svg xmlns="http://www.w3.org/2000/svg" width="24" height="24" fill="currentColor" viewBox="0 0 24 24">
  <path fill-rule="evenodd" d="M10 1.25h-.034c-1.371 0-2.447 0-3.311.07-.88.073-1.607.221-2.265.557A5.75 5.75 0 001.877 4.39c-.336.658-.484 1.385-.556 2.265-.071.864-.071 1.94-.071 3.311v4.068c0 1.371 0 2.447.07 3.311.073.88.221 1.607.557 2.265a5.75 5.75 0 002.513 2.513c.658.336 1.385.485 2.265.556.864.071 1.94.071 3.311.071h4.068c1.371 0 2.447 0 3.311-.07.88-.072 1.607-.221 2.265-.557a5.75 5.75 0 002.513-2.513c.336-.658.485-1.385.556-2.265.071-.864.071-1.94.071-3.311V9.966c0-1.371 0-2.447-.07-3.311-.072-.88-.221-1.607-.557-2.265a5.75 5.75 0 00-2.513-2.513c-.658-.336-1.385-.484-2.265-.556-.864-.071-1.94-.071-3.311-.071H10zM5.25 18a.75.75 0 01.75-.75h12a.75.75 0 010 1.5H6a.75.75 0 01-.75-.75zM14 9.25a.75.75 0 000 1.5h4a.75.75 0 000-1.5h-4zM13.25 6a.75.75 0 01.75-.75h4a.75.75 0 010 1.5h-4a.75.75 0 01-.75-.75zM6 13.25a.75.75 0 000 1.5h12a.75.75 0 000-1.5H6zm1.76-8h-.027c-.285 0-.542 0-.757.017-.23.02-.475.062-.716.185a1.85 1.85 0 00-.808.808 1.877 1.877 0 00-.185.716 9.922 9.922 0 00-.017.757v.534c0 .285 0 .542.017.757.02.23.062.475.185.716.177.348.46.631.808.808.241.123.487.166.716.184.215.018.472.018.757.018h.534c.285 0 .542 0 .757-.018.23-.018.475-.06.716-.184a1.85 1.85 0 00.808-.808c.123-.241.166-.487.184-.716.018-.215.018-.472.018-.757v-.534c0-.285 0-.542-.018-.757a1.878 1.878 0 00-.184-.716 1.85 1.85 0 00-.808-.808 1.877 1.877 0 00-.716-.185 9.922 9.922 0 00-.757-.017H7.76z"/>
</svg>
