<svg xmlns="http://www.w3.org/2000/svg" width="24" height="24" fill="currentColor" viewBox="0 0 24 24">
  <path fill-rule="evenodd" d="M12.876.804a4.75 4.75 0 00-1.752 0c-.655.122-1.268.43-2.22.906l-.102.05L5.39 3.467l-.035.017c-.892.446-1.608.804-2.134 1.13-.524.325-.988.691-1.233 1.208a2.75 2.75 0 000 2.356c.245.517.709.883 1.233 1.207.526.327 1.242.685 2.134 1.13l.035.018 3.413 1.707.102.05c.952.477 1.565.784 2.22.906a4.75 4.75 0 001.752 0c.655-.123 1.268-.43 2.22-.906l.102-.05 3.413-1.707.035-.018c.892-.445 1.608-.803 2.134-1.13.524-.324.988-.69 1.233-1.207a2.75 2.75 0 000-2.356c-.245-.517-.709-.883-1.233-1.207-.526-.327-1.242-.685-2.134-1.13l-.035-.018-3.413-1.707-.102-.05c-.952-.477-1.565-.784-2.22-.906zM2.336 12.329a.75.75 0 10-.671 1.342l5.706 2.853.112.056c1.467.734 2.343 1.172 3.272 1.346a6.747 6.747 0 002.49 0c.93-.174 1.805-.612 3.272-1.346l.112-.056 5.706-2.853a.75.75 0 10-.67-1.342l-5.707 2.854c-1.613.806-2.292 1.138-2.99 1.269-.64.12-1.296.12-1.936 0-.698-.131-1.377-.463-2.99-1.27L2.335 12.33zm0 5a.75.75 0 10-.671 1.342l5.706 2.853.112.056c1.467.734 2.343 1.172 3.272 1.346a6.747 6.747 0 002.49 0c.93-.174 1.805-.612 3.272-1.346l.112-.056 5.706-2.853a.75.75 0 10-.67-1.342l-5.707 2.854c-1.613.806-2.292 1.138-2.99 1.269-.64.12-1.296.12-1.936 0-.698-.131-1.377-.463-2.99-1.27L2.335 17.33z"/>
</svg>
