<svg xmlns="http://www.w3.org/2000/svg" width="24" height="24" fill="currentColor" viewBox="0 0 24 24">
  <path fill-rule="evenodd" d="M1.5 1.75l.185.001A2.25 2.25 0 013.79 3.424l.042.18.13.565 1.45 6.279.006.027c.148.641.268 1.162.398 1.582.134.436.293.812.541 1.152l.03.041H6a2.75 2.75 0 100 5.5h.55a2.75 2.75 0 104.9 0h3.1a2.75 2.75 0 104.9 0H21a.75.75 0 000-1.5H6a1.25 1.25 0 110-2.5h10.583c1.131 0 1.911.001 2.59-.273a3.75 3.75 0 001.522-1.133c.457-.57.68-1.318 1.005-2.401l.045-.148.738-2.46.01-.034c.2-.67.366-1.22.458-1.67.095-.464.135-.913.013-1.357a2.75 2.75 0 00-1.194-1.606c-.39-.244-.832-.335-1.303-.377-.46-.041-1.034-.041-1.733-.04H5.29A3.75 3.75 0 001.733.252c-.06-.003-.125-.003-.22-.003H1.5V1 .25H1a.75.75 0 000 1.5h.5z"/>
</svg>
