<svg xmlns="http://www.w3.org/2000/svg" width="24" height="24" fill="currentColor" viewBox="0 0 24 24">
  <path fill-rule="evenodd" d="M11.778 3.142a2.75 2.75 0 013.605 1.091c.234.406.3.963.333 1.548.034.618.034 1.444.034 2.501v7.436c0 1.057 0 1.883-.034 2.502-.033.585-.1 1.142-.333 1.547a2.75 2.75 0 01-3.605 1.091c-.419-.207-.783-.634-1.135-1.103-.371-.495-.83-1.183-1.416-2.062l-.014-.022c-.254-.38-.326-.482-.403-.558a1.25 1.25 0 00-.63-.338c-.107-.021-.23-.025-.688-.025h-.608c-.818 0-1.376 0-1.855-.128a3.75 3.75 0 01-2.651-2.651c-.128-.479-.128-1.037-.128-1.855v-.232c0-.818 0-1.376.128-1.854a3.75 3.75 0 012.651-2.652c.48-.128 1.037-.128 1.855-.128h.608c.458 0 .581-.003.687-.025a1.25 1.25 0 00.631-.338c.077-.076.149-.177.403-.558l.014-.021c.587-.88 1.045-1.568 1.416-2.063.352-.469.716-.895 1.135-1.103zm7.639 6.234a.75.75 0 00-.834 1.248c.373.248.667.75.667 1.376 0 .626-.294 1.128-.666 1.376a.75.75 0 00.833 1.248c.823-.55 1.333-1.54 1.333-2.624 0-1.083-.51-2.074-1.333-2.624z"/>
</svg>
