<svg xmlns="http://www.w3.org/2000/svg" width="24" height="24" fill="currentColor" viewBox="0 0 24 24">
  <path fill-rule="evenodd" d="M13.2 1.25h-.03c-.535 0-.98 0-1.345.03-.38.03-.736.098-1.073.27A2.75 2.75 0 009.55 2.752c-.172.337-.24.693-.27 1.073a8.13 8.13 0 00-.022.425h5.6c.51 0 .992 0 1.398.033.442.036.945.12 1.446.376a3.75 3.75 0 011.64 1.639c.255.501.339 1.004.375 1.446.033.406.033.888.033 1.397v5.601c.152-.004.294-.011.425-.022.38-.03.736-.098 1.073-.27a2.75 2.75 0 001.202-1.201c.172-.338.24-.694.27-1.074.03-.365.03-.81.03-1.344V5.17c0-.535 0-.98-.03-1.345-.03-.38-.098-.736-.27-1.073a2.75 2.75 0 00-1.202-1.202c-.337-.172-.694-.24-1.073-.27-.365-.03-.81-.03-1.345-.03H13.2zm-4.03 4h5.66c.535 0 .98 0 1.345.03.38.03.736.098 1.073.27a2.75 2.75 0 011.202 1.202c.172.337.24.693.27 1.073.03.365.03.81.03 1.344v5.661c0 .535 0 .98-.03 1.345-.03.38-.098.736-.27 1.073a2.75 2.75 0 01-1.202 1.202c-.337.172-.694.24-1.073.27-.131.011-.273.018-.425.022v-5.6c0-.51 0-.992-.033-1.398-.036-.442-.12-.945-.376-1.447a3.75 3.75 0 00-1.639-1.638c-.501-.256-1.004-.34-1.446-.376-.406-.033-.888-.033-1.398-.033h-5.6a8.13 8.13 0 01.022-.425c.03-.38.098-.736.27-1.073A2.75 2.75 0 016.75 5.55c.338-.172.694-.24 1.074-.27.364-.03.81-.03 1.344-.03zm-3.97 4h-.03c-.535 0-.98 0-1.345.03-.38.03-.736.098-1.074.27A2.75 2.75 0 001.55 10.75c-.172.338-.24.694-.27 1.074-.03.365-.03.81-.03 1.345v5.66c0 .535 0 .98.03 1.345.03.38.098.736.27 1.073A2.75 2.75 0 002.75 22.45c.338.172.694.24 1.074.27.364.03.81.03 1.344.03h5.661c.534 0 .98 0 1.345-.03.38-.03.736-.098 1.073-.27a2.75 2.75 0 001.202-1.201c.172-.338.24-.694.27-1.074.03-.364.03-.81.03-1.345v-5.66c0-.535 0-.98-.03-1.345-.03-.38-.098-.736-.27-1.073a2.75 2.75 0 00-1.202-1.202c-.337-.172-.694-.24-1.073-.27-.365-.03-.81-.03-1.345-.03H5.2z"/>
</svg>
