<svg xmlns="http://www.w3.org/2000/svg" width="24" height="24" fill="currentColor" viewBox="0 0 24 24">
  <path fill-rule="evenodd" d="M5.462 2.25h.125c.332 0 .59 0 .83.042A2.75 2.75 0 018.45 3.88c.099.22.161.472.242.794l.014.058.535 2.14.027.108c.15.6.27 1.072.227 1.539a2.75 2.75 0 01-.379 1.161c-.24.403-.613.714-1.089 1.111l-.084.07-1.997 1.67c.2.363.414.714.64 1.052a.75.75 0 01-1.247.834 16.267 16.267 0 01-1.01-1.736C3.29 10.61 2.632 8.236 2.374 5.596L2.37 5.55c-.032-.323-.058-.583-.02-.885.135-1.102 1.046-2.106 2.13-2.348.297-.066.6-.066.983-.066zM17.02 14.732l.107.027 2.14.535.06.014c.322.08.572.143.793.242a2.75 2.75 0 011.588 2.034c.042.238.042.497.042.829v.125c0 .383 0 .686-.066.983-.242 1.084-1.245 1.995-2.348 2.13-.302.038-.562.012-.885-.02l-.047-.004c-2.64-.258-5.015-.917-7.085-1.957a15.78 15.78 0 01-3.525-2.404L4.53 20.53a.75.75 0 01-1.06-1.06l15-15a.75.75 0 111.06 1.06L8.856 16.204a14.167 14.167 0 002.613 1.85l1.67-1.997.07-.084c.397-.476.708-.849 1.111-1.09.354-.21.75-.34 1.161-.377.467-.043.939.075 1.54.226z"/>
</svg>
