<svg xmlns="http://www.w3.org/2000/svg" width="24" height="24" fill="currentColor" viewBox="0 0 24 24">
  <path fill-rule="evenodd" d="M11.566 1.25H12.434c1.651 0 2.937 0 3.968.084 1.047.086 1.897.262 2.662.652a6.75 6.75 0 012.95 2.95c.39.765.566 1.615.652 2.662.084 1.031.084 2.317.084 3.968V12.434c0 1.652 0 2.937-.084 3.968-.086 1.047-.262 1.897-.652 2.662a6.75 6.75 0 01-2.95 2.95c-.765.39-1.615.566-2.662.652-1.031.084-2.317.084-3.968.084H11.566c-1.651 0-2.937 0-3.968-.084-1.047-.086-1.897-.262-2.662-.652a6.75 6.75 0 01-2.95-2.95c-.39-.765-.566-1.615-.652-2.662-.084-1.031-.084-2.317-.084-3.968V11.566c0-1.651 0-2.937.084-3.968.086-1.047.262-1.897.652-2.662a6.75 6.75 0 012.95-2.95c.765-.39 1.615-.566 2.662-.652 1.031-.084 2.317-.084 3.968-.084zM7 7.25a.75.75 0 000 1.5h10a.75.75 0 000-1.5H7zM8.25 12a.75.75 0 01.75-.75h6a.75.75 0 010 1.5H9a.75.75 0 01-.75-.75zM11 15.25a.75.75 0 000 1.5h2a.75.75 0 000-1.5h-2z"/>
</svg>
