<svg xmlns="http://www.w3.org/2000/svg" width="24" height="24" fill="currentColor" viewBox="0 0 24 24">
  <path fill-rule="evenodd" d="M10 1.25h-.034c-1.371 0-2.447 0-3.311.07-.88.073-1.607.221-2.265.557A5.75 5.75 0 001.877 4.39c-.336.658-.484 1.385-.556 2.265-.071.864-.071 1.94-.071 3.311v4.068c0 1.371 0 2.447.07 3.311.073.88.221 1.607.557 2.265a5.75 5.75 0 002.513 2.513c.658.336 1.385.485 2.265.556.864.071 1.94.071 3.311.071h4.068c1.371 0 2.447 0 3.311-.07.88-.072 1.607-.221 2.265-.557a5.75 5.75 0 002.513-2.513c.336-.658.485-1.385.556-2.265.071-.864.071-1.94.071-3.311V9.966c0-1.371 0-2.447-.07-3.311-.072-.88-.221-1.607-.557-2.265a5.75 5.75 0 00-2.513-2.513c-.658-.336-1.385-.484-2.265-.556-.864-.071-1.94-.071-3.311-.071H10zm-1.1 7h-.029c-.395 0-.736 0-1.017.023-.297.024-.592.078-.875.222a2.25 2.25 0 00-.984.983c-.144.284-.198.58-.222.876-.023.28-.023.622-.023 1.017V12.629c0 .395 0 .736.023 1.017.024.297.078.592.222.875.216.424.56.768.984.984.283.144.578.198.875.222.28.023.622.023 1.017.023H9a2.25 2.25 0 002.25-2.25.75.75 0 00-1.5 0 .75.75 0 01-.75.75h-.1c-.432 0-.712 0-.924-.018-.204-.017-.28-.045-.316-.064a.75.75 0 01-.328-.328c-.02-.037-.047-.112-.064-.316a12.755 12.755 0 01-.018-.924v-1.2c0-.433 0-.712.018-.924.017-.204.045-.28.064-.317a.75.75 0 01.328-.327c.037-.02.112-.048.316-.064.212-.018.492-.018.924-.018H9a.75.75 0 01.75.75.75.75 0 001.5 0A2.25 2.25 0 009 8.25h-.1zm6.971 0H16a2.25 2.25 0 012.25 2.25.75.75 0 01-1.5 0 .75.75 0 00-.75-.75h-.1c-.432 0-.712 0-.924.018-.204.016-.28.045-.317.064a.75.75 0 00-.327.327c-.02.037-.047.113-.064.317-.017.212-.018.491-.018.924v1.2c0 .432 0 .711.018.924.017.204.045.28.064.316a.75.75 0 00.327.328c.038.019.113.047.317.064.212.017.492.018.924.018h.1a.75.75 0 00.75-.75.75.75 0 011.5 0A2.25 2.25 0 0116 15.75h-.129c-.395 0-.736 0-1.017-.023-.297-.024-.592-.078-.875-.223a2.25 2.25 0 01-.984-.983c-.144-.284-.198-.579-.222-.875-.023-.28-.023-.622-.023-1.017V11.37c0-.396 0-.737.023-1.018.024-.296.078-.59.222-.875a2.25 2.25 0 01.984-.983c.283-.145.578-.198.875-.222a13.42 13.42 0 011.017-.023z"/>
</svg>
