<svg xmlns="http://www.w3.org/2000/svg" width="24" height="24" fill="currentColor" viewBox="0 0 24 24">
  <path fill-rule="evenodd" d="M14.034 1.25H9.966c-1.371 0-2.447 0-3.311.07-.88.073-1.607.221-2.265.557A5.75 5.75 0 001.877 4.39c-.336.658-.484 1.385-.556 2.265-.071.864-.071 1.94-.071 3.311v4.068c0 1.371 0 2.447.07 3.311.073.88.221 1.607.557 2.265a5.75 5.75 0 002.513 2.513c.658.336 1.385.485 2.265.556.864.071 1.94.071 3.311.071h4.068c1.371 0 2.447 0 3.311-.07.88-.072 1.607-.221 2.265-.557a5.75 5.75 0 002.513-2.513c.336-.658.485-1.385.556-2.265.071-.864.071-1.94.071-3.311V9.966c0-1.371 0-2.447-.07-3.311-.072-.88-.221-1.607-.557-2.265a5.75 5.75 0 00-2.513-2.513c-.658-.336-1.385-.484-2.265-.556-.864-.071-1.94-.071-3.311-.071zm-.034 6a.75.75 0 000 1.5h2.399l-2.556 3.066-.025.031a1.25 1.25 0 01-1.827.083l-.029-.028-.002-.003a2.75 2.75 0 00-3.885-.034l-.035.034-.002.003L5.47 14.47a.75.75 0 101.06 1.06l2.568-2.568.027-.026a1.25 1.25 0 011.75 0l.027.026.003.003.036.037a2.75 2.75 0 004.019-.182l.033-.04.003-.003 2.254-2.705V12a.75.75 0 001.5 0V8a.75.75 0 00-.75-.75h-4z"/>
</svg>
