<svg xmlns="http://www.w3.org/2000/svg" width="24" height="24" fill="currentColor" viewBox="0 0 24 24">
  <path fill-rule="evenodd" d="M17.354 4.75H6.646A2.756 2.756 0 014.75 6.646v10.708c.916.259 1.637.98 1.896 1.896h10.708a2.756 2.756 0 011.896-1.896V6.646a2.756 2.756 0 01-1.896-1.896zM12 3.25H6.646A2.751 2.751 0 103.25 6.646v10.708a2.751 2.751 0 103.396 3.396h10.708a2.751 2.751 0 103.396-3.396V6.646a2.751 2.751 0 10-3.396-3.396H12zm-3 5a.75.75 0 000 1.5h2.25V15a.75.75 0 001.5 0V9.75H15a.75.75 0 000-1.5H9z"/>
</svg>
