<svg xmlns="http://www.w3.org/2000/svg" width="24" height="24" fill="currentColor" viewBox="0 0 24 24">
  <path fill-rule="evenodd" d="M14.034 1.25H9.966c-1.371 0-2.447 0-3.311.07-.88.073-1.607.221-2.265.557A5.75 5.75 0 001.877 4.39c-.336.658-.484 1.385-.556 2.265-.071.864-.071 1.94-.071 3.311v4.068c0 1.371 0 2.447.07 3.311.073.88.221 1.607.557 2.265a5.75 5.75 0 002.513 2.513c.658.336 1.385.485 2.265.556.864.071 1.94.071 3.311.071h4.068c1.371 0 2.447 0 3.311-.07.88-.072 1.607-.221 2.265-.557a5.75 5.75 0 002.513-2.513c.336-.658.485-1.385.556-2.265.071-.864.071-1.94.071-3.311V9.966c0-1.371 0-2.447-.07-3.311-.072-.88-.221-1.607-.557-2.265a5.75 5.75 0 00-2.513-2.513c-.658-.336-1.385-.484-2.265-.556-.864-.071-1.94-.071-3.311-.071zm-2.534 8c-2.51 0-4.088 1.13-5.02 2.277a6.782 6.782 0 00-1.14 2.066 4.226 4.226 0 00-.061.201l-.004.015-.002.005v.003L6 14l-.728-.182a.75.75 0 001.455.367v-.002l.006-.02.03-.1a5.286 5.286 0 01.88-1.59c.695-.853 1.867-1.723 3.857-1.723 1.48 0 2.933.858 4.08 1.824.272.23.52.46.74.676H14a.75.75 0 000 1.5h4a.75.75 0 00.75-.75v-4a.75.75 0 00-1.5 0v2.061c-.214-.205-.45-.42-.704-.635-1.23-1.034-3.026-2.176-5.046-2.176zm-4.773 4.933z"/>
</svg>
