<svg xmlns="http://www.w3.org/2000/svg" width="24" height="24" fill="currentColor" viewBox="0 0 24 24">
  <path fill-rule="evenodd" d="M23.749 13.196l.001-.135a6.283 6.283 0 00-3.64-5.708C19.085 3.83 15.846 1.25 12 1.25c-4.534 0-8.228 3.587-8.44 8.083a5.175 5.175 0 00-3.308 4.982l-.002.152c0 2.896 2.285 5.283 5.15 5.283H10v-1.922l-.086.086a2 2 0 11-2.828-2.828l3.5-3.5a2 2 0 012.828 0l3.5 3.5a2 2 0 11-2.828 2.828L14 17.828v1.922h3.5c3.473 0 6.25-2.894 6.25-6.417l-.001-.137zM12.53 12.47l3.5 3.5a.75.75 0 11-1.06 1.06l-2.22-2.22V22a.75.75 0 01-1.5 0v-7.19l-2.22 2.22a.75.75 0 01-1.06-1.06l3.5-3.5a.75.75 0 011.06 0z"/>
</svg>
