<svg xmlns="http://www.w3.org/2000/svg" width="24" height="24" fill="currentColor" viewBox="0 0 24 24">
  <path fill-rule="evenodd" d="M11.566 1.25H12.434c1.651 0 2.937 0 3.968.084 1.047.086 1.897.262 2.662.652a6.75 6.75 0 012.95 2.95c.39.765.566 1.615.652 2.662.084 1.031.084 2.317.084 3.968V12.434c0 1.651 0 2.937-.084 3.968-.086 1.047-.262 1.897-.652 2.662a6.75 6.75 0 01-2.95 2.95c-.765.39-1.615.566-2.662.652-1.031.084-2.317.084-3.968.084H11.566c-1.651 0-2.937 0-3.968-.084-1.047-.086-1.897-.262-2.662-.652a6.75 6.75 0 01-2.95-2.95c-.39-.765-.566-1.615-.652-2.662-.084-1.031-.084-2.317-.084-3.968V11.566c0-1.651 0-2.937.084-3.968.086-1.047.262-1.897.652-2.662a6.75 6.75 0 012.95-2.95c.765-.39 1.615-.566 2.662-.652 1.031-.084 2.317-.084 3.968-.084zm2.042 4.458l-.03-.017c-.367-.209-.687-.39-.955-.512-.272-.124-.602-.24-.968-.2a1.75 1.75 0 00-1.227.714c-.215.298-.278.642-.305.94-.027.293-.027.661-.027 1.084v3.074L7.333 9.418a.75.75 0 10-.666 1.344l2.68 1.33-2.76 1.827a.75.75 0 00.827 1.25l2.682-1.774v2.887c0 .423 0 .79.027 1.084.027.298.09.642.305.94.29.4.736.66 1.227.713.366.04.696-.075.968-.199.268-.121.588-.303.956-.512l.029-.017.095-.054.032-.018c.573-.326 1.049-.596 1.402-.843.357-.249.696-.542.882-.956a2.25 2.25 0 000-1.841c-.186-.415-.525-.708-.882-.957-.354-.246-.829-.517-1.402-.843l-.032-.018-1.34-.762 1.34-.762.032-.018c.573-.326 1.049-.597 1.402-.843.357-.249.696-.542.882-.957a2.25 2.25 0 000-1.84c-.186-.415-.525-.708-.882-.957-.354-.246-.829-.517-1.402-.843l-.032-.018-.095-.054zm-2.012 10.541v-2.96l1.365.777c.614.349 1.028.585 1.319.788.294.205.355.306.37.34a.75.75 0 010 .613c-.015.033-.076.134-.37.34-.29.202-.705.438-1.319.787l-.095.054c-.405.23-.665.378-.862.467a.96.96 0 01-.198.073.25.25 0 01-.155-.09.96.96 0 01-.034-.208c-.02-.216-.02-.514-.02-.98zm0-8.498v2.96l1.365-.777c.614-.349 1.028-.585 1.319-.788.294-.205.355-.306.37-.34a.75.75 0 000-.613c-.015-.033-.076-.134-.37-.34-.29-.202-.705-.438-1.319-.787l-.095-.054a12.32 12.32 0 00-.862-.467.961.961 0 00-.198-.073.25.25 0 00-.155.09.96.96 0 00-.034.208c-.02.216-.02.514-.02.98z"/>
</svg>
