<svg xmlns="http://www.w3.org/2000/svg" width="24" height="24" fill="currentColor" viewBox="0 0 24 24">
  <path fill-rule="evenodd" d="M8 1.25h-.025c-.445 0-.816 0-1.12.02a2.823 2.823 0 00-.907.19 2.75 2.75 0 00-1.489 1.488c-.12.29-.167.59-.188.907-.021.304-.021.675-.021 1.12v.05c0 .445 0 .816.02 1.12.022.317.07.617.19.907a2.75 2.75 0 001.488 1.489c.29.12.59.167.907.188.304.021.675.021 1.12.021H14.025c.445 0 .816 0 1.12-.02.318-.022.617-.07.907-.19a2.75 2.75 0 001.489-1.488c.12-.29.167-.59.188-.907.009-.12.014-.252.017-.395h.054c.572 0 .957 0 1.252.025.288.023.425.065.515.111.236.12.427.311.547.547.046.09.088.227.111.514.024.296.025.68.025 1.253v.6c0 .572 0 .957-.025 1.252-.023.288-.065.425-.111.516a1.25 1.25 0 01-.547.546c-.09.046-.227.088-.515.111-.295.024-.68.025-1.252.025h-3.63c-.535 0-.98 0-1.345.03-.38.03-.736.098-1.073.27a2.751 2.751 0 00-1.202 1.201c-.172.338-.24.694-.27 1.074-.03.365-.03.81-.03 1.345v.184a2.751 2.751 0 00-2 2.646v2a2.75 2.75 0 105.5 0v-2c0-1.259-.846-2.32-2-2.646V15.2c0-.572 0-.957.025-1.252.023-.288.065-.425.111-.516a1.25 1.25 0 01.546-.546c.091-.046.228-.088.515-.111.296-.024.68-.025 1.253-.025h3.63c.535 0 .98 0 1.345-.03.38-.03.736-.098 1.073-.27a2.751 2.751 0 001.202-1.201c.172-.338.24-.694.27-1.074.03-.365.03-.81.03-1.345v-.66c0-.535 0-.98-.03-1.345-.03-.38-.098-.736-.27-1.073A2.75 2.75 0 0020.25 4.55c-.338-.172-.694-.24-1.074-.27-.365-.03-.81-.03-1.345-.03H17.745a8.433 8.433 0 00-.016-.395 2.822 2.822 0 00-.188-.907 2.75 2.75 0 00-1.489-1.489c-.29-.12-.59-.167-.907-.188-.304-.021-.675-.021-1.12-.021H8z"/>
</svg>
