<svg xmlns="http://www.w3.org/2000/svg" width="24" height="24" fill="currentColor" viewBox="0 0 24 24">
  <path fill-rule="evenodd" d="M12.25 2.5c0-.232 0-.348-.02-.445a1 1 0 00-.785-.786c-.097-.019-.213-.019-.445-.019s-.348 0-.445.02a1 1 0 00-.786.785c-.019.097-.019.213-.019.445V5a.75.75 0 01-1.5 0V2.332c0-.076 0-.114-.002-.146a1 1 0 00-.934-.934c-.032-.002-.07-.002-.146-.002A3.918 3.918 0 003.25 5.168v2.435c0 .603 0 .904.16 1.152.16.248.42.365.943.601.32.145.672.296 1.05.448 1.835.733 4.233 1.446 6.597 1.446 2.364 0 4.762-.713 6.596-1.446.379-.152.731-.303 1.051-.448.522-.236.783-.353.943-.601.16-.248.16-.55.16-1.152V5.168a3.918 3.918 0 00-3.918-3.918H15.5c-.702 0-1.053 0-1.306.169a1 1 0 00-.276.275c-.168.253-.168.604-.168 1.306a.75.75 0 01-1.5 0v-.5zm-9 8.098c0-.046.048-.077.09-.057.437.206.944.43 1.506.655 1.916.767 4.518 1.554 7.154 1.554s5.238-.787 7.154-1.554a27.73 27.73 0 001.506-.655c.042-.02.09.01.09.057a4.637 4.637 0 01-2.563 4.147l-2.114 1.057a1.88 1.88 0 00-1.014 1.991l.188 1.125a3.291 3.291 0 11-6.494 0l.188-1.125a1.88 1.88 0 00-1.014-1.991l-2.114-1.057a4.637 4.637 0 01-2.563-4.147z"/>
</svg>
