<svg xmlns="http://www.w3.org/2000/svg" width="24" height="24" fill="currentColor" viewBox="0 0 24 24">
  <path fill-rule="evenodd" d="M7.776 4.913a14.176 14.176 0 014.223-.663c1.361 0 2.787.214 4.224.663 1.931.604 3.885 1.632 5.738 3.139l.015.012c.146.12.264.215.406.372.376.416.59.954.66 1.48.071.526.008 1.101-.245 1.602-.095.19-.208.348-.35.546l-.022.03-.033.046c-.175.246-.311.437-.46.589a2.75 2.75 0 01-3.051.606c-.196-.084-.394-.208-.65-.368l-.048-.03-.738-.461-.073-.046c-.421-.263-.752-.47-1.01-.754a2.751 2.751 0 01-.528-.856c-.139-.359-.174-.747-.22-1.242l-.008-.086-.306-3.287A12.53 12.53 0 0012 5.75c-1.057 0-2.168.146-3.3.455l-.307 3.287-.008.086c-.046.495-.081.883-.22 1.242-.122.315-.3.605-.528.856-.258.284-.589.49-1.01.754l-.073.046-.738.46-.048.03a5.05 5.05 0 01-.65.369 2.75 2.75 0 01-3.051-.606c-.149-.152-.285-.342-.46-.589l-.033-.045-.022-.031c-.142-.199-.255-.357-.35-.546-.253-.5-.316-1.076-.245-1.602.07-.526.284-1.064.66-1.48.142-.157.26-.253.406-.372l.015-.012c1.853-1.507 3.807-2.535 5.738-3.139zM12.75 12a.75.75 0 00-1.5 0v6.19l-1.72-1.72a.75.75 0 00-1.06 1.06l3 3a.75.75 0 001.06 0l3-3a.75.75 0 10-1.06-1.06l-1.72 1.72V12z"/>
</svg>
