<svg xmlns="http://www.w3.org/2000/svg" width="24" height="24" fill="currentColor" viewBox="0 0 24 24">
  <path fill-rule="evenodd" d="M16.78 2.364a2.75 2.75 0 012.441 0c.407.202.764.559 1.224 1.02l.085.086.086.085c.461.46.818.817 1.02 1.224a2.75 2.75 0 010 2.442c-.202.407-.559.763-1.02 1.223l-.086.086-3 3a.75.75 0 01-1.06-1.06l.979-.98a4.763 4.763 0 01-2.94-2.939l-.979.98a.75.75 0 11-1.06-1.061l3-3 .086-.086c.46-.461.816-.818 1.223-1.02zm-1.017 2.933a3.251 3.251 0 002.94 2.94l.767-.767c.588-.588.744-.76.822-.915a1.25 1.25 0 000-1.11c-.078-.156-.234-.327-.822-.915-.588-.588-.759-.744-.915-.822a1.25 1.25 0 00-1.11 0c-.156.078-.326.234-.915.822l-.767.767zM3.47 2.47a.75.75 0 011.06 0l6.5 6.5 4 4 6.5 6.5a.75.75 0 01-1.06 1.06l-5.97-5.97-3.6 3.6-.048.048c-.463.464-.762.762-1.107 1.003-.306.213-.635.39-.983.526-.391.154-.806.237-1.448.365l-.067.013-3.1.62a.75.75 0 01-.882-.882l.62-3.1.013-.067c.128-.642.211-1.057.365-1.448a4.75 4.75 0 01.526-.983c.24-.345.54-.644 1.003-1.107l.048-.049L9.44 9.5 3.47 3.53a.75.75 0 010-1.06z"/>
</svg>
