<svg xmlns="http://www.w3.org/2000/svg" width="24" height="24" fill="currentColor" viewBox="0 0 24 24">
  <path fill-rule="evenodd" d="M6.122 7.325C6 7.806 6 8.32 6 9.352V16c0 1.864 0 2.796.305 3.53a4 4 0 002.164 2.165c.232.096.483.162.777.207.871.133 1.307.2 1.655-.099.349-.3.349-.803.349-1.812V19a.75.75 0 011.5 0v.991c0 1.009 0 1.513.349 1.812.348.3.784.232 1.655.1.294-.046.545-.112.777-.208a4 4 0 002.165-2.164C18 18.796 18 17.864 18 16V9.352c0-1.03 0-1.546-.121-2.027a4.002 4.002 0 00-.526-1.203c-.27-.416-.649-.766-1.405-1.466l-.687-.637c-1.15-1.064-1.724-1.596-2.378-1.798a3 3 0 00-1.766 0c-.653.202-1.228.734-2.378 1.798l-.687.637c-.756.7-1.134 1.05-1.405 1.466a4 4 0 00-.525 1.203zM14 11a2 2 0 11-4 0 2 2 0 014 0zm9 5.4c0-.88 0-1.32-.115-1.724a3.002 3.002 0 00-.495-.99c-.254-.334-.606-.598-1.31-1.126l-.8-.6c-.412-.31-.618-.464-.79-.46a.5.5 0 00-.384.191c-.106.136-.106.394-.106.909v4.9c0 .537 0 .805.094 1.027a1.2 1.2 0 00.387.496c.193.145.453.21.973.34l.16.04c.814.204 1.22.305 1.54.206a1.2 1.2 0 00.672-.525c.174-.286.174-.705.174-1.543V16.4zM2.92 12.56l.8-.6c.412-.31.618-.464.79-.46a.5.5 0 01.384.191c.106.136.106.394.106.909v4.9c0 .537 0 .805-.094 1.027a1.2 1.2 0 01-.387.496c-.193.145-.453.21-.973.34l-.16.04c-.813.204-1.22.305-1.54.206a1.2 1.2 0 01-.672-.525C1 18.798 1 18.38 1 17.541V16.4c0-.88 0-1.32.115-1.724a3 3 0 01.495-.99c.254-.334.606-.598 1.31-1.126z"/>
</svg>
