<svg xmlns="http://www.w3.org/2000/svg" width="24" height="24" fill="currentColor" viewBox="0 0 24 24">
  <path fill-rule="evenodd" d="M10 1.25h-.034c-1.371 0-2.447 0-3.311.07-.88.073-1.607.221-2.265.557A5.75 5.75 0 001.877 4.39c-.336.658-.484 1.385-.556 2.265-.071.864-.071 1.94-.071 3.311v4.068c0 1.371 0 2.447.07 3.311.073.88.221 1.607.557 2.265a5.75 5.75 0 002.513 2.513c.658.336 1.385.485 2.265.556.864.071 1.94.071 3.311.071h4.068c1.371 0 2.447 0 3.311-.07.88-.072 1.607-.221 2.265-.557a5.75 5.75 0 002.513-2.513c.336-.658.485-1.385.556-2.265.071-.864.071-1.94.071-3.311V9.966c0-1.371 0-2.447-.07-3.311-.072-.88-.221-1.607-.557-2.265a5.75 5.75 0 00-2.513-2.513c-.658-.336-1.385-.484-2.265-.556-.864-.071-1.94-.071-3.311-.071H10zM9 14.2c0-1.12 0-1.68.218-2.108a2 2 0 01.874-.874C10.52 11 11.08 11 12.2 11h3.6c1.12 0 1.68 0 2.108.218a2 2 0 01.874.874C19 12.52 19 13.08 19 14.2v1.6c0 1.12 0 1.68-.218 2.108a2 2 0 01-.874.874C17.48 19 16.92 19 15.8 19h-3.6c-1.12 0-1.68 0-2.108-.218a2 2 0 01-.874-.874C9 17.48 9 16.92 9 15.8v-1.6z"/>
</svg>
