<svg xmlns="http://www.w3.org/2000/svg" width="24" height="24" fill="currentColor" viewBox="0 0 24 24">
  <path fill-rule="evenodd" d="M5.17 1.25H6.83c.535 0 .98 0 1.345.03.38.03.736.098 1.073.27a2.75 2.75 0 011.202 1.202c.172.337.24.693.27 1.073.03.365.03.81.03 1.345V8.83c0 .535 0 .98-.03 1.345-.03.38-.098.736-.27 1.073a2.75 2.75 0 01-1.202 1.202c-.337.172-.693.24-1.073.27-.365.03-.81.03-1.345.03H5.17c-.535 0-.98 0-1.345-.03-.38-.03-.736-.098-1.073-.27A2.75 2.75 0 011.55 11.25c-.172-.338-.24-.694-.27-1.074-.03-.365-.03-.81-.03-1.345V5.17c0-.535 0-.98.03-1.345.03-.38.098-.736.27-1.073A2.75 2.75 0 012.752 1.55c.337-.172.693-.24 1.073-.27.365-.03.81-.03 1.345-.03zm-.17 14h-.025c-.445 0-.816 0-1.12.02a2.824 2.824 0 00-.907.19 2.75 2.75 0 00-1.489 1.488c-.12.29-.167.59-.188.907-.021.304-.021.675-.021 1.12v.05c0 .445 0 .816.02 1.12.022.317.07.617.19.907a2.75 2.75 0 001.488 1.489c.29.12.59.167.907.188.304.021.675.021 1.12.021h2.05c.445 0 .816 0 1.12-.02.317-.022.617-.069.907-.19a2.75 2.75 0 001.489-1.488c.12-.29.167-.59.188-.907.021-.304.021-.675.021-1.12v-.05c0-.445 0-.816-.02-1.12a2.822 2.822 0 00-.19-.907 2.75 2.75 0 00-1.488-1.489c-.29-.12-.59-.167-.907-.188-.304-.021-.675-.021-1.12-.021H5zm11.975-14h2.05c.445 0 .816 0 1.12.02.317.022.617.07.907.19a2.75 2.75 0 011.489 1.488c.12.29.167.59.188.907.021.304.021.675.021 1.12v.05c0 .445 0 .816-.02 1.12a2.822 2.822 0 01-.19.907 2.75 2.75 0 01-1.488 1.489c-.29.12-.59.167-.907.188-.304.021-.675.021-1.12.021h-2.05c-.445 0-.816 0-1.12-.02a2.823 2.823 0 01-.907-.19 2.75 2.75 0 01-1.489-1.488c-.12-.29-.167-.59-.188-.907-.021-.304-.021-.675-.021-1.12v-.05c0-.445 0-.816.02-1.12.022-.317.07-.617.19-.907a2.75 2.75 0 011.488-1.489c.29-.12.59-.167.907-.188.304-.021.675-.021 1.12-.021zm.225 10h-.03c-.535 0-.98 0-1.345.03-.38.03-.736.098-1.073.27a2.751 2.751 0 00-1.202 1.201c-.172.338-.24.694-.27 1.074-.03.365-.03.81-.03 1.345V18.83c0 .535 0 .98.03 1.345.03.38.098.736.27 1.073.263.518.684.939 1.201 1.202.338.172.694.24 1.074.27.364.03.81.03 1.344.03h1.661c.535 0 .98 0 1.345-.03.38-.03.736-.098 1.073-.27a2.751 2.751 0 001.202-1.201c.172-.338.24-.694.27-1.074.03-.364.03-.81.03-1.344V15.17c0-.535 0-.98-.03-1.345-.03-.38-.098-.736-.27-1.073a2.751 2.751 0 00-1.201-1.202c-.338-.172-.694-.24-1.074-.27-.365-.03-.81-.03-1.345-.03H17.2z"/>
</svg>
