<svg xmlns="http://www.w3.org/2000/svg" width="24" height="24" fill="currentColor" viewBox="0 0 24 24">
  <path fill-rule="evenodd" d="M10 2.75h.075l2.1 3.5H8.441L6.545 2.837c.075-.008.152-.015.232-.021.796-.065 1.81-.066 3.223-.066zm-4.955.476a4.25 4.25 0 00-1.832 1.845c-.158.311-.268.678-.34 1.18h3.852l-1.68-3.025zm12.63 3.024h-3.75l-2.1-3.5H14c.598 0 1.125 0 1.595.005a.75.75 0 00.062.131l2.018 3.364zM14 1.25H9.966c-1.371 0-2.447 0-3.311.07-.88.073-1.607.221-2.265.557A5.75 5.75 0 001.877 4.39c-.336.658-.484 1.385-.556 2.265-.071.864-.071 1.94-.071 3.312v4.067c0 1.371 0 2.447.07 3.311.073.88.221 1.607.557 2.266a5.75 5.75 0 002.513 2.512c.658.336 1.385.485 2.265.556.864.071 1.94.071 3.311.071h4.068c1.371 0 2.447 0 3.311-.07.88-.072 1.607-.221 2.265-.557a5.75 5.75 0 002.513-2.512c.336-.659.485-1.386.556-2.266.071-.864.071-1.94.071-3.311V9.967c0-1.372 0-2.448-.07-3.312-.072-.88-.221-1.607-.557-2.265a5.75 5.75 0 00-2.513-2.513c-.658-.336-1.385-.484-2.265-.556-.864-.07-1.94-.07-3.311-.07H14zm5.425 5h1.702c-.072-.501-.181-.868-.34-1.18a4.25 4.25 0 00-1.857-1.857c-.385-.196-.855-.317-1.558-.384l2.053 3.421z"/>
</svg>
