<svg xmlns="http://www.w3.org/2000/svg" width="24" height="24" fill="currentColor" viewBox="0 0 24 24">
  <path fill-rule="evenodd" d="M9.966 1.25h4.068c1.371 0 2.447 0 3.311.07.88.073 1.607.221 2.265.557a5.75 5.75 0 012.513 2.513c.336.658.485 1.385.556 2.265.071.864.071 1.94.071 3.311v4.068c0 1.371 0 2.447-.07 3.311-.072.88-.221 1.607-.557 2.265a5.75 5.75 0 01-2.513 2.513c-.658.336-1.385.485-2.265.556-.864.071-1.94.071-3.311.071H9.966c-1.371 0-2.447 0-3.311-.07-.88-.072-1.607-.221-2.265-.557a5.75 5.75 0 01-2.513-2.513c-.336-.658-.484-1.385-.556-2.265-.071-.864-.071-1.94-.071-3.311V9.966c0-1.371 0-2.447.07-3.311.073-.88.221-1.607.557-2.265A5.75 5.75 0 014.39 1.877c.658-.336 1.385-.484 2.265-.556.864-.071 1.94-.071 3.311-.071zm1.293 4C9.2 5.25 7.546 6.938 7.546 9c0 .322.04.635.117.935a.75.75 0 001.453-.37A2.291 2.291 0 019.046 9c0-1.251 1-2.25 2.213-2.25h1.482c1.213 0 2.213.999 2.213 2.25a.75.75 0 001.5 0c0-2.062-1.654-3.75-3.713-3.75h-1.482zM6 11.25a.75.75 0 000 1.5h6.74c1.214 0 2.213.998 2.213 2.25s-.999 2.25-2.212 2.25h-1.482c-1.213 0-2.213-.998-2.213-2.25a.75.75 0 00-1.5 0c0 2.062 1.654 3.75 3.713 3.75h1.482c2.059 0 3.712-1.688 3.712-3.75 0-.842-.275-1.622-.742-2.25H18a.75.75 0 000-1.5H6z"/>
</svg>
