<svg xmlns="http://www.w3.org/2000/svg" width="24" height="24" fill="currentColor" viewBox="0 0 24 24">
  <path fill-rule="evenodd" d="M21.96 11.021l-1.196 5.981-.005.029c-.179.892-.32 1.602-.48 2.173-.163.586-.357 1.076-.663 1.515a4.75 4.75 0 01-1.993 1.634c-.49.214-1.01.308-1.616.353-.59.044-1.315.044-2.225.044H10.218c-.91 0-1.633 0-2.224-.044-.607-.045-1.125-.139-1.616-.353a4.75 4.75 0 01-1.993-1.634c-.306-.44-.5-.93-.663-1.515-.16-.571-.301-1.281-.48-2.173l-.005-.029-1.197-5.98-.509.508a.75.75 0 01-1.06-1.06l1.5-1.5 3.843-3.843.04-.04 1.091-1.092.024-.023C7.74 3.2 8.352 2.588 8.885 2.135c.546-.464 1.059-.805 1.647-.996a4.75 4.75 0 012.936 0c.588.191 1.101.532 1.647.996.533.453 1.145 1.065 1.917 1.837l.024.023 1.091 1.092.04.04L22.03 8.97l1.5 1.5a.75.75 0 11-1.06 1.06l-.51-.509zM15 12a3 3 0 11-6 0 3 3 0 016 0z"/>
</svg>
