<svg xmlns="http://www.w3.org/2000/svg" width="24" height="24" fill="currentColor" viewBox="0 0 24 24">
  <path fill-rule="evenodd" d="M7.922 4.004A7.25 7.25 0 0119.25 10c0 1.332-.501 2.54-1.205 3.58a.75.75 0 001.242.84c.816-1.204 1.463-2.701 1.463-4.42A8.75 8.75 0 007.078 2.765a.75.75 0 00.844 1.24zM3.53 2.47a.75.75 0 00-1.06 1.06l2.004 2.004A8.713 8.713 0 003.25 10c0 3.31 2.473 5.858 3.977 7.116.635.532 1.023 1.26 1.023 1.996a3.638 3.638 0 003.638 3.638h.239a3.623 3.623 0 003.623-3.623c0-.584.248-1.165.67-1.647l3.05 3.05a.75.75 0 101.06-1.06l-3.562-3.563L5.962 4.901 3.53 2.47z"/>
</svg>
