<svg xmlns="http://www.w3.org/2000/svg" width="24" height="24" fill="currentColor" viewBox="0 0 24 24">
  <path fill-rule="evenodd" d="M12 1.25h-.034c-1.371 0-2.447 0-3.311.07-.88.073-1.607.221-2.265.557a.75.75 0 10.68 1.336c.412-.21.92-.333 1.707-.397.796-.065 1.81-.066 3.223-.066 1.412 0 2.427 0 3.223.066.787.064 1.295.188 1.707.397a4.25 4.25 0 011.857 1.858c.21.411.333.919.397 1.706.065.796.066 1.81.066 3.223v4a.75.75 0 001.5 0V9.966c0-1.371 0-2.447-.07-3.311-.072-.88-.221-1.607-.557-2.265a5.75 5.75 0 00-2.513-2.513c-.658-.336-1.385-.484-2.265-.556-.864-.071-1.94-.071-3.311-.071H12zM2.469 3.414a.75.75 0 10-.938 1.172l1.853 1.482c-.134.97-.134 2.195-.134 3.831V22a.75.75 0 001.085.67l.845-.422c3.579-1.789 5.15-2.554 6.82-2.554s3.241.765 6.82 2.555l.845.422A.75.75 0 0020.75 22v-2.04l.782.626a.75.75 0 10.936-1.172l-2-1.6L4.666 5.172 2.469 3.414z"/>
</svg>
