<svg xmlns="http://www.w3.org/2000/svg" width="24" height="24" fill="currentColor" viewBox="0 0 24 24">
  <path fill-rule="evenodd" d="M10 1.25h-.034c-1.371 0-2.447 0-3.311.07-.88.073-1.607.221-2.265.557A5.75 5.75 0 001.877 4.39c-.336.658-.484 1.385-.556 2.265-.071.864-.071 1.94-.071 3.311v4.068c0 1.371 0 2.447.07 3.311.073.88.221 1.607.557 2.265a5.75 5.75 0 002.513 2.513c.658.336 1.385.485 2.265.556.864.071 1.94.071 3.311.071h4.068c1.371 0 2.447 0 3.311-.07.88-.072 1.607-.221 2.265-.557a5.75 5.75 0 002.513-2.513c.336-.658.485-1.385.556-2.265.071-.864.071-1.94.071-3.311V9.966c0-1.371 0-2.447-.07-3.311-.072-.88-.221-1.607-.557-2.265a5.75 5.75 0 00-2.513-2.513c-.658-.336-1.385-.484-2.265-.556-.864-.071-1.94-.071-3.311-.071H10zM10.25 17a.75.75 0 01.75-.75h7a.75.75 0 010 1.5h-7a.75.75 0 01-.75-.75zm.75-5.75a.75.75 0 000 1.5h7a.75.75 0 000-1.5h-7zM10.25 7a.75.75 0 01.75-.75h7a.75.75 0 010 1.5h-7a.75.75 0 01-.75-.75zM6.53 5.47a.75.75 0 00-1.06 1.06l.47.47-.47.47a.75.75 0 101.06 1.06L7 8.06l.47.47a.75.75 0 101.06-1.06L8.06 7l.47-.47a.75.75 0 00-1.06-1.06L7 5.94l-.47-.47zm-1.06 5a.75.75 0 011.06 0l.47.47.47-.47a.75.75 0 011.06 1.06l-.47.47.47.47a.75.75 0 11-1.06 1.06L7 13.06l-.47.47a.75.75 0 01-1.06-1.06l.47-.47-.47-.47a.75.75 0 010-1.06zm1.06 5a.75.75 0 00-1.06 1.06l.47.47-.47.47a.75.75 0 101.06 1.06l.47-.47.47.47a.75.75 0 001.06-1.06L8.06 17l.47-.47a.75.75 0 10-1.06-1.06l-.47.47-.47-.47z"/>
</svg>
