<svg xmlns="http://www.w3.org/2000/svg" width="24" height="24" fill="currentColor" viewBox="0 0 24 24">
  <path fill-rule="evenodd" d="M12.727 1.784A2.857 2.857 0 0012 1.698c-.232 0-.498.022-.728.086-.541.148-.877.414-1.29.741l-.048.039c-1.199.948-2.857 2.441-4.22 4.346-1.362 1.904-2.464 4.268-2.464 6.942 0 2.915 1.08 5.158 2.747 6.667C7.65 22.016 9.837 22.75 12 22.75c2.164 0 4.35-.734 6.003-2.231 1.667-1.509 2.747-3.752 2.747-6.667 0-2.674-1.102-5.038-2.464-6.942-1.364-1.905-3.021-3.398-4.22-4.346l-.049-.039c-.412-.327-.748-.593-1.29-.741z"/>
</svg>
