<svg xmlns="http://www.w3.org/2000/svg" width="24" height="24" fill="currentColor" viewBox="0 0 24 24">
  <path fill-rule="evenodd" d="M9.966 1.25h4.068c1.371 0 2.447 0 3.311.07.88.073 1.607.221 2.265.557a5.75 5.75 0 012.513 2.513c.336.658.485 1.385.556 2.265.071.864.071 1.94.071 3.311v4.068c0 1.371 0 2.447-.07 3.311-.072.88-.221 1.607-.557 2.265a5.75 5.75 0 01-2.513 2.513c-.658.336-1.385.485-2.265.556-.864.071-1.94.071-3.311.071H9.966c-1.371 0-2.447 0-3.311-.07-.88-.072-1.607-.221-2.265-.557a5.75 5.75 0 01-2.513-2.513c-.336-.658-.484-1.385-.556-2.265-.071-.864-.071-1.94-.071-3.311V9.966c0-1.371 0-2.447.07-3.311.073-.88.221-1.607.557-2.265A5.75 5.75 0 014.39 1.877c.658-.336 1.385-.484 2.265-.556.864-.071 1.94-.071 3.311-.071zM6.53 5.47a.75.75 0 00-1.06 1.06l1.834 1.834A3.77 3.77 0 007.25 9v4.5a5.25 5.25 0 008.932 3.742l1.288 1.288a.75.75 0 101.06-1.06l-1.857-1.858-2.207-2.207-2.936-2.935L8.66 7.598 6.53 5.47zm2.22 8.03V9.81l1.5 1.5v2.19a2.25 2.25 0 003.81 1.621l1.061 1.06A3.75 3.75 0 018.75 13.5zm3 0v-.69L13 14.06a.749.749 0 01-1.25-.56zm-1.5-6.622a2.25 2.25 0 013 2.122v1.5a.75.75 0 001.5 0V9a3.75 3.75 0 00-5-3.536.75.75 0 00.5 1.414zM17.75 8a.75.75 0 00-1.5 0v5.5a.75.75 0 001.5 0V8z"/>
</svg>
