<svg xmlns="http://www.w3.org/2000/svg" width="24" height="24" fill="currentColor" viewBox="0 0 24 24">
  <path fill-rule="evenodd" d="M12 1.25c-4.555 0-8.237 3.691-8.441 8.281C1.614 10.294.25 12.225.25 14.467c0 2.896 2.285 5.283 5.15 5.283h2.632a1.999 1.999 0 01-.446-3.164l4-4a2 2 0 112.828 2.828l-.586.586H15a2 2 0 011.414 3.414l-.336.336H17.5c3.473 0 6.25-2.894 6.25-6.417 0-2.577-1.482-4.81-3.636-5.83C19.096 3.904 15.86 1.25 12 1.25zm1.53 13.28a.75.75 0 10-1.06-1.06l-4 4A.75.75 0 009 18.75h4.19l-2.72 2.72a.75.75 0 101.06 1.06l4-4a.75.75 0 00-.53-1.28h-4.19l2.72-2.72z"/>
</svg>
