<svg xmlns="http://www.w3.org/2000/svg" width="24" height="24" fill="currentColor" viewBox="0 0 24 24">
  <path fill-rule="evenodd" d="M2.53 1.47a.75.75 0 00-1.06 1.06l1.749 1.75C2.036 5.462 1.25 7.099 1.25 9c0 3.822 2.445 7.01 4.875 9.184a22.424 22.424 0 003.51 2.572c.512.3.972.537 1.346.702.187.082.36.15.515.199.136.043.32.093.504.093.186 0 .375-.052.513-.096.157-.05.335-.12.527-.205.384-.17.857-.416 1.381-.727a22.41 22.41 0 003.053-2.188l2.996 2.996a.75.75 0 101.06-1.06l-3.493-3.494L4.842 3.781 2.53 1.47zm10.094 3.946c.826-1.24 2.055-1.685 3.365-1.666 2.645.038 5.261 2.213 5.261 5.25 0 1.918-.746 3.704-1.863 5.288-.063.09-.127.178-.192.265a.75.75 0 101.205.894c.072-.097.143-.195.213-.294C21.849 13.4 22.75 11.316 22.75 9c0-3.963-3.384-6.701-6.74-6.75-1.412-.02-2.882.394-4.012 1.56C10.86 2.645 9.375 2.25 8 2.25c-.19 0-.38.009-.568.026a.75.75 0 00.136 1.494c.144-.013.288-.02.432-.02 1.303 0 2.554.434 3.376 1.666a.75.75 0 001.248 0z"/>
</svg>
