<svg xmlns="http://www.w3.org/2000/svg" width="24" height="24" fill="currentColor" viewBox="0 0 24 24">
  <path fill-rule="evenodd" d="M16.659 1.676a3.75 3.75 0 00-2.318 0c-.474.154-.88.427-1.298.782-.406.345-.87.808-1.445 1.383l-.022.023-7.712 7.712-.023.022c-.575.575-1.038 1.039-1.383 1.445-.355.418-.628.824-.782 1.298a3.75 3.75 0 000 2.318c.154.474.427.88.782 1.298.345.406.808.87 1.383 1.445l.023.022.712.712.022.023c.575.575 1.039 1.038 1.445 1.383.418.355.824.628 1.298.782a3.75 3.75 0 002.318 0c.474-.154.88-.427 1.298-.782.09-.076.183-.158.278-.246L8.47 18.53a.75.75 0 011.06-1.06l2.78 2.78.092-.091.023-.023 1.825-1.825-4.28-4.28a.75.75 0 011.06-1.061l4.28 4.28 1.94-1.94-2.78-2.78a.75.75 0 011.06-1.06l2.78 2.78 1.826-1.825.023-.023.091-.091-4.28-4.28a.75.75 0 011.06-1.061l4.266 4.266c.088-.096.17-.189.246-.279.355-.418.628-.824.782-1.298a3.75 3.75 0 000-2.318c-.154-.474-.427-.88-.782-1.298-.345-.406-.808-.87-1.383-1.445l-.023-.022-.712-.712-.022-.023c-.575-.575-1.039-1.038-1.445-1.383-.418-.355-.824-.628-1.298-.782z"/>
</svg>
