<svg xmlns="http://www.w3.org/2000/svg" width="24" height="24" fill="currentColor" viewBox="0 0 24 24">
  <path fill-rule="evenodd" d="M1.25 2A.75.75 0 012 1.25h20a.75.75 0 010 1.5h-1V9.6c0 2.24 0 3.36-.436 4.216a4 4 0 01-1.748 1.748C17.96 16 16.84 16 14.6 16h-1.85v2.575l4.636 2.782a.75.75 0 11-.772 1.286l-3.864-2.318V22a.75.75 0 01-1.5 0v-1.675l-3.864 2.318a.75.75 0 11-.772-1.286l4.636-2.782V16H9.4c-2.24 0-3.36 0-4.216-.436a4 4 0 01-1.748-1.748C3 12.96 3 11.84 3 9.6V2.75H2A.75.75 0 011.25 2zm15.166 6.624a.75.75 0 00-.832-1.248l-2.489 1.659L11.53 7.47a.75.75 0 00-.946-.094l-3 2a.75.75 0 10.832 1.248l2.488-1.659 1.565 1.565a.75.75 0 00.947.094l3-2z"/>
</svg>
