<svg xmlns="http://www.w3.org/2000/svg" width="24" height="24" fill="currentColor" viewBox="0 0 24 24">
  <path fill-rule="evenodd" d="M9.966 1.25h4.068c1.371 0 2.447 0 3.311.07.88.073 1.607.221 2.265.557a5.75 5.75 0 012.513 2.513c.336.658.485 1.385.556 2.265.071.864.071 1.94.071 3.311V14.5a4.25 4.25 0 01-4.25 4.25c-.52 0-1.017-.206-1.384-.573L15.24 16.3c-.61-.611-1.042-1.041-1.403-1.355-.357-.309-.603-.465-.83-.555a2.75 2.75 0 00-2.012 0c-.227.09-.473.246-.83.555-.361.314-.792.744-1.403 1.355l-1.877 1.877a1.957 1.957 0 01-1.384.573 4.25 4.25 0 01-4.25-4.25V9.966c0-1.371 0-2.447.07-3.311.073-.88.221-1.607.557-2.265A5.75 5.75 0 014.39 1.877c.658-.336 1.385-.484 2.265-.556.864-.071 1.94-.071 3.311-.071zm2.73 14.731a2.25 2.25 0 00-1.391 0c-.303.099-.55.27-.776.462a13.4 13.4 0 00-.736.703l-.02.02-.206.207-.027.027c-.62.62-1.121 1.12-1.47 1.536-.337.403-.65.86-.692 1.387a2.25 2.25 0 00.782 1.888c.403.344.947.445 1.47.491.54.048 1.25.048 2.126.048H12.244c.877 0 1.585 0 2.125-.048.524-.046 1.068-.147 1.47-.491a2.25 2.25 0 00.783-1.887c-.042-.529-.355-.985-.693-1.388-.348-.416-.85-.917-1.469-1.536l-.027-.027-.206-.206-.02-.02c-.28-.28-.52-.521-.736-.704-.226-.192-.473-.363-.776-.462z"/>
</svg>
