<svg xmlns="http://www.w3.org/2000/svg" width="24" height="24" fill="currentColor" viewBox="0 0 24 24">
  <path fill-rule="evenodd" d="M14.034 1.25H9.966c-1.371 0-2.447 0-3.311.07-.88.073-1.607.221-2.265.557A5.75 5.75 0 001.877 4.39c-.336.658-.484 1.385-.556 2.265-.071.864-.071 1.94-.071 3.311v4.068c0 1.371 0 2.447.07 3.311.073.88.221 1.607.557 2.265a5.75 5.75 0 002.513 2.513c.658.336 1.385.485 2.265.556.864.071 1.94.071 3.311.071h4.068c1.371 0 2.447 0 3.311-.07.88-.072 1.607-.221 2.265-.557a5.75 5.75 0 002.513-2.513c.336-.658.485-1.385.556-2.265.071-.864.071-1.94.071-3.311V9.966c0-1.371 0-2.447-.07-3.311-.072-.88-.221-1.607-.557-2.265a5.75 5.75 0 00-2.513-2.513c-.658-.336-1.385-.484-2.265-.556-.864-.071-1.94-.071-3.311-.071zM9.097 13.097l1.206 1.206c.594.594.891.891 1.233 1.002a1.5 1.5 0 00.928 0c.342-.111.639-.408 1.233-1.002l1.206-1.206c1.285-1.285 1.928-1.928 1.971-2.48a1.5 1.5 0 00-.521-1.258C15.932 9 15.023 9 13.206 9h-2.412c-1.817 0-2.726 0-3.147.36a1.5 1.5 0 00-.521 1.258c.043.551.686 1.194 1.971 2.48z"/>
</svg>
