<svg xmlns="http://www.w3.org/2000/svg" width="24" height="24" fill="currentColor" viewBox="0 0 24 24">
  <path fill-rule="evenodd" d="M22.06 1.94c-.664-.664-1.55-.737-2.486-.619-.917.116-2.098.447-3.56.856l-.064.018-6.532 1.83-.064.017c-2.346.657-4.184 1.171-5.438 1.707-.634.271-1.182.573-1.585.946-.422.391-.7.878-.729 1.475-.028.598.207 1.11.593 1.54.369.41.89.763 1.501 1.094 1.21.655 3.007 1.347 5.305 2.23l.06.024c.887.34 1.114.445 1.275.606.161.16.265.388.606 1.275l.023.06c.884 2.298 1.575 4.096 2.23 5.305.332.61.685 1.132 1.095 1.501.429.386.941.621 1.54.593.596-.028 1.084-.307 1.475-.729.373-.403.675-.951.946-1.585.535-1.254 1.05-3.092 1.707-5.439l.018-.063 1.829-6.532.018-.063c.41-1.463.74-2.644.856-3.561.118-.935.045-1.822-.62-2.486z"/>
</svg>
