<svg xmlns="http://www.w3.org/2000/svg" width="24" height="24" fill="currentColor" viewBox="0 0 24 24">
  <path fill-rule="evenodd" d="M10.091 1.25h-.028c-.885 0-1.59 0-2.165.042-.592.043-1.098.134-1.58.339A4.75 4.75 0 004.344 3.2c-.308.424-.51.897-.685 1.463-.17.552-.33 1.238-.528 2.1l-.007.028-1.522 6.597a5.096 5.096 0 012.345-1.257c.577-.134 1.221-.133 1.887-.132h12.332c.666-.001 1.31-.002 1.887.132.896.208 1.7.649 2.345 1.257l-1.522-6.597-.007-.028c-.199-.862-.357-1.548-.528-2.1-.175-.566-.377-1.04-.685-1.462a4.75 4.75 0 00-1.974-1.571c-.482-.205-.988-.296-1.58-.339-.575-.042-1.28-.042-2.165-.042h-3.846zm-4.207 12h12.232c.818 0 1.376 0 1.855.128a3.75 3.75 0 012.651 2.651c.128.48.128 1.037.128 1.855v.232c0 .818 0 1.376-.128 1.855a3.75 3.75 0 01-2.651 2.651c-.48.128-1.037.128-1.855.128H5.884c-.818 0-1.376 0-1.855-.128a3.75 3.75 0 01-2.651-2.651c-.128-.48-.128-1.037-.128-1.855v-.232c0-.818 0-1.376.128-1.855a3.75 3.75 0 012.651-2.651c.48-.129 1.037-.128 1.855-.128zM7 19a1 1 0 100-2 1 1 0 000 2zm3.25-1a.75.75 0 01.75-.75h6a.75.75 0 010 1.5h-6a.75.75 0 01-.75-.75z"/>
</svg>
