<svg xmlns="http://www.w3.org/2000/svg" width="24" height="24" fill="currentColor" viewBox="0 0 24 24">
  <path fill-rule="evenodd" d="M12 1.25C6.063 1.25 1.25 6.063 1.25 12c0 1.527.319 2.982.895 4.3a.75.75 0 001.374-.6A9.216 9.216 0 012.75 12 9.25 9.25 0 1112 21.25a9.206 9.206 0 01-5.55-1.85.75.75 0 10-.901 1.2A10.705 10.705 0 0012 22.75c5.937 0 10.75-4.813 10.75-10.75S17.937 1.25 12 1.25zm5.03 8.78a.75.75 0 10-1.06-1.06L11 13.94l-1.97-1.97a.75.75 0 00-1.06 1.06l2.5 2.5a.75.75 0 001.06 0l5.5-5.5z"/>
</svg>
