<svg xmlns="http://www.w3.org/2000/svg" width="24" height="24" fill="currentColor" viewBox="0 0 24 24">
  <path fill-rule="evenodd" d="M16.343 2.761c-.165-.01-.367-.011-.843-.011H12c-1.883 0-3.245 0-4.312.097-1.057.096-1.75.281-2.313.606a5.25 5.25 0 00-1.922 1.922c-.325.563-.51 1.256-.606 2.313C2.751 8.755 2.75 10.117 2.75 12c0 1.883 0 3.245.097 4.312.096 1.057.281 1.75.606 2.313a5.25 5.25 0 001.922 1.922c.563.325 1.256.51 2.313.606 1.067.096 2.429.097 4.312.097h3.5c.476 0 .678 0 .843-.011a5.25 5.25 0 004.896-4.896c.01-.165.011-.367.011-.843v-1a.75.75 0 011.5 0v1.035c0 .431 0 .686-.015.907a6.75 6.75 0 01-6.293 6.293c-.221.015-.476.015-.907.015h-3.573c-1.837 0-3.267 0-4.41-.104-1.16-.105-2.098-.322-2.927-.8a6.75 6.75 0 01-2.47-2.471c-.48-.83-.696-1.767-.801-2.927-.104-1.143-.104-2.573-.104-4.41v-.076c0-1.837 0-3.267.104-4.41.105-1.16.322-2.098.8-2.927a6.75 6.75 0 012.471-2.47c.83-.48 1.767-.696 2.927-.801 1.143-.104 2.573-.104 4.41-.104h3.573c.431 0 .686 0 .907.014a6.75 6.75 0 016.293 6.295c.015.22.015.475.015.906V9.5a.75.75 0 01-1.5 0v-1c0-.476 0-.678-.011-.843a5.25 5.25 0 00-4.896-4.896zM10.667 13.75a1.917 1.917 0 00-1.917 1.917c0 .322.261.583.583.583h5.334a.583.583 0 00.583-.583 1.917 1.917 0 00-1.917-1.917h-2.666zM7.25 15.667a3.417 3.417 0 013.417-3.417h2.666a3.417 3.417 0 013.417 3.417c0 1.15-.933 2.083-2.083 2.083H9.333a2.083 2.083 0 01-2.083-2.083zM10.75 8a1.25 1.25 0 112.5 0 1.25 1.25 0 01-2.5 0zM12 5.25a2.75 2.75 0 100 5.5 2.75 2.75 0 000-5.5z"/>
</svg>
