<svg xmlns="http://www.w3.org/2000/svg" width="24" height="24" fill="currentColor" viewBox="0 0 24 24">
  <path fill-rule="evenodd" d="M12 1.25c-1.527 0-2.982.319-4.3.895a.75.75 0 00.6 1.374A9.216 9.216 0 0112 2.75 9.25 9.25 0 112.75 12c0-2.084.688-4.004 1.85-5.55a.75.75 0 10-1.2-.901A10.706 10.706 0 001.25 12c0 5.937 4.813 10.75 10.75 10.75S22.75 17.937 22.75 12 17.937 1.25 12 1.25zm1.53 7.22a.75.75 0 10-1.06 1.06l1.72 1.72H8a.75.75 0 000 1.5h6.19l-1.72 1.72a.75.75 0 101.06 1.06l3-3a.75.75 0 000-1.06l-3-3z"/>
</svg>
