<svg xmlns="http://www.w3.org/2000/svg" width="24" height="24" fill="currentColor" viewBox="0 0 24 24">
  <path fill-rule="evenodd" d="M12 1.25h-.057c-2.309 0-4.118 0-5.53.19-1.444.194-2.584.6-3.479 1.494-.895.895-1.3 2.035-1.494 3.48-.19 1.411-.19 3.22-.19 5.529v.114c0 2.309 0 4.118.19 5.53.194 1.444.6 2.584 1.494 3.479.895.895 2.035 1.3 3.48 1.494 1.411.19 3.22.19 5.529.19h2.585c1.141 0 2.036 0 2.759-.05.735-.05 1.347-.153 1.913-.388a5.75 5.75 0 003.112-3.112c.235-.566.338-1.178.389-1.913.049-.723.049-1.618.049-2.76V14a.75.75 0 00-1.5 0v.5c0 1.175 0 2.019-.046 2.685-.045.659-.131 1.089-.277 1.441a4.25 4.25 0 01-2.3 2.3c-.353.147-.783.233-1.442.278-.666.046-1.51.046-2.685.046H12c-2.378 0-4.086-.002-5.386-.176-1.279-.172-2.05-.5-2.62-1.069-.569-.57-.896-1.34-1.068-2.619-.174-1.3-.176-3.008-.176-5.386s.002-4.086.176-5.386c.172-1.279.5-2.05 1.069-2.62.57-.569 1.34-.896 2.619-1.068 1.3-.174 3.008-.176 5.386-.176h2.5c1.175 0 2.019 0 2.685.046.659.045 1.089.131 1.441.278a4.25 4.25 0 012.3 2.3c.147.352.233.782.278 1.441.046.666.046 1.51.046 2.685v.5a.75.75 0 001.5 0v-.528c0-1.141 0-2.036-.05-2.759-.05-.735-.153-1.347-.388-1.913A5.75 5.75 0 0019.2 1.688c-.566-.235-1.178-.339-1.913-.389-.723-.049-1.618-.049-2.76-.049H12zm2 5.5c.964 0 1.611.002 2.095.067.461.062.659.169.789.3.13.13.237.327.3.788.064.483.066 1.131.066 2.095v4c0 .964-.002 1.612-.067 2.095-.062.461-.169.659-.3.789-.13.13-.327.237-.788.3-.483.064-1.131.066-2.095.066H9.5c-.718 0-1.2 0-1.567-.038-.355-.036-.52-.1-.628-.173a1.25 1.25 0 01-.344-.345c-.073-.108-.137-.272-.173-.627-.037-.367-.038-.85-.038-1.567V14a.75.75 0 00-1.5 0v.538c0 .67 0 1.229.046 1.681.048.473.153.913.417 1.309.201.3.459.558.76.759.395.264.834.369 1.308.417.452.046 1.011.046 1.68.046H14.053c.898 0 1.648 0 2.242-.08.628-.084 1.195-.27 1.65-.726.456-.455.642-1.022.726-1.65.08-.594.08-1.344.08-2.242V9.948c0-.898 0-1.648-.08-2.242-.084-.628-.27-1.195-.726-1.65-.455-.456-1.022-.642-1.65-.726-.594-.08-1.344-.08-2.242-.08h-4.59c-.67 0-1.229 0-1.681.046-.474.048-.913.153-1.309.417-.3.201-.558.459-.759.76-.264.395-.369.835-.417 1.308-.046.452-.046 1.011-.046 1.68V9.5H6h-.75v.5a.75.75 0 101.5 0v-.5c0-.718 0-1.2.038-1.567.036-.355.1-.519.173-.627a1.25 1.25 0 01.344-.345c.109-.073.273-.137.628-.173.367-.037.85-.038 1.567-.038H14z"/>
</svg>
