<svg xmlns="http://www.w3.org/2000/svg" width="24" height="24" fill="currentColor" viewBox="0 0 24 24">
  <path fill-rule="evenodd" d="M16.5 2.75c.479 0 .674 0 .834.013a4.25 4.25 0 013.903 3.904c.012.159.013.354.013.833V8a.75.75 0 001.5 0v-.54c0-.426 0-.686-.018-.911a5.75 5.75 0 00-5.28-5.281 12.416 12.416 0 00-.912-.018h-4.597c-2.309 0-4.118 0-5.53.19-1.444.194-2.584.6-3.479 1.494-.895.895-1.3 2.035-1.494 3.48-.19 1.411-.19 3.22-.19 5.529v.114c0 2.309 0 4.118.19 5.53.194 1.444.6 2.584 1.494 3.479.895.895 2.035 1.3 3.48 1.494 1.411.19 3.22.19 5.529.19h.114c2.309 0 4.118 0 5.53-.19 1.444-.194 2.584-.6 3.479-1.494.895-.895 1.3-2.035 1.494-3.48.19-1.411.19-3.22.19-5.529V12a.75.75 0 00-.75-.75H6a.75.75 0 000 1.5h15.25c-.002 1.994-.02 3.477-.176 4.636-.172 1.279-.5 2.05-1.069 2.62-.57.569-1.34.896-2.619 1.068-1.3.174-3.008.176-5.386.176s-4.086-.002-5.386-.176c-1.279-.172-2.05-.5-2.62-1.069-.569-.57-.896-1.34-1.068-2.619-.174-1.3-.176-3.008-.176-5.386s.002-4.086.176-5.386c.172-1.279.5-2.05 1.069-2.62.57-.569 1.34-.896 2.619-1.068 1.3-.174 3.008-.176 5.386-.176h4.5z"/>
</svg>
