<svg xmlns="http://www.w3.org/2000/svg" width="24" height="24" fill="currentColor" viewBox="0 0 24 24">
  <path fill-rule="evenodd" d="M12 1.25c-3.556 0-6.22 1.485-7.98 2.952-.492.41-.915.82-1.27 1.198V2.556a.75.75 0 10-1.5 0v5a.75.75 0 001.393.386l.004-.007.024-.038c.022-.034.056-.087.104-.156.095-.138.24-.34.436-.585a12.69 12.69 0 011.77-1.802C6.552 4.043 8.888 2.75 12 2.75A9.23 9.23 0 0121.25 12 9.25 9.25 0 0112 21.25a9.204 9.204 0 01-4.624-1.237.75.75 0 10-.752 1.298A10.704 10.704 0 0012 22.75c5.937 0 10.75-4.813 10.75-10.75A10.73 10.73 0 0012 1.25zM2.75 12a.75.75 0 00-1.5 0c0 2.42.8 4.654 2.15 6.45a.75.75 0 001.199-.9A9.206 9.206 0 012.75 12zM10 8.25a.75.75 0 00-.75.75v3c0 .414.336.75.75.75h3.25v1.5H10a.75.75 0 000 1.5h4a.75.75 0 00.75-.75v-3a.75.75 0 00-.75-.75h-3.25v-1.5H14a.75.75 0 000-1.5h-4z"/>
</svg>
