<svg xmlns="http://www.w3.org/2000/svg" width="24" height="24" fill="currentColor" viewBox="0 0 24 24">
  <path fill-rule="evenodd" d="M8.945 1.25H10a.75.75 0 010 1.5H9c-1.435 0-2.437.002-3.192.103-.734.099-1.122.28-1.399.556-.277.277-.457.665-.556 1.4C3.752 5.562 3.75 6.564 3.75 8c0 1.435.002 2.437.103 3.192.099.734.28 1.122.556 1.399.277.277.665.457 1.4.556.754.101 1.756.103 3.191.103h6c1.435 0 2.436-.002 3.192-.103.734-.099 1.122-.28 1.399-.556.277-.277.457-.665.556-1.4.101-.755.103-1.756.103-3.191 0-1.435-.002-2.437-.103-3.192-.099-.734-.28-1.122-.556-1.399-.277-.277-.665-.457-1.4-.556-.755-.101-1.756-.103-3.191-.103h-1a.75.75 0 010-1.5h1.055c1.367 0 2.47 0 3.337.117.9.12 1.658.38 2.26.981.602.602.86 1.36.982 2.26.116.867.116 1.97.116 3.337v.11c0 1.367 0 2.47-.116 3.337-.122.9-.38 1.658-.982 2.26-.602.602-1.36.86-2.26.982-.867.116-1.97.116-3.337.116H8.945c-1.367 0-2.47 0-3.337-.117-.9-.12-1.658-.38-2.26-.981-.602-.602-.86-1.36-.981-2.26-.117-.867-.117-1.97-.117-3.337v-.11c0-1.367 0-2.47.117-3.337.12-.9.38-1.658.981-2.26.602-.602 1.36-.86 2.26-.981.867-.117 1.97-.117 3.337-.117zM5.25 18a.75.75 0 01.75-.75h12a.75.75 0 110 1.5H6a.75.75 0 01-.75-.75zM9 21.25a.75.75 0 000 1.5h6a.75.75 0 100-1.5H9z"/>
</svg>
