<svg xmlns="http://www.w3.org/2000/svg" width="24" height="24" fill="currentColor" viewBox="0 0 24 24">
  <path fill-rule="evenodd" d="M14.25 3a.75.75 0 01.75-.75h6a.75.75 0 01.53 1.28l-7 7-.5.5a.75.75 0 11-1.06-1.06l.5-.5 5.72-5.72H15a.75.75 0 01-.75-.75zm6 6V6.5a.75.75 0 011.5 0V9a.75.75 0 01-1.5 0zm-9.22 3.97a.75.75 0 010 1.06l-.5.5-5.72 5.72H9a.75.75 0 010 1.5H3a.75.75 0 01-.53-1.28l7-7 .5-.5a.75.75 0 011.06 0zM3 14.25a.75.75 0 01.75.75v2.5a.75.75 0 01-1.5 0V15a.75.75 0 01.75-.75z"/>
</svg>
