<svg xmlns="http://www.w3.org/2000/svg" width="24" height="24" fill="currentColor" viewBox="0 0 24 24">
  <path fill-rule="evenodd" d="M2 21.75a.75.75 0 01-.75-.75V10a.75.75 0 011.5 0v11a.75.75 0 01-.75.75zm0-15A.75.75 0 011.25 6V3a.75.75 0 011.5 0v3a.75.75 0 01-.75.75zm20-4.5a.75.75 0 01.75.75v11a.75.75 0 01-1.5 0V3a.75.75 0 01.75-.75zm0 15a.75.75 0 01.75.75v3a.75.75 0 01-1.5 0v-3a.75.75 0 01.75-.75zm-3.47-4.72a.75.75 0 000-1.06l-2.5-2.5a.75.75 0 10-1.06 1.06l1.22 1.22H7.81l1.22-1.22a.75.75 0 10-1.06-1.06l-2.5 2.5a.75.75 0 000 1.06l2.5 2.5a.75.75 0 001.06-1.06l-1.22-1.22h8.38l-1.22 1.22a.75.75 0 101.06 1.06l2.5-2.5z"/>
</svg>
