<svg xmlns="http://www.w3.org/2000/svg" width="24" height="24" fill="currentColor" viewBox="0 0 24 24">
  <path fill-rule="evenodd" d="M9.737 2.94c-.92.57-2.003 1.434-3.515 2.643l-.205.164c-1.69 1.353-2.36 1.906-2.753 2.63a4.252 4.252 0 00-.18.374c-.32.76-.334 1.628-.334 3.794V17A4.25 4.25 0 007 21.25c.69 0 1.25-.56 1.25-1.25v-4a3.75 3.75 0 117.5 0v4c0 .69.56 1.25 1.25 1.25A4.25 4.25 0 0021.25 17v-4.455c0-2.166-.014-3.034-.334-3.794a4.267 4.267 0 00-.18-.374c-.234-.432-.582-.822-1.228-1.382a.75.75 0 01.983-1.133c.695.603 1.202 1.134 1.564 1.8.089.165.17.334.243.506.453 1.073.452 2.268.452 4.205V17A5.75 5.75 0 0117 22.75 2.75 2.75 0 0114.25 20v-4a2.25 2.25 0 00-4.5 0v4A2.75 2.75 0 017 22.75 5.75 5.75 0 011.25 17v-4.455-.172c0-1.937 0-3.132.452-4.205a5.75 5.75 0 01.243-.505c.555-1.025 1.489-1.77 3.001-2.98.045-.036.09-.071.134-.108l.205-.163.039-.031C6.788 3.209 7.94 2.287 8.947 1.664 9.98 1.024 10.932.654 12 .654c1.795 0 3.305 1.06 5.464 2.762a.75.75 0 01-.928 1.178c-2.243-1.768-3.347-2.44-4.536-2.44-.686 0-1.36.227-2.263.786z"/>
</svg>
