<svg xmlns="http://www.w3.org/2000/svg" width="24" height="24" fill="currentColor" viewBox="0 0 24 24">
  <path fill-rule="evenodd" d="M1.25 12A10.73 10.73 0 0112 1.25c3.554 0 6.217 1.469 7.977 2.921.494.407.918.814 1.273 1.19V4a.75.75 0 011.5 0v3.5a.75.75 0 01-.75.75h-3.5a.75.75 0 010-1.5h1.987c-.372-.424-.86-.923-1.464-1.421C17.45 4.03 15.113 2.75 12 2.75A9.23 9.23 0 002.75 12 9.25 9.25 0 0012 21.25c1.686 0 3.265-.45 4.625-1.237a.75.75 0 11.75 1.298A10.704 10.704 0 0112 22.75C6.063 22.75 1.25 17.937 1.25 12zM22 11.25a.75.75 0 01.75.75c0 2.42-.8 4.654-2.15 6.45a.75.75 0 01-1.199-.9A9.206 9.206 0 0021.25 12a.75.75 0 01.75-.75z"/>
</svg>
