<svg xmlns="http://www.w3.org/2000/svg" width="24" height="24" fill="currentColor" viewBox="0 0 24 24">
  <path fill-rule="evenodd" d="M12.323 2.862a2.25 2.25 0 00-.646 0c-.289.042-.596.177-1.049.515-.464.347-1.013.854-1.801 1.583-1.056.978-1.449 1.355-1.692 1.81a3.25 3.25 0 00-.207.473c-.168.487-.178 1.031-.178 2.47V16c0 .942 0 1.611.036 2.137.036.52.103.846.212 1.107a3.25 3.25 0 001.758 1.759c.261.108.587.175 1.107.21.374.026.821.034 1.387.036v-2.25a.75.75 0 011.5 0v2.25c.566-.002 1.013-.01 1.388-.035.52-.036.845-.103 1.106-.211a3.25 3.25 0 001.759-1.76c.108-.26.175-.586.21-1.105.037-.527.037-1.196.037-2.138V9.713c0-1.439-.01-1.983-.178-2.47a3.251 3.251 0 00-.206-.474 2.427 2.427 0 00-.206-.318.75.75 0 011.198-.902c.125.165.234.333.33.513.119.222.22.453.302.691.26.755.26 1.568.26 2.828v1.044l1.78 1.335.083.062c.624.468 1.056.791 1.375 1.21.28.371.49.79.618 1.238.145.506.144 1.046.144 1.826V20a.75.75 0 01-.932.727l-3.45-.862a4.75 4.75 0 01-2.55 2.523c-.474.197-.982.281-1.578.322-.584.04-1.304.04-2.212.04h-.055c-.91 0-1.63 0-2.213-.04-.596-.04-1.103-.125-1.578-.322a4.75 4.75 0 01-2.57-2.57c-.197-.475-.281-.982-.322-1.578-.04-.584-.04-1.304-.04-2.213V12.5l-.88.66c-.739.554-.987.748-1.162.98a2.251 2.251 0 00-.371.742c-.08.279-.087.594-.087 1.518v2.64l1.068-.268a.75.75 0 11.364 1.455l-2 .5A.75.75 0 011.25 20v-3.704c0-.78 0-1.32.144-1.826a3.75 3.75 0 01.619-1.237c.318-.42.75-.743 1.374-1.211l.083-.062 1.78-1.335V9.58c0-1.26 0-2.073.26-2.828a4.75 4.75 0 01.302-.691c.377-.704.974-1.256 1.898-2.112l.098-.09.03-.029c.75-.694 1.357-1.256 1.892-1.656.555-.414 1.097-.705 1.731-.798a3.75 3.75 0 011.078 0c1.043.152 1.882.86 2.966 1.85a.75.75 0 01-1.01 1.108c-1.155-1.054-1.661-1.399-2.171-1.473zM18.75 12.5v5.914l2.5.625V16.4c0-.923-.007-1.238-.086-1.517a2.248 2.248 0 00-.372-.742c-.175-.232-.423-.426-1.162-.98l-.88-.66zm-8-1.5a1.25 1.25 0 112.5 0 1.25 1.25 0 01-2.5 0zM12 8.25a2.75 2.75 0 100 5.5 2.75 2.75 0 000-5.5z"/>
</svg>
