<svg xmlns="http://www.w3.org/2000/svg" width="24" height="24" fill="currentColor" viewBox="0 0 24 24">
  <path fill-rule="evenodd" d="M15 2.75c.953 0 1.356.002 1.685.045a5.25 5.25 0 014.52 4.52c.043.329.045.732.045 1.685v3.4c0 1.692 0 2.917-.08 3.88-.077.954-.228 1.585-.492 2.103a5.25 5.25 0 01-2.294 2.295c-.519.264-1.15.415-2.104.493-.963.078-2.187.079-3.88.079h-.8c-1.693 0-2.917 0-3.88-.08-.954-.077-1.585-.228-2.103-.492a5.25 5.25 0 01-2.295-2.295c-.264-.518-.415-1.15-.493-2.103-.078-.963-.079-2.188-.079-3.88V9c0-.953.002-1.356.045-1.685a5.25 5.25 0 014.52-4.52c.329-.043.732-.045 1.685-.045h.5a.75.75 0 000-1.5H8.93c-.862 0-1.372 0-1.811.058a6.75 6.75 0 00-5.811 5.81c-.058.44-.058.95-.058 1.812V12.434c0 1.651 0 2.937.084 3.968.086 1.047.262 1.897.652 2.662a6.75 6.75 0 002.95 2.95c.765.39 1.615.566 2.662.652 1.031.084 2.317.084 3.968.084H12.434c1.652 0 2.937 0 3.968-.084 1.047-.086 1.897-.262 2.662-.652a6.75 6.75 0 002.95-2.95c.39-.765.566-1.615.652-2.662.084-1.031.084-2.317.084-3.968V8.93c0-.862 0-1.372-.058-1.811a6.75 6.75 0 00-5.81-5.811c-.44-.058-.95-.058-1.812-.058H14.5a.75.75 0 000 1.5h.5zM8.85 6.663a.75.75 0 00-.7-1.326C5.824 6.565 4.25 9.099 4.25 12c0 2.9 1.574 5.435 3.9 6.663a.75.75 0 10.7-1.326c-1.823-.963-3.1-2.98-3.1-5.337 0-2.357 1.277-4.374 3.1-5.337zm7-1.326a.75.75 0 00-.7 1.326c1.823.963 3.1 2.98 3.1 5.337 0 2.358-1.277 4.374-3.1 5.337a.75.75 0 10.7 1.326c2.326-1.228 3.9-3.762 3.9-6.663 0-2.9-1.574-5.435-3.9-6.663zM9.906 8.516a.75.75 0 01-.089 1.057C9.183 10.109 8.75 10.985 8.75 12c0 1.015.433 1.891 1.067 2.427a.75.75 0 11-.968 1.146C7.864 14.74 7.25 13.438 7.25 12c0-1.438.614-2.74 1.599-3.573a.75.75 0 011.057.089zm4.188 0a.75.75 0 011.057-.089c.985.833 1.599 2.135 1.599 3.573 0 1.438-.614 2.74-1.599 3.573a.75.75 0 11-.968-1.146c.634-.536 1.067-1.412 1.067-2.427 0-1.015-.433-1.891-1.067-2.427a.75.75 0 01-.089-1.057zM12 13.5a1.5 1.5 0 100-3 1.5 1.5 0 000 3z"/>
</svg>
