<svg xmlns="http://www.w3.org/2000/svg" width="24" height="24" fill="currentColor" viewBox="0 0 24 24">
  <path fill-rule="evenodd" d="M12.804.836a3.75 3.75 0 00-1.608 0c-.601.132-1.15.462-1.945.939l-.106.064-5.2 3.12-.101.06c-.753.451-1.273.763-1.66 1.203a3.75 3.75 0 00-.756 1.336c-.179.558-.178 1.165-.178 2.043v4.798c0 .878 0 1.485.178 2.043.157.493.414.947.756 1.336.387.44.907.752 1.66 1.203l.1.06 1.003.602a.75.75 0 10.772-1.286l-1.003-.602c-.892-.535-1.193-.725-1.406-.968a2.25 2.25 0 01-.453-.801c-.099-.308-.107-.663-.107-1.704V9.718c0-1.04.008-1.396.107-1.704.02-.062.042-.122.066-.182l8.327 5.089v8.694c-.274-.11-.635-.32-1.334-.74l-.863-.518a.75.75 0 00-.772 1.286l.864.518.106.064c.795.477 1.344.807 1.945.94.53.116 1.078.116 1.608 0 .601-.133 1.15-.462 1.945-.94l.106-.064 5.2-3.12.1-.06c.754-.451 1.274-.763 1.661-1.203a3.75 3.75 0 00.756-1.336c.179-.558.178-1.165.178-2.043V9.601c0-.878 0-1.485-.178-2.043a3.75 3.75 0 00-.756-1.336c-.387-.44-.907-.752-1.66-1.203l-.1-.06-5.2-3.12-.107-.064c-.795-.477-1.344-.807-1.945-.94zm-.054 20.78c.274-.111.635-.322 1.334-.74l5.2-3.12c.892-.536 1.193-.726 1.406-.969.204-.233.359-.506.453-.801.099-.308.107-.663.107-1.704V9.718c0-1.04-.008-1.396-.107-1.704a2.251 2.251 0 00-.453-.801c-.213-.243-.514-.433-1.406-.968l-5.2-3.12c-.943-.566-1.27-.751-1.601-.824a2.25 2.25 0 00-.966 0c-.33.073-.658.258-1.6.824l-5.2 3.12c-.322.193-.566.34-.758.462L12 11.621l5.609-3.428a.75.75 0 01.782 1.28l-5.641 3.448v8.694z"/>
</svg>
