<svg xmlns="http://www.w3.org/2000/svg" width="24" height="24" fill="currentColor" viewBox="0 0 24 24">
  <path fill-rule="evenodd" d="M12.25 3a.75.75 0 01.75-.75h8a.75.75 0 010 1.5h-8a.75.75 0 01-.75-.75zm-10 0A.75.75 0 013 2.25h6a.75.75 0 010 1.5H6.75V9a.75.75 0 11-1.5 0V3.75H3A.75.75 0 012.25 3zM13 8.25a.75.75 0 000 1.5h8a.75.75 0 000-1.5h-8zM2.25 21a.75.75 0 01.75-.75h3a.75.75 0 010 1.5H3a.75.75 0 01-.75-.75zm7 0a.75.75 0 01.75-.75h11a.75.75 0 010 1.5H10a.75.75 0 01-.75-.75zM3 14.25a.75.75 0 000 1.5h11a.75.75 0 000-1.5H3zm15 0a.75.75 0 000 1.5h3a.75.75 0 000-1.5h-3z"/>
</svg>
