<svg xmlns="http://www.w3.org/2000/svg" width="24" height="24" fill="currentColor" viewBox="0 0 24 24">
  <path fill-rule="evenodd" d="M7.204 1.631c1.021.327 2.195.926 3.592 1.716a.75.75 0 11-.739 1.306C8.666 3.866 7.61 3.335 6.747 3.06c-.847-.271-1.427-.27-1.909-.085-.31.118-.6.284-.86.49-.37.295-.648.736-.844 1.47-.2.75-.3 1.748-.346 3.09a.75.75 0 11-1.5-.05c.047-1.365.15-2.504.396-3.426.25-.937.663-1.703 1.36-2.258l.467.588-.467-.588a4.75 4.75 0 011.258-.717c.912-.35 1.867-.274 2.902.057zm6.15 4.078a.75.75 0 011.028-.263c1.924 1.14 3.432 2.056 4.49 2.92 1.063.866 1.787 1.77 1.961 2.92.072.473.072.955 0 1.428-.186 1.226-.997 2.175-2.184 3.098-1.176.916-2.863 1.913-5.025 3.19l-.05.03-.05.03c-2.231 1.318-3.97 2.345-5.375 2.95-1.417.608-2.667.866-3.847.415a4.753 4.753 0 01-1.258-.718c-.966-.768-1.395-1.822-1.598-3.264-.196-1.398-.196-3.295-.196-5.874V12.5a.75.75 0 011.5 0c0 2.665.002 4.456.182 5.736.175 1.249.501 1.866 1.046 2.299.26.206.55.372.86.49.623.239 1.411.17 2.718-.392 1.307-.561 2.963-1.538 5.254-2.892 2.224-1.314 3.827-2.263 4.918-3.112 1.09-.848 1.523-1.49 1.622-2.14a3.25 3.25 0 000-.977c-.092-.61-.479-1.211-1.426-1.985-.954-.777-2.358-1.636-4.306-2.79a.75.75 0 01-.263-1.028z"/>
</svg>
