<svg xmlns="http://www.w3.org/2000/svg" width="24" height="24" fill="currentColor" viewBox="0 0 24 24">
  <path fill-rule="evenodd" d="M10 2.75c2.038 0 2.804.019 3.453.343.593.297 1.04.825 2.046 2.157H4a1.25 1.25 0 110-2.5h6zm4.288 4H4a2.75 2.75 0 110-5.5h6.189c1.78 0 2.93-.001 3.935.502 1.005.502 1.696 1.423 2.763 2.847L17 4.75l.416.555c.385.022.742.054 1.073.098 1.172.158 2.121.49 2.87 1.238.748.749 1.08 1.698 1.238 2.87.153 1.14.153 2.595.153 4.433v.112c0 1.838 0 3.294-.153 4.433-.158 1.172-.49 2.121-1.238 2.87-.749.748-1.698 1.08-2.87 1.238-1.14.153-2.595.153-4.433.153H9.944c-1.838 0-3.294 0-4.433-.153-1.172-.158-2.121-.49-2.87-1.238-.748-.749-1.08-1.698-1.238-2.87-.153-1.14-.153-2.595-.153-4.433V9a.75.75 0 011.5 0v5c0 1.907.002 3.262.14 4.29.135 1.005.389 1.585.812 2.008.423.423 1.003.677 2.009.812 1.028.139 2.382.14 4.289.14h4c1.907 0 3.262-.002 4.29-.14 1.005-.135 1.585-.389 2.008-.812.423-.423.677-1.003.812-2.009.023-.17.042-.35.058-.539H21a3.75 3.75 0 110-7.5h.168c-.016-.19-.035-.369-.058-.54-.135-1.005-.389-1.585-.812-2.008-.423-.423-1.003-.677-2.009-.812-.975-.131-2.245-.14-4-.14zM21.25 14c0 .854 0 1.597-.013 2.25H21a2.25 2.25 0 010-4.5h.237c.013.653.013 1.396.013 2.25zM7.5 13.25a.75.75 0 000 1.5h5a.75.75 0 000-1.5h-5z"/>
</svg>
