<svg xmlns="http://www.w3.org/2000/svg" width="24" height="24" fill="currentColor" viewBox="0 0 24 24">
  <path fill-rule="evenodd" d="M7.5 2.25h-.121c-1.279 0-2.058 0-2.721.159a5.75 5.75 0 00-4.25 4.249C.25 7.32.25 8.1.25 9.378v2.667c0 1.837 0 3.276.124 4.418.126 1.166.388 2.11.974 2.917.355.488.784.917 1.272 1.272.807.586 1.75.848 2.916.974 1.143.124 2.582.124 4.419.124h3.125c.853 0 1.372 0 1.82-.07a5.75 5.75 0 004.78-4.78c.02-.132.035-.27.045-.42.172.128.324.238.458.328.218.146.452.286.707.358a2.25 2.25 0 002.709-1.354c.095-.247.124-.519.137-.78.014-.266.014-.602.014-1.011V9.979c0-.409 0-.745-.014-1.01-.013-.262-.042-.534-.137-.78a2.25 2.25 0 00-2.709-1.355c-.255.072-.49.212-.707.358a12.99 12.99 0 00-.468.335 5.308 5.308 0 00-.124-.87 5.75 5.75 0 00-4.249-4.248c-.662-.16-1.442-.16-2.72-.159H12a.75.75 0 000 1.5h.5c1.438 0 2.025.005 2.492.117a4.25 4.25 0 013.14 3.14c.113.468.118 1.055.118 2.493V15c0 .958-.002 1.35-.052 1.665a4.25 4.25 0 01-3.533 3.533c-.316.05-.707.052-1.665.052h-3c-1.892 0-3.25-.001-4.302-.115-1.038-.112-1.688-.328-2.196-.697a4.249 4.249 0 01-.94-.94c-.37-.508-.585-1.158-.697-2.196-.114-1.052-.115-2.41-.115-4.302V9.5c0-1.438.005-2.025.117-2.492a4.25 4.25 0 013.14-3.14c.468-.113 1.055-.118 2.493-.118H8a.75.75 0 100-1.5h-.5zM19.75 10V14.001c0 .267.002.32.009.365a.75.75 0 00.204.408c.031.032.073.065.287.226.348.261.586.44.77.563.191.129.262.155.277.159a.75.75 0 00.902-.451c.006-.014.028-.087.04-.317.01-.222.011-.519.011-.954v-4c0-.435 0-.732-.012-.954-.011-.23-.033-.302-.038-.316a.75.75 0 00-.903-.452c-.015.004-.086.03-.277.159a21.07 21.07 0 00-.77.563c-.214.16-.256.195-.287.227a.75.75 0 00-.204.408 2.872 2.872 0 00-.009.365z"/>
</svg>
