<svg xmlns="http://www.w3.org/2000/svg" width="24" height="24" fill="currentColor" viewBox="0 0 24 24">
  <path fill-rule="evenodd" d="M2.75 12a9.25 9.25 0 0118.5 0c0 1.49-.352 2.897-.977 4.143l-.021-.024c-.251-.286-.532-.602-.837-.893-.595-.566-1.395-1.148-2.415-1.148-.893 0-1.628.509-2.164.985-.278.248-.535.517-.761.76l-.092.1-1.124-1.125-.037-.037c-.635-.635-1.165-1.165-1.642-1.529-.504-.384-1.036-.654-1.68-.654-.644 0-1.176.27-1.68.654-.477.364-1.007.894-1.642 1.53l-.037.036-.228.228c-.607.607-.988.983-1.31 1.2-.272.184-.408.19-.558.154-.193-.048-.289-.122-.402-.318-.151-.262-.277-.657-.488-1.346A9.248 9.248 0 012.75 12zm16.459 5.205c.08.091.16.184.243.277a9.308 9.308 0 01-1.953 1.957l-2.454-2.455.13-.14c.218-.236.436-.462.659-.66.466-.415.845-.606 1.166-.606.427 0 .864.243 1.38.735.251.238.493.509.743.795l.085.097zM12 21.25c1.509 0 2.932-.36 4.189-1l-2.72-2.72-1.67-1.671c-.683-.682-1.142-1.139-1.53-1.434-.37-.283-.585-.347-.769-.347-.184 0-.4.064-.77.347-.387.295-.846.752-1.528 1.434l-.228.228-.049.049c-.543.543-1.026 1.026-1.482 1.333-.518.35-1.087.534-1.76.366-.63-.157-1.046-.514-1.34-1.024-.246-.428-.418-.99-.601-1.588l-.021-.067A10.748 10.748 0 011.25 12C1.25 6.063 6.063 1.25 12 1.25S22.75 6.063 22.75 12c0 2.142-.627 4.14-1.709 5.817a10.804 10.804 0 01-3.224 3.224A10.704 10.704 0 0112 22.75c-1.957 0-3.794-.523-5.376-1.439a.75.75 0 01.752-1.298A9.204 9.204 0 0012 21.25zM12.75 9c0-.69.56-1.25 1.25-1.25a.75.75 0 000-1.5A2.75 2.75 0 1016.75 9a.75.75 0 00-1.5 0 1.25 1.25 0 11-2.5 0z"/>
</svg>
