<svg xmlns="http://www.w3.org/2000/svg" width="24" height="24" fill="currentColor" viewBox="0 0 24 24">
  <path fill-rule="evenodd" d="M12.75 2a.75.75 0 00-1.5 0v11a.75.75 0 001.5 0V2zm0 15a.75.75 0 00-1.5 0v5a.75.75 0 001.5 0v-5zM21 4a1 1 0 100-2 1 1 0 000 2zm0 5a1 1 0 100-2 1 1 0 000 2zm0 4a1 1 0 100-2 1 1 0 000 2zm0 4a1 1 0 100-2 1 1 0 000 2zM4 21a1 1 0 11-2 0 1 1 0 012 0zm3 1a1 1 0 100-2 1 1 0 000 2zm11-1a1 1 0 11-2 0 1 1 0 012 0zm4 0a1 1 0 11-2 0 1 1 0 012 0zM4 16a1 1 0 11-2 0 1 1 0 012 0zm14-4a1 1 0 11-2 0 1 1 0 012 0zM7 13a1 1 0 100-2 1 1 0 000 2zm-3-1a1 1 0 11-2 0 1 1 0 012 0zm0-4a1 1 0 11-2 0 1 1 0 012 0zm14-5a1 1 0 11-2 0 1 1 0 012 0zM7 4a1 1 0 100-2 1 1 0 000 2zM4 3a1 1 0 11-2 0 1 1 0 012 0z"/>
</svg>
