<svg xmlns="http://www.w3.org/2000/svg" width="24" height="24" fill="currentColor" viewBox="0 0 24 24">
  <path fill-rule="evenodd" d="M10.867 2.307a4.25 4.25 0 012.266 0c.384.106.776.304 1.31.67.542.372 1.186.887 2.086 1.607l2 1.6c1.135.908 1.589 1.279 1.912 1.725.299.412.521.875.656 1.365.147.532.153 1.117.153 2.571V14c0 1.413 0 2.427-.066 3.223-.064.787-.188 1.295-.397 1.707a4.25 4.25 0 01-1.857 1.857c-.412.21-.92.333-1.707.397-.796.066-1.81.066-3.223.066H7.5c-.479 0-.674 0-.833-.013a4.25 4.25 0 01-3.904-3.903c-.012-.16-.013-.355-.013-.834V16a.75.75 0 00-1.5 0v.54c0 .426 0 .686.018.911a5.75 5.75 0 005.28 5.281c.226.018.486.018.912.018h6.574c1.371 0 2.447 0 3.311-.07.88-.072 1.607-.221 2.265-.557a5.75 5.75 0 002.513-2.513c.336-.658.485-1.385.556-2.265.071-.864.071-1.94.071-3.311V11.73c0-1.302 0-2.103-.206-2.854a5.75 5.75 0 00-.889-1.848c-.457-.63-1.082-1.13-2.099-1.944l-.09-.072-2-1.6-.023-.018c-.872-.698-1.559-1.247-2.151-1.654-.605-.415-1.153-.711-1.759-.879a5.75 5.75 0 00-3.066 0c-.606.168-1.154.464-1.759.88-.592.406-1.279.955-2.151 1.653l-.023.018-2.27 1.816-.068.055c-.773.618-1.248.998-1.625 1.453a5.75 5.75 0 00-1.201 2.5c-.12.578-.12 1.187-.12 2.176V12a.75.75 0 001.5 0v-.5c0-1.105.004-1.55.089-1.96a4.25 4.25 0 01.887-1.847c.267-.322.613-.604 1.476-1.294L7.47 4.584c.9-.72 1.544-1.235 2.086-1.607.534-.366.926-.564 1.31-.67zM9 15.25a.75.75 0 000 1.5h6a.75.75 0 000-1.5H9z"/>
</svg>
