<svg xmlns="http://www.w3.org/2000/svg" width="24" height="24" fill="currentColor" viewBox="0 0 24 24">
  <path fill-rule="evenodd" d="M9.5 1.25h-.105c-1.294 0-2.059 0-2.712.13A6.75 6.75 0 001.38 6.683c-.13.653-.13 1.418-.13 2.712V10a.75.75 0 001.5 0v-.5c0-1.43.004-2.035.1-2.524A5.25 5.25 0 016.977 2.85C7.465 2.754 8.07 2.75 9.5 2.75H12c1.883 0 3.245 0 4.312.097 1.057.096 1.75.281 2.313.606a5.25 5.25 0 011.922 1.922c.325.563.51 1.256.606 2.313.096 1.067.097 2.429.097 4.312v3.172c0 .345 0 .49-.008.627a5.25 5.25 0 01-1.334 3.221c-.092.103-.194.206-.438.45-.244.244-.347.346-.45.438a5.249 5.249 0 01-2.27 1.195V19c0-.476 0-.796.017-1.043.017-.241.046-.358.078-.435.127-.307.37-.55.677-.677.077-.032.194-.061.435-.078.247-.017.567-.017 1.043-.017h.5a.75.75 0 000-1.5h-.525c-.445 0-.816 0-1.12.02a2.822 2.822 0 00-.907.19 2.75 2.75 0 00-1.489 1.488c-.12.29-.167.59-.188.907-.021.304-.021.675-.021 1.12v2.275H9.5c-1.43 0-2.035-.004-2.524-.1a5.25 5.25 0 01-4.125-4.126c-.097-.489-.101-1.094-.101-2.524V14a.75.75 0 00-1.5 0v.605c0 1.294 0 2.06.13 2.712a6.75 6.75 0 005.303 5.303c.653.13 1.418.13 2.712.13h5.8c.315 0 .503 0 .685-.01a6.75 6.75 0 004.142-1.715c.136-.123.269-.255.492-.478l.016-.017.017-.016c.223-.223.355-.356.478-.492a6.75 6.75 0 001.715-4.141c.01-.183.01-.371.01-.686v-3.233c0-1.837 0-3.267-.104-4.41-.105-1.16-.322-2.098-.8-2.927a6.75 6.75 0 00-2.471-2.47c-.83-.48-1.767-.696-2.927-.801-1.143-.104-2.573-.104-4.41-.104H9.5z"/>
</svg>
