<svg xmlns="http://www.w3.org/2000/svg" width="24" height="24" fill="currentColor" viewBox="0 0 24 24">
  <path fill-rule="evenodd" d="M7.764 2.75c.387 0 .52 0 .638.014a2.25 2.25 0 011.629 1.007c.064.1.125.218.298.564l.02.04c.146.292.246.493.364.673a3.75 3.75 0 002.714 1.677c.214.025.438.025.765.025H16c.978 0 1.32.006 1.582.076a2.25 2.25 0 011.591 1.591c.048.18.067.398.073.833h-6.213c-1.172 0-2.12 0-2.88.095-.789.098-1.463.308-2.036.794-.572.485-.89 1.115-1.118 1.878-.218.732-.374 1.669-.566 2.825l-.009.048-1.051 6.312a8.749 8.749 0 01-.565-.055c-.734-.099-1.122-.28-1.4-.556-.276-.277-.456-.666-.555-1.4-.102-.755-.103-1.756-.103-3.191v-3a.75.75 0 00-1.5 0v3.055c0 1.367 0 2.47.116 3.337.121.9.38 1.657.982 2.26.602.601 1.36.86 2.26.981.36.049.762.077 1.206.094.06.015.122.023.186.023h11.568c.839 0 1.414 0 1.921-.144a3.75 3.75 0 002.357-1.997c.226-.476.32-1.043.458-1.87l.019-.116.083-.5a.75.75 0 10-1.48-.246l-.083.5c-.164.986-.228 1.327-.352 1.589a2.25 2.25 0 01-1.414 1.197c-.278.08-.625.087-1.625.087H7.999c-.404 0-.774 0-1.113-.003l1.018-6.11c.203-1.216.345-2.06.533-2.692.182-.612.383-.936.65-1.162.266-.226.619-.37 1.253-.45.654-.082 1.51-.083 2.743-.083h6.369c.554 0 .93 0 1.219.021.283.021.415.058.496.096.331.155.578.446.676.798.024.087.04.223.013.506-.027.288-.088.659-.18 1.206l-.083.5a.75.75 0 101.48.246l.083-.5.005-.027c.085-.513.156-.938.189-1.287.033-.36.033-.705-.062-1.046a2.75 2.75 0 00-1.486-1.755c-.321-.15-.662-.206-1.023-.233l-.031-.002c-.007-.503-.032-.895-.126-1.244a3.75 3.75 0 00-2.651-2.651c-.48-.129-1.037-.129-1.855-.128H14.236c-.387 0-.52-.001-.638-.015a2.25 2.25 0 01-1.629-1.007c-.064-.099-.125-.218-.298-.564l-.02-.039a6.89 6.89 0 00-.364-.673 3.75 3.75 0 00-2.714-1.678 6.87 6.87 0 00-.765-.024h-.899c-.878 0-1.587 0-2.16.05-.59.052-1.105.162-1.577.425a3.75 3.75 0 00-1.447 1.447c-.263.472-.373.988-.425 1.577-.05.573-.05 1.282-.05 2.16V9a.75.75 0 001.5 0V6.944c0-.922 0-1.564.045-2.063.043-.489.123-.767.24-.978a2.25 2.25 0 01.868-.868c.21-.117.49-.198.978-.24.499-.045 1.142-.045 2.063-.045h.82z"/>
</svg>
