<svg xmlns="http://www.w3.org/2000/svg" width="24" height="24" fill="currentColor" viewBox="0 0 24 24">
  <path fill-rule="evenodd" d="M9.697 2.819c-.25-.064-.539-.07-1.38-.07h-.755c-1.22 0-2.071.002-2.722.077-.635.074-.983.209-1.239.411a2.25 2.25 0 00-.363.364c-.203.256-.338.604-.412 1.239-.075.65-.076 1.502-.076 2.722V9a.75.75 0 01-1.5 0V7.516c0-1.163 0-2.101.086-2.848.09-.773.28-1.435.727-2a3.75 3.75 0 01.606-.606c.564-.447 1.226-.637 1.999-.726.747-.086 1.685-.086 2.848-.086h.896c.71 0 1.199 0 1.653.114a3.75 3.75 0 011.922 1.188c.305.355.524.792.841 1.427l.043.086c.257.513.331.65.418.75.168.196.392.334.64.397.13.032.285.038.86.038H16.643c1.258 0 2.06 0 2.736.204a4.75 4.75 0 013.166 3.167c.205.676.205 1.478.205 2.736V12a.75.75 0 01-1.5 0v-.5c0-1.45-.008-2.01-.14-2.444a3.25 3.25 0 00-2.166-2.166c-.435-.132-.994-.14-2.444-.14H14.709c-.456 0-.813 0-1.147-.084a2.75 2.75 0 01-1.41-.871c-.224-.26-.383-.58-.587-.987l-.036-.073c-.376-.752-.51-1.009-.679-1.204a2.25 2.25 0 00-1.153-.712zM2 12.25a.75.75 0 01.75.75v1c0 1.907.002 3.261.14 4.29.135 1.005.389 1.585.812 2.008.423.423 1.003.677 2.009.812 1.028.138 2.382.14 4.289.14h6.5c1.45 0 2.009-.008 2.443-.14a3.25 3.25 0 002.167-2.167c.132-.434.14-.993.14-2.443V16a.75.75 0 011.5 0v.643c0 1.258 0 2.06-.204 2.736a4.75 4.75 0 01-3.167 3.166c-.676.205-1.478.205-2.736.205H9.944c-1.838 0-3.294 0-4.433-.153-1.172-.158-2.121-.49-2.87-1.238-.748-.749-1.08-1.698-1.238-2.87-.153-1.14-.153-2.595-.153-4.433V13a.75.75 0 01.75-.75zm10-.5a2.25 2.25 0 100 4.5 2.25 2.25 0 000-4.5zM8.25 14a3.75 3.75 0 117.5 0 3.75 3.75 0 01-7.5 0zM18 12a1 1 0 100-2 1 1 0 000 2z"/>
</svg>
