<svg xmlns="http://www.w3.org/2000/svg" width="24" height="24" fill="currentColor" viewBox="0 0 24 24">
  <path fill-rule="evenodd" d="M18.5 2.75a2.75 2.75 0 102.486 1.572.75.75 0 011.355-.644 4.25 4.25 0 11-7.898 3.09 8.286 8.286 0 00-2.182.44.75.75 0 01-.493-1.416 9.78 9.78 0 012.488-.514A4.25 4.25 0 0118.5 1.25a.75.75 0 010 1.5zM8.77 8.44a.75.75 0 01.062 1.059 8.207 8.207 0 00-2.064 4.943A4.252 4.252 0 015.5 22.75a4.25 4.25 0 01-.222-8.494A9.719 9.719 0 017.712 8.5.75.75 0 018.77 8.44zM2.75 18.5a2.75 2.75 0 115.5 0 2.75 2.75 0 01-5.5 0z"/>
</svg>
