<svg xmlns="http://www.w3.org/2000/svg" width="24" height="24" fill="currentColor" viewBox="0 0 24 24">
  <path fill-rule="evenodd" d="M5 1.25a.75.75 0 01.75.75v1.25H20a.75.75 0 01.67 1.085l-1.568 3.138c-.544 1.089-.745 1.505-.824 1.928a3.25 3.25 0 000 1.198c.08.423.28.84.824 1.928l1.569 3.138A.75.75 0 0120 16.75H9a.75.75 0 010-1.5h9.787l-1.027-2.052a93.859 93.859 0 00-.05-.102c-.477-.952-.784-1.565-.906-2.22a4.75 4.75 0 010-1.752c.123-.655.43-1.268.906-2.22l.05-.102 1.026-2.052H5.75V22a.75.75 0 01-1.5 0V2A.75.75 0 015 1.25z"/>
</svg>
