<svg xmlns="http://www.w3.org/2000/svg" width="24" height="24" fill="currentColor" viewBox="0 0 24 24">
  <path fill-rule="evenodd" d="M15.25 5a3.75 3.75 0 117.5 0 3.75 3.75 0 01-7.5 0zM19 2.75a2.25 2.25 0 100 4.5 2.25 2.25 0 000-4.5zM5.817 8.34A3.251 3.251 0 019 5.75h4a.75.75 0 000-1.5H9a4.751 4.751 0 00-4.701 4.065 3.751 3.751 0 000 7.37A4.751 4.751 0 009 19.75h4a.75.75 0 000-1.5H9a3.251 3.251 0 01-3.183-2.59 3.751 3.751 0 000-7.32zM5 9.75a2.25 2.25 0 100 4.5 2.25 2.25 0 000-4.5zm14 5.5a3.75 3.75 0 100 7.5 3.75 3.75 0 000-7.5zM16.75 19a2.25 2.25 0 114.5 0 2.25 2.25 0 01-4.5 0z"/>
</svg>
