<svg xmlns="http://www.w3.org/2000/svg" width="24" height="24" fill="currentColor" viewBox="0 0 24 24">
  <path fill-rule="evenodd" d="M10.745 3.083a.75.75 0 10-1.49-.166L7.995 14.25H2a.75.75 0 000 1.5h5.829l-.574 5.167a.75.75 0 101.49.166l.593-5.333h4.49l-.573 5.167a.75.75 0 101.49.166l.593-5.333H20a.75.75 0 000-1.5h-4.495l.24-2.167a.75.75 0 10-1.49-.166l-.26 2.333h-4.49l.5-4.5H21a.75.75 0 000-1.5h-4.829l.074-.667.5-4.5a.75.75 0 10-1.49-.166l-.5 4.5-.093.833h-4.49l.573-5.167zM2.25 9A.75.75 0 013 8.25h3a.75.75 0 110 1.5H3A.75.75 0 012.25 9z"/>
</svg>
