<svg xmlns="http://www.w3.org/2000/svg" width="24" height="24" fill="currentColor" viewBox="0 0 24 24">
  <path fill-rule="evenodd" d="M15.944 2.25H21a.75.75 0 010 1.5h-5c-1.907 0-3.261.002-4.29.14-1.005.135-1.585.389-2.008.812-.423.423-.677 1.003-.812 2.009-.138 1.028-.14 2.382-.14 4.289v10a.75.75 0 01-1.28.53l-5-5a.75.75 0 111.06-1.06l3.72 3.72V10.943c0-1.838 0-3.294.153-4.433.158-1.172.49-2.121 1.238-2.87.749-.748 1.698-1.08 2.87-1.238 1.14-.153 2.595-.153 4.433-.153zM13.53 15.47a.75.75 0 010 1.06l-2.5 2.5a.75.75 0 11-1.06-1.06l2.5-2.5a.75.75 0 011.06 0z"/>
</svg>
