<svg xmlns="http://www.w3.org/2000/svg" width="24" height="24" fill="currentColor" viewBox="0 0 24 24">
  <path fill-rule="evenodd" d="M2 2.25a.75.75 0 01.75.75v18a.75.75 0 01-1.5 0V3A.75.75 0 012 2.25zm9.964 1h.072c.904 0 1.633 0 2.222.053.606.055 1.136.172 1.617.45a3.75 3.75 0 011.373 1.372c.277.481.394 1.011.449 1.617.053.589.053 1.318.053 2.222V10a.75.75 0 01-1.5 0V9c0-.948 0-1.61-.047-2.122-.046-.503-.13-.788-.254-1.003a2.25 2.25 0 00-.824-.824c-.215-.124-.5-.208-1.003-.254-.512-.046-1.174-.047-2.122-.047s-1.61 0-2.122.047c-.503.046-.788.13-1.003.254a2.25 2.25 0 00-.824.824c-.124.215-.208.5-.254 1.003C7.751 7.39 7.75 8.052 7.75 9v6c0 .948 0 1.61.047 2.122.046.503.13.788.254 1.003.198.342.482.626.824.824.215.124.5.208 1.003.254.512.046 1.174.047 2.122.047s1.61 0 2.122-.047c.502-.046.788-.13 1.003-.254.342-.198.626-.482.824-.824.124-.215.208-.5.254-1.003.046-.512.047-1.174.047-2.122v-1a.75.75 0 011.5 0v1.036c0 .904 0 1.633-.053 2.222-.055.606-.172 1.136-.45 1.617a3.75 3.75 0 01-1.372 1.373c-.481.277-1.011.394-1.617.449-.589.053-1.318.053-2.222.053h-.072c-.904 0-1.633 0-2.222-.053-.606-.055-1.136-.172-1.617-.45a3.75 3.75 0 01-1.373-1.372c-.277-.481-.394-1.011-.449-1.617-.053-.589-.053-1.318-.053-2.222V8.964c0-.904 0-1.633.053-2.222.055-.606.172-1.136.45-1.617a3.75 3.75 0 011.372-1.373c.481-.277 1.011-.394 1.617-.449.589-.053 1.318-.053 2.222-.053zM22.75 3a.75.75 0 00-1.5 0v18a.75.75 0 001.5 0V3z"/>
</svg>
