<svg xmlns="http://www.w3.org/2000/svg" width="24" height="24" fill="currentColor" viewBox="0 0 24 24">
  <path fill-rule="evenodd" d="M10 1.25h-.056c-1.838 0-3.294 0-4.433.153-1.172.158-2.121.49-2.87 1.238-.748.749-1.08 1.698-1.238 2.87-.153 1.14-.153 2.595-.153 4.433v4.112c0 1.838 0 3.294.153 4.433.158 1.172.49 2.121 1.238 2.87.749.748 1.698 1.08 2.87 1.238 1.14.153 2.595.153 4.433.153h5.098c1.369 0 2.454 0 3.32-.088.888-.09 1.629-.28 2.277-.712a4.753 4.753 0 001.31-1.311c.434-.648.623-1.39.713-2.277.088-.866.088-1.951.088-3.32V14.5a.75.75 0 00-1.5 0v.5c0 1.42 0 2.429-.08 3.21-.079.77-.227 1.235-.468 1.596-.237.354-.542.66-.896.896-.361.241-.827.39-1.596.468-.781.08-1.79.08-3.21.08h-5c-1.907 0-3.261-.002-4.29-.14-1.005-.135-1.585-.389-2.008-.812-.423-.423-.677-1.003-.812-2.009-.138-1.027-.14-2.382-.14-4.289v-1.25H6c1.435 0 2.437.002 3.192.103.734.099 1.122.28 1.399.556.277.277.457.665.556 1.4.101.755.103 1.756.103 3.191v1a.75.75 0 001.5 0v-1.055c0-1.367 0-2.47-.117-3.337-.12-.9-.38-1.658-.981-2.26-.602-.602-1.36-.86-2.26-.982-.867-.116-1.97-.116-3.337-.116H2.75V10c0-1.907.002-3.261.14-4.29.135-1.005.389-1.585.812-2.008.423-.423 1.003-.677 2.009-.812 1.028-.138 2.382-.14 4.289-.14h5c1.42 0 2.429 0 3.21.08.77.079 1.235.227 1.596.468.354.237.66.542.896.896.241.361.39.827.468 1.596.08.781.08 1.79.08 3.21v.5a.75.75 0 001.5 0v-.542c0-1.369 0-2.454-.088-3.32-.09-.888-.28-1.629-.712-2.277a4.751 4.751 0 00-1.311-1.31c-.648-.434-1.39-.623-2.277-.713-.866-.088-1.951-.088-3.32-.088H10z"/>
</svg>
