<svg xmlns="http://www.w3.org/2000/svg" width="24" height="24" fill="currentColor" viewBox="0 0 24 24">
  <path fill-rule="evenodd" d="M11.778 2.75c.688 0 1.133.001 1.472.022V6A2.75 2.75 0 0016 8.75h1a.75.75 0 000-1.5h-1c-.69 0-1.25-.56-1.25-1.25V3.16c.159.075.313.16.462.256.377.24.712.569 1.536 1.393l.222.221c1.05 1.05 1.467 1.477 1.744 1.975.159.285.284.587.373.901.156.548.163 1.145.163 2.63v.714H11a.75.75 0 000 1.5h11a.75.75 0 000-1.5h-1.25v-.831c0-1.33 0-2.15-.22-2.924a5.75 5.75 0 00-.505-1.22c-.391-.703-.971-1.282-1.912-2.223l-.083-.082-.222-.222-.064-.065c-.74-.739-1.194-1.194-1.726-1.533a5.75 5.75 0 00-1.844-.764c-.616-.136-1.26-.136-2.304-.136h-.122c-1.27 0-2.265 0-3.067.06-.816.063-1.493.19-2.111.479a5.75 5.75 0 00-2.781 2.78c-.289.62-.416 1.296-.478 2.112-.061.802-.061 1.797-.061 3.066v1.503H2a.75.75 0 000 1.5h5a.75.75 0 000-1.5H4.75V9.778c0-1.307 0-2.245.056-2.984.056-.73.162-1.204.342-1.59a4.25 4.25 0 012.056-2.056c.386-.18.86-.286 1.59-.342.739-.055 1.677-.056 2.984-.056zM4 15.25a.75.75 0 01.75.75v.5c0 .479 0 .674.013.834a4.25 4.25 0 003.904 3.903c.159.012.354.013.833.013h5c.479 0 .674 0 .834-.013a4.25 4.25 0 003.903-3.903c.012-.16.013-.355.013-.834V16a.75.75 0 011.5 0v.54c0 .426 0 .686-.018.911a5.75 5.75 0 01-5.28 5.281c-.226.018-.486.018-.912.018H9.46c-.426 0-.686 0-.911-.018a5.75 5.75 0 01-5.281-5.28 12.42 12.42 0 01-.018-.912V16a.75.75 0 01.75-.75z"/>
</svg>
