<svg xmlns="http://www.w3.org/2000/svg" width="24" height="24" fill="currentColor" viewBox="0 0 24 24">
  <path fill-rule="evenodd" d="M4.635 2.75a.885.885 0 00-.885.885 5.79 5.79 0 002.424 4.71l1.929 1.378.062.044c.582.417.957.684 1.266 1.006a4.75 4.75 0 011.236 2.403c.083.438.083.899.083 1.615V20a1.25 1.25 0 102.5 0v-5.133-.076c0-.716 0-1.177.083-1.615a4.75 4.75 0 011.236-2.403c.309-.322.683-.59 1.266-1.006l.062-.044 1.929-1.377a5.79 5.79 0 002.424-4.711.885.885 0 00-.885-.885H15a.75.75 0 010-1.5h4.365a2.385 2.385 0 012.385 2.385 7.29 7.29 0 01-3.052 5.931l-1.929 1.378c-.665.475-.917.659-1.116.867a3.25 3.25 0 00-.847 1.644c-.053.283-.056.594-.056 1.412V20a2.75 2.75 0 11-5.5 0v-5.133c0-.818-.003-1.13-.057-1.412a3.25 3.25 0 00-.846-1.644c-.199-.208-.45-.392-1.116-.867L5.302 9.566A7.29 7.29 0 012.25 3.635 2.385 2.385 0 014.635 1.25H10a.75.75 0 010 1.5H4.635z"/>
</svg>
