<svg xmlns="http://www.w3.org/2000/svg" width="24" height="24" fill="currentColor" viewBox="0 0 24 24">
  <path fill-rule="evenodd" d="M2.53 1.47a.75.75 0 00-1.06 1.06L3.5 4.562A3.75 3.75 0 001.25 8v5.643c0 1.258 0 2.06.205 2.736a4.75 4.75 0 003.166 3.166c.676.205 1.478.205 2.736.205H8a.75.75 0 000-1.5h-.5c-1.45 0-2.009-.008-2.443-.14a3.25 3.25 0 01-2.167-2.167c-.132-.434-.14-.993-.14-2.443V8a2.25 2.25 0 011.958-2.231L17.19 18.25H12a.75.75 0 000 1.5h6.69l1.78 1.78a.75.75 0 001.06-1.06l-2-2-14-14-3-3zM10 4.25a.75.75 0 100 1.5h3.6c1.133 0 1.937 0 2.566.052.62.05 1.005.147 1.31.302a3.25 3.25 0 011.42 1.42c.155.305.251.69.302 1.31.051.63.052 1.434.052 2.566v3.583a.744.744 0 00.318.63.751.751 0 00.727.077l.627-.25a3.704 3.704 0 000-6.88l-.253-.1c-.066-.606-.19-1.131-.437-1.616a4.75 4.75 0 00-2.076-2.076c-.55-.281-1.154-.403-1.868-.461-.697-.057-1.563-.057-2.655-.057H10zm10.746 5.901c.004.371.004.775.004 1.216v2.479a2.204 2.204 0 00-.004-3.695z"/>
</svg>
