<svg xmlns="http://www.w3.org/2000/svg" width="24" height="24" fill="currentColor" viewBox="0 0 24 24">
  <path fill-rule="evenodd" d="M14 2.75c.964 0 1.612.002 2.095.067.461.062.659.169.789.3.13.13.238.327.3.788.064.483.066 1.131.066 2.095v1.25H12a.75.75 0 000 1.5h5c.948 0 1.61 0 2.122.047.503.046.788.13 1.003.254.342.198.626.482.824.824.124.215.208.5.254 1.003.046.512.047 1.174.047 2.122v1c0 .978-.006 1.32-.077 1.582-.092.347-.265.66-.496.918a.75.75 0 001.118 1c.385-.43.673-.952.827-1.53.128-.478.128-1.036.128-1.854V12.964c0-.904 0-1.633-.053-2.222-.055-.606-.171-1.136-.45-1.617a3.75 3.75 0 00-1.372-1.373c-.481-.277-1.011-.394-1.617-.449a10.705 10.705 0 00-.508-.032V5.948c0-.898 0-1.648-.08-2.242-.084-.628-.27-1.195-.725-1.65-.456-.456-1.023-.642-1.65-.726-.595-.08-1.345-.08-2.243-.08H8a.75.75 0 000 1.5h6zM2.53 1.47a.75.75 0 00-1.06 1.06l4.72 4.721c-.558.004-1.037.015-1.448.052-.606.055-1.136.172-1.617.45a3.75 3.75 0 00-1.373 1.372c-.277.481-.394 1.011-.449 1.617-.053.589-.053 1.318-.053 2.222V14.116c0 .818 0 1.376.128 1.855a3.75 3.75 0 002.651 2.651l.195-.724-.195.724c.344.092.729.118 1.221.125v.278c0 .445 0 .816.02 1.12.022.317.07.617.19.907a2.75 2.75 0 001.488 1.489c.29.12.59.167.907.188.304.021.675.021 1.12.021H10a.75.75 0 100-1.5H9c-.476 0-.796 0-1.043-.017-.24-.017-.358-.046-.435-.078a1.25 1.25 0 01-.677-.677c-.032-.077-.061-.194-.078-.435A17.091 17.091 0 016.75 19c0-.476 0-.796.017-1.043.017-.241.046-.358.078-.435.127-.307.37-.55.677-.677.077-.032.194-.061.435-.078A17.07 17.07 0 019 16.75h6.69l1.56 1.56v.19c0 .718 0 1.2-.038 1.567-.036.355-.1.519-.173.628a1.25 1.25 0 01-.345.344c-.108.073-.272.137-.627.173-.367.037-.85.038-1.567.038H14a.75.75 0 000 1.5h.538c.67 0 1.229 0 1.681-.046.473-.048.913-.153 1.309-.418.3-.2.558-.458.759-.758.264-.396.369-.835.417-1.309a7.58 7.58 0 00.03-.425l2.736 2.736a.75.75 0 001.06-1.06l-4-4-2-2-8-8-6-6zm11.66 13.78l-6.5-6.5H7c-.948 0-1.61 0-2.122.047-.502.046-.788.13-1.003.254a2.25 2.25 0 00-.824.824c-.124.215-.208.5-.254 1.003-.046.512-.047 1.174-.047 2.122v1c0 .978.006 1.32.077 1.582a2.25 2.25 0 001.59 1.591c.195.052.434.07.943.075.026-.102.058-.201.1-.3a2.75 2.75 0 011.488-1.489c.29-.12.59-.167.907-.188.304-.021.675-.021 1.12-.021H14.19zM4.25 11a.75.75 0 01.75-.75h1a.75.75 0 010 1.5H5a.75.75 0 01-.75-.75z"/>
</svg>
