<svg xmlns="http://www.w3.org/2000/svg" width="24" height="24" fill="currentColor" viewBox="0 0 24 24">
  <path fill-rule="evenodd" d="M20.75 1a.75.75 0 00-1.5 0v2.25H17a.75.75 0 000 1.5h2.25V7a.75.75 0 001.5 0V4.75H23a.75.75 0 000-1.5h-2.25V1zM8.466 3.25H13.5a.75.75 0 010 1.5h-5c-1.18 0-2.018 0-2.673.056-.646.055-1.044.16-1.359.328a3.25 3.25 0 00-1.334 1.334c-.168.315-.273.713-.328 1.359-.055.655-.056 1.493-.056 2.673v.5a.75.75 0 01-1.5 0v-.534c0-1.139 0-2.04.062-2.766.063-.743.195-1.37.499-1.94a4.75 4.75 0 011.95-1.95c.569-.303 1.196-.435 1.939-.498.725-.062 1.627-.062 2.766-.062zM20 9.75a.75.75 0 01.75.75v3.556c0 1.838 0 3.294-.153 4.433-.158 1.172-.49 2.121-1.238 2.87-.749.748-1.698 1.08-2.87 1.238-1.14.153-2.595.153-4.433.153h-3.59c-1.139 0-2.04 0-2.766-.062-.743-.063-1.37-.195-1.94-.499a4.75 4.75 0 01-1.95-1.95c-.303-.569-.435-1.196-.498-1.939-.062-.726-.062-1.627-.062-2.766V15a.75.75 0 011.5 0v.5c0 1.18 0 2.018.056 2.673.055.646.16 1.044.328 1.359a3.25 3.25 0 001.334 1.334c.315.168.713.273 1.359.328.655.055 1.493.056 2.673.056H12c1.907 0 3.261-.002 4.29-.14 1.005-.135 1.585-.389 2.008-.812.423-.423.677-1.003.812-2.009.138-1.027.14-2.382.14-4.289v-3.5a.75.75 0 01.75-.75zm-7.524.666l.05.033.394.263.046.03c.525.35.987.658 1.31.951.345.311.671.726.671 1.307s-.326.996-.67 1.307c-.324.293-.786.6-1.31.95h-.001l-.046.031-.395.263-.05.033c-.641.428-1.192.796-1.651 1.012-.471.223-1.063.392-1.65.078s-.774-.9-.85-1.415c-.074-.502-.074-1.165-.074-1.937v-.645c0-.771 0-1.434.074-1.936.076-.515.263-1.101.85-1.415.587-.315 1.179-.145 1.65.078.459.216 1.01.584 1.652 1.012zm-2.62.24s.003-.002.013-.002l-.013.002zm.03 0c.041.004.131.025.297.104.346.163.805.467 1.51.937l.395.263c.585.39.952.637 1.183.846.11.099.154.16.17.189l.004.005-.003.005a.883.883 0 01-.171.19c-.231.208-.598.455-1.183.845l-.395.263c-.705.47-1.164.774-1.51.937-.166.079-.256.1-.297.105a1.048 1.048 0 01-.078-.306c-.056-.378-.058-.928-.058-1.776v-.526c0-.848.002-1.398.058-1.776.027-.182.059-.269.078-.306zm-.03 4.688l.013.002c-.01 0-.014-.001-.013-.002zm.038.016c.007.005.01.009.01.01-.001 0-.004-.002-.01-.01zm0-4.72c.006-.008.009-.01.01-.01 0 .001-.003.005-.01.01z"/>
</svg>
