<svg xmlns="http://www.w3.org/2000/svg" width="24" height="24" fill="currentColor" viewBox="0 0 24 24">
  <path fill-rule="evenodd" d="M18 .25a.75.75 0 01.75.75v2.25H21a.75.75 0 010 1.5h-2.25V7a.75.75 0 01-1.5 0V4.75H15a.75.75 0 010-1.5h2.25V1A.75.75 0 0118 .25zm-7.534 3H11.5a.75.75 0 010 1.5h-1c-1.18 0-2.018 0-2.673.056-.646.055-1.044.16-1.359.328a3.25 3.25 0 00-1.334 1.334c-.168.315-.273.713-.328 1.359-.055.655-.056 1.493-.056 2.673v.5a.75.75 0 01-1.5 0v-.534c0-1.139 0-2.04.062-2.766.063-.743.195-1.37.499-1.94a4.75 4.75 0 011.95-1.95c.569-.303 1.196-.435 1.939-.498.725-.062 1.627-.062 2.766-.062zM18 9.75a.75.75 0 01.75.75v4.542c0 1.369 0 2.454-.088 3.32-.09.888-.28 1.629-.712 2.277a4.753 4.753 0 01-1.311 1.31c-.648.434-1.39.623-2.277.713-.866.088-1.951.088-3.32.088H10.466c-1.139 0-2.04 0-2.766-.062-.743-.063-1.37-.195-1.94-.499a4.75 4.75 0 01-1.95-1.95c-.303-.569-.435-1.196-.498-1.939-.062-.726-.062-1.627-.062-2.766V15a.75.75 0 011.5 0v.5c0 1.18 0 2.018.056 2.673.055.646.16 1.044.328 1.359a3.25 3.25 0 001.334 1.334c.315.168.713.273 1.359.328.655.055 1.493.056 2.673.056h.5c1.42 0 2.429 0 3.21-.08.77-.079 1.235-.227 1.596-.468.354-.237.66-.542.896-.896.241-.361.39-.827.468-1.596.08-.781.08-1.79.08-3.21v-4.5a.75.75 0 01.75-.75zM8 7.25a.75.75 0 000 1.5h6a.75.75 0 000-1.5H8zM7.25 12a.75.75 0 01.75-.75h4a.75.75 0 010 1.5H8a.75.75 0 01-.75-.75zM8 15.25a.75.75 0 000 1.5h2a.75.75 0 000-1.5H8z"/>
</svg>
