<svg xmlns="http://www.w3.org/2000/svg" width="24" height="24" fill="currentColor" viewBox="0 0 24 24">
  <path fill-rule="evenodd" d="M12 4.25c-1.361 0-2.787.214-4.224.663-1.931.604-3.885 1.632-5.738 3.139l-.015.012c-.146.12-.264.215-.406.372-.376.416-.59.954-.66 1.48-.071.526-.008 1.101.245 1.602.095.19.208.347.35.546l.022.03.033.046c.175.246.311.437.46.589a2.75 2.75 0 003.051.606 5.05 5.05 0 00.65-.369l.048-.03.738-.46.073-.046c.421-.263.752-.47 1.01-.754.227-.25.406-.541.528-.856.139-.359.174-.747.22-1.242l.008-.086.133-1.422a.75.75 0 00-1.494-.14L6.9 9.353c-.058.622-.08.787-.134.926a1.251 1.251 0 01-.24.39c-.1.11-.238.204-.767.535l-.738.46c-.327.205-.42.26-.494.292a1.25 1.25 0 01-1.387-.275c-.057-.059-.122-.145-.345-.458-.173-.242-.216-.306-.254-.38a1.275 1.275 0 01-.098-.727c.038-.281.149-.521.287-.674.06-.066.095-.096.255-.226C4.696 7.824 6.48 6.889 8.223 6.345A12.677 12.677 0 0112 5.75c1.205 0 2.48.19 3.777.595 1.742.544 3.527 1.48 5.238 2.87.16.13.196.161.255.227.139.153.249.393.287.674.037.282-.005.543-.098.727-.038.075-.08.138-.254.38-.223.313-.288.4-.345.458a1.25 1.25 0 01-1.387.275c-.075-.032-.167-.087-.494-.291l-.738-.461c-.529-.331-.667-.425-.767-.536a1.252 1.252 0 01-.24-.389c-.054-.139-.076-.304-.134-.926l-.132-1.423a.75.75 0 00-1.493.14l.132 1.422.008.086c.046.495.081.883.22 1.242.122.315.3.605.528.856.258.284.589.49 1.01.754l.073.046.738.46.048.03c.256.16.454.285.65.369a2.75 2.75 0 003.051-.606c.149-.152.285-.342.46-.589l.033-.045.022-.031c.142-.198.255-.357.35-.546.253-.5.316-1.076.245-1.602-.07-.526-.284-1.064-.66-1.48-.142-.157-.26-.253-.406-.372l-.015-.012c-1.853-1.507-3.806-2.535-5.738-3.139A14.175 14.175 0 0012 4.25zm.75 7.75a.75.75 0 00-1.5 0v6.19l-1.72-1.72a.75.75 0 00-1.06 1.06l3 3a.75.75 0 001.06 0l3-3a.75.75 0 10-1.06-1.06l-1.72 1.72V12z"/>
</svg>
