<svg xmlns="http://www.w3.org/2000/svg" width="24" height="24" fill="currentColor" viewBox="0 0 24 24">
  <path fill-rule="evenodd" d="M13.25 2.772c-.34-.02-.784-.022-1.472-.022-1.307 0-2.245 0-2.984.056-.73.056-1.204.162-1.59.342a4.25 4.25 0 00-2.056 2.056c-.18.386-.286.86-.342 1.59-.056.739-.056 1.677-.056 2.984v1.472h14.5v-.714c0-1.485-.007-2.082-.163-2.63a4.249 4.249 0 00-.373-.901c-.277-.498-.695-.925-1.744-1.975l-.222-.221c-.824-.824-1.16-1.154-1.536-1.393a4.246 4.246 0 00-.462-.256V6c0 .69.56 1.25 1.25 1.25h1a.75.75 0 010 1.5h-1A2.75 2.75 0 0113.25 6V2.772zm7.5 8.478v-.831c0-1.33 0-2.15-.22-2.924a5.75 5.75 0 00-.505-1.22c-.391-.703-.971-1.282-1.912-2.223l-.083-.082-.222-.222-.064-.065c-.74-.739-1.194-1.194-1.726-1.533a5.75 5.75 0 00-1.844-.764c-.616-.136-1.26-.136-2.304-.136h-.122c-1.27 0-2.265 0-3.067.06-.816.063-1.493.19-2.111.479a5.75 5.75 0 00-2.781 2.78c-.289.62-.416 1.296-.478 2.112-.061.802-.061 1.797-.061 3.066v1.503H2a.75.75 0 000 1.5h20a.75.75 0 000-1.5h-1.25zM6.75 16a.75.75 0 00-1.5 0v3a.75.75 0 001.5 0v-3zm3.25-.75a.75.75 0 01.75.75v6a.75.75 0 01-1.5 0v-6a.75.75 0 01.75-.75zm4.75.75a.75.75 0 00-1.5 0v6a.75.75 0 001.5 0v-6zm3.25-.75a.75.75 0 01.75.75v3a.75.75 0 01-1.5 0v-3a.75.75 0 01.75-.75z"/>
</svg>
