<svg xmlns="http://www.w3.org/2000/svg" width="24" height="24" fill="currentColor" viewBox="0 0 24 24">
  <path fill-rule="evenodd" d="M9.39 3.168c-1.37.473-2.453 1.31-3.32 2.32a.75.75 0 01-1.138-.976C6.528 2.65 8.811 1.25 12 1.25c4.783 0 7.472 3.13 8.933 6.174l.036.074c.52 1.085.967 2.014 1.15 2.85.206.93.098 1.77-.455 2.65-.578.917-1.392 1.358-2.429 1.563-.96.19-2.189.19-3.678.189H12.75V20a2.75 2.75 0 11-5.5 0v-1a.75.75 0 011.5 0v1a1.25 1.25 0 102.5 0v-5.25H8.016a.797.797 0 01-.033 0c-1.284-.002-2.359-.02-3.218-.19-1.037-.204-1.851-.645-2.429-1.563-.53-.843-.654-1.655-.477-2.55.164-.826.588-1.729 1.087-2.771a.75.75 0 011.353.648c-.522 1.09-.849 1.811-.968 2.414-.106.533-.044.953.275 1.46.305.485.71.745 1.45.89.566.113 1.273.147 2.203.157.061-2.593.436-5.338 1.085-7.521.284-.958.63-1.837 1.045-2.556zm5.292.027c.213.368.405.775.579 1.208.695 1.738 1.154 4.068 1.361 6.534a.75.75 0 01-1.494.126c-.2-2.384-.64-4.553-1.26-6.103-.311-.777-.65-1.355-.994-1.727-.338-.367-.629-.483-.874-.483-.267 0-.633.171-1.068.785-.425.6-.818 1.497-1.15 2.616-.602 2.024-.962 4.622-1.023 7.099h6.721c1.586 0 2.666-.003 3.465-.161.74-.146 1.144-.406 1.45-.89.329-.524.386-.958.26-1.528-.142-.646-.508-1.417-1.074-2.598-1-2.084-2.53-4.031-4.899-4.878z"/>
</svg>
