<svg xmlns="http://www.w3.org/2000/svg" width="24" height="24" fill="currentColor" viewBox="0 0 24 24">
  <path fill-rule="evenodd" d="M9.34 3.332l.034.016 10.237 5.119.035.017c.892.446 1.608.804 2.134 1.13.524.325.988.691 1.233 1.208a2.75 2.75 0 010 2.356c-.245.517-.709.883-1.233 1.207-.527.327-1.242.685-2.134 1.13l-.035.018-10.237 5.118-.034.017c-1.47.735-2.615 1.308-3.488 1.662-.442.18-.847.316-1.211.388-.361.071-.743.09-1.106-.027a2.75 2.75 0 01-1.837-2.006c-.084-.371-.032-.75.071-1.103.103-.357.275-.748.493-1.172.43-.84 1.1-1.93 1.962-3.33l.02-.032 1.18-1.918.051-.084c.292-.474.52-.846.843-1.125a2.75 2.75 0 01.972-.543c.406-.129.844-.129 1.4-.128H11a.75.75 0 010 1.5H8.788c-.701 0-.89.008-1.047.058a1.25 1.25 0 00-.441.247c-.125.108-.23.264-.598.861L5.52 15.834c-.885 1.439-1.525 2.479-1.924 3.26a5.406 5.406 0 00-.387.905c-.066.228-.055.327-.049.353.098.43.415.776.835.912.026.008.123.028.355-.018.229-.045.532-.142.937-.306.812-.33 1.904-.875 3.415-1.63L18.94 14.19c.935-.467 1.589-.795 2.05-1.08.472-.293.617-.468.667-.575a1.25 1.25 0 000-1.072c-.05-.107-.195-.282-.667-.574-.461-.286-1.115-.614-2.05-1.081L8.703 4.69c-1.51-.755-2.603-1.3-3.415-1.63a5.405 5.405 0 00-.937-.306c-.232-.046-.33-.026-.355-.018a1.25 1.25 0 00-.835.912c-.006.026-.017.125.049.353.065.224.188.517.387.906.4.78 1.039 1.82 1.924 3.259l.272.44.346.563a.75.75 0 11-1.278.787l-.346-.563-.272-.441-.02-.032c-.86-1.4-1.531-2.49-1.961-3.33a6.828 6.828 0 01-.493-1.172c-.103-.353-.155-.731-.07-1.103a2.75 2.75 0 011.836-2.006c.363-.117.745-.098 1.106-.027.364.072.769.209 1.21.388.874.354 2.02.927 3.49 1.662z"/>
</svg>
