<svg xmlns="http://www.w3.org/2000/svg" width="24" height="24" fill="currentColor" viewBox="0 0 24 24">
  <path fill-rule="evenodd" d="M2.75 12A6.25 6.25 0 019 5.75h.5a.75.75 0 000-1.5H9a7.75 7.75 0 100 15.5h.5a.75.75 0 000-1.5H9A6.25 6.25 0 012.75 12zM14.5 4.25a.75.75 0 000 1.5h.5c1.18 0 2.28.326 3.22.892a.75.75 0 00.775-1.284A7.717 7.717 0 0015 4.25h-.5zm7.504 4.428a.75.75 0 00-1.355.644A6.25 6.25 0 0115 18.25h-.5a.75.75 0 000 1.5h.5a7.75 7.75 0 007.004-11.072zM8 11.25a.75.75 0 000 1.5h8a.75.75 0 000-1.5H8z"/>
</svg>
