<svg xmlns="http://www.w3.org/2000/svg" width="24" height="24" fill="currentColor" viewBox="0 0 24 24">
  <path fill-rule="evenodd" d="M9 1.25h-.162c-1.706 0-2.747 0-3.615.281a5.75 5.75 0 00-3.692 3.692c-.281.868-.281 1.909-.281 3.615V9.5a.75.75 0 001.5 0V9c0-1.92.01-2.702.208-3.313a4.25 4.25 0 012.729-2.729C6.298 2.759 7.08 2.75 9 2.75h5c1.412 0 2.427 0 3.223.066.787.064 1.295.188 1.707.397a4.25 4.25 0 011.857 1.858c.21.41.333.919.397 1.706.065.796.066 1.81.066 3.223v4c0 1.412 0 2.427-.066 3.223-.064.787-.188 1.295-.397 1.706a4.25 4.25 0 01-1.857 1.858c-.412.21-.92.333-1.707.397-.796.065-1.81.066-3.223.066H9c-1.92 0-2.702-.01-3.313-.208a4.25 4.25 0 01-2.729-2.729C2.759 17.702 2.75 16.92 2.75 15v-.5a.75.75 0 00-1.5 0v.662c0 1.706 0 2.747.281 3.615a5.75 5.75 0 003.692 3.691c.868.282 1.909.282 3.615.282h5.196c1.371 0 2.447 0 3.311-.07.88-.073 1.607-.221 2.265-.557a5.75 5.75 0 002.513-2.513c.336-.658.485-1.385.556-2.265.071-.864.071-1.94.071-3.311V9.966c0-1.371 0-2.447-.07-3.311-.072-.88-.221-1.607-.557-2.265a5.75 5.75 0 00-2.513-2.513c-.658-.336-1.385-.485-2.265-.556-.864-.071-1.94-.071-3.311-.071H9zm6.53 4.22a.75.75 0 10-1.06 1.06l1.72 1.72h-2.823c-1.092 0-1.958 0-2.655.057-.714.058-1.317.18-1.868.46a4.75 4.75 0 00-2.076 2.077c-.281.55-.403 1.154-.461 1.868-.057.697-.057 1.563-.057 2.655V17a.75.75 0 101.5 0v-1.6c0-1.133 0-1.937.052-2.566.05-.62.147-1.005.302-1.31a3.25 3.25 0 011.42-1.42c.305-.155.69-.251 1.31-.302.63-.051 1.434-.052 2.566-.052h2.79l-1.72 1.72a.75.75 0 001.06 1.06l3-3a.75.75 0 000-1.06l-3-3z"/>
</svg>
