<svg xmlns="http://www.w3.org/2000/svg" width="24" height="24" fill="currentColor" viewBox="0 0 24 24">
  <path fill-rule="evenodd" d="M15.47 21.53a.75.75 0 001.06 0l2.5-2.5a.75.75 0 10-1.06-1.06l-2.5 2.5a.75.75 0 000 1.06zm-4.528-4.78H21a.75.75 0 00.53-1.28l-5-5a.75.75 0 10-1.06 1.06l3.72 3.72H10.998c-1.907 0-3.261-.002-4.288-.14-1.006-.135-1.586-.389-2.01-.812-.422-.423-.676-1.003-.811-2.009-.138-1.027-.14-2.382-.14-4.289V3a.75.75 0 00-1.5 0v5.056c0 1.838 0 3.294.153 4.433.158 1.172.49 2.121 1.238 2.87.749.748 1.697 1.08 2.87 1.238 1.139.153 2.594.153 4.431.153z"/>
</svg>
