<svg xmlns="http://www.w3.org/2000/svg" width="24" height="24" fill="currentColor" viewBox="0 0 24 24">
  <path fill-rule="evenodd" d="M2.232 11.047A13.213 13.213 0 0112 6.75c.976 0 1.926.105 2.84.305a.75.75 0 10.32-1.466A14.802 14.802 0 0012 5.25a14.713 14.713 0 00-10.873 4.783.75.75 0 101.105 1.014zm16.09-4.377a.75.75 0 10-.644 1.355 13.293 13.293 0 014.09 3.022.75.75 0 101.105-1.014 14.793 14.793 0 00-4.551-3.363zm-8.173 4.265A9.3 9.3 0 0112 10.75c2.455 0 4.684.954 6.34 2.514a.75.75 0 101.028-1.092A10.716 10.716 0 0012 9.25c-.735 0-1.454.074-2.15.215a.75.75 0 00.3 1.47zm-2.773 1.052a.75.75 0 00-.752-1.299c-.72.418-1.39.916-1.992 1.484a.75.75 0 001.029 1.092 9.284 9.284 0 011.715-1.277zM12 14.75c-1.3 0-2.488.471-3.405 1.253a.75.75 0 11-.973-1.14A6.726 6.726 0 0112 13.25c1.67 0 3.2.607 4.378 1.612a.75.75 0 01-.973 1.141A5.226 5.226 0 0012 14.75zM12 19a1 1 0 100-2 1 1 0 000 2z"/>
</svg>
