<svg xmlns="http://www.w3.org/2000/svg" width="24" height="24" fill="currentColor" viewBox="0 0 24 24">
  <path fill-rule="evenodd" d="M8.45.4a.75.75 0 10-.9 1.2l2.2 1.65H7.357c-1.258 0-2.06 0-2.736.205A4.75 4.75 0 001.455 6.62C1.25 7.297 1.25 8.1 1.25 9.357V10a.75.75 0 101.5 0v-.5c0-1.45.008-2.009.14-2.443A3.25 3.25 0 015.057 4.89c.434-.132.993-.14 2.443-.14h9c1.45 0 2.009.008 2.443.14a3.25 3.25 0 012.167 2.167c.132.434.14.993.14 2.443v.5a.75.75 0 101.5 0v-.643c0-1.258 0-2.06-.204-2.736a4.75 4.75 0 00-3.167-3.166c-.676-.205-1.478-.205-2.736-.205H14.25l2.2-1.65a.75.75 0 00-.9-1.2L12 3.063 8.45.4zM2.75 14a.75.75 0 00-1.5 0v.643c0 1.258 0 2.06.205 2.736a4.75 4.75 0 003.166 3.166c.568.173 1.225.2 2.166.204l-.458.916a.75.75 0 001.342.67l.793-1.585h7.072l.793 1.585a.75.75 0 001.342-.67l-.458-.916c.941-.004 1.598-.031 2.166-.203a4.75 4.75 0 003.166-3.167c.205-.676.205-1.478.205-2.736V14a.75.75 0 00-1.5 0v.5c0 1.45-.008 2.009-.14 2.444a3.25 3.25 0 01-2.167 2.166c-.434.132-.993.14-2.443.14h-9c-1.45 0-2.009-.008-2.443-.14a3.25 3.25 0 01-2.167-2.166c-.132-.435-.14-.994-.14-2.444V14z"/>
</svg>
