<svg xmlns="http://www.w3.org/2000/svg" width="24" height="24" fill="currentColor" viewBox="0 0 24 24">
  <path fill-rule="evenodd" d="M4.088 7.736a8.069 8.069 0 0115.728-.422.75.75 0 11-1.453.372 6.569 6.569 0 00-12.804.345l-1.254 6.268a2.9 2.9 0 001.672 3.203c.693.308 1.407.56 2.134.756a.75.75 0 01.157.042c2.44.628 5.023.628 7.464 0a.75.75 0 01.157-.042c.727-.196 1.441-.448 2.134-.756a2.9 2.9 0 001.672-3.202l-.33-1.653a.75.75 0 011.47-.294l.331 1.652c.403 2.014-.666 4.038-2.534 4.868-.681.303-1.381.557-2.093.761l-.104.234a4.853 4.853 0 01-8.87 0l-.104-.234a16.1 16.1 0 01-2.093-.761c-1.868-.83-2.937-2.854-2.534-4.868l1.254-6.269zM12 21.25a3.353 3.353 0 01-2.551-1.177 16.53 16.53 0 005.102 0A3.354 3.354 0 0112 21.25zM12.75 8a.75.75 0 00-1.5 0v2.25H9a.75.75 0 000 1.5h2.25V14a.75.75 0 001.5 0v-2.25H15a.75.75 0 000-1.5h-2.25V8z"/>
</svg>
