<svg xmlns="http://www.w3.org/2000/svg" width="24" height="24" fill="currentColor" viewBox="0 0 24 24">
  <path fill-rule="evenodd" d="M5.527 2.25h-.065c-.383 0-.686 0-.983.066-1.084.242-1.995 1.246-2.13 2.348-.038.302-.012.562.02.885l.004.047c.258 2.64.917 5.015 1.957 7.085.304.605.64 1.184 1.01 1.736a.75.75 0 001.246-.834c-.226-.338-.44-.69-.64-1.052l1.997-1.67.084-.07c.476-.397.849-.708 1.09-1.111.21-.354.34-.75.377-1.161.043-.467-.075-.939-.226-1.54l-.027-.106-.535-2.14-.014-.06c-.08-.322-.143-.572-.242-.794a2.75 2.75 0 00-2.034-1.587c-.238-.042-.497-.042-.829-.042h-.06zm1.454 7.46l-1.713 1.432c-.72-1.68-1.196-3.582-1.402-5.691-.038-.387-.043-.483-.029-.604.059-.473.504-.963.969-1.067.116-.026.243-.03.721-.03.42 0 .537.003.629.019.409.072.755.343.924.722.038.085.069.197.171.605l.535 2.14c.19.76.231.966.215 1.147a1.25 1.25 0 01-.172.527c-.093.156-.248.299-.848.8zm10.146 5.049l-.107-.027c-.6-.15-1.072-.27-1.539-.226-.41.037-.807.166-1.161.377-.403.241-.714.614-1.11 1.09l-.071.084-1.67 1.997a14.17 14.17 0 01-2.613-1.85L19.53 5.53a.75.75 0 00-1.06-1.06l-15 15a.75.75 0 101.06 1.06l3.264-3.264a15.78 15.78 0 003.525 2.404c2.07 1.04 4.445 1.7 7.085 1.957l.047.004c.323.032.583.058.885.02 1.102-.135 2.106-1.046 2.348-2.13.066-.297.066-.6.066-.983v-.125c0-.332 0-.59-.042-.83a2.75 2.75 0 00-1.587-2.033c-.222-.099-.473-.161-.795-.242l-.058-.014-2.14-.535zm1.422 5.375c-2.11-.206-4.01-.682-5.691-1.402l1.431-1.713c.502-.6.645-.755.8-.848a1.25 1.25 0 01.528-.172c.181-.016.387.025 1.146.215l2.141.535c.408.102.52.133.605.17.38.17.65.516.722.925.016.092.019.208.019.629 0 .478-.004.605-.03.721-.104.465-.594.91-1.067.969-.121.014-.217.009-.604-.03z"/>
</svg>
