<svg xmlns="http://www.w3.org/2000/svg" width="24" height="24" fill="currentColor" viewBox="0 0 24 24">
  <path fill-rule="evenodd" d="M1.47 5.47a.75.75 0 011.06 0l5 5c.588.588.759.744.915.822.35.173.76.173 1.11 0 .156-.078.327-.234.915-.822l.5-.5.012-.013c.068-.067.12-.12.168-.164a2.75 2.75 0 013.7 0c.049.045.1.097.168.164l.012.013.5.5a.75.75 0 11-1.06 1.06l-.5-.5a4.698 4.698 0 00-.13-.127 1.25 1.25 0 00-1.68 0 4.698 4.698 0 00-.13.127l-.5.5-.085.086c-.46.461-.817.818-1.224 1.02a2.75 2.75 0 01-2.442 0c-.407-.202-.763-.559-1.224-1.02l-.085-.086-5-5a.75.75 0 010-1.06zM22 11.25a.75.75 0 01.75.75v6a.75.75 0 01-.75.75h-6a.75.75 0 110-1.5h4.19l-3.22-3.22a.75.75 0 011.06-1.06l3.22 3.22V12a.75.75 0 01.75-.75z"/>
</svg>
