<svg xmlns="http://www.w3.org/2000/svg" width="24" height="24" fill="currentColor" viewBox="0 0 24 24">
  <path fill-rule="evenodd" d="M7.168 1.25A3.918 3.918 0 003.25 5.168v5.43c0 1.756.992 3.362 2.563 4.147l2.114 1.057a1.88 1.88 0 011.014 1.991l-.188 1.125a3.291 3.291 0 106.494 0l-.188-1.125a1.88 1.88 0 011.014-1.991l2.114-1.057a4.637 4.637 0 002.563-4.147v-5.43a3.918 3.918 0 00-3.918-3.918H7.168zM4.75 10.195v.403c0 1.188.671 2.274 1.734 2.805l2.114 1.057a3.38 3.38 0 011.822 3.58l-.187 1.124a1.791 1.791 0 103.534 0l-.187-1.124a3.38 3.38 0 011.822-3.58l2.114-1.057a3.137 3.137 0 001.734-2.805v-5.43a2.418 2.418 0 00-2.418-2.418H13.75V4a.75.75 0 01-1.5 0V2.75h-2.5V6a.75.75 0 01-1.5 0V2.75H7.168A2.418 2.418 0 004.75 5.168v3.376l.187.09c.378.178.931.417 1.622.658 1.384.481 3.299.958 5.441.958 1.397 0 2.698-.203 3.82-.478a.75.75 0 01.358 1.456A17.592 17.592 0 0112 11.75c-2.358 0-4.443-.523-5.934-1.042-.51-.177-.953-.355-1.316-.513z"/>
</svg>
