<svg xmlns="http://www.w3.org/2000/svg" width="24" height="24" fill="currentColor" viewBox="0 0 24 24">
  <path fill-rule="evenodd" d="M6.75 8c0-2.9 2.35-5.25 5.25-5.25a.75.75 0 000-1.5 6.75 6.75 0 101.097 13.411c.1.409.153.837.153 1.278 0 2.94-2.358 5.311-5.25 5.311s-5.25-2.37-5.25-5.31c0-1.321.476-2.527 1.262-3.455a.75.75 0 10-1.144-.97A6.823 6.823 0 001.25 15.94c0 3.755 3.015 6.811 6.75 6.811s6.75-3.056 6.75-6.81c0-.581-.072-1.146-.208-1.685a6.775 6.775 0 003.475-3.192c1.905.817 3.233 2.696 3.233 4.876 0 2.928-2.394 5.311-5.36 5.311-.267 0-.528-.02-.783-.056a.75.75 0 00-.214 1.485c.325.047.658.071.996.071 3.783 0 6.861-3.043 6.861-6.81 0-2.831-1.738-5.253-4.205-6.282a6.767 6.767 0 00-2.045-6.69.75.75 0 00-1 1.119A5.25 5.25 0 116.75 8z"/>
</svg>
