<svg xmlns="http://www.w3.org/2000/svg" width="24" height="24" fill="currentColor" viewBox="0 0 24 24">
  <path fill-rule="evenodd" d="M8.53 2.47a.75.75 0 010 1.06L4.81 7.25H13.06c1.837 0 3.292 0 4.43.153 1.173.158 2.121.49 2.87 1.238.748.749 1.08 1.698 1.238 2.87.153 1.14.153 2.595.153 4.433V21a.75.75 0 01-1.5 0V16c0-1.907-.002-3.261-.14-4.29-.135-1.005-.389-1.585-.812-2.008-.423-.423-1.003-.677-2.008-.812-1.027-.138-2.381-.14-4.287-.14H3a.75.75 0 01-.53-1.28l5-5a.75.75 0 011.06 0zm-3.56 7.5a.75.75 0 011.06 0l2.5 2.5a.75.75 0 11-1.06 1.06l-2.5-2.5a.75.75 0 010-1.06z"/>
</svg>
