<svg xmlns="http://www.w3.org/2000/svg" width="24" height="24" fill="currentColor" viewBox="0 0 24 24">
  <path fill-rule="evenodd" d="M12.75 2a.75.75 0 00-1.5 0v10a.75.75 0 001.5 0V2zM8.334 5.607a.75.75 0 00-.668-1.343A9.75 9.75 0 002.25 13c0 5.385 4.365 9.75 9.75 9.75 2.497 0 4.776-.94 6.5-2.483a.75.75 0 00-1-1.117A8.25 8.25 0 118.334 5.607zm8-1.343a.75.75 0 10-.668 1.343A8.25 8.25 0 0120.25 13c0 .966-.166 1.89-.47 2.75a.75.75 0 101.415.5A9.736 9.736 0 0021.75 13a9.75 9.75 0 00-5.416-8.736z"/>
</svg>
