<svg xmlns="http://www.w3.org/2000/svg" width="24" height="24" fill="currentColor" viewBox="0 0 24 24">
  <path fill-rule="evenodd" d="M18.313 2.958C17.702 2.759 16.92 2.75 15 2.75h-.5a.75.75 0 010-1.5h.662c1.706 0 2.747 0 3.615.281a5.75 5.75 0 013.692 3.692c.281.868.281 1.909.281 3.615v5.196c0 1.371 0 2.447-.07 3.311-.072.88-.221 1.607-.557 2.265a5.75 5.75 0 01-2.513 2.513c-.658.336-1.385.485-2.265.556-.864.071-1.94.071-3.311.071H9.966c-1.371 0-2.447 0-3.311-.07-.88-.072-1.607-.221-2.265-.557a5.75 5.75 0 01-2.513-2.513c-.336-.658-.484-1.385-.556-2.265-.071-.864-.071-1.94-.071-3.311V8.838c0-1.706 0-2.747.281-3.615a5.75 5.75 0 013.692-3.692c.868-.281 1.909-.281 3.615-.281H9.5a.75.75 0 010 1.5H9c-1.92 0-2.702.01-3.313.208a4.25 4.25 0 00-2.729 2.729C2.759 6.298 2.75 7.08 2.75 9v5c0 1.412 0 2.427.066 3.223.064.787.188 1.295.397 1.707a4.25 4.25 0 001.858 1.857c.411.21.919.333 1.706.397.796.065 1.81.066 3.223.066h4c1.412 0 2.427 0 3.223-.066.787-.064 1.295-.188 1.707-.397a4.25 4.25 0 001.857-1.857c.21-.412.333-.92.397-1.707.065-.796.066-1.81.066-3.223V9c0-1.92-.01-2.702-.208-3.313a4.25 4.25 0 00-2.729-2.729zM6.582 5.25h6.836c.347 0 .678-.001.968.09a1.95 1.95 0 011.274 1.274c.091.29.09.62.09.968V8a.75.75 0 01-1.5 0v-.333c0-.491-.009-.564-.02-.602a.45.45 0 00-.295-.294c-.038-.012-.11-.021-.602-.021H10.75v10.5h.75a.75.75 0 010 1.5h-3a.75.75 0 010-1.5h.75V6.75H6.667c-.491 0-.564.009-.602.02a.45.45 0 00-.294.295c-.012.038-.021.11-.021.602V8a.75.75 0 11-1.5 0V7.582c0-.347-.001-.678.09-.968A1.95 1.95 0 015.614 5.34c.29-.091.62-.09.968-.09zm7.418 7a.75.75 0 00-.75.75v1a.75.75 0 001.5 0v-.25h1v3.5h-.25a.75.75 0 000 1.5h2a.75.75 0 000-1.5h-.25v-3.5h1V14a.75.75 0 001.5 0v-1a.75.75 0 00-.75-.75h-5z"/>
</svg>
