<svg xmlns="http://www.w3.org/2000/svg" width="24" height="24" fill="currentColor" viewBox="0 0 24 24">
  <path fill-rule="evenodd" d="M8 .25a.75.75 0 01.75.75v.25h3.288c1.245 0 2.304 0 3.212.032V1a.75.75 0 011.5 0v.384c1.023.115 1.869.334 2.625.77a6.75 6.75 0 012.47 2.471c.48.83.696 1.767.802 2.927.103 1.143.103 2.573.103 4.41v.076c0 1.837 0 3.267-.104 4.41-.105 1.16-.322 2.098-.8 2.927a6.75 6.75 0 01-2.471 2.47c-.83.48-1.767.696-2.927.802-1.143.103-2.573.103-4.41.103h-1.714c-2.159 0-3.437 0-4.494-.358a6.75 6.75 0 01-4.222-4.222c-.358-1.057-.358-2.335-.358-4.494V13a.75.75 0 011.5 0v.5c0 2.388.01 3.396.279 4.188a5.25 5.25 0 003.283 3.283c.792.269 1.8.279 4.188.279H12c1.883 0 3.245 0 4.312-.097 1.057-.096 1.75-.281 2.313-.606a5.25 5.25 0 001.922-1.922c.325-.563.51-1.256.606-2.313.096-1.067.097-2.429.097-4.312 0-1.883 0-3.245-.097-4.312-.096-1.057-.281-1.75-.606-2.313a5.25 5.25 0 00-1.922-1.922c-.481-.277-1.058-.453-1.875-.558V4a.75.75 0 01-1.5 0V2.783c-.882-.033-1.94-.033-3.25-.033H8.75V4a.75.75 0 01-1.5 0V2.756A4.75 4.75 0 002.75 7.5V8a.75.75 0 01-1.5 0v-.5a6.25 6.25 0 016-6.245V1A.75.75 0 018 .25zm6.82 13.793c-.004 1.18-1.183 2.056-2.823 2.056s-2.823-.877-2.82-2.056c-.003-.909.69-1.651 1.577-1.797v-.05a1.615 1.615 0 01-1.307-1.611c-.003-1.126 1.076-1.957 2.55-1.957 1.47 0 2.55.83 2.553 1.957a1.633 1.633 0 01-1.307 1.612v.05c.874.145 1.573.887 1.577 1.796zm-4.045-.12c0 .614.49 1.047 1.222 1.047.728 0 1.222-.43 1.222-1.047 0-.629-.519-1.084-1.222-1.084-.707 0-1.222.455-1.222 1.084zm.17-3.179c0 .576.438.977 1.052.977.61 0 1.051-.401 1.051-.977 0-.564-.433-.958-1.051-.958-.621 0-1.051.39-1.051.958z"/>
</svg>
