<svg xmlns="http://www.w3.org/2000/svg" width="24" height="24" fill="currentColor" viewBox="0 0 24 24">
  <path fill-rule="evenodd" d="M8 2.75c-1.435 0-2.437.002-3.192.103-.734.099-1.122.28-1.399.556-.277.277-.457.665-.556 1.4C2.752 5.562 2.75 6.564 2.75 8v5.786a20.832 20.832 0 00.002.256v.017a.75.75 0 001.15.575l.003-.002.01-.008.043-.03.163-.123.008-.005a5.75 5.75 0 013.405-1.214c.067-.002.134-.002.242-.002H8.252c.004-.595.02-1.111.078-1.544.084-.628.27-1.195.725-1.65.456-.456 1.023-.642 1.65-.726.595-.08 1.345-.08 2.243-.08H18.052c.899 0 1.648 0 2.242.08.628.084 1.195.27 1.65.726.456.455.642 1.022.726 1.65.08.594.08 1.344.08 2.242V15.5a.75.75 0 01-1.5 0V14c0-.964-.002-1.612-.067-2.095-.062-.461-.169-.659-.3-.789-.13-.13-.327-.237-.788-.3-.483-.064-1.131-.066-2.095-.066h-5c-.964 0-1.612.002-2.095.066-.461.063-.659.17-.789.3-.13.13-.237.328-.3.79-.064.482-.066 1.13-.066 2.093V16.143c0 .964.002 1.611.067 2.095.062.46.169.658.3.789.13.13.327.237.788.3.483.064 1.131.066 2.095.066h4.494c1.16 0 2.274.446 3.114 1.246a.38.38 0 00.642-.275V19a.75.75 0 011.5 0v1.364c0 1.652-1.98 2.5-3.176 1.36a3.017 3.017 0 00-2.08-.831H12.948c-.899 0-1.648 0-2.242-.08-.628-.084-1.195-.27-1.65-.726-.456-.455-.642-1.022-.726-1.65-.08-.594-.08-1.344-.08-2.242V14.75h-.464l-.217.001a4.25 4.25 0 00-2.548.92l-.028.022c-.118.088-.213.16-.29.208-1.43.906-3.312-.034-3.446-1.723a5.023 5.023 0 01-.007-.356V7.945c0-1.367 0-2.47.117-3.337.12-.9.38-1.658.981-2.26.602-.602 1.36-.86 2.26-.981.867-.117 1.97-.117 3.337-.117H13.036c.904 0 1.633 0 2.222.053.606.055 1.136.172 1.617.45a3.75 3.75 0 011.373 1.372c.277.481.394 1.011.449 1.617.053.589.053 1.318.053 2.222V7.5a.75.75 0 01-1.5 0V7c0-.948 0-1.61-.047-2.122-.046-.503-.13-.788-.254-1.003a2.25 2.25 0 00-.824-.824c-.215-.124-.5-.208-1.003-.254-.512-.046-1.174-.047-2.122-.047H8z"/>
</svg>
