<svg xmlns="http://www.w3.org/2000/svg" width="24" height="24" fill="currentColor" viewBox="0 0 24 24">
  <path fill-rule="evenodd" d="M16.75 5A2.25 2.25 0 0119 2.75a.75.75 0 000-1.5 3.751 3.751 0 00-3.675 3H11a.75.75 0 000 1.5h4.325a3.751 3.751 0 107.211-2 .75.75 0 10-1.414.5A2.25 2.25 0 1116.75 5zM5 2.75a2.25 2.25 0 100 4.5 2.25 2.25 0 000-4.5zM8.75 5a3.751 3.751 0 01-3 3.675V13a.75.75 0 01-1.5 0V8.675A3.751 3.751 0 015 1.25 3.75 3.75 0 018.75 5zM19 10.25a.75.75 0 01.75.75v4.325A3.751 3.751 0 0119 22.75a3.75 3.75 0 01-.75-7.425V11a.75.75 0 01.75-.75zM16.75 19a2.25 2.25 0 012.249-2.25H19A2.25 2.25 0 1116.75 19zm-8.075-.75A3.751 3.751 0 001.25 19a3.75 3.75 0 007.425.75H13a.75.75 0 000-1.5H8.675zM7.25 19a2.25 2.25 0 11-4.5 0 2.25 2.25 0 014.5 0z"/>
</svg>
