<svg xmlns="http://www.w3.org/2000/svg" width="24" height="24" fill="currentColor" viewBox="0 0 24 24">
  <path fill-rule="evenodd" d="M12 2.75c-3.834 0-6.95 3.127-6.95 6.993l.001.126a.75.75 0 01-.562.74 3.672 3.672 0 00-2.739 3.558c0 1.362.735 2.55 1.827 3.185a.75.75 0 01-.754 1.296 5.177 5.177 0 01-2.573-4.48 5.175 5.175 0 013.31-4.835C3.772 4.837 7.466 1.25 12 1.25c2.095 0 4.013.767 5.489 2.036a.75.75 0 11-.978 1.137A6.895 6.895 0 0012 2.75zm6.781 4.879a.75.75 0 01.971-.428 6.282 6.282 0 013.998 5.86 6.283 6.283 0 01-2.498 5.024.75.75 0 11-.904-1.197 4.782 4.782 0 001.902-3.827A4.782 4.782 0 0019.21 8.6a.75.75 0 01-.429-.97zM8 13.25a.75.75 0 01.75.75v2a.75.75 0 01-1.5 0v-2a.75.75 0 01.75-.75zM8.75 19a.75.75 0 00-1.5 0v2a.75.75 0 001.5 0v-2zM16 13.25a.75.75 0 01.75.75v2a.75.75 0 01-1.5 0v-2a.75.75 0 01.75-.75zm.75 5.75a.75.75 0 00-1.5 0v2a.75.75 0 001.5 0v-2zM12 14.25a.75.75 0 01.75.75v2a.75.75 0 01-1.5 0v-2a.75.75 0 01.75-.75zm.75 5.75a.75.75 0 00-1.5 0v2a.75.75 0 001.5 0v-2z"/>
</svg>
