<svg xmlns="http://www.w3.org/2000/svg" width="24" height="24" fill="currentColor" viewBox="0 0 24 24">
  <path fill-rule="evenodd" d="M16 1.25a.75.75 0 000 1.5 2.25 2.25 0 012.25 2.249V5a2.25 2.25 0 11-4.372-.75.75.75 0 10-1.414-.5 3.75 3.75 0 107.211 2H22a.75.75 0 000-1.5h-2.325a3.751 3.751 0 00-3.675-3zM1.25 12a.75.75 0 01.75-.75h2.325a3.751 3.751 0 017.425.75 3.75 3.75 0 01-7.425.75H2a.75.75 0 01-.75-.75zm4.5 0a2.25 2.25 0 104.5 0 2.25 2.25 0 00-4.5 0zM16 22.75a3.751 3.751 0 003.675-3H22a.75.75 0 000-1.5h-2.325a3.751 3.751 0 10-7.211 2 .75.75 0 101.414-.5A2.25 2.25 0 1116 21.25a.75.75 0 000 1.5zM1.25 19a.75.75 0 01.75-.75h8a.75.75 0 010 1.5H2a.75.75 0 01-.75-.75zM14 11.25a.75.75 0 000 1.5h8a.75.75 0 000-1.5h-8zM1.25 5A.75.75 0 012 4.25h8a.75.75 0 010 1.5H2A.75.75 0 011.25 5z"/>
</svg>
