<svg xmlns="http://www.w3.org/2000/svg" width="24" height="24" fill="currentColor" viewBox="0 0 24 24">
  <path fill-rule="evenodd" d="M11.95 1.25h.1c.664 0 1.237 0 1.696.062.492.066.963.215 1.345.597s.531.854.597 1.345c.062.459.062 1.032.062 1.697v.91c0 .51.002.961-.171 1.379-.173.417-.493.736-.854 1.095l-.073.074-2.122 2.121a.75.75 0 11-1.06-1.06l2.121-2.122c.477-.476.558-.577.602-.682.044-.106.057-.234.057-.909V5c0-.728-.002-1.2-.048-1.546-.044-.325-.115-.427-.172-.484-.057-.057-.159-.128-.484-.172-.347-.046-.818-.048-1.546-.048-.728 0-1.2.002-1.546.048-.325.044-.427.115-.484.172-.057.057-.128.159-.172.484-.046.347-.048.818-.048 1.546v2a.75.75 0 11-1.5 0V4.95c0-.664 0-1.237.062-1.696.066-.491.215-.963.597-1.345s.854-.531 1.345-.597c.459-.062 1.032-.062 1.697-.062zm-6.193 8.5c.675 0 .803.013.909.057.105.044.206.125.682.602L9.47 12.53a.75.75 0 101.06-1.06L8.41 9.348l-.074-.073c-.359-.36-.678-.68-1.095-.854-.418-.173-.87-.172-1.379-.171H4.95c-.664 0-1.237 0-1.696.062-.491.066-.963.215-1.345.597s-.531.854-.597 1.345c-.062.459-.062 1.032-.062 1.697v.099c0 .664 0 1.237.062 1.696.066.492.215.963.597 1.345s.854.531 1.345.597c.459.062 1.032.062 1.697.062H7a.75.75 0 000-1.5H5c-.728 0-1.2-.002-1.546-.048-.325-.044-.427-.115-.484-.172-.057-.057-.128-.159-.172-.484-.046-.347-.048-.818-.048-1.546 0-.728.002-1.2.048-1.546.044-.325.115-.427.172-.484.057-.057.159-.128.484-.172.347-.046.818-.048 1.546-.048h.757zM19 9.75c.728 0 1.2.002 1.546.048.325.044.427.115.484.172.057.057.128.159.172.484.046.347.048.818.048 1.546 0 .728-.002 1.2-.048 1.546-.044.325-.115.427-.172.484-.057.057-.159.128-.484.172-.347.046-.818.048-1.546.048h-.757c-.675 0-.803-.013-.909-.057-.105-.044-.206-.125-.682-.602L14.53 11.47a.75.75 0 10-1.06 1.06l2.121 2.122.074.073c.359.36.678.68 1.095.854.418.173.87.172 1.378.171h.912c.664 0 1.237 0 1.696-.062.492-.066.963-.215 1.345-.597s.531-.853.597-1.345c.062-.459.062-1.032.062-1.697v-.099c0-.664 0-1.237-.062-1.696-.066-.491-.215-.963-.597-1.345s-.854-.531-1.345-.597c-.459-.062-1.032-.062-1.697-.062H17a.75.75 0 000 1.5h2zm-6.47 4.78a.75.75 0 10-1.06-1.06L9.348 15.59l-.073.074c-.36.359-.68.678-.854 1.095-.173.418-.172.87-.171 1.378v.912c0 .664 0 1.237.062 1.696.066.492.215.963.597 1.345s.854.531 1.345.597c.459.062 1.032.062 1.697.062h.099c.664 0 1.237 0 1.696-.062.492-.066.963-.215 1.345-.597s.531-.854.597-1.345c.062-.459.062-1.032.062-1.697V17a.75.75 0 00-1.5 0v2c0 .728-.002 1.2-.048 1.546-.044.325-.115.427-.172.484-.057.057-.159.128-.484.172-.347.046-.818.048-1.546.048-.728 0-1.2-.002-1.546-.048-.325-.044-.427-.115-.484-.172-.057-.057-.128-.159-.172-.484-.046-.347-.048-.818-.048-1.546v-.757c0-.675.013-.803.057-.909.044-.105.125-.206.602-.682l2.121-2.122z"/>
</svg>
