<svg xmlns="http://www.w3.org/2000/svg" width="24" height="24" fill="currentColor" viewBox="0 0 24 24">
  <path fill-rule="evenodd" d="M1 .25h.5V1 .25c1.808 0 3.34 1.33 3.596 3.119l1.058 7.404c.106.742.18 1.257.268 1.656.087.39.177.615.286.786.233.364.566.652.959.832.184.084.42.14.818.171.287.022.628.029 1.065.031-.172-.338-.24-.694-.27-1.074-.03-.365-.03-.81-.03-1.345V8.17c0-.535 0-.98.03-1.345.03-.38.098-.736.27-1.073A2.75 2.75 0 0110.75 4.55c.338-.172.694-.24 1.074-.27.365-.03.81-.03 1.345-.03H16.83c.535 0 .98 0 1.345.03.38.03.736.098 1.073.27a2.75 2.75 0 011.202 1.202c.172.337.24.693.27 1.073.03.365.03.81.03 1.345V12a.75.75 0 01-1.5 0V8.2c0-.572 0-.957-.025-1.253-.023-.287-.065-.424-.111-.514a1.25 1.25 0 00-.547-.547c-.09-.046-.227-.088-.515-.111-.295-.024-.68-.025-1.252-.025h-3.6c-.572 0-.957 0-1.252.025-.288.023-.425.065-.516.111a1.25 1.25 0 00-.546.547c-.046.09-.088.227-.111.514-.024.296-.025.68-.025 1.253v3.6c0 .572 0 .957.025 1.252.023.288.065.425.111.516.12.235.311.426.546.546.091.046.228.088.515.111.296.024.68.025 1.253.025H22a.75.75 0 010 1.5H10.133c-.713 0-1.29 0-1.762-.036-.488-.037-.919-.116-1.328-.303a3.75 3.75 0 01-1.597-1.386c-.243-.378-.382-.793-.488-1.271-.103-.462-.184-1.034-.285-1.74l-.004-.03L3.61 3.582a2.133 2.133 0 00-2.11-1.831H1a.75.75 0 110-1.5zM7.75 20a1.25 1.25 0 112.5 0 1.25 1.25 0 01-2.5 0zM9 17.25a2.75 2.75 0 100 5.5 2.75 2.75 0 000-5.5zm10 0a.75.75 0 000 1.5A1.25 1.25 0 1117.75 20a.75.75 0 00-1.5 0A2.75 2.75 0 1019 17.25z"/>
</svg>
