<svg xmlns="http://www.w3.org/2000/svg" width="24" height="24" fill="currentColor" viewBox="0 0 24 24">
  <path fill-rule="evenodd" d="M13.143 3.75c-1.39 0-2.7.332-3.853.918a.75.75 0 11-.68-1.336 9.97 9.97 0 014.533-1.082 9.933 9.933 0 017.415 3.296.75.75 0 01-1.116 1.002 8.434 8.434 0 00-6.3-2.798zM5.96 6.38a.75.75 0 01.199 1.042 8.163 8.163 0 00-.933 1.828H12a.75.75 0 010 1.5H4.846a8.181 8.181 0 000 2.5H10a.75.75 0 110 1.5H5.228c1.15 3.2 4.253 5.5 7.915 5.5a8.433 8.433 0 006.299-2.798.75.75 0 011.116 1.002 9.934 9.934 0 01-7.415 3.296c-4.487 0-8.289-2.949-9.494-7h-1.65a.75.75 0 010-1.5H3.33a9.714 9.714 0 010-2.5H2a.75.75 0 010-1.5h1.65c.285-.96.717-1.86 1.27-2.672A.75.75 0 015.96 6.38z"/>
</svg>
