<svg xmlns="http://www.w3.org/2000/svg" width="24" height="24" fill="currentColor" viewBox="0 0 24 24">
  <path fill-rule="evenodd" d="M15 2.75c1.92 0 2.702.01 3.313.208a4.25 4.25 0 012.729 2.729c.199.611.208 1.393.208 3.313v5c0 1.412 0 2.427-.066 3.223-.064.787-.188 1.295-.397 1.707a4.25 4.25 0 01-1.857 1.857c-.412.21-.92.333-1.707.397-.796.065-1.81.066-3.223.066h-4c-1.412 0-2.427 0-3.223-.066-.787-.064-1.295-.188-1.706-.397a4.25 4.25 0 01-1.858-1.857c-.21-.412-.333-.92-.397-1.707-.065-.796-.066-1.81-.066-3.223V9c0-1.92.01-2.702.208-3.313a4.25 4.25 0 012.729-2.729C6.298 2.759 7.08 2.75 9 2.75h.5a.75.75 0 100-1.5h-.662c-1.706 0-2.747 0-3.615.281a5.75 5.75 0 00-3.692 3.692c-.281.868-.281 1.909-.281 3.615v5.196c0 1.371 0 2.447.07 3.311.073.88.221 1.607.557 2.265a5.75 5.75 0 002.513 2.513c.658.336 1.385.485 2.265.556.864.071 1.94.071 3.311.071h4.068c1.371 0 2.447 0 3.311-.07.88-.072 1.607-.221 2.265-.557a5.75 5.75 0 002.513-2.513c.336-.658.485-1.385.556-2.265.071-.864.071-1.94.071-3.311V8.838c0-1.706 0-2.747-.281-3.615a5.75 5.75 0 00-3.692-3.692c-.868-.281-1.909-.281-3.615-.281H14.5a.75.75 0 000 1.5h.5zM6.551 9.491A.75.75 0 005.25 10v4c0 .414.336.75.75.75h4a.75.75 0 000-1.5H7.68c.22-.217.468-.447.74-.676.62-.522 1.329-1.012 2.083-1.353l6.77 2.964a.75.75 0 001.455-.367L18 14c.728-.182.727-.182.727-.183v-.003l-.002-.005-.004-.015a6.007 6.007 0 00-.26-.72 6.784 6.784 0 00-.941-1.547c-.932-1.147-2.51-2.277-5.02-2.277-1.387 0-2.669.538-3.734 1.21l-2.215-.969zm0 0L6 9.25l.551.241zm0 0l2.215.97c-.486.307-.927.641-1.312.965-.255.215-.49.43-.704.635V10a.747.747 0 00-.199-.509zm3.952 1.73l-1.737-.76 1.737.76zm6.77 2.963v-.001l-.006-.02a4.5 4.5 0 00-.18-.487 5.286 5.286 0 00-.732-1.203c-.693-.853-1.865-1.723-3.855-1.723-.68 0-1.355.181-1.997.471l6.77 2.963z"/>
</svg>
