<svg xmlns="http://www.w3.org/2000/svg" width="24" height="24" fill="currentColor" viewBox="0 0 24 24">
  <path fill-rule="evenodd" d="M7.922 4.004A7.25 7.25 0 0119.25 10c0 1.332-.501 2.54-1.205 3.58a.75.75 0 001.242.84c.816-1.204 1.463-2.701 1.463-4.42A8.75 8.75 0 007.078 2.765a.75.75 0 00.844 1.24zM3.53 2.47a.75.75 0 00-1.06 1.06l2.004 2.004A8.713 8.713 0 003.25 10c0 3.31 2.473 5.858 3.977 7.116.635.532 1.023 1.26 1.023 1.996a3.638 3.638 0 003.638 3.638h.239a3.623 3.623 0 003.623-3.623c0-.584.248-1.165.67-1.647l3.05 3.05a.75.75 0 101.06-1.06l-3.562-3.563L5.962 4.901 3.53 2.47zM4.75 10c0-1.215.298-2.359.826-3.364l9.782 9.782c-.66.722-1.108 1.666-1.108 2.709 0 1.172-.95 2.123-2.123 2.123h-.24a2.138 2.138 0 01-2.137-2.138l-.001-.092c.547.123 1.297.23 2.251.23a.75.75 0 000-1.5c-.937 0-1.626-.117-2.068-.228a4.49 4.49 0 01-.585-.188.744.744 0 00-.06-.027 4.563 4.563 0 00-1.098-1.341C6.729 14.745 4.75 12.586 4.75 10zm4.564 7.359l.016-.033.002.002h.002c.001.001.001.001-.017.037l-.003-.006z"/>
</svg>
