<svg xmlns="http://www.w3.org/2000/svg" width="24" height="24" fill="currentColor" viewBox="0 0 24 24">
  <path fill-rule="evenodd" d="M2 3.25a.75.75 0 000 1.5h11a.75.75 0 000-1.5H2zm14 0a.75.75 0 000 1.5h4a.75.75 0 000-1.5h-4zM1.25 9A.75.75 0 012 8.25h14a.75.75 0 010 1.5H2A.75.75 0 011.25 9zm18.226 4.416l.05.033.394.263.046.03c.525.35.987.658 1.31.951.345.311.671.726.671 1.307s-.326.996-.67 1.307c-.324.293-.786.6-1.31.95h-.001l-.046.031-.395.263-.05.033c-.641.428-1.193.796-1.651 1.012-.471.223-1.063.392-1.65.078s-.774-.9-.85-1.415c-.074-.502-.074-1.165-.074-1.936V15.677c0-.771 0-1.434.074-1.936.076-.515.263-1.101.85-1.415.587-.315 1.179-.145 1.65.077.458.217 1.01.585 1.652 1.013zm-2.62.24s.003-.002.012-.002l-.012.002zm.03 0c.041.004.131.025.297.104.346.163.805.467 1.51.937l.395.263c.585.39.952.637 1.183.846.11.099.154.16.17.189l.004.005-.003.005a.878.878 0 01-.171.19c-.231.208-.598.455-1.183.845l-.395.263c-.705.47-1.164.774-1.51.937-.166.079-.256.1-.297.105a1.045 1.045 0 01-.078-.306c-.056-.378-.058-.928-.058-1.776v-.526c0-.848.002-1.398.058-1.776.027-.182.059-.269.078-.306zm-.03 4.688l.012.002c-.009 0-.013-.001-.012-.002zm.038.016c.007.005.01.009.01.01-.001 0-.004-.002-.01-.01zm0-4.72c.006-.008.009-.01.01-.01 0 .001-.003.005-.01.01zM1.25 14a.75.75 0 01.75-.75h2a.75.75 0 010 1.5H2a.75.75 0 01-.75-.75zm5 0a.75.75 0 01.75-.75h5a.75.75 0 010 1.5H7a.75.75 0 01-.75-.75zM2 18.25a.75.75 0 000 1.5h7a.75.75 0 000-1.5H2z"/>
</svg>
