<svg xmlns="http://www.w3.org/2000/svg" width="24" height="24" fill="currentColor" viewBox="0 0 24 24">
  <path fill-rule="evenodd" d="M2.25 3A.75.75 0 013 2.25h11a.75.75 0 010 1.5H3A.75.75 0 012.25 3zm15 0a.75.75 0 01.75-.75h3a.75.75 0 010 1.5h-3a.75.75 0 01-.75-.75zm-5.78 3.47a.75.75 0 011.06 0l2.5 2.5a.75.75 0 11-1.06 1.06l-1.22-1.22v6.38l1.22-1.22a.75.75 0 111.06 1.06l-2.5 2.5a.75.75 0 01-1.06 0l-2.5-2.5a.75.75 0 111.06-1.06l1.22 1.22V8.81l-1.22 1.22a.75.75 0 11-1.06-1.06l2.5-2.5zM3 20.25a.75.75 0 000 1.5h3a.75.75 0 000-1.5H3zm7 0a.75.75 0 000 1.5h11a.75.75 0 000-1.5H10z"/>
</svg>
