<svg xmlns="http://www.w3.org/2000/svg" width="24" height="24" fill="currentColor" viewBox="0 0 24 24">
  <path fill-rule="evenodd" d="M12 2.75A9.25 9.25 0 1021.25 12a9.209 9.209 0 00-.987-4.162.75.75 0 111.34-.676A10.708 10.708 0 0122.75 12c0 5.937-4.813 10.75-10.75 10.75S1.25 17.937 1.25 12 6.063 1.25 12 1.25c2.183 0 4.216.652 5.913 1.771a.75.75 0 11-.826 1.252A9.204 9.204 0 0012 2.75zM11.25 6a.75.75 0 01.75-.75A6.75 6.75 0 0118.75 12a.75.75 0 01-1.5 0c0-2.9-2.35-5.25-5.25-5.25a.75.75 0 01-.75-.75zm-.5 6a1.25 1.25 0 112.5 0 1.25 1.25 0 01-2.5 0zM12 9.25a2.75 2.75 0 100 5.5 2.75 2.75 0 000-5.5z"/>
</svg>
