<svg xmlns="http://www.w3.org/2000/svg" width="24" height="24" fill="currentColor" viewBox="0 0 24 24">
  <path fill-rule="evenodd" d="M11 1.25h-.045c-1.837 0-3.276 0-4.419.124-1.165.126-2.11.388-2.916.974A5.75 5.75 0 002.348 3.62c-.586.807-.848 1.75-.974 2.916-.124 1.143-.124 2.582-.124 4.419v.09c0 1.837 0 3.276.124 4.418.126 1.166.388 2.11.974 2.917a5.75 5.75 0 001.272 1.272c.807.586 1.75.848 2.916.974 1.143.124 2.582.124 4.419.124h4.043c.63 0 .883.001 1.127.03.423.052.835.166 1.223.34.225.1.443.23.983.553l.023.014c.42.252.768.461 1.056.608.289.147.598.277.932.3a2.25 2.25 0 002.164-1.225c.151-.298.2-.63.222-.954.022-.322.022-.728.022-1.218V16a.75.75 0 00-1.5 0v3.17c0 .525 0 .88-.019 1.144-.018.27-.051.354-.062.377a.75.75 0 01-.722.408c-.024-.002-.114-.017-.355-.14-.236-.12-.54-.303-.99-.572l-.042-.026c-.485-.29-.783-.47-1.1-.611a5.75 5.75 0 00-1.655-.458c-.344-.042-.692-.042-1.258-.042H11c-1.892 0-3.25-.001-4.302-.115-1.038-.113-1.688-.328-2.196-.697a4.25 4.25 0 01-.94-.94c-.37-.508-.585-1.158-.697-2.196-.114-1.052-.115-2.41-.115-4.302 0-1.892.001-3.25.115-4.302.112-1.038.328-1.688.697-2.196.262-.36.58-.678.94-.94.508-.37 1.158-.585 2.196-.697C7.75 2.751 9.108 2.75 11 2.75h2.5c1.651 0 2.837 0 3.762.089.914.087 1.495.253 1.959.537a4.25 4.25 0 011.403 1.403c.284.464.45 1.045.537 1.96.088.924.089 2.11.089 3.761v.5a.75.75 0 001.5 0v-.54c0-1.603 0-2.86-.096-3.864-.097-1.023-.299-1.862-.751-2.6a5.75 5.75 0 00-1.899-1.899c-.739-.452-1.577-.654-2.6-.752-1.004-.095-2.261-.095-3.865-.095H11zM12.75 8a.75.75 0 00-1.5 0v2.25H9a.75.75 0 000 1.5h2.25V14a.75.75 0 001.5 0v-2.25H15a.75.75 0 000-1.5h-2.25V8z"/>
</svg>
