<svg xmlns="http://www.w3.org/2000/svg" width="24" height="24" fill="currentColor" viewBox="0 0 24 24">
  <path fill-rule="evenodd" d="M1 .25h.5V1 .25c1.808 0 3.34 1.33 3.596 3.119l.861 6.03c.141.986.241 1.683.362 2.227.119.535.246.867.415 1.13a3.25 3.25 0 001.384 1.2c.284.13.63.21 1.177.251.556.043 1.26.043 2.256.043h4.87c1.086 0 1.503-.005 1.846-.084a3.25 3.25 0 002.293-1.99c.128-.327.192-.74.345-1.815.086-.605.124-.87.142-1.132.01-.16.016-.32.016-.479H8a.75.75 0 010-1.5h12.909a7.19 7.19 0 00-.067-.289c-.064-.254-.148-.509-.342-1.088l-.144-.433c-.387-1.16-.53-1.555-.758-1.841a2.25 2.25 0 00-.988-.712c-.344-.126-.763-.137-1.986-.137h-1.989c-.474 0-.639.002-.78.021a2.25 2.25 0 00-1.71 1.234c-.063.126-.117.282-.267.732l-.167.5a.75.75 0 11-1.422-.474l.166-.5.017-.052c.127-.379.213-.64.327-.87a3.75 3.75 0 012.853-2.056c.255-.035.529-.035.929-.035H16.764c1.027 0 1.736 0 2.361.228a3.75 3.75 0 011.647 1.187c.415.521.638 1.193.963 2.168l.044.133.144.432.01.031c.18.54.284.85.364 1.165.225.893.309 1.817.246 2.737-.022.324-.068.646-.148 1.21l-.005.032-.015.105c-.133.935-.219 1.532-.416 2.041a4.75 4.75 0 01-3.352 2.908c-.532.123-1.136.123-2.08.123H11.52c-.959 0-1.721 0-2.34-.047-.636-.049-1.178-.15-1.686-.383a4.75 4.75 0 01-2.023-1.754c-.302-.47-.48-.993-.617-1.615-.135-.607-.243-1.361-.378-2.31l-.004-.03-.862-6.03a2.133 2.133 0 00-2.11-1.831H1a.75.75 0 110-1.5zM7.75 20a1.25 1.25 0 112.5 0 1.25 1.25 0 01-2.5 0zM9 17.25a2.75 2.75 0 100 5.5 2.75 2.75 0 000-5.5zM17.75 20c0-.69.56-1.25 1.25-1.25a.75.75 0 000-1.5A2.75 2.75 0 1021.75 20a.75.75 0 00-1.5 0 1.25 1.25 0 11-2.5 0z"/>
</svg>
