<svg xmlns="http://www.w3.org/2000/svg" width="24" height="24" fill="currentColor" viewBox="0 0 24 24">
  <path fill-rule="evenodd" d="M8.838 1.25h5.196c1.371 0 2.447 0 3.311.07.88.073 1.607.221 2.265.557a5.75 5.75 0 012.513 2.513c.336.658.485 1.385.556 2.265.071.864.071 1.94.071 3.311v4.068c0 1.371 0 2.447-.07 3.311-.072.88-.221 1.607-.557 2.265a5.75 5.75 0 01-2.513 2.513c-.658.336-1.385.485-2.265.556-.864.071-1.94.071-3.311.071H8.838c-1.706 0-2.747 0-3.615-.281a5.75 5.75 0 01-3.692-3.692c-.281-.868-.281-1.909-.281-3.615V14.5a.75.75 0 011.5 0v.5c0 1.92.01 2.702.208 3.313a4.25 4.25 0 002.729 2.729c.611.199 1.393.208 3.313.208h5c1.412 0 2.427 0 3.223-.066.787-.064 1.295-.188 1.707-.397a4.25 4.25 0 001.857-1.857c.21-.412.333-.92.397-1.707.065-.796.066-1.81.066-3.223v-4c0-1.412 0-2.427-.066-3.223-.064-.787-.188-1.295-.397-1.706a4.25 4.25 0 00-1.857-1.858c-.412-.21-.92-.333-1.707-.397-.796-.065-1.81-.066-3.223-.066H9c-1.92 0-2.702.01-3.313.208a4.25 4.25 0 00-2.729 2.729C2.759 6.298 2.75 7.08 2.75 9v.5a.75.75 0 11-1.5 0v-.662c0-1.706 0-2.747.281-3.615a5.75 5.75 0 013.692-3.692c.868-.281 1.909-.281 3.615-.281zM8.47 8.47a.75.75 0 011.06 0l3 3a.75.75 0 010 1.06l-3 3a.75.75 0 11-1.06-1.06L10.94 12 8.47 9.53a.75.75 0 010-1.06zm3.06-3a.75.75 0 00-1.06 1.06l3.737 3.738c.405.404.676.676.868.903.187.22.254.346.285.443a1.25 1.25 0 010 .772c-.031.097-.098.224-.285.443-.192.227-.463.499-.868.903L10.47 17.47a.75.75 0 001.06 1.06l3.738-3.737.021-.021c.378-.378.693-.693.93-.972.246-.29.451-.59.568-.95a2.75 2.75 0 000-1.7c-.117-.36-.322-.66-.568-.95a17.83 17.83 0 00-.93-.971l-.021-.022L11.53 5.47z"/>
</svg>
