<svg xmlns="http://www.w3.org/2000/svg" width="24" height="24" fill="currentColor" viewBox="0 0 24 24">
  <path fill-rule="evenodd" d="M11.943 1.25h.114c1.024 0 1.95 0 2.786.017a.754.754 0 01.348.008c.904.024 1.698.071 2.395.165 1.445.194 2.585.6 3.48 1.494.895.895 1.3 2.035 1.494 3.48.094.697.141 1.491.165 2.395a.748.748 0 01.008.348c.017.836.017 1.762.017 2.786v.114c0 1.024 0 1.95-.017 2.786a.756.756 0 01-.008.348c-.024.904-.071 1.698-.165 2.395-.194 1.445-.6 2.585-1.494 3.48-.895.895-2.035 1.3-3.48 1.494-.697.094-1.491.141-2.395.165a.748.748 0 01-.348.008c-.836.017-1.762.017-2.786.017h-.114c-1.024 0-1.95 0-2.786-.017a.755.755 0 01-.348-.008c-.904-.024-1.698-.071-2.395-.165-1.445-.194-2.585-.6-3.48-1.494-.895-.895-1.3-2.035-1.494-3.48-.094-.697-.141-1.491-.165-2.395a.751.751 0 01-.008-.348c-.017-.836-.017-1.762-.017-2.786v-.114c0-1.024 0-1.95.017-2.786a.753.753 0 01.008-.348c.024-.904.071-1.698.165-2.395.194-1.445.6-2.585 1.494-3.48.895-.895 2.035-1.3 3.48-1.494.697-.094 1.491-.141 2.395-.165a.751.751 0 01.348-.008c.836-.017 1.762-.017 2.786-.017zm-9.185 8.5c-.008.676-.008 1.423-.008 2.25s0 1.574.008 2.25H8.25v-4.5H2.758zm5.492-1.5H2.794c.026-.611.067-1.152.132-1.636.172-1.279.5-2.05 1.069-2.62.57-.569 1.34-.896 2.619-1.068a18.183 18.183 0 011.636-.132V8.25zm1.5 1.5v4.5h4.5v-4.5h-4.5zm4.5-1.5h-4.5V2.758c.676-.008 1.423-.008 2.25-.008s1.574 0 2.25.008V8.25zm1.5 1.5v4.5h5.492c.008-.676.008-1.423.008-2.25s0-1.574-.008-2.25H15.75zm5.456-1.5H15.75V2.794a18.18 18.18 0 011.636.132c1.279.172 2.05.5 2.62 1.069.569.57.896 1.34 1.068 2.619.065.484.106 1.025.132 1.636zm-6.956 7.5h-4.5v5.492c.676.008 1.423.008 2.25.008s1.574 0 2.25-.008V15.75zm-6 0H2.794c.026.611.067 1.152.132 1.636.172 1.279.5 2.05 1.069 2.62.57.569 1.34.896 2.619 1.068.484.065 1.025.106 1.636.132V15.75zm12.956 0H15.75v5.456a18.18 18.18 0 001.636-.132c1.279-.172 2.05-.5 2.62-1.069.569-.57.896-1.34 1.068-2.619a18.18 18.18 0 00.132-1.636z"/>
</svg>
