<svg xmlns="http://www.w3.org/2000/svg" width="24" height="24" fill="currentColor" viewBox="0 0 24 24">
  <path fill-rule="evenodd" d="M12 1.25A10.73 10.73 0 001.25 12c0 5.937 4.813 10.75 10.75 10.75 1.957 0 3.794-.523 5.375-1.439a.75.75 0 10-.75-1.298A9.204 9.204 0 0112 21.25 9.25 9.25 0 012.75 12 9.23 9.23 0 0112 2.75c3.11 0 5.447 1.293 7.02 2.604a12.685 12.685 0 011.77 1.802 9.953 9.953 0 01.563.779l.004.006v.001a.75.75 0 001.393-.386v-5a.75.75 0 00-1.5 0V5.4a14.245 14.245 0 00-1.27-1.198C18.22 2.735 15.556 1.25 12 1.25zM22.75 12a.75.75 0 00-1.5 0 9.206 9.206 0 01-1.849 5.55.75.75 0 101.2.9A10.705 10.705 0 0022.75 12zM10 8.25a.75.75 0 00-.75.75v3c0 .414.336.75.75.75h3.25v1.5H10a.75.75 0 000 1.5h4a.75.75 0 00.75-.75v-3a.75.75 0 00-.75-.75h-3.25v-1.5H14a.75.75 0 000-1.5h-4z"/>
</svg>
