<svg xmlns="http://www.w3.org/2000/svg" width="24" height="24" fill="currentColor" viewBox="0 0 24 24">
  <path fill-rule="evenodd" d="M2.75 12a9.25 9.25 0 0111.1-9.065.75.75 0 00.3-1.47A10.797 10.797 0 0012 1.25C6.063 1.25 1.25 6.063 1.25 12c0 1.957.524 3.794 1.439 5.375a.75.75 0 101.298-.75A9.204 9.204 0 012.75 12zm19.785-2.15a.75.75 0 00-1.47.3A9.25 9.25 0 0112 21.25a9.204 9.204 0 01-4.624-1.237.75.75 0 10-.752 1.298A10.704 10.704 0 0012 22.75c5.937 0 10.75-4.813 10.75-10.75 0-.735-.074-1.454-.215-2.15zM20.53 4.53a.75.75 0 00-1.06-1.06l-8.72 8.72V9a.75.75 0 00-1.5 0v5c0 .414.336.75.75.75h5a.75.75 0 000-1.5h-3.19l8.72-8.72z"/>
</svg>
