<svg xmlns="http://www.w3.org/2000/svg" width="24" height="24" fill="currentColor" viewBox="0 0 24 24">
  <path fill-rule="evenodd" d="M12 1.25h-.052c-.899 0-1.648 0-2.242.08-.628.084-1.195.27-1.65.725-.456.456-.642 1.023-.726 1.65-.08.595-.08 1.345-.08 2.243V6.65a8.743 8.743 0 00-4 7.35c0 .754.096 1.487.276 2.187a.75.75 0 101.452-.374 7.25 7.25 0 112.226 3.625.75.75 0 10-.992 1.124A8.75 8.75 0 108.75 5.873c0-.894.004-1.506.067-1.968.062-.461.169-.659.3-.789.13-.13.327-.237.788-.3.483-.064 1.131-.066 2.095-.066h2.5a.75.75 0 01.75.75V4a.75.75 0 001.5 0v-.5a2.25 2.25 0 00-2.25-2.25H12zm0 11a.75.75 0 01.75.75v2a.75.75 0 01-1.5 0v-2a.75.75 0 01.75-.75z"/>
</svg>
