<svg xmlns="http://www.w3.org/2000/svg" width="24" height="24" fill="currentColor" viewBox="0 0 24 24">
  <path fill-rule="evenodd" d="M6.53 4.53a.75.75 0 00-1.06-1.06l-.5.5-.12.12C3.244 5.694 2.285 6.652 1.771 7.882l-.017.04c-.442 1.078-.497 2.25-.504 4.041L1.25 12v4.052c0 .899 0 1.648.08 2.242.084.628.27 1.195.725 1.65.456.456 1.023.642 1.65.726.595.08 1.345.08 2.243.08h.104c.899 0 1.648 0 2.243-.08.627-.084 1.194-.27 1.65-.726.455-.455.64-1.022.725-1.65.08-.594.08-1.343.08-2.242v-.104c0-.899 0-1.648-.08-2.242-.084-.628-.27-1.195-.725-1.65-.456-.456-1.023-.642-1.65-.726-.595-.08-1.344-.08-2.243-.08H5a.75.75 0 000 1.5h1c.964 0 1.612.002 2.095.066.461.063.659.17.789.3.13.13.237.328.3.79.064.482.066 1.13.066 2.094s-.002 1.612-.067 2.095c-.062.461-.169.659-.3.789-.13.13-.327.237-.788.3-.483.064-1.131.066-2.095.066-.964 0-1.612-.002-2.095-.067-.461-.062-.659-.169-.789-.3-.13-.13-.237-.327-.3-.788-.064-.483-.066-1.131-.066-2.095v-3.05c0-2.493.013-3.532.393-4.458l.013-.032c.386-.923 1.112-1.667 2.874-3.43l.5-.5zm12-1.06a.75.75 0 010 1.06l-.5.5c-1.762 1.763-2.488 2.507-2.874 3.43l-.013.032c-.38.926-.393 1.965-.393 4.458V16c0 .964.002 1.612.067 2.095.062.461.169.659.3.789.13.13.327.237.788.3.484.064 1.131.066 2.095.066.964 0 1.612-.002 2.095-.067.461-.062.659-.169.789-.3.13-.13.238-.327.3-.788.064-.483.066-1.131.066-2.095 0-.964-.002-1.612-.067-2.095-.061-.461-.169-.659-.3-.789-.13-.13-.327-.237-.788-.3-.483-.064-1.131-.066-2.095-.066h-1a.75.75 0 010-1.5h1.052c.899 0 1.648 0 2.242.08.628.084 1.195.27 1.65.726.456.455.642 1.022.726 1.65.08.594.08 1.344.08 2.242v.104c0 .899 0 1.648-.08 2.242-.084.628-.27 1.195-.725 1.65-.456.456-1.023.642-1.65.726-.595.08-1.345.08-2.243.08h-.104c-.899 0-1.648 0-2.242-.08-.628-.084-1.195-.27-1.65-.726-.456-.455-.642-1.022-.726-1.65-.08-.594-.08-1.343-.08-2.242V12.78 12v-.037c.008-1.792.063-2.963.505-4.04l.017-.041c.514-1.23 1.473-2.188 3.077-3.792l.12-.12.5-.5a.75.75 0 011.061 0z"/>
</svg>
