<svg xmlns="http://www.w3.org/2000/svg" width="24" height="24" fill="currentColor" viewBox="0 0 24 24">
  <path fill-rule="evenodd" d="M7.53 5.47a.75.75 0 010 1.06l-3.72 3.72h11.724c1.139 0 2.04 0 2.766.062.743.063 1.37.195 1.94.499a4.749 4.749 0 011.95 1.95c.303.569.435 1.196.498 1.939.062.726.062 1.627.062 2.765V18a.75.75 0 01-1.5 0v-.5c0-1.18 0-2.018-.056-2.673-.055-.646-.16-1.044-.328-1.359a3.25 3.25 0 00-1.334-1.334c-.315-.168-.713-.273-1.359-.328-.655-.055-1.493-.056-2.673-.056H2a.75.75 0 01-.53-1.28l5-5a.75.75 0 011.06 0zm-3.56 7.5a.75.75 0 011.06 0l2.5 2.5a.75.75 0 11-1.06 1.06l-2.5-2.5a.75.75 0 010-1.06z"/>
</svg>
