<svg xmlns="http://www.w3.org/2000/svg" width="24" height="24" fill="currentColor" viewBox="0 0 24 24">
  <path fill-rule="evenodd" d="M9 1.25h-.162c-1.706 0-2.747 0-3.615.281a5.75 5.75 0 00-3.692 3.692c-.281.868-.281 1.909-.281 3.615V9.5a.75.75 0 001.5 0V9c0-1.92.01-2.702.208-3.313a4.25 4.25 0 012.729-2.729C6.298 2.759 7.08 2.75 9 2.75h5c1.412 0 2.427 0 3.223.066.787.064 1.295.188 1.707.397a4.25 4.25 0 011.857 1.858c.21.411.333.919.397 1.706.065.796.066 1.81.066 3.223v4c0 1.412 0 2.427-.066 3.223-.064.787-.188 1.295-.397 1.707a4.25 4.25 0 01-1.857 1.857c-.412.21-.92.333-1.707.397-.796.065-1.81.066-3.223.066H9c-1.92 0-2.702-.01-3.313-.208a4.25 4.25 0 01-2.729-2.729C2.759 17.702 2.75 16.92 2.75 15v-.5a.75.75 0 00-1.5 0v.662c0 1.706 0 2.747.281 3.615a5.75 5.75 0 003.692 3.692c.868.281 1.909.281 3.615.281h5.196c1.371 0 2.447 0 3.311-.07.88-.072 1.607-.221 2.265-.557a5.75 5.75 0 002.513-2.513c.336-.658.485-1.385.556-2.265.071-.864.071-1.94.071-3.311V9.966c0-1.371 0-2.447-.07-3.311-.072-.88-.221-1.607-.557-2.265a5.75 5.75 0 00-2.513-2.513c-.658-.336-1.385-.484-2.265-.556-.864-.071-1.94-.071-3.311-.071H9zm6.53 6.22a.75.75 0 00-1.06 1.06l1.72 1.72h-5.553c-.752 0-1.359 0-1.851.037-.507.039-.953.12-1.37.314A3.75 3.75 0 005.6 12.415c-.194.418-.275.864-.314 1.37-.037.493-.037 1.1-.037 1.852V16a.75.75 0 001.5 0v-.333c0-.789 0-1.339.033-1.768.032-.421.091-.665.178-.85a2.25 2.25 0 011.088-1.088c.185-.087.429-.146.85-.178.43-.032.98-.033 1.768-.033h5.522l-1.72 1.72a.75.75 0 001.061 1.06l3-3a.75.75 0 000-1.06l-3-3z"/>
</svg>
