<svg xmlns="http://www.w3.org/2000/svg" width="24" height="24" fill="currentColor" viewBox="0 0 24 24">
  <path fill-rule="evenodd" d="M14.97 1.97a.75.75 0 011.06 0l.5.5 1.08 1.08.025.024c1.366 1.366 2.423 2.423 3.2 3.34.789.928 1.334 1.76 1.636 2.691a7.75 7.75 0 010 4.79c-.302.93-.847 1.763-1.635 2.692-.778.916-1.835 1.973-3.2 3.339h-.001l-.024.024-1.58 1.58-.5.5a.75.75 0 11-1.061-1.06l.5-.5 1.58-1.58c1.395-1.396 2.409-2.41 3.142-3.274.728-.857 1.136-1.517 1.353-2.185a6.25 6.25 0 000-3.862c-.217-.668-.625-1.327-1.353-2.185-.733-.864-1.747-1.878-3.142-3.273l-1.08-1.08-.5-.5a.75.75 0 010-1.061zM9 8.75a1.25 1.25 0 100 2.5 1.25 1.25 0 000-2.5zM6.25 10a2.75 2.75 0 115.5 0 2.75 2.75 0 01-5.5 0zm2.821-6.25c1.3 0 1.791.008 2.237.147.19.058.372.134.547.226.414.217.767.56 1.686 1.478l1.929 1.93c1.028 1.028 1.758 1.759 2.264 2.383.498.614.724 1.059.805 1.497.072.39.072.789 0 1.178-.08.438-.307.883-.805 1.497-.506.624-1.236 1.355-2.264 2.384-1.029 1.028-1.76 1.758-2.384 2.264-.614.498-1.059.724-1.497.805a3.25 3.25 0 01-1.178 0c-.438-.08-.883-.307-1.497-.805-.624-.506-1.355-1.236-2.384-2.264l-1.929-1.93c-.918-.918-1.26-1.271-1.478-1.685a3.25 3.25 0 01-.226-.547c-.096-.306-.133-.655-.143-1.32a.75.75 0 10-1.5.024c.01.687.047 1.217.21 1.742.086.276.197.543.331.799.337.64.856 1.16 1.661 1.964l.085.084 1.929 1.93.03.03c.991.991 1.777 1.777 2.469 2.338.709.575 1.384.97 2.17 1.115.569.105 1.153.105 1.723 0 .785-.145 1.46-.54 2.17-1.115.691-.561 1.477-1.347 2.468-2.338l.03-.03.03-.03c.992-.992 1.778-1.778 2.339-2.47.575-.709.97-1.384 1.115-2.17a4.753 4.753 0 000-1.723c-.145-.785-.54-1.46-1.115-2.17-.561-.691-1.347-1.477-2.338-2.468l-.03-.03-1.93-1.93-.084-.084c-.805-.805-1.324-1.324-1.964-1.66a4.748 4.748 0 00-.8-.332c-.69-.214-1.424-.214-2.562-.214H9.028c-1.402 0-2.513 0-3.399.092-.908.095-1.665.293-2.323.746a4.75 4.75 0 00-1.218 1.218c-.504.731-.693 1.586-.774 2.636a.75.75 0 001.496.116c.073-.953.232-1.493.513-1.901a3.25 3.25 0 01.834-.834c.366-.252.841-.407 1.627-.489.8-.083 1.833-.084 3.287-.084z"/>
</svg>
