<svg xmlns="http://www.w3.org/2000/svg" width="24" height="24" fill="currentColor" viewBox="0 0 24 24">
  <path fill-rule="evenodd" d="M12.23 3.623a3.33 3.33 0 013.19-2.373h.08a.75.75 0 010 1.5h-.08c-.809 0-1.521.53-1.753 1.304l-.659 2.196H15.5a1.75 1.75 0 001.715-2.1.75.75 0 011.47-.3 3.262 3.262 0 01-.446 2.4H20a2.75 2.75 0 01.75 5.396v5.586c0 .813 0 1.469-.043 2-.045.546-.14 1.026-.366 1.47a3.75 3.75 0 01-1.639 1.64c-.444.226-.924.32-1.47.365-.531.043-1.187.043-2 .043H8.768c-.813 0-1.469 0-2-.043-.546-.045-1.026-.14-1.47-.366a3.75 3.75 0 01-1.64-1.639c-.226-.444-.32-.924-.365-1.47-.043-.531-.043-1.187-.043-2v-5.585A2.751 2.751 0 014 6.25h1.76a3.25 3.25 0 012.74-5h.08a3.33 3.33 0 013.19 2.373l.23.767.23-.767zM4.75 11.75H9a.75.75 0 000-1.5H4a1.25 1.25 0 110-2.5h7.25V18a.75.75 0 001.5 0v-6.25h6.5v5.45c0 .852 0 1.447-.038 1.91-.038.453-.107.714-.207.912-.216.423-.56.767-.983.983-.198.1-.459.17-.913.207-.462.037-1.057.038-1.909.038H8.8c-.852 0-1.447 0-1.91-.038-.453-.038-.714-.107-.911-.207a2.25 2.25 0 01-.984-.983c-.1-.198-.17-.459-.207-.913-.037-.462-.038-1.057-.038-1.909v-5.45zM20 10.25a1.25 1.25 0 100-2.5h-7.25v2.5H20zm-9.008-4l-.659-2.196A1.83 1.83 0 008.58 2.75H8.5a1.75 1.75 0 100 3.5h2.492z"/>
</svg>
