<svg xmlns="http://www.w3.org/2000/svg" width="24" height="24" fill="currentColor" viewBox="0 0 24 24">
  <path fill-rule="evenodd" d="M15 2.75c1.92 0 2.702.01 3.313.208a4.25 4.25 0 012.729 2.729c.199.611.208 1.393.208 3.313v5c0 1.412 0 2.427-.066 3.223-.064.787-.188 1.295-.397 1.707a4.25 4.25 0 01-1.857 1.857c-.412.21-.92.333-1.707.397-.796.065-1.81.066-3.223.066h-4c-1.412 0-2.427 0-3.223-.066-.787-.064-1.295-.188-1.706-.397a4.25 4.25 0 01-1.858-1.857c-.21-.412-.333-.92-.397-1.707-.065-.796-.066-1.81-.066-3.223V9c0-1.92.01-2.702.208-3.313a4.25 4.25 0 012.729-2.729C6.298 2.759 7.08 2.75 9 2.75h.5a.75.75 0 100-1.5h-.662c-1.706 0-2.747 0-3.615.281a5.75 5.75 0 00-3.692 3.692c-.281.868-.281 1.909-.281 3.615v5.196c0 1.371 0 2.447.07 3.311.073.88.221 1.607.557 2.265a5.75 5.75 0 002.513 2.513c.658.336 1.385.485 2.265.556.864.071 1.94.071 3.311.071h4.068c1.371 0 2.447 0 3.311-.07.88-.072 1.607-.221 2.265-.557a5.75 5.75 0 002.513-2.513c.336-.658.485-1.385.556-2.265.071-.864.071-1.94.071-3.311V8.838c0-1.706 0-2.747-.281-3.615a5.75 5.75 0 00-3.692-3.692c-.868-.281-1.909-.281-3.615-.281H14.5a.75.75 0 000 1.5h.5zM12.75 9a.75.75 0 00-1.5 0v2a.75.75 0 001.5 0V9zm.25 5a1 1 0 11-2 0 1 1 0 012 0zm-1-8.75c-2.206 0-3.75.833-4.738 1.68l-.012.01V6.5a.75.75 0 10-1.5 0V9c0 .414.336.75.75.75h2a.75.75 0 100-1.5h-.462c.063-.06.13-.12.2-.18C9 7.416 10.206 6.75 12 6.75A5.237 5.237 0 0117.25 12a.75.75 0 001.5 0c0-3.726-3-6.75-6.75-6.75zM6.75 12a.75.75 0 00-1.5 0A6.75 6.75 0 0012 18.75c1.887 0 3.421-.852 4.454-1.659.103-.08.202-.16.296-.24v.649a.75.75 0 001.5 0V15a.75.75 0 00-.75-.75h-2a.75.75 0 000 1.5h.228c-.063.053-.129.106-.197.159-.889.694-2.104 1.341-3.531 1.341A5.25 5.25 0 016.75 12z"/>
</svg>
