<svg xmlns="http://www.w3.org/2000/svg" width="24" height="24" fill="currentColor" viewBox="0 0 24 24">
  <path fill-rule="evenodd" d="M15 2.75c1.92 0 2.702.01 3.313.208a4.25 4.25 0 012.729 2.729c.199.611.208 1.393.208 3.313v5c0 1.412 0 2.427-.066 3.223-.064.787-.188 1.295-.397 1.707a4.25 4.25 0 01-1.857 1.857c-.412.21-.92.333-1.707.397-.796.065-1.81.066-3.223.066h-4c-1.412 0-2.427 0-3.223-.066-.787-.064-1.295-.188-1.706-.397a4.25 4.25 0 01-1.858-1.857c-.21-.412-.333-.92-.397-1.707-.065-.796-.066-1.81-.066-3.223V9c0-1.92.01-2.702.208-3.313a4.25 4.25 0 012.729-2.729C6.298 2.759 7.08 2.75 9 2.75h.5a.75.75 0 100-1.5h-.662c-1.706 0-2.747 0-3.615.281a5.75 5.75 0 00-3.692 3.692c-.281.868-.281 1.909-.281 3.615v5.196c0 1.371 0 2.447.07 3.311.073.88.221 1.607.557 2.265a5.75 5.75 0 002.513 2.513c.658.336 1.385.485 2.265.556.864.071 1.94.071 3.311.071h4.068c1.371 0 2.447 0 3.311-.07.88-.072 1.607-.221 2.265-.557a5.75 5.75 0 002.513-2.513c.336-.658.485-1.385.556-2.265.071-.864.071-1.94.071-3.311V8.838c0-1.706 0-2.747-.281-3.615a5.75 5.75 0 00-3.692-3.692c-.868-.281-1.909-.281-3.615-.281H14.5a.75.75 0 000 1.5h.5zm-3.522 3.861a2.492 2.492 0 013.494 3.495.75.75 0 101.186.918 3.991 3.991 0 00-5.599-5.598.75.75 0 10.919 1.185zM7.53 5.47a.75.75 0 00-1.06 1.06L7.94 8l-.97.97a5.7 5.7 0 108.06 8.06l.97-.97 1.47 1.47a.75.75 0 001.06-1.06l-2-2-2.352-2.352L11.78 9.72 9.53 7.47l-2-2zm.5 4.56L9 9.06l1.19 1.19-.993.993a2.485 2.485 0 103.578 3.448l.893-.962L14.94 15l-.97.97a4.2 4.2 0 11-5.939-5.94zm2.227 2.274l.993-.993 1.357 1.356-.931 1.003a.985.985 0 11-1.419-1.367zm9.273.226a.75.75 0 10-1.06-1.06l-1 1a.75.75 0 001.06 1.06l1-1z"/>
</svg>
