<svg xmlns="http://www.w3.org/2000/svg" width="24" height="24" fill="currentColor" viewBox="0 0 24 24">
  <path fill-rule="evenodd" d="M17.445 3.708a1.25 1.25 0 011.11 0c.156.078.327.234.915.822.588.588.744.759.822.915.173.35.173.76 0 1.11-.078.156-.234.327-.822.915l-.767.767a3.251 3.251 0 01-2.94-2.94l.768-.767c.588-.588.758-.744.914-.822zM14.51 6.551l-7.266 7.267c-.88.88-1.209 1.219-1.424 1.62-.215.402-.314.862-.559 2.084l-.304 1.522 1.522-.305c1.222-.244 1.682-.343 2.084-.558.401-.216.74-.543 1.62-1.424l2.288-2.287a.75.75 0 111.06 1.06l-2.287 2.287-.08.08c-.773.774-1.272 1.274-1.894 1.606-.621.333-1.314.47-2.386.685l-.111.022-2.625.525a.75.75 0 01-.882-.882l.525-2.625.022-.112c.214-1.072.352-1.764.685-2.385.332-.622.832-1.12 1.605-1.894l.08-.08L15.47 3.47l.086-.086c.46-.461.816-.818 1.223-1.02a2.75 2.75 0 012.442 0c.407.202.764.559 1.224 1.02l.085.086.086.085c.461.46.818.817 1.02 1.224a2.75 2.75 0 010 2.442c-.202.407-.559.763-1.02 1.223l-.086.086-4 4a.75.75 0 01-1.06-1.06l1.978-1.98a4.763 4.763 0 01-2.939-2.939z"/>
</svg>
