<svg xmlns="http://www.w3.org/2000/svg" width="24" height="24" fill="currentColor" viewBox="0 0 24 24">
  <path fill-rule="evenodd" d="M15.375 2.25a.75.75 0 000 1.5h3.814l-2.72 2.72a.75.75 0 001.061 1.06l2.72-2.72v3.815a.75.75 0 001.5 0V3a.75.75 0 00-.75-.75h-5.625zm-.845 8.28a.75.75 0 10-1.06-1.06L12 10.94 4.81 3.75h3.815a.75.75 0 000-1.5H3a.75.75 0 00-.75.75v5.625a.75.75 0 001.5 0V4.811L10.94 12l-1.47 1.47a.75.75 0 101.06 1.06L12 13.06l7.19 7.19h-3.815a.75.75 0 000 1.5H21a.75.75 0 00.75-.75v-5.625a.75.75 0 00-1.5 0v3.814L13.06 12l1.47-1.47zM3.75 15.375a.75.75 0 00-1.5 0V21c0 .414.336.75.75.75h5.625a.75.75 0 000-1.5H4.811l2.72-2.72a.75.75 0 10-1.061-1.06l-2.72 2.72v-3.815z"/>
</svg>
