<svg xmlns="http://www.w3.org/2000/svg" width="24" height="24" fill="currentColor" viewBox="0 0 24 24">
  <path fill-rule="evenodd" d="M2.75 11a8.25 8.25 0 1115.853 3.208.75.75 0 101.382.584A9.723 9.723 0 0020.75 11c0-5.385-4.365-9.75-9.75-9.75S1.25 5.615 1.25 11s4.365 9.75 9.75 9.75a9.708 9.708 0 005.567-1.745c.28-.194.462-.321.601-.407.092-.056.136-.076.147-.081h.001a.413.413 0 01.053-.007h.004l.013.003a.468.468 0 01.047.015.823.823 0 01.102.081c.1.087.227.213.43.417l2.505 2.504a.75.75 0 101.06-1.06l-2.504-2.505-.016-.016a10.942 10.942 0 00-.486-.468 1.832 1.832 0 00-.546-.35 1.635 1.635 0 00-.959-.085 1.937 1.937 0 00-.637.275c-.18.11-.398.262-.654.44l-.018.013A8.25 8.25 0 012.75 11zM8 10.25a.75.75 0 000 1.5h6a.75.75 0 000-1.5H8z"/>
</svg>
