<svg xmlns="http://www.w3.org/2000/svg" width="24" height="24" fill="currentColor" viewBox="0 0 24 24">
  <path fill-rule="evenodd" d="M16.25 2c0 .414.336.75.75.75h3.19l-3.72 3.72a.75.75 0 001.06 1.06l3.72-3.72V7a.75.75 0 001.5 0V2a.75.75 0 00-.75-.75h-5a.75.75 0 00-.75.75zm-1.22 8.03a.75.75 0 10-1.06-1.06l-2.5 2.5a.75.75 0 101.06 1.06l2.5-2.5zM8.5 3.25h-.121c-1.279 0-2.058 0-2.721.159a5.75 5.75 0 00-4.25 4.249c-.158.662-.158 1.442-.158 2.72V11a.75.75 0 001.5 0v-.5c0-1.438.005-2.025.117-2.492a4.25 4.25 0 013.14-3.14c.468-.113 1.055-.118 2.493-.118H13a.75.75 0 000-1.5H8.5zM20.75 11a.75.75 0 00-1.5 0v2c0 1.892-.001 3.25-.115 4.302-.113 1.038-.328 1.688-.697 2.196-.262.36-.58.678-.94.94-.508.37-1.158.585-2.196.697-1.052.114-2.41.115-4.302.115H8.5c-1.438 0-2.025-.005-2.492-.117a4.25 4.25 0 01-3.14-3.14c-.113-.468-.118-1.055-.118-2.493V15a.75.75 0 00-1.5 0v.621c0 1.279 0 2.059.159 2.721a5.75 5.75 0 004.249 4.25c.662.158 1.442.158 2.72.158h2.667c1.837 0 3.276 0 4.418-.124 1.166-.126 2.11-.388 2.917-.974a5.749 5.749 0 001.272-1.272c.586-.807.848-1.75.974-2.916.124-1.143.124-2.582.124-4.419V11z"/>
</svg>
