<svg xmlns="http://www.w3.org/2000/svg" width="24" height="24" fill="currentColor" viewBox="0 0 24 24">
  <path fill-rule="evenodd" d="M12.323 1.323L12 2l.324-.677.002.001.005.003.015.007a5.41 5.41 0 01.243.126c.162.086.392.215.672.385.56.341 1.323.853 2.15 1.541 1.647 1.372 3.581 3.476 4.61 6.362a.75.75 0 11-1.413.504c-.908-2.547-2.632-4.443-4.157-5.713a16.798 16.798 0 00-1.673-1.227c.013.38.03.77.048 1.169l.033.738c.047 1.125.08 2.285.014 3.328-.064 1.025-.227 2.032-.63 2.802a2.679 2.679 0 01-.882 1.01c-.395.262-.854.391-1.361.391-.631 0-1.201-.16-1.68-.514-.471-.348-.794-.838-1.016-1.395-.272-.678-.42-1.52-.493-2.486-.143.185-.29.388-.438.608C5.55 10.192 4.75 11.923 4.75 14c0 4.128 3.161 7.25 7.25 7.25s7.25-3.122 7.25-7.25a.75.75 0 011.5 0c0 4.962-3.839 8.75-8.75 8.75S3.25 18.962 3.25 14c0-2.468.95-4.487 1.877-5.872.465-.694.93-1.238 1.28-1.61A9.883 9.883 0 017 5.941l.011-.009.004-.003.001-.001c.001 0 .001-.001.485.572l-.484-.573A.75.75 0 018.25 6.5c0 1.747.13 2.993.446 3.784.153.38.33.609.515.745.178.132.42.221.789.221a.928.928 0 00.533-.141c.13-.086.26-.228.381-.458.252-.48.402-1.223.463-2.198.06-.957.03-2.047-.017-3.172l-.031-.713c-.04-.88-.079-1.765-.079-2.568a.75.75 0 011.073-.677z"/>
</svg>
