<svg xmlns="http://www.w3.org/2000/svg" width="24" height="24" fill="currentColor" viewBox="0 0 24 24">
  <path fill-rule="evenodd" d="M7 3.25a.75.75 0 00-.75.75v4a.75.75 0 001.5 0V5.81l1.457 1.458.021.021c.378.378.693.693.972.93.29.246.59.451.95.568a2.75 2.75 0 001.7 0c.36-.117.66-.322.95-.568.279-.237.594-.552.972-.93l.021-.021L17.03 5.03a.75.75 0 00-1.06-1.06l-2.238 2.237c-.404.405-.676.676-.903.868-.22.187-.346.254-.443.285a1.25 1.25 0 01-.772 0c-.097-.031-.224-.098-.443-.285-.227-.192-.499-.463-.903-.868L8.81 4.75H11a.75.75 0 000-1.5H7zm5 8c-1.361 0-2.786.214-4.224.663-1.931.604-3.884 1.632-5.737 3.139l-.015.012c-.147.12-.265.215-.407.372-.375.416-.589.954-.66 1.48-.07.526-.007 1.101.245 1.602.096.19.209.347.35.546l.023.03.032.046c.176.247.312.437.46.589a2.75 2.75 0 003.052.606 5.05 5.05 0 00.65-.369l.047-.03.738-.46.074-.046c.42-.263.752-.47 1.01-.754.227-.25.406-.541.528-.856.138-.358.174-.747.22-1.242l.008-.086.132-1.423a.75.75 0 00-1.494-.139L6.9 16.354c-.058.621-.08.787-.134.926a1.251 1.251 0 01-.24.39c-.1.11-.238.204-.767.535l-.738.46c-.326.205-.419.26-.494.292a1.25 1.25 0 01-1.387-.275c-.057-.059-.121-.145-.345-.458-.173-.242-.216-.305-.253-.38a1.275 1.275 0 01-.098-.727c.038-.281.148-.521.286-.674.06-.066.095-.096.255-.226 1.712-1.392 3.497-2.327 5.239-2.871A12.677 12.677 0 0112 12.75c1.204 0 2.479.19 3.776.595 1.742.544 3.527 1.48 5.239 2.87.16.13.195.161.255.227.138.153.248.393.286.674.038.282-.005.543-.098.727-.037.075-.08.138-.253.38-.224.313-.288.4-.345.458a1.25 1.25 0 01-1.387.275c-.075-.032-.168-.087-.494-.291l-.738-.461c-.53-.331-.667-.425-.767-.536a1.25 1.25 0 01-.24-.389c-.054-.139-.076-.305-.134-.926l-.133-1.423a.75.75 0 00-1.493.14l.132 1.422.008.086c.046.495.082.884.22 1.242.122.315.301.605.528.856.258.284.59.49 1.01.754l.074.046.738.46.047.03c.257.16.455.285.65.369a2.75 2.75 0 003.052-.606c.148-.152.284-.342.46-.589l.032-.045.023-.031c.141-.198.254-.357.35-.546.252-.5.316-1.076.245-1.602-.071-.526-.285-1.064-.66-1.48a3.256 3.256 0 00-.407-.372l-.015-.012c-1.853-1.507-3.806-2.535-5.737-3.139A14.174 14.174 0 0012 11.25z"/>
</svg>
