<svg xmlns="http://www.w3.org/2000/svg" width="24" height="24" fill="currentColor" viewBox="0 0 24 24">
  <path fill-rule="evenodd" d="M3 1.25h-.034c-.206 0-.427 0-.615.025-.219.03-.5.105-.735.341a1.239 1.239 0 00-.341.735c-.025.188-.025.41-.025.615V5.034c0 .206 0 .427.025.615.03.219.105.5.341.735.236.236.516.312.735.341.188.025.41.025.615.025H5.034c.206 0 .427 0 .615-.025.219-.03.5-.105.735-.341.236-.236.312-.516.341-.735.025-.188.025-.41.025-.615V2.966c0-.206 0-.427-.025-.615-.03-.219-.105-.5-.341-.735a1.239 1.239 0 00-.735-.341c-.188-.025-.41-.025-.615-.025H3zM2.75 3l.001-.249L3 2.75h2l.249.001L5.25 3v2l-.001.249L5 5.25H3l-.249-.001L2.75 5V3zm7.5 1a.75.75 0 01.75-.75h5a.75.75 0 010 1.5h-5a.75.75 0 01-.75-.75zm9 0a.75.75 0 01.75-.75h2a.75.75 0 010 1.5h-2a.75.75 0 01-.75-.75zm-9 8a.75.75 0 01.75-.75h11a.75.75 0 010 1.5H11a.75.75 0 01-.75-.75zm0 8a.75.75 0 01.75-.75h5a.75.75 0 010 1.5h-5a.75.75 0 01-.75-.75zm9 0a.75.75 0 01.75-.75h2a.75.75 0 010 1.5h-2a.75.75 0 01-.75-.75zM2.966 9.25H4a.75.75 0 010 1.5H3l-.249.001L2.75 11v2l.001.249.249.001h2l.249-.001L5.25 13v-1a.75.75 0 011.5 0v1.034c0 .206 0 .427-.025.615-.03.219-.105.5-.341.735a1.239 1.239 0 01-.735.341 4.844 4.844 0 01-.615.025H2.966c-.206 0-.427 0-.615-.025-.219-.03-.5-.105-.735-.341a1.239 1.239 0 01-.341-.735c-.025-.188-.025-.41-.025-.614v-2.069c0-.205 0-.427.025-.615.03-.219.105-.5.341-.735.236-.236.516-.311.735-.341.188-.025.41-.025.615-.025zm.034 8h-.034c-.206 0-.427 0-.615.025-.219.03-.5.105-.735.341a1.239 1.239 0 00-.341.735c-.025.188-.025.41-.025.615v2.069c0 .205 0 .426.025.614.03.219.105.5.341.735.236.236.516.311.735.341.188.025.41.025.615.025H5.034c.206 0 .427 0 .615-.025.219-.03.5-.105.735-.341.236-.236.312-.516.341-.735.025-.188.025-.41.025-.614v-2.069c0-.206 0-.427-.025-.615-.03-.219-.105-.5-.341-.735a1.239 1.239 0 00-.735-.341 4.845 4.845 0 00-.615-.025H3zM2.75 19l.001-.249L3 18.75h2l.249.001.001.249v2l-.001.249L5 21.25H3l-.249-.001L2.75 21v-2z"/>
</svg>
