<svg xmlns="http://www.w3.org/2000/svg" width="24" height="24" fill="currentColor" viewBox="0 0 24 24">
  <path fill-rule="evenodd" d="M3.53 2.47a.75.75 0 00-1.06 1.06L5.63 6.692c-1.71.82-3.237 1.96-4.504 3.34a.75.75 0 101.105 1.015 13.284 13.284 0 014.532-3.222l1.94 1.94a10.744 10.744 0 00-4.072 2.407.75.75 0 001.029 1.092 9.228 9.228 0 014.262-2.28l2.269 2.269a6.726 6.726 0 00-4.57 1.61.75.75 0 00.973 1.14A5.226 5.226 0 0112 14.75c.766 0 1.492.164 2.147.457l6.323 6.323a.75.75 0 101.06-1.06l-6.404-6.405a.67.67 0 00-.025-.025l-4.394-4.394a.707.707 0 00-.017-.017L7.484 6.423A.756.756 0 007.46 6.4L3.53 2.47zM12 6.75c-.643 0-1.276.046-1.894.134A.75.75 0 119.894 5.4a14.868 14.868 0 016.32.462.75.75 0 11-.428 1.438A13.253 13.253 0 0012 6.75zm6.573.863a.75.75 0 011.03-.255 14.764 14.764 0 013.27 2.675.75.75 0 11-1.106 1.014 13.326 13.326 0 00-2.939-2.405.75.75 0 01-.255-1.03zm-5.308 2.438a.75.75 0 01.884-.586 10.725 10.725 0 015.218 2.707.75.75 0 01-1.028 1.092 9.225 9.225 0 00-4.488-2.329.75.75 0 01-.586-.884zM12 19a1 1 0 100-2 1 1 0 000 2z"/>
</svg>
