<svg xmlns="http://www.w3.org/2000/svg" width="24" height="24" fill="currentColor" viewBox="0 0 24 24">
  <path fill-rule="evenodd" d="M18.313 2.958C17.702 2.759 16.92 2.75 15 2.75h-.5a.75.75 0 010-1.5h.662c1.706 0 2.747 0 3.615.281a5.75 5.75 0 013.692 3.692c.281.868.281 1.909.281 3.615v5.196c0 1.371 0 2.447-.07 3.311-.072.88-.221 1.607-.557 2.265a5.75 5.75 0 01-2.513 2.513c-.658.336-1.385.485-2.265.556-.864.071-1.94.071-3.311.071H9.966c-1.371 0-2.447 0-3.311-.07-.88-.072-1.607-.221-2.265-.557a5.75 5.75 0 01-2.513-2.513c-.336-.658-.484-1.385-.556-2.265-.071-.864-.071-1.94-.071-3.311V8.838c0-1.706 0-2.747.281-3.615a5.75 5.75 0 013.692-3.692c.868-.281 1.909-.281 3.615-.281H9.5a.75.75 0 010 1.5H9c-1.92 0-2.702.01-3.313.208a4.25 4.25 0 00-2.729 2.729C2.759 6.298 2.75 7.08 2.75 9v5c0 1.412 0 2.427.066 3.223.064.787.188 1.295.397 1.707a4.25 4.25 0 001.858 1.857c.411.21.919.333 1.706.397.796.065 1.81.066 3.223.066h4c1.412 0 2.427 0 3.223-.066.787-.064 1.295-.188 1.707-.397a4.25 4.25 0 001.857-1.857c.21-.412.333-.92.397-1.707.065-.796.066-1.81.066-3.223V9c0-1.92-.01-2.702-.208-3.313a4.25 4.25 0 00-2.729-2.729zm-6.367 8.498a2.276 2.276 0 00-3.296 0l-1.13 1.166a2.784 2.784 0 000 3.844 2.528 2.528 0 003.66 0l.474-.489a.75.75 0 111.077 1.044l-.473.489a4.028 4.028 0 01-5.815 0c-1.59-1.64-1.59-4.291 0-5.932l1.13-1.166a3.776 3.776 0 015.45 0l.182.188a.75.75 0 01-1.077 1.045l-.182-.188zm5.611-4.966a4.028 4.028 0 00-5.815 0l-.473.49a.75.75 0 101.077 1.043l.473-.489a2.528 2.528 0 013.661 0 2.784 2.784 0 010 3.844l-1.13 1.166a2.276 2.276 0 01-3.296 0l-.182-.188a.75.75 0 00-1.077 1.044l.182.188a3.776 3.776 0 005.45 0l1.13-1.166c1.59-1.64 1.59-4.291 0-5.932z"/>
</svg>
