<svg xmlns="http://www.w3.org/2000/svg" width="24" height="24" fill="currentColor" viewBox="0 0 24 24">
  <path fill-rule="evenodd" d="M11.25 2a.75.75 0 01.75-.75c5.937 0 10.75 4.813 10.75 10.75 0 1.527-.319 2.982-.895 4.3a.75.75 0 01-1.374-.6 9.216 9.216 0 00.769-3.7A9.25 9.25 0 0012 2.75a.75.75 0 01-.75-.75zM3.373 6.884a.75.75 0 01.338 1.005A9.209 9.209 0 002.75 12c0 2.083.688 4.004 1.849 5.55a.75.75 0 11-1.2.9A10.706 10.706 0 011.25 12c0-1.715.402-3.338 1.118-4.778a.75.75 0 011.005-.338zm16.294 11.58c.295.29.3.765.01 1.061A10.72 10.72 0 0112 22.75c-1.957 0-3.794-.523-5.376-1.439a.75.75 0 01.752-1.298A9.204 9.204 0 0012 21.25a9.22 9.22 0 006.606-2.775.75.75 0 011.06-.01z"/>
</svg>
