<svg xmlns="http://www.w3.org/2000/svg" width="24" height="24" fill="currentColor" viewBox="0 0 24 24">
  <path fill-rule="evenodd" d="M18.53.47a.75.75 0 10-1.06 1.06l1.72 1.72H14a.75.75 0 000 1.5h5.19l-1.72 1.72a.75.75 0 001.06 1.06l3-3a.75.75 0 000-1.06l-3-3zM8.5 3.25h-.045c-1.135 0-2.05 0-2.779.082-.754.085-1.403.266-1.959.693-.26.2-.493.432-.692.692-.427.556-.608 1.205-.693 1.96-.082.729-.082 1.643-.082 2.778V10a.75.75 0 001.5 0v-.5c0-1.19.001-2.02.073-2.656.07-.62.199-.962.392-1.214.12-.156.26-.295.415-.415.252-.193.594-.322 1.214-.392C6.48 4.75 7.31 4.75 8.5 4.75H10a.75.75 0 000-1.5H8.5zM21.75 14.5V14a.75.75 0 00-1.5 0v.5c0 1.19-.001 2.02-.073 2.656-.07.62-.199.962-.392 1.214a2.25 2.25 0 01-.415.415c-.252.193-.594.322-1.214.392-.636.072-1.466.073-2.656.073H14a.75.75 0 000 1.5h1.545c1.135 0 2.05 0 2.779-.082.754-.085 1.403-.266 1.959-.693.26-.2.493-.432.692-.692.427-.556.608-1.205.693-1.96.082-.729.082-1.643.082-2.778V14.5zM6.53 17.53a.75.75 0 10-1.06-1.06l-3 3a.75.75 0 000 1.06l3 3a.75.75 0 001.06-1.06l-1.72-1.72H10a.75.75 0 000-1.5H4.81l1.72-1.72z"/>
</svg>
