<svg xmlns="http://www.w3.org/2000/svg" width="24" height="24" fill="currentColor" viewBox="0 0 24 24">
  <path fill-rule="evenodd" d="M7 2.25a.75.75 0 000 1.5h10a.75.75 0 000-1.5H7zM12.75 6a.75.75 0 00-1.5 0v7a.75.75 0 001.5 0V6zm7.28 16.03l2.5-2.5a.75.75 0 000-1.06l-2.5-2.5a.75.75 0 00-1.06 1.06l1.22 1.22H14a.75.75 0 000 1.5h6.19l-1.22 1.22a.75.75 0 101.06 1.06zM10 19.75a.75.75 0 000-1.5H3.81l1.22-1.22a.75.75 0 10-1.06-1.06l-2.5 2.5a.75.75 0 000 1.06l2.5 2.5a.75.75 0 001.06-1.06l-1.22-1.22H10z"/>
</svg>
