<svg xmlns="http://www.w3.org/2000/svg" width="24" height="24" fill="currentColor" viewBox="0 0 24 24">
  <path fill-rule="evenodd" d="M10 .25a.75.75 0 000 1.5h4a.75.75 0 000-1.5h-4zm2 4.5a8.25 8.25 0 00-7.393 11.916.75.75 0 11-1.343.668A9.713 9.713 0 012.25 13c0-5.385 4.365-9.75 9.75-9.75 2.422 0 4.639.884 6.344 2.346L19.97 3.97a.75.75 0 111.06 1.06l-1.626 1.626A9.714 9.714 0 0121.75 13c0 5.385-4.365 9.75-9.75 9.75a9.708 9.708 0 01-5.417-1.642.75.75 0 11.834-1.247A8.25 8.25 0 1012 4.75zm0 4.5a.75.75 0 01.75.75v4a.75.75 0 01-1.5 0v-4a.75.75 0 01.75-.75z"/>
</svg>
