<svg xmlns="http://www.w3.org/2000/svg" width="24" height="24" fill="currentColor" viewBox="0 0 24 24">
  <path fill-rule="evenodd" d="M16.685 2.795c-.329-.043-.732-.045-1.685-.045h-3c-1.883 0-3.245 0-4.312.097-1.057.096-1.75.281-2.313.606a5.25 5.25 0 00-1.922 1.922c-.325.563-.51 1.256-.606 2.313C2.751 8.755 2.75 10.117 2.75 12c0 1.883 0 3.245.097 4.312.096 1.057.281 1.75.606 2.313a5.25 5.25 0 001.922 1.922c.563.325 1.256.51 2.313.606 1.067.096 2.429.097 4.312.097h3c.953 0 1.356-.002 1.685-.045a5.25 5.25 0 004.52-4.52c.043-.329.045-.732.045-1.685v-.5a.75.75 0 011.5 0V15.07c0 .862 0 1.372-.058 1.811a6.75 6.75 0 01-5.81 5.811c-.44.058-.95.058-1.812.058H11.962c-1.837 0-3.267 0-4.41-.104-1.16-.105-2.098-.322-2.927-.8a6.75 6.75 0 01-2.47-2.471c-.48-.83-.696-1.767-.801-2.927-.104-1.143-.104-2.573-.104-4.41v-.076c0-1.837 0-3.267.104-4.41.105-1.16.322-2.098.8-2.927a6.75 6.75 0 012.471-2.47c.83-.48 1.767-.696 2.927-.801 1.143-.104 2.573-.104 4.41-.104H15.07c.862 0 1.372 0 1.811.058a6.75 6.75 0 015.811 5.81c.058.44.058.95.058 1.812V9.5a.75.75 0 01-1.5 0V9c0-.953-.002-1.356-.045-1.685a5.25 5.25 0 00-4.52-4.52z"/>
</svg>
