<svg xmlns="http://www.w3.org/2000/svg" width="24" height="24" fill="currentColor" viewBox="0 0 24 24">
  <path fill-rule="evenodd" d="M19.221 2.364a2.75 2.75 0 00-2.442 0c-.407.202-.763.559-1.223 1.02l-.086.086-3 3a.75.75 0 001.06 1.06l.98-.979a4.763 4.763 0 002.938 2.94l-.978.979a.75.75 0 001.06 1.06l3-3 .086-.086c.461-.46.818-.816 1.02-1.223a2.75 2.75 0 000-2.442c-.202-.407-.559-.763-1.02-1.224l-.086-.085-.085-.086c-.46-.461-.817-.818-1.224-1.02zm-.518 5.873l.767-.767c.588-.588.744-.76.822-.915a1.25 1.25 0 000-1.11c-.078-.156-.234-.327-.822-.915-.588-.588-.759-.744-.915-.822a1.25 1.25 0 00-1.11 0c-.156.078-.326.234-.915.822l-.767.767a3.251 3.251 0 002.94 2.94zM4.53 2.47a.75.75 0 10-1.06 1.06L9.44 9.5l-3.258 3.257-.08.08c-.773.773-1.273 1.272-1.605 1.894-.333.621-.471 1.313-.685 2.385l-.022.112-.525 2.625a.75.75 0 00.882.882l2.625-.525.111-.022c1.072-.214 1.765-.352 2.386-.685.622-.332 1.12-.832 1.894-1.605l.08-.08 1.287-1.288a.75.75 0 00-1.06-1.06l-1.288 1.287c-.88.88-1.219 1.208-1.62 1.424-.402.215-.862.314-2.084.558l-1.522.305.304-1.522c.245-1.222.344-1.682.56-2.084.214-.401.542-.74 1.423-1.62L10.5 10.56l3.47 3.47 6.5 6.5a.75.75 0 001.06-1.061l-6.5-6.5-4-4-6.5-6.5z"/>
</svg>
