<svg xmlns="http://www.w3.org/2000/svg" width="24" height="24" fill="currentColor" viewBox="0 0 24 24">
  <path fill-rule="evenodd" d="M12 2.75c-5.104 0-9.25 4.164-9.25 9.309a9.315 9.315 0 005.01 8.276.75.75 0 01-.346 1.415H2a.75.75 0 010-1.5h2.986a10.81 10.81 0 01-3.736-8.191C1.25 6.093 6.059 1.25 12 1.25c1.958 0 3.795.527 5.377 1.447a.75.75 0 11-.754 1.297A9.16 9.16 0 0012 2.75zm8.27 3.601a.75.75 0 011.024.273 10.807 10.807 0 011.456 5.435 10.81 10.81 0 01-3.736 8.191H22a.75.75 0 010 1.5h-5.414a.75.75 0 01-.346-1.415 9.315 9.315 0 005.01-8.276 9.307 9.307 0 00-1.254-4.683.75.75 0 01.273-1.025z"/>
</svg>
