<svg xmlns="http://www.w3.org/2000/svg" width="24" height="24" fill="currentColor" viewBox="0 0 24 24">
  <path fill-rule="evenodd" d="M9.25 2a.75.75 0 01.75-.75h1.834c1.931 0 3.427 0 4.625.098 1.213.099 2.187.302 3.06.747a7.75 7.75 0 013.386 3.387c.445.872.648 1.846.747 3.06.098 1.197.098 2.693.098 4.624V16a.75.75 0 01-1.5 0v-2.8c0-1.973 0-3.407-.093-4.537-.091-1.12-.27-1.875-.588-2.5a6.25 6.25 0 00-2.732-2.732c-.625-.318-1.38-.497-2.5-.588-1.13-.092-2.564-.093-4.537-.093H10A.75.75 0 019.25 2zm.84 2.25H13.042c1.37 0 2.454 0 3.32.088.888.09 1.63.28 2.277.713a4.75 4.75 0 011.311 1.31c.433.648.622 1.39.712 2.277.088.866.088 1.951.088 3.32v.084c0 1.369 0 2.454-.088 3.32-.09.888-.279 1.629-.712 2.277a4.75 4.75 0 01-1.31 1.31c-.649.434-1.39.623-2.277.713-.867.088-1.952.088-3.32.088H10.09c-1.23 0-2.023 0-2.759-.246a4.748 4.748 0 01-.928-.427c-.592-.354-1.052-.857-1.683-1.586a.75.75 0 011.134-.982c.65.751.964 1.069 1.318 1.28.201.12.414.218.636.293.475.159 1.007.168 2.412.168H13c1.42 0 2.43 0 3.21-.08.77-.079 1.235-.227 1.596-.468a3.25 3.25 0 00.897-.896c.24-.36.389-.827.467-1.596.08-.781.08-1.79.08-3.21s0-2.429-.08-3.21c-.078-.77-.226-1.235-.467-1.595a3.251 3.251 0 00-.897-.897c-.36-.241-.826-.39-1.595-.467-.782-.08-1.79-.08-3.21-.08H10.22c-1.405 0-1.937.008-2.412.168a3.25 3.25 0 00-.636.292c-.43.257-.783.655-1.697 1.722-.804.937-1.371 1.6-1.767 2.162-.389.55-.57.947-.638 1.332a3.25 3.25 0 000 1.146c.055.311.184.63.435 1.028a.75.75 0 11-1.271.798c-.32-.511-.542-1.01-.64-1.562a4.75 4.75 0 010-1.674c.122-.686.434-1.289.888-1.932.441-.627 1.056-1.344 1.83-2.246l.024-.029.084-.098c.8-.934 1.317-1.536 1.983-1.935a4.75 4.75 0 01.928-.427c.736-.246 1.53-.246 2.759-.246zM8.75 12a1.25 1.25 0 112.5 0 1.25 1.25 0 01-2.5 0zM10 9.25a2.75 2.75 0 100 5.5 2.75 2.75 0 000-5.5z"/>
</svg>
