<svg xmlns="http://www.w3.org/2000/svg" width="24" height="24" fill="currentColor" viewBox="0 0 24 24">
  <path fill-rule="evenodd" d="M11.993 1.25h.014c1.123 0 2.123 0 3.01.02 2.764.063 4.697.312 6.049 1.664.895.895 1.3 2.035 1.494 3.48.19 1.411.19 3.22.19 5.529v.114c0 2.309 0 4.118-.19 5.53-.194 1.444-.6 2.584-1.494 3.479-1.352 1.352-3.285 1.6-6.049 1.664-.887.02-1.887.02-3.01.02h-.014c-1.05 0-1.992 0-2.835-.017a.75.75 0 01-.349-.008c-2.671-.07-4.552-.336-5.875-1.66-.895-.894-1.3-2.034-1.494-3.479-.19-1.411-.19-3.22-.19-5.529v-.114c0-2.309 0-4.118.19-5.53.194-1.444.6-2.584 1.494-3.479.534-.534 1.16-.898 1.898-1.145a.75.75 0 01.476 1.422c-.548.184-.965.436-1.313.784L3.48 3.48l.514.514c-.57.57-.897 1.34-1.069 2.619-.155 1.159-.174 2.642-.176 4.636h5.5V2a.75.75 0 01.908-.733c.843-.017 1.785-.017 2.835-.017zM8.25 12.75h-5.5c.002 1.994.02 3.477.176 4.636.172 1.279.5 2.05 1.069 2.62.792.792 1.954 1.1 4.255 1.2V12.75zm1.5 0h4.5v8.492c-.68.008-1.426.008-2.25.008-.824 0-1.57 0-2.25-.008V12.75zm4.5-1.5h-4.5V2.758c.68-.008 1.426-.008 2.25-.008 1.13 0 2.115 0 2.983.02 2.819.064 4.146.349 5.022 1.225.57.57.897 1.34 1.069 2.619.155 1.159.174 2.642.176 4.636h-5.5V6a.75.75 0 00-1.5 0v5.25zm1.5 1.5v8.455c2.301-.099 3.463-.407 4.255-1.2.57-.57.897-1.34 1.069-2.619.155-1.159.174-2.642.176-4.636h-5.5z"/>
</svg>
