<svg xmlns="http://www.w3.org/2000/svg" width="24" height="24" fill="currentColor" viewBox="0 0 24 24">
  <path fill-rule="evenodd" d="M16.396 7.503c.781-.485 1.368-.82 1.846-1.023.475-.202.78-.247 1.01-.221a2.25 2.25 0 011.493.816c.193.236.344.639.424 1.466.08.82.08 1.92.08 3.459 0 1.54 0 2.64-.08 3.46-.08.826-.231 1.229-.424 1.465a2.25 2.25 0 01-1.494.816c-.303.034-.724-.056-1.462-.436-.734-.376-1.659-.97-2.954-1.803l-1.118-.718c.033-.761.033-1.67.033-2.741v-.086c0-1.487 0-2.66-.088-3.562-.088-.904-.273-1.677-.754-2.267a3.75 3.75 0 00-2.49-1.36c-.886-.1-1.778.279-2.787.848a.75.75 0 00.737 1.306c.997-.562 1.515-.704 1.883-.663a2.25 2.25 0 011.494.816c.193.236.344.639.424 1.466.08.82.08 1.92.08 3.459 0 1.54 0 2.64-.08 3.46-.08.826-.231 1.229-.424 1.465a2.25 2.25 0 01-1.494.816c-.303.034-.723-.056-1.462-.436-.734-.376-1.659-.97-2.954-1.803-1.125-.723-1.923-1.237-2.487-1.682-.564-.445-.802-.752-.905-1.023a2.25 2.25 0 010-1.594c.087-.229.27-.486.675-.834.407-.351.983-.747 1.791-1.274a.75.75 0 00-.818-1.257c-.804.524-1.459.97-1.952 1.395-.498.428-.887.881-1.098 1.44a3.75 3.75 0 000 2.655c.247.654.742 1.168 1.378 1.67.628.495 1.487 1.048 2.57 1.744l.035.022.036.023c1.251.805 2.237 1.439 3.043 1.853.808.414 1.559.677 2.316.592a3.75 3.75 0 002.49-1.36c.322-.396.512-.875.628-1.42l.487.312.036.023c1.251.805 2.237 1.439 3.043 1.853.808.414 1.559.677 2.316.592a3.75 3.75 0 002.49-1.36c.48-.59.665-1.363.753-2.267.088-.902.088-2.075.088-3.562v-.086c0-1.487 0-2.66-.088-3.562-.088-.904-.273-1.677-.754-2.267a3.75 3.75 0 00-2.49-1.36c-.587-.066-1.166.078-1.763.332-.593.252-1.264.64-2.051 1.13a.75.75 0 10.792 1.273z"/>
</svg>
