<svg xmlns="http://www.w3.org/2000/svg" width="24" height="24" fill="currentColor" viewBox="0 0 24 24">
  <path fill-rule="evenodd" d="M7.25 2A.75.75 0 018 1.25h8a.75.75 0 010 1.5H8A.75.75 0 017.25 2zM6 4.25a.75.75 0 000 1.5h12a.75.75 0 000-1.5H6zm.5 3h-.048c-.418 0-.685 0-.918.023a4.75 4.75 0 00-4.261 4.261c-.023.233-.023.5-.023.918V13a.75.75 0 001.5 0v-.5c0-.482 0-.669.016-.819A3.25 3.25 0 015.68 8.766c.15-.015.337-.016.819-.016H15c1.42 0 2.429 0 3.21.08.77.079 1.235.227 1.596.468.354.237.66.542.896.896.241.361.39.827.468 1.596.08.781.08 1.79.08 3.21s0 2.429-.08 3.21c-.079.77-.227 1.235-.468 1.596-.237.354-.542.66-.896.896-.361.241-.827.39-1.596.468-.781.08-1.79.08-3.21.08H6.5c-.482 0-.669 0-.819-.016a3.25 3.25 0 01-2.915-2.915c-.015-.15-.016-.337-.016-.819V17a.75.75 0 00-1.5 0v.548c0 .419 0 .685.023.918a4.75 4.75 0 004.261 4.261c.233.023.5.023.918.023h8.59c1.369 0 2.454 0 3.32-.088.888-.09 1.629-.28 2.277-.712a4.753 4.753 0 001.31-1.311c.434-.648.623-1.39.713-2.277.088-.866.088-1.951.088-3.32v-.084c0-1.369 0-2.454-.088-3.32-.09-.888-.28-1.629-.712-2.277a4.751 4.751 0 00-1.311-1.31c-.648-.434-1.39-.623-2.277-.713-.866-.088-1.951-.088-3.32-.088H6.5zm7.025 5.199l-.05-.033c-.641-.428-1.192-.796-1.651-1.013-.471-.222-1.063-.392-1.65-.077-.587.314-.774.9-.85 1.415-.074.502-.074 1.165-.074 1.937v.645c0 .771 0 1.434.074 1.936.076.515.263 1.101.85 1.415.587.314 1.179.145 1.65-.078.459-.216 1.01-.584 1.652-1.012l.05-.033.394-.263.046-.03c.525-.35.987-.659 1.31-.951.345-.311.671-.726.671-1.307s-.326-.996-.67-1.307c-.324-.293-.786-.6-1.311-.95l-.046-.031-.395-.263zm-2.67.207s.004-.002.013-.002l-.012.002zm.328.104a1.05 1.05 0 00-.297-.105c-.02.037-.051.124-.078.306-.056.378-.058.928-.058 1.776v.526c0 .848.002 1.398.058 1.776.027.182.059.269.078.306.042-.005.131-.026.297-.105.346-.163.805-.467 1.51-.937l.395-.263c.585-.39.952-.637 1.183-.846a.883.883 0 00.17-.189l.004-.005-.003-.005a.883.883 0 00-.171-.19c-.231-.208-.598-.455-1.183-.845l-.395-.263c-.705-.47-1.164-.774-1.51-.937zm-.327 4.584l.012.002c-.009 0-.013-.001-.012-.002zm.038.016c.007.005.01.009.01.01-.001 0-.004-.002-.01-.01zm0-4.72c.006-.008.009-.01.01-.01 0 .001-.003.005-.01.01z"/>
</svg>
