<svg xmlns="http://www.w3.org/2000/svg" width="24" height="24" fill="currentColor" viewBox="0 0 24 24">
  <path fill-rule="evenodd" d="M12.903 2.085l.028.02 2.617 1.8.029.019c.458.315.844.58 1.133.82.296.246.572.529.726.906a2.25 2.25 0 010 1.7c-.154.378-.43.66-.726.906-.29.24-.675.505-1.133.82l-.029.02-1.123.772-1 .688a.75.75 0 11-.85-1.237l1-.687 1.123-.772c.495-.34.824-.567 1.054-.758.228-.19.28-.28.295-.319a.75.75 0 000-.566c-.016-.038-.067-.13-.295-.319-.23-.19-.559-.418-1.054-.758l-2.617-1.799a13.53 13.53 0 00-.897-.59 1.058 1.058 0 00-.212-.098.25.25 0 00-.161.084c-.006.018-.025.081-.038.23-.022.238-.023.567-.023 1.075v7.563l4.798 3.3.029.019c.458.315.844.58 1.133.82.296.246.572.529.726.906a2.25 2.25 0 010 1.7c-.154.377-.43.66-.726.906-.29.24-.675.505-1.133.82l-.029.02-2.617 1.799-.028.02c-.382.262-.71.488-.986.642-.275.154-.616.31-1.004.29a1.75 1.75 0 01-1.304-.686c-.236-.309-.302-.678-.33-.992a14.104 14.104 0 01-.029-1.176v-6.432l-3.781 3.025a.75.75 0 11-.938-1.172L9.25 11.64V4.006c0-.463 0-.862.029-1.176.028-.314.094-.683.33-.992.312-.41.79-.66 1.304-.686.388-.02.73.136 1.004.29.276.154.604.38.986.642zm-2.153 11.34v6.533c0 .508 0 .837.023 1.075.013.149.032.212.038.23a.25.25 0 00.161.084c.018-.005.08-.025.212-.098.208-.117.48-.302.898-.59l2.616-1.8c.495-.34.824-.566 1.054-.757.228-.19.28-.28.295-.319a.75.75 0 000-.566c-.016-.038-.067-.13-.295-.319-.23-.19-.559-.418-1.054-.758l-3.948-2.714zm-6.393-4.81a.75.75 0 011.029-.258l2.5 1.5a.75.75 0 01-.772 1.286l-2.5-1.5a.75.75 0 01-.257-1.029z"/>
</svg>
