<svg xmlns="http://www.w3.org/2000/svg" width="24" height="24" fill="currentColor" viewBox="0 0 24 24">
  <path fill-rule="evenodd" d="M11.943 1.25h.114c2.309 0 4.118 0 5.53.19 1.444.194 2.584.6 3.479 1.494.534.534.898 1.16 1.145 1.898a.75.75 0 11-1.422.476c-.184-.548-.436-.965-.784-1.313-.57-.57-1.34-.897-2.619-1.069-1.3-.174-3.008-.176-5.386-.176s-4.086.002-5.386.176c-1.279.172-2.05.5-2.62 1.069-.875.876-1.16 2.203-1.224 5.022-.02.868-.02 1.852-.02 2.983 0 2.378.002 4.086.176 5.386.172 1.279.5 2.05 1.069 2.62.57.569 1.34.896 2.619 1.068.484.065 1.025.106 1.636.132V15 9.75H6a.75.75 0 010-1.5h15.98a.75.75 0 01.75.733c.02.887.02 1.887.02 3.01v.064c0 2.309 0 4.118-.19 5.53-.194 1.444-.6 2.584-1.494 3.479-.895.895-2.035 1.3-3.48 1.494-1.411.19-3.22.19-5.529.19h-.114c-1.024 0-1.95 0-2.786-.017a.755.755 0 01-.348-.008c-.904-.024-1.698-.071-2.395-.165-1.445-.194-2.585-.6-3.48-1.494-.895-.895-1.3-2.035-1.494-3.48-.19-1.411-.19-3.22-.19-5.529v-.064c0-1.123 0-2.123.02-3.01.063-2.764.312-4.697 1.664-6.049.895-.895 2.035-1.3 3.48-1.494 1.411-.19 3.22-.19 5.529-.19zM9.75 15.75H18a.75.75 0 000-1.5H9.75v-4.5h11.492c.008.68.008 1.426.008 2.25 0 2.378-.002 4.086-.176 5.386-.172 1.279-.5 2.05-1.069 2.62-.57.569-1.34.896-2.619 1.068-1.3.174-3.008.176-5.386.176-.827 0-1.574 0-2.25-.008V15.75z"/>
</svg>
