<svg xmlns="http://www.w3.org/2000/svg" width="24" height="24" fill="currentColor" viewBox="0 0 24 24">
  <path fill-rule="evenodd" d="M11.993 1.25h.014c1.123 0 2.123 0 3.01.02 2.764.063 4.697.312 6.049 1.664.895.895 1.3 2.035 1.494 3.48.19 1.411.19 3.22.19 5.529v.114c0 2.309 0 4.118-.19 5.53-.194 1.444-.6 2.584-1.494 3.479-1.352 1.352-3.285 1.6-6.049 1.664-.887.02-1.887.02-3.01.02h-.014c-1.123 0-2.123 0-3.01-.02-2.764-.064-4.697-.312-6.049-1.664-.895-.895-1.3-2.035-1.494-3.48-.19-1.411-.19-3.22-.19-5.529v-.114c0-2.309 0-4.118.19-5.53.194-1.444.6-2.584 1.494-3.479.534-.534 1.16-.898 1.898-1.145a.75.75 0 01.476 1.422c-.548.184-.965.436-1.313.784L3.48 3.48l.514.514c-.57.57-.897 1.34-1.069 2.619-.174 1.3-.176 3.008-.176 5.386s.002 4.086.176 5.386c.172 1.279.5 2.05 1.069 2.62.876.875 2.203 1.16 5.022 1.224.868.02 1.852.02 2.983.02.824 0 1.57 0 2.25-.008V6a.75.75 0 011.5 0v15.205c2.301-.099 3.463-.407 4.255-1.2.57-.57.897-1.34 1.069-2.619.174-1.3.176-3.008.176-5.386s-.002-4.086-.176-5.386c-.172-1.279-.5-2.05-1.069-2.62-.876-.875-2.203-1.16-5.022-1.224-.868-.02-1.852-.02-2.983-.02-.824 0-1.57 0-2.25.008V18a.75.75 0 01-1.5 0V2.02a.75.75 0 01.733-.75c.887-.02 1.887-.02 3.01-.02z"/>
</svg>
