<svg xmlns="http://www.w3.org/2000/svg" width="24" height="24" fill="currentColor" viewBox="0 0 24 24">
  <path fill-rule="evenodd" d="M7.5 2.75A4.75 4.75 0 002.75 7.5V8a.75.75 0 01-1.5 0v-.5A6.25 6.25 0 017.5 1.25H8a.75.75 0 010 1.5h-.5zM15.25 2a.75.75 0 01.75-.75h.5a6.25 6.25 0 016.25 6.25V8a.75.75 0 01-1.5 0v-.5a4.75 4.75 0 00-4.75-4.75H16a.75.75 0 01-.75-.75zM2 15.25a.75.75 0 01.75.75v.5a4.75 4.75 0 004.75 4.75H8a.75.75 0 010 1.5h-.5a6.25 6.25 0 01-6.25-6.25V16a.75.75 0 01.75-.75zm20 0a.75.75 0 01.75.75v.5a6.25 6.25 0 01-6.25 6.25H16a.75.75 0 010-1.5h.5a4.75 4.75 0 004.75-4.75V16a.75.75 0 01.75-.75zm-10-8a.75.75 0 01.75.75v4A1.75 1.75 0 0111 13.75a.75.75 0 010-1.5.25.25 0 00.25-.25V8a.75.75 0 01.75-.75zM8.75 8a.75.75 0 00-1.5 0v1.5a.75.75 0 001.5 0V8zM16 7.25a.75.75 0 01.75.75v1.5a.75.75 0 01-1.5 0V8a.75.75 0 01.75-.75zm-7.4 7.3a.75.75 0 00-1.2.9 5.742 5.742 0 004.6 2.3 5.742 5.742 0 004.6-2.3.75.75 0 10-1.199-.9 4.243 4.243 0 01-3.4 1.7 4.243 4.243 0 01-3.401-1.7z"/>
</svg>
