<svg xmlns="http://www.w3.org/2000/svg" width="24" height="24" fill="currentColor" viewBox="0 0 24 24">
  <path fill-rule="evenodd" d="M16.5 2.75c.479 0 .674 0 .834.013a4.25 4.25 0 013.903 3.904c.012.159.013.354.013.833V8a.75.75 0 001.5 0v-.54c0-.426 0-.686-.018-.911a5.75 5.75 0 00-5.28-5.281 12.416 12.416 0 00-.912-.018H9.966c-1.371 0-2.447 0-3.311.07-.88.073-1.607.221-2.265.557A5.75 5.75 0 001.877 4.39c-.336.658-.484 1.385-.556 2.265-.071.864-.071 1.94-.071 3.311V14A4.75 4.75 0 006 18.75h.5a.75.75 0 000-1.5H6A3.25 3.25 0 012.75 14v-4c0-1.413 0-2.427.066-3.223.064-.787.188-1.295.397-1.706a4.25 4.25 0 011.858-1.858c.411-.21.919-.333 1.706-.397.796-.065 1.81-.066 3.223-.066h6.5zM22.75 12a.75.75 0 00-1.5 0v2A3.25 3.25 0 0118 17.25h-.5a.75.75 0 000 1.5h.5A4.75 4.75 0 0022.75 14v-2zm-10.982 5.408a.75.75 0 01.464 0c.04.013.113.046.269.179.162.138.36.335.666.64l.206.206c.653.653 1.106 1.108 1.406 1.466.316.378.345.519.347.542a.75.75 0 01-.26.63c-.018.014-.139.093-.63.137-.465.041-1.107.042-2.03.042h-.412c-.924 0-1.565 0-2.03-.042-.491-.043-.612-.122-.63-.138a.75.75 0 01-.26-.629c.001-.023.03-.164.347-.542.3-.358.753-.813 1.406-1.466l.206-.206c.306-.305.504-.502.666-.64.156-.133.23-.166.27-.179zm.927-1.427a2.25 2.25 0 00-1.39 0c-.303.099-.55.27-.776.462a13.4 13.4 0 00-.736.703l-.02.02-.206.207-.027.027c-.62.62-1.121 1.12-1.47 1.536-.337.403-.65.86-.692 1.387a2.25 2.25 0 00.782 1.888c.403.344.947.445 1.47.491.54.048 1.25.048 2.126.048H12.244c.877 0 1.585 0 2.125-.048.524-.046 1.068-.147 1.47-.491a2.25 2.25 0 00.783-1.887c-.042-.529-.355-.985-.693-1.388-.348-.416-.85-.917-1.469-1.536l-.027-.027-.206-.206-.02-.02c-.28-.28-.52-.521-.736-.704-.226-.192-.473-.363-.776-.462z"/>
</svg>
