<svg xmlns="http://www.w3.org/2000/svg" width="24" height="24" fill="currentColor" viewBox="0 0 24 24">
  <path fill-rule="evenodd" d="M20.095 2.817c-.483-.065-1.131-.067-2.095-.067h-5c-.476 0-.796 0-1.043.017-.241.017-.358.046-.436.078a1.25 1.25 0 00-.676.677c-.032.077-.061.194-.078.435A17.07 17.07 0 0010.75 5h-1.5v-.025c0-.445 0-.816.02-1.12.022-.317.069-.617.19-.907a2.75 2.75 0 011.487-1.489c.29-.12.59-.167.908-.188.304-.021.675-.021 1.12-.021h5.077c.898 0 1.648 0 2.242.08.628.084 1.195.27 1.65.725.456.456.642 1.023.726 1.65.08.595.08 1.344.08 2.243v5.077c0 .445 0 .816-.02 1.12a2.822 2.822 0 01-.19.907 2.75 2.75 0 01-1.488 1.489c-.29.12-.59.167-.907.188-.304.021-.675.021-1.12.021H19v-1.5c.476 0 .796 0 1.043-.017.24-.017.358-.046.435-.078.306-.127.55-.37.677-.677.032-.077.061-.194.078-.435.017-.247.017-.567.017-1.043V6c0-.964-.002-1.612-.067-2.095-.062-.461-.169-.659-.3-.789-.13-.13-.327-.237-.788-.3zm-4 4c-.483-.065-1.131-.067-2.095-.067H9c-.476 0-.796 0-1.043.017-.241.017-.358.046-.435.078a1.25 1.25 0 00-.677.677c-.032.077-.061.194-.078.435A17.09 17.09 0 006.75 9h-1.5v-.025c0-.445 0-.816.02-1.12.022-.317.069-.617.19-.907a2.75 2.75 0 011.487-1.489c.29-.12.59-.167.908-.188.304-.021.675-.021 1.12-.021h5.077c.898 0 1.648 0 2.242.08.628.084 1.195.27 1.65.725.456.456.642 1.023.726 1.65.08.595.08 1.344.08 2.243v5.077c0 .445 0 .816-.02 1.12a2.822 2.822 0 01-.19.907 2.75 2.75 0 01-1.488 1.489c-.29.12-.59.167-.907.188-.304.021-.675.021-1.12.021H15v-1.5c.476 0 .796 0 1.043-.017.24-.017.358-.046.435-.078.306-.127.55-.37.677-.677.032-.077.061-.194.078-.435.017-.247.017-.567.017-1.043v-5c0-.964-.002-1.612-.067-2.095-.062-.461-.169-.659-.3-.789-.13-.13-.327-.237-.788-.3zM10 10.75c.964 0 1.611.002 2.095.066.46.063.658.17.789.3.13.13.237.328.3.79.064.482.066 1.13.066 2.094v4c0 .964-.002 1.612-.067 2.095-.062.461-.169.659-.3.789-.13.13-.327.237-.788.3-.484.064-1.131.066-2.095.066H5.5c-.718 0-1.2 0-1.567-.038-.355-.036-.52-.1-.628-.173a1.25 1.25 0 01-.344-.345c-.073-.108-.137-.272-.173-.627-.037-.367-.038-.85-.038-1.567V18a.75.75 0 00-1.5 0v.538c0 .67 0 1.229.046 1.681.048.473.153.913.417 1.309.201.3.459.558.76.759.395.264.834.369 1.308.417.452.046 1.01.046 1.68.046H10.053c.898 0 1.648 0 2.242-.08.628-.084 1.195-.27 1.65-.726.456-.455.642-1.022.726-1.65.08-.594.08-1.343.08-2.242V13.948c0-.899 0-1.648-.08-2.242-.084-.628-.27-1.195-.726-1.65-.455-.456-1.022-.642-1.65-.726-.594-.08-1.344-.08-2.242-.08h-4.59c-.67 0-1.229 0-1.681.046-.474.048-.913.153-1.309.417-.3.201-.558.459-.759.76-.264.395-.369.834-.417 1.308-.046.452-.046 1.011-.046 1.68V14a.75.75 0 001.5 0v-.5c0-.718 0-1.2.038-1.567.036-.355.1-.519.173-.627.09-.137.208-.254.344-.345.109-.073.273-.137.628-.173.367-.037.849-.038 1.567-.038H10z"/>
</svg>
