<svg xmlns="http://www.w3.org/2000/svg" width="24" height="24" fill="currentColor" viewBox="0 0 24 24">
  <path fill-rule="evenodd" d="M8.497 4.107a3.048 3.048 0 012.536-1.357h1.934c1.02 0 1.971.51 2.536 1.357a4.547 4.547 0 002.892 1.937l.136.027a3.382 3.382 0 012.719 3.316v3.82c0 1.792 0 3.079-.104 4.078-.101.987-.296 1.609-.628 2.1a4.249 4.249 0 01-1.134 1.133c-.49.332-1.112.527-2.099.628-1 .103-2.286.104-4.077.104H8.5c-1.438 0-2.025-.005-2.492-.117a4.25 4.25 0 01-3.14-3.14c-.113-.468-.118-1.055-.118-2.493V15a.75.75 0 00-1.5 0v.621c0 1.279 0 2.059.159 2.721a5.75 5.75 0 004.249 4.25c.663.158 1.442.158 2.72.158h4.873c1.74 0 3.103 0 4.188-.112 1.106-.113 2.007-.35 2.787-.878a5.749 5.749 0 001.534-1.534c.528-.78.765-1.68.878-2.787.112-1.085.112-2.449.112-4.188V9.388A4.882 4.882 0 0018.825 4.6l-.135-.027a3.047 3.047 0 01-1.939-1.298 4.548 4.548 0 00-3.784-2.025h-1.934c-1.521 0-2.941.76-3.784 2.025A3.048 3.048 0 015.31 4.573l-.135.027A4.882 4.882 0 001.25 9.387V10.5a.75.75 0 001.5 0V9.387c0-1.612 1.138-3 2.719-3.316l.136-.027a4.548 4.548 0 002.892-1.937zM8.75 13A3.25 3.25 0 0112 9.75a.75.75 0 000-1.5 4.75 4.75 0 104.114 2.374.75.75 0 10-1.298.752A3.25 3.25 0 118.75 13z"/>
</svg>
