<svg xmlns="http://www.w3.org/2000/svg" width="24" height="24" fill="currentColor" viewBox="0 0 24 24">
  <path fill-rule="evenodd" d="M13.5 1.25h-.143c-1.258 0-2.06 0-2.736.205A4.75 4.75 0 007.455 4.62C7.25 5.297 7.25 6.1 7.25 7.357V8a.75.75 0 001.5 0v-.5c0-1.45.008-2.009.14-2.443a3.25 3.25 0 012.167-2.167c.434-.132.993-.14 2.443-.14H15c1.42 0 2.429.001 3.21.08.77.079 1.235.227 1.596.468.354.237.66.542.896.896.241.361.39.827.468 1.596.08.781.08 1.79.08 3.21v1a.75.75 0 101.5 0V8.958c0-1.369 0-2.454-.088-3.32-.09-.888-.28-1.629-.712-2.277a4.751 4.751 0 00-1.311-1.31c-.648-.434-1.39-.623-2.277-.713-.866-.088-1.951-.088-3.32-.088H13.5zM22.75 14a.75.75 0 00-1.5 0v1c0 1.42 0 2.429-.08 3.21-.079.77-.227 1.235-.468 1.596-.237.354-.542.66-.896.896-.361.241-.827.39-1.596.468-.781.08-1.79.08-3.21.08h-1.5c-1.45 0-2.009-.008-2.443-.14a3.25 3.25 0 01-2.167-2.167c-.132-.434-.14-.993-.14-2.443V16a.75.75 0 00-1.5 0v.643c0 1.258 0 2.06.205 2.736a4.75 4.75 0 003.166 3.166c.676.205 1.478.205 2.736.205h1.685c1.369 0 2.454 0 3.32-.088.888-.09 1.629-.28 2.277-.712a4.75 4.75 0 001.31-1.311c.434-.648.623-1.39.713-2.277.088-.866.088-1.951.088-3.32V14zm-9.22-6.53a.75.75 0 10-1.06 1.06l2.72 2.72H2a.75.75 0 000 1.5h15a.75.75 0 00.53-1.28l-4-4zm1.5 7.56a.75.75 0 00-1.06-1.06l-1.5 1.5a.75.75 0 001.06 1.06l1.5-1.5z"/>
</svg>
