<svg xmlns="http://www.w3.org/2000/svg" width="24" height="24" fill="currentColor" viewBox="0 0 24 24">
  <path fill-rule="evenodd" d="M12.75 2a.75.75 0 00-1.5 0v10.19L8.53 9.47a.75.75 0 00-1.06 1.06l4 4a.75.75 0 001.28-.53V2zm3.78 8.53a.75.75 0 10-1.06-1.06l-1.5 1.5a.75.75 0 101.06 1.06l1.5-1.5zM2.75 14a.75.75 0 00-1.5 0v.549c0 1.602 0 2.872.119 3.876.122 1.03.377 1.88.96 2.588.197.24.417.461.658.659.709.582 1.557.837 2.588.96 1.004.118 2.274.118 3.876.118H10a.75.75 0 000-1.5h-.5c-1.662 0-2.843-.001-3.749-.108-.889-.105-1.415-.304-1.813-.63a3.256 3.256 0 01-.45-.45c-.326-.398-.525-.924-.63-1.813-.107-.906-.108-2.087-.108-3.749V14zm20 0a.75.75 0 00-1.5 0v.5c0 1.662-.001 2.843-.108 3.749-.105.889-.304 1.415-.63 1.813a3.262 3.262 0 01-.45.45c-.398.326-.924.525-1.813.63-.906.107-2.087.108-3.749.108H14a.75.75 0 000 1.5h.549c1.602 0 2.872 0 3.876-.119 1.03-.122 1.88-.377 2.588-.96.24-.197.461-.417.659-.658.582-.709.837-1.557.96-2.588.118-1.004.118-2.274.118-3.876V14z"/>
</svg>
