<svg xmlns="http://www.w3.org/2000/svg" width="24" height="24" fill="currentColor" viewBox="0 0 24 24">
  <path fill-rule="evenodd" d="M8.88 4.845c-1.556-.869-2.888-1.412-4.144-.963a3.75 3.75 0 00-1.06.588c-1.041.822-1.29 2.23-1.378 3.992a.75.75 0 101.499.075c.09-1.816.36-2.535.808-2.89a2.25 2.25 0 01.637-.353c.542-.194 1.3-.037 2.905.86a.75.75 0 00.732-1.309zm2.997 1.819a.75.75 0 10-.795 1.272c1.556.972 2.66 1.664 3.41 2.276.745.61 1.008 1.039 1.07 1.442.037.23.037.463 0 .692-.062.403-.325.832-1.07 1.441-.75.613-1.854 1.305-3.41 2.277-1.725 1.078-2.958 1.847-3.929 2.295-.973.448-1.511.49-1.911.347a2.25 2.25 0 01-.637-.353c-.333-.264-.583-.742-.718-1.805-.136-1.06-.137-2.513-.137-4.548a.75.75 0 00-1.5 0v.057c0 1.965 0 3.514.149 4.68.15 1.177.47 2.156 1.277 2.793l.454-.575-.454.575c.32.252.677.45 1.06.588.969.346 1.968.1 3.045-.397 1.068-.492 2.381-1.313 4.048-2.355l.048-.03.048-.03c1.497-.936 2.684-1.677 3.516-2.357.844-.69 1.456-1.42 1.604-2.373.06-.382.06-.77 0-1.153-.148-.952-.76-1.682-1.604-2.372-.832-.68-2.019-1.422-3.516-2.357l-.048-.03zM21.75 5a.75.75 0 00-1.5 0v14a.75.75 0 001.5 0V5z"/>
</svg>
