<svg xmlns="http://www.w3.org/2000/svg" width="24" height="24" fill="currentColor" viewBox="0 0 24 24">
  <path fill-rule="evenodd" d="M8.837 5.25a3.251 3.251 0 016.326 0H8.837zm-1.528.002a4.751 4.751 0 019.383 0c.614.005 1.141.018 1.596.055.714.058 1.317.18 1.869.46a4.75 4.75 0 012.075 2.077c.281.55.403 1.154.461 1.868.057.697.057 1.563.057 2.655v3.266c0 1.092 0 1.958-.057 2.655-.058.714-.18 1.317-.46 1.869a4.75 4.75 0 01-2.076 2.075c-.552.281-1.155.403-1.869.461-.697.057-1.563.057-2.655.057H8.367c-1.092 0-1.958 0-2.655-.057-.714-.058-1.317-.18-1.868-.46a4.75 4.75 0 01-2.076-2.076c-.281-.552-.403-1.155-.461-1.869-.057-.697-.057-1.563-.057-2.655v-3.266c0-1.092 0-1.958.057-2.655.058-.714.18-1.317.46-1.868a4.75 4.75 0 012.077-2.076c.55-.281 1.154-.403 1.868-.461.455-.037.982-.05 1.597-.055zm-1.475 1.55c-.62.05-1.005.147-1.31.302a3.25 3.25 0 00-1.42 1.42c-.155.305-.251.69-.302 1.31-.012.146-.021.301-.028.468l.03.013h.002l.007.003.034.015.142.06a26.944 26.944 0 002.592.886c.508.145 1.069.29 1.669.421V11a.75.75 0 011.5 0v.983a21.02 21.02 0 003.25.267c1.123 0 2.223-.105 3.25-.267V11a.75.75 0 011.5 0v.7a27.788 27.788 0 002.034-.528.75.75 0 01.432 1.436 29.17 29.17 0 01-2.466.626V14a.75.75 0 01-1.5 0v-.5c-1.028.153-2.126.25-3.25.25-1.125 0-2.222-.097-3.25-.25v.5a.75.75 0 01-1.5 0v-.766a28.962 28.962 0 01-4.5-1.322V15.6c0 1.133 0 1.937.052 2.566.05.62.147 1.005.302 1.31a3.25 3.25 0 001.42 1.42c.305.155.69.251 1.31.302.63.051 1.434.052 2.566.052h7.2c1.133 0 1.937 0 2.566-.052.62-.05 1.005-.147 1.31-.302a3.25 3.25 0 001.42-1.42c.155-.305.251-.69.302-1.31.051-.63.052-1.433.052-2.566v-3.2c0-1.133 0-1.937-.052-2.566-.05-.62-.147-1.005-.302-1.31a3.25 3.25 0 00-1.42-1.42c-.305-.155-.69-.251-1.31-.302-.63-.051-1.433-.052-2.566-.052H8.4c-1.132 0-1.937 0-2.566.052z"/>
</svg>
