<svg xmlns="http://www.w3.org/2000/svg" width="24" height="24" fill="currentColor" viewBox="0 0 24 24">
  <path fill-rule="evenodd" d="M9.5 1.25h-.028c-1.141 0-2.036 0-2.759.05-.735.05-1.347.153-1.913.388A5.75 5.75 0 001.688 4.8c-.235.566-.339 1.178-.389 1.913-.049.723-.049 1.618-.049 2.76v2.584c0 2.309 0 4.118.19 5.53.194 1.444.6 2.584 1.494 3.479.895.895 2.035 1.3 3.48 1.494 1.411.19 3.22.19 5.529.19h.114c2.309 0 4.118 0 5.53-.19 1.444-.194 2.584-.6 3.479-1.494.895-.895 1.3-2.035 1.494-3.48.19-1.411.19-3.22.19-5.529V9.472c0-1.141 0-2.036-.05-2.759-.05-.735-.153-1.347-.388-1.913A5.75 5.75 0 0019.2 1.688c-.566-.235-1.178-.339-1.913-.389-.723-.049-1.618-.049-2.76-.049H14a.75.75 0 000 1.5h1.25v8.5H14a.75.75 0 000 1.5h1.25V21.223c-.922.027-1.992.027-3.25.027s-2.328 0-3.25-.027V12.75H10a.75.75 0 000-1.5H8.75v-8.5H10a.75.75 0 000-1.5h-.5zm-2.25 15H5a.75.75 0 000 1.5h2.25v3.393c-.223-.02-.434-.042-.636-.07-1.279-.171-2.05-.498-2.62-1.068-.569-.57-.896-1.34-1.068-2.619-.155-1.159-.174-2.642-.176-4.636h4.5v3.5zM19 17.75h-2.25v3.393c.223-.02.434-.042.636-.07 1.279-.171 2.05-.498 2.62-1.068.569-.57.896-1.34 1.068-2.619.155-1.159.174-2.642.176-4.636h-4.5v3.5H19a.75.75 0 010 1.5zm-2.25-10H19a.75.75 0 000-1.5h-2.25V2.773c.153.006.298.013.435.023.659.045 1.089.131 1.441.278a4.25 4.25 0 012.3 2.3c.147.352.233.782.278 1.441.046.666.046 1.51.046 2.685v1.75h-4.5v-3.5zM5 6.25h2.25V2.773c-.153.006-.298.013-.435.023-.659.045-1.089.131-1.441.278a4.25 4.25 0 00-2.3 2.3c-.147.352-.233.782-.278 1.441-.046.666-.046 1.51-.046 2.685v1.75h4.5v-3.5H5a.75.75 0 010-1.5z"/>
</svg>
