<svg xmlns="http://www.w3.org/2000/svg" width="24" height="24" fill="currentColor" viewBox="0 0 24 24">
  <path fill-rule="evenodd" d="M12 3.75c-3.817 0-6.95 3.195-6.95 7.183l.001.13a.75.75 0 01-.558.738c-1.564.414-2.743 1.888-2.743 3.666 0 2.11 1.655 3.783 3.65 3.783h12.1c2.602 0 4.75-2.18 4.75-4.917 0-2.103-1.274-3.886-3.047-4.59a.75.75 0 01.555-1.395c2.345.933 3.992 3.268 3.992 5.985 0 3.523-2.777 6.417-6.25 6.417H5.4c-2.865 0-5.15-2.387-5.15-5.283 0-2.242 1.364-4.173 3.309-4.936C3.763 5.941 7.445 2.25 12 2.25c2.1 0 4.02.788 5.496 2.087a.75.75 0 11-.992 1.126A6.788 6.788 0 0012 3.75z"/>
</svg>
