<svg xmlns="http://www.w3.org/2000/svg" width="24" height="24" fill="currentColor" viewBox="0 0 24 24">
  <path fill-rule="evenodd" d="M12 2.75A9.25 9.25 0 1021.25 12a9.206 9.206 0 00-1.85-5.55.75.75 0 111.2-.901A10.705 10.705 0 0122.75 12c0 5.937-4.813 10.75-10.75 10.75S1.25 17.937 1.25 12 6.063 1.25 12 1.25c1.527 0 2.982.319 4.3.895a.75.75 0 01-.6 1.374A9.216 9.216 0 0012 2.75zM8.25 9.743a2.493 2.493 0 012.493-2.493h.507V6.5a.75.75 0 011.5 0v.75H13A2.75 2.75 0 0115.75 10a.75.75 0 01-1.5 0c0-.69-.56-1.25-1.25-1.25h-.25v2.71l1.295.431a2.493 2.493 0 01-.788 4.859h-.507v.75a.75.75 0 01-1.5 0v-.75H11A2.75 2.75 0 018.25 14a.75.75 0 011.5 0c0 .69.56 1.25 1.25 1.25h.25v-2.71l-1.295-.431A2.493 2.493 0 018.25 9.743zm3 1.216V8.75h-.507a.993.993 0 00-.314 1.936l.82.273zm1.5 2.082v2.209h.507a.993.993 0 00.314-1.936l-.821-.273z"/>
</svg>
