<svg xmlns="http://www.w3.org/2000/svg" width="24" height="24" fill="currentColor" viewBox="0 0 24 24">
  <path fill-rule="evenodd" d="M18.313 2.958C17.702 2.76 16.92 2.75 15 2.75h-5c-1.413 0-2.427 0-3.223.066-.787.064-1.295.188-1.706.397a4.25 4.25 0 00-1.858 1.858c-.21.411-.333.919-.397 1.706-.065.796-.066 1.81-.066 3.223v4c0 1.412 0 2.427.066 3.223.064.787.188 1.295.397 1.707a4.25 4.25 0 001.858 1.857c.411.21.919.333 1.706.397.796.066 1.81.066 3.223.066h5c1.92 0 2.702-.01 3.313-.208a4.25 4.25 0 002.729-2.729c.199-.611.208-1.393.208-3.313v-.5a.75.75 0 011.5 0v.662c0 1.706 0 2.747-.281 3.615a5.75 5.75 0 01-3.692 3.692c-.868.281-1.909.281-3.615.281H9.966c-1.371 0-2.447 0-3.311-.07-.88-.072-1.607-.221-2.265-.557a5.75 5.75 0 01-2.513-2.513c-.336-.658-.484-1.385-.556-2.265-.071-.864-.071-1.94-.071-3.311V9.966c0-1.371 0-2.447.07-3.311.073-.88.221-1.607.557-2.265A5.75 5.75 0 014.39 1.877c.658-.336 1.385-.484 2.265-.556.864-.071 1.94-.071 3.311-.071h5.196c1.706 0 2.747 0 3.615.281a5.75 5.75 0 013.692 3.692c.281.868.281 1.909.281 3.615V9.5a.75.75 0 01-1.5 0V9c0-1.92-.01-2.702-.208-3.313a4.25 4.25 0 00-2.729-2.729zM9.25 17a.75.75 0 01.75-.75h8a.75.75 0 010 1.5h-8a.75.75 0 01-.75-.75zm.75-5.75a.75.75 0 000 1.5h8a.75.75 0 100-1.5h-8zM9.25 7a.75.75 0 01.75-.75h8a.75.75 0 010 1.5h-8A.75.75 0 019.25 7zm-4.196-.727C5 6.38 5 6.52 5 6.8v.4c0 .28 0 .42.054.527a.5.5 0 00.219.219C5.38 8 5.52 8 5.8 8h.4c.28 0 .42 0 .527-.054a.5.5 0 00.218-.219C7 7.62 7 7.48 7 7.2v-.4c0-.28 0-.42-.054-.527a.5.5 0 00-.219-.218C6.62 6 6.48 6 6.2 6h-.4c-.28 0-.42 0-.527.055a.5.5 0 00-.218.218zM5 11.8c0-.28 0-.42.054-.527a.5.5 0 01.219-.218C5.38 11 5.52 11 5.8 11h.4c.28 0 .42 0 .527.055a.5.5 0 01.218.218C7 11.38 7 11.52 7 11.8v.4c0 .28 0 .42-.054.527a.5.5 0 01-.219.218C6.62 13 6.48 13 6.2 13h-.4c-.28 0-.42 0-.527-.055a.5.5 0 01-.218-.218C5 12.62 5 12.48 5 12.2v-.4zm.054 4.473C5 16.38 5 16.52 5 16.8v.4c0 .28 0 .42.054.527a.5.5 0 00.219.218C5.38 18 5.52 18 5.8 18h.4c.28 0 .42 0 .527-.055a.5.5 0 00.218-.218C7 17.62 7 17.48 7 17.2v-.4c0-.28 0-.42-.054-.527a.5.5 0 00-.219-.218C6.62 16 6.48 16 6.2 16h-.4c-.28 0-.42 0-.527.055a.5.5 0 00-.218.218z"/>
</svg>
