<svg xmlns="http://www.w3.org/2000/svg" width="24" height="24" fill="currentColor" viewBox="0 0 24 24">
  <path fill-rule="evenodd" d="M5.75 2a.75.75 0 00-1.5 0v3c0 .414.336.75.75.75a2.25 2.25 0 11-2.122 1.5.75.75 0 00-1.414-.5A3.75 3.75 0 105.75 4.325V2zM19 1.25a.75.75 0 01.75.75v2.325A3.751 3.751 0 0119 11.75a.75.75 0 010-1.5 2.25 2.25 0 10-2.122-1.5.75.75 0 11-1.414.5 3.751 3.751 0 012.786-4.925V2a.75.75 0 01.75-.75zm-6.25 18.425A3.751 3.751 0 0012 12.25a3.75 3.75 0 00-.75 7.425V22a.75.75 0 001.5 0v-2.325zM12 18.25a2.25 2.25 0 110-4.5 2.25 2.25 0 010 4.5zm7-5a.75.75 0 01.75.75v8a.75.75 0 01-1.5 0v-8a.75.75 0 01.75-.75zM12.75 2a.75.75 0 00-1.5 0v8a.75.75 0 001.5 0V2zM5 13.25a.75.75 0 01.75.75v8a.75.75 0 01-1.5 0v-8a.75.75 0 01.75-.75z"/>
</svg>
