<svg xmlns="http://www.w3.org/2000/svg" width="24" height="24" fill="currentColor" viewBox="0 0 24 24">
  <path fill-rule="evenodd" d="M12 2.75c-1.519 0-3.243.476-4.783 1.065-1.683.644-2.279.894-2.82 1.617a3.952 3.952 0 00-.145.212C3.775 6.4 3.75 7.2 3.75 9.38c0 3.226.011 4.922.548 6.356a.75.75 0 01-1.405.526c-.643-1.718-.643-3.699-.643-6.73V9.38v-.186c0-1.926-.001-3.188.733-4.352.059-.093.147-.222.213-.31.824-1.1 1.836-1.488 3.364-2.072l.12-.047C8.285 1.8 10.21 1.25 12 1.25c1.79 0 3.716.55 5.32 1.164l.12.047c1.528.584 2.54.971 3.364 2.072.066.088.154.217.213.31.734 1.164.734 2.426.733 4.352v.379c0 3.641 0 5.745-1.144 7.758a10.39 10.39 0 01-.335.541c-1.288 1.924-2.737 2.649-5.231 3.896l-.09.045c-1.02.51-2.098.936-2.95.936-.852 0-1.93-.426-2.95-.936l-.015-.008c-.85-.425-1.583-.792-2.219-1.155a.75.75 0 01.745-1.302c.595.34 1.292.69 2.16 1.123 1.022.511 1.815.778 2.279.778.464 0 1.257-.267 2.28-.778 2.592-1.296 3.694-1.863 4.745-3.433a9.02 9.02 0 00.277-.449c.927-1.63.948-3.316.948-7.21 0-2.18-.025-2.98-.502-3.736a3.962 3.962 0 00-.146-.212c-.54-.723-1.136-.973-2.819-1.617C15.243 3.225 13.52 2.75 12 2.75z"/>
</svg>
