<svg xmlns="http://www.w3.org/2000/svg" width="24" height="24" fill="currentColor" viewBox="0 0 24 24">
  <path fill-rule="evenodd" d="M9 1.25h-.162c-1.706 0-2.747 0-3.615.281a5.75 5.75 0 00-3.692 3.692c-.281.868-.281 1.909-.281 3.615V9.5a.75.75 0 001.5 0V9c0-1.92.01-2.702.208-3.313a4.25 4.25 0 012.729-2.729C6.298 2.759 7.08 2.75 9 2.75h5c1.412 0 2.427 0 3.223.066.787.064 1.295.188 1.707.397a4.25 4.25 0 011.857 1.858c.21.411.333.919.397 1.706.065.796.066 1.81.066 3.223v4c0 1.412 0 2.427-.066 3.223-.064.787-.188 1.295-.397 1.707a4.25 4.25 0 01-1.857 1.857c-.412.21-.92.333-1.707.397-.796.065-1.81.066-3.223.066H9c-1.92 0-2.702-.01-3.313-.208a4.25 4.25 0 01-2.729-2.729C2.759 17.702 2.75 16.92 2.75 15v-.5a.75.75 0 00-1.5 0v.662c0 1.706 0 2.747.281 3.615a5.75 5.75 0 003.692 3.692c.868.281 1.909.281 3.615.281h5.196c1.371 0 2.447 0 3.311-.07.88-.072 1.607-.221 2.265-.557a5.75 5.75 0 002.513-2.513c.336-.658.485-1.385.556-2.265.071-.864.071-1.94.071-3.311V9.966c0-1.371 0-2.447-.07-3.311-.072-.88-.221-1.607-.557-2.265a5.75 5.75 0 00-2.513-2.513c-.658-.336-1.385-.484-2.265-.556-.864-.071-1.94-.071-3.311-.071H9zm-2 16a.75.75 0 000 1.5h10a.75.75 0 000-1.5H7zm0-12h10a.75.75 0 010 1.5H7a.75.75 0 110-1.5zm5.67 3.415a.75.75 0 00-1.34 0l-1.8 3.6-1.2 2.4a.75.75 0 001.34.67l.838-1.675c.377.159.875.29 1.492.29a3.81 3.81 0 001.492-.29l.837 1.675a.75.75 0 001.342-.67l-1.2-2.4-1.8-3.6zM12 12.45c-.344 0-.616-.062-.818-.136L12 10.677l.818 1.637a2.368 2.368 0 01-.818.136z"/>
</svg>
