<svg xmlns="http://www.w3.org/2000/svg" width="24" height="24" fill="currentColor" viewBox="0 0 24 24">
  <path fill-rule="evenodd" d="M5.611 2.75a2.861 2.861 0 00-2.86 2.861V6a.75.75 0 01-1.5 0v-.389A4.361 4.361 0 015.61 1.25h.39a.75.75 0 010 1.5h-.39zM9.251 2a.75.75 0 01.75-.75h4a.75.75 0 010 1.5h-4A.75.75 0 019.25 2zm8 0a.75.75 0 01.75-.75h.388a4.361 4.361 0 014.361 4.361V6a.75.75 0 01-1.5 0v-.389A2.861 2.861 0 0018.39 2.75H18a.75.75 0 01-.75-.75zM.817 9.272a.75.75 0 01.91.546l1 4a.75.75 0 01-1.456.364l-1-4a.75.75 0 01.546-.91zm22.364 0a.75.75 0 01.546.91l-1 4a.75.75 0 01-1.456-.364l1-4a.75.75 0 01.91-.546zM2 17.25a.75.75 0 01.75.75v.389a2.861 2.861 0 002.861 2.861h.39a.75.75 0 010 1.5h-.39a4.361 4.361 0 01-4.36-4.361V18a.75.75 0 01.75-.75zm20 0a.75.75 0 01.75.75v.389a4.361 4.361 0 01-4.361 4.361H18a.75.75 0 110-1.5h.389a2.861 2.861 0 002.861-2.861V18a.75.75 0 01.75-.75zM9.25 22a.75.75 0 01.75-.75h4a.75.75 0 010 1.5h-4a.75.75 0 01-.75-.75z"/>
</svg>
