<svg xmlns="http://www.w3.org/2000/svg" width="24" height="24" fill="currentColor" viewBox="0 0 24 24">
  <path fill-rule="evenodd" d="M11.638 2.678l.167.068 1.125.46c1.624.665 2.242.903 2.869.894.09-.001.18-.006.271-.015.624-.06 1.212-.366 2.753-1.206l.045-.025c.556-.303 1.04-.567 1.442-.72.417-.16.924-.272 1.432-.034.104.048.202.107.294.174.452.332.596.831.656 1.274.058.427.058.978.058 1.61V17.57c0 .264 0 .514-.021.726a1.73 1.73 0 01-.224.731 1.73 1.73 0 01-.535.547c-.176.12-.395.24-.627.366l-.026.014-1.619.883-.157.086c-1.488.813-2.45 1.338-3.523 1.398-1.073.06-2.087-.357-3.656-.999l-.167-.068-1.125-.46c-1.624-.665-2.242-.902-2.869-.894-.09.001-.181.006-.271.015-.624.061-1.212.366-2.753 1.206l-.045.025c-.556.303-1.04.567-1.442.72-.417.16-.924.272-1.432.034a1.744 1.744 0 01-.294-.174c-.452-.332-.596-.831-.656-1.274-.058-.427-.058-.977-.058-1.61V6.43c0-.263 0-.513.021-.725a1.73 1.73 0 01.224-.732 1.73 1.73 0 01.535-.547c.176-.12.395-.24.627-.366l.026-.014 1.619-.883.157-.086C5.947 2.265 6.91 1.74 7.982 1.68c1.072-.06 2.087.356 3.656.998zm-.401 1.457c-1.232-.504-1.94-.785-2.487-.9V15a.75.75 0 01-1.5 0V3.36c-.51.189-1.163.538-2.23 1.12L3.4 5.363c-.267.145-.418.23-.525.302a.616.616 0 00-.09.073h-.001v.002a.616.616 0 00-.02.114 6.906 6.906 0 00-.015.606v12.33c0 .7.002 1.147.044 1.46.024.178.054.25.067.273l.023.014a.855.855 0 00.272-.072c.295-.113.688-.325 1.303-.66l.143-.078c1.347-.736 2.217-1.21 3.182-1.305.132-.013.264-.02.397-.022.97-.013 1.887.363 3.307.944l.15.061 1.125.46c1.232.505 1.94.786 2.487.9V9a.75.75 0 011.5 0v11.64c.51-.189 1.163-.538 2.23-1.12l1.619-.883a6.93 6.93 0 00.525-.302.622.622 0 00.082-.064l.008-.008.001-.002v-.001l.002-.003.002-.008a.605.605 0 00.017-.103c.013-.128.014-.302.014-.606V5.21c0-.7-.002-1.147-.044-1.46a.856.856 0 00-.067-.273.234.234 0 00-.023-.014.855.855 0 00-.272.072c-.295.113-.689.326-1.303.66l-.143.079c-1.347.735-2.217 1.21-3.182 1.304-.132.013-.264.02-.397.022-.97.013-1.887-.362-3.307-.944l-.15-.061-1.125-.46zm9.89-.67l-.008-.002.008.001zm.005.003l.005.006-.005-.006zM2.872 20.536h.008-.007zm-.004-.003l-.005-.007.005.007z"/>
</svg>
