<svg xmlns="http://www.w3.org/2000/svg" width="24" height="24" fill="currentColor" viewBox="0 0 24 24">
  <path fill-rule="evenodd" d="M17.334 2.763a12.12 12.12 0 00-.834-.013h-3.75v8.5H22a.75.75 0 01.75.75v.057c0 2.309 0 4.118-.19 5.53-.194 1.444-.6 2.584-1.494 3.479-.895.895-2.035 1.3-3.48 1.494-1.411.19-3.22.19-5.529.19H7.46c-.426 0-.686 0-.911-.018a5.75 5.75 0 01-5.281-5.28 12.416 12.416 0 01-.018-.912V16a.75.75 0 011.5 0v.5c0 .479 0 .674.013.834a4.25 4.25 0 003.904 3.903c.159.012.354.013.833.013h3.75V2.75c-1.994.002-3.477.02-4.636.176-1.279.172-2.05.5-2.62 1.069-.569.57-.896 1.34-1.068 2.619-.155 1.159-.174 2.642-.176 4.636H8a.75.75 0 010 1.5H2a.75.75 0 01-.75-.75v-.057c0-2.309 0-4.118.19-5.53.194-1.444.6-2.584 1.494-3.479.895-.895 2.035-1.3 3.48-1.494 1.411-.19 3.22-.19 5.529-.19h4.597c.426 0 .686 0 .911.018a5.75 5.75 0 015.281 5.28c.018.226.018.486.018.911V8a.75.75 0 01-1.5 0v-.5c0-.479 0-.674-.013-.833a4.25 4.25 0 00-3.903-3.904zM12.75 12.75v8.5c1.994-.002 3.477-.02 4.636-.176 1.279-.172 2.05-.5 2.62-1.069.569-.57.896-1.34 1.068-2.619.155-1.159.174-2.642.176-4.636h-8.5z"/>
</svg>
