<svg xmlns="http://www.w3.org/2000/svg" width="24" height="24" fill="currentColor" viewBox="0 0 24 24">
  <path fill-rule="evenodd" d="M17.386 2.926c-1.3-.174-3.008-.176-5.386-.176s-4.086.002-5.386.176c-1.279.172-2.05.5-2.62 1.069-.875.876-1.16 2.203-1.224 5.022-.02.868-.02 1.852-.02 2.983 0 .824 0 1.57.008 2.25H18a.75.75 0 010 1.5H2.02a.75.75 0 01-.75-.733c-.02-.887-.02-1.887-.02-3.01v-.014c0-1.123 0-2.123.02-3.01.063-2.764.312-4.697 1.664-6.049.895-.895 2.035-1.3 3.48-1.494 1.411-.19 3.22-.19 5.529-.19h.114c2.309 0 4.118 0 5.53.19 1.444.194 2.584.6 3.479 1.494 1.352 1.352 1.6 3.285 1.664 6.049.02.887.02 1.887.02 3.01v.014c0 1.123 0 2.123-.02 3.01-.064 2.764-.312 4.697-1.664 6.049-.895.895-2.035 1.3-3.48 1.494-1.411.19-3.22.19-5.529.19h-.114c-2.309 0-4.118 0-5.53-.19-1.444-.194-2.584-.6-3.479-1.494-.534-.534-.898-1.16-1.145-1.897a.75.75 0 011.422-.477c.184.548.436.965.784 1.313.57.57 1.34.897 2.619 1.069 1.3.174 3.008.176 5.386.176s4.087-.002 5.386-.176c1.279-.172 2.05-.5 2.62-1.069.875-.876 1.16-2.203 1.224-5.022.02-.868.02-1.852.02-2.983 0-.824 0-1.57-.008-2.25H6a.75.75 0 110-1.5h15.205c-.099-2.3-.407-3.463-1.2-4.255-.57-.57-1.34-.897-2.619-1.069z"/>
</svg>
