<svg xmlns="http://www.w3.org/2000/svg" width="24" height="24" fill="currentColor" viewBox="0 0 24 24">
  <path fill-rule="evenodd" d="M20.53 2.47a.75.75 0 00-1.06 0l-7 7a.75.75 0 101.06 1.06L20 4.061c.488.491.835.854 1.075 1.17.283.37.347.585.347.769 0 .184-.064.4-.347.77-.295.387-.752.846-1.434 1.528L15.47 12.47a.75.75 0 101.06 1.06l4.172-4.171.037-.037c.635-.635 1.165-1.165 1.529-1.642.384-.504.654-1.036.654-1.68 0-.644-.27-1.176-.654-1.68-.364-.477-.894-1.007-1.53-1.642l-.036-.037-.172-.171zm-11 12.06a.75.75 0 10-1.06-1.06l-7 7a.75.75 0 101.06 1.06l7-7zm-3-12.06a.75.75 0 00-1.06 1.06l2.585 2.586c.748.747.93.955 1.01 1.196.08.24.06.516-.09 1.562l-.005.035-4.94-4.94A.75.75 0 002.97 5.03l4.939 4.94-.035.005c-1.046.15-1.322.17-1.562.09-.24-.08-.449-.262-1.196-1.01L2.53 6.47a.75.75 0 00-1.06 1.06l2.585 2.586.104.104c.59.592 1.059 1.061 1.678 1.268.62.206 1.276.112 2.104-.008l.145-.02 1.149-.165L19.47 21.53a.75.75 0 101.06-1.06L10.295 10.235l.165-1.149.02-.145c.12-.828.214-1.484.008-2.104-.207-.62-.676-1.087-1.269-1.678l-.103-.104L6.53 2.47z"/>
</svg>
