<svg xmlns="http://www.w3.org/2000/svg" width="24" height="24" fill="currentColor" viewBox="0 0 24 24">
  <path fill-rule="evenodd" d="M8 1.25a.75.75 0 01.75.75v1.26c.476-.01 1.012-.01 1.617-.01h.883V2a.75.75 0 011.5 0v1.25h.883c.605 0 1.14 0 1.617.01V2a.75.75 0 011.5 0v1.357c.518.07.978.193 1.407.41a4.75 4.75 0 012.075 2.077c.219.428.34.888.412 1.406H22a.75.75 0 010 1.5h-1.26c.01.476.01 1.012.01 1.617v.883H22a.75.75 0 010 1.5h-1.25v.883c0 .605 0 1.141-.01 1.617H22a.75.75 0 010 1.5h-1.357c-.07.518-.192.978-.41 1.407a4.75 4.75 0 01-2.076 2.075c-.429.219-.889.34-1.407.412V22a.75.75 0 01-1.5 0v-1.26c-.476.01-1.012.01-1.617.01h-.883V22a.75.75 0 01-1.5 0v-1.25h-.883c-.605 0-1.141 0-1.617-.01V22a.75.75 0 01-1.5 0v-1.357c-.518-.07-.978-.192-1.406-.41a4.75 4.75 0 01-2.076-2.076c-.218-.429-.34-.889-.411-1.407H2a.75.75 0 010-1.5h1.26c-.01-.476-.01-1.012-.01-1.617v-.883H2a.75.75 0 010-1.5h1.25v-.883c0-.605 0-1.141.01-1.617H2a.75.75 0 010-1.5h1.357c.07-.518.193-.978.41-1.406a4.75 4.75 0 012.077-2.076c.428-.218.888-.34 1.406-.411V2A.75.75 0 018 1.25zM19.25 12v-1.6c0-1.132 0-1.937-.052-2.566-.05-.62-.147-1.005-.302-1.31a3.25 3.25 0 00-1.42-1.42c-.305-.155-.69-.251-1.31-.302-.63-.051-1.434-.052-2.566-.052h-3.2c-1.132 0-1.937 0-2.566.052-.62.05-1.005.147-1.31.302a3.25 3.25 0 00-1.42 1.42c-.155.305-.251.69-.302 1.31-.051.63-.052 1.434-.052 2.566v3.2c0 1.133 0 1.937.052 2.566.05.62.147 1.005.302 1.31a3.25 3.25 0 001.42 1.42c.305.155.69.251 1.31.302.63.051 1.434.052 2.566.052h3.2c1.133 0 1.937 0 2.566-.052.62-.05 1.005-.147 1.31-.302a3.25 3.25 0 001.42-1.42c.155-.305.251-.69.302-1.31.051-.63.052-1.434.052-2.566V12zM11.4 8.25h-.029c-.395 0-.736 0-1.017.023-.297.024-.592.078-.875.222a2.25 2.25 0 00-.984.984c-.144.283-.198.578-.222.875-.023.28-.023.622-.023 1.017V12.63c0 .395 0 .736.023 1.017.024.297.078.592.222.875.216.424.56.768.984.984.283.144.578.198.875.222.28.023.622.023 1.017.023H12.63c.395 0 .736 0 1.017-.023.297-.024.592-.078.875-.222.424-.216.768-.56.984-.984.144-.283.198-.578.222-.875.023-.28.023-.622.023-1.017V11.5a.75.75 0 00-1.5 0v1.1c0 .432 0 .712-.018.924-.017.204-.045.28-.064.317a.751.751 0 01-.327.327c-.038.02-.113.047-.317.064-.212.017-.492.018-.924.018h-1.2c-.432 0-.712 0-.924-.018-.204-.017-.28-.045-.317-.064a.75.75 0 01-.327-.327c-.02-.038-.047-.113-.064-.317a12.747 12.747 0 01-.018-.924v-1.2c0-.432 0-.712.018-.924.017-.204.045-.28.064-.317a.75.75 0 01.327-.327c.038-.02.113-.047.317-.064.212-.017.492-.018.924-.018h1.1a.75.75 0 000-1.5h-1.1z"/>
</svg>
