<svg xmlns="http://www.w3.org/2000/svg" width="24" height="24" fill="currentColor" viewBox="0 0 24 24">
  <path fill-rule="evenodd" d="M16.685 2.795c-.329-.043-.732-.045-1.685-.045h-.5a.75.75 0 010-1.5H15.07c.862 0 1.372 0 1.811.058a6.75 6.75 0 015.811 5.81c.058.44.058.95.058 1.812V12.434c0 1.652 0 2.937-.084 3.968-.086 1.047-.262 1.897-.652 2.662a6.75 6.75 0 01-2.95 2.95c-.765.39-1.615.566-2.662.652-1.031.084-2.317.084-3.968.084H11.566c-1.651 0-2.937 0-3.968-.084-1.047-.086-1.897-.262-2.662-.652a6.75 6.75 0 01-2.95-2.95c-.39-.765-.566-1.615-.652-2.662-.084-1.031-.084-2.317-.084-3.968V8.93c0-.862 0-1.372.058-1.811a6.75 6.75 0 015.81-5.811c.44-.058.95-.058 1.812-.058H9.5a.75.75 0 110 1.5H9c-.953 0-1.356.002-1.685.045a5.25 5.25 0 00-4.52 4.52c-.043.329-.045.732-.045 1.685v3.4c0 1.692 0 2.917.08 3.88.077.954.228 1.585.492 2.104a5.25 5.25 0 002.295 2.294c.518.264 1.15.415 2.103.493.963.078 2.187.079 3.88.079h.8c1.692 0 2.917 0 3.88-.08.954-.077 1.585-.228 2.104-.492a5.25 5.25 0 002.294-2.294c.264-.519.415-1.15.493-2.104.078-.963.079-2.188.079-3.88V9c0-.953-.002-1.356-.045-1.685a5.25 5.25 0 00-4.52-4.52zM13 5a1 1 0 11-2 0 1 1 0 012 0zm-.25 3a.75.75 0 00-1.5 0v3.061c0 .32 0 .605.02.841.02.251.066.513.196.768.19.372.492.675.865.864.254.13.516.176.767.197.236.019.52.019.84.019h.096c.356 0 .579 0 .746.014.158.013.2.034.209.038.09.046.163.12.209.21a.6.6 0 01.038.208c.013.167.014.39.014.746v.72a1.979 1.979 0 001.847 2.06c.067.004.14.004.217.004H18a.75.75 0 000-1.5h-.667l-.136-.001a.479.479 0 01-.446-.446l-.001-.136v-.728c0-.32 0-.605-.02-.841a2.012 2.012 0 00-.196-.768 1.979 1.979 0 00-.864-.864 2.012 2.012 0 00-.768-.197c-.236-.019-.52-.019-.84-.019h-.096c-.356 0-.579 0-.746-.014a.6.6 0 01-.209-.038.479.479 0 01-.209-.21.598.598 0 01-.038-.208c-.013-.167-.014-.39-.014-.746v-.584c.375.192.8.3 1.25.3h1a.75.75 0 000-1.5h-1c-.69 0-1.25-.56-1.25-1.25zM9.187 9.852A.75.75 0 108.813 8.4 4.752 4.752 0 0010 17.75a4.735 4.735 0 003.142-1.188.75.75 0 10-.992-1.124 3.25 3.25 0 11-2.963-5.585z"/>
</svg>
