<svg xmlns="http://www.w3.org/2000/svg" width="24" height="24" fill="currentColor" viewBox="0 0 24 24">
  <path fill-rule="evenodd" d="M14.25 3a.75.75 0 01.75-.75h6a.75.75 0 01.53 1.28l-3.5 3.5-1.5 1.5a.75.75 0 11-1.06-1.06l1.5-1.5 2.22-2.22H15a.75.75 0 01-.75-.75zm6 6V6.5a.75.75 0 011.5 0V9a.75.75 0 01-1.5 0zM3 14.25a.75.75 0 01.75.75v2.5a.75.75 0 01-1.5 0V15a.75.75 0 01.75-.75zm5.53 1.22a.75.75 0 010 1.06l-1.5 1.5-2.22 2.22H9a.75.75 0 010 1.5H3a.75.75 0 01-.53-1.28l3.5-3.5 1.5-1.5a.75.75 0 011.06 0z"/>
</svg>
