<svg xmlns="http://www.w3.org/2000/svg" width="24" height="24" fill="currentColor" viewBox="0 0 24 24">
  <path fill-rule="evenodd" d="M3.396 8.598A9.226 9.226 0 002.75 12a9.23 9.23 0 00.587 3.25h5.145L3.396 8.598zm.75-1.487a9.244 9.244 0 018.71-4.322L6.96 10.79 4.146 7.11zm14.46-1.586a9.242 9.242 0 00-4.11-2.434L11.432 7.25H17.5a.75.75 0 010 1.5h-1.982l5.086 6.652a9.301 9.301 0 00.46-5.253.75.75 0 111.471-.298c.141.695.215 1.414.215 2.149 0 5.937-4.813 10.75-10.75 10.75S1.25 17.937 1.25 12 6.063 1.25 12 1.25a10.72 10.72 0 017.677 3.225.75.75 0 11-1.071 1.05zM13.629 8.75h-3.303L7.91 12.03l2.462 3.22h3.497l2.234-3.266L13.63 8.75zm-.788 8H4.061a9.264 9.264 0 005.862 4.266l2.918-4.266zm-1.255 4.49a9.244 9.244 0 008.268-4.352l-2.793-3.65-5.475 8.003z"/>
</svg>
