<svg xmlns="http://www.w3.org/2000/svg" width="24" height="24" fill="currentColor" viewBox="0 0 24 24">
  <path fill-rule="evenodd" d="M9.5 2.25h-.143c-1.258 0-2.06 0-2.736.205A4.75 4.75 0 003.455 5.62C3.25 6.297 3.25 7.1 3.25 8.357v3.01c-.17.042-.337.1-.498.183A2.75 2.75 0 001.55 12.75c-.172.338-.24.694-.27 1.074-.027.324-.03.71-.03 1.167V21a.75.75 0 001.5 0v-5.8c0-.572 0-.957.025-1.252.023-.288.065-.425.111-.516a1.25 1.25 0 01.547-.546c.09-.046.227-.088.514-.111.296-.024.68-.025 1.253-.025H18.8c.572 0 .957 0 1.252.025.288.023.425.065.515.111.236.12.427.311.547.546.046.091.088.228.111.515.024.296.025.68.025 1.253v3.05H5a.75.75 0 000 1.5h16.25V21a.75.75 0 001.5 0v-6.008c0-.456-.003-.844-.03-1.167-.03-.38-.098-.736-.27-1.073a2.751 2.751 0 00-1.201-1.202c-.338-.172-.694-.24-1.074-.27-.365-.03-.81-.03-1.345-.03h-2.08v-.08c0-.535 0-.98-.03-1.345-.03-.38-.098-.736-.27-1.073A2.75 2.75 0 0015.25 7.55c-.338-.172-.694-.24-1.074-.27-.365-.03-.81-.03-1.345-.03H11.17c-.535 0-.98 0-1.345.03-.38.03-.736.098-1.073.27A2.75 2.75 0 007.55 8.752c-.172.337-.24.693-.27 1.073-.03.365-.03.81-.03 1.345v.08H4.75V8.5c0-1.45.008-2.009.14-2.443A3.25 3.25 0 017.057 3.89c.434-.132.993-.14 2.443-.14h5c1.45 0 2.009.008 2.443.14a3.25 3.25 0 012.167 2.167c.132.434.14.993.14 2.443V9a.75.75 0 001.5 0v-.643c0-1.258 0-2.06-.204-2.736a4.75 4.75 0 00-3.167-3.166c-.676-.206-1.478-.205-2.736-.205H9.5zm-.75 9h6.5v-.05c0-.572 0-.957-.025-1.253-.023-.287-.065-.424-.111-.515a1.25 1.25 0 00-.546-.546c-.091-.046-.228-.088-.515-.111-.296-.024-.68-.025-1.253-.025h-1.6c-.572 0-.957 0-1.253.025-.287.023-.424.065-.514.111a1.25 1.25 0 00-.547.546c-.046.091-.088.228-.111.515-.024.296-.025.68-.025 1.253v.05z"/>
</svg>
