<svg xmlns="http://www.w3.org/2000/svg" width="24" height="24" fill="currentColor" viewBox="0 0 24 24">
  <path fill-rule="evenodd" d="M8 1.25h-.055c-1.367 0-2.47 0-3.337.117-.9.12-1.658.38-2.26.981-.602.602-.86 1.36-.981 2.26-.117.867-.117 1.97-.117 3.337V10a.75.75 0 001.5 0V8c0-1.435.002-2.437.103-3.192.099-.734.28-1.122.556-1.399.277-.277.665-.457 1.4-.556C5.562 2.752 6.564 2.75 8 2.75h4c1.435 0 2.437.002 3.192.103.734.099 1.122.28 1.399.556.277.277.457.665.556 1.4.101.754.103 1.756.103 3.191v8c0 1.435-.002 2.436-.103 3.192-.099.734-.28 1.122-.556 1.399-.277.277-.665.457-1.4.556-.755.101-1.756.103-3.191.103H8c-1.435 0-2.437-.002-3.192-.103-.734-.099-1.122-.28-1.399-.556-.277-.277-.457-.665-.556-1.4-.101-.755-.103-1.756-.103-3.191v-2a.75.75 0 00-1.5 0v2.055c0 1.367 0 2.47.117 3.337.12.9.38 1.658.981 2.26.602.602 1.36.86 2.26.982.867.116 1.97.116 3.337.116H12.055c1.367 0 2.47 0 3.337-.116.9-.122 1.658-.38 2.26-.982.602-.602.86-1.36.982-2.26.063-.476.092-1.022.105-1.643.6-.005 1.12-.02 1.555-.079.628-.084 1.195-.27 1.65-.725.456-.456.642-1.023.726-1.65.08-.595.08-1.345.08-2.243v-2.105c0-.31 0-.602-.003-.877a.746.746 0 00-.003-.163 10.661 10.661 0 00-.074-1.201c-.084-.628-.27-1.195-.726-1.65-.455-.456-1.022-.642-1.65-.726-.436-.059-.955-.074-1.555-.078a14.985 14.985 0 00-.105-1.644c-.122-.9-.38-1.658-.982-2.26-.602-.602-1.36-.86-2.26-.981-.867-.117-1.97-.117-3.337-.117H8zm13.183 7.655c.015.107.026.221.035.345H18.75V7.752c.57.004 1 .018 1.345.065.461.062.659.169.789.3.13.13.237.327.3.788zm.067 1.845h-2.5V16.248c.57-.004 1-.018 1.345-.065.461-.062.659-.169.789-.3.13-.13.237-.327.3-.788.064-.483.066-1.131.066-2.095v-2.25zM7 4.25h-.045c-.433 0-.83 0-1.152.043-.356.048-.731.16-1.04.47-.31.309-.422.684-.47 1.04-.043.323-.043.72-.043 1.152V8.045c0 .433 0 .83.043 1.152.048.356.16.731.47 1.04.309.31.684.422 1.04.47.323.043.72.043 1.152.043h6.09c.433 0 .83 0 1.152-.043.356-.048.731-.16 1.04-.47.31-.309.422-.684.47-1.04.043-.323.043-.72.043-1.152V6.955c0-.433 0-.83-.043-1.152-.048-.356-.16-.731-.47-1.04-.309-.31-.684-.422-1.04-.47-.323-.043-.72-.043-1.152-.043H12a.75.75 0 000 1.5h1c.493 0 .787.002.997.03a.704.704 0 01.177.042l.003.001.001.003a.703.703 0 01.042.177c.028.21.03.504.03.997v1c0 .493-.002.787-.03.997a.703.703 0 01-.042.177l-.001.003-.003.001-.003.002-.007.003a.704.704 0 01-.167.037c-.21.028-.504.03-.997.03H7c-.493 0-.787-.002-.997-.03a.706.706 0 01-.177-.042l-.003-.001-.001-.003a.706.706 0 01-.042-.177c-.028-.21-.03-.504-.03-.997V7c0-.493.002-.787.03-.997a.706.706 0 01.042-.177l.001-.003.003-.001a.706.706 0 01.177-.042c.21-.028.504-.03.997-.03h1a.75.75 0 000-1.5H7zM5.823 9.177zm0 0zm0 0zm0 0zM7 14a1 1 0 11-2 0 1 1 0 012 0zm-1 5a1 1 0 100-2 1 1 0 000 2zm5-5a1 1 0 11-2 0 1 1 0 012 0zm-1 5a1 1 0 100-2 1 1 0 000 2zm5-5a1 1 0 11-2 0 1 1 0 012 0zm-1 5a1 1 0 100-2 1 1 0 000 2z"/>
</svg>
