<svg xmlns="http://www.w3.org/2000/svg" width="24" height="24" fill="currentColor" viewBox="0 0 24 24">
  <path fill-rule="evenodd" d="M11.25 3a.75.75 0 01.75-.75h9a.75.75 0 010 1.5h-9a.75.75 0 01-.75-.75zm-9 18a.75.75 0 01.75-.75h3a.75.75 0 010 1.5H3a.75.75 0 01-.75-.75zm7 0a.75.75 0 01.75-.75h11a.75.75 0 010 1.5H10a.75.75 0 01-.75-.75zM12 8.25a.75.75 0 000 1.5h9a.75.75 0 000-1.5h-9zM3.47 2.47a.75.75 0 011.06 0l3 3a.75.75 0 010 1.06l-3 3a.75.75 0 11-1.06-1.06L5.94 6 3.47 3.53a.75.75 0 010-1.06zM3 14.25a.75.75 0 000 1.5h11a.75.75 0 000-1.5H3zm15 0a.75.75 0 000 1.5h3a.75.75 0 000-1.5h-3z"/>
</svg>
