<svg xmlns="http://www.w3.org/2000/svg" width="24" height="24" fill="currentColor" viewBox="0 0 24 24">
  <path fill-rule="evenodd" d="M9.5 1.25h-.028c-1.141 0-2.036 0-2.759.05-.735.05-1.347.153-1.913.388A5.75 5.75 0 001.688 4.8c-.235.566-.339 1.178-.389 1.913-.049.723-.049 1.618-.049 2.76V10a.75.75 0 001.5 0v-.5c0-1.175 0-2.019.046-2.685.045-.659.131-1.089.278-1.441a4.25 4.25 0 012.3-2.3c.352-.147.782-.233 1.441-.278.666-.046 1.51-.046 2.685-.046H11a.75.75 0 000-1.5H9.5zM22.75 13a.75.75 0 00-1.5 0v.5c0 1.651 0 2.837-.089 3.762-.087.914-.253 1.495-.537 1.959a4.249 4.249 0 01-1.403 1.403c-.464.284-1.045.45-1.96.537-.924.088-2.11.089-3.761.089h-4c-1.175 0-2.019 0-2.685-.046-.659-.045-1.089-.131-1.441-.277a4.25 4.25 0 01-2.3-2.3c-.147-.353-.233-.783-.278-1.442-.046-.666-.046-1.51-.046-2.685V14a.75.75 0 00-1.5 0v.528c0 1.141 0 2.036.05 2.759.05.735.153 1.347.388 1.913A5.75 5.75 0 004.8 22.312c.566.235 1.178.338 1.913.389.723.049 1.618.049 2.76.049h4.067c1.603 0 2.86 0 3.864-.096 1.023-.097 1.861-.299 2.6-.751a5.75 5.75 0 001.899-1.899c.452-.739.654-1.577.752-2.6.095-1.004.095-2.261.095-3.865V13zM17 1.25a.75.75 0 000 1.5h3.19l-3.22 3.22a.75.75 0 001.06 1.06l3.22-3.22V7a.75.75 0 001.5 0V2a.75.75 0 00-.75-.75h-5zM10.75 9a.75.75 0 00-1.5 0v5c0 .414.336.75.75.75h5a.75.75 0 000-1.5h-3.19l3.22-3.22a.75.75 0 10-1.06-1.06l-3.22 3.22V9z"/>
</svg>
