<svg xmlns="http://www.w3.org/2000/svg" width="24" height="24" fill="currentColor" viewBox="0 0 24 24">
  <path fill-rule="evenodd" d="M15.5 2.75c.488 0 .66.002.794.02a2.25 2.25 0 011.937 1.936c.017.134.019.306.019.794V6a.75.75 0 101.5 0v-.558c0-.409 0-.687-.032-.931a3.754 3.754 0 00-.182-.76c.203.002.367.007.507.016.241.017.358.046.435.078.307.127.55.37.677.677.032.077.061.194.078.435.017.247.017.567.017 1.043v8a.75.75 0 001.5 0V5.975c0-.445 0-.816-.02-1.12a2.822 2.822 0 00-.19-.907 2.75 2.75 0 00-1.488-1.489c-.29-.12-.59-.167-.907-.188-.304-.021-.675-.021-1.12-.021H18.55a3.743 3.743 0 00-2.06-.968c-.245-.032-.523-.032-.932-.032H7.088c-.705 0-1.277 0-1.745.036-.483.036-.91.114-1.317.298a3.75 3.75 0 00-1.593 1.367c-.244.374-.385.784-.495 1.256-.107.457-.194 1.022-.301 1.72l-.004.03-.524 3.4-.005.033c-.142.924-.256 1.665-.296 2.266-.041.616-.012 1.164.185 1.68a3.75 3.75 0 001.65 1.924c.48.273 1.018.385 1.633.438.6.052 1.35.052 2.284.052h1.901c.258 0 .319.001.35.005a.75.75 0 01.633.96c-.01.03-.032.086-.133.323l-1.072 2.5a2.304 2.304 0 003.746 2.537l5.07-5.07.05-.05c.659-.658 1.051-1.05 1.369-1.49a6.75 6.75 0 001.19-2.873c.086-.536.086-1.09.086-2.022V10a.75.75 0 00-1.5 0v.5c0 1.022-.002 1.45-.067 1.853a5.25 5.25 0 01-.926 2.234c-.238.33-.54.635-1.262 1.357l-5.07 5.07a.804.804 0 01-1.307-.884l1.071-2.501.018-.04c.074-.174.137-.32.174-.445a2.25 2.25 0 00-1.899-2.88c-.13-.014-.287-.014-.476-.014H6.595c-.977 0-1.662 0-2.19-.046-.522-.045-.811-.13-1.02-.248a2.25 2.25 0 01-.99-1.154c-.086-.225-.125-.524-.09-1.046.035-.53.138-1.206.287-2.172l.523-3.4c.113-.733.192-1.242.284-1.637.09-.385.18-.607.29-.776a2.25 2.25 0 01.956-.82c.184-.084.417-.14.812-.17.404-.03.919-.031 1.661-.031H15.5z"/>
</svg>
