<svg xmlns="http://www.w3.org/2000/svg" width="24" height="24" fill="currentColor" viewBox="0 0 24 24">
  <path fill-rule="evenodd" d="M20.221 1.364a2.75 2.75 0 00-2.442 0c-.407.202-.763.559-1.224 1.02l-.085.086-1.525 1.524c-.484-.392-.95-.683-1.477-.855a4.75 4.75 0 00-2.936 0c-.588.191-1.1.532-1.647.996-.533.453-1.145 1.065-1.917 1.837l-.024.023-2.949 2.95-.023.023c-.772.772-1.384 1.384-1.837 1.917-.464.546-.804 1.059-.996 1.647a4.75 4.75 0 000 2.936c.192.588.532 1.101.996 1.647.453.533 1.065 1.145 1.837 1.917l.023.024L5.47 20.53l.111.112c.983.983 1.61 1.61 2.31 1.957a4.75 4.75 0 004.218 0c.7-.347 1.327-.974 2.31-1.957l.111-.112.5-.5a.75.75 0 10-1.06-1.06l-.5.5c-1.134 1.133-1.577 1.562-2.027 1.785a3.25 3.25 0 01-2.886 0c-.45-.223-.893-.652-2.027-1.785l-1.474-1.475c-.8-.8-1.37-1.37-1.778-1.851-.403-.475-.606-.815-.712-1.14a3.25 3.25 0 010-2.008c.106-.325.31-.665.712-1.14.409-.481.977-1.05 1.778-1.851l2.949-2.95c.8-.8 1.37-1.368 1.851-1.777.475-.403.815-.606 1.14-.712a3.25 3.25 0 012.008 0c.325.106.665.31 1.14.712.481.409 1.05.977 1.851 1.778L17.47 8.53c1.133 1.134 1.562 1.577 1.785 2.027.45.91.45 1.977 0 2.886-.223.45-.652.893-1.785 2.027l-.5.5a.75.75 0 001.06 1.06l.5-.5.112-.111c.983-.983 1.61-1.61 1.957-2.31a4.75 4.75 0 000-4.218 4.43 4.43 0 00-.574-.855L21.53 7.53l.086-.086c.461-.46.818-.816 1.02-1.223a2.75 2.75 0 000-2.442c-.202-.407-.559-.763-1.02-1.223l-.086-.086-.085-.086c-.46-.461-.817-.818-1.224-1.02zM19 7.94l1.47-1.47c.588-.588.744-.759.822-.915a1.25 1.25 0 000-1.11c-.078-.156-.234-.327-.822-.915-.588-.588-.759-.744-.915-.822a1.25 1.25 0 00-1.11 0c-.156.078-.327.234-.915.822l-1.473 1.474c.296.288.619.611.976.968l.023.023L18.53 7.47l.112.111.358.359zM6.47 13.47a.75.75 0 011.06 0l3 3a.75.75 0 11-1.06 1.06l-3-3a.75.75 0 010-1.06z"/>
</svg>
