<svg xmlns="http://www.w3.org/2000/svg" width="24" height="24" fill="currentColor" viewBox="0 0 24 24">
  <path fill-rule="evenodd" d="M16 2.75h-1a.75.75 0 010-1.5h2A3.75 3.75 0 0120.75 5v1a.75.75 0 01-1.5 0V5A2.25 2.25 0 0017 2.75h-1zm3.47 5.72a.75.75 0 011.06 0l3 3a.75.75 0 010 1.06l-2.78 2.78V18A4.75 4.75 0 0116 22.75h-1a.75.75 0 010-1.5h1A3.25 3.25 0 0019.25 18v-3a.75.75 0 01.22-.53L21.94 12l-2.47-2.47a.75.75 0 010-1.06zM8 2.75A3.25 3.25 0 004.75 6v3a.75.75 0 01-.22.53L2.06 12l2.47 2.47a.75.75 0 11-1.06 1.06l-3-3a.75.75 0 010-1.06l2.78-2.78V6A4.75 4.75 0 018 1.25h1a.75.75 0 010 1.5H8zm-4 14.5a.75.75 0 01.75.75v1A2.25 2.25 0 007 21.25h2a.75.75 0 010 1.5H7A3.75 3.75 0 013.25 19v-1a.75.75 0 01.75-.75zM12 9a1 1 0 100-2 1 1 0 000 2zm1 3a1 1 0 11-2 0 1 1 0 012 0zm-1 5a1 1 0 100-2 1 1 0 000 2z"/>
</svg>
