<svg xmlns="http://www.w3.org/2000/svg" width="24" height="24" fill="currentColor" viewBox="0 0 24 24">
  <path fill-rule="evenodd" d="M12 2.75A9.25 9.25 0 1021.25 12a9.206 9.206 0 00-1.85-5.55.75.75 0 111.2-.901A10.705 10.705 0 0122.75 12c0 5.937-4.813 10.75-10.75 10.75S1.25 17.937 1.25 12 6.063 1.25 12 1.25c1.527 0 2.982.319 4.3.895a.75.75 0 01-.6 1.374A9.216 9.216 0 0012 2.75zm-.907 4.506a.75.75 0 01.651.837l-.207 1.657h1.488l.23-1.843a.75.75 0 111.49.186l-.208 1.657H16a.75.75 0 010 1.5h-1.65l-.188 1.5H15.5a.75.75 0 010 1.5h-1.525l-.23 1.843a.75.75 0 01-1.49-.186l.208-1.657h-1.488l-.23 1.843a.75.75 0 01-1.49-.186l.208-1.657H8a.75.75 0 010-1.5h1.65l.188-1.5H8.5a.75.75 0 010-1.5h1.525l.23-1.843a.75.75 0 01.838-.651zm.07 5.494h1.487l.188-1.5H11.35l-.188 1.5z"/>
</svg>
