<svg xmlns="http://www.w3.org/2000/svg" width="24" height="24" fill="currentColor" viewBox="0 0 24 24">
  <path fill-rule="evenodd" d="M12.75 2a.75.75 0 00-1.5 0v7.19L9.53 7.47a.75.75 0 00-1.06 1.06l3 3a.75.75 0 001.06 0l3-3a.75.75 0 00-1.06-1.06l-1.72 1.72V2zM4.934 6.092A3.178 3.178 0 018 3.75h.5a.75.75 0 100-1.5H8a4.678 4.678 0 00-4.513 3.447l-1.244 4.562-.006.02c-.135.495-.209.768-.27 1.04-.44 1.942 1.215 3.431 2.973 3.431H5c.364 0 .66 0 .903.013.256.013.385.038.439.057.122.043.237.104.34.182.146.11.268.275.694.914l.06.089c.337.508.603.907.978 1.19.227.172.48.307.749.401.443.155.923.155 1.533.154H13.304c.61 0 1.09.001 1.533-.154.269-.094.522-.23.75-.401.374-.283.64-.683.978-1.19l.059-.089c.426-.64.548-.804.693-.914.104-.078.218-.14.34-.182.055-.019.184-.044.44-.057.244-.013.54-.013.903-.013a.75.75 0 000-1.5h-.015c-.345 0-.679 0-.967.015-.28.015-.589.046-.855.139-.27.094-.522.23-.75.401-.374.283-.64.683-.978 1.19l-.06.089c-.425.64-.547.804-.693.914-.103.078-.218.14-.34.182-.172.06-.377.07-1.145.07h-2.394c-.769 0-.973-.01-1.145-.07a1.247 1.247 0 01-.34-.182c-.146-.11-.268-.275-.694-.914l-.06-.09c-.337-.506-.603-.906-.978-1.189a2.749 2.749 0 00-.75-.401c-.266-.093-.574-.124-.854-.139-.288-.015-.622-.015-.967-.015H4.94c-1.035 0-1.688-.817-1.51-1.6.053-.237.118-.476.26-.997l1.244-4.561zM15.5 2.25a.75.75 0 000 1.5h.5c1.433 0 2.689.96 3.066 2.342l1.244 4.561c.142.521.207.76.26.997l.732-.165-.732.165a11.25 11.25 0 01.05 4.73c-.048.238-.108.478-.239 1.002-.159.635-.224.893-.305 1.11a4.25 4.25 0 01-3.498 2.73c-.23.027-.496.028-1.151.028H8.573c-.655 0-.921-.001-1.151-.027a4.25 4.25 0 01-3.498-2.732c-.081-.216-.147-.474-.306-1.11-.13-.523-.19-.763-.239-1.001a.75.75 0 00-1.47.3c.056.273.125.547.25 1.046l.004.02.013.052c.142.567.229.913.343 1.22a5.75 5.75 0 004.733 3.695c.325.037.683.037 1.267.037H15.48c.584 0 .941 0 1.267-.037a5.75 5.75 0 004.732-3.695c.115-.307.202-.653.343-1.22l.014-.052.004-.02c.125-.499.194-.773.25-1.046a12.75 12.75 0 00-.058-5.36 25.297 25.297 0 00-.27-1.042l-.006-.02-1.244-4.561A4.678 4.678 0 0016 2.25h-.5z"/>
</svg>
