<svg xmlns="http://www.w3.org/2000/svg" width="24" height="24" fill="currentColor" viewBox="0 0 24 24">
  <path fill-rule="evenodd" d="M8.75 1a.75.75 0 00-1.5 0v.3a5.465 5.465 0 00-.567.08A6.75 6.75 0 001.38 6.683c-.13.653-.13 1.418-.13 2.712V10a.75.75 0 001.5 0v-.5c0-1.43.004-2.035.1-2.524A5.25 5.25 0 016.977 2.85c.086-.017.176-.032.274-.043V4a.75.75 0 001.5 0V2.751l.75-.001h1.75V4a.75.75 0 001.5 0V2.75h2.5V4a.75.75 0 001.5 0V2.803A5.251 5.251 0 0121.25 8v4c0 1.883 0 3.245-.097 4.312-.096 1.057-.281 1.75-.606 2.313a5.25 5.25 0 01-1.922 1.922c-.563.325-1.256.51-2.313.606-1.067.096-2.429.097-4.312.097H9.5c-1.43 0-2.035-.004-2.524-.1a5.25 5.25 0 01-4.125-4.126c-.097-.489-.101-1.094-.101-2.524V14a.75.75 0 00-1.5 0v.605c0 1.294 0 2.06.13 2.712a6.75 6.75 0 005.303 5.303c.653.13 1.418.13 2.712.13h2.643c1.837 0 3.267 0 4.41-.104 1.16-.105 2.098-.322 2.927-.8a6.752 6.752 0 002.47-2.471c.48-.83.696-1.767.802-2.927.103-1.143.103-2.573.103-4.41V8a6.751 6.751 0 00-6-6.709V1a.75.75 0 00-1.5 0v.25h-2.5V1a.75.75 0 00-1.5 0v.25h-2.5V1z"/>
</svg>
