<svg xmlns="http://www.w3.org/2000/svg" width="24" height="24" fill="currentColor" viewBox="0 0 24 24">
  <path fill-rule="evenodd" d="M14.82 1.555a3.75 3.75 0 011.36 0c.633.117 1.168.434 1.712.875.526.427 1.121 1.022 1.86 1.76l.028.03.03.029c.738.738 1.333 1.333 1.76 1.86.441.543.758 1.078.875 1.71.083.45.083.912 0 1.361-.117.633-.434 1.168-.875 1.712-.427.526-1.022 1.121-1.76 1.86l-.03.028-7 7-.029.03c-.738.738-1.333 1.333-1.86 1.76-.543.441-1.078.758-1.71.875-.45.083-.911.083-1.361 0-.633-.117-1.168-.434-1.712-.875-.526-.427-1.121-1.022-1.859-1.76l-.03-.03-.029-.029c-.738-.738-1.333-1.333-1.76-1.86-.44-.543-.758-1.078-.875-1.71a3.75 3.75 0 010-1.361c.117-.633.434-1.168.875-1.712.427-.526 1.022-1.121 1.76-1.859l.03-.03 1.75-1.75a.75.75 0 111.06 1.061l-1.75 1.75c-.774.775-1.313 1.315-1.685 1.774-.364.448-.512.753-.565 1.038-.05.27-.05.546 0 .816.053.285.201.59.565 1.039.372.458.911.999 1.685 1.773.774.774 1.315 1.313 1.774 1.685.448.364.753.513 1.038.565.27.05.546.05.816 0 .285-.052.59-.2 1.038-.565.07-.057.142-.117.216-.182L8.47 18.53a.75.75 0 011.06-1.06l1.72 1.719.47-.47 1.47-1.469-3.22-3.22a.75.75 0 011.06-1.06l3.22 3.22 1.94-1.94-1.72-1.72a.75.75 0 011.06-1.06l1.72 1.72 1.47-1.47.469-.47-3.22-3.22a.75.75 0 011.061-1.06l3.193 3.192c.065-.074.125-.146.182-.216.364-.448.513-.753.565-1.038.05-.27.05-.546 0-.816-.052-.285-.2-.59-.565-1.038-.372-.46-.911-1-1.685-1.774s-1.315-1.313-1.773-1.685c-.449-.364-.754-.512-1.039-.565a2.25 2.25 0 00-.816 0c-.285.053-.59.201-1.038.565-.46.372-1 .911-1.774 1.685l-2.25 2.25a.75.75 0 01-1.06-1.06l2.25-2.25.029-.03c.738-.738 1.333-1.333 1.86-1.76.543-.44 1.078-.758 1.71-.875z"/>
</svg>
