<svg xmlns="http://www.w3.org/2000/svg" width="24" height="24" fill="currentColor" viewBox="0 0 24 24">
  <path fill-rule="evenodd" d="M15 2.75c.953 0 1.356.002 1.685.045a5.25 5.25 0 014.52 4.52c.043.329.045.732.045 1.685v3.4c0 1.692 0 2.917-.08 3.88-.077.954-.228 1.585-.492 2.104a5.25 5.25 0 01-2.294 2.294c-.519.264-1.15.415-2.104.493-.963.078-2.188.079-3.88.079h-.8c-1.693 0-2.917 0-3.88-.08-.954-.077-1.585-.228-2.103-.492a5.25 5.25 0 01-2.295-2.294c-.264-.519-.415-1.15-.493-2.104-.078-.963-.079-2.188-.079-3.88V9c0-.953.002-1.356.045-1.685a5.25 5.25 0 014.52-4.52c.329-.043.732-.045 1.685-.045h.5a.75.75 0 100-1.5H8.93c-.862 0-1.372 0-1.811.058a6.75 6.75 0 00-5.811 5.81c-.058.44-.058.95-.058 1.812V12.434c0 1.651 0 2.937.084 3.968.086 1.047.262 1.897.652 2.662a6.75 6.75 0 002.95 2.95c.765.39 1.615.566 2.662.652 1.031.084 2.316.084 3.968.084H12.434c1.652 0 2.937 0 3.968-.084 1.047-.086 1.897-.262 2.662-.652a6.75 6.75 0 002.95-2.95c.39-.765.566-1.615.652-2.662.084-1.031.084-2.317.084-3.968V8.93c0-.862 0-1.372-.058-1.811a6.75 6.75 0 00-5.81-5.811c-.44-.058-.95-.058-1.812-.058H14.5a.75.75 0 000 1.5h.5zm-5.8 2.5h-.03c-.535 0-.98 0-1.345.03-.38.03-.736.098-1.073.27A2.75 2.75 0 005.55 6.752c-.172.337-.24.693-.27 1.073-.03.365-.03.81-.03 1.345V10a.75.75 0 001.5 0v-.8c0-.572 0-.957.025-1.253.023-.287.065-.424.111-.514a1.25 1.25 0 01.547-.547c.09-.046.227-.088.514-.111.296-.024.68-.025 1.253-.025h.8a.75.75 0 000-1.5h-.8zm5.6 1.5c.572 0 .957 0 1.252.025.288.023.425.065.515.111.236.12.427.311.547.547.046.09.088.227.111.514.024.296.025.68.025 1.253v.8a.75.75 0 001.5 0V9.17c0-.535 0-.98-.03-1.345-.03-.38-.098-.736-.27-1.073A2.75 2.75 0 0017.25 5.55c-.338-.172-.694-.24-1.074-.27-.365-.03-.81-.03-1.345-.03H14a.75.75 0 000 1.5h.8zM6.75 14.1a.75.75 0 00-1.5 0v.73c0 .535 0 .98.03 1.345.03.38.098.736.27 1.073a2.75 2.75 0 001.202 1.202c.337.172.693.24 1.073.27.365.03.81.03 1.345.03H10a.75.75 0 000-1.5h-.8c-.572 0-.957 0-1.253-.025-.287-.023-.424-.065-.514-.111a1.25 1.25 0 01-.547-.547c-.046-.09-.088-.227-.111-.515-.024-.295-.025-.68-.025-1.252v-.7zm12 0a.75.75 0 00-1.5 0v.7c0 .572 0 .957-.025 1.252-.023.288-.065.425-.111.515a1.25 1.25 0 01-.547.547c-.09.046-.227.088-.515.111-.295.024-.68.025-1.252.025h-.7a.75.75 0 000 1.5h.73c.535 0 .98 0 1.345-.03.38-.03.736-.098 1.073-.27a2.751 2.751 0 001.202-1.201c.172-.338.24-.694.27-1.074.03-.365.03-.81.03-1.345v-.73zM12 8.75a.75.75 0 01.75.75V12a1.35 1.35 0 01-1.35 1.35.75.75 0 01-.15-1.485V9.5a.75.75 0 01.75-.75zm-1.75.75a.75.75 0 10-1.5 0v1a.75.75 0 001.5 0v-1zm4.25-.75a.75.75 0 01.75.75v1a.75.75 0 01-1.5 0v-1a.75.75 0 01.75-.75zm-2.5 6c-.788 0-1.6-.412-1.97-.78a.75.75 0 10-1.06 1.06c.63.632 1.818 1.22 3.03 1.22 1.212 0 2.4-.588 3.03-1.22a.75.75 0 10-1.06-1.06c-.37.368-1.182.78-1.97.78z"/>
</svg>
