<svg xmlns="http://www.w3.org/2000/svg" width="24" height="24" fill="currentColor" viewBox="0 0 24 24">
  <path fill-rule="evenodd" d="M15.555 2.708a1.25 1.25 0 00-1.11 0c-.156.078-.327.234-.915.822-.588.588-.744.759-.822.915a1.25 1.25 0 000 1.11c.078.156.234.327.822.915l4 4c.588.588.759.744.915.822.35.173.76.173 1.11 0 .156-.078.327-.234.915-.822.588-.588.744-.759.822-.915a1.25 1.25 0 000-1.11c-.078-.156-.234-.327-.822-.915l-2-2-2-2c-.588-.588-.759-.744-.915-.822zM21.53 6.47L20.06 5l.97-.97a.75.75 0 00-1.06-1.06l-.97.97-1.47-1.47-.085-.086c-.46-.461-.817-.818-1.224-1.02a2.75 2.75 0 00-2.442 0c-.407.202-.763.559-1.223 1.02l-.086.086-.086.086c-.461.46-.818.816-1.02 1.223a2.75 2.75 0 000 2.442c.202.407.559.763 1.02 1.223l.086.086 4 4 .085.086c.46.461.817.818 1.224 1.02a2.75 2.75 0 002.442 0c.407-.202.763-.559 1.224-1.02l.085-.086.086-.085c.461-.46.818-.817 1.02-1.224a2.75 2.75 0 000-2.442c-.202-.407-.559-.763-1.02-1.223l-.086-.086zm-8 4a.75.75 0 010 1.06l-1 1L10.06 15l1.47 1.47.086.085c.461.46.818.817 1.02 1.224a2.75 2.75 0 010 2.442c-.202.407-.559.763-1.02 1.224l-.086.085-.085.086c-.46.461-.817.818-1.224 1.02a2.75 2.75 0 01-2.442 0c-.407-.202-.763-.559-1.223-1.02l-.086-.086L5 20.06l-.97.97a.75.75 0 01-1.06-1.06l.97-.97-1.47-1.47-.086-.085c-.461-.46-.818-.817-1.02-1.224a2.75 2.75 0 010-2.442c.202-.407.559-.763 1.02-1.223l.086-.086.086-.086c.46-.461.816-.818 1.223-1.02a2.75 2.75 0 012.442 0c.407.202.763.559 1.223 1.02l.086.086L9 13.94l2.47-2.47 1-1a.75.75 0 011.06 0zm-8 8l2 2c.588.588.759.744.915.822.35.173.76.173 1.11 0 .156-.078.327-.234.915-.822.588-.588.744-.759.822-.915a1.25 1.25 0 000-1.11c-.078-.156-.234-.327-.822-.915l-2-2-2-2c-.588-.588-.759-.744-.915-.822a1.25 1.25 0 00-1.11 0c-.156.078-.327.234-.915.822-.588.588-.744.759-.822.915a1.25 1.25 0 000 1.11c.078.156.234.327.822.915l2 2z"/>
</svg>
