<svg xmlns="http://www.w3.org/2000/svg" width="24" height="24" fill="currentColor" viewBox="0 0 24 24">
  <path fill-rule="evenodd" d="M10 1.25h-.034c-1.371 0-2.447 0-3.311.07-.88.073-1.607.221-2.265.557A5.75 5.75 0 001.877 4.39c-.336.658-.484 1.385-.556 2.265-.071.864-.071 1.94-.071 3.311v5.196c0 1.706 0 2.747.281 3.615a5.75 5.75 0 003.692 3.692c.868.281 1.909.281 3.615.281H9.5a.75.75 0 000-1.5H9c-1.92 0-2.702-.01-3.313-.208a4.25 4.25 0 01-2.729-2.729C2.759 17.702 2.75 16.92 2.75 15v-5c0-1.413 0-2.427.066-3.223.064-.787.188-1.295.397-1.706a4.25 4.25 0 011.858-1.858c.411-.21.919-.333 1.706-.397.796-.065 1.81-.066 3.223-.066h4c1.412 0 2.427 0 3.223.066.787.064 1.295.188 1.706.397a4.25 4.25 0 011.858 1.858c.21.411.333.919.397 1.706.065.796.066 1.81.066 3.223v5c0 1.92-.01 2.702-.208 3.313a4.25 4.25 0 01-2.729 2.729c-.611.199-1.393.208-3.313.208h-.5a.75.75 0 000 1.5h.662c1.706 0 2.747 0 3.615-.281a5.75 5.75 0 003.692-3.692c.281-.868.281-1.909.281-3.615V9.966c0-1.371 0-2.447-.07-3.311-.072-.88-.221-1.607-.557-2.265a5.75 5.75 0 00-2.513-2.513c-.658-.336-1.385-.484-2.265-.556-.864-.071-1.94-.071-3.311-.071H10zm.794 14.5h-.038c-.876 0-1.585 0-2.125-.048-.524-.046-1.068-.147-1.471-.491a2.25 2.25 0 01-.782-1.888c.042-.528.355-.984.693-1.387.348-.416.849-.917 1.469-1.536l.027-.027 1.206-1.206.02-.02c.28-.28.52-.521.736-.704.226-.192.473-.363.776-.462a2.25 2.25 0 011.39 0c.303.099.55.27.776.462.215.183.456.424.736.703l.02.02 1.206 1.207.027.027c.62.62 1.121 1.12 1.47 1.536.336.403.65.86.692 1.387a2.25 2.25 0 01-.782 1.888c-.403.344-.947.445-1.47.491-.541.048-1.25.048-2.126.048H10.794zm-2.66-1.68c.018.015.138.095.629.138.466.041 1.107.042 2.031.042h2.412c.923 0 1.565 0 2.03-.042.491-.043.612-.123.63-.138a.75.75 0 00.26-.629c-.002-.023-.03-.164-.347-.542-.3-.358-.753-.813-1.406-1.466l-1.206-1.206a12.738 12.738 0 00-.666-.64c-.156-.133-.23-.166-.27-.179a.75.75 0 00-.463 0c-.04.013-.113.046-.269.179-.162.138-.36.335-.666.64l-1.206 1.206c-.653.653-1.106 1.107-1.406 1.466-.316.378-.346.519-.347.542a.75.75 0 00.26.63z"/>
</svg>
