<svg xmlns="http://www.w3.org/2000/svg" width="24" height="24" fill="currentColor" viewBox="0 0 24 24">
  <path fill-rule="evenodd" d="M8.75 1a.75.75 0 00-1.5 0v.3a5.465 5.465 0 00-.567.08A6.75 6.75 0 001.38 6.683c-.13.653-.13 1.418-.13 2.712V10a.75.75 0 001.5 0v-.5c0-1.43.004-2.035.1-2.524A5.25 5.25 0 016.977 2.85c.086-.017.176-.032.274-.043V4a.75.75 0 001.5 0V2.751l.75-.001h1.75V4a.75.75 0 001.5 0V2.75a72.28 72.28 0 012.5.033V4a.75.75 0 001.5 0V2.895c.817.105 1.394.28 1.875.558a5.25 5.25 0 011.922 1.922c.325.563.51 1.256.606 2.313.096 1.067.097 2.429.097 4.312 0 1.883 0 3.245-.097 4.312-.096 1.057-.281 1.75-.606 2.313a5.25 5.25 0 01-1.922 1.922c-.563.325-1.256.51-2.313.606-1.067.096-2.429.097-4.312.097H9.5c-1.43 0-2.035-.004-2.524-.1a5.25 5.25 0 01-4.125-4.126c-.097-.489-.101-1.094-.101-2.524V14a.75.75 0 00-1.5 0v.605c0 1.294 0 2.06.13 2.712a6.75 6.75 0 005.303 5.303c.653.13 1.418.13 2.712.13h2.643c1.837 0 3.267 0 4.41-.104 1.16-.105 2.098-.322 2.927-.8a6.752 6.752 0 002.47-2.471c.48-.83.696-1.767.802-2.927.103-1.143.103-2.573.103-4.41v-.076c0-1.837 0-3.267-.104-4.41-.105-1.16-.322-2.098-.8-2.927a6.75 6.75 0 00-2.471-2.47c-.756-.437-1.602-.656-2.625-.77V1a.75.75 0 00-1.5 0v.282a75.075 75.075 0 00-2.5-.032V1a.75.75 0 00-1.5 0v.25h-2.5V1zm-2.5 8A.75.75 0 017 8.25h10a.75.75 0 010 1.5H7A.75.75 0 016.25 9zM7 12.25a.75.75 0 000 1.5h6a.75.75 0 000-1.5H7zM6.25 17a.75.75 0 01.75-.75h2a.75.75 0 010 1.5H7a.75.75 0 01-.75-.75z"/>
</svg>
