<svg xmlns="http://www.w3.org/2000/svg" width="24" height="24" fill="currentColor" viewBox="0 0 24 24">
  <path fill-rule="evenodd" d="M15 2.75c1.92 0 2.702.01 3.313.208a4.25 4.25 0 012.729 2.729c.199.611.208 1.393.208 3.313v5c0 1.412 0 2.427-.066 3.223-.064.787-.188 1.295-.397 1.707a4.25 4.25 0 01-1.857 1.857c-.412.21-.92.333-1.707.397-.796.065-1.81.066-3.223.066h-4c-1.412 0-2.427 0-3.223-.066-.787-.064-1.295-.188-1.706-.397a4.25 4.25 0 01-1.858-1.857c-.21-.412-.333-.92-.397-1.707-.065-.796-.066-1.81-.066-3.223V9c0-1.92.01-2.702.208-3.313a4.25 4.25 0 012.729-2.729C6.298 2.759 7.08 2.75 9 2.75h.5a.75.75 0 000-1.5h-.662c-1.706 0-2.747 0-3.615.281a5.75 5.75 0 00-3.692 3.692c-.281.868-.281 1.909-.281 3.615v5.196c0 1.371 0 2.447.07 3.311.073.88.221 1.607.557 2.265a5.75 5.75 0 002.513 2.513c.658.336 1.385.485 2.265.556.864.071 1.94.071 3.311.071h4.068c1.371 0 2.447 0 3.311-.07.88-.072 1.607-.221 2.265-.557a5.75 5.75 0 002.513-2.513c.336-.658.485-1.385.556-2.265.071-.864.071-1.94.071-3.311V8.838c0-1.706 0-2.747-.281-3.615a5.75 5.75 0 00-3.692-3.692c-.868-.281-1.909-.281-3.615-.281H14.5a.75.75 0 000 1.5h.5zm-4.206 5.5h-.038c-.876 0-1.585 0-2.125.048-.524.046-1.068.147-1.47.491a2.25 2.25 0 00-.783 1.888c.042.528.356.984.693 1.387.348.416.85.917 1.469 1.536l.027.027 1.206 1.206.02.02c.28.28.52.521.736.704.226.192.473.363.776.462a2.25 2.25 0 001.39 0c.303-.099.55-.27.776-.462.215-.183.456-.424.736-.703l.02-.02 1.206-1.207.027-.027c.62-.62 1.121-1.12 1.47-1.536.337-.403.65-.86.692-1.387a2.25 2.25 0 00-.782-1.888c-.403-.344-.947-.445-1.47-.491-.54-.048-1.25-.048-2.126-.048H10.794zm-2.66 1.68c.018-.015.139-.095.63-.138.465-.041 1.107-.042 2.03-.042h2.412c.924 0 1.565 0 2.03.042.491.043.612.123.63.138a.75.75 0 01.26.629c-.002.023-.03.164-.347.542-.3.358-.753.813-1.406 1.466l-1.206 1.206c-.306.305-.504.502-.666.64-.156.133-.23.166-.27.179a.75.75 0 01-.463 0c-.04-.013-.113-.046-.269-.179-.162-.138-.36-.335-.666-.64l-1.206-1.206c-.653-.653-1.106-1.107-1.406-1.466-.316-.378-.346-.519-.347-.542a.75.75 0 01.26-.63z"/>
</svg>
