<svg xmlns="http://www.w3.org/2000/svg" width="24" height="24" fill="currentColor" viewBox="0 0 24 24">
  <g clip-path="url(#clip0_1716:4506)">
    <path fill-rule="evenodd" d="M9.25 1A.75.75 0 0110 .25h4a.75.75 0 010 1.5h-4A.75.75 0 019.25 1zm-5.5 12a8.25 8.25 0 0112.833-6.861.75.75 0 00.834-1.247A9.708 9.708 0 0012 3.25c-5.385 0-9.75 4.365-9.75 9.75a.75.75 0 001.5 0zm16.986-4.334a.75.75 0 10-1.343.668A8.25 8.25 0 0112 21.25H7a.75.75 0 000 1.5h5c5.385 0 9.75-4.365 9.75-9.75a9.713 9.713 0 00-1.014-4.334zM1.25 16a.75.75 0 01.75-.75h5a.75.75 0 010 1.5H2a.75.75 0 01-.75-.75zm2 3a.75.75 0 01.75-.75h6a.75.75 0 010 1.5H4a.75.75 0 01-.75-.75zm9.5-9a.75.75 0 00-1.5 0v4a.75.75 0 001.5 0v-4z"/>
  </g>
  <defs>
    <clipPath id="clip0_1716:4506">
      <path d="M0 0h24v24H0z"/>
    </clipPath>
  </defs>
</svg>
