<svg xmlns="http://www.w3.org/2000/svg" width="24" height="24" fill="currentColor" viewBox="0 0 24 24">
  <path fill-rule="evenodd" d="M3 2.25a.75.75 0 000 1.5h11a.75.75 0 000-1.5H3zm15 0a.75.75 0 000 1.5h3a.75.75 0 000-1.5h-3zm-7 6h10a.75.75 0 010 1.5H11a.75.75 0 010-1.5zm-4.47.22a.75.75 0 010 1.06L4.06 12l2.47 2.47a.75.75 0 11-1.06 1.06l-3-3a.75.75 0 010-1.06l3-3a.75.75 0 011.06 0zM21 14.25H11a.75.75 0 000 1.5h10a.75.75 0 000-1.5zM2.25 21a.75.75 0 01.75-.75h11a.75.75 0 010 1.5H3a.75.75 0 01-.75-.75zm15 0a.75.75 0 01.75-.75h3a.75.75 0 010 1.5h-3a.75.75 0 01-.75-.75z"/>
</svg>
