<svg xmlns="http://www.w3.org/2000/svg" width="24" height="24" fill="currentColor" viewBox="0 0 24 24">
  <path fill-rule="evenodd" d="M1.47 1.47a.75.75 0 011.06 0L5.54 4.478l13.188 13.188 3.803 3.804a.75.75 0 11-1.06 1.06l-3.804-3.803L5.077 6.137C4.24 7.343 3.75 8.824 3.75 10.5c0 3.68 1.634 6.369 3.516 8.15a11.795 11.795 0 002.817 1.985c.899.445 1.588.615 1.917.615.43 0 1.414-.282 2.617-.996.154-.092.311-.19.47-.295a.75.75 0 01.827 1.252 13.02 13.02 0 01-.531.332c-1.288.765-2.553 1.207-3.383 1.207-.67 0-1.607-.287-2.583-.77a13.29 13.29 0 01-3.183-2.241C4.116 17.733 2.25 14.671 2.25 10.5c0-2.084.643-3.942 1.752-5.437L1.47 2.53a.75.75 0 010-1.06zM12 2.75c-1.48 0-2.856.33-4.04.921a.75.75 0 11-.67-1.342c1.4-.7 3.006-1.079 4.71-1.079 5.357 0 9.75 3.78 9.75 9.25 0 1.792-.345 3.386-.912 4.782a.75.75 0 11-1.39-.564c.496-1.22.802-2.623.802-4.218 0-4.53-3.607-7.75-8.25-7.75zM11.25 8a.75.75 0 01.75-.75A3.75 3.75 0 0115.75 11a.75.75 0 01-1.5 0A2.25 2.25 0 0012 8.75a.75.75 0 01-.75-.75z"/>
</svg>
