<svg xmlns="http://www.w3.org/2000/svg" width="24" height="24" fill="currentColor" viewBox="0 0 24 24">
  <path fill-rule="evenodd" d="M5.75 6a3.25 3.25 0 116.5 0 3.25 3.25 0 01-6.5 0zM9 1.25a4.75 4.75 0 100 9.5 4.75 4.75 0 000-9.5zM16.25 10a.75.75 0 01.75-.75h6a.75.75 0 010 1.5h-6a.75.75 0 01-.75-.75zm-15 8.8a5.55 5.55 0 015.55-5.55h4.4a5.55 5.55 0 015.55 5.55 3.95 3.95 0 01-3.95 3.95h-1.3a.75.75 0 010-1.5h1.3a2.45 2.45 0 002.45-2.45 4.05 4.05 0 00-4.05-4.05H6.8a4.05 4.05 0 00-4.05 4.05 2.45 2.45 0 002.45 2.45h1.3a.75.75 0 010 1.5H5.2a3.95 3.95 0 01-3.95-3.95z"/>
</svg>
