<svg xmlns="http://www.w3.org/2000/svg" width="24" height="24" fill="currentColor" viewBox="0 0 24 24">
  <path fill-rule="evenodd" d="M10.536 3.243c.48-.412.789-.674 1.042-.842.237-.156.347-.175.422-.175.075 0 .185.019.421.175.254.168.563.43 1.043.842l1.548 1.326a.75.75 0 10.976-1.138L14.44 2.104l-.034-.03c-.436-.374-.816-.699-1.158-.925C12.88.906 12.48.726 12 .726s-.88.18-1.248.423c-.342.226-.722.551-1.159.926l-.034.029-.705.604c-.457.393-.552.46-.649.495-.097.036-.212.047-.815.047h-.474c-.665 0-1.237 0-1.696.062-.492.066-.963.215-1.345.597s-.532.853-.598 1.345c-.061.459-.061 1.032-.061 1.697V7.4c0 .598-.01.712-.046.808-.035.096-.101.19-.488.646l-.61.722-.03.033c-.367.435-.687.812-.91 1.152-.239.366-.416.763-.416 1.239 0 .476.177.873.417 1.239.222.34.542.717.91 1.151l.028.034.611.722c.387.456.453.55.488.646.035.096.046.21.046.808V19a.75.75 0 001.5 0v-2.492c0-.453.001-.854-.138-1.233-.139-.378-.399-.684-.692-1.029l-.06-.07-.61-.721c-.405-.478-.663-.784-.828-1.037-.153-.234-.172-.344-.172-.418 0-.074.019-.184.172-.418.165-.253.423-.559.828-1.037l.61-.72.06-.071c.293-.345.553-.65.692-1.03.139-.378.138-.78.138-1.232V7c0-.728.001-1.2.048-1.546.044-.325.114-.427.171-.484.058-.057.16-.128.485-.172.347-.046.817-.048 1.546-.048h.517c.457 0 .861.001 1.243-.14.381-.14.688-.405 1.034-.702l.07-.06.706-.605zM20.75 5a.75.75 0 00-1.5 0v2.483c0 .457-.001.861.14 1.243.14.381.405.688.702 1.034l.06.07.605.706c.412.48.674.789.842 1.042.156.237.175.347.175.422 0 .075-.019.185-.175.421-.168.254-.43.563-.842 1.043l-.604.705-.06.07c-.298.347-.562.654-.703 1.035-.141.382-.14.786-.14 1.243V17c0 .728-.002 1.2-.048 1.546-.044.325-.115.427-.172.484-.057.057-.159.128-.484.172-.347.046-.818.048-1.546.048h-.483c-.457 0-.861-.001-1.243.14-.381.14-.688.405-1.034.702l-.07.06-.706.605c-.48.412-.789.674-1.043.842-.236.156-.346.175-.421.175-.075 0-.185-.019-.422-.175-.253-.168-.562-.43-1.042-.842L8.988 19.43a.75.75 0 00-.976 1.14l1.547 1.326.034.029c.437.374.817.7 1.159.926.368.243.768.423 1.248.423s.88-.18 1.248-.423c.342-.226.722-.552 1.159-.926l.033-.029.705-.604c.458-.393.553-.46.65-.495.096-.036.212-.047.815-.047h.44c.664 0 1.237 0 1.696-.062.491-.066.963-.215 1.345-.597s.531-.854.597-1.345c.062-.459.062-1.032.062-1.697v-.439c0-.603.01-.719.047-.815.035-.097.102-.192.495-.65l.604-.705.029-.034c.374-.436.7-.816.926-1.158.243-.368.423-.768.423-1.248s-.18-.88-.423-1.248c-.226-.342-.552-.722-.926-1.159l-.03-.034-.603-.705c-.393-.457-.46-.552-.495-.649-.036-.097-.047-.212-.047-.815V5zm-4.22 4.53a.75.75 0 10-1.06-1.06L11 12.94l-1.47-1.47a.75.75 0 10-1.06 1.06l2 2a.75.75 0 001.06 0l5-5z"/>
</svg>
