<svg xmlns="http://www.w3.org/2000/svg" width="24" height="24" fill="currentColor" viewBox="0 0 24 24">
  <path fill-rule="evenodd" d="M4 2.75a1.25 1.25 0 100 2.5 1.25 1.25 0 000-2.5zM1.25 4a2.75 2.75 0 115.5 0 2.75 2.75 0 01-5.5 0zm2 6A.75.75 0 014 9.25 2.75 2.75 0 111.25 12a.75.75 0 011.5 0A1.25 1.25 0 104 10.75a.75.75 0 01-.75-.75zm-.5 10a1.25 1.25 0 112.5 0 1.25 1.25 0 01-2.5 0zM4 17.25a2.75 2.75 0 100 5.5 2.75 2.75 0 000-5.5zm8-14.5a1.25 1.25 0 100 2.5 1.25 1.25 0 000-2.5zM9.25 4a2.75 2.75 0 115.5 0 2.75 2.75 0 01-5.5 0zm1.5 8a1.25 1.25 0 112.5 0 1.25 1.25 0 01-2.5 0zM12 9.25a2.75 2.75 0 100 5.5 2.75 2.75 0 000-5.5zm0 9.5a1.25 1.25 0 100 2.5 1.25 1.25 0 000-2.5zM9.25 20a2.75 2.75 0 115.5 0 2.75 2.75 0 01-5.5 0zm9.5-16c0-.69.56-1.25 1.25-1.25a.75.75 0 000-1.5A2.75 2.75 0 1022.75 4a.75.75 0 00-1.5 0 1.25 1.25 0 11-2.5 0zM20 10.75a1.25 1.25 0 100 2.5 1.25 1.25 0 000-2.5zM17.25 12a2.75 2.75 0 115.5 0 2.75 2.75 0 01-5.5 0zm1.5 8a1.25 1.25 0 112.5 0 1.25 1.25 0 01-2.5 0zM20 17.25a2.75 2.75 0 100 5.5 2.75 2.75 0 000-5.5z"/>
</svg>
