<svg xmlns="http://www.w3.org/2000/svg" width="24" height="24" fill="currentColor" viewBox="0 0 24 24">
  <path fill-rule="evenodd" d="M21.25 12A9.25 9.25 0 0012 2.75a9.216 9.216 0 00-3.7.77.75.75 0 11-.6-1.375A10.716 10.716 0 0112 1.25c5.937 0 10.75 4.813 10.75 10.75S17.937 22.75 12 22.75 1.25 17.937 1.25 12c0-2.42.8-4.655 2.15-6.451a.75.75 0 011.2.9A9.206 9.206 0 002.75 12a9.25 9.25 0 0018.5 0zm-4.567-3.69a.75.75 0 00-.993-.993l-4.135 1.88-.1.045c-.577.262-1.034.47-1.39.824-.354.355-.561.812-.823 1.39l-.045.1-1.88 4.134a.75.75 0 00.993.993l4.135-1.88.1-.045c.577-.262 1.034-.47 1.39-.824.354-.355.561-.812.823-1.39l.046-.1 1.879-4.134zm-4.507 2.252L14.49 9.51l-1.052 2.314c-.33.725-.427.912-.565 1.05-.137.137-.324.234-1.049.564L9.51 14.49l1.052-2.314c.33-.725.427-.912.565-1.05.137-.137.324-.234 1.049-.564z"/>
</svg>
