<svg xmlns="http://www.w3.org/2000/svg" width="24" height="24" fill="currentColor" viewBox="0 0 24 24">
  <path fill-rule="evenodd" d="M2.75 12A9.25 9.25 0 0112 2.75c1.88 0 3.628.56 5.087 1.523a.75.75 0 10.826-1.252A10.703 10.703 0 0012 1.25C6.063 1.25 1.25 6.063 1.25 12S6.063 22.75 12 22.75 22.75 17.937 22.75 12c0-1.739-.413-3.383-1.148-4.838a.75.75 0 10-1.339.676A9.209 9.209 0 0121.25 12a9.25 9.25 0 01-18.5 0zM12 8.25h-.05c-.664 0-1.237 0-1.696.062-.491.066-.963.215-1.345.597s-.531.854-.597 1.345c-.062.459-.062 1.032-.062 1.697v.099c0 .664 0 1.237.062 1.696.066.492.215.963.597 1.345s.854.531 1.345.597c.459.062 1.032.062 1.697.062h.099c.664 0 1.237 0 1.696-.062.492-.066.963-.215 1.345-.597s.531-.853.597-1.345c.062-.459.062-1.032.062-1.697v-.099c0-.664 0-1.237-.062-1.696-.066-.491-.215-.963-.597-1.345s-.853-.531-1.345-.597c-.459-.062-1.032-.062-1.697-.062H12zM9.97 9.97c.057-.057.159-.128.484-.172.347-.046.818-.048 1.546-.048.728 0 1.2.002 1.546.048.325.044.427.115.484.172.057.057.128.159.172.484.046.347.048.818.048 1.546 0 .728-.002 1.2-.048 1.546-.044.325-.115.427-.172.484-.057.057-.159.128-.484.172-.347.046-.818.048-1.546.048-.728 0-1.2-.002-1.546-.048-.325-.044-.427-.115-.484-.172-.057-.057-.128-.159-.172-.484-.046-.347-.048-.818-.048-1.546 0-.728.002-1.2.048-1.546.044-.325.115-.427.172-.484z"/>
</svg>
