<svg xmlns="http://www.w3.org/2000/svg" width="24" height="24" fill="currentColor" viewBox="0 0 24 24">
  <path fill-rule="evenodd" d="M4 1.25a.75.75 0 01.75.75v4.86c0 .537 0 .89.026 1.164.025.259.067.393.122.495.055.103.143.213.345.377.214.173.507.37.954.667l.053.036V2a.75.75 0 011.5 0v20a.75.75 0 01-1.5 0V11.401l-.885-.59-.027-.018a14.64 14.64 0 01-1.04-.732c-.292-.237-.54-.494-.722-.834-.182-.34-.258-.688-.293-1.064-.033-.352-.033-.775-.033-1.271V2A.75.75 0 014 1.25zm6 0a.75.75 0 01.75.75v7a.75.75 0 01-1.5 0V2a.75.75 0 01.75-.75zm7 0a.75.75 0 01.75.75v12a.75.75 0 01-.75.75c-.568 0-1.255.318-1.82.93-.556.602-.93 1.426-.93 2.32 0 .894.374 1.718.93 2.32.565.612 1.252.93 1.82.93.568 0 1.255-.318 1.82-.93.556-.602.93-1.426.93-2.32 0-.28-.036-.552-.104-.813a3.464 3.464 0 00-.33-.822.75.75 0 111.31-.73c.203.363.365.758.473 1.178.098.378.151.776.151 1.187 0 1.315-.547 2.492-1.327 3.337-.771.835-1.834 1.413-2.923 1.413s-2.152-.578-2.922-1.413c-.78-.845-1.328-2.022-1.328-3.337 0-1.315.547-2.492 1.328-3.337.592-.642 1.356-1.131 2.172-1.324V2a.75.75 0 01.75-.75z"/>
</svg>
