<svg xmlns="http://www.w3.org/2000/svg" width="24" height="24" fill="currentColor" viewBox="0 0 24 24">
  <path fill-rule="evenodd" d="M6.75 2a.75.75 0 10-1.5 0v2.252c-.594.004-1.108.02-1.54.078-.629.084-1.196.27-1.653.725-.456.455-.642 1.022-.727 1.65-.08.595-.08 1.344-.08 2.243v.104c0 .899 0 1.648.08 2.243.085.628.27 1.195.727 1.65.457.455 1.024.64 1.653.725.596.08 1.346.08 2.247.08h.104c.9 0 1.651 0 2.247-.08.629-.084 1.196-.27 1.652-.725.626-.625.75-1.468.79-2.414a.75.75 0 00-1.5-.062c-.038.927-.165 1.23-.35 1.414-.13.13-.329.238-.792.3-.484.065-1.133.067-2.1.067-.965 0-1.615-.002-2.099-.067-.463-.062-.661-.17-.792-.3l-.53.531.53-.53c-.13-.131-.238-.328-.3-.79-.065-.482-.067-1.13-.067-2.094s.002-1.611.067-2.094c.062-.462.17-.659.3-.79.13-.13.33-.237.792-.3.484-.064 1.134-.066 2.1-.066.966 0 1.615.002 2.1.067.462.062.66.17.792.3.184.183.311.487.35 1.414a.75.75 0 001.498-.062c-.039-.946-.163-1.79-.789-2.414-.456-.455-1.023-.64-1.652-.725-.437-.059-.957-.074-1.558-.079V2zm0 14a.75.75 0 00-1.5 0v6a.75.75 0 001.5 0v-6zm10.5 3.748c-.601-.004-1.121-.02-1.558-.078-.629-.084-1.196-.27-1.652-.725-.626-.625-.75-1.468-.79-2.414a.75.75 0 111.5-.062c.038.927.165 1.23.35 1.414.13.13.329.238.792.3.484.065 1.133.067 2.1.067.965 0 1.614-.002 2.099-.067.463-.062.661-.17.792-.3.13-.13.238-.327.3-.789.065-.483.067-1.13.067-2.094s-.002-1.611-.067-2.094c-.062-.462-.17-.659-.3-.79-.13-.13-.33-.237-.792-.3-.485-.064-1.134-.066-2.1-.066-.966 0-1.615.002-2.1.067-.462.062-.66.17-.792.3-.184.183-.311.487-.35 1.414a.75.75 0 01-1.498-.062c.039-.946.163-1.79.789-2.414.456-.455 1.024-.64 1.652-.725.596-.08 1.347-.08 2.247-.08h.104c.9 0 1.651 0 2.247.08.629.084 1.197.27 1.653.725.456.455.642 1.022.727 1.65.08.595.08 1.345.08 2.243v.104c0 .899 0 1.648-.08 2.243-.085.628-.27 1.195-.727 1.65-.457.455-1.024.64-1.653.725-.432.058-.946.074-1.54.078V22a.75.75 0 01-1.5 0v-2.252zM18 1.25a.75.75 0 01.75.75v6a.75.75 0 01-1.5 0V2a.75.75 0 01.75-.75z"/>
</svg>
