<svg xmlns="http://www.w3.org/2000/svg" width="24" height="24" fill="currentColor" viewBox="0 0 24 24">
  <path fill-rule="evenodd" d="M12 2.222c-.629 0-1.252.25-2.665.95a.75.75 0 11-.667-1.344C10.018 1.158 10.96.722 12 .722c1.124 0 2.153.515 3.744 1.311l.17.085 1.266.633.06.03c1.51.756 2.72 1.36 3.546 1.937.832.58 1.492 1.28 1.492 2.282s-.66 1.701-1.492 2.282c-.825.576-2.036 1.181-3.546 1.937l-.06.03-1.267.633-.169.085c-1.591.796-2.62 1.31-3.744 1.31s-2.153-.514-3.744-1.31l-.17-.085-1.266-.633-.06-.03c-1.51-.756-2.72-1.36-3.546-1.937-.832-.58-1.492-1.28-1.492-2.282 0-.868.499-1.512 1.168-2.042.657-.52 1.608-1.034 2.776-1.627a.75.75 0 11.68 1.338c-1.188.603-2.004 1.053-2.525 1.465-.509.403-.599.66-.599.866 0 .235.121.543.85 1.052.725.506 1.835 1.063 3.419 1.855l1.267.633c1.823.912 2.516 1.238 3.242 1.238s1.42-.326 3.242-1.238l1.267-.633c1.584-.792 2.694-1.35 3.419-1.855.729-.509.85-.817.85-1.052 0-.235-.121-.543-.85-1.052-.725-.506-1.835-1.063-3.419-1.855l-1.267-.633C13.42 2.548 12.726 2.222 12 2.222zM1.33 12.665a.75.75 0 011.005-.336l5.707 2.854c1.613.806 2.292 1.138 2.99 1.269.64.12 1.296.12 1.936 0 .698-.131 1.377-.463 2.99-1.27l.207-.103.5-.25a.75.75 0 11.67 1.342l-.5.25-.206.103-.112.056c-1.467.734-2.343 1.172-3.272 1.346a6.747 6.747 0 01-2.49 0c-.93-.174-1.805-.612-3.272-1.346l-.112-.056-5.706-2.853a.75.75 0 01-.336-1.006zm21.34 0a.75.75 0 01-.335 1.006l-2 1a.75.75 0 11-.67-1.342l2-1a.75.75 0 011.006.336zM2.336 17.329a.75.75 0 10-.67 1.342l5.706 2.853.112.056c1.467.734 2.343 1.172 3.272 1.346a6.747 6.747 0 002.49 0c.93-.174 1.805-.612 3.272-1.346l.112-.056 5.706-2.853a.75.75 0 10-.67-1.342l-5.707 2.854c-1.613.806-2.292 1.138-2.99 1.269-.64.12-1.296.12-1.936 0-.698-.131-1.377-.463-2.99-1.27L2.335 17.33z"/>
</svg>
