<svg xmlns="http://www.w3.org/2000/svg" width="24" height="24" fill="currentColor" viewBox="0 0 24 24">
  <path fill-rule="evenodd" d="M11.966 1.25h.068c1.371 0 2.447 0 3.311.07.88.073 1.607.221 2.265.557a5.75 5.75 0 012.513 2.513c.336.658.485 1.385.556 2.265.071.864.071 1.94.071 3.311v4.068c0 1.371 0 2.447-.07 3.311-.072.88-.221 1.607-.557 2.265a5.75 5.75 0 01-2.513 2.513c-.658.336-1.385.485-2.265.556-.864.071-1.94.071-3.311.071h-.068c-1.371 0-2.447 0-3.311-.07-.88-.072-1.607-.221-2.265-.557a5.75 5.75 0 01-2.513-2.513c-.336-.658-.484-1.385-.556-2.265a16.376 16.376 0 01-.037-.595H2a.75.75 0 010-1.5h1.252c-.002-.378-.002-.782-.002-1.216V12.75H2a.75.75 0 010-1.5h1.25V9.966c0-.434 0-.838.002-1.216H2a.75.75 0 010-1.5h1.284c.01-.209.021-.407.037-.595.072-.88.22-1.607.556-2.265A5.75 5.75 0 016.39 1.877c.658-.336 1.385-.484 2.265-.556.864-.071 1.94-.071 3.311-.071zm-7.214 7.5H6a.75.75 0 000-1.5H4.785c.008-.166.018-.323.03-.473.065-.787.189-1.295.398-1.706a4.25 4.25 0 011.858-1.858c.411-.21.919-.333 1.706-.397.796-.065 1.81-.066 3.223-.066 1.412 0 2.427 0 3.223.066.787.064 1.295.188 1.707.397a4.25 4.25 0 011.857 1.858c.21.411.333.919.397 1.706.065.796.066 1.81.066 3.223v4c0 1.412 0 2.427-.066 3.223-.064.787-.188 1.295-.397 1.707a4.251 4.251 0 01-1.857 1.857c-.412.21-.92.333-1.707.397-.796.065-1.81.066-3.223.066-1.412 0-2.427 0-3.223-.066-.787-.064-1.295-.188-1.706-.397a4.25 4.25 0 01-1.858-1.857c-.21-.412-.333-.92-.397-1.707-.013-.15-.023-.307-.03-.473H6a.75.75 0 000-1.5H4.752c-.002-.38-.002-.794-.002-1.25v-1.25H6a.75.75 0 000-1.5H4.75V10c0-.456 0-.87.002-1.25zM16 6.25a.75.75 0 01.75.75v4a.75.75 0 01-1.5 0V7a.75.75 0 01.75-.75z"/>
</svg>
