<svg xmlns="http://www.w3.org/2000/svg" width="24" height="24" fill="currentColor" viewBox="0 0 24 24">
  <path fill-rule="evenodd" d="M12 2.75c2.378 0 4.086.002 5.386.176 1.279.172 2.05.5 2.62 1.069.569.57.896 1.34 1.068 2.619.174 1.3.176 3.008.176 5.386s-.002 4.086-.176 5.386c-.172 1.279-.5 2.05-1.069 2.62-.57.569-1.34.896-2.619 1.068-1.3.174-3.008.176-5.386.176H9.5c-1.175 0-2.019 0-2.685-.046-.659-.045-1.089-.131-1.441-.277a4.25 4.25 0 01-2.3-2.3c-.147-.353-.233-.783-.278-1.442-.046-.666-.046-1.51-.046-2.685V14a.75.75 0 00-1.5 0v.528c0 1.141 0 2.036.05 2.759.05.735.153 1.347.388 1.913A5.75 5.75 0 004.8 22.312c.566.235 1.178.338 1.913.389.723.049 1.618.049 2.76.049h2.584c2.309 0 4.118 0 5.53-.19 1.444-.194 2.584-.6 3.479-1.494.895-.895 1.3-2.035 1.494-3.48.19-1.411.19-3.22.19-5.529v-.114c0-2.309 0-4.118-.19-5.53-.194-1.444-.6-2.584-1.494-3.479-.895-.895-2.035-1.3-3.48-1.494-1.411-.19-3.22-.19-5.529-.19H9.472c-1.141 0-2.036 0-2.759.05-.735.05-1.347.153-1.913.388A5.75 5.75 0 001.688 4.8c-.235.566-.339 1.178-.389 1.913-.049.723-.049 1.618-.049 2.76V10a.75.75 0 001.5 0v-.5c0-1.175 0-2.019.046-2.685.045-.659.131-1.089.278-1.441a4.25 4.25 0 012.3-2.3c.352-.147.782-.233 1.441-.278.666-.046 1.51-.046 2.685-.046H12zm-4 4.5a.75.75 0 000 1.5h8a.75.75 0 000-1.5H8zM12.75 11a.75.75 0 00-1.5 0v5a.75.75 0 001.5 0v-5z"/>
</svg>
