<svg xmlns="http://www.w3.org/2000/svg" width="24" height="24" fill="currentColor" viewBox="0 0 24 24">
  <path fill-rule="evenodd" d="M14.5 2.75c1.662 0 2.843.001 3.749.108.889.105 1.415.304 1.813.63.164.135.315.286.45.45.326.398.525.924.63 1.813.107.906.108 2.087.108 3.749v.5a.75.75 0 001.5 0v-.549c0-1.602 0-2.872-.119-3.876-.122-1.03-.377-1.88-.96-2.588a4.751 4.751 0 00-.658-.659c-.709-.582-1.557-.837-2.588-.96-1.005-.118-2.274-.118-3.876-.118H14a.75.75 0 000 1.5h.5zM22.75 14a.75.75 0 00-1.5 0v.5c0 1.662-.001 2.843-.108 3.749-.105.889-.304 1.415-.63 1.813a3.262 3.262 0 01-.45.45c-.398.326-.924.525-1.813.63-.906.107-2.087.108-3.749.108H14a.75.75 0 000 1.5h.549c1.602 0 2.872 0 3.876-.119 1.03-.122 1.88-.377 2.588-.96.24-.197.461-.417.659-.658.582-.709.837-1.557.96-2.588.118-1.004.118-2.274.118-3.876V14zM10.53 7.47a.75.75 0 10-1.06 1.06l2.72 2.72H2a.75.75 0 000 1.5h12a.75.75 0 00.53-1.28l-4-4zm1.5 7.56a.75.75 0 10-1.06-1.06l-1.5 1.5a.75.75 0 101.06 1.06l1.5-1.5z"/>
</svg>
