<svg xmlns="http://www.w3.org/2000/svg" width="24" height="24" fill="currentColor" viewBox="0 0 24 24">
  <path fill-rule="evenodd" d="M18 3.75c.513 0 .623.007.694.026a.75.75 0 01.53.53c.02.071.026.18.026.694v1a.75.75 0 001.5 0V4.916c0-.38 0-.71-.077-.998a2.25 2.25 0 00-1.59-1.591c-.29-.078-.618-.077-1-.077H8.5a.75.75 0 100 1.5h2.75V7a.75.75 0 001.5 0V3.75H18zM12.75 16.5a.75.75 0 00-1.5 0v3.75H8a.75.75 0 000 1.5h8a.75.75 0 000-1.5h-3.25V16.5zM4.53 3.47a.75.75 0 10-1.06 1.06l16 16a.75.75 0 101.06-1.06l-16-16z"/>
</svg>
