<svg xmlns="http://www.w3.org/2000/svg" width="24" height="24" fill="currentColor" viewBox="0 0 24 24">
  <path fill-rule="evenodd" d="M15 2.75c1.92 0 2.702.01 3.313.208a4.25 4.25 0 012.729 2.729c.199.611.208 1.393.208 3.313v.5a.75.75 0 001.5 0v-.662c0-1.706 0-2.747-.281-3.615a5.75 5.75 0 00-3.692-3.692c-.868-.281-1.909-.281-3.615-.281H9.966c-1.371 0-2.447 0-3.311.07-.88.073-1.607.221-2.265.557A5.75 5.75 0 001.877 4.39c-.336.658-.484 1.385-.556 2.265-.071.864-.071 1.94-.071 3.311v4.068c0 1.371 0 2.447.07 3.311.073.88.221 1.607.557 2.265a5.75 5.75 0 002.513 2.513c.658.336 1.385.485 2.265.556.864.071 1.94.071 3.311.071h5.196c1.706 0 2.747 0 3.615-.281a5.75 5.75 0 003.692-3.692c.281-.868.281-1.909.281-3.615V14.5a.75.75 0 00-1.5 0v.5c0 1.92-.01 2.702-.208 3.313a4.25 4.25 0 01-2.729 2.729c-.611.199-1.393.208-3.313.208h-5c-1.413 0-2.427 0-3.223-.066-.787-.064-1.295-.188-1.706-.397a4.25 4.25 0 01-1.858-1.857c-.21-.412-.333-.92-.397-1.707-.065-.796-.066-1.81-.066-3.223v-4c0-1.412 0-2.427.066-3.223.064-.787.188-1.295.397-1.706a4.25 4.25 0 011.858-1.858c.411-.21.919-.333 1.706-.397.796-.065 1.81-.066 3.223-.066h5zm-3.74 2.5C9.2 5.25 7.545 6.938 7.545 9c0 .322.04.635.117.935a.75.75 0 101.453-.37A2.291 2.291 0 019.046 9c0-1.251 1-2.25 2.213-2.25h1.482c1.213 0 2.213.999 2.213 2.25a.75.75 0 001.5 0c0-2.062-1.654-3.75-3.713-3.75h-1.482zm-5.26 6a.75.75 0 000 1.5h6.74c1.214 0 2.213.999 2.213 2.25 0 1.252-.999 2.25-2.212 2.25h-1.482c-1.213 0-2.213-.998-2.213-2.25a.75.75 0 00-1.5 0c0 2.062 1.654 3.75 3.713 3.75h1.482c2.059 0 3.712-1.688 3.712-3.75 0-.842-.275-1.622-.742-2.25H18a.75.75 0 000-1.5H6z"/>
</svg>
