<svg xmlns="http://www.w3.org/2000/svg" width="24" height="24" fill="currentColor" viewBox="0 0 24 24">
  <path fill-rule="evenodd" d="M5.624 3.584a.75.75 0 01-.208 1.04L3.84 5.674c-.56.373-.706.48-.807.603a1.25 1.25 0 00-.23.43c-.047.153-.054.333-.054 1.006V10a.75.75 0 01-1.5 0V7.619c0-.534-.001-.955.118-1.348a2.75 2.75 0 01.507-.947c.261-.317.61-.55 1.056-.846l.078-.052 1.575-1.05a.75.75 0 011.04.208zm13.792-.208a.75.75 0 00-.832 1.248l1.575 1.05c.56.373.705.48.806.603.105.127.183.273.23.43.047.153.055.333.055 1.006V10a.75.75 0 101.5 0V7.619c0-.534 0-.955-.119-1.348a2.752 2.752 0 00-.507-.947c-.26-.317-.61-.55-1.055-.846l-.078-.052-1.575-1.05zM6 12.75a3.25 3.25 0 100 6.5 3.25 3.25 0 000-6.5zM1.25 16a4.75 4.75 0 019.397-.989A3.426 3.426 0 0112 14.75c.538 0 .986.105 1.353.261A4.748 4.748 0 0118 11.25a4.75 4.75 0 11-4.678 5.577 1.172 1.172 0 00-.228-.241c-.19-.152-.526-.336-1.094-.336-.568 0-.905.184-1.094.336a1.17 1.17 0 00-.228.24A4.751 4.751 0 011.25 16zm13.934-1.624a3.25 3.25 0 115.631 3.249 3.25 3.25 0 01-5.63-3.25z"/>
</svg>
