<svg xmlns="http://www.w3.org/2000/svg" width="24" height="24" fill="currentColor" viewBox="0 0 24 24">
  <path fill-rule="evenodd" d="M4.75 7.571A3.823 3.823 0 017.41 3.93 2.751 2.751 0 0010 5.75h4c1.193 0 2.208-.76 2.589-1.82a3.823 3.823 0 012.66 3.641v6.43c0 1.412 0 2.426-.065 3.222-.064.787-.188 1.295-.397 1.706a4.25 4.25 0 01-1.858 1.858c-.411.21-.919.333-1.706.397-.796.065-1.81.066-3.223.066h-.344c-1.249 0-2.146 0-2.853-.052-.699-.05-1.154-.148-1.525-.313a4.25 4.25 0 01-2.163-2.163c-.165-.372-.263-.826-.313-1.526-.052-.706-.052-1.603-.052-2.852H4h.75V14a.75.75 0 00-1.5 0v.374c0 1.212 0 2.164.056 2.93.056.782.173 1.43.437 2.026a5.75 5.75 0 002.927 2.927c.596.264 1.244.38 2.025.437.767.056 1.718.056 2.931.056H12.034c1.371 0 2.447 0 3.31-.07.881-.072 1.608-.221 2.266-.557a5.75 5.75 0 002.513-2.513c.335-.658.484-1.385.556-2.265.07-.864.07-1.94.07-3.311V7.57A5.324 5.324 0 0016.685 2.4a2.759 2.759 0 00-1.309-1.78.75.75 0 10-.75 1.298c.19.11.348.269.458.459A1.25 1.25 0 0114 4.25h-4a1.25 1.25 0 110-2.5h2a.75.75 0 000-1.5h-2c-1.312 0-2.41.92-2.684 2.149A5.324 5.324 0 003.25 7.57V10a.75.75 0 001.5 0V7.571zM9.5 12.25a.75.75 0 000 1.5h5a.75.75 0 000-1.5h-5z"/>
</svg>
