<svg xmlns="http://www.w3.org/2000/svg" width="24" height="24" fill="currentColor" viewBox="0 0 24 24">
  <path fill-rule="evenodd" d="M5.05 10.933C5.05 6.945 8.183 3.75 12 3.75c1.717 0 3.289.642 4.504 1.713a.75.75 0 10.992-1.126A8.288 8.288 0 0012 2.25c-4.555 0-8.237 3.691-8.441 8.281C1.614 11.294.25 13.225.25 15.467c0 2.896 2.285 5.283 5.15 5.283h12.1c3.473 0 6.25-2.894 6.25-6.417 0-2.717-1.647-5.052-3.992-5.985a.75.75 0 00-.555 1.394c1.773.705 3.047 2.488 3.047 4.591 0 2.737-2.148 4.917-4.75 4.917H5.4c-1.995 0-3.65-1.673-3.65-3.783 0-1.778 1.179-3.252 2.743-3.666a.75.75 0 00.558-.738l-.001-.13zm5.48-.463a.75.75 0 10-1.06 1.06L10.94 13l-1.47 1.47a.75.75 0 101.06 1.06L12 14.06l1.47 1.47a.75.75 0 101.06-1.06L13.06 13l1.47-1.47a.75.75 0 10-1.06-1.06L12 11.94l-1.47-1.47z"/>
</svg>
