<svg xmlns="http://www.w3.org/2000/svg" width="24" height="24" fill="currentColor" viewBox="0 0 24 24">
  <path fill-rule="evenodd" d="M15 2.75c1.92 0 2.702.009 3.313.208a4.25 4.25 0 012.729 2.728c.199.612.208 1.394.208 3.314v.5a.75.75 0 001.5 0v-.662c0-1.706 0-2.748-.281-3.615a5.75 5.75 0 00-3.692-3.692c-.868-.282-1.909-.281-3.615-.281H9.966c-1.371 0-2.447 0-3.311.07-.88.072-1.607.221-2.265.556A5.75 5.75 0 001.877 4.39c-.336.658-.484 1.386-.556 2.266-.071.864-.071 1.94-.071 3.311v4.067c0 1.372 0 2.447.07 3.312.073.88.221 1.607.557 2.265a5.75 5.75 0 002.513 2.513c.658.335 1.385.484 2.265.556.864.07 1.94.07 3.311.07h5.196c1.706.001 2.747.001 3.615-.28a5.75 5.75 0 003.692-3.692c.281-.868.281-1.91.281-3.615V14.5a.75.75 0 00-1.5 0v.5c0 1.92-.01 2.701-.208 3.313a4.25 4.25 0 01-2.729 2.729c-.611.198-1.393.208-3.313.208h-5c-1.413 0-2.427 0-3.223-.066-.787-.064-1.295-.188-1.706-.397a4.25 4.25 0 01-1.858-1.858c-.21-.411-.333-.919-.397-1.706-.065-.796-.066-1.81-.066-3.223v-4c0-1.413 0-2.427.066-3.223.064-.788.188-1.295.397-1.707a4.25 4.25 0 011.858-1.857c.411-.21.919-.333 1.706-.398.796-.065 1.81-.065 3.223-.065h5zm-1.559 5.123a.75.75 0 01.63.261c.014.018.094.138.137.629.041.466.042 1.107.042 2.03v2.413c0 .923 0 1.565-.042 2.03-.043.491-.123.612-.138.63a.75.75 0 01-.629.26c-.023-.002-.164-.031-.542-.347-.358-.3-.813-.754-1.466-1.407l-1.206-1.206a12.753 12.753 0 01-.64-.666c-.133-.155-.166-.229-.179-.268a.75.75 0 010-.464c.013-.04.046-.113.179-.269.138-.162.335-.36.64-.666l1.206-1.206c.653-.653 1.108-1.106 1.466-1.406.378-.316.519-.346.542-.348zm1.77-.713a2.25 2.25 0 00-1.888-.782c-.528.042-.984.355-1.387.693-.416.348-.917.849-1.536 1.468l-.027.028-1.206 1.205-.02.02c-.28.28-.521.522-.704.736-.192.227-.363.474-.462.777a2.25 2.25 0 000 1.39c.099.303.27.55.462.776.183.215.424.456.703.736l.02.02 1.207 1.206.027.027c.62.62 1.12 1.12 1.536 1.469.403.337.86.651 1.387.693a2.25 2.25 0 001.888-.782c.344-.403.445-.947.491-1.47.048-.541.048-1.25.048-2.126V10.756c0-.877 0-1.585-.048-2.126-.046-.523-.147-1.067-.491-1.47z"/>
</svg>
