<svg xmlns="http://www.w3.org/2000/svg" width="24" height="24" fill="currentColor" viewBox="0 0 24 24">
  <path fill-rule="evenodd" d="M18.91 1.777a2.75 2.75 0 012.786 2.206c.054.27.054.593.054 1.017v11A3.75 3.75 0 1118 12.25a.75.75 0 110 1.5A2.25 2.25 0 1020.25 16V5.082c0-.544-.004-.7-.025-.803a1.25 1.25 0 00-1.266-1.003c-.105.003-.258.035-.787.16l-1 .235a.75.75 0 01-.344-1.46l1-.235.08-.019c.412-.097.727-.171 1.003-.18zM13.73 3.71a.75.75 0 01-.558.901l-1 .236c-.716.168-1.19.281-1.544.408-.335.12-.483.228-.579.34-.02.023-.038.047-.056.072-.088.12-.159.287-.2.641-.042.373-.043.861-.043 1.596V19a3.75 3.75 0 11-1.5-3V7.863c0-.682 0-1.256.053-1.724.057-.495.18-.95.48-1.36.04-.053.082-.105.125-.156.33-.386.744-.61 1.213-.779.443-.16 1.002-.29 1.666-.447l.041-.01 1-.235a.75.75 0 01.902.559zM6 16.75a2.25 2.25 0 110 4.5 2.25 2.25 0 010-4.5z"/>
</svg>
