<svg xmlns="http://www.w3.org/2000/svg" width="24" height="24" fill="currentColor" viewBox="0 0 24 24">
  <path fill-rule="evenodd" d="M16.083 4.982a1.25 1.25 0 00-1.638-.496c-.06.03-.235.17-.602.66-.343.457-.778 1.11-1.382 2.015l-.036.053c-.202.303-.36.54-.558.738a2.75 2.75 0 01-1.388.742c-.274.056-.56.056-.923.056H9c-.978 0-1.32.006-1.582.077a2.25 2.25 0 00-1.591 1.59c-.07.263-.077.605-.077 1.583s.006 1.32.077 1.582a2.25 2.25 0 001.59 1.591c.263.07.605.077 1.583.077h.556c.364 0 .65 0 .923.055a2.75 2.75 0 011.388.743c.198.197.356.435.558.738l.036.053c.604.906 1.039 1.558 1.382 2.016.367.488.542.63.602.66a1.25 1.25 0 001.638-.497c.034-.058.1-.272.135-.882.032-.572.032-1.356.032-2.444V14.5a.75.75 0 111.5 0V15.717c0 1.058 0 1.884-.035 2.502-.032.585-.098 1.142-.332 1.547a2.75 2.75 0 01-3.605 1.092c-.419-.208-.783-.634-1.134-1.103-.372-.495-.83-1.183-1.417-2.063l-.014-.021c-.254-.381-.326-.482-.403-.558a1.249 1.249 0 00-.63-.338c-.107-.022-.23-.025-.688-.025h-.608c-.818 0-1.376 0-1.855-.128a3.75 3.75 0 01-2.651-2.652c-.128-.478-.128-1.036-.128-1.854a439.38 439.38 0 000-.232c0-.818 0-1.376.128-1.855a3.75 3.75 0 012.651-2.651c.48-.129 1.037-.128 1.855-.128h.608c.458 0 .581-.004.687-.025a1.25 1.25 0 00.631-.338c.077-.076.149-.177.403-.558l.014-.022c.586-.88 1.045-1.567 1.417-2.062.351-.469.715-.895 1.134-1.103a2.75 2.75 0 013.605 1.091c.234.406.3.962.332 1.547.035.619.035 1.445.035 2.502V9.5a.75.75 0 01-1.5 0V8.308c0-1.088 0-1.872-.032-2.444-.034-.61-.101-.824-.135-.882z"/>
</svg>
