<svg xmlns="http://www.w3.org/2000/svg" width="24" height="24" fill="currentColor" viewBox="0 0 24 24">
  <path fill-rule="evenodd" d="M2.75 4a1.25 1.25 0 112.5 0 1.25 1.25 0 01-2.5 0zM4 1.25a2.75 2.75 0 100 5.5 2.75 2.75 0 000-5.5zM10.25 4a.75.75 0 01.75-.75h5a.75.75 0 010 1.5h-5a.75.75 0 01-.75-.75zm9 0a.75.75 0 01.75-.75h2a.75.75 0 010 1.5h-2a.75.75 0 01-.75-.75zm-9 8a.75.75 0 01.75-.75h11a.75.75 0 010 1.5H11a.75.75 0 01-.75-.75zm0 8a.75.75 0 01.75-.75h5a.75.75 0 010 1.5h-5a.75.75 0 01-.75-.75zm9 0a.75.75 0 01.75-.75h2a.75.75 0 010 1.5h-2a.75.75 0 01-.75-.75zM4 10.75A1.25 1.25 0 105.25 12a.75.75 0 011.5 0A2.75 2.75 0 114 9.25a.75.75 0 010 1.5zM2.75 20a1.25 1.25 0 112.5 0 1.25 1.25 0 01-2.5 0zM4 17.25a2.75 2.75 0 100 5.5 2.75 2.75 0 000-5.5z"/>
</svg>
