<svg xmlns="http://www.w3.org/2000/svg" width="24" height="24" fill="currentColor" viewBox="0 0 24 24">
  <path fill-rule="evenodd" d="M18.75 3.332c-.352.051-.806.157-1.472.314l-5.022 1.182c-.758.178-1.261.298-1.633.434-.352.13-.505.245-.603.37-.098.124-.176.298-.221.671-.048.393-.049.91-.049 1.689v.047l4.068-1.017a.75.75 0 01.364 1.456L9.75 9.586V19A3.75 3.75 0 116 15.25a.75.75 0 010 1.5A2.25 2.25 0 108.25 19V7.947c0-.722 0-1.33.06-1.823.063-.524.2-1.002.534-1.424.334-.421.768-.665 1.263-.846.467-.171 1.059-.31 1.762-.476l.043-.01 5.022-1.182.033-.008c.626-.147 1.142-.268 1.565-.33.436-.064.856-.08 1.268.046a2.75 2.75 0 011.578 1.25c.216.372.298.785.335 1.224.037.426.037.956.037 1.599V16a3.75 3.75 0 11-1.5-3V6.96l-2.068.518a.75.75 0 01-.364-1.456l2.43-.607c-.001-.382-.008-.677-.03-.92-.029-.348-.083-.504-.137-.598a1.25 1.25 0 00-.718-.568c-.103-.031-.267-.048-.614.003zM20.25 16a2.25 2.25 0 10-4.5 0 2.25 2.25 0 004.5 0z"/>
</svg>
