<svg xmlns="http://www.w3.org/2000/svg" width="24" height="24" fill="currentColor" viewBox="0 0 24 24">
  <path fill-rule="evenodd" d="M15 2.75c1.92 0 2.702.01 3.313.208a4.25 4.25 0 012.729 2.729c.199.611.208 1.393.208 3.313v.5a.75.75 0 001.5 0v-.662c0-1.706 0-2.747-.281-3.615a5.75 5.75 0 00-3.692-3.692c-.868-.281-1.909-.281-3.615-.281H9.966c-1.371 0-2.447 0-3.311.07-.88.072-1.607.221-2.265.557A5.75 5.75 0 001.877 4.39c-.336.658-.484 1.385-.556 2.265-.071.864-.071 1.94-.071 3.311v.534a.75.75 0 001.5 0V10c0-1.413 0-2.427.066-3.223.064-.787.188-1.295.397-1.706a4.25 4.25 0 011.858-1.858c.411-.21.919-.333 1.706-.397.796-.065 1.81-.066 3.223-.066h5zm7.75 11.75a.75.75 0 00-1.5 0v.5c0 1.92-.01 2.702-.208 3.313a4.25 4.25 0 01-2.729 2.729c-.611.199-1.393.208-3.313.208h-1.5a.75.75 0 000 1.5h1.662c1.706 0 2.747 0 3.615-.282a5.75 5.75 0 003.692-3.691c.281-.868.281-1.909.281-3.615V14.5zM2 23a1 1 0 100-2 1 1 0 000 2zm-.75-9a.75.75 0 01.75-.75c4.767 0 8.75 4.03 8.75 8.75a.75.75 0 01-1.5 0c0-3.896-3.316-7.25-7.25-7.25a.75.75 0 01-.75-.75zM2 17.25a.75.75 0 000 1.5c1.758 0 3.25 1.508 3.25 3.25a.75.75 0 001.5 0c0-2.566-2.158-4.75-4.75-4.75z"/>
</svg>
