<svg xmlns="http://www.w3.org/2000/svg" width="24" height="24" fill="currentColor" viewBox="0 0 24 24">
  <path fill-rule="evenodd" d="M15 2.75c.953 0 1.356.002 1.685.045a5.25 5.25 0 014.52 4.52c.043.329.045.732.045 1.685v3.4c0 1.692 0 2.917-.08 3.88-.077.954-.228 1.585-.492 2.104a5.25 5.25 0 01-2.294 2.294c-.519.264-1.15.415-2.104.493-.963.078-2.188.079-3.88.079h-.8c-1.693 0-2.917 0-3.88-.08-.954-.077-1.585-.228-2.103-.492a5.25 5.25 0 01-2.295-2.294c-.264-.519-.415-1.15-.493-2.104-.078-.963-.079-2.188-.079-3.88V9c0-.953.002-1.356.045-1.685a5.25 5.25 0 014.52-4.52c.329-.043.732-.045 1.685-.045h.5a.75.75 0 100-1.5H8.93c-.862 0-1.372 0-1.811.058a6.75 6.75 0 00-5.811 5.81c-.058.44-.058.95-.058 1.812V12.434c0 1.651 0 2.937.084 3.968.086 1.047.262 1.897.652 2.662a6.75 6.75 0 002.95 2.95c.765.39 1.615.566 2.662.652 1.031.084 2.317.084 3.968.084H12.434c1.652 0 2.937 0 3.968-.084 1.047-.086 1.897-.262 2.662-.652a6.75 6.75 0 002.95-2.95c.39-.765.566-1.615.652-2.662.084-1.031.084-2.317.084-3.968V8.93c0-.862 0-1.372-.058-1.811a6.75 6.75 0 00-5.81-5.811c-.44-.058-.95-.058-1.812-.058H14.5a.75.75 0 000 1.5h.5zm-3 1.5a7.667 7.667 0 00-3.103.652.75.75 0 00.606 1.372A6.167 6.167 0 0112 5.75c3.445 0 6.25 2.823 6.25 6.32a.75.75 0 001.5 0c0-4.311-3.463-7.82-7.75-7.82zM7.001 8.276a.75.75 0 10-1.203-.895 7.836 7.836 0 00-1.548 4.69c0 3.779 2.657 6.937 6.2 7.664a.75.75 0 00.3-1.47c-2.848-.584-5-3.132-5-6.194 0-1.426.466-2.739 1.251-3.795zm11.713 7.703a.75.75 0 00-1.301-.746 6.264 6.264 0 01-4.164 3.032.75.75 0 10.302 1.47 7.763 7.763 0 005.163-3.756zM12 8.75a3.25 3.25 0 00-2.709 5.047.75.75 0 11-1.249.83A4.75 4.75 0 0112 7.25a.75.75 0 010 1.5zm2.108-.232a.75.75 0 011.059-.058 4.75 4.75 0 01-4.75 8.02.75.75 0 11.5-1.415 3.25 3.25 0 003.25-5.488.75.75 0 01-.06-1.059zM12.75 11a.75.75 0 00-1.5 0v2a.75.75 0 001.5 0v-2z"/>
</svg>
