<svg xmlns="http://www.w3.org/2000/svg" width="24" height="24" fill="currentColor" viewBox="0 0 24 24">
  <path fill-rule="evenodd" d="M19.47 2.47a.75.75 0 011.06 0l.172.171.037.037c.635.635 1.165 1.165 1.529 1.642.384.504.654 1.036.654 1.68 0 .644-.27 1.176-.654 1.68-.364.477-.894 1.007-1.53 1.642l-.036.037-4.172 4.171a.75.75 0 11-1.06-1.06l4.171-4.172c.682-.682 1.139-1.14 1.434-1.528.283-.37.347-.586.347-.77 0-.184-.064-.4-.347-.77-.24-.315-.587-.678-1.075-1.169l-6.47 6.47a.75.75 0 11-1.06-1.061l7-7zm-9.94 11a.75.75 0 010 1.06l-7 7a.75.75 0 01-1.06-1.06l7-7a.75.75 0 011.06 0zm.459-3.542a3.925 3.925 0 00.734-2.792c-.135-1.17-.758-2.283-1.667-3.192a6.878 6.878 0 00-.555-.498.75.75 0 00-.94 1.169c.148.119.293.249.434.39.731.73 1.15 1.546 1.238 2.303.084.733-.133 1.47-.794 2.131-.66.661-1.398.878-2.131.794-.757-.088-1.572-.507-2.303-1.238-.731-.73-1.15-1.546-1.238-2.303-.084-.733.133-1.47.794-2.131.251-.252.51-.436.77-.564a.75.75 0 00-.662-1.345A4.413 4.413 0 002.5 3.5c-.98.98-1.36 2.169-1.223 3.364.135 1.17.758 2.283 1.667 3.192.91.91 2.022 1.532 3.192 1.667a3.925 3.925 0 002.792-.734l1.742 1.741 5.5 5.5 3.3 3.3a.75.75 0 101.06-1.06l-3.3-3.3-5.5-5.5L9.99 9.928z"/>
</svg>
