<svg xmlns="http://www.w3.org/2000/svg" width="24" height="24" fill="currentColor" viewBox="0 0 24 24">
  <path fill-rule="evenodd" d="M7.757 2.254l-.061-.01c-1.228-.217-2.233-.394-3.02-.417-.817-.023-1.574.112-2.156.694-.582.582-.717 1.34-.694 2.156.023.787.2 1.792.417 3.02l.01.06.96 5.44.007.039c.215 1.217.386 2.185.601 2.953.222.789.508 1.435.994 1.978.302.338.65.63 1.036.87.62.384 1.305.553 2.121.634.793.079 1.776.079 3.012.079H11.404c.926 0 1.523 0 2.092-.142a4.748 4.748 0 001.288-.534c.504-.302.925-.724 1.58-1.379l.069-.069 3.596-3.596a.664.664 0 01.94.94l-5.5 5.5a.75.75 0 101.06 1.06l5.5-5.5a2.164 2.164 0 10-3.06-3.06l-3.597 3.596c-.747.747-1.034 1.027-1.36 1.222a3.252 3.252 0 01-.88.364c-.368.093-.769.098-1.825.098h-.283c-1.285 0-2.193-.001-2.904-.072-.696-.069-1.129-.2-1.478-.416a3.25 3.25 0 01-.71-.595c-.273-.306-.477-.71-.667-1.384-.193-.687-.351-1.582-.575-2.847l-.96-5.44c-.23-1.303-.385-2.198-.404-2.862a4.027 4.027 0 010-.247L6.97 8.03A.75.75 0 008.03 6.97L4.387 3.327c.075-.003.157-.003.246 0 .664.018 1.56.174 2.863.405l6.941 1.224c1.106.196 1.53.276 1.865.423a3.25 3.25 0 011.855 2.21c.087.357.092.788.092 1.91h.75l-.75.002v1a.75.75 0 001.5-.002V9.391c0-.977 0-1.602-.134-2.155a4.75 4.75 0 00-2.711-3.231c-.521-.229-1.137-.337-2.1-.507l-.106-.019-6.941-1.225zM11 9.75a1.25 1.25 0 100 2.5 1.25 1.25 0 000-2.5zM8.25 11a2.75 2.75 0 115.5 0 2.75 2.75 0 01-5.5 0z"/>
</svg>
