<svg xmlns="http://www.w3.org/2000/svg" width="24" height="24" fill="currentColor" viewBox="0 0 24 24">
  <path fill-rule="evenodd" d="M2.75 12A9.25 9.25 0 0112 2.75c1.88 0 3.628.56 5.087 1.523a.75.75 0 10.826-1.252A10.703 10.703 0 0012 1.25C6.063 1.25 1.25 6.063 1.25 12S6.063 22.75 12 22.75 22.75 17.937 22.75 12c0-1.739-.413-3.383-1.148-4.838a.75.75 0 10-1.339.676A9.209 9.209 0 0121.25 12a9.25 9.25 0 01-18.5 0zm13.78-2.47a.75.75 0 00-1.06-1.06L11 12.94l-1.47-1.47a.75.75 0 00-1.06 1.06l2 2a.75.75 0 001.06 0l5-5z"/>
</svg>
