<svg xmlns="http://www.w3.org/2000/svg" width="24" height="24" fill="currentColor" viewBox="0 0 24 24">
  <path fill-rule="evenodd" d="M12.59 2.46a3.25 3.25 0 00-1.18 0c-.534.1-1.072.412-1.91 1.16a.75.75 0 01-1-1.12c.892-.794 1.687-1.339 2.638-1.514a4.75 4.75 0 011.724 0c.785.145 1.46.54 2.17 1.115.691.562 1.477 1.347 2.468 2.339l.03.03.03.03c.992.992 1.778 1.777 2.339 2.469.575.709.97 1.384 1.115 2.17.105.57.105 1.153 0 1.723-.102.554-.329 1.054-.658 1.552a.75.75 0 01-1.251-.827c.246-.373.377-.686.434-.997.072-.39.072-.79 0-1.18-.08-.437-.307-.882-.805-1.496-.506-.624-1.236-1.355-2.264-2.384-1.029-1.028-1.76-1.758-2.384-2.264-.614-.498-1.059-.724-1.497-.805zM6.53 5.47a.75.75 0 010 1.06l-1 1c-.908.908-1.583 1.584-2.077 2.16.943-.11 1.869.107 2.744.492 1.327.586 2.629 1.6 3.82 2.526l.196.153c1.296 1.006 2.445 1.868 3.519 2.241.517.18.977.23 1.4.147.417-.082.863-.305 1.338-.78a.75.75 0 111.06 1.062l-2 2-.03.03c-.991.991-1.777 1.777-2.469 2.338-.709.575-1.384.97-2.17 1.116a4.753 4.753 0 01-1.723 0c-.785-.145-1.46-.54-2.17-1.116-.691-.561-1.477-1.347-2.468-2.338l-.03-.03-.03-.03c-.992-.992-1.778-1.778-2.339-2.47-.575-.709-.97-1.384-1.115-2.17a4.75 4.75 0 010-1.723c.145-.785.54-1.46 1.115-2.17.561-.691 1.347-1.477 2.339-2.468l.03-.03 1-1a.75.75 0 011.06 0zm-4.07 7.12a3.25 3.25 0 01-.03-.974c1.008-.63 2.022-.563 3.161-.061 1.153.508 2.32 1.416 3.567 2.385l.135.105c1.245.967 2.594 2.004 3.946 2.474.31.107.627.188.95.232-.884.882-1.537 1.524-2.103 1.983-.614.498-1.059.725-1.497.805-.39.072-.789.072-1.178 0-.438-.08-.883-.306-1.497-.805-.624-.506-1.355-1.236-2.384-2.264-1.028-1.029-1.758-1.76-2.264-2.384-.498-.614-.725-1.059-.805-1.496zm17.093 4.92c.095-.122.162-.209.224-.28a.862.862 0 01.131-.128.308.308 0 01.18-.002l.002.001.002.001.016.01c.02.017.056.05.115.119.062.07.129.157.224.28.436.56.803 1.27.803 2.045 0 .658-.199 1.078-.427 1.325-.23.25-.529.369-.823.369-.294 0-.593-.119-.823-.369-.228-.247-.427-.667-.427-1.325 0-.776.367-1.485.803-2.046zM20 15.592c-.391 0-.726.103-1.024.333-.23.178-.421.425-.578.627l-.03.038c-.537.692-1.118 1.721-1.118 2.966 0 .971.301 1.773.823 2.34.52.565 1.221.854 1.927.854s1.407-.289 1.927-.853c.522-.567.823-1.37.823-2.341 0-1.245-.581-2.274-1.119-2.966l-.029-.038c-.157-.202-.348-.449-.578-.627A1.606 1.606 0 0020 15.592z"/>
</svg>
