<svg xmlns="http://www.w3.org/2000/svg" width="24" height="24" fill="currentColor" viewBox="0 0 24 24">
  <path fill-rule="evenodd" d="M4.023 4.171C5.783 2.72 8.446 1.25 12 1.25c1.96 0 3.795.52 5.374 1.43a.75.75 0 01-.748 1.3A9.229 9.229 0 0012 2.75c-3.113 0-5.45 1.281-7.023 2.579-.604.498-1.092.997-1.464 1.421H5.5a.75.75 0 010 1.5H2a.75.75 0 01-.75-.75V4a.75.75 0 011.5 0v1.36c.355-.375.78-.782 1.273-1.189zM19.56 5.4a.75.75 0 011.05.15A10.725 10.725 0 0122.75 12a.75.75 0 01-1.5 0 9.226 9.226 0 00-1.84-5.55.75.75 0 01.15-1.05zM2 11.25a.75.75 0 01.75.75c0 2.084.688 4.004 1.85 5.55a.75.75 0 11-1.2.901A10.706 10.706 0 011.25 12a.75.75 0 01.75-.75zm14.75 5.25a.75.75 0 01.75-.75H21a.75.75 0 01.75.75V20a.75.75 0 01-1.5 0v-1.349c-.337.367-.732.764-1.183 1.162-1.63 1.436-4.05 2.937-7.067 2.937-1.957 0-3.794-.523-5.376-1.439a.75.75 0 01.752-1.298A9.204 9.204 0 0012 21.25c2.506 0 4.585-1.25 6.075-2.563a14.4 14.4 0 001.413-1.437H17.5a.75.75 0 01-.75-.75z"/>
</svg>
