<svg xmlns="http://www.w3.org/2000/svg" width="24" height="24" fill="currentColor" viewBox="0 0 24 24">
  <path fill-rule="evenodd" d="M4.023 4.171C5.783 2.72 8.446 1.25 12 1.25A10.73 10.73 0 0122.75 12c0 5.937-4.813 10.75-10.75 10.75-1.957 0-3.794-.523-5.376-1.439a.75.75 0 01.752-1.298A9.204 9.204 0 0012 21.25 9.25 9.25 0 0021.25 12 9.23 9.23 0 0012 2.75c-3.113 0-5.45 1.281-7.023 2.579-.604.498-1.092.997-1.464 1.421H5.5a.75.75 0 010 1.5H2a.75.75 0 01-.75-.75V4a.75.75 0 011.5 0v1.36c.355-.375.78-.782 1.273-1.189zM2 11.25a.75.75 0 01.75.75c0 2.083.688 4.004 1.849 5.55a.75.75 0 11-1.2.9A10.706 10.706 0 011.25 12a.75.75 0 01.75-.75z"/>
</svg>
