<svg xmlns="http://www.w3.org/2000/svg" width="24" height="24" fill="currentColor" viewBox="0 0 24 24">
  <path fill-rule="evenodd" d="M8.27 4.113c1.015-.61 1.73-1.037 2.327-1.318.583-.274.998-.38 1.403-.38.397 0 .804.102 1.368.364.58.269 1.27.679 2.246 1.264a.75.75 0 00.772-1.286c-.953-.572-1.72-1.03-2.386-1.339-.682-.316-1.311-.503-2-.503-.703 0-1.343.194-2.04.522-.675.317-1.454.785-2.428 1.369l-.034.02-2 1.2-.033.02c-.92.552-1.658.995-2.227 1.416-.588.435-1.043.88-1.372 1.462-.33.582-.477 1.2-.548 1.93-.068.703-.068 1.564-.068 2.638v1.016c0 1.074 0 1.934.068 2.639.07.728.219 1.347.548 1.928.33.582.784 1.027 1.372 1.463.569.42 1.306.863 2.227 1.416l.033.02 2 1.2.034.02c.974.584 1.753 1.052 2.427 1.369.698.328 1.338.522 2.04.522.704 0 1.344-.195 2.041-.522.675-.317 1.454-.785 2.428-1.37l.034-.02 2-1.2.032-.019c.921-.553 1.659-.995 2.227-1.416.588-.436 1.043-.881 1.372-1.463.33-.581.477-1.2.548-1.928.069-.705.069-1.565.069-2.639v-1.016c0-1.075 0-1.935-.069-2.639-.07-.728-.219-1.347-.548-1.929-.54-.954-1.44-1.565-2.742-2.361a.75.75 0 10-.782 1.28c1.34.82 1.897 1.252 2.219 1.82.19.336.301.728.36 1.335.06.624.062 1.41.062 2.531v.941c0 1.12-.001 1.908-.062 2.531-.059.607-.17 1-.36 1.335-.19.336-.47.634-.96.996-.503.373-1.177.779-2.138 1.355l-2 1.2c-1.016.61-1.73 1.037-2.328 1.318-.582.274-.997.38-1.402.38-.405 0-.82-.106-1.403-.38-.597-.28-1.312-.708-2.327-1.318l-2-1.2c-.961-.576-1.636-.982-2.14-1.355-.49-.363-.769-.66-.958-.996-.19-.335-.302-.728-.361-1.335-.06-.623-.061-1.41-.061-2.53v-.942c0-1.12 0-1.907.061-2.53.059-.608.17-1 .36-1.336.19-.335.47-.633.96-.996.503-.372 1.178-.778 2.139-1.354l2-1.2zM12 8.25a.75.75 0 000 1.5 2.25 2.25 0 11-2.122 1.5.75.75 0 10-1.414-.5A3.75 3.75 0 1012 8.25z"/>
</svg>
