<svg xmlns="http://www.w3.org/2000/svg" width="24" height="24" fill="currentColor" viewBox="0 0 24 24">
  <path fill-rule="evenodd" d="M2.75 12A9.25 9.25 0 0112 2.75c1.317 0 2.568.275 3.7.77a.75.75 0 00.6-1.375A10.717 10.717 0 0012 1.25C6.063 1.25 1.25 6.063 1.25 12S6.063 22.75 12 22.75 22.75 17.937 22.75 12c0-2.42-.8-4.655-2.15-6.451a.75.75 0 10-1.2.9A9.206 9.206 0 0121.25 12a9.25 9.25 0 01-18.5 0zm6 0c0-.084.003-.168.01-.25H12a.75.75 0 000-1.5H9.26a3.248 3.248 0 015.178-.4.75.75 0 001.124-.992 4.752 4.752 0 00-7.98 1.392H7a.75.75 0 000 1.5h.256a4.83 4.83 0 000 .5H7a.75.75 0 000 1.5h.583a4.752 4.752 0 007.98 1.392.75.75 0 00-1.125-.992 3.247 3.247 0 01-5.177-.4H11a.75.75 0 000-1.5H8.76a3.294 3.294 0 01-.01-.25z"/>
</svg>
