<svg xmlns="http://www.w3.org/2000/svg" width="24" height="24" fill="currentColor" viewBox="0 0 24 24">
  <path fill-rule="evenodd" d="M2.25 3A.75.75 0 013 2.25h7a.75.75 0 010 1.5H3A.75.75 0 012.25 3zm11 0a.75.75 0 01.75-.75h7a.75.75 0 010 1.5h-7a.75.75 0 01-.75-.75zm-11 18a.75.75 0 01.75-.75h7a.75.75 0 010 1.5H3a.75.75 0 01-.75-.75zm11 0a.75.75 0 01.75-.75h7a.75.75 0 010 1.5h-7a.75.75 0 01-.75-.75zm-.58-14.335a.75.75 0 00-1.34 0l-3 6-2 4a.75.75 0 101.34.67l1.616-3.23.129.066c.591.296 1.455.579 2.585.579a.75.75 0 000-1.5c-.87 0-1.506-.217-1.915-.42a3.326 3.326 0 01-.127-.068L12 8.677l2.33 4.658 2 4a.75.75 0 101.34-.67l-2-4-3-6z"/>
</svg>
