<svg xmlns="http://www.w3.org/2000/svg" width="24" height="24" fill="currentColor" viewBox="0 0 24 24">
  <path fill-rule="evenodd" d="M15 2.75c1.92 0 2.702.01 3.313.208a4.25 4.25 0 012.729 2.729c.199.611.208 1.393.208 3.313v5c0 1.412 0 2.427-.066 3.223-.064.787-.188 1.295-.397 1.707a4.25 4.25 0 01-1.857 1.857c-.412.21-.92.333-1.707.397-.796.065-1.81.066-3.223.066h-4c-1.412 0-2.427 0-3.223-.066-.787-.064-1.295-.188-1.706-.397a4.25 4.25 0 01-1.858-1.857c-.21-.412-.333-.92-.397-1.707-.065-.796-.066-1.81-.066-3.223V9c0-1.92.01-2.702.208-3.313a4.25 4.25 0 012.729-2.729C6.298 2.759 7.08 2.75 9 2.75h.5a.75.75 0 100-1.5h-.662c-1.706 0-2.747 0-3.615.281a5.75 5.75 0 00-3.692 3.692c-.281.868-.281 1.909-.281 3.615v5.196c0 1.371 0 2.447.07 3.311.073.88.221 1.607.557 2.265a5.75 5.75 0 002.513 2.513c.658.336 1.385.485 2.265.556.864.071 1.94.071 3.311.071h4.068c1.371 0 2.447 0 3.311-.07.88-.072 1.607-.221 2.265-.557a5.75 5.75 0 002.513-2.513c.336-.658.485-1.385.556-2.265.071-.864.071-1.94.071-3.311V8.838c0-1.706 0-2.747-.281-3.615a5.75 5.75 0 00-3.692-3.692c-.868-.281-1.909-.281-3.615-.281H14.5a.75.75 0 000 1.5h.5zm-3.5 6.5c-2.51 0-4.088 1.13-5.02 2.277a6.785 6.785 0 00-1.14 2.066 4.16 4.16 0 00-.061.201l-.004.015-.002.005v.003L6 14l-.728-.182a.75.75 0 001.455.367v-.002l.006-.02.03-.1a5.284 5.284 0 01.88-1.59c.695-.853 1.867-1.723 3.857-1.723 1.48 0 2.933.858 4.08 1.824.272.23.52.46.741.676H14a.75.75 0 000 1.5h4a.75.75 0 00.75-.75v-4a.75.75 0 00-1.5 0v2.061c-.214-.205-.45-.42-.704-.635-1.23-1.034-3.026-2.176-5.046-2.176zm-4.773 4.933z"/>
</svg>
