<svg xmlns="http://www.w3.org/2000/svg" width="24" height="24" fill="currentColor" viewBox="0 0 24 24">
  <path fill-rule="evenodd" d="M18.84 3.903a1.25 1.25 0 00-1.68 0 4.745 4.745 0 00-.13.127l-.307.307a1.903 1.903 0 001.94 1.94l.306-.307c.086-.086.11-.11.127-.13a1.25 1.25 0 000-1.68 4.649 4.649 0 00-.127-.13 4.645 4.645 0 00-.128-.127zm-1.448 3.644l-.922.922a.75.75 0 101.06 1.061l2.5-2.5.013-.012c.067-.068.119-.12.163-.168a2.75 2.75 0 000-3.7c-.044-.049-.096-.1-.163-.168l-.013-.012-.012-.013c-.068-.067-.12-.12-.168-.164a2.75 2.75 0 00-3.7 0c-.049.045-.1.097-.168.164l-.012.013-6.934 6.933-.073.073c-.709.708-1.166 1.166-1.485 1.729-.319.563-.475 1.19-.718 2.162l-.025.1-.463 1.851a.75.75 0 00.91.91l1.85-.463.1-.025c.973-.243 1.6-.4 2.163-.718.563-.32 1.02-.777 1.728-1.485l.074-.074 1.933-1.933a.75.75 0 10-1.06-1.06l-1.934 1.933c-.806.806-1.116 1.107-1.48 1.313-.364.206-.781.317-1.888.594l-.637.16.159-.638c.277-1.107.387-1.524.593-1.888.207-.364.507-.674 1.314-1.48l5.355-5.356a3.428 3.428 0 001.94 1.94zM3.25 21a.75.75 0 01.75-.75h9a.75.75 0 010 1.5H4a.75.75 0 01-.75-.75zm13 0a.75.75 0 01.75-.75h3a.75.75 0 010 1.5h-3a.75.75 0 01-.75-.75z"/>
</svg>
