<svg xmlns="http://www.w3.org/2000/svg" width="24" height="24" fill="currentColor" viewBox="0 0 24 24">
  <path fill-rule="evenodd" d="M17.563 3.58c.834-.197 1.384-.325 1.796-.363.394-.037.518.024.584.072l.045.035c.061.053.15.16.204.552.056.41.058.974.058 1.832 0 .555-.001.908-.032 1.174-.028.248-.075.338-.114.392a.697.697 0 01-.026.033c-.043.051-.119.118-.352.206-.25.094-.593.18-1.132.316l-6.776 1.694a.75.75 0 00.364 1.455l6.776-1.694.038-.01c.49-.122.916-.229 1.257-.357.367-.138.71-.326.98-.654a2.23 2.23 0 00.079-.1c.252-.343.352-.72.397-1.11.041-.362.041-.802.041-1.306v-.093c0-.789 0-1.458-.073-1.983-.076-.555-.25-1.09-.714-1.486a2.258 2.258 0 00-.135-.107c-.491-.36-1.052-.407-1.61-.355-.527.05-1.179.203-1.947.384l-.052.012-6.078 1.43-.041.01c-.52.122-.973.229-1.334.361-.39.143-.75.341-1.03.695-.28.353-.39.75-.44 1.161-.046.382-.046.848-.046 1.381V19A2.25 2.25 0 116 16.75a.75.75 0 000-1.5 3.75 3.75 0 103.75 3.753V7.2c0-.589.001-.963.035-1.244.032-.261.083-.354.127-.41.044-.056.123-.127.37-.217.265-.098.63-.185 1.203-.32l6.078-1.43z"/>
</svg>
