<svg xmlns="http://www.w3.org/2000/svg" width="24" height="24" fill="currentColor" viewBox="0 0 24 24">
  <path fill-rule="evenodd" d="M9.697 2.819c-.25-.064-.539-.07-1.38-.07h-.755c-1.22 0-2.071.002-2.722.077-.635.074-.983.209-1.239.411a2.25 2.25 0 00-.363.364c-.203.256-.338.604-.412 1.239-.075.65-.076 1.502-.076 2.722V9a.75.75 0 01-1.5 0V7.516c0-1.163 0-2.101.086-2.848.09-.773.28-1.435.727-2a3.75 3.75 0 01.606-.606c.564-.447 1.226-.637 1.999-.726.747-.086 1.685-.086 2.848-.086h.896c.71 0 1.199 0 1.653.114a3.75 3.75 0 011.922 1.188c.305.355.524.792.841 1.427l.043.086c.257.513.331.65.418.75.168.196.392.334.64.397.13.032.285.038.86.038H15.15c.98 0 1.807 0 2.506.033L21.47 1.47a.75.75 0 111.06 1.06l-4.05 4.051-16.95 16.95A.75.75 0 11.47 22.47l1.694-1.695c-.423-.64-.642-1.4-.76-2.286-.154-1.14-.154-2.595-.154-4.433V13a.75.75 0 011.5 0v1c0 1.907.002 3.261.14 4.29.08.591.2 1.036.372 1.387L16.188 6.752c-.326-.002-.68-.002-1.063-.002H14.709c-.456 0-.813 0-1.147-.084a2.75 2.75 0 01-1.41-.871c-.224-.26-.383-.58-.587-.987l-.036-.073c-.376-.752-.51-1.009-.679-1.204a2.25 2.25 0 00-1.153-.712zm11.281 4.407a.75.75 0 011.035.232c.353.558.53 1.18.623 1.906.093.715.11 1.578.113 2.633a.75.75 0 01-1.5.006c-.004-1.064-.022-1.838-.1-2.447-.077-.597-.207-.985-.403-1.295a.75.75 0 01.232-1.035zm1.024 8.024a.75.75 0 01.74.76c-.036 2.428-.193 4.159-1.383 5.349-.749.748-1.698 1.08-2.87 1.238-1.14.153-2.595.153-4.433.153H7a.75.75 0 010-1.5H14c1.907 0 3.262-.002 4.29-.14 1.005-.135 1.585-.389 2.008-.812.696-.696.907-1.777.943-4.309a.75.75 0 01.761-.739z"/>
</svg>
