<svg xmlns="http://www.w3.org/2000/svg" width="24" height="24" fill="currentColor" viewBox="0 0 24 24">
  <path fill-rule="evenodd" d="M1.25 12A10.73 10.73 0 0112 1.25c3.556 0 6.22 1.485 7.98 2.952.492.41.915.82 1.27 1.198V2.556a.75.75 0 011.5 0v5a.75.75 0 01-1.393.386l-.004-.007a9.953 9.953 0 00-.563-.779 12.685 12.685 0 00-1.77-1.802C17.447 4.043 15.11 2.75 12 2.75A9.23 9.23 0 002.75 12 9.25 9.25 0 0012 21.25c1.686 0 3.265-.45 4.625-1.237a.75.75 0 11.75 1.298A10.704 10.704 0 0112 22.75C6.063 22.75 1.25 17.937 1.25 12zM22 11.25a.75.75 0 01.75.75c0 2.42-.8 4.654-2.15 6.45a.75.75 0 01-1.199-.9A9.206 9.206 0 0021.25 12a.75.75 0 01.75-.75zm-13-3a.75.75 0 01.75.75v6a.75.75 0 01-1.5 0V9A.75.75 0 019 8.25zm3 0a.75.75 0 00-.75.75v3c0 .414.336.75.75.75h2.25v1.5H12a.75.75 0 000 1.5h3a.75.75 0 00.75-.75v-3a.75.75 0 00-.75-.75h-2.25v-1.5H15a.75.75 0 000-1.5h-3z"/>
</svg>
