<svg xmlns="http://www.w3.org/2000/svg" width="24" height="24" fill="currentColor" viewBox="0 0 24 24">
  <path fill-rule="evenodd" d="M11.25 2a.75.75 0 01.75-.75c5.937 0 10.75 4.813 10.75 10.75 0 4.815-3.165 8.888-7.525 10.258a.75.75 0 11-.45-1.431A9.25 9.25 0 0012.75 2.78v2.553a.75.75 0 01-1.5 0V2zM5.46 4.399a.75.75 0 010 1.06 9.254 9.254 0 003.765 15.367.75.75 0 11-.45 1.432C4.415 20.888 1.25 16.815 1.25 12c0-2.968 1.204-5.657 3.149-7.601a.75.75 0 011.06 0zm2.676 3.737a.75.75 0 011.061 0l3.333 3.334a.75.75 0 11-1.06 1.06L8.136 9.197a.75.75 0 010-1.06z"/>
</svg>
