<svg xmlns="http://www.w3.org/2000/svg" width="24" height="24" fill="currentColor" viewBox="0 0 24 24">
  <path fill-rule="evenodd" d="M14.136 1.462l-.05-.01c-.375-.075-.747-.15-1.072-.156-.39-.008-.772.082-1.122.368-.37.303-.522.693-.586 1.086-.056.341-.056.758-.056 1.199V5a.75.75 0 001.5 0V4c0-.51.002-.802.036-1.008a.536.536 0 01.04-.147.05.05 0 01.016-.02l.004-.003c.014-.013.032-.029.141-.027.171.003.407.048.852.138a9.262 9.262 0 017.228 7.228c.09.445.135.68.138.852.002.109-.014.127-.027.141l-.003.004a.049.049 0 01-.02.017.536.536 0 01-.147.04c-.206.033-.497.035-1.008.035h-5.5c-.5 0-.641-.004-.744-.024a1.25 1.25 0 01-.982-.982c-.02-.102-.024-.243-.024-.744V9a.75.75 0 00-1.5 0v.573c0 .393 0 .696.053.964a2.75 2.75 0 002.16 2.16c.268.054.571.053.964.053H20.05c.44 0 .858 0 1.2-.056.392-.064.782-.216 1.085-.586.287-.35.376-.732.369-1.122-.006-.325-.081-.697-.157-1.071l-.01-.05a10.762 10.762 0 00-8.402-8.403zM9.225 3.174a.75.75 0 10-.45-1.431C4.415 3.113 1.25 7.186 1.25 12c0 5.937 4.813 10.75 10.75 10.75 4.815 0 8.888-3.164 10.258-7.525a.75.75 0 10-1.431-.45A9.254 9.254 0 0112 21.25 9.25 9.25 0 012.75 12a9.254 9.254 0 016.475-8.826z"/>
</svg>
