<svg xmlns="http://www.w3.org/2000/svg" width="24" height="24" fill="currentColor" viewBox="0 0 24 24">
  <path fill-rule="evenodd" d="M10.866 1.024a2.75 2.75 0 00-1.732 0 2.792 2.792 0 00-.79.435c-.237.176-.507.407-.828.682l-.019.017c-.546.468-.7.588-.853.653a1.25 1.25 0 01-.623.09c-.165-.017-.346-.088-1.004-.38L2.305 1.314A.75.75 0 001.25 2v13.633c0 1.092 0 1.958.057 2.655.058.714.18 1.317.46 1.869a4.75 4.75 0 002.077 2.075c.55.281 1.154.403 1.868.461.697.057 1.563.057 2.655.057H15a.75.75 0 000-1.5H8.4c-1.132 0-1.937 0-2.566-.052-.62-.05-1.005-.147-1.31-.302a3.25 3.25 0 01-1.42-1.42c-.155-.305-.251-.69-.302-1.31-.051-.63-.052-1.433-.052-2.566V3.154l1.658.737.093.041c.52.232.928.414 1.356.46a2.75 2.75 0 001.371-.2c.397-.167.736-.458 1.168-.83l.077-.065c.345-.296.576-.493.765-.634.183-.136.288-.189.369-.215a1.25 1.25 0 01.787 0c.08.026.185.08.368.215.19.14.42.338.765.634l.077.065c.432.372.771.663 1.168.83a2.75 2.75 0 001.37.2c.429-.046.837-.228 1.357-.46l.093-.041 1.658-.737V20a2.75 2.75 0 105.5 0v-4.83c0-.535 0-.98-.03-1.345-.03-.38-.098-.736-.27-1.073a2.751 2.751 0 00-1.201-1.202c-.338-.172-.694-.24-1.074-.27-.365-.03-.81-.03-1.345-.03h-.08V2a.75.75 0 00-1.055-.685L14.983 2.52c-.658.293-.839.364-1.004.382a1.25 1.25 0 01-.623-.091c-.154-.065-.306-.185-.853-.653l-.02-.017c-.32-.275-.59-.506-.826-.682a2.792 2.792 0 00-.791-.435zM10.75 9v.25H12a.75.75 0 010 1.5H9.5a.75.75 0 000 1.5h1a2.25 2.25 0 01.25 4.486V17a.75.75 0 01-1.5 0v-.25H8a.75.75 0 010-1.5h2.5a.75.75 0 000-1.5h-1a2.25 2.25 0 01-.25-4.486V9a.75.75 0 011.5 0zm8.05 3.75c.572 0 .957 0 1.252.025.288.023.425.065.515.111.236.12.427.311.547.546.046.091.088.228.111.515.024.296.025.68.025 1.253V20a1.25 1.25 0 11-2.5 0v-7.25h.05z"/>
</svg>
