<svg xmlns="http://www.w3.org/2000/svg" width="24" height="24" fill="currentColor" viewBox="0 0 24 24">
  <path fill-rule="evenodd" d="M3 2.25a.75.75 0 000 1.5h10a.75.75 0 000-1.5H3zm14 0a.75.75 0 000 1.5h4a.75.75 0 000-1.5h-4zM2.25 9A.75.75 0 013 8.25h4a.75.75 0 010 1.5H3A.75.75 0 012.25 9zM21 9.75H11a.75.75 0 010-1.5h10a.75.75 0 010 1.5zm-18 4.5a.75.75 0 000 1.5h10a.75.75 0 000-1.5H3zm14 0a.75.75 0 000 1.5h4a.75.75 0 000-1.5h-4zm-14 6a.75.75 0 000 1.5h4a.75.75 0 000-1.5H3zm8 1.5h10a.75.75 0 000-1.5H11a.75.75 0 000 1.5z"/>
</svg>
