<svg xmlns="http://www.w3.org/2000/svg" width="24" height="24" fill="currentColor" viewBox="0 0 24 24">
  <path fill-rule="evenodd" d="M12 1.25A3.75 3.75 0 008.25 5v.216a7.787 7.787 0 00-3 2.973l-.962-.962C3.378 6.317 3.079 6 2.92 5.618c-.158-.381-.171-.816-.171-2.103V3a.75.75 0 00-1.5 0v.657c0 1.088 0 1.844.285 2.535.287.692.822 1.226 1.591 1.995l.101.1L4.47 9.53a.752.752 0 00.145.114A7.745 7.745 0 004.25 12v3c0 .223.01.443.028.662l-1.05 1.05-.102.101c-.77.769-1.304 1.303-1.59 1.995-.287.691-.287 1.447-.286 2.535V22a.75.75 0 001.5 0v-.515c0-1.287.013-1.722.171-2.103.158-.382.456-.699 1.367-1.609l.349-.35a7.754 7.754 0 002.934 3.938.75.75 0 00.858-1.23A6.229 6.229 0 015.75 15v-3.001a6.25 6.25 0 1112.501 0v3c0 2.524-1.496 4.7-3.652 5.686-.544.25-.829.373-1.055.414-.148.027-.257.018-.448-.105-.143-.091-.22-.19-.274-.453-.067-.327-.071-.782-.071-1.542v-4a.75.75 0 00-1.5 0v4.068c0 .669 0 1.28.102 1.776.118.576.385 1.062.932 1.413.498.32.99.416 1.524.32.437-.079.896-.29 1.353-.499l.06-.027a7.773 7.773 0 004.142-4.627l.35.349c.91.91 1.208 1.227 1.366 1.609.158.381.171.816.171 2.103V22a.75.75 0 001.5 0v-.657c0-1.088.001-1.844-.285-2.535-.287-.692-.822-1.226-1.591-1.995l-.101-.1-1.05-1.052c.018-.217.027-.438.027-.661v-3c0-.822-.128-1.613-.365-2.356a.754.754 0 00.145-.114l1.243-1.242.1-.101c.77-.769 1.305-1.303 1.592-1.995.286-.691.286-1.447.285-2.535V3a.75.75 0 00-1.5 0v.515c0 1.287-.013 1.722-.171 2.103-.158.382-.456.699-1.367 1.609l-.962.962a7.787 7.787 0 00-3-2.973V5A3.75 3.75 0 0012 1.25zm2.209 3.32a2.25 2.25 0 00-4.418 0c.7-.208 1.442-.32 2.209-.32.768 0 1.509.112 2.209.32z"/>
</svg>
