<svg xmlns="http://www.w3.org/2000/svg" width="24" height="24" fill="currentColor" viewBox="0 0 24 24">
  <path fill-rule="evenodd" d="M2.75 12A9.25 9.25 0 0112 2.75c1.317 0 2.568.275 3.7.77a.75.75 0 00.6-1.375A10.717 10.717 0 0012 1.25C6.063 1.25 1.25 6.063 1.25 12S6.063 22.75 12 22.75 22.75 17.937 22.75 12c0-2.42-.8-4.655-2.15-6.451a.75.75 0 10-1.2.9A9.206 9.206 0 0121.25 12a9.25 9.25 0 01-18.5 0zm4.25.25a.75.75 0 00-.716.974L7 13l-.716.224v.001l.001.002.002.005.004.013a3.546 3.546 0 00.069.193 8.016 8.016 0 001.143 2.024c.87 1.113 2.316 2.288 4.497 2.288s3.628-1.175 4.497-2.288a8.013 8.013 0 001.197-2.173l.012-.036.003-.008.004-.013.002-.005v-.002L17 13l.716.224A.75.75 0 0017 12.25H7zm1.685 2.288a6.329 6.329 0 01-.524-.788h7.678c-.14.247-.313.518-.524.788-.693.887-1.746 1.712-3.315 1.712s-2.622-.825-3.315-1.712zM10 9a1 1 0 11-2 0 1 1 0 012 0zm5 1a1 1 0 100-2 1 1 0 000 2z"/>
</svg>
