<svg xmlns="http://www.w3.org/2000/svg" width="24" height="24" fill="currentColor" viewBox="0 0 24 24">
  <path fill-rule="evenodd" d="M10.955 1.25h2.585c1.603 0 2.86 0 3.864.095 1.023.098 1.861.3 2.6.752a5.75 5.75 0 011.899 1.899c.452.738.654 1.577.752 2.6.095 1.004.095 2.261.095 3.865V11a.75.75 0 01-1.5 0v-.5c0-1.651 0-2.837-.089-3.762-.087-.914-.253-1.495-.537-1.959a4.25 4.25 0 00-1.403-1.403c-.464-.284-1.045-.45-1.96-.537-.924-.088-2.11-.089-3.761-.089H11c-1.892 0-3.25.001-4.302.115-1.038.112-1.688.328-2.196.697a4.25 4.25 0 00-.94.94c-.37.508-.585 1.158-.697 2.196C2.751 7.75 2.75 9.108 2.75 11c0 1.892.001 3.25.115 4.302.112 1.038.328 1.688.697 2.196.262.36.58.678.94.94.508.37 1.158.585 2.196.697 1.052.114 2.41.115 4.302.115h4.048c.565 0 .913 0 1.257.042a5.75 5.75 0 011.655.458c.317.141.615.32 1.1.611l.042.026c.45.27.754.451.99.572.24.123.33.138.355.14a.75.75 0 00.722-.409c.01-.022.044-.107.062-.376.019-.265.019-.62.019-1.143V16a.75.75 0 011.5 0v3.198c0 .49 0 .896-.022 1.218-.022.324-.07.656-.222.954a2.25 2.25 0 01-2.164 1.225c-.334-.023-.643-.153-.932-.3a19.443 19.443 0 01-1.056-.608l-.023-.014c-.54-.324-.758-.453-.983-.553a4.252 4.252 0 00-1.223-.34c-.244-.029-.497-.03-1.127-.03h-4.043c-1.837 0-3.276 0-4.419-.124-1.165-.126-2.11-.388-2.916-.974a5.75 5.75 0 01-1.272-1.272c-.586-.807-.848-1.75-.974-2.916-.124-1.143-.124-2.582-.124-4.419v-.09c0-1.837 0-3.276.124-4.419.126-1.165.388-2.11.974-2.916A5.75 5.75 0 013.62 2.348c.807-.586 1.75-.848 2.916-.974 1.143-.124 2.582-.124 4.419-.124z"/>
</svg>
