<svg xmlns="http://www.w3.org/2000/svg" width="24" height="24" fill="currentColor" viewBox="0 0 24 24">
  <path fill-rule="evenodd" d="M9.424 4.579c.743-.966 1.251-1.624 1.69-2.05.048-.046.093-.088.136-.126V7a.75.75 0 001.5 0V2.403c.043.038.088.08.136.126.439.426.947 1.084 1.69 2.05l4.243 5.516c.435.565.6.784.712.985a3.25 3.25 0 01-.227 3.504c-.137.185-.33.381-.834.886l-.5.5a.75.75 0 001.06 1.06l.5-.5.05-.049c.438-.439.719-.719.93-1.006a4.75 4.75 0 00.333-5.121c-.173-.313-.414-.627-.793-1.12l-.042-.054-4.243-5.516-.036-.047c-.698-.907-1.272-1.653-1.798-2.164C13.38.919 12.774.53 12 .53s-1.381.389-1.93.923c-.527.511-1.101 1.257-1.799 2.164l-.036.047-3.008 3.91-.025.033C4.427 8.615 3.811 9.416 3.38 10.11c-.443.713-.732 1.376-.799 2.116a4.75 4.75 0 00.095 1.466c.163.726.535 1.345 1.066 1.995.517.633 1.232 1.348 2.131 2.247l.029.028.079.08c.602.602 1.02 1.02 1.539 1.289.188.097.384.178.585.242.557.178 1.148.177 2 .177H16.5a.75.75 0 010 1.5H8a.75.75 0 000 1.5h8.5a2.25 2.25 0 100-4.5h-6.282c-1.008 0-1.35-.008-1.658-.106A2.252 2.252 0 018.21 18c-.286-.148-.534-.385-1.247-1.097-.934-.935-1.595-1.597-2.059-2.164-.455-.557-.671-.965-.763-1.373a3.25 3.25 0 01-.065-1.003c.038-.417.2-.85.58-1.46.386-.624.956-1.366 1.76-2.413l3.009-3.91zM12 10.75c-.69 0-1.25.56-1.25 1.25v.008A1.25 1.25 0 1012 10.75zm-.008 4a2.75 2.75 0 11.008 0h-.008z"/>
</svg>
