<svg xmlns="http://www.w3.org/2000/svg" width="24" height="24" fill="currentColor" viewBox="0 0 24 24">
  <path fill-rule="evenodd" d="M14.5 2.75c1.43 0 2.035.004 2.524.1a5.25 5.25 0 014.125 4.126c.097.489.101 1.094.101 2.524v.5a.75.75 0 001.5 0v-.605c0-1.294 0-2.059-.13-2.712a6.75 6.75 0 00-5.303-5.303c-.653-.13-1.418-.13-2.712-.13H11.566c-1.651 0-2.937 0-3.968.084-1.047.086-1.897.262-2.662.652a6.75 6.75 0 00-2.95 2.95c-.39.765-.566 1.615-.652 2.662-.084 1.031-.084 2.317-.084 3.968V12.434c0 1.651 0 2.937.084 3.968.086 1.047.262 1.897.652 2.662a6.75 6.75 0 002.95 2.95c.765.39 1.615.566 2.662.652 1.031.084 2.317.084 3.968.084H14.605c1.294 0 2.06 0 2.712-.13a6.75 6.75 0 005.303-5.303c.13-.653.13-1.418.13-2.712V14a.75.75 0 00-1.5 0v.5c0 1.43-.004 2.035-.1 2.524a5.25 5.25 0 01-4.126 4.125c-.489.097-1.094.101-2.524.101h-2.9c-1.693 0-2.917 0-3.88-.08-.954-.077-1.585-.228-2.103-.492a5.25 5.25 0 01-2.295-2.294c-.264-.519-.415-1.15-.493-2.104-.078-.963-.079-2.188-.079-3.88v-.8c0-1.693 0-2.917.08-3.88.077-.954.228-1.585.492-2.103a5.25 5.25 0 012.295-2.295c.518-.264 1.15-.415 2.103-.493.963-.078 2.187-.079 3.88-.079h2.9zM10 16.25a.75.75 0 000 1.5h4a.75.75 0 100-1.5h-4zm2-8.5c-1.708 0-3.007.473-3.906.973-.2.11-.28.158-.348.212a1.082 1.082 0 00-.221.26 1.557 1.557 0 00-.143.361 1.557 1.557 0 00-.07.382c.01.273.074.412.409 1.015l.02.037c.358.644.462.812.589.93.13.12.286.211.455.267.163.054.36.063 1.098.063h.716l-1.223-1.834a.75.75 0 111.248-.832l1.777 2.666h1.716c.737 0 .934-.009 1.098-.063.17-.056.324-.147.455-.268.127-.117.23-.285.589-.93l.02-.036c.335-.603.398-.742.408-1.015a1.552 1.552 0 00-.07-.382 1.558 1.558 0 00-.142-.36 1.083 1.083 0 00-.221-.26 2.535 2.535 0 00-.348-.213c-.9-.5-2.199-.973-3.906-.973zm.012 6h2.208c.584 0 1.043 0 1.466-.139a2.75 2.75 0 001-.589c.328-.302.55-.703.834-1.213l.05-.09.02-.037.034-.06c.296-.534.539-.969.562-1.63a2.9 2.9 0 00-.126-.848 2.904 2.904 0 00-.34-.786 2.555 2.555 0 00-.528-.593 3.69 3.69 0 00-.534-.34l-.023-.013C15.545 6.806 13.997 6.25 12 6.25c-1.997 0-3.545.556-4.635 1.162l-.024.013a3.692 3.692 0 00-.533.34c-.2.16-.363.348-.528.593a2.904 2.904 0 00-.34.786 2.904 2.904 0 00-.126.848c.023.661.265 1.096.562 1.63l.034.06.02.036.05.09c.283.511.506.912.833 1.214.288.266.63.466 1.001.59.423.139.882.139 1.466.138H11.99a.8.8 0 00.022 0z"/>
</svg>
