<svg xmlns="http://www.w3.org/2000/svg" width="24" height="24" fill="currentColor" viewBox="0 0 24 24">
  <path fill-rule="evenodd" d="M23.03.97a.75.75 0 010 1.06l-1.964 1.965L5.15 19.909l-2.62 2.621a.75.75 0 01-1.061-1.06l1.961-1.962a5.752 5.752 0 01-1.083-1.128c-.586-.807-.848-1.75-.974-2.916-.124-1.143-.124-2.582-.124-4.419v-.09c0-1.837 0-3.276.124-4.419.126-1.165.388-2.11.974-2.916l.607.441-.607-.44A5.75 5.75 0 013.62 2.347c.807-.586 1.75-.848 2.916-.974 1.143-.124 2.582-.124 4.419-.124h2.585c1.603 0 2.86 0 3.864.095 1.023.098 1.861.3 2.6.752.172.106.338.22.497.342L21.97.969a.75.75 0 011.06 0zm-3.602 2.542a4.214 4.214 0 00-.207-.136c-.464-.284-1.045-.45-1.96-.537-.924-.088-2.11-.089-3.761-.089H11c-1.892 0-3.25.001-4.302.115-1.038.112-1.688.328-2.196.697a4.25 4.25 0 00-.94.94c-.37.508-.585 1.158-.697 2.196C2.751 7.75 2.75 9.108 2.75 11c0 1.892.001 3.25.115 4.302.112 1.038.328 1.688.697 2.196.262.36.579.678.94.94L19.427 3.512zm2.454 2.74a.75.75 0 01.801.695c.067.94.067 2.094.067 3.526V11a.75.75 0 01-1.5 0v-.5c0-1.465 0-2.566-.063-3.447a.75.75 0 01.695-.801zM22 15.25a.75.75 0 01.75.75v3.198c0 .49 0 .896-.022 1.218-.022.324-.07.656-.222.954a2.25 2.25 0 01-2.164 1.225c-.334-.023-.643-.153-.932-.3a19.443 19.443 0 01-1.056-.608l-.023-.014c-.54-.324-.758-.453-.983-.553a4.251 4.251 0 00-1.223-.34c-.244-.029-.497-.03-1.127-.03-.715 0-1.434.003-2.154.006-1.448.006-2.904.011-4.353-.006a.75.75 0 11.018-1.5c1.438.017 2.872.012 4.312.006.724-.003 1.449-.006 2.177-.006h.05c.565 0 .913 0 1.257.042a5.75 5.75 0 011.655.458l-.306.685.306-.685c.317.141.616.32 1.1.612l.042.025c.45.27.754.451.99.572.24.123.33.138.355.14a.75.75 0 00.722-.409c.01-.022.044-.107.062-.376.019-.265.019-.62.019-1.143V16a.75.75 0 01.75-.75z"/>
</svg>
