<svg xmlns="http://www.w3.org/2000/svg" width="24" height="24" fill="currentColor" viewBox="0 0 24 24">
  <path fill-rule="evenodd" d="M12 1.25a.75.75 0 01.75.75v1.25H14A4.75 4.75 0 0118.75 8a.75.75 0 01-1.5 0A3.25 3.25 0 0014 4.75h-1.25v6.71l3.103 1.034a4.237 4.237 0 01-1.34 8.256H10A4.75 4.75 0 015.25 16a.75.75 0 011.5 0A3.25 3.25 0 0010 19.25h4.513a2.737 2.737 0 00.866-5.333l-2.629-.876V17a.75.75 0 01-1.5 0v-4.982V4.75H9.487a2.737 2.737 0 00-.866 5.333.75.75 0 11-.474 1.423 4.237 4.237 0 011.34-8.256h1.763V2a.75.75 0 01.75-.75z"/>
</svg>
