<svg xmlns="http://www.w3.org/2000/svg" width="24" height="24" fill="currentColor" viewBox="0 0 24 24">
  <path fill-rule="evenodd" d="M11.158 1.25h1.684c1.485 0 2.444 0 3.319.362.667.276 1.2.722 1.85 1.347a.75.75 0 01-1.04 1.082c-.63-.607-.993-.882-1.384-1.044-.565-.234-1.204-.247-2.9-.247h-1.373c-1.696 0-2.336.013-2.9.247-.566.235-1.027.677-2.227 1.876L4.874 6.187c-1.2 1.2-1.642 1.66-1.877 2.226-.234.565-.247 1.205-.247 2.9v1.373c0 1.697.013 2.336.247 2.9.235.566.677 1.027 1.877 2.227l1.313 1.314c1.2 1.199 1.661 1.642 2.226 1.876.565.234 1.205.247 2.9.247h1.373c1.697 0 2.336-.013 2.9-.247.566-.235 1.027-.677 2.227-1.877l1.314-1.313c1.199-1.2 1.642-1.66 1.876-2.226.234-.565.247-1.204.247-2.9v-1.373c0-1.696-.013-2.336-.247-2.9-.163-.394-.44-.758-1.052-1.394a.75.75 0 011.08-1.04c.63.654 1.08 1.189 1.358 1.86.362.874.361 1.833.361 3.318v1.684c0 1.485 0 2.444-.361 3.319-.363.875-1.041 1.553-2.091 2.602l-.11.11-1.314 1.314-.11.11c-1.05 1.05-1.728 1.73-2.603 2.091-.875.363-1.834.362-3.319.362h-1.684c-1.485 0-2.444 0-3.319-.362s-1.553-1.04-2.602-2.09l-.11-.11-1.314-1.314-.11-.11c-1.05-1.05-1.73-1.729-2.091-2.603-.363-.875-.362-1.834-.362-3.319v-1.684c0-1.485 0-2.444.362-3.319s1.04-1.553 2.09-2.602l.11-.11 1.315-1.314.11-.11c1.05-1.05 1.728-1.73 2.602-2.091.875-.363 1.834-.362 3.319-.362zm.842 6a.75.75 0 01.75.75v5a.75.75 0 01-1.5 0V8a.75.75 0 01.75-.75zM12 17a1 1 0 100-2 1 1 0 000 2z"/>
</svg>
