<svg xmlns="http://www.w3.org/2000/svg" width="24" height="24" fill="currentColor" viewBox="0 0 24 24">
  <path fill-rule="evenodd" d="M12 1.25h-.007c-1.123 0-2.123 0-3.01.02a.75.75 0 00-.733.75V18a.75.75 0 001.5 0v-5.25h4.5v8.492c-.68.008-1.426.008-2.25.008-1.13 0-2.115 0-2.983-.02-2.819-.064-4.146-.349-5.022-1.225-.57-.57-.897-1.34-1.069-2.618-.174-1.3-.176-3.009-.176-5.387 0-2.378.002-4.086.176-5.386.172-1.279.5-2.05 1.069-2.62l-.514-.513.514.514c.348-.348.765-.6 1.313-.784a.75.75 0 10-.476-1.422c-.738.247-1.364.612-1.898 1.145-.895.895-1.3 2.035-1.494 3.48-.19 1.411-.19 3.22-.19 5.529v.114c0 2.309 0 4.118.19 5.53.194 1.444.6 2.584 1.494 3.479 1.352 1.352 3.285 1.6 6.049 1.664.887.02 1.887.02 3.01.02h.014c1.123 0 2.123 0 3.01-.02 2.764-.063 4.697-.312 6.049-1.664.895-.895 1.3-2.035 1.494-3.48.19-1.411.19-3.22.19-5.528v-.05V12v-.058c0-2.308 0-4.117-.19-5.528-.194-1.445-.6-2.585-1.494-3.48-1.352-1.352-3.285-1.6-6.049-1.664-.887-.02-1.887-.02-3.01-.02H12zm9.25 10c-.002-1.994-.02-3.477-.176-4.636-.172-1.279-.5-2.05-1.069-2.62-.876-.875-2.203-1.16-5.022-1.224A136.7 136.7 0 0012 2.75c-.824 0-1.57 0-2.25.008v8.492h4.5V6a.75.75 0 011.5 0v5.25h5.5zm-5.5 1.5v8.455c2.301-.099 3.463-.407 4.255-1.2.57-.57.897-1.34 1.069-2.618.155-1.16.174-2.643.176-4.637h-5.5z"/>
</svg>
