<svg xmlns="http://www.w3.org/2000/svg" width="24" height="24" fill="currentColor" viewBox="0 0 24 24">
  <path fill-rule="evenodd" d="M10.098 1.25h-.034c-.67 0-1.22 0-1.663.04-.455.04-.882.127-1.264.358a2.75 2.75 0 00-1.203 1.54c-.132.427-.113.862-.041 1.314.036.227.089.48.155.763a5.195 5.195 0 00-4.798 5.18V14.527c0 1.141 0 2.036.05 2.759.05.735.153 1.347.388 1.913A5.75 5.75 0 004.8 22.312c.566.235 1.178.338 1.913.389.723.049 1.618.049 2.759.049H10a.75.75 0 000-1.5h-.5c-1.175 0-2.019 0-2.685-.046-.659-.045-1.089-.131-1.441-.277a4.25 4.25 0 01-2.3-2.3c-.147-.353-.233-.783-.278-1.442-.046-.666-.046-1.51-.046-2.685v-4.056A3.694 3.694 0 016.414 6.75l.252 1.008.034.133c.183.735.326 1.31.66 1.757a2.75 2.75 0 001.136.887c.515.216 1.108.216 1.865.215h3.278c.757 0 1.35.001 1.865-.215a2.75 2.75 0 001.136-.887c.334-.446.477-1.022.66-1.757l.034-.133.252-1.008a3.694 3.694 0 013.664 3.694V14.5c0 1.175 0 2.019-.046 2.685-.045.659-.131 1.089-.277 1.441a4.25 4.25 0 01-2.3 2.3c-.353.147-.783.233-1.442.278-.666.046-1.51.046-2.685.046H14a.75.75 0 000 1.5h.528c1.141 0 2.036 0 2.759-.05.735-.05 1.347-.153 1.913-.388a5.75 5.75 0 003.112-3.112c.235-.566.338-1.178.389-1.913.049-.723.049-1.618.049-2.76v-4.083a5.195 5.195 0 00-4.798-5.18c.066-.281.12-.535.155-.762.072-.452.09-.887-.041-1.314a2.75 2.75 0 00-1.203-1.54c-.382-.231-.809-.319-1.264-.359-.442-.039-.994-.039-1.663-.039H10.099zm3.63 4.932L12.96 9.25h.541c.963 0 1.223-.014 1.422-.098a1.25 1.25 0 00.516-.403c.129-.172.206-.42.44-1.355l.4-1.6c.172-.69.289-1.161.347-1.526.057-.36.04-.53.007-.637a1.25 1.25 0 00-.547-.7c-.096-.058-.257-.116-.62-.148-.367-.032-.852-.033-1.564-.033h-3.803c-.713 0-1.198 0-1.566.033-.362.032-.523.09-.62.148a1.25 1.25 0 00-.546.7c-.033.107-.05.277.007.637.058.365.175.835.348 1.526l.4 1.6c.233.934.31 1.183.439 1.355.133.178.311.317.516.403.199.084.459.098 1.421.098h.916l.858-3.432a.75.75 0 011.455.364zM10 16.25a.75.75 0 000 1.5h4a.75.75 0 100-1.5h-4z"/>
</svg>
