<svg xmlns="http://www.w3.org/2000/svg" width="24" height="24" fill="currentColor" viewBox="0 0 24 24">
  <path fill-rule="evenodd" d="M9.5 2.25h-.121c-1.279 0-2.058 0-2.721.159a5.75 5.75 0 00-4.25 4.249C2.25 7.32 2.25 8.1 2.25 9.378V10a.75.75 0 001.5 0v-.5c0-1.438.005-2.025.117-2.492a4.25 4.25 0 013.14-3.14c.468-.113 1.055-.118 2.493-.118h.5a.75.75 0 000-1.5h-.5zM3.75 14a.75.75 0 00-1.5 0v.621c0 1.279 0 2.059.159 2.721a5.75 5.75 0 004.249 4.25c.663.158 1.442.158 2.72.158h5.243c1.279 0 2.059 0 2.721-.159a5.75 5.75 0 004.25-4.249c.158-.662.158-1.442.158-2.72V14a.75.75 0 00-1.5 0v.5c0 1.438-.005 2.025-.117 2.492a4.25 4.25 0 01-3.14 3.14c-.468.113-1.055.118-2.493.118h-5c-1.438 0-2.025-.005-2.492-.117a4.25 4.25 0 01-3.14-3.14c-.113-.468-.118-1.055-.118-2.493V14zM15 2.25a.75.75 0 000 1.5h4.19l-2.72 2.72a.75.75 0 001.06 1.06l2.72-2.72V9a.75.75 0 001.5 0V3a.75.75 0 00-.75-.75h-6zm-2.47 10.28l2.5-2.5a.75.75 0 10-1.06-1.06l-2.5 2.5a.75.75 0 101.06 1.06z"/>
</svg>
