<svg xmlns="http://www.w3.org/2000/svg" width="24" height="24" fill="currentColor" viewBox="0 0 24 24">
  <path fill-rule="evenodd" d="M11.943 1.25h.114c2.309 0 4.118 0 5.53.19 1.444.194 2.584.6 3.479 1.494.199.2.376.413.533.643.245.359.436.75.585 1.175a.75.75 0 01-1.416.496 3.499 3.499 0 00-.408-.825 2.964 2.964 0 00-.355-.428c-.57-.57-1.34-.897-2.619-1.069-1.3-.174-3.008-.176-5.386-.176s-4.086.002-5.386.176c-1.279.172-2.05.5-2.62 1.069-.569.57-.896 1.34-1.068 2.619-.174 1.3-.176 3.008-.176 5.386s.002 4.086.176 5.386c.172 1.279.5 2.05 1.069 2.62.792.792 1.954 1.1 4.255 1.2V9.75H6a.75.75 0 010-1.5h16a.75.75 0 01.75.733c.013.584.009 1.226.005 1.91-.003.358-.005.728-.005 1.107v.057c0 2.309 0 4.118-.19 5.53-.194 1.444-.6 2.584-1.494 3.479-.895.895-2.035 1.3-3.48 1.494-1.411.19-3.22.19-5.529.19h-.064c-1.123 0-2.123 0-3.01-.02-2.764-.064-4.697-.312-6.049-1.664-.895-.895-1.3-2.035-1.494-3.48-.19-1.411-.19-3.22-.19-5.529v-.114c0-2.309 0-4.118.19-5.53.194-1.444.6-2.584 1.494-3.479.895-.895 2.035-1.3 3.48-1.494 1.411-.19 3.22-.19 5.529-.19zM9.75 9.75v11.492c.68.008 1.426.008 2.25.008 2.378 0 4.086-.002 5.386-.176 1.279-.172 2.05-.5 2.62-1.069.569-.57.896-1.34 1.068-2.619.174-1.3.176-3.008.176-5.386 0-.404.003-.785.005-1.147.002-.388.005-.754.004-1.103H9.75z"/>
</svg>
