<svg xmlns="http://www.w3.org/2000/svg" width="24" height="24" fill="currentColor" viewBox="0 0 24 24">
  <path fill-rule="evenodd" d="M7.945 2.25h.11c1.367 0 2.47 0 3.337.117.9.12 1.658.38 2.26.981.602.602.86 1.36.982 2.26.116.867.116 1.97.116 3.337V15.055c0 1.367 0 2.47-.117 3.337-.12.9-.38 1.658-.981 2.26-.602.602-1.36.86-2.26.982-.867.116-1.97.116-3.337.116h-.11c-1.367 0-2.47 0-3.337-.116-.9-.122-1.658-.38-2.26-.982-.602-.602-.86-1.36-.981-2.26-.117-.867-.117-1.97-.117-3.337V14a.75.75 0 011.5 0v1c0 1.435.002 2.436.103 3.192.099.734.28 1.122.556 1.399.277.277.665.457 1.4.556.754.101 1.756.103 3.191.103 1.435 0 2.437-.002 3.192-.103.734-.099 1.122-.28 1.399-.556.277-.277.457-.665.556-1.4.101-.755.103-1.756.103-3.191V9c0-1.435-.002-2.437-.103-3.192-.099-.734-.28-1.122-.556-1.399-.277-.277-.665-.457-1.4-.556C10.437 3.752 9.436 3.75 8 3.75c-1.435 0-2.437.002-3.192.103-.734.099-1.122.28-1.399.556-.277.277-.457.665-.556 1.4C2.752 6.562 2.75 7.564 2.75 9v1a.75.75 0 01-1.5 0V8.945c0-1.367 0-2.47.117-3.337.12-.9.38-1.658.981-2.26.602-.602 1.36-.86 2.26-.981.867-.117 1.97-.117 3.337-.117zM18 5.25a.75.75 0 01.75.75v12a.75.75 0 11-1.5 0V6a.75.75 0 01.75-.75zM22.75 9a.75.75 0 10-1.5 0v6a.75.75 0 001.5 0V9z"/>
</svg>
