<svg xmlns="http://www.w3.org/2000/svg" width="24" height="24" fill="currentColor" viewBox="0 0 24 24">
  <path fill-rule="evenodd" d="M7.776 6.913A14.176 14.176 0 0112 6.25c1.361 0 2.786.214 4.224.663 1.9.594 3.822 1.6 5.648 3.067l.049.039c.339.272.612.492.845.833.397.585.562 1.428.415 2.119-.087.405-.282.756-.528 1.198l-.04.074-.012.019c-.191.345-.351.633-.496.86-.15.238-.31.453-.518.634a2.75 2.75 0 01-2.398.619 2.844 2.844 0 01-.76-.304c-.237-.13-.516-.304-.851-.513l-.019-.011-.161-.102-.065-.04c-.367-.229-.656-.41-.889-.649a2.748 2.748 0 01-.64-1.056c-.105-.317-.132-.657-.165-1.088l-.006-.076-.195-2.477a.75.75 0 011.496-.118l.194 2.478c.043.542.06.688.1.811.06.18.159.344.291.48.09.093.212.175.674.463l.161.101c.359.224.6.375.794.48.19.104.29.14.36.155a1.25 1.25 0 001.09-.28c.054-.048.125-.129.24-.31.12-.187.258-.436.463-.805.306-.55.379-.697.413-.856a1.418 1.418 0 00-.189-.963c-.093-.137-.188-.22-.592-.546-1.687-1.355-3.442-2.268-5.157-2.804A12.677 12.677 0 0012 7.75c-1.204 0-2.479.19-3.776.595-1.715.536-3.47 1.45-5.157 2.804-.404.325-.499.41-.592.546-.167.246-.25.672-.189.963.034.159.107.306.413.856.205.37.344.618.462.804.116.182.187.263.24.31a1.25 1.25 0 001.09.281c.07-.015.172-.051.361-.154.194-.106.435-.257.794-.48l.161-.102c.462-.288.583-.37.674-.463.132-.136.232-.3.291-.48.04-.123.057-.269.1-.811l.194-2.478a.75.75 0 111.496.118l-.195 2.477-.006.076c-.033.431-.06.77-.164 1.088a2.75 2.75 0 01-.641 1.056c-.233.24-.522.42-.89.65l-.064.04-.161.1-.019.012c-.335.21-.614.384-.851.513-.246.135-.49.245-.76.304a2.75 2.75 0 01-2.398-.619 2.842 2.842 0 01-.518-.633c-.145-.228-.305-.516-.496-.861l-.011-.02-.041-.074c-.246-.441-.441-.792-.528-1.197a2.905 2.905 0 01.415-2.119c.233-.341.506-.561.846-.833l.048-.04c1.827-1.467 3.748-2.472 5.648-3.066z"/>
</svg>
