<svg xmlns="http://www.w3.org/2000/svg" width="24" height="24" fill="currentColor" viewBox="0 0 24 24">
  <path fill-rule="evenodd" d="M12.75 2a.75.75 0 00-1.5 0v4.25H7.964c-.904 0-1.633 0-2.222.053-.606.055-1.136.172-1.617.45a3.75 3.75 0 00-1.373 1.372c-.277.481-.394 1.011-.449 1.617-.053.589-.053 1.318-.053 2.222v.072c0 .904 0 1.633.053 2.222.055.606.172 1.136.45 1.617a3.75 3.75 0 001.372 1.373c.481.277 1.011.394 1.617.449.589.053 1.318.053 2.222.053h3.286V22a.75.75 0 001.5 0v-4.25h3.286c.904 0 1.633 0 2.222-.053.606-.055 1.136-.172 1.617-.45a3.75 3.75 0 001.373-1.372c.277-.481.394-1.011.449-1.617.053-.589.053-1.318.053-2.222V11.473c0-.676 0-1.222-.03-1.666-.031-.456-.097-.86-.255-1.242a3.75 3.75 0 00-2.03-2.03c-.382-.158-.786-.224-1.242-.255-.445-.03-.99-.03-1.666-.03H16a.75.75 0 000 1.5h.5c.71 0 1.203 0 1.59.027.38.026.602.074.771.144.551.229.99.667 1.218 1.218.07.169.118.39.144.77.027.387.027.882.027 1.591v.5c0 .948 0 1.61-.047 2.122-.046.502-.13.788-.254 1.003a2.251 2.251 0 01-.824.824c-.215.124-.5.208-1.003.254-.512.046-1.174.047-2.122.047H8c-.948 0-1.61 0-2.122-.047-.503-.046-.788-.13-1.003-.254a2.25 2.25 0 01-.824-.824c-.124-.215-.208-.5-.254-1.003-.046-.512-.047-1.174-.047-2.122s0-1.61.047-2.122c.046-.503.13-.788.254-1.003a2.25 2.25 0 01.824-.824c.215-.124.5-.208 1.003-.254C6.39 7.751 7.052 7.75 8 7.75h4a.75.75 0 00.75-.75V2z"/>
</svg>
