<svg xmlns="http://www.w3.org/2000/svg" width="24" height="24" fill="currentColor" viewBox="0 0 24 24">
  <path fill-rule="evenodd" d="M8 2.75a2.251 2.251 0 00-2.145 1.568c.829-.068 1.846-.068 3.103-.068h6.084c1.257 0 2.274 0 3.103.068A2.25 2.25 0 0016 2.75h-2a.75.75 0 010-1.5h2a3.75 3.75 0 013.73 3.36c.324.108.625.25.909.44.519.347.964.792 1.31 1.311.434.648.623 1.39.713 2.277.088.866.088 1.951.088 3.32v.084c0 1.369 0 2.454-.088 3.32-.09.888-.28 1.629-.712 2.277a4.753 4.753 0 01-1.311 1.31 3.77 3.77 0 01-.909.441A3.75 3.75 0 0116 22.75h-2a.75.75 0 010-1.5h2a2.25 2.25 0 002.145-1.568c-.829.068-1.846.068-3.103.068H8.958c-1.257 0-2.274 0-3.103-.068A2.251 2.251 0 008 21.25h2a.75.75 0 010 1.5H8a3.75 3.75 0 01-3.73-3.36 3.766 3.766 0 01-.909-.44 4.751 4.751 0 01-1.31-1.311c-.434-.648-.623-1.39-.713-2.277-.088-.866-.088-1.951-.088-3.32v-.084c0-1.369 0-2.454.088-3.32.09-.888.28-1.629.713-2.277a4.75 4.75 0 011.31-1.31c.284-.19.585-.333.909-.441A3.75 3.75 0 018 1.25h2a.75.75 0 010 1.5H8zM4.194 6.298c.361-.241.827-.39 1.596-.468.781-.08 1.79-.08 3.21-.08h6c1.42 0 2.429 0 3.21.08.77.079 1.235.227 1.596.468.354.237.66.542.896.896.241.361.39.827.468 1.596.08.781.08 1.79.08 3.21s0 2.429-.08 3.21c-.079.77-.227 1.235-.468 1.596-.237.354-.542.66-.896.896-.361.241-.827.39-1.596.468-.781.08-1.79.08-3.21.08H9c-1.42 0-2.429 0-3.21-.08-.77-.079-1.235-.227-1.596-.468a3.25 3.25 0 01-.896-.896c-.241-.361-.39-.827-.468-1.596-.08-.781-.08-1.79-.08-3.21s0-2.429.08-3.21c.079-.77.227-1.235.468-1.596a3.25 3.25 0 01.896-.896zm9.331 3.15l-.05-.032c-.641-.428-1.192-.796-1.651-1.012-.471-.223-1.063-.393-1.65-.078-.587.314-.774.9-.85 1.415-.074.502-.074 1.165-.074 1.937v.645c0 .771 0 1.434.074 1.936.076.515.263 1.101.85 1.415.587.315 1.179.145 1.65-.077.459-.217 1.01-.585 1.652-1.013l.05-.033.394-.263.046-.03c.525-.35.987-.658 1.31-.951.345-.311.671-.726.671-1.307s-.326-.996-.67-1.307c-.324-.293-.786-.6-1.311-.95l-.046-.031-.395-.263zm-2.67.208s.004-.002.013-.002l-.012.002zm.328.104a1.047 1.047 0 00-.297-.105c-.02.037-.051.124-.078.306-.056.378-.058.928-.058 1.776v.526c0 .848.002 1.398.058 1.776.027.182.059.269.078.306.042-.005.131-.026.297-.105.346-.163.805-.467 1.51-.937l.395-.263c.585-.39.952-.637 1.183-.846a.878.878 0 00.17-.189l.004-.005-.003-.005a.878.878 0 00-.171-.19c-.231-.208-.598-.455-1.183-.845l-.395-.263c-.705-.47-1.164-.774-1.51-.937zm-.327 4.584l.012.002c-.009 0-.013-.001-.012-.002zm.038.016c.007.005.01.009.01.01-.001 0-.004-.002-.01-.01zm0-4.72c.006-.008.009-.01.01-.01 0 .001-.003.005-.01.01z"/>
</svg>
