<svg xmlns="http://www.w3.org/2000/svg" width="24" height="24" fill="currentColor" viewBox="0 0 24 24">
  <path fill-rule="evenodd" d="M15.25 2a.75.75 0 01.75-.75h5a.75.75 0 01.636 1.147L17.353 9.25H21a.75.75 0 010 1.5h-5a.75.75 0 01-.636-1.148l4.283-6.852H16a.75.75 0 01-.75-.75zM7 2.25a.75.75 0 01.75.75v7a.75.75 0 01-1.5 0V3A.75.75 0 017 2.25zm0 11a.75.75 0 01.75.75v6.19l2.72-2.72a.75.75 0 111.06 1.06l-4 4A.75.75 0 016.25 22v-8a.75.75 0 01.75-.75zm-4.53 4.22a.75.75 0 011.06 0l1.5 1.5a.75.75 0 11-1.06 1.06l-1.5-1.5a.75.75 0 010-1.06zm16.03-4.22a3.25 3.25 0 00-3.25 3.25V22a.75.75 0 001.5 0v-2.25h3.5V22a.75.75 0 001.5 0v-5.5a3.25 3.25 0 00-3.25-3.25zm1.75 3.25v1.75h-3.5V16.5a1.75 1.75 0 113.5 0z"/>
</svg>
