<svg xmlns="http://www.w3.org/2000/svg" width="24" height="24" fill="currentColor" viewBox="0 0 24 24">
  <path fill-rule="evenodd" d="M16.685 2.795c-.329-.043-.732-.045-1.685-.045h-3.4c-1.693 0-2.917 0-3.88.08-.954.077-1.585.228-2.103.492a5.25 5.25 0 00-2.295 2.295c-.264.518-.415 1.15-.493 2.103-.078.963-.079 2.187-.079 3.88v.8c0 1.692 0 2.917.08 3.88.077.954.228 1.585.492 2.104a5.25 5.25 0 002.295 2.294c.518.264 1.15.415 2.103.493.963.078 2.187.079 3.88.079H15c.953 0 1.356-.002 1.685-.045a5.25 5.25 0 004.52-4.52c.043-.329.045-.732.045-1.685v-.5a.75.75 0 011.5 0V15.07c0 .862 0 1.372-.058 1.811a6.75 6.75 0 01-5.81 5.811c-.44.058-.95.058-1.812.058H11.566c-1.651 0-2.937 0-3.968-.084-1.047-.086-1.897-.262-2.662-.652a6.75 6.75 0 01-2.95-2.95c-.39-.765-.566-1.615-.652-2.662-.084-1.031-.084-2.317-.084-3.968V11.566c0-1.651 0-2.937.084-3.968.086-1.047.262-1.897.652-2.662a6.75 6.75 0 012.95-2.95c.765-.39 1.615-.566 2.662-.652 1.031-.084 2.317-.084 3.968-.084H15.07c.862 0 1.372 0 1.811.058a6.75 6.75 0 015.811 5.81c.058.44.058.95.058 1.812V9.5a.75.75 0 01-1.5 0V9c0-.953-.002-1.356-.045-1.685a5.25 5.25 0 00-4.52-4.52zM9 4.25a.75.75 0 01.75.75v13a.75.75 0 01-1.28.53l-3-3a.75.75 0 111.06-1.06l1.72 1.72V5A.75.75 0 019 4.25zm6.417.75a.75.75 0 00-1.263-.547l-1.667 1.562a.75.75 0 001.026 1.095l.404-.379V9.25h-.584a.75.75 0 000 1.5H16a.75.75 0 000-1.5h-.583V5zm-.37 11.683a1.25 1.25 0 01-.708.52c-.14.04-.337.047-1.039.047H13a.75.75 0 000 1.5H13.403c.55 0 .975 0 1.343-.103a2.75 2.75 0 001.9-1.9c.105-.37.104-.794.104-1.344V14.5a2.25 2.25 0 10-1.703 2.183zm.203-2.183a.75.75 0 11-1.5 0 .75.75 0 011.5 0z"/>
</svg>
