<svg xmlns="http://www.w3.org/2000/svg" width="24" height="24" fill="currentColor" viewBox="0 0 24 24">
  <path fill-rule="evenodd" d="M12.25 3a.75.75 0 01.75-.75h8a.75.75 0 010 1.5h-8a.75.75 0 01-.75-.75zm-6.3-.75h.1c.664 0 1.237 0 1.696.062.491.066.963.215 1.345.597s.531.854.597 1.345c.062.459.062 1.032.062 1.697v.099c0 .664 0 1.237-.062 1.696-.066.491-.215.963-.597 1.345s-.854.531-1.345.597c-.459.062-1.032.062-1.697.062H5.95c-.664 0-1.237 0-1.696-.062-.491-.066-.963-.215-1.345-.597s-.531-.854-.597-1.345c-.062-.459-.062-1.032-.062-1.697V5.95c0-.664 0-1.237.062-1.696.066-.491.215-.963.597-1.345s.854-.531 1.345-.597c.459-.062 1.032-.062 1.697-.062zM4.455 3.798c-.325.044-.427.115-.484.172-.057.057-.128.159-.172.484-.046.347-.048.818-.048 1.546 0 .728.002 1.2.048 1.546.044.325.115.427.172.484.057.057.159.128.484.172.347.046.818.048 1.546.048.728 0 1.2-.002 1.546-.048.325-.044.427-.115.484-.172.057-.057.128-.159.172-.484.046-.347.048-.818.048-1.546 0-.728-.002-1.2-.048-1.546-.044-.325-.115-.427-.172-.484-.057-.057-.159-.128-.484-.172C7.199 3.752 6.728 3.75 6 3.75c-.728 0-1.2.002-1.546.048zM13 8.25a.75.75 0 000 1.5h8a.75.75 0 000-1.5h-8zM2.25 21a.75.75 0 01.75-.75h3a.75.75 0 010 1.5H3a.75.75 0 01-.75-.75zm7 0a.75.75 0 01.75-.75h11a.75.75 0 010 1.5H10a.75.75 0 01-.75-.75zM3 14.25a.75.75 0 000 1.5h11a.75.75 0 000-1.5H3zm15 0a.75.75 0 000 1.5h3a.75.75 0 000-1.5h-3z"/>
</svg>
