<svg xmlns="http://www.w3.org/2000/svg" width="24" height="24" fill="currentColor" viewBox="0 0 24 24">
  <path fill-rule="evenodd" d="M11.578 2.4c-.253.169-.562.431-1.042.843l-.705.604-.07.06c-.347.298-.654.562-1.035.703-.382.141-.786.14-1.243.14h-.517c-.729 0-1.2.002-1.546.048-.326.044-.428.115-.485.172-.057.057-.127.159-.171.484-.047.347-.048.818-.048 1.546v.492c0 .453.001.854-.138 1.233-.139.378-.399.684-.692 1.029l-.06.07-.61.721c-.405.478-.663.784-.828 1.037-.153.234-.172.344-.172.418 0 .074.019.184.172.418.165.253.423.559.828 1.037l.61.72.06.071c.293.345.553.65.692 1.03.139.378.138.78.138 1.232V19a.75.75 0 01-1.5 0v-2.4c0-.598-.01-.712-.046-.808-.035-.096-.101-.19-.488-.646l-.61-.722-.03-.034c-.367-.434-.687-.811-.91-1.151C.894 12.873.717 12.476.717 12c0-.476.177-.873.417-1.239.222-.34.542-.717.91-1.152l.028-.033.611-.722c.387-.456.453-.55.488-.646.035-.096.046-.21.046-.808v-.45c0-.664 0-1.237.061-1.696.066-.492.216-.963.598-1.345s.853-.531 1.345-.597c.459-.062 1.032-.062 1.696-.062h.474c.603 0 .718-.01.815-.047.097-.035.192-.102.65-.495l.704-.604.034-.03c.437-.374.817-.699 1.159-.925C11.12.906 11.52.726 12 .726s.88.18 1.248.423c.342.226.722.551 1.159.926l.033.029 1.548 1.327a.75.75 0 01-.976 1.138l-1.548-1.326c-.48-.412-.789-.674-1.043-.842-.236-.156-.346-.175-.421-.175-.075 0-.185.019-.422.175zM20 4.25a.75.75 0 01.75.75v2.39c0 .603.01.718.047.815.035.097.102.192.495.65l.604.704.029.034c.374.437.7.817.926 1.159.243.368.423.768.423 1.248s-.18.88-.423 1.248c-.226.342-.552.722-.926 1.159l-.03.033-.603.706c-.393.457-.46.552-.495.649-.036.096-.047.212-.047.815v.44c0 .664 0 1.237-.062 1.696-.066.492-.215.963-.597 1.345s-.854.531-1.345.597c-.459.062-1.032.062-1.697.062h-.439c-.603 0-.719.01-.815.047-.097.035-.192.102-.65.495l-.705.604-.034.029c-.436.374-.816.7-1.158.926-.368.243-.768.423-1.248.423s-.88-.18-1.248-.423c-.342-.226-.722-.552-1.159-.926l-.034-.03-1.547-1.326a.75.75 0 11.976-1.139l1.548 1.327c.48.412.789.674 1.042.842.237.156.347.175.422.175.075 0 .185-.019.421-.175.254-.168.563-.43 1.043-.842l.705-.604.07-.06c.347-.298.654-.562 1.035-.703.382-.141.786-.14 1.243-.14H17c.728 0 1.199-.002 1.546-.048.325-.044.427-.115.484-.172.057-.057.128-.159.172-.484.046-.347.048-.818.048-1.546v-.483c0-.457-.001-.861.14-1.243.14-.381.405-.688.702-1.034l.06-.07.605-.706c.412-.48.674-.789.842-1.043.156-.236.175-.346.175-.421 0-.075-.019-.185-.175-.422-.168-.253-.43-.562-.842-1.042l-.604-.705-.06-.07c-.298-.347-.562-.654-.703-1.035-.141-.382-.14-.786-.14-1.243V5a.75.75 0 01.75-.75zm-8 3a.75.75 0 01.75.75v5a.75.75 0 01-1.5 0V8a.75.75 0 01.75-.75zM12 17a1 1 0 100-2 1 1 0 000 2z"/>
</svg>
