<svg xmlns="http://www.w3.org/2000/svg" width="24" height="24" fill="currentColor" viewBox="0 0 24 24">
  <path fill-rule="evenodd" d="M3.274 4.46c-.5.326-.524.525-.524.54v14c0 .037.036.22.402.525.342.285.86.579 1.507.843 1.068.437 2.381.754 3.591.85V8.727a13.249 13.249 0 01-2.436-.386.75.75 0 01.372-1.453c.886.226 1.853.363 2.814.363a.75.75 0 01.75.75v14a.75.75 0 01-.75.75c-1.606 0-3.452-.398-4.909-.993-.728-.298-1.397-.661-1.9-1.08-.477-.398-.941-.964-.941-1.677V5c0-.814.604-1.404 1.203-1.796.638-.416 1.501-.764 2.475-1.046C6.885 1.593 9.457 1.25 12 1.25s5.115.343 7.072.908c.974.282 1.838.63 2.475 1.046.599.392 1.203.982 1.203 1.796v14c0 .636-.318 1.19-.745 1.626-.429.439-1.017.814-1.697 1.12-1.364.614-3.223 1.004-5.308 1.004a.75.75 0 01-.75-.75v-5a.75.75 0 011.5 0v4.231c1.593-.08 2.958-.41 3.942-.852.57-.257.982-.537 1.24-.802.261-.266.318-.463.318-.577V7.151c-.281.186-.594.36-.931.518-1.195.56-2.777.971-4.569 1.062V12a.75.75 0 01-1.5 0V8a.75.75 0 01.75-.75c1.9 0 3.54-.404 4.681-.94.573-.268.993-.557 1.258-.821.279-.278.311-.448.311-.489 0-.015-.025-.214-.524-.54-.46-.301-1.165-.6-2.07-.86-1.8-.521-4.229-.85-6.656-.85-2.427 0-4.856.329-6.656.85-.905.26-1.61.559-2.07.86z"/>
</svg>
