<svg xmlns="http://www.w3.org/2000/svg" width="24" height="24" fill="currentColor" viewBox="0 0 24 24">
  <path fill-rule="evenodd" d="M12 1.25h-.042c-1.369 0-2.454 0-3.32.088-.888.09-1.629.28-2.277.713a4.75 4.75 0 00-1.31 1.31c-.378.565-.57 1.2-.673 1.94A3.751 3.751 0 001.25 9v1a.75.75 0 001.5 0V9a2.25 2.25 0 011.517-2.128 80.4 80.4 0 00-.017 2.086v6.084c0 .784 0 1.475.017 2.086A2.251 2.251 0 012.75 15v-1a.75.75 0 00-1.5 0v1a3.751 3.751 0 003.128 3.699c.103.74.295 1.375.673 1.94.346.519.791.964 1.31 1.31.648.434 1.39.623 2.277.713.866.088 1.951.088 3.32.088h.084c1.369 0 2.454 0 3.32-.088.888-.09 1.629-.28 2.277-.712a4.753 4.753 0 001.31-1.311c.378-.565.57-1.2.673-1.94A3.751 3.751 0 0022.75 15v-1a.75.75 0 00-1.5 0v1c0 .986-.634 1.824-1.517 2.128.017-.61.017-1.302.017-2.086V8.958c0-.784 0-1.475-.017-2.086A2.25 2.25 0 0121.25 9v1a.75.75 0 001.5 0V9a3.751 3.751 0 00-3.128-3.699c-.103-.74-.295-1.375-.672-1.94a4.751 4.751 0 00-1.311-1.31c-.648-.434-1.39-.623-2.277-.713-.866-.088-1.951-.088-3.32-.088H12zM7.194 3.298c.361-.241.827-.39 1.596-.468.781-.08 1.79-.08 3.21-.08s2.429 0 3.21.08c.77.079 1.235.227 1.596.468.354.237.66.542.896.896.241.361.39.827.468 1.596.08.781.08 1.79.08 3.21v6c0 1.42 0 2.429-.08 3.21-.079.77-.227 1.235-.468 1.596-.237.354-.542.66-.896.896-.361.241-.827.39-1.596.468-.781.08-1.79.08-3.21.08s-2.429 0-3.21-.08c-.77-.079-1.235-.227-1.596-.468a3.25 3.25 0 01-.896-.896c-.241-.361-.39-.827-.468-1.596-.08-.781-.08-1.79-.08-3.21V9c0-1.42 0-2.429.08-3.21.079-.77.227-1.235.468-1.596a3.25 3.25 0 01.896-.896zM9 6.25a.75.75 0 000 1.5h6a.75.75 0 000-1.5H9zM8.25 11a.75.75 0 01.75-.75h6a.75.75 0 010 1.5H9a.75.75 0 01-.75-.75zM9 14.25a.75.75 0 000 1.5h2a.75.75 0 000-1.5H9z"/>
</svg>
