<svg xmlns="http://www.w3.org/2000/svg" width="24" height="24" fill="currentColor" viewBox="0 0 24 24">
  <path fill-rule="evenodd" d="M18.53.47a.75.75 0 10-1.06 1.06l1.72 1.72H14a.75.75 0 000 1.5h5.19l-1.72 1.72a.75.75 0 001.06 1.06l3-3a.75.75 0 000-1.06l-3-3zM8.5 3.25h-.045c-1.135 0-2.05 0-2.779.082-.754.085-1.403.266-1.959.693-.26.2-.493.432-.692.692-.427.556-.608 1.205-.693 1.96-.082.729-.082 1.643-.082 2.778V10a.75.75 0 001.5 0v-.5c0-1.19.001-2.02.073-2.656.07-.62.199-.962.392-1.214.12-.156.26-.295.415-.415.252-.193.594-.322 1.214-.392C6.48 4.75 7.31 4.75 8.5 4.75H10a.75.75 0 000-1.5H8.5zm4.287 5.057A.75.75 0 0113.25 9v6a.75.75 0 01-1.5 0v-4.19l-1.22 1.22a.75.75 0 01-1.06-1.06l2.5-2.5a.75.75 0 01.817-.163zM20.25 14a.75.75 0 011.5 0v.545c0 1.135 0 2.05-.082 2.779-.085.754-.266 1.403-.693 1.959-.2.26-.432.493-.692.692-.556.427-1.205.608-1.96.693-.729.082-1.643.082-2.778.082H14a.75.75 0 010-1.5h1.5c1.19 0 2.02-.001 2.656-.073.62-.07.962-.199 1.214-.392.156-.12.295-.26.415-.415.193-.252.322-.594.392-1.214.072-.636.073-1.466.073-2.656V14zM6.53 16.47a.75.75 0 010 1.06l-1.72 1.72H10a.75.75 0 010 1.5H4.81l1.72 1.72a.75.75 0 11-1.06 1.06l-3-3a.75.75 0 010-1.06l3-3a.75.75 0 011.06 0z"/>
</svg>
