<svg xmlns="http://www.w3.org/2000/svg" width="24" height="24" fill="currentColor" viewBox="0 0 24 24">
  <path fill-rule="evenodd" d="M6.5 1.25h-.027c-.676 0-1.222 0-1.666.03-.456.031-.86.097-1.242.255a3.75 3.75 0 00-2.03 2.03c-.158.382-.224.786-.255 1.242-.03.444-.03.99-.03 1.666V7a.75.75 0 101.5 0v-.5c0-.71 0-1.203.027-1.59.026-.38.074-.602.144-.771A2.25 2.25 0 014.14 2.921c.169-.07.39-.118.77-.144.387-.027.882-.027 1.591-.027H7a.75.75 0 000-1.5h-.5zm11 1.5c.71 0 1.203 0 1.59.027.38.026.602.074.771.144.551.229.99.667 1.218 1.218.07.169.118.39.144.77.027.387.027.882.027 1.59V7a.75.75 0 101.5 0v-.5H22h.75v-.027c0-.676 0-1.222-.03-1.666-.031-.456-.097-.86-.255-1.242a3.75 3.75 0 00-2.03-2.03c-.382-.158-.786-.224-1.242-.255-.445-.03-.99-.03-1.666-.03H17a.75.75 0 000 1.5h.5zM2.75 17a.75.75 0 00-1.5 0v.527c0 .676 0 1.221.03 1.665.031.457.097.86.255 1.243a3.75 3.75 0 002.03 2.03c.382.158.786.224 1.242.255.444.03.99.03 1.666.03H7a.75.75 0 000-1.5h-.5c-.71 0-1.204 0-1.59-.027-.38-.026-.602-.074-.771-.144A2.25 2.25 0 012.92 19.86c-.07-.169-.118-.39-.144-.77-.027-.388-.027-.882-.027-1.591V17zm20 0a.75.75 0 00-1.5 0v.5c0 .71 0 1.204-.027 1.59-.026.38-.074.602-.144.771a2.25 2.25 0 01-1.218 1.218c-.17.07-.39.118-.77.144-.388.027-.882.027-1.591.027H17a.75.75 0 000 1.5h.527c.676 0 1.221 0 1.665-.03.457-.031.86-.097 1.243-.255a3.75 3.75 0 002.03-2.03c.158-.382.224-.786.255-1.242.03-.444.03-.99.03-1.666V17.5H22h.75V17zM9.948 6.25H14.052c.898 0 1.648 0 2.242.08.628.084 1.195.27 1.65.725.456.456.642 1.023.726 1.65.08.595.08 1.345.08 2.243v2.104c0 .899 0 1.648-.08 2.242-.084.628-.27 1.195-.726 1.65-.455.456-1.022.642-1.65.726-.594.08-1.344.08-2.242.08H9.948c-.899 0-1.648 0-2.243-.08-.627-.084-1.194-.27-1.65-.726-.455-.455-.64-1.022-.725-1.65-.08-.594-.08-1.344-.08-2.242v-2.104c0-.899 0-1.648.08-2.242.084-.628.27-1.195.725-1.65.456-.456 1.023-.642 1.65-.726.595-.08 1.344-.08 2.243-.08zM14 11.75H6.75V13c0 .964.001 1.612.066 2.095.062.461.17.659.3.789.13.13.328.237.79.3.482.064 1.13.066 2.094.066h4c.964 0 1.611-.002 2.095-.067.46-.062.658-.169.789-.3.13-.13.237-.327.3-.788.064-.483.066-1.131.066-2.095v-2c0-.964-.002-1.612-.067-2.095-.062-.461-.169-.659-.3-.789-.13-.13-.327-.237-.788-.3-.483-.064-1.131-.066-2.095-.066h-4c-.964 0-1.612.002-2.095.067-.461.062-.659.169-.789.3-.13.13-.238.327-.3.788-.046.346-.06.776-.064 1.345H14a.75.75 0 010 1.5z"/>
</svg>
