<svg xmlns="http://www.w3.org/2000/svg" width="24" height="24" fill="currentColor" viewBox="0 0 24 24">
  <path fill-rule="evenodd" d="M12 1.25h-.067c-2.178 0-3.79 0-5.04.18a.75.75 0 10.214 1.484C8.237 2.752 9.74 2.75 12 2.75c1.883 0 3.245 0 4.312.097 1.057.096 1.75.281 2.313.606a5.25 5.25 0 011.922 1.922c.325.563.51 1.256.606 2.313.096 1.067.097 2.429.097 4.312 0 2.26-.002 3.763-.164 4.893a.75.75 0 001.484.214c.18-1.25.18-2.862.18-5.04V11.962c0-1.837 0-3.267-.104-4.41-.105-1.16-.322-2.098-.8-2.927a6.75 6.75 0 00-2.471-2.47c-.83-.48-1.767-.696-2.927-.801-1.143-.104-2.573-.104-4.41-.104H12zm-9.47.22a.75.75 0 00-1.06 1.06l1.256 1.257a6.75 6.75 0 00-.572.838c-.478.83-.695 1.767-.8 2.927-.104 1.143-.104 2.573-.104 4.41v.046c0 1.07 0 1.997.02 2.806v.047c.009.35.017.71.09 1.032.086.384.258.711.558 1.02.222.229.518.396.786.503.268.107.598.19.916.178.886-.034 1.42-.57 1.987-1.14l.095-.095c.682-.682 1.14-1.139 1.528-1.434.37-.283.586-.347.77-.347.184 0 .4.064.77.347.387.295.846.752 1.528 1.434l4.861 4.861c-.86.03-1.89.03-3.159.03-1.883 0-3.245 0-4.312-.097-1.057-.096-1.75-.281-2.313-.606a.75.75 0 10-.75 1.299c.83.479 1.767.695 2.927.8 1.143.104 2.573.104 4.41.104h.096c2.093 0 3.662 0 4.886-.157.937-.121 1.723-.339 2.431-.747a6.75 6.75 0 00.838-.572l1.257 1.256a.75.75 0 101.06-1.06l-1.757-1.758L4.288 3.227 2.53 1.47zm.923 3.905c.104-.18.219-.353.342-.519l15.349 15.349a5.257 5.257 0 01-.519.342c-.407.234-.882.396-1.513.504l-.082-.081-5.671-5.672-.037-.037c-.635-.635-1.165-1.165-1.642-1.529-.504-.384-1.036-.654-1.68-.654-.644 0-1.176.27-1.68.654-.477.364-1.007.894-1.642 1.53l-.037.036c-.72.72-.84.788-1.079.797a.873.873 0 01-.3-.072.867.867 0 01-.267-.155.567.567 0 01-.172-.304c-.036-.16-.044-.37-.054-.786-.019-.789-.019-1.7-.019-2.778 0-1.883 0-3.245.097-4.312.096-1.057.281-1.75.606-2.313zM14.75 8a1.25 1.25 0 112.5 0 1.25 1.25 0 01-2.5 0zM16 5.25a2.75 2.75 0 100 5.5 2.75 2.75 0 000-5.5z"/>
</svg>
