<svg xmlns="http://www.w3.org/2000/svg" width="24" height="24" fill="currentColor" viewBox="0 0 24 24">
  <path fill-rule="evenodd" d="M12 1.25c-3.223 0-5.637 1.346-7.23 2.674-.387.322-.727.645-1.02.948V3a.75.75 0 00-1.5 0v4c0 .414.336.75.75.75h3.5a.75.75 0 000-1.5H4.518c.318-.358.723-.766 1.212-1.174C7.137 3.904 9.223 2.75 12 2.75c2.83 0 5.13.94 6.72 2.53 1.59 1.59 2.53 3.89 2.53 6.72 0 1.008-.12 1.948-.344 2.811a.75.75 0 101.452.378c.258-.995.392-2.063.392-3.189 0-3.17-1.06-5.87-2.97-7.78-1.91-1.91-4.61-2.97-7.78-2.97zM2.75 12a.75.75 0 00-1.5 0c0 5.334 4.287 10.75 10.75 10.75 3.022 0 5.617-.963 7.509-2.709a.75.75 0 10-1.018-1.102C16.914 20.395 14.698 21.25 12 21.25c-5.537 0-9.25-4.643-9.25-9.25zm10-4a.75.75 0 00-1.5 0v4c0 .25.125.485.334.624l3 2a.75.75 0 10.832-1.248l-2.666-1.777V8z"/>
</svg>
