<svg xmlns="http://www.w3.org/2000/svg" width="24" height="24" fill="currentColor" viewBox="0 0 24 24">
  <path fill-rule="evenodd" d="M10.53 19.47l-1-1a.75.75 0 00-1.06 1.06l1 1a.75.75 0 101.06-1.06zm-2.06-15a.75.75 0 001.06 1.06l1.72-1.72V22a.75.75 0 001.28.53l3-3a.75.75 0 10-1.06-1.06l-1.72 1.72V2a.75.75 0 00-1.28-.53l-3 3zm6.06-1a.75.75 0 10-1.06 1.06l1 1a.75.75 0 101.06-1.06l-1-1zm3.94 6.06a.75.75 0 011.06-1.06l3 3a.75.75 0 01-.53 1.28h-7a.75.75 0 010-1.5h5.19l-1.72-1.72zm-14-1.06a.75.75 0 011.06 1.06l-1 1a.75.75 0 11-1.06-1.06l1-1zM2 11.25h7a.75.75 0 010 1.5H3.81l1.72 1.72a.75.75 0 11-1.06 1.06l-3-3A.75.75 0 012 11.25zm17.47 2.22a.75.75 0 111.06 1.06l-1 1a.75.75 0 11-1.06-1.06l1-1z"/>
</svg>
