<svg xmlns="http://www.w3.org/2000/svg" width="24" height="24" fill="currentColor" viewBox="0 0 24 24">
  <path fill-rule="evenodd" d="M18.313 2.958C17.702 2.759 16.92 2.75 15 2.75h-.5a.75.75 0 010-1.5h.662c1.706 0 2.747 0 3.615.281a5.75 5.75 0 013.692 3.692c.281.868.281 1.909.281 3.615v5.196c0 1.371 0 2.447-.07 3.311-.072.88-.221 1.607-.557 2.265a5.75 5.75 0 01-2.513 2.513c-.658.336-1.385.485-2.265.556-.864.071-1.94.071-3.311.071H9.966c-1.371 0-2.447 0-3.311-.07-.88-.072-1.607-.221-2.265-.557a5.75 5.75 0 01-2.513-2.513c-.336-.658-.484-1.385-.556-2.265-.071-.864-.071-1.94-.071-3.311V8.838c0-1.706 0-2.747.281-3.615a5.75 5.75 0 013.692-3.692c.868-.281 1.909-.281 3.615-.281H9.5a.75.75 0 010 1.5H9c-1.92 0-2.702.01-3.313.208a4.25 4.25 0 00-2.729 2.729C2.759 6.298 2.75 7.08 2.75 9v5c0 1.412 0 2.427.066 3.223.064.787.188 1.295.397 1.707a4.25 4.25 0 001.858 1.857c.411.21.919.333 1.706.397.796.065 1.81.066 3.223.066h4c1.412 0 2.427 0 3.223-.066.787-.064 1.295-.188 1.707-.397a4.25 4.25 0 001.857-1.857c.21-.412.333-.92.397-1.707.065-.796.066-1.81.066-3.223V9c0-1.92-.01-2.702-.208-3.313a4.25 4.25 0 00-2.729-2.729zM16.47 9.47a.75.75 0 011.06 0l2 2a.75.75 0 010 1.06l-2 2a.75.75 0 01-1.06-1.06l.72-.72H15a.75.75 0 010-1.5h2.19l-.72-.72a.75.75 0 010-1.06zm-10 0a.75.75 0 111.06 1.06l-.72.72H9a.75.75 0 010 1.5H6.81l.72.72a.75.75 0 01-1.06 1.06l-2-2a.75.75 0 010-1.06l2-2zm3-1.94a.75.75 0 010-1.06l2-2a.75.75 0 011.06 0l2 2a.75.75 0 11-1.06 1.06l-.72-.72V9a.75.75 0 01-1.5 0V6.81l-.72.72a.75.75 0 01-1.06 0zm0 10a.75.75 0 011.06-1.06l.72.72V15a.75.75 0 011.5 0v2.19l.72-.72a.75.75 0 011.06 1.06l-2 2a.75.75 0 01-1.06 0l-2-2z"/>
</svg>
