<svg xmlns="http://www.w3.org/2000/svg" width="24" height="24" fill="currentColor" viewBox="0 0 24 24">
  <path fill-rule="evenodd" d="M2.75 12A9.25 9.25 0 0112 2.75a.75.75 0 000-1.5C6.063 1.25 1.25 6.063 1.25 12c0 1.957.524 3.794 1.439 5.375a.75.75 0 101.298-.75A9.204 9.204 0 012.75 12zm20 0a.75.75 0 00-1.5 0A9.25 9.25 0 0112 21.25a9.204 9.204 0 01-4.624-1.237.75.75 0 10-.752 1.298A10.704 10.704 0 0012 22.75c5.937 0 10.75-4.813 10.75-10.75zm-6.5-10c0 .414.336.75.75.75h3.19l-7.72 7.72a.75.75 0 101.06 1.06l7.72-7.72V7a.75.75 0 001.5 0V2a.75.75 0 00-.75-.75h-5a.75.75 0 00-.75.75z"/>
</svg>
