<svg xmlns="http://www.w3.org/2000/svg" width="24" height="24" fill="currentColor" viewBox="0 0 24 24">
  <path fill-rule="evenodd" d="M2.75 6a3.25 3.25 0 116.5 0 3.25 3.25 0 01-6.5 0zM6 1.25a4.75 4.75 0 100 9.5 4.75 4.75 0 000-9.5zM14.75 6a3.25 3.25 0 014.063-3.148.75.75 0 10.374-1.452A4.75 4.75 0 1022.6 4.813a.75.75 0 10-1.452.374A3.25 3.25 0 1114.75 6zM18 14.75a3.25 3.25 0 100 6.5 3.25 3.25 0 000-6.5zM13.25 18a4.75 4.75 0 119.5 0 4.75 4.75 0 01-9.5 0zm-10.5 0a3.25 3.25 0 116.5 0 3.25 3.25 0 01-6.5 0zM6 13.25a4.75 4.75 0 100 9.5 4.75 4.75 0 000-9.5z"/>
</svg>
