<svg xmlns="http://www.w3.org/2000/svg" width="24" height="24" fill="currentColor" viewBox="0 0 24 24">
  <path fill-rule="evenodd" d="M1.25 4A.75.75 0 012 3.25h11a.75.75 0 010 1.5H2A.75.75 0 011.25 4zm14 0a.75.75 0 01.75-.75h4a.75.75 0 010 1.5h-4a.75.75 0 01-.75-.75zm-14 5A.75.75 0 012 8.25h14a.75.75 0 010 1.5H2A.75.75 0 011.25 9zM2 13.25a.75.75 0 000 1.5h2a.75.75 0 000-1.5H2zm5 0a.75.75 0 000 1.5h5a.75.75 0 000-1.5H7zM1.25 19a.75.75 0 01.75-.75h7a.75.75 0 010 1.5H2a.75.75 0 01-.75-.75zm18.5-5a.75.75 0 00-1.5 0v2.25H16a.75.75 0 000 1.5h2.25V20a.75.75 0 001.5 0v-2.25H22a.75.75 0 000-1.5h-2.25V14z"/>
</svg>
