<svg xmlns="http://www.w3.org/2000/svg" width="24" height="24" fill="currentColor" viewBox="0 0 24 24">
  <path fill-rule="evenodd" d="M15 2.75c1.92 0 2.702.01 3.313.208a4.25 4.25 0 012.729 2.729c.199.611.208 1.393.208 3.313v5c0 1.412 0 2.427-.066 3.223-.064.787-.188 1.295-.397 1.707a4.25 4.25 0 01-1.857 1.857c-.412.21-.92.333-1.707.397-.796.065-1.81.066-3.223.066h-4c-1.412 0-2.427 0-3.223-.066-.787-.064-1.295-.188-1.706-.397a4.25 4.25 0 01-1.858-1.857c-.21-.412-.333-.92-.397-1.707-.065-.796-.066-1.81-.066-3.223V9c0-1.92.01-2.702.208-3.313a4.25 4.25 0 012.729-2.729C6.298 2.759 7.08 2.75 9 2.75h.5a.75.75 0 100-1.5h-.662c-1.706 0-2.747 0-3.615.281a5.75 5.75 0 00-3.692 3.692c-.281.868-.281 1.909-.281 3.615v5.196c0 1.371 0 2.447.07 3.311.073.88.221 1.607.557 2.265a5.75 5.75 0 002.513 2.513c.658.336 1.385.485 2.265.556.864.071 1.94.071 3.311.071h4.068c1.371 0 2.447 0 3.311-.07.88-.072 1.607-.221 2.265-.557a5.75 5.75 0 002.513-2.513c.336-.658.485-1.385.556-2.265.071-.864.071-1.94.071-3.311V8.838c0-1.706 0-2.747-.281-3.615a5.75 5.75 0 00-3.692-3.692c-.868-.281-1.909-.281-3.615-.281H14.5a.75.75 0 000 1.5h.5zm-3 2.5A6.737 6.737 0 005.25 12a.75.75 0 001.5 0A5.237 5.237 0 0112 6.75c1.794 0 3 .667 3.762 1.32.07.06.137.12.2.18H15a.75.75 0 000 1.5h2.5a.75.75 0 00.75-.75V6.5a.75.75 0 00-1.5 0v.44l-.012-.01C15.75 6.084 14.206 5.25 12 5.25zM18.75 12a.75.75 0 00-1.5 0c0 2.9-2.35 5.25-5.25 5.25-1.427 0-2.642-.647-3.531-1.341a7.94 7.94 0 01-.197-.159H9a.75.75 0 000-1.5H6.5a.75.75 0 00-.75.75v2.5a.75.75 0 001.5 0v-.65c.094.08.193.16.296.241 1.033.806 2.567 1.659 4.454 1.659A6.75 6.75 0 0018.75 12z"/>
</svg>
