<svg xmlns="http://www.w3.org/2000/svg" width="24" height="24" fill="currentColor" viewBox="0 0 24 24">
  <path fill-rule="evenodd" d="M10.948 3.072c-.506.725-1.063 1.835-1.855 3.419l-3.615 7.23c-1.081 2.163-1.863 3.729-2.29 4.878-.214.573-.32.992-.343 1.296-.023.294.035.414.076.469.096.13.215.239.353.323.058.035.182.083.473.034.301-.05.709-.192 1.261-.455 1.107-.527 2.598-1.443 4.658-2.71l.027-.017c.41-.253.76-.467 1.065-.62.325-.163.649-.281 1.017-.311.15-.013.3-.013.45 0 .368.03.692.148 1.017.31.306.154.654.368 1.065.621l.027.016c2.06 1.268 3.55 2.184 4.658 2.711.552.264.96.405 1.26.455.292.049.416.002.475-.034a1.25 1.25 0 00.352-.323c.04-.055.099-.175.076-.469-.024-.304-.129-.723-.342-1.296-.428-1.15-1.21-2.715-2.291-4.879l-.193-.385a.75.75 0 011.342-.67l.192.385.024.048c1.053 2.105 1.872 3.743 2.332 4.978.231.622.392 1.194.431 1.703.04.52-.041 1.04-.365 1.477a2.75 2.75 0 01-.776.71c-.465.284-.989.32-1.503.235-.504-.085-1.06-.295-1.66-.58-1.188-.566-2.748-1.526-4.753-2.76l-.046-.028a14.376 14.376 0 00-.977-.573c-.227-.114-.359-.148-.468-.157a1.252 1.252 0 00-.204 0c-.11.009-.24.043-.468.157-.24.12-.533.3-.977.573l-.046.028c-2.005 1.234-3.565 2.194-4.754 2.76-.6.285-1.155.495-1.66.58-.513.085-1.037.05-1.502-.235a2.75 2.75 0 01-.776-.71c-.324-.438-.406-.957-.365-1.477.04-.51.2-1.08.431-1.703.46-1.235 1.279-2.873 2.332-4.978l.024-.048 3.615-7.23.03-.06c.755-1.51 1.36-2.72 1.936-3.546.58-.832 1.28-1.492 2.282-1.492s1.701.66 2.282 1.492c.576.825 1.181 2.036 1.937 3.546l.03.06 1.422 2.845a.75.75 0 11-1.342.67l-1.422-2.844c-.792-1.584-1.35-2.694-1.855-3.419-.509-.729-.817-.85-1.052-.85-.235 0-.543.121-1.052.85z"/>
</svg>
