<svg xmlns="http://www.w3.org/2000/svg" width="24" height="24" fill="currentColor" viewBox="0 0 24 24">
  <path fill-rule="evenodd" d="M2 3.25a.75.75 0 000 1.5h11a.75.75 0 000-1.5H2zm14 0a.75.75 0 000 1.5h4a.75.75 0 000-1.5h-4zM1.25 9A.75.75 0 012 8.25h14a.75.75 0 010 1.5H2A.75.75 0 011.25 9zm18.166 1.376A.75.75 0 0018.25 11v5.55a2.75 2.75 0 101.5 2.45v-6.599l1.834 1.223a.75.75 0 10.832-1.248l-3-2zM18.25 19a1.25 1.25 0 10-2.5 0 1.25 1.25 0 002.5 0zm-17-5a.75.75 0 01.75-.75h2a.75.75 0 010 1.5H2a.75.75 0 01-.75-.75zm5 0a.75.75 0 01.75-.75h5a.75.75 0 010 1.5H7a.75.75 0 01-.75-.75zM2 18.25a.75.75 0 000 1.5h7a.75.75 0 000-1.5H2z"/>
</svg>
