<svg xmlns="http://www.w3.org/2000/svg" width="24" height="24" fill="currentColor" viewBox="0 0 24 24">
  <path fill-rule="evenodd" d="M18.313 2.958C17.702 2.759 16.92 2.75 15 2.75h-5c-1.413 0-2.427 0-3.223.066-.787.064-1.295.188-1.706.397a4.25 4.25 0 00-1.858 1.858c-.21.411-.333.919-.397 1.706-.065.796-.066 1.81-.066 3.223v4c0 1.412 0 2.427.066 3.223.064.787.188 1.295.397 1.707a4.25 4.25 0 001.858 1.857c.411.21.919.333 1.706.397.796.065 1.81.066 3.223.066h5c1.92 0 2.702-.01 3.313-.208a4.25 4.25 0 002.729-2.729c.199-.611.208-1.393.208-3.313v-.5a.75.75 0 011.5 0v.662c0 1.706 0 2.747-.281 3.615a5.75 5.75 0 01-3.692 3.692c-.868.281-1.909.281-3.615.281H9.966c-1.371 0-2.447 0-3.311-.07-.88-.072-1.607-.221-2.265-.557a5.75 5.75 0 01-2.513-2.513c-.336-.658-.484-1.385-.556-2.265-.071-.864-.071-1.94-.071-3.311V9.966c0-1.371 0-2.447.07-3.311.073-.88.221-1.607.557-2.265A5.75 5.75 0 014.39 1.877c.658-.336 1.385-.484 2.265-.556.864-.071 1.94-.071 3.311-.071h5.196c1.706 0 2.747 0 3.615.281a5.75 5.75 0 013.692 3.692c.281.868.281 1.909.281 3.615V9.5a.75.75 0 01-1.5 0V9c0-1.92-.01-2.702-.208-3.313a4.25 4.25 0 00-2.729-2.729zM9.03 5.47a.75.75 0 010 1.06L7.81 7.75H14a.75.75 0 010 1.5H7.81l1.22 1.22a.75.75 0 01-1.06 1.06l-2.5-2.5a.75.75 0 010-1.06l2.5-2.5a.75.75 0 011.06 0zm5.94 8.06a.75.75 0 011.06-1.06l2.5 2.5a.75.75 0 010 1.06l-2.5 2.5a.75.75 0 11-1.06-1.06l1.22-1.22H10a.75.75 0 010-1.5h6.19l-1.22-1.22z"/>
</svg>
