<svg xmlns="http://www.w3.org/2000/svg" width="24" height="24" fill="currentColor" viewBox="0 0 24 24">
  <path fill-rule="evenodd" d="M10 1.25h-.034c-1.371 0-2.447 0-3.311.07-.88.073-1.607.221-2.265.557A5.75 5.75 0 001.877 4.39c-.336.658-.484 1.385-.556 2.265-.071.864-.071 1.94-.071 3.311v5.196c0 1.706 0 2.747.281 3.615a5.75 5.75 0 003.692 3.692c.868.281 1.909.281 3.615.281H9.5a.75.75 0 000-1.5H9c-1.92 0-2.702-.01-3.313-.208a4.25 4.25 0 01-2.729-2.729C2.759 17.702 2.75 16.92 2.75 15v-5c0-1.413 0-2.427.066-3.223.064-.787.188-1.295.397-1.706a4.25 4.25 0 011.858-1.858c.411-.21.919-.333 1.706-.397.796-.065 1.81-.066 3.223-.066h4c1.412 0 2.427 0 3.223.066.787.064 1.295.188 1.707.397a4.25 4.25 0 011.857 1.858c.21.411.333.919.397 1.706.065.796.066 1.81.066 3.223v5c0 1.92-.01 2.702-.208 3.313a4.25 4.25 0 01-2.729 2.729c-.611.199-1.393.208-3.313.208h-.5a.75.75 0 000 1.5h.662c1.706 0 2.747 0 3.615-.281a5.75 5.75 0 003.692-3.692c.281-.868.281-1.909.281-3.615V9.966c0-1.371 0-2.447-.07-3.311-.072-.88-.221-1.607-.557-2.265a5.75 5.75 0 00-2.513-2.513c-.658-.336-1.385-.484-2.265-.556-.864-.071-1.94-.071-3.311-.071H10zm4 6a.75.75 0 000 1.5h2.399l-2.556 3.066-.025.031a1.25 1.25 0 01-1.827.083l-.029-.028-.002-.003-.035-.034a2.75 2.75 0 00-3.85 0l-.035.034-.002.003L5.47 14.47a.75.75 0 101.06 1.06l2.568-2.568.027-.026a1.25 1.25 0 011.75 0l.027.026.003.003.037.037a2.75 2.75 0 004.018-.182l.033-.04.003-.003 2.254-2.705V12a.75.75 0 001.5 0V8a.75.75 0 00-.75-.75h-4z"/>
</svg>
