<svg xmlns="http://www.w3.org/2000/svg" width="24" height="24" fill="currentColor" viewBox="0 0 24 24">
  <path fill-rule="evenodd" d="M18.313 2.958C17.702 2.759 16.92 2.75 15 2.75h-5c-1.413 0-2.427 0-3.223.066-.787.064-1.295.188-1.706.397a4.25 4.25 0 00-1.858 1.858c-.21.411-.333.919-.397 1.706-.065.796-.066 1.81-.066 3.223v4c0 1.412 0 2.427.066 3.223.064.787.188 1.295.397 1.707a4.25 4.25 0 001.858 1.857c.411.21.919.333 1.706.397.796.065 1.81.066 3.223.066h5c1.92 0 2.702-.01 3.313-.208a4.25 4.25 0 002.729-2.729c.199-.611.208-1.393.208-3.313v-.5a.75.75 0 011.5 0v.662c0 1.706 0 2.747-.281 3.615a5.75 5.75 0 01-3.692 3.692c-.868.281-1.909.281-3.615.281H9.966c-1.371 0-2.447 0-3.311-.07-.88-.072-1.607-.221-2.265-.557a5.75 5.75 0 01-2.513-2.513c-.336-.658-.484-1.385-.556-2.265-.071-.864-.071-1.94-.071-3.311V9.966c0-1.371 0-2.447.07-3.311.073-.88.221-1.607.557-2.265A5.75 5.75 0 014.39 1.877c.658-.336 1.385-.484 2.265-.556.864-.071 1.94-.071 3.311-.071h5.196c1.706 0 2.747 0 3.615.281a5.75 5.75 0 013.692 3.692c.281.868.281 1.909.281 3.615V9.5a.75.75 0 01-1.5 0V9c0-1.92-.01-2.702-.208-3.313a4.25 4.25 0 00-2.729-2.729zM12.53 7.47a.75.75 0 010 1.06l-1.72 1.72h2.422c.813 0 1.469 0 2 .043.546.045 1.026.14 1.47.366a3.75 3.75 0 011.64 1.639c.226.444.32.924.365 1.47.043.531.043 1.187.043 2V16a.75.75 0 01-1.5 0v-.2c0-.852 0-1.447-.038-1.91-.038-.453-.107-.714-.207-.911a2.25 2.25 0 00-.983-.984c-.198-.1-.459-.17-.913-.207-.462-.037-1.056-.038-1.909-.038h-2.39l1.72 1.72a.75.75 0 01-1.06 1.06l-3-3a.75.75 0 010-1.06l3-3a.75.75 0 011.06 0zm-4 1.06a.75.75 0 00-1.06-1.06l-.738.737-.021.021c-.378.378-.693.693-.93.972-.246.29-.451.59-.568.95a2.75 2.75 0 000 1.7c.117.36.322.66.568.95.237.279.552.594.93.972l.021.021.738.737a.75.75 0 101.06-1.06l-.737-.738c-.405-.404-.676-.676-.868-.903-.187-.22-.254-.346-.285-.443a1.25 1.25 0 010-.772c.031-.097.098-.224.285-.443.192-.227.463-.499.868-.903l.737-.738z"/>
</svg>
