<svg xmlns="http://www.w3.org/2000/svg" width="24" height="24" fill="currentColor" viewBox="0 0 24 24">
  <path fill-rule="evenodd" d="M13.453 3.093C12.804 2.77 12.038 2.75 10 2.75H4a1.25 1.25 0 000 2.5h11.499c-1.005-1.332-1.453-1.86-2.046-2.157zM4 6.75h10c1.907 0 3.262.002 4.29.14 1.005.135 1.585.389 2.008.812.423.423.677 1.003.812 2.009.023.17.042.35.058.54H21a3.75 3.75 0 100 7.5h.168c-.016.188-.035.368-.058.538-.135 1.006-.389 1.586-.812 2.01-.423.422-1.003.676-2.009.811-1.027.139-2.382.14-4.289.14h-4c-1.907 0-3.261-.002-4.29-.14-1.005-.135-1.585-.389-2.008-.812-.423-.423-.677-1.003-.812-2.009-.138-1.027-.14-2.382-.14-4.289V9a.75.75 0 00-1.5 0v5.056c0 1.838 0 3.294.153 4.433.158 1.172.49 2.121 1.238 2.87.749.748 1.698 1.08 2.87 1.238 1.14.153 2.595.153 4.433.153h4.112c1.838 0 3.294 0 4.433-.153 1.172-.158 2.121-.49 2.87-1.238.748-.749 1.08-1.698 1.238-2.87.153-1.14.153-2.595.153-4.433v-.112c0-1.838 0-3.294-.153-4.433-.158-1.172-.49-2.121-1.238-2.87-.749-.748-1.698-1.08-2.87-1.238-.33-.044-.688-.076-1.073-.098L17 4.75l-.113-.151c-1.067-1.424-1.758-2.345-2.763-2.847-1.005-.503-2.156-.503-3.935-.502H4a2.75 2.75 0 000 5.5zm17.237 9.5c.013-.653.013-1.396.013-2.25 0-.854 0-1.597-.013-2.25H21a2.25 2.25 0 100 4.5h.237z"/>
</svg>
