<svg xmlns="http://www.w3.org/2000/svg" width="24" height="24" fill="currentColor" viewBox="0 0 24 24">
  <path fill-rule="evenodd" d="M19.53.47a.75.75 0 10-1.06 1.06l1.72 1.72h-3.552c-1.085 0-1.966 0-2.675.085-.74.088-1.374.276-1.928.71-.555.432-.892 1.002-1.156 1.698-.255.667-.468 1.522-.731 2.575l-.012.045-.239.955-.125.5a.75.75 0 001.456.364l.125-.5.238-.955c.278-1.11.47-1.877.69-2.45.21-.555.417-.848.677-1.05.259-.203.594-.332 1.183-.403.61-.073 1.4-.074 2.544-.074h3.504l-1.72 1.72a.75.75 0 001.061 1.06l3-3a.75.75 0 000-1.06l-3-3zm-9.302 13.712a.75.75 0 00-1.456-.364l-.125.5-.238.955c-.278 1.11-.47 1.877-.69 2.45-.21.555-.417.848-.677 1.05-.259.203-.594.332-1.183.403-.61.073-1.4.074-2.544.074H2a.75.75 0 000 1.5H3.362c1.085 0 1.966 0 2.675-.085.74-.088 1.374-.276 1.928-.71.555-.432.891-1.002 1.156-1.698.255-.667.468-1.522.731-2.574l.012-.046.239-.955.125-.5zm9.302 9.348a.75.75 0 11-1.06-1.06l1.72-1.72H12a.75.75 0 010-1.5h8.19l-1.72-1.72a.75.75 0 111.06-1.06l3 3a.75.75 0 010 1.06l-3 3zM2 4.75a.75.75 0 010-1.5h6a.75.75 0 010 1.5H2z"/>
</svg>
