<svg xmlns="http://www.w3.org/2000/svg" width="24" height="24" fill="currentColor" viewBox="0 0 24 24">
  <path fill-rule="evenodd" d="M16.75 5a2.25 2.25 0 114.5 0 2.25 2.25 0 01-4.5 0zM19 1.25a3.75 3.75 0 100 7.5 3.75 3.75 0 000-7.5zm-10.5 1h-.121c-1.279 0-2.058 0-2.721.159a5.75 5.75 0 00-4.25 4.249C1.25 7.32 1.25 8.1 1.25 9.378V10a.75.75 0 001.5 0v-.5c0-1.438.005-2.025.117-2.492a4.25 4.25 0 013.14-3.14c.468-.113 1.055-.118 2.493-.118H12a.75.75 0 000-1.5H8.5zM21.75 12a.75.75 0 00-1.5 0v.5c0 2.134-.001 3.666-.144 4.843-.141 1.16-.41 1.873-.874 2.417a4.25 4.25 0 01-.472.472c-.544.464-1.257.733-2.417.874-1.177.143-2.71.144-4.843.144h-3c-1.438 0-2.025-.005-2.492-.117a4.25 4.25 0 01-3.14-3.14c-.113-.468-.118-1.055-.118-2.493V15a.75.75 0 00-1.5 0v.621c0 1.279 0 2.059.159 2.721a5.75 5.75 0 004.249 4.25c.663.158 1.442.158 2.72.158h3.173c2.072 0 3.695 0 4.973-.155 1.306-.159 2.351-.49 3.21-1.223.23-.195.443-.409.638-.638.734-.859 1.064-1.904 1.223-3.21.155-1.278.155-2.901.155-4.973V12z"/>
</svg>
