<svg xmlns="http://www.w3.org/2000/svg" width="24" height="24" fill="currentColor" viewBox="0 0 24 24">
  <path fill-rule="evenodd" d="M14.75 5A2.25 2.25 0 0117 2.75a.75.75 0 000-1.5A3.75 3.75 0 1020.75 5a.75.75 0 00-1.5 0 2.25 2.25 0 01-4.5 0zm-4.06 4.53a2.75 2.75 0 00-3.38 0c-.22.17-.4.39-.572.63-.17.236-.367.542-.608.917l-.01.017-1.608 2.5a.75.75 0 001.262.812l1.607-2.5c.255-.397.43-.67.575-.872.146-.202.226-.283.275-.321a1.25 1.25 0 011.538 0c.049.038.129.119.275.322.144.201.32.474.575.87l3.25 5.056 2.757 4.289H4.16c-.462 0-.603-.002-.678-.013a1.25 1.25 0 01-.957-1.753c.031-.07.106-.19.356-.578l.75-1.167a.75.75 0 00-1.262-.811l-.75 1.166-.04.062c-.193.3-.337.524-.42.708a2.75 2.75 0 002.106 3.857c.2.03.465.03.823.029H18.04c.981 0 1.773 0 2.386-.06.616-.06 1.193-.189 1.646-.557a2.75 2.75 0 00.997-1.826c.065-.58-.139-1.135-.421-1.686-.282-.548-.71-1.214-1.24-2.04l-.023-.034-.27-.42-.026-.04c-.56-.87-1.014-1.579-1.432-2.087-.427-.52-.904-.946-1.543-1.093a2.752 2.752 0 00-1.23 0c-.64.147-1.119.577-1.547 1.099-.258.315-.532.707-.835 1.167l-2.622-4.079-.011-.017a23.239 23.239 0 00-.608-.918 2.987 2.987 0 00-.571-.63zm9.592 11.667c-.458.045-1.056.052-1.873.053l-3.017-4.694c.46-.713.803-1.229 1.106-1.6.357-.434.569-.552.723-.587a1.25 1.25 0 01.558 0c.155.036.366.152.72.582.355.433.764 1.067 1.355 1.987l.27.42c.559.868.946 1.473 1.19 1.949.247.48.28.706.265.833a1.25 1.25 0 01-.453.83c-.1.08-.306.175-.844.227z"/>
</svg>
