<svg xmlns="http://www.w3.org/2000/svg" width="24" height="24" fill="currentColor" viewBox="0 0 24 24">
  <path fill-rule="evenodd" d="M1.47 1.47a.75.75 0 011.06 0L4.842 3.78l13.195 13.195 3.493 3.494a.75.75 0 11-1.06 1.06l-2.996-2.996a22.41 22.41 0 01-3.053 2.188c-.524.311-.997.556-1.381.727-.192.085-.37.155-.527.205a1.739 1.739 0 01-.513.096c-.252 0-.539-.098-.76-.184a9.357 9.357 0 01-.907-.422 20.116 20.116 0 01-2.445-1.538.75.75 0 11.882-1.212c.85.618 1.642 1.099 2.258 1.42.31.162.566.28.758.355.112.043.18.064.214.073l.055-.016c.09-.03.217-.078.377-.149a12.21 12.21 0 001.225-.645 20.887 20.887 0 002.752-1.962L4.28 5.34A5.127 5.127 0 002.75 9c0 2.427 1.196 4.643 2.815 6.494a.75.75 0 01-1.13.988C2.69 14.484 1.25 11.93 1.25 9c0-1.901.786-3.538 1.969-4.72l-1.75-1.75a.75.75 0 010-1.06zm14.52 2.28c-1.311-.019-2.54.427-3.366 1.666a.75.75 0 01-1.248 0C10.554 4.184 9.303 3.75 8 3.75c-.144 0-.288.007-.432.02a.75.75 0 01-.136-1.494A6.24 6.24 0 018 2.25c1.375 0 2.86.396 3.998 1.56 1.13-1.166 2.6-1.58 4.013-1.56C19.366 2.3 22.75 5.037 22.75 9c0 2.317-.901 4.4-2.137 6.152-.07.1-.14.198-.213.295a.75.75 0 11-1.205-.894c.065-.087.13-.176.192-.265 1.117-1.584 1.863-3.37 1.863-5.288 0-3.037-2.616-5.212-5.26-5.25z"/>
</svg>
