<svg xmlns="http://www.w3.org/2000/svg" width="24" height="24" fill="currentColor" viewBox="0 0 24 24">
  <path fill-rule="evenodd" d="M4.53 1.53A.75.75 0 003.47.47l-3 3a.75.75 0 001.06 1.06l3-3zM12 1.25C6.063 1.25 1.25 6.063 1.25 12c0 .735.074 1.454.215 2.15a.75.75 0 001.47-.3A9.25 9.25 0 1112 21.25a9.22 9.22 0 01-6.606-2.775.75.75 0 00-1.071 1.05A10.72 10.72 0 0012 22.75c5.937 0 10.75-4.813 10.75-10.75S17.937 1.25 12 1.25zm7.47-.78a.75.75 0 000 1.06l3 3a.75.75 0 101.06-1.06l-3-3a.75.75 0 00-1.06 0zm-2.94 9.06a.75.75 0 00-1.06-1.06L11 12.94l-1.47-1.47a.75.75 0 00-1.06 1.06l2 2a.75.75 0 001.06 0l5-5z"/>
</svg>
