<svg xmlns="http://www.w3.org/2000/svg" width="24" height="24" fill="currentColor" viewBox="0 0 24 24">
  <path fill-rule="evenodd" d="M9.281 3.277A7.25 7.25 0 0119.25 10c0 2.63-1.963 4.762-3.416 5.965-.911.753-1.584 1.883-1.584 3.162 0 1.172-.95 2.123-2.123 2.123h-.24a2.138 2.138 0 01-2.137-2.138l-.001-.092c.547.123 1.297.23 2.251.23a.75.75 0 000-1.5c-.937 0-1.626-.117-2.068-.228a4.49 4.49 0 01-.585-.188l-.01-.005-.007-.003a.744.744 0 00-.043-.019 4.563 4.563 0 00-1.098-1.341C6.729 14.745 4.75 12.586 4.75 10c0-1.715.595-3.29 1.59-4.53a.75.75 0 10-1.17-.94A8.716 8.716 0 003.25 10c0 3.31 2.473 5.858 3.977 7.116.635.532 1.023 1.26 1.023 1.996a3.638 3.638 0 003.638 3.638h.239a3.623 3.623 0 003.623-3.623c0-.74.396-1.473 1.04-2.006 1.51-1.25 3.96-3.772 3.96-7.121A8.75 8.75 0 008.719 1.886a.75.75 0 00.562 1.39zm.033 14.082l.016-.033.002.002h.002c.001.001.001.001-.017.037l-.003-.006z"/>
</svg>
