<svg xmlns="http://www.w3.org/2000/svg" width="24" height="24" fill="currentColor" viewBox="0 0 24 24">
  <path fill-rule="evenodd" d="M16.943 5.89c-.434-.132-.993-.14-2.443-.14H14a.75.75 0 010-1.5h.643c1.258 0 2.06 0 2.736.205a4.75 4.75 0 013.166 3.166c.08.26.128.537.157.852l.22.088a3.704 3.704 0 010 6.878l-.253.101c-.066.606-.19 1.131-.437 1.617a4.75 4.75 0 01-2.075 2.075c-.552.281-1.155.403-1.869.461-.697.057-1.563.057-2.655.057H8.367c-1.092 0-1.958 0-2.655-.057-.714-.058-1.317-.18-1.868-.46a4.75 4.75 0 01-2.076-2.076c-.281-.552-.403-1.155-.461-1.869-.057-.697-.057-1.563-.057-2.655V11.367c0-1.092 0-1.958.057-2.655.058-.714.18-1.317.46-1.868a4.75 4.75 0 012.077-2.076c.55-.281 1.154-.403 1.868-.461.697-.057 1.563-.057 2.655-.057H10a.75.75 0 010 1.5H8.4c-1.132 0-1.937 0-2.566.052-.62.05-1.005.147-1.31.302a3.25 3.25 0 00-1.42 1.42c-.155.305-.251.69-.302 1.31-.051.63-.052 1.434-.052 2.566v1.2c0 1.133 0 1.937.052 2.566.05.62.147 1.005.302 1.31a3.25 3.25 0 001.42 1.42c.305.155.69.251 1.31.302.63.051 1.434.052 2.566.052h5.2c1.133 0 1.937 0 2.566-.052.62-.05 1.005-.147 1.31-.302a3.25 3.25 0 001.42-1.42c.155-.305.251-.69.302-1.31.051-.63.052-1.434.052-2.566v-2.1c0-1.45-.008-2.009-.14-2.443a3.25 3.25 0 00-2.167-2.167zm3.803 7.959a2.205 2.205 0 00.004-3.695v2.479c0 .44 0 .845-.004 1.216zM7 9.25a.75.75 0 01.75.75v4a.75.75 0 01-1.5 0v-4A.75.75 0 017 9.25z"/>
</svg>
