<svg xmlns="http://www.w3.org/2000/svg" width="24" height="24" fill="currentColor" viewBox="0 0 24 24">
  <path fill-rule="evenodd" d="M20 2.75a1.25 1.25 0 100 2.5 1.25 1.25 0 000-2.5zM22.75 4c0 1.259-.846 2.32-2 2.646V15a.75.75 0 01-1.5 0V6.646A2.751 2.751 0 1122.75 4zM5.25 4a1.25 1.25 0 10-2.5 0 1.25 1.25 0 002.5 0zM12 3.25H6.646a2.751 2.751 0 100 1.5H15a.75.75 0 000-1.5h-3zM4.75 9a.75.75 0 00-1.5 0v8.354a2.751 2.751 0 101.5 0V9zm-2 11a1.25 1.25 0 112.5 0 1.25 1.25 0 01-2.5 0zM9 19.25a.75.75 0 000 1.5h8.354a2.751 2.751 0 100-1.5H9zm9.75.75a1.25 1.25 0 102.5 0 1.25 1.25 0 00-2.5 0zM9 8.25a.75.75 0 000 1.5h6a.75.75 0 000-1.5H9zm3.75 3.25a.75.75 0 00-1.5 0V15a.75.75 0 001.5 0v-3.5z"/>
</svg>
