<svg xmlns="http://www.w3.org/2000/svg" width="24" height="24" fill="currentColor" viewBox="0 0 24 24">
  <path fill-rule="evenodd" d="M16.685 2.795c-.329-.043-.732-.045-1.685-.045h-.5a.75.75 0 010-1.5H15.07c.862 0 1.372 0 1.811.058a6.75 6.75 0 015.811 5.81c.058.44.058.95.058 1.812V12.434c0 1.651 0 2.937-.084 3.968-.086 1.047-.262 1.897-.652 2.662a6.75 6.75 0 01-2.95 2.95c-.765.39-1.615.566-2.662.652-1.031.084-2.317.084-3.968.084H11.566c-1.651 0-2.937 0-3.968-.084-1.047-.086-1.897-.262-2.662-.652a6.75 6.75 0 01-2.95-2.95c-.39-.765-.566-1.615-.652-2.662-.084-1.031-.084-2.317-.084-3.968V8.93c0-.862 0-1.372.058-1.811a6.75 6.75 0 015.81-5.811c.44-.058.95-.058 1.812-.058H9.5a.75.75 0 110 1.5H9c-.953 0-1.356.002-1.685.045a5.25 5.25 0 00-4.52 4.52c-.043.329-.045.732-.045 1.685v3.4c0 1.692 0 2.917.08 3.88.077.954.228 1.585.492 2.104a5.25 5.25 0 002.295 2.294c.518.264 1.15.415 2.103.493.963.078 2.187.079 3.88.079h.8c1.692 0 2.917 0 3.88-.08.954-.077 1.585-.228 2.104-.492a5.25 5.25 0 002.294-2.294c.264-.519.415-1.15.493-2.104.078-.963.079-2.188.079-3.88V9c0-.953-.002-1.356-.045-1.685a5.25 5.25 0 00-4.52-4.52zM9.65 6.427a.75.75 0 01-.273 1.025 5.25 5.25 0 105.249 0 .75.75 0 11.75-1.299 6.75 6.75 0 11-6.751 0 .75.75 0 011.025.274zM12.75 5a.75.75 0 00-1.5 0v7a.75.75 0 001.5 0V5z"/>
</svg>
