<svg xmlns="http://www.w3.org/2000/svg" width="24" height="24" fill="currentColor" viewBox="0 0 24 24">
  <path fill-rule="evenodd" d="M16.685 2.795c-.329-.043-.732-.045-1.685-.045h-.5a.75.75 0 010-1.5H15.07c.862 0 1.372 0 1.811.058a6.75 6.75 0 015.811 5.81c.058.44.058.95.058 1.812V12.434c0 1.652 0 2.937-.084 3.968-.086 1.047-.262 1.897-.652 2.662a6.75 6.75 0 01-2.95 2.95c-.765.39-1.615.566-2.662.652-1.031.084-2.317.084-3.968.084H11.566c-1.651 0-2.937 0-3.968-.084-1.047-.086-1.897-.262-2.662-.652a6.75 6.75 0 01-2.95-2.95c-.39-.765-.566-1.615-.652-2.662-.084-1.031-.084-2.317-.084-3.968V8.93c0-.862 0-1.372.058-1.811a6.75 6.75 0 015.81-5.811c.44-.058.95-.058 1.812-.058H9.5a.75.75 0 110 1.5H9c-.953 0-1.356.002-1.685.045a5.25 5.25 0 00-4.52 4.52c-.043.329-.045.732-.045 1.685v3.4c0 1.692 0 2.917.08 3.88.077.954.228 1.585.492 2.104a5.25 5.25 0 002.295 2.294c.518.264 1.15.415 2.103.493.963.078 2.187.079 3.88.079h.8c1.692 0 2.917 0 3.88-.08.954-.077 1.585-.228 2.104-.492a5.25 5.25 0 002.294-2.294c.264-.519.415-1.15.493-2.104.078-.963.079-2.188.079-3.88V9c0-.953-.002-1.356-.045-1.685a5.25 5.25 0 00-4.52-4.52zM12 7.75a8.836 8.836 0 00-6.454 2.764.75.75 0 01-1.092-1.028A10.336 10.336 0 0112 6.25c2.983 0 5.672 1.245 7.546 3.236a.75.75 0 01-1.092 1.028A8.836 8.836 0 0012 7.75zm-4.484 4.794A6.487 6.487 0 0112 10.75c1.735 0 3.31.68 4.483 1.794a.75.75 0 001.034-1.088A7.987 7.987 0 0012 9.25c-2.136 0-4.077.84-5.516 2.206a.75.75 0 001.032 1.088zm3.416 1.406c-.29.131-.566.329-.974.644a.75.75 0 01-.916-1.188c.4-.309.802-.61 1.273-.823.49-.222 1.021-.333 1.685-.333.664 0 1.194.11 1.685.333.471.212.873.514 1.273.823a.75.75 0 11-.916 1.188c-.408-.315-.683-.513-.974-.644-.271-.123-.587-.2-1.068-.2-.481 0-.797.077-1.068.2zM12 18a1 1 0 100-2 1 1 0 000 2z"/>
</svg>
