<svg xmlns="http://www.w3.org/2000/svg" width="24" height="24" fill="currentColor" viewBox="0 0 24 24">
  <path fill-rule="evenodd" d="M12 2.75c-.428 0-1.013.344-1.619 1.388-.47.81-.878 1.926-1.167 3.264.888-.099 1.822-.152 2.786-.152s1.898.053 2.787.152c-.29-1.338-.698-2.453-1.168-3.264C13.013 3.094 12.428 2.75 12 2.75zM3.179 9.207A9.272 9.272 0 019.207 3.18a7.367 7.367 0 00-.123.206c-.64 1.101-1.134 2.574-1.448 4.251-1.677.314-3.15.808-4.251 1.448-.07.04-.138.081-.206.123zM1.25 12C1.25 6.063 6.063 1.25 12 1.25S22.75 6.063 22.75 12 17.937 22.75 12 22.75 1.25 17.937 1.25 12zm7.957 8.821a9.272 9.272 0 01-6.028-6.029c.068.043.136.084.206.124 1.216.706 2.884 1.235 4.782 1.54 1.189.19 2.482.294 3.833.294.964 0 1.898-.053 2.787-.152-.29 1.338-.698 2.453-1.168 3.264-.606 1.044-1.191 1.388-1.619 1.388-.283 0-.63-.142-1.027-.567-.397-.426-.789-1.083-1.131-1.957a.75.75 0 10-1.397.548c.223.567.477 1.09.762 1.547zm5.585 0a9.272 9.272 0 006.029-6.029 7.338 7.338 0 01-.206.124c-1.101.64-2.573 1.134-4.251 1.448-.314 1.677-.809 3.15-1.448 4.251-.04.07-.081.138-.123.206zm6.029-11.614a9.456 9.456 0 00-1.547-.762.75.75 0 00-.548 1.397c.874.342 1.53.734 1.957 1.13.425.397.567.745.567 1.028 0 .428-.344 1.013-1.388 1.619-.81.47-1.926.877-3.264 1.168.099-.889.152-1.823.152-2.787 0-1.35-.104-2.644-.294-3.833-.305-1.898-.834-3.566-1.54-4.782a7.226 7.226 0 00-.123-.206 9.272 9.272 0 016.028 6.028zM12 8.75c1.07 0 2.097.07 3.054.196.127.957.196 1.984.196 3.054 0 1.07-.07 2.097-.196 3.054A23.29 23.29 0 0112 15.25c-1.07 0-2.097-.07-3.054-.196A23.296 23.296 0 018.75 12a.75.75 0 00-1.5 0c0 .964.053 1.898.152 2.787-1.338-.29-2.453-.698-3.264-1.168C3.094 13.013 2.75 12.428 2.75 12c0-.428.344-1.013 1.388-1.619 1.005-.583 2.48-1.07 4.266-1.355A22.88 22.88 0 0112 8.75z"/>
</svg>
