<svg xmlns="http://www.w3.org/2000/svg" width="24" height="24" fill="currentColor" viewBox="0 0 24 24">
  <path fill-rule="evenodd" d="M4.5 2.25h-.032c-.44 0-.82 0-1.13.028-.33.03-.656.096-.963.273a2.25 2.25 0 00-.824.824c-.177.307-.243.633-.273.962-.028.312-.028.691-.028 1.13V6a.75.75 0 101.5 0v-.5c0-.481 0-.792.022-1.027.02-.225.055-.307.078-.348a.75.75 0 01.275-.275c.04-.023.123-.058.348-.078.235-.021.546-.022 1.027-.022h9c.481 0 .792 0 1.027.022.225.02.307.055.348.078a.75.75 0 01.274.275c.024.04.059.123.079.348.021.235.022.546.022 1.027V6a.75.75 0 001.5 0v-.532c0-.44 0-.82-.028-1.13-.03-.33-.096-.656-.273-.963a2.25 2.25 0 00-.824-.824c-.307-.177-.633-.243-.962-.273-.312-.028-.691-.028-1.13-.028H4.5zM9.75 6.5a.75.75 0 10-1.5 0v13.75H7a.75.75 0 000 1.5h4a.75.75 0 000-1.5H9.75V6.5zM15 12.25h-.034c-.206 0-.427 0-.615.025-.219.03-.5.105-.735.341a1.239 1.239 0 00-.341.735 4.844 4.844 0 00-.025.614v.535a.75.75 0 001.5 0V14l.001-.249.249-.001h6l.249.001.001.249v.5a.75.75 0 001.5 0v-.534c0-.206 0-.427-.025-.615-.03-.219-.105-.5-.341-.735a1.239 1.239 0 00-.735-.341 4.844 4.844 0 00-.614-.025H15zM18.75 16a.75.75 0 00-1.5 0v4.25h-.75a.75.75 0 000 1.5h3a.75.75 0 000-1.5h-.75V16z"/>
</svg>
