<svg xmlns="http://www.w3.org/2000/svg" width="24" height="24" fill="currentColor" viewBox="0 0 24 24">
  <path fill-rule="evenodd" d="M3.854 2.339A.75.75 0 014.25 3v4.25H5a.75.75 0 010 1.5H2a.75.75 0 110-1.5h.75V4.401l-.334.223a.75.75 0 01-.832-1.248l1.5-1a.75.75 0 01.77-.037zM9 3.25a.75.75 0 100 1.5h7a.75.75 0 000-1.5H9zm11 0a.75.75 0 100 1.5h2a.75.75 0 000-1.5h-2zm-11 8a.75.75 0 100 1.5h13a.75.75 0 00.75-.75v-.023a.751.751 0 00-.75-.727H9zm0 8a.75.75 0 000 1.5h7a.75.75 0 100-1.5H9zm11 0a.75.75 0 000 1.5h2a.75.75 0 100-1.5h-2zm-18-5a.75.75 0 000 1.5h2.25v1H2a.75.75 0 00-.75.75V20c0 .414.336.75.75.75h3a.75.75 0 000-1.5H2.75v-1H5a.75.75 0 00.75-.75V15a.75.75 0 00-.75-.75H2z"/>
</svg>
