<svg xmlns="http://www.w3.org/2000/svg" width="24" height="24" fill="currentColor" viewBox="0 0 24 24">
  <path fill-rule="evenodd" d="M12.75 2a.75.75 0 00-1.5 0v13.19l-2.72-2.72a.75.75 0 00-1.06 1.06l4 4a.75.75 0 001.28-.53V2zm3.78 11.53a.75.75 0 10-1.06-1.06l-1.5 1.5a.75.75 0 001.06 1.06l1.5-1.5zM7.5 7.25h-.143c-1.258 0-2.06 0-2.736.205a4.75 4.75 0 00-3.166 3.166c-.206.676-.205 1.478-.205 2.736v1.685c0 1.369 0 2.454.088 3.32.09.888.28 1.629.712 2.277.347.519.792.964 1.311 1.31.648.434 1.39.623 2.277.713.866.088 1.951.088 3.32.088H10a.75.75 0 000-1.5H9c-1.42 0-2.429 0-3.21-.08-.77-.079-1.235-.227-1.596-.468a3.25 3.25 0 01-.896-.896c-.241-.361-.39-.827-.468-1.596-.08-.781-.08-1.79-.08-3.21v-1.5c0-1.45.008-2.009.14-2.443A3.25 3.25 0 015.057 8.89c.434-.132.993-.14 2.443-.14H8a.75.75 0 000-1.5h-.5zm9 1.5c1.45 0 2.009.008 2.443.14a3.25 3.25 0 012.167 2.167c.132.434.14.993.14 2.443V15c0 1.42 0 2.429-.08 3.21-.079.77-.227 1.235-.468 1.596-.237.354-.542.66-.896.896-.361.241-.827.39-1.596.468-.781.08-1.79.08-3.21.08h-1a.75.75 0 000 1.5h1.042c1.369 0 2.454 0 3.32-.088.888-.09 1.629-.28 2.277-.712a4.752 4.752 0 001.31-1.311c.434-.648.623-1.39.713-2.277.088-.866.088-1.951.088-3.32v-1.685c0-1.258 0-2.06-.205-2.736a4.75 4.75 0 00-3.166-3.166c-.676-.205-1.478-.205-2.736-.205H16a.75.75 0 000 1.5h.5z"/>
</svg>
