<svg xmlns="http://www.w3.org/2000/svg" width="24" height="24" fill="currentColor" viewBox="0 0 24 24">
  <path fill-rule="evenodd" d="M9.4 2.25h-.033c-1.092 0-1.958 0-2.655.057-.714.058-1.317.18-1.868.46a4.75 4.75 0 00-2.076 2.077c-.281.55-.403 1.154-.461 1.868-.057.697-.057 1.563-.057 2.655v6.883h-.806c-.66 0-1.194.535-1.194 1.194a4.306 4.306 0 004.306 4.306h14.888a4.306 4.306 0 004.306-4.306c0-.66-.535-1.194-1.194-1.194h-.806V9.367c0-1.092 0-1.958-.057-2.655-.058-.714-.18-1.317-.46-1.868a4.75 4.75 0 00-2.076-2.076c-.552-.281-1.155-.403-1.869-.461-.697-.057-1.563-.057-2.655-.057H9.4zm10.85 14H18.5a.75.75 0 000 1.5h3.734a2.806 2.806 0 01-2.79 2.5H4.556a2.806 2.806 0 01-2.79-2.5H14a.75.75 0 000-1.5H3.75V9.4c0-1.132 0-1.937.052-2.566.05-.62.147-1.005.302-1.31a3.25 3.25 0 011.42-1.42c.305-.155.69-.251 1.31-.302.63-.051 1.434-.052 2.566-.052h5.2c1.133 0 1.937 0 2.566.052.62.05 1.005.147 1.31.302a3.25 3.25 0 011.42 1.42c.155.305.251.69.302 1.31.051.63.052 1.434.052 2.566v6.85z"/>
</svg>
