<svg xmlns="http://www.w3.org/2000/svg" width="24" height="24" fill="currentColor" viewBox="0 0 24 24">
  <path fill-rule="evenodd" d="M16.47 5.47a.75.75 0 011.06 0l5 5a.75.75 0 01-.53 1.28H8.5c-1.18 0-2.018 0-2.673.056-.646.055-1.044.16-1.359.328a3.25 3.25 0 00-1.334 1.334c-.168.315-.273.713-.328 1.359-.055.655-.056 1.493-.056 2.673v.5a.75.75 0 01-1.5 0v-.534c0-1.139 0-2.04.062-2.767.063-.742.195-1.37.499-1.938a4.75 4.75 0 011.95-1.95c.569-.304 1.196-.436 1.939-.5.725-.061 1.627-.061 2.766-.061H20.19l-3.72-3.72a.75.75 0 010-1.06zm3.56 7.5a.75.75 0 010 1.06l-2.5 2.5a.75.75 0 11-1.06-1.06l2.5-2.5a.75.75 0 011.06 0z"/>
</svg>
