<svg xmlns="http://www.w3.org/2000/svg" width="24" height="24" fill="currentColor" viewBox="0 0 24 24">
  <path fill-rule="evenodd" d="M14.5 5.75c1.45 0 2.009.008 2.443.14a3.25 3.25 0 012.167 2.167c.132.434.14.993.14 2.443v2.1c0 1.133 0 1.937-.052 2.566-.05.62-.147 1.005-.302 1.31a3.25 3.25 0 01-1.42 1.42c-.305.155-.69.251-1.31.302-.63.051-1.434.052-2.566.052H8.4c-1.132 0-1.937 0-2.566-.052-.62-.05-1.005-.147-1.31-.302a3.25 3.25 0 01-1.42-1.42c-.155-.305-.251-.69-.302-1.31-.051-.63-.052-1.434-.052-2.566v-1.2c0-1.133 0-1.937.052-2.566.05-.62.147-1.005.302-1.31a3.25 3.25 0 011.42-1.42c.305-.155.69-.251 1.31-.302.63-.051 1.434-.052 2.566-.052H10a.75.75 0 000-1.5H8.367c-1.092 0-1.958 0-2.655.057-.714.058-1.317.18-1.868.46a4.75 4.75 0 00-2.076 2.077c-.281.55-.403 1.154-.461 1.868-.057.697-.057 1.563-.057 2.655V12.633c0 1.092 0 1.958.057 2.655.058.714.18 1.317.46 1.869a4.75 4.75 0 002.077 2.075c.55.281 1.154.403 1.868.461.697.057 1.563.057 2.655.057H13.633c1.092 0 1.958 0 2.655-.057.714-.058 1.317-.18 1.869-.46a4.75 4.75 0 002.075-2.076c.248-.486.371-1.011.437-1.617l.253-.1a3.704 3.704 0 000-6.88l-.22-.087a4.311 4.311 0 00-.157-.852 4.75 4.75 0 00-3.166-3.166c-.676-.205-1.478-.205-2.736-.205H14a.75.75 0 000 1.5h.5zm6.25 4.404v2.479c0 .44 0 .845-.004 1.216a2.205 2.205 0 00.004-3.695zM7.75 10a.75.75 0 00-1.5 0v4a.75.75 0 001.5 0v-4zM11 9.25a.75.75 0 01.75.75v4a.75.75 0 01-1.5 0v-4a.75.75 0 01.75-.75z"/>
</svg>
