<svg xmlns="http://www.w3.org/2000/svg" width="24" height="24" fill="currentColor" viewBox="0 0 24 24">
  <path fill-rule="evenodd" d="M15.25 6a.75.75 0 01.75-.75h6a.75.75 0 01.75.75v6a.75.75 0 01-1.5 0V7.81l-2.72 2.72a.75.75 0 11-1.06-1.06l2.72-2.72H16a.75.75 0 01-.75-.75zm-5.695 6.708a1.25 1.25 0 00-1.11 0c-.156.078-.327.234-.915.822l-5 5a.75.75 0 11-1.06-1.06l5-5 .085-.086c.46-.461.817-.818 1.224-1.02a2.75 2.75 0 012.442 0c.407.202.763.559 1.223 1.02l.086.086c.588.588.759.744.915.822.35.173.76.173 1.11 0 .156-.078.327-.234.915-.822l.5-.5a.75.75 0 111.06 1.06l-.5.5-.085.086c-.46.461-.817.818-1.224 1.02a2.75 2.75 0 01-2.442 0c-.407-.202-.763-.559-1.223-1.02a68.371 68.371 0 00-.086-.086c-.588-.588-.759-.744-.915-.822z"/>
</svg>
