<svg xmlns="http://www.w3.org/2000/svg" width="24" height="24" fill="currentColor" viewBox="0 0 24 24">
  <path fill-rule="evenodd" d="M2.25 3A.75.75 0 013 2.25h11a.75.75 0 010 1.5H3A.75.75 0 012.25 3zm15 0a.75.75 0 01.75-.75h3a.75.75 0 010 1.5h-3a.75.75 0 01-.75-.75zm-7 6a.75.75 0 01.75-.75h10a.75.75 0 010 1.5H11a.75.75 0 01-.75-.75zm-8 12a.75.75 0 01.75-.75h11a.75.75 0 010 1.5H3a.75.75 0 01-.75-.75zm15 0a.75.75 0 01.75-.75h3a.75.75 0 010 1.5h-3a.75.75 0 01-.75-.75zM11 14.25a.75.75 0 000 1.5h10a.75.75 0 000-1.5H11zM3.53 8.47a.75.75 0 00-1.06 1.06L4.94 12l-2.47 2.47a.75.75 0 101.06 1.06l3-3a.75.75 0 000-1.06l-3-3z"/>
</svg>
