<svg xmlns="http://www.w3.org/2000/svg" width="24" height="24" fill="currentColor" viewBox="0 0 24 24">
  <path fill-rule="evenodd" d="M3 5a1 1 0 100-2 1 1 0 000 2zm5.25-1A.75.75 0 019 3.25h6a.75.75 0 010 1.5H9A.75.75 0 018.25 4zm10 0a.75.75 0 01.75-.75h3a.75.75 0 010 1.5h-3a.75.75 0 01-.75-.75zm-10 8a.75.75 0 01.75-.75h13a.75.75 0 01.75.75.75.75 0 01-.75.75H9a.75.75 0 01-.75-.738V12zm0 8a.75.75 0 01.75-.75h6a.75.75 0 010 1.5H9a.75.75 0 01-.75-.75zm10 0a.75.75 0 01.75-.75h3a.75.75 0 010 1.5h-3a.75.75 0 01-.75-.75zM4 12a1 1 0 11-2 0 1 1 0 012 0zm-1 9a1 1 0 100-2 1 1 0 000 2z"/>
</svg>
