<svg xmlns="http://www.w3.org/2000/svg" width="24" height="24" fill="currentColor" viewBox="0 0 24 24">
  <path fill-rule="evenodd" d="M15.768 1.25h2.464c.813 0 1.469 0 2 .043.546.045 1.026.14 1.47.366a3.75 3.75 0 011.64 1.639c.226.444.32.924.365 1.47.043.531.043 1.187.043 2V16a3.751 3.751 0 01-3.063 3.687 3.751 3.751 0 01-7.362.063h-2.65a3.751 3.751 0 01-7.35-.003 9.074 9.074 0 01-.47-.018 2.822 2.822 0 01-.907-.188 2.75 2.75 0 01-1.489-1.489c-.12-.29-.167-.59-.188-.907-.021-.304-.021-.675-.021-1.12V12.71c0-.6 0-.987.062-1.369a4.75 4.75 0 01.274-.987c.143-.36.342-.692.65-1.206l.033-.054.287-.479.06-.1c.56-.933.92-1.534 1.413-1.993a4.75 4.75 0 011.919-1.086c.646-.186 1.347-.186 2.435-.186H8a.75.75 0 010 1.5h-.5c-1.245 0-1.719.007-2.136.127a3.25 3.25 0 00-1.313.744c-.318.296-.568.698-1.209 1.766l-.287.479c-.351.586-.483.81-.575 1.042a3.25 3.25 0 00-.187.675c-.04.247-.043.506-.043 1.19V16c0 .476 0 .796.017 1.043.017.241.046.358.078.435.127.307.37.55.677.677.077.032.194.061.435.078.107.007.228.011.369.014A3.751 3.751 0 017 15.25a.75.75 0 010 1.5 2.25 2.25 0 102.122 1.5.75.75 0 111.414-.5c.058.162.104.329.139.5h2.65a3.751 3.751 0 017.33-.096A2.251 2.251 0 0022.25 16V6.8c0-.852 0-1.447-.038-1.91-.038-.453-.107-.714-.207-.911a2.25 2.25 0 00-.983-.984c-.198-.1-.459-.17-.913-.207-.462-.037-1.057-.038-1.909-.038h-2.4c-.852 0-1.447 0-1.91.038-.453.037-.714.107-.912.207a2.25 2.25 0 00-.983.984c-.1.197-.17.458-.207.912-.037.462-.038 1.057-.038 1.909V8.008c0 .456-.003.844-.03 1.167-.03.38-.098.736-.27 1.073a2.751 2.751 0 01-1.201 1.202c-.338.172-.694.24-1.074.27-.365.03-.81.03-1.345.03H4.5a.75.75 0 010-1.5h3.3c.572 0 .957 0 1.253-.025.287-.023.424-.065.514-.111a1.25 1.25 0 00.547-.547c.046-.09.088-.227.111-.514.024-.296.025-.68.025-1.253V6c0-.019 0-.038.002-.056.004-.448.014-.837.041-1.175.045-.547.14-1.027.366-1.471a3.75 3.75 0 011.638-1.64c.445-.226.925-.32 1.471-.365.531-.043 1.187-.043 2-.043zm1.232 20a2.25 2.25 0 110-4.5 2.25 2.25 0 010 4.5z"/>
</svg>
