<svg xmlns="http://www.w3.org/2000/svg" width="24" height="24" fill="currentColor" viewBox="0 0 24 24">
  <path fill-rule="evenodd" d="M12.75 2a.75.75 0 00-1.5 0v2a.75.75 0 001.5 0V2zm0 5a.75.75 0 00-1.5 0v1a.75.75 0 001.5 0V7zm0 9a.75.75 0 00-1.5 0v1a.75.75 0 001.5 0v-1zm0 4a.75.75 0 00-1.5 0v2a.75.75 0 001.5 0v-2zm7.145-14.834a.75.75 0 10-1.061-1.06L16.47 6.47a.75.75 0 001.06 1.06l2.364-2.364zM7.53 17.53a.75.75 0 10-1.061-1.06l-2.364 2.364a.75.75 0 001.06 1.06l2.365-2.364zM5.167 4.106a.75.75 0 10-1.061 1.06L6.47 7.531A.75.75 0 007.53 6.47L5.168 4.106zM17.53 16.47a.75.75 0 10-1.06 1.06l2.364 2.364a.75.75 0 001.06-1.06l-2.363-2.364zM1.25 12a.75.75 0 01.75-.75h2a.75.75 0 010 1.5H2a.75.75 0 01-.75-.75zm5 0a.75.75 0 01.75-.75h1a.75.75 0 010 1.5H7a.75.75 0 01-.75-.75zm9 0a.75.75 0 01.75-.75h1a.75.75 0 010 1.5h-1a.75.75 0 01-.75-.75zm4 0a.75.75 0 01.75-.75h2a.75.75 0 010 1.5h-2a.75.75 0 01-.75-.75z"/>
</svg>
