<svg xmlns="http://www.w3.org/2000/svg" width="24" height="24" fill="currentColor" viewBox="0 0 24 24">
  <path fill-rule="evenodd" d="M9.395 1.25h2.643c1.837 0 3.267 0 4.41.104 1.16.105 2.098.322 2.927.8a6.75 6.75 0 012.47 2.471c.48.83.696 1.767.802 2.928.103 1.142.103 2.572.103 4.41v3.232c0 .315 0 .503-.01.685a6.75 6.75 0 01-1.715 4.142c-.123.136-.255.269-.478.492l-.017.016-.016.017c-.223.223-.356.355-.492.478a6.75 6.75 0 01-4.141 1.715c-.183.01-.37.01-.686.01h-5.8c-1.294 0-2.059 0-2.712-.13a6.75 6.75 0 01-5.303-5.303c-.13-.653-.13-1.418-.13-2.712V14a.75.75 0 011.5 0v.5c0 1.43.004 2.035.1 2.524a5.25 5.25 0 004.126 4.125c.489.097 1.094.101 2.524.101h5.75v-2.275c0-.445 0-.816.02-1.12.022-.317.07-.617.19-.907a2.75 2.75 0 011.488-1.489c.29-.12.59-.167.907-.188.304-.021.675-.021 1.12-.021h.525a.75.75 0 010 1.5H19c-.476 0-.796 0-1.043.017-.241.017-.358.046-.435.078a1.25 1.25 0 00-.677.677c-.032.077-.061.194-.078.435-.017.247-.017.567-.017 1.043v2.103a5.249 5.249 0 002.27-1.195c.103-.092.206-.194.45-.438.244-.244.346-.347.438-.45a5.25 5.25 0 001.334-3.22c.008-.138.008-.283.008-.628V12c0-1.883 0-3.245-.097-4.312-.096-1.057-.281-1.75-.606-2.313a5.25 5.25 0 00-1.922-1.922c-.563-.325-1.256-.51-2.313-.606-1.067-.096-2.429-.097-4.312-.097H9.5c-1.43 0-2.035.004-2.524.1A5.25 5.25 0 002.85 6.977C2.754 7.465 2.75 8.07 2.75 9.5v.5a.75.75 0 01-1.5 0v-.605c0-1.294 0-2.059.13-2.712A6.75 6.75 0 016.683 1.38c.653-.13 1.418-.13 2.712-.13zM6.25 7A.75.75 0 017 6.25h8a.75.75 0 010 1.5H7A.75.75 0 016.25 7zM7 10.25a.75.75 0 000 1.5h6a.75.75 0 000-1.5H7zM6.25 15a.75.75 0 01.75-.75h2a.75.75 0 010 1.5H7a.75.75 0 01-.75-.75z"/>
</svg>
