<svg xmlns="http://www.w3.org/2000/svg" width="24" height="24" fill="currentColor" viewBox="0 0 24 24">
  <path fill-rule="evenodd" d="M15 2.75c.953 0 1.356.002 1.685.045a5.25 5.25 0 014.52 4.52c.043.329.045.732.045 1.685v3.4c0 1.692 0 2.917-.08 3.88-.077.954-.228 1.585-.492 2.104a5.25 5.25 0 01-2.294 2.294c-.519.264-1.15.415-2.104.493-.963.078-2.188.079-3.88.079h-.8c-1.693 0-2.917 0-3.88-.08-.954-.077-1.585-.228-2.103-.492a5.25 5.25 0 01-2.295-2.294c-.264-.519-.415-1.15-.493-2.104-.078-.963-.079-2.188-.079-3.88V9c0-.953.002-1.356.045-1.685a5.25 5.25 0 014.52-4.52c.329-.043.732-.045 1.685-.045h.5a.75.75 0 100-1.5H8.93c-.862 0-1.372 0-1.811.058a6.75 6.75 0 00-5.811 5.81c-.058.44-.058.95-.058 1.812V12.434c0 1.651 0 2.937.084 3.968.086 1.047.262 1.897.652 2.662a6.75 6.75 0 002.95 2.95c.765.39 1.615.566 2.662.652 1.031.084 2.317.084 3.968.084H12.434c1.652 0 2.937 0 3.968-.084 1.047-.086 1.897-.262 2.662-.652a6.75 6.75 0 002.95-2.95c.39-.765.566-1.615.652-2.662.084-1.031.084-2.317.084-3.968V8.93c0-.862 0-1.372-.058-1.811a6.75 6.75 0 00-5.81-5.811c-.44-.058-.95-.058-1.812-.058H14.5a.75.75 0 000 1.5h.5zm-3 1.5c-.889 0-1.74.165-2.52.466a.75.75 0 10.54 1.4A5.495 5.495 0 0112 5.75c2.934 0 5.25 2.257 5.25 4.964a.75.75 0 001.5 0c0-3.604-3.057-6.464-6.75-6.464zM7.89 7.626a.75.75 0 10-1.148-.966 6.273 6.273 0 00-1.492 4.054v2.857c0 2.89 1.972 5.306 4.651 6.145a.75.75 0 00.448-1.432c-2.112-.66-3.599-2.539-3.599-4.713v-2.857c0-1.165.423-2.237 1.14-3.088zm10.86 5.945a.75.75 0 00-1.5 0c0 2.174-1.488 4.052-3.599 4.713a.75.75 0 00.448 1.432c2.68-.839 4.651-3.256 4.651-6.145zM12 10.25a.75.75 0 01.75.75v2a.75.75 0 01-1.5 0v-2a.75.75 0 01.75-.75zm0-3c-1.986 0-3.75 1.45-3.75 3.417v2.666a.75.75 0 101.5 0v-2.666c0-.978.922-1.917 2.25-1.917a.75.75 0 000-1.5zm3.227 1.674a.75.75 0 00-1.257.818c.181.278.28.593.28.925v2.666c0 .978-.922 1.917-2.25 1.917-.427 0-.822-.101-1.157-.274a.75.75 0 10-.686 1.334c.548.282 1.178.44 1.843.44 1.986 0 3.75-1.45 3.75-3.417v-2.666c0-.64-.193-1.236-.523-1.743z"/>
</svg>
