<svg xmlns="http://www.w3.org/2000/svg" width="24" height="24" fill="currentColor" viewBox="0 0 24 24">
  <path fill-rule="evenodd" d="M20.75 1a.75.75 0 00-1.5 0v2.25H17a.75.75 0 000 1.5h2.25V7a.75.75 0 001.5 0V4.75H23a.75.75 0 000-1.5h-2.25V1zM8.5 3.25h-.034c-1.139 0-2.04 0-2.766.062-.743.063-1.37.195-1.94.499a4.75 4.75 0 00-1.95 1.95c-.303.569-.435 1.196-.498 1.939-.062.725-.062 1.627-.062 2.766V11a.75.75 0 001.5 0v-.5c0-1.18 0-2.018.056-2.673.055-.646.16-1.044.328-1.359a3.25 3.25 0 011.334-1.334c.315-.168.713-.273 1.359-.328.655-.055 1.493-.056 2.673-.056h5a.75.75 0 000-1.5h-5zm12.25 7.25a.75.75 0 00-1.5 0V14c0 1.907-.002 3.262-.14 4.29-.135 1.005-.389 1.585-.812 2.008-.423.423-1.003.677-2.009.812-1.028.138-2.382.14-4.289.14H8.5c-1.18 0-2.018 0-2.673-.056-.646-.055-1.044-.16-1.359-.328a3.25 3.25 0 01-1.334-1.334c-.168-.315-.273-.713-.328-1.359-.055-.655-.056-1.493-.056-2.673V15a.75.75 0 00-1.5 0v.534c0 1.139 0 2.04.062 2.766.063.743.195 1.37.499 1.94a4.75 4.75 0 001.95 1.95c.569.303 1.196.435 1.939.498.725.062 1.627.062 2.765.062h3.591c1.838 0 3.294 0 4.433-.153 1.172-.158 2.121-.49 2.87-1.238.748-.749 1.08-1.698 1.238-2.87.153-1.14.153-2.595.153-4.433V10.5zm-12 5.5a1.25 1.25 0 112.5 0 1.25 1.25 0 01-2.5 0zM10 13.25c.45 0 .875.108 1.25.3V8a.75.75 0 011.166-.624l3 2a.75.75 0 11-.832 1.248L12.75 9.401v6.601A2.75 2.75 0 1110 13.25z"/>
</svg>
