<svg xmlns="http://www.w3.org/2000/svg" width="24" height="24" fill="currentColor" viewBox="0 0 24 24">
  <path fill-rule="evenodd" d="M11.964 1.25H15A2.75 2.75 0 0117.75 4v.5a.75.75 0 01-1.5 0V4c0-.69-.56-1.25-1.25-1.25h-3c-.948 0-1.61 0-2.122.047-.503.046-.788.13-1.003.254a2.25 2.25 0 00-.824.824c-.124.215-.208.5-.254 1.003C7.751 5.39 7.75 6.052 7.75 7v.261c.504-.011 1.072-.011 1.716-.011H10a.75.75 0 010 1.5h-.5c-1.18 0-2.018 0-2.673.056-.646.055-1.044.16-1.359.328a3.25 3.25 0 00-1.334 1.334c-.168.315-.273.713-.328 1.359-.055.655-.056 1.493-.056 2.673v.5c0 1.42 0 2.429.08 3.21.079.77.227 1.235.468 1.596.237.354.542.66.896.896.361.241.827.39 1.596.468.781.08 1.79.08 3.21.08h4c1.42 0 2.429 0 3.21-.08.77-.079 1.235-.227 1.596-.468.354-.237.66-.542.896-.896.241-.361.39-.827.468-1.596.08-.781.08-1.79.08-3.21v-.5c0-1.18 0-2.018-.056-2.673-.055-.646-.16-1.044-.328-1.359a3.25 3.25 0 00-1.334-1.334c-.315-.168-.713-.273-1.359-.328-.655-.055-1.493-.056-2.673-.056H14a.75.75 0 010-1.5h.534c1.139 0 2.04 0 2.766.062.743.063 1.37.195 1.94.499a4.75 4.75 0 011.95 1.95c.303.569.435 1.196.498 1.939.062.726.062 1.627.062 2.766V15.042c0 1.369 0 2.454-.088 3.32-.09.888-.28 1.629-.712 2.277a4.753 4.753 0 01-1.311 1.31c-.648.434-1.39.623-2.277.713-.866.088-1.951.088-3.32.088H9.958c-1.369 0-2.454 0-3.32-.088-.888-.09-1.629-.28-2.277-.712a4.751 4.751 0 01-1.31-1.311c-.434-.648-.623-1.39-.713-2.277-.088-.866-.088-1.951-.088-3.32V14.466c0-1.139 0-2.04.062-2.766.063-.743.195-1.37.499-1.94a4.75 4.75 0 011.95-1.95c.45-.24.937-.373 1.489-.449V6.964c0-.904 0-1.633.053-2.222.055-.606.172-1.136.45-1.617a3.75 3.75 0 011.372-1.373c.481-.277 1.011-.394 1.617-.449.589-.053 1.318-.053 2.222-.053zM12.75 14a.75.75 0 00-1.5 0v2a.75.75 0 001.5 0v-2z"/>
</svg>
