<svg xmlns="http://www.w3.org/2000/svg" width="24" height="24" fill="currentColor" viewBox="0 0 24 24">
  <path fill-rule="evenodd" d="M15 2.75c1.92 0 2.702.01 3.313.208a4.25 4.25 0 012.729 2.729c.199.611.208 1.393.208 3.313v5c0 1.412 0 2.427-.066 3.223-.064.787-.188 1.295-.397 1.707a4.25 4.25 0 01-1.857 1.857c-.412.21-.92.333-1.707.397-.796.066-1.81.066-3.223.066h-4c-1.412 0-2.427 0-3.223-.066-.787-.064-1.295-.188-1.706-.397a4.25 4.25 0 01-1.858-1.857c-.21-.412-.333-.92-.397-1.707-.065-.796-.066-1.81-.066-3.223V9c0-1.92.01-2.702.208-3.313a4.25 4.25 0 012.729-2.729C6.298 2.76 7.08 2.75 9 2.75h.5a.75.75 0 000-1.5h-.662c-1.706 0-2.747 0-3.615.281a5.75 5.75 0 00-3.692 3.692c-.281.868-.281 1.909-.281 3.615v5.196c0 1.371 0 2.447.07 3.311.073.88.221 1.607.557 2.265a5.75 5.75 0 002.513 2.513c.658.336 1.385.485 2.265.556.864.071 1.94.071 3.311.071h4.068c1.371 0 2.447 0 3.311-.07.88-.072 1.607-.221 2.265-.557a5.75 5.75 0 002.513-2.513c.336-.658.485-1.385.556-2.265.071-.864.071-1.94.071-3.311V8.838c0-1.706 0-2.747-.281-3.615a5.75 5.75 0 00-3.692-3.692c-.868-.281-1.909-.281-3.615-.281H14.5a.75.75 0 000 1.5h.5zm-9 14.5a.75.75 0 000 1.5h12a.75.75 0 100-1.5H6zM13.25 10a.75.75 0 01.75-.75h4a.75.75 0 110 1.5h-4a.75.75 0 01-.75-.75zM14 5.25a.75.75 0 000 1.5h4a.75.75 0 000-1.5h-4zM5.25 14a.75.75 0 01.75-.75h12a.75.75 0 010 1.5H6a.75.75 0 01-.75-.75zm2.51-8.75h-.027c-.285 0-.542 0-.757.018-.23.018-.475.06-.716.184a1.85 1.85 0 00-.808.808 1.877 1.877 0 00-.184.716 9.922 9.922 0 00-.018.757v.534c0 .285 0 .542.018.757.018.23.06.475.184.716.177.348.46.631.808.808.241.123.487.166.716.185.215.017.472.017.757.017h.534c.285 0 .542 0 .757-.017.23-.02.475-.062.716-.185a1.85 1.85 0 00.808-.808c.123-.241.166-.487.185-.716.017-.215.017-.472.017-.757v-.534c0-.285 0-.542-.017-.757a1.878 1.878 0 00-.185-.716 1.85 1.85 0 00-.808-.808 1.878 1.878 0 00-.716-.184c-.215-.018-.472-.018-.757-.018H7.76zm-.819 1.538a.584.584 0 01.158-.025 9.22 9.22 0 01.661-.013h.48c.32 0 .516 0 .661.013a.584.584 0 01.158.025.35.35 0 01.153.153.585.585 0 01.026.158c.011.145.012.34.012.661v.48c0 .32 0 .516-.012.661a.585.585 0 01-.026.158.35.35 0 01-.153.153.584.584 0 01-.158.026 9.22 9.22 0 01-.661.012h-.48c-.32 0-.516 0-.661-.012a.584.584 0 01-.158-.026.35.35 0 01-.153-.153.584.584 0 01-.025-.158 9.214 9.214 0 01-.013-.661v-.48c0-.32 0-.516.013-.661a.584.584 0 01.025-.158.35.35 0 01.153-.153z"/>
</svg>
