<svg xmlns="http://www.w3.org/2000/svg" width="24" height="24" fill="currentColor" viewBox="0 0 24 24">
  <path fill-rule="evenodd" d="M1.5 1.75H1a.75.75 0 110-1.5h.5V1 .25h.013a3.75 3.75 0 013.725 2.79c.016.059.03.122.052.215l.003.012 1.58 6.844c.155.675.263 1.141.375 1.503.109.353.207.557.32.712.24.327.563.585.936.744.176.075.397.125.765.152.334.024.747.028 1.316.028H16.429c1.347 0 1.809-.013 2.181-.164.358-.144.673-.378.914-.68.251-.313.397-.751.784-2.042l.738-2.46c.213-.711.358-1.197.436-1.575.076-.373.066-.55.036-.659a1.25 1.25 0 00-.544-.73c-.096-.06-.262-.121-.641-.155-.384-.034-.891-.035-1.634-.035H9.5a.75.75 0 010-1.5h9.234c.7 0 1.274 0 1.733.041.47.042.912.133 1.303.377a2.75 2.75 0 011.194 1.606c.122.444.082.893-.013 1.356-.092.452-.258 1.002-.458 1.671l-.01.034-.738 2.46-.045.148c-.324 1.083-.548 1.83-1.005 2.401a3.75 3.75 0 01-1.523 1.133c-.678.274-1.458.274-2.589.273H6a1.25 1.25 0 100 2.5h15a.75.75 0 010 1.5h-1.55a2.75 2.75 0 01-4.832 2.625.75.75 0 111.299-.75A1.25 1.25 0 1017 18.75h-5.55a2.75 2.75 0 11-4.9 0H6a2.75 2.75 0 110-5.5h.386a3.34 3.34 0 01-.03-.04c-.248-.341-.407-.717-.541-1.153-.13-.42-.25-.94-.398-1.582l-.006-.027-1.58-6.843a6.633 6.633 0 00-.042-.18A2.25 2.25 0 001.685 1.75 6.629 6.629 0 001.5 1.75zm7.5 17a1.25 1.25 0 100 2.5 1.25 1.25 0 000-2.5z"/>
</svg>
