<svg xmlns="http://www.w3.org/2000/svg" width="24" height="24" fill="currentColor" viewBox="0 0 24 24">
  <path fill-rule="evenodd" d="M10 1.25h-.034c-1.371 0-2.447 0-3.311.07-.88.073-1.607.221-2.265.557A5.75 5.75 0 001.877 4.39c-.336.658-.484 1.385-.556 2.265-.071.864-.071 1.94-.071 3.311v5.196c0 1.706 0 2.747.281 3.615a5.75 5.75 0 003.692 3.692c.868.281 1.909.281 3.615.281H9.5a.75.75 0 000-1.5H9c-1.92 0-2.702-.01-3.313-.208a4.25 4.25 0 01-2.729-2.729C2.759 17.702 2.75 16.92 2.75 15v-5c0-1.413 0-2.427.066-3.223.064-.787.188-1.295.397-1.706a4.25 4.25 0 011.858-1.858c.411-.21.919-.333 1.706-.397.796-.065 1.81-.066 3.223-.066h4c1.412 0 2.427 0 3.223.066.787.064 1.295.188 1.707.397a4.25 4.25 0 011.857 1.858c.21.411.333.919.397 1.706.065.796.066 1.81.066 3.223v5c0 1.92-.01 2.702-.208 3.313a4.25 4.25 0 01-2.729 2.729c-.611.199-1.393.208-3.313.208h-.5a.75.75 0 000 1.5h.662c1.706 0 2.747 0 3.615-.281a5.75 5.75 0 003.692-3.692c.281-.868.281-1.909.281-3.615V9.966c0-1.371 0-2.447-.07-3.311-.072-.88-.221-1.607-.557-2.265a5.75 5.75 0 00-2.513-2.513c-.658-.336-1.385-.484-2.265-.556-.864-.071-1.94-.071-3.311-.071H10zm5.53 4.22a.75.75 0 00-1.06 0l-3 3a.75.75 0 101.06 1.06l1.72-1.72v2.79c0 1.133 0 1.937-.052 2.566-.05.62-.147 1.005-.302 1.31a3.25 3.25 0 01-1.42 1.42c-.305.155-.69.251-1.31.302-.63.051-1.433.052-2.566.052H7a.75.75 0 000 1.5h1.633c1.092 0 1.958 0 2.655-.057.714-.058 1.317-.18 1.868-.46a4.75 4.75 0 002.076-2.077c.281-.55.403-1.154.461-1.868.057-.697.057-1.563.057-2.655V7.81l1.72 1.72a.75.75 0 001.06-1.06l-3-3z"/>
</svg>
