<svg xmlns="http://www.w3.org/2000/svg" width="24" height="24" fill="currentColor" viewBox="0 0 24 24">
  <path fill-rule="evenodd" d="M3 2.75h18a.75.75 0 000-1.5H3a.75.75 0 100 1.5zm5.964 3.5H10a.75.75 0 010 1.5H9c-.948 0-1.61 0-2.122.047-.503.046-.788.13-1.003.254a2.25 2.25 0 00-.824.824c-.124.215-.208.5-.254 1.003-.046.512-.047 1.174-.047 2.122s0 1.61.047 2.122c.046.502.13.788.254 1.003.198.342.482.626.824.824.215.124.5.208 1.003.254.512.046 1.174.047 2.122.047h6c.948 0 1.61 0 2.122-.047.503-.046.788-.13 1.003-.254.342-.198.626-.482.824-.824.124-.215.208-.5.254-1.003.046-.512.047-1.174.047-2.122s0-1.61-.047-2.122c-.046-.503-.13-.788-.254-1.003a2.25 2.25 0 00-.824-.824c-.215-.124-.5-.208-1.003-.254-.512-.046-1.174-.047-2.122-.047h-1a.75.75 0 010-1.5h1.036c.904 0 1.633 0 2.222.053.606.055 1.136.172 1.617.45a3.75 3.75 0 011.373 1.372c.277.481.394 1.011.449 1.617.053.589.053 1.318.053 2.222v.072c0 .904 0 1.633-.053 2.222-.055.606-.172 1.136-.45 1.617a3.75 3.75 0 01-1.372 1.373c-.481.277-1.011.394-1.617.449-.589.053-1.318.053-2.222.053H8.964c-.904 0-1.633 0-2.222-.053-.606-.055-1.136-.172-1.617-.45a3.75 3.75 0 01-1.373-1.372c-.277-.481-.394-1.011-.449-1.617-.053-.589-.053-1.318-.053-2.222v-.072c0-.904 0-1.633.053-2.222.055-.606.172-1.136.45-1.617a3.75 3.75 0 011.372-1.373c.481-.277 1.011-.394 1.617-.449.589-.053 1.318-.053 2.222-.053zM21 22.75H3a.75.75 0 010-1.5h18a.75.75 0 010 1.5z"/>
</svg>
