<svg xmlns="http://www.w3.org/2000/svg" width="24" height="24" fill="currentColor" viewBox="0 0 24 24">
  <path fill-rule="evenodd" d="M6 3.25h-.052c-.899 0-1.648 0-2.242.08-.628.084-1.195.27-1.65.725-.456.456-.642 1.023-.726 1.65-.08.595-.08 1.345-.08 2.243v.104c0 .899 0 1.648.08 2.242.084.628.27 1.195.725 1.65.456.456 1.023.642 1.65.726.595.08 1.345.08 2.243.08H7a.75.75 0 000-1.5H6c-.964 0-1.612-.002-2.095-.066-.461-.063-.659-.17-.789-.3-.13-.13-.237-.328-.3-.79C2.753 9.613 2.75 8.965 2.75 8s.002-1.612.067-2.095c.062-.461.169-.659.3-.789.13-.13.327-.237.788-.3C4.388 4.753 5.036 4.75 6 4.75c.964 0 1.612.002 2.095.067.461.062.659.169.789.3.13.13.237.327.3.788.064.483.066 1.131.066 2.095v5.25c0 .75-.001 1.065-.035 1.357a5.25 5.25 0 01-1.6 3.2c-.214.203-.465.393-1.065.843l-1 .75a.75.75 0 10.9 1.2l1-.75.042-.031c.546-.41.871-.654 1.155-.924a6.75 6.75 0 002.058-4.114c.045-.39.045-.796.045-1.48V7.949c0-.898 0-1.648-.08-2.242-.084-.628-.27-1.195-.725-1.65-.456-.456-1.023-.642-1.65-.726-.595-.08-1.345-.08-2.243-.08H6zm15.25 10V8c0-.964-.002-1.612-.067-2.095-.062-.461-.169-.659-.3-.789-.13-.13-.327-.237-.788-.3-.483-.064-1.131-.066-2.095-.066-.964 0-1.612.002-2.095.067-.461.062-.659.169-.789.3-.13.13-.237.327-.3.788-.064.483-.066 1.131-.066 2.095 0 .964.002 1.612.066 2.095.063.461.17.659.3.789.13.13.328.237.79.3.482.064 1.13.066 2.094.066h1a.75.75 0 010 1.5h-1.052c-.899 0-1.648 0-2.242-.08-.628-.084-1.195-.27-1.65-.726-.456-.455-.642-1.022-.726-1.65-.08-.594-.08-1.344-.08-2.242v-.104c0-.898 0-1.648.08-2.242.084-.628.27-1.195.726-1.65.455-.456 1.022-.642 1.65-.726.594-.08 1.343-.08 2.242-.08h.104c.899 0 1.648 0 2.242.08.628.084 1.195.27 1.65.725.456.456.642 1.023.726 1.65.08.595.08 1.345.08 2.243V13.302c0 .683 0 1.09-.045 1.479a6.75 6.75 0 01-2.058 4.114c-.284.27-.61.514-1.155.924l-.042.031-1 .75a.75.75 0 11-.9-1.2l1-.75c.6-.45.851-.64 1.065-.842a5.25 5.25 0 001.6-3.2c.034-.293.035-.608.035-1.358z"/>
</svg>
