<svg xmlns="http://www.w3.org/2000/svg" width="24" height="24" fill="currentColor" viewBox="0 0 24 24">
  <path fill-rule="evenodd" d="M9.5 2.25h-.049c-1.602 0-2.872 0-3.876.119-1.03.122-1.88.377-2.588.96a4.75 4.75 0 00-.659.658c-.582.709-.837 1.557-.96 2.588C1.25 7.58 1.25 8.85 1.25 10.451v4.835a.75.75 0 001.5 0V10.5c0-1.662.001-2.843.108-3.749.105-.889.304-1.415.63-1.813a3.25 3.25 0 01.45-.45c.398-.326.924-.525 1.813-.63.906-.107 2.087-.108 3.749-.108h.5a.75.75 0 000-1.5h-.5zm5 1.5c1.662 0 2.843.001 3.749.108.889.105 1.415.304 1.813.63.164.135.315.286.45.45.326.398.525.924.63 1.813.018.158.034.324.047.499H6a.75.75 0 000 1.5h15.243c.007.517.007 1.096.007 1.75V13c0 1.907-.002 3.262-.14 4.29-.135 1.005-.389 1.585-.812 2.008-.423.423-1.003.677-2.009.812-1.027.138-2.382.14-4.289.14h-3a.75.75 0 000 1.5h3.056c1.838 0 3.294 0 4.433-.153 1.172-.158 2.121-.49 2.87-1.238.748-.749 1.08-1.698 1.238-2.87.153-1.14.153-2.595.153-4.433v-2.605c0-1.602 0-2.872-.119-3.876-.122-1.03-.377-1.88-.96-2.588a4.751 4.751 0 00-.658-.659c-.709-.582-1.557-.837-2.588-.96-1.005-.118-2.274-.118-3.876-.118H14a.75.75 0 000 1.5h.5zM5.47 16.47a.75.75 0 000 1.06l.72.72H2a.75.75 0 000 1.5h4.19l-.72.72a.75.75 0 001.06 1.06l2-2a.75.75 0 000-1.06l-2-2a.75.75 0 00-1.06 0zM15 11.25a.75.75 0 000 1.5h3a.75.75 0 100-1.5h-3z"/>
</svg>
