<svg xmlns="http://www.w3.org/2000/svg" width="24" height="24" fill="currentColor" viewBox="0 0 24 24">
  <path fill-rule="evenodd" d="M12.509 1.25h-.094c-1.054 0-1.702 0-2.318.136a5.75 5.75 0 00-2.27 1.064c-.5.386-.915.884-1.59 1.694l-.06.071-.9 1.08-.054.066c-.635.761-1.025 1.23-1.307 1.762a5.75 5.75 0 00-.542 1.498C3.25 9.21 3.25 9.82 3.25 10.81V14.034c0 1.371 0 2.447.07 3.311.072.88.221 1.607.557 2.265a5.75 5.75 0 002.512 2.513c.659.336 1.386.485 2.266.556.864.071 1.94.071 3.311.071h.562c1.14 0 2.036 0 2.759-.05.735-.05 1.347-.153 1.913-.388a5.75 5.75 0 003.112-3.111c.235-.567.338-1.179.389-1.914.049-.723.049-1.618.049-2.76V14a.75.75 0 10-1.5 0v.5c0 1.175 0 2.019-.046 2.685-.045.659-.132 1.089-.278 1.442a4.25 4.25 0 01-2.3 2.3c-.353.146-.782.232-1.441.277-.666.046-1.51.046-2.685.046H12c-1.413 0-2.427 0-3.223-.066-.787-.064-1.295-.188-1.707-.397a4.25 4.25 0 01-1.857-1.857c-.21-.412-.333-.92-.398-1.707-.065-.796-.065-1.81-.065-3.223v-3.104c0-1.103.004-1.548.092-1.965a4.25 4.25 0 01.4-1.107c.2-.377.482-.72 1.188-1.569l.9-1.08c.753-.903 1.06-1.265 1.413-1.538a4.25 4.25 0 011.678-.786c.436-.097.91-.1 2.088-.1 1.17 0 2.011 0 2.675.045.657.044 1.085.13 1.437.275a4.25 4.25 0 012.308 2.308c.145.352.23.78.275 1.44.045.664.046 1.507.046 2.681v.5a.75.75 0 101.5 0v-.528c0-1.14 0-2.034-.05-2.755-.049-.735-.152-1.346-.385-1.91a5.75 5.75 0 00-3.122-3.122c-.564-.233-1.174-.336-1.907-.386-.72-.049-1.612-.049-2.75-.049h-.027zM9.749 9a.75.75 0 00-1.5 0v2a.75.75 0 001.5 0V9zM15 6.25a.75.75 0 01.75.75v4a.75.75 0 01-1.5 0V7a.75.75 0 01.75-.75zM12.75 7a.75.75 0 00-1.5 0v4a.75.75 0 001.5 0V7z"/>
</svg>
