<svg xmlns="http://www.w3.org/2000/svg" width="24" height="24" fill="currentColor" viewBox="0 0 24 24">
  <path fill-rule="evenodd" d="M8.47 5.53a.75.75 0 010-1.06l3-3a.75.75 0 011.28.53v6a.75.75 0 01-1.5 0V3.81L9.53 5.53a.75.75 0 01-1.06 0zm5-2.06a.75.75 0 011.06 0l1 1a.75.75 0 01-1.06 1.06l-1-1a.75.75 0 010-1.06zm-9 5a.75.75 0 011.06 1.06l-1 1a.75.75 0 11-1.06-1.06l1-1zM8 11.25a.75.75 0 010 1.5H3.81l1.72 1.72a.75.75 0 11-1.06 1.06l-3-3A.75.75 0 012 11.25h6zm11.53-2.78a.75.75 0 10-1.06 1.06l1.72 1.72H16a.75.75 0 000 1.5h6a.75.75 0 00.53-1.28l-3-3zm1 6.06a.75.75 0 10-1.06-1.06l-1 1a.75.75 0 101.06 1.06l1-1zm-12.06 5a.75.75 0 111.06-1.06l1 1a.75.75 0 11-1.06 1.06l-1-1zM11.25 16a.75.75 0 011.5 0v4.19l1.72-1.72a.75.75 0 111.06 1.06l-3 3a.75.75 0 01-1.28-.53v-6z"/>
</svg>
