<svg xmlns="http://www.w3.org/2000/svg" width="24" height="24" fill="currentColor" viewBox="0 0 24 24">
  <path fill-rule="evenodd" d="M6.468 2.25h11.064c.44 0 .82 0 1.13.028.33.03.656.096.963.273.342.198.626.482.824.824.177.307.243.633.273.962.028.312.028.691.028 1.13V6a.75.75 0 01-1.5 0v-.5c0-.481 0-.792-.022-1.027-.02-.225-.055-.307-.079-.348a.75.75 0 00-.274-.275c-.04-.023-.123-.058-.348-.078A12.81 12.81 0 0017.5 3.75h-11c-.481 0-.792 0-1.027.022-.225.02-.307.055-.348.078a.75.75 0 00-.275.275c-.023.04-.058.123-.078.348-.021.235-.022.546-.022 1.027V6a.75.75 0 11-1.5 0v-.532c0-.44 0-.82.028-1.13.03-.33.096-.656.273-.963a2.25 2.25 0 01.824-.824c.307-.177.633-.243.962-.273.312-.028.691-.028 1.13-.028zM12 5.75a.75.75 0 01.75.75v13.75H17a.75.75 0 010 1.5H7a.75.75 0 010-1.5h4.25V6.5a.75.75 0 01.75-.75z"/>
</svg>
