<svg xmlns="http://www.w3.org/2000/svg" width="24" height="24" fill="currentColor" viewBox="0 0 24 24">
  <path fill-rule="evenodd" d="M2.97 1.97a.75.75 0 011.06 0l.97.97.97-.97a.75.75 0 011.06 1.06L6.06 4l.97.97a.75.75 0 01-1.06 1.06L5 5.06l-.97.97a.75.75 0 01-1.06-1.06L3.94 4l-.97-.97a.75.75 0 010-1.06zm0 8a.75.75 0 011.06 0l.97.97.97-.97a.75.75 0 011.06 1.06l-.97.97.97.97a.75.75 0 11-1.06 1.06L5 13.06l-.97.97a.75.75 0 01-1.06-1.06l.97-.97-.97-.97a.75.75 0 010-1.06zm1.06 8a.75.75 0 00-1.06 1.06l.97.97-.97.97a.75.75 0 101.06 1.06l.97-.97.97.97a.75.75 0 001.06-1.06L6.06 20l.97-.97a.75.75 0 10-1.06-1.06l-.97.97-.97-.97zM10.25 20a.75.75 0 01.75-.75h5a.75.75 0 010 1.5h-5a.75.75 0 01-.75-.75zm9 0a.75.75 0 01.75-.75h2a.75.75 0 010 1.5h-2a.75.75 0 01-.75-.75zM11 11.25a.75.75 0 000 1.5h11a.75.75 0 000-1.5H11zm0-8a.75.75 0 000 1.5h5a.75.75 0 000-1.5h-5zm9 0a.75.75 0 000 1.5h2a.75.75 0 000-1.5h-2z"/>
</svg>
