<svg xmlns="http://www.w3.org/2000/svg" width="24" height="24" fill="currentColor" viewBox="0 0 24 24">
  <path fill-rule="evenodd" d="M13.25 2.772c-.34-.02-.784-.022-1.472-.022-1.307 0-2.245 0-2.984.056-.73.056-1.204.162-1.59.342a4.25 4.25 0 00-2.056 2.056c-.18.386-.286.86-.342 1.59-.056.739-.056 1.677-.056 2.984V11a.75.75 0 01-1.5 0V9.748c0-1.27 0-2.265.06-3.067.063-.816.19-1.493.479-2.111a5.75 5.75 0 012.78-2.781c.62-.289 1.296-.416 2.112-.478.802-.061 1.797-.061 3.066-.061h.123c1.045 0 1.688 0 2.304.136a5.75 5.75 0 011.844.764c.532.34.987.794 1.726 1.533l.064.065.222.222.083.082c.94.94 1.52 1.52 1.912 2.224.214.385.384.794.505 1.219.22.774.22 1.593.22 2.924V11a.75.75 0 01-1.5 0v-.464c0-1.485-.007-2.082-.163-2.63a4.249 4.249 0 00-.373-.901c-.277-.498-.695-.925-1.744-1.975l-.222-.221c-.824-.824-1.16-1.154-1.536-1.393a4.246 4.246 0 00-.462-.256V6c0 .69.56 1.25 1.25 1.25h1a.75.75 0 010 1.5h-1A2.75 2.75 0 0113.25 6V2.772zM4.75 15a.75.75 0 00-1.5 0v1.54c0 .426 0 .686.018.911a5.75 5.75 0 005.28 5.281c.226.018.486.018.911.018H10a.75.75 0 000-1.5h-.5c-.479 0-.674 0-.833-.013a4.25 4.25 0 01-3.904-3.903 12.12 12.12 0 01-.013-.834V15zm16 0a.75.75 0 00-1.5 0v1.5c0 .479 0 .674-.013.834a4.25 4.25 0 01-3.903 3.903c-.16.012-.355.013-.834.013H14a.75.75 0 000 1.5h.54c.426 0 .686 0 .911-.018a5.75 5.75 0 005.281-5.28c.018-.226.018-.486.018-.912V15z"/>
</svg>
