<svg xmlns="http://www.w3.org/2000/svg" width="24" height="24" fill="currentColor" viewBox="0 0 24 24">
  <path fill-rule="evenodd" d="M6.011 4.95A9.21 9.21 0 0112 2.75 9.25 9.25 0 0121.25 12a9.216 9.216 0 01-.77 3.7.75.75 0 101.375.6c.576-1.318.895-2.773.895-4.3 0-5.937-4.813-10.75-10.75-10.75a10.719 10.719 0 00-7.601 3.149.75.75 0 000 1.06l.07.071 13.52 13.52A9.211 9.211 0 0112 21.25 9.25 9.25 0 012.75 12c0-1.317.275-2.568.77-3.7a.75.75 0 10-1.375-.6A10.716 10.716 0 001.25 12c0 5.937 4.813 10.75 10.75 10.75 2.968 0 5.657-1.204 7.601-3.149a.75.75 0 000-1.06l-.07-.071L6.01 4.95z"/>
</svg>
