<svg xmlns="http://www.w3.org/2000/svg" width="24" height="24" fill="currentColor" viewBox="0 0 24 24">
  <path fill-rule="evenodd" d="M12 3.75a8.25 8.25 0 00-5.776 14.14 20.512 20.512 0 002.517-.759.75.75 0 11.518 1.408 24.24 24.24 0 01-1.544.512 8.25 8.25 0 0012.533-7.236c-1.528 1.458-3.55 2.957-5.873 4.299-.341.197-.682.386-1.02.568a.75.75 0 01-.71-1.322c.326-.175.652-.356.98-.545 2.687-1.552 4.907-3.296 6.366-4.874a8.247 8.247 0 00-2.489-4.088A8.217 8.217 0 0012 3.75zm9.614 6.618A9.81 9.81 0 0121.75 12c0 5.385-4.365 9.75-9.75 9.75a9.709 9.709 0 01-6.22-2.24c-.546.094-1.062.15-1.539.165-1.335.042-2.671-.24-3.283-1.3-.436-.755-.338-1.635-.02-2.446.289-.733.792-1.511 1.448-2.297A9.812 9.812 0 012.25 12c0-5.385 4.365-9.75 9.75-9.75 2.363 0 4.532.842 6.219 2.24 1.008-.175 1.934-.222 2.713-.105.862.13 1.674.485 2.11 1.24.435.755.338 1.635.02 2.446-.289.733-.793 1.511-1.448 2.297zm-2.06-4.532a5.49 5.49 0 011.155.032c.644.097.923.315 1.034.507.11.192.16.542-.078 1.148-.12.306-.303.646-.548 1.014a9.741 9.741 0 00-1.563-2.701zM2.884 15.463a5.48 5.48 0 00-.548 1.014c-.238.606-.189.956-.078 1.148.162.28.687.59 1.938.551.081-.002.165-.006.25-.012a9.742 9.742 0 01-1.562-2.701z"/>
</svg>
