<svg xmlns="http://www.w3.org/2000/svg" width="24" height="24" fill="currentColor" viewBox="0 0 24 24">
  <path fill-rule="evenodd" d="M12 2.75A9.25 9.25 0 1021.25 12a9.209 9.209 0 00-.987-4.162.75.75 0 111.34-.676A10.707 10.707 0 0122.75 12c0 5.937-4.813 10.75-10.75 10.75S1.25 17.937 1.25 12 6.063 1.25 12 1.25c2.183 0 4.216.652 5.913 1.771a.75.75 0 11-.826 1.252A9.204 9.204 0 0012 2.75zm0 6c-.69 0-1.25.56-1.25 1.25v.5a.75.75 0 01-1.5 0V10a2.75 2.75 0 115.5 0v.121c0 .762-.303 1.492-.841 2.03l-1.379 1.38a.75.75 0 11-1.06-1.061l1.378-1.379c.257-.257.402-.606.402-.97V10c0-.69-.56-1.25-1.25-1.25zM12 17a1 1 0 100-2 1 1 0 000 2z"/>
</svg>
