<svg xmlns="http://www.w3.org/2000/svg" width="24" height="24" fill="currentColor" viewBox="0 0 24 24">
  <path fill-rule="evenodd" d="M1.5 1.75c.237 0 .32 0 .39.005a2.25 2.25 0 011.964 1.482c.023.066.047.145.112.373l1.987 6.954.047.166c.43 1.504.705 2.47 1.282 3.205a4.75 4.75 0 001.94 1.462c.864.354 1.87.354 3.434.353h2.63c1.582 0 2.598 0 3.47-.36a4.749 4.749 0 001.948-1.487c.577-.746.844-1.727 1.26-3.254l.046-.168.06-.22.01-.036c.273-1 .49-1.8.607-2.45.12-.663.151-1.259-.016-1.829a3.75 3.75 0 00-1.635-2.14c-.506-.312-1.09-.438-1.76-.497-.658-.059-1.487-.059-2.524-.059H9a.75.75 0 000 1.5h7.716c1.082 0 1.844 0 2.427.053.578.051.891.147 1.107.28.475.292.825.75.982 1.285.071.244.082.57-.021 1.142-.104.576-.303 1.312-.588 2.356l-.06.22c-.479 1.755-.674 2.42-1.046 2.9-.348.45-.807.801-1.332 1.018-.563.232-1.255.246-3.073.246h-2.284c-1.798 0-2.482-.014-3.04-.241a3.25 3.25 0 01-1.326-1c-.372-.474-.573-1.128-1.067-2.857L5.408 3.198 5.4 3.172c-.054-.192-.092-.324-.135-.444A3.75 3.75 0 001.99.258C1.864.25 1.727.25 1.527.25H1.5V1 .25H1a.75.75 0 100 1.5h.5zm8.5 17a1.25 1.25 0 100 2.5 1.25 1.25 0 000-2.5zM7.25 20a2.75 2.75 0 115.5 0 2.75 2.75 0 01-5.5 0zM18 18.75A1.25 1.25 0 1019.25 20a.75.75 0 011.5 0A2.75 2.75 0 1118 17.25a.75.75 0 010 1.5z"/>
</svg>
