<svg xmlns="http://www.w3.org/2000/svg" width="24" height="24" fill="currentColor" viewBox="0 0 24 24">
  <path fill-rule="evenodd" d="M19.762 2.81c-.793.1-1.866.398-3.408.83l-1.152.322a.75.75 0 11-.404-1.444l1.152-.323.063-.018c1.463-.41 2.644-.74 3.561-.856.935-.118 1.822-.045 2.486.62.664.663.737 1.55.619 2.485-.116.917-.447 2.098-.856 3.56l-.018.064-1.83 6.532-.017.063c-.657 2.347-1.172 4.185-1.707 5.439-.271.634-.573 1.182-.946 1.585-.391.422-.879.7-1.475.729-.599.028-1.111-.207-1.54-.593-.41-.369-.763-.89-1.094-1.501-.656-1.21-1.347-3.007-2.23-5.305l-.024-.06c-.34-.887-.445-1.114-.606-1.275-.16-.161-.388-.265-1.275-.606l-.06-.023c-2.298-.884-4.096-1.575-5.305-2.23-.61-.332-1.132-.685-1.501-1.095-.386-.43-.621-.942-.593-1.54.028-.597.307-1.084.729-1.475.403-.373.951-.675 1.585-.946C5.17 5.214 7.008 4.7 9.354 4.042l.064-.018.88-.246a.75.75 0 01.404 1.444l-.88.247c-2.423.678-4.164 1.167-5.316 1.66-.575.245-.94.466-1.156.666-.197.183-.244.32-.25.445-.005.123.028.264.21.467.2.222.546.478 1.101.778 1.113.604 2.818 1.261 5.189 2.173l.123.047c.703.27 1.259.483 1.674.898.415.415.628.971.898 1.675l.047.122c.912 2.371 1.57 4.076 2.172 5.189.301.555.557.901.78 1.1.202.183.343.216.465.21.125-.006.263-.052.446-.25.2-.216.42-.58.666-1.155.492-1.152.982-2.893 1.66-5.316l1.83-6.532c.43-1.542.73-2.615.83-3.408.1-.789-.028-1.074-.192-1.237-.163-.164-.448-.291-1.237-.192z"/>
</svg>
