<svg xmlns="http://www.w3.org/2000/svg" width="24" height="24" fill="currentColor" viewBox="0 0 24 24">
  <path fill-rule="evenodd" d="M12.28 1.037a2.25 2.25 0 011.79.628c.442.43.564 1.084.62 1.705.06.656.06 1.534.06 2.632v1.401c0 .529 0 .87.026 1.127.025.246.066.333.094.377a.75.75 0 00.223.223c.044.028.131.07.377.094.257.025.598.026 1.127.026h.635c.687 0 1.25 0 1.687.036.431.035.876.112 1.24.363a2.25 2.25 0 01.965 2.008c-.031.44-.25.836-.49 1.195-.246.364-.598.803-1.027 1.34l-.021.027-.2.25a.75.75 0 01-1.172-.938l.2-.25c.456-.57.769-.96.975-1.267.214-.318.236-.436.238-.462a.75.75 0 00-.321-.669c-.022-.015-.128-.071-.51-.102-.368-.03-.869-.031-1.598-.031h-.637c-.483 0-.9 0-1.24-.034-.36-.036-.716-.115-1.043-.327a2.25 2.25 0 01-.667-.667c-.212-.327-.291-.683-.327-1.043-.034-.34-.034-.757-.034-1.24V6.043c0-1.149 0-1.957-.053-2.537a3.073 3.073 0 00-.104-.612.434.434 0 00-.07-.155.75.75 0 00-.596-.21c.005 0-.039.002-.151.078a3.067 3.067 0 00-.464.414c-.403.42-.909 1.05-1.626 1.947l-.4.5a.75.75 0 11-1.172-.937l.4-.5L9.04 4c.686-.857 1.234-1.543 1.69-2.018.433-.45.937-.884 1.55-.944zM2.47 2.47a.75.75 0 011.06 0l4.334 4.333L10.53 9.47a.75.75 0 01-1.06 1.06L7.396 8.456 5.96 10.25c-.623.779-1.05 1.314-1.316 1.733-.274.432-.272.586-.266.627.022.15.09.29.193.402.029.03.147.128.656.184.494.054 1.178.055 2.175.055h.036c.483 0 .9 0 1.24.034.36.035.716.115 1.043.327.267.173.494.4.667.667.212.327.291.683.327 1.043.034.34.034.757.034 1.24v.296c0 1.623.001 2.767.1 3.561.104.85.286.963.32.98a.75.75 0 00.167.058c.037.008.249.034.862-.564.573-.56 1.289-1.452 2.303-2.72l1.16-1.45-2.192-2.192a.75.75 0 011.06-1.06l2.667 2.666 4.333 4.334a.75.75 0 01-1.06 1.06l-3.741-3.74-1.056 1.32-.037.045c-.969 1.212-1.742 2.178-2.39 2.81-.615.6-1.36 1.15-2.236.955a2.248 2.248 0 01-.5-.175c-.806-.395-1.044-1.29-1.15-2.143-.11-.898-.11-2.136-.11-3.687v-.318c0-.529 0-.87-.026-1.128-.025-.245-.066-.332-.094-.377a.75.75 0 00-.223-.222c-.044-.028-.131-.07-.377-.094-.257-.025-.598-.026-1.127-.026h-.046c-.94 0-1.707 0-2.293-.064-.58-.064-1.173-.206-1.59-.653a2.25 2.25 0 01-.579-1.205c-.09-.604.17-1.156.484-1.65.316-.497.795-1.096 1.382-1.83l.029-.036L6.328 7.39 2.47 3.53a.75.75 0 010-1.06z"/>
</svg>
