<svg xmlns="http://www.w3.org/2000/svg" width="24" height="24" fill="currentColor" viewBox="0 0 24 24">
  <path fill-rule="evenodd" d="M15.853 6.155c1.605-.898 2.362-1.055 2.905-.86.23.082.445.2.637.352.449.355.718 1.074.808 2.89a.75.75 0 001.498-.075c-.088-1.763-.336-3.17-1.377-3.992a3.75 3.75 0 00-1.06-.588c-1.256-.45-2.588.094-4.143.963a.75.75 0 10.732 1.31zm-2.935 1.78a.75.75 0 10-.795-1.271l-.048.03C10.578 7.629 9.391 8.37 8.56 9.05c-.844.69-1.456 1.42-1.604 2.372a3.75 3.75 0 000 1.153c.148.953.76 1.682 1.604 2.373.832.68 2.019 1.421 3.516 2.357l.048.03.048.03c1.667 1.042 2.98 1.863 4.048 2.355 1.076.496 2.076.743 3.045.397a3.75 3.75 0 001.06-.588c.807-.637 1.128-1.616 1.277-2.792.149-1.167.149-2.716.149-4.68V12a.75.75 0 00-1.5 0c0 2.035-.002 3.488-.137 4.548-.135 1.063-.385 1.542-.718 1.805-.192.151-.407.27-.637.353-.4.143-.938.101-1.911-.347-.971-.448-2.204-1.217-3.93-2.295-1.555-.972-2.659-1.664-3.408-2.277-.746-.61-1.01-1.038-1.072-1.441a2.25 2.25 0 010-.692c.063-.403.326-.832 1.072-1.442.749-.612 1.853-1.304 3.409-2.276zM3.75 5a.75.75 0 00-1.5 0v14a.75.75 0 001.5 0V5z"/>
</svg>
