<svg xmlns="http://www.w3.org/2000/svg" width="24" height="24" fill="currentColor" viewBox="0 0 24 24">
  <path fill-rule="evenodd" d="M5.826 1.25h12.348c.8 0 1.483 0 1.999.076.525.077 1.128.268 1.44.873.311.606.116 1.207-.127 1.68-.237.463-.635 1.02-1.1 1.67l-.035.05-2.735 3.829a.842.842 0 01-.01.015l-2.853 3.993a.75.75 0 11-1.22-.872l2.01-2.814H11a.75.75 0 010-1.5h5.614l2.517-3.523c.51-.714.84-1.18 1.02-1.533a1.1 1.1 0 00.12-.304c-.04-.02-.13-.053-.317-.08-.393-.058-.964-.06-1.84-.06H5.886c-.876 0-1.448.002-1.84.06-.187.027-.277.06-.317.08.007.044.033.136.12.304.18.353.51.82 1.02 1.533l7.736 10.83a.747.747 0 01.145.452v5.241H16a.75.75 0 010 1.5H8a.75.75 0 010-1.5h3.25v-5.01L3.649 5.598l-.035-.048c-.465-.651-.863-1.208-1.1-1.671-.243-.473-.439-1.074-.127-1.68.312-.605.915-.796 1.44-.873.516-.076 1.2-.076 2-.076zM3.73 2.857l-.002.013c0-.01.001-.014.002-.013zm-.017.043c-.005.006-.01.009-.01.009s.002-.004.01-.01zm16.586.009s-.005-.003-.01-.01c.008.006.01.01.01.01zm-.025-.039c-.003-.008-.002-.013-.002-.013.001 0 .002.003.002.013z"/>
</svg>
