<svg xmlns="http://www.w3.org/2000/svg" width="24" height="24" fill="currentColor" viewBox="0 0 24 24">
  <path fill-rule="evenodd" d="M5.53 2.47a.75.75 0 00-1.06 0l-3 3a.75.75 0 001.06 1.06l1.72-1.72V10a.75.75 0 001.5 0V4.81l1.72 1.72a.75.75 0 001.06-1.06l-3-3zM5.75 14a.75.75 0 00-1.5 0v5.19l-1.72-1.72a.75.75 0 00-1.06 1.06l3 3a.75.75 0 001.06 0l3-3a.75.75 0 10-1.06-1.06l-1.72 1.72V14zm5.5-10a.75.75 0 01.75-.75h10a.75.75 0 010 1.5H12a.75.75 0 01-.75-.75zM20 11.25a.75.75 0 000 1.5h2a.75.75 0 000-1.5h-2zm-8 1.5h4a.75.75 0 000-1.5h-4a.75.75 0 000 1.5zm0 6.5a.75.75 0 000 1.5h10a.75.75 0 000-1.5H12z"/>
</svg>
