<svg xmlns="http://www.w3.org/2000/svg" width="24" height="24" fill="currentColor" viewBox="0 0 24 24">
  <path fill-rule="evenodd" d="M12.29 3.89c-1.028-.138-2.383-.14-4.29-.14H3a.75.75 0 010-1.5h5.056c1.838 0 3.294 0 4.433.153 1.172.158 2.121.49 2.87 1.238.748.749 1.08 1.698 1.238 2.87.153 1.14.153 2.595.153 4.433V19.19l3.72-3.72a.75.75 0 111.06 1.06l-5 5a.75.75 0 01-1.28-.53V11c0-1.907-.002-3.261-.14-4.29-.135-1.005-.389-1.585-.812-2.008-.423-.423-1.003-.677-2.009-.812zm-1.82 11.58a.75.75 0 011.06 0l2.5 2.5a.75.75 0 11-1.06 1.06l-2.5-2.5a.75.75 0 010-1.06z"/>
</svg>
