<svg xmlns="http://www.w3.org/2000/svg" width="24" height="24" fill="currentColor" viewBox="0 0 24 24">
  <path fill-rule="evenodd" d="M4.95 6.011a9.21 9.21 0 00-2.17 5.239H4a.75.75 0 010 1.5H2.78a9.25 9.25 0 0016.214 5.304l-.757-.756a5.285 5.285 0 00-3.591-1.546 2.751 2.751 0 01-5.292-.002H7a.75.75 0 010-1.5h2.354a2.756 2.756 0 011.896-1.896V9a.75.75 0 011.5 0v3.354c.916.259 1.638.981 1.897 1.898a6.786 6.786 0 014.651 1.985l.593.593a9.194 9.194 0 001.329-4.08H20a.75.75 0 010-1.5h1.22a9.21 9.21 0 00-2.17-5.239l-.52.52a.75.75 0 11-1.06-1.061l.52-.52a9.254 9.254 0 00-2.29-1.43.75.75 0 01.6-1.375A10.752 10.752 0 0122.75 12c0 5.937-4.813 10.75-10.75 10.75S1.25 17.937 1.25 12 6.063 1.25 12 1.25a.75.75 0 01.75.75v2a.75.75 0 01-1.5 0V2.78a9.21 9.21 0 00-5.239 2.17l.52.52A.75.75 0 015.47 6.53l-.52-.519zM12 13.75a1.25 1.25 0 100 2.5 1.25 1.25 0 000-2.5z"/>
</svg>
