<svg xmlns="http://www.w3.org/2000/svg" width="24" height="24" fill="currentColor" viewBox="0 0 24 24">
  <path fill-rule="evenodd" d="M16.192 2.853c-.755-.101-1.757-.103-3.192-.103H8.5c-1.19 0-2.02.001-2.656.073-.62.07-.962.199-1.214.392a2.25 2.25 0 00-.415.415c-.193.252-.322.594-.392 1.214C3.75 5.48 3.75 6.31 3.75 7.5V8a.75.75 0 11-1.5 0v-.545c0-1.135 0-2.05.082-2.779.085-.754.266-1.403.693-1.959.2-.26.432-.493.692-.692.556-.427 1.205-.608 1.96-.693.729-.082 1.643-.082 2.778-.082h4.6c1.367 0 2.47 0 3.337.117.9.12 1.658.38 2.26.981.602.602.86 1.36.982 2.26.027.202.047.417.064.646.162.002.311.008.447.017.317.021.617.068.907.188a2.75 2.75 0 011.489 1.489c.12.29.167.59.188.907.021.304.021.675.021 1.12V10.025c0 .445 0 .816-.02 1.12a2.822 2.822 0 01-.19.907 2.75 2.75 0 01-1.488 1.489c-.29.12-.59.167-.907.188-.151.01-.32.016-.505.018-.084.704-.234 1.308-.517 1.863a5.75 5.75 0 01-2.513 2.513c-.658.336-1.385.485-2.265.556-.864.071-1.94.071-3.311.071H8.46c-.426 0-.686 0-.911-.018a5.75 5.75 0 01-5.281-5.28c-.018-.226-.018-.486-.018-.912V12a.75.75 0 011.5 0v.5c0 .479 0 .674.013.834a4.25 4.25 0 003.904 3.903c.159.012.354.013.833.013H11c1.412 0 2.427 0 3.223-.066.787-.064 1.295-.188 1.707-.397a4.25 4.25 0 001.857-1.857c.21-.412.333-.92.397-1.707.065-.796.066-1.81.066-3.223V8c0-1.435-.002-2.437-.103-3.192-.099-.734-.28-1.122-.556-1.399-.277-.277-.665-.457-1.4-.556zm3.542 9.393c.116-.003.217-.007.31-.013.24-.017.357-.046.434-.078.307-.127.55-.37.677-.677.032-.077.061-.194.078-.435.017-.247.017-.567.017-1.043V9c0-.476 0-.796-.017-1.043-.017-.241-.046-.358-.078-.435a1.25 1.25 0 00-.677-.677c-.077-.032-.194-.061-.435-.078a6.636 6.636 0 00-.296-.012c.003.372.003.768.003 1.19v2.089c0 .842 0 1.573-.016 2.211zM1.25 22a.75.75 0 01.75-.75h18a.75.75 0 010 1.5H2a.75.75 0 01-.75-.75z"/>
</svg>
