<svg xmlns="http://www.w3.org/2000/svg" width="24" height="24" fill="currentColor" viewBox="0 0 24 24">
  <path fill-rule="evenodd" d="M15.593 2.75h-3.768l2.1 3.5h3.75l-2.018-3.364a.754.754 0 01-.064-.135zm-9.18-1.31c1.09-.147 2.418-.18 4.028-.188a.75.75 0 01.11 0c.442-.002.906-.002 1.392-.002h3.219c1.706 0 2.747 0 3.615.281a5.75 5.75 0 013.692 3.692c.281.868.281 1.909.281 3.615V9.5a.75.75 0 01-1.5 0V9c0-.484 0-.895-.005-1.25h-7.731a.749.749 0 01-.664-.376l-2.772-4.62c-1.42.012-2.545.049-3.464.172l-.018.003L8.441 6.25H10a.75.75 0 010 1.5H2.82c-.07 1.126-.07 2.508-.07 4.25 0 2.378.002 4.086.176 5.386.172 1.279.5 2.05 1.069 2.62.57.569 1.34.896 2.619 1.068 1.3.174 3.008.176 5.386.176h3c1.92 0 2.702-.01 3.313-.208a4.25 4.25 0 002.729-2.729c.199-.611.208-1.393.208-3.313v-.5a.75.75 0 011.5 0v.662c0 1.706 0 2.747-.281 3.615a5.75 5.75 0 01-3.692 3.692c-.868.281-1.909.281-3.615.281h-3.219c-2.309 0-4.118 0-5.53-.19-1.444-.194-2.584-.6-3.479-1.494-.895-.895-1.3-2.035-1.494-3.48-.19-1.411-.19-3.22-.19-5.529v-.114c0-2.309 0-4.118.19-5.53.194-1.444.6-2.584 1.494-3.479.895-.895 2.035-1.3 3.48-1.494zm.312 4.81L5.083 3.293a3.127 3.127 0 00-1.088.702c-.514.513-.83 1.19-1.013 2.255h3.743zM17.35 2.792l2.075 3.458h1.742a3.232 3.232 0 00-.125-.563 4.25 4.25 0 00-2.729-2.729c-.263-.086-.559-.136-.963-.166z"/>
</svg>
