<svg xmlns="http://www.w3.org/2000/svg" width="24" height="24" fill="currentColor" viewBox="0 0 24 24">
  <path fill-rule="evenodd" d="M9.944 1.25h5.098c1.369 0 2.454 0 3.32.088.888.09 1.629.28 2.277.713.519.346.964.791 1.31 1.31.434.648.623 1.39.713 2.277.088.866.088 1.951.088 3.32V9.5a.75.75 0 01-1.5 0V9c0-1.42 0-2.429-.08-3.21-.079-.77-.227-1.235-.468-1.596a3.25 3.25 0 00-.896-.896c-.361-.241-.827-.39-1.596-.468-.781-.08-1.79-.08-3.21-.08h-5c-1.907 0-3.261.002-4.29.14-1.005.135-1.585.389-2.008.812-.423.423-.677 1.003-.812 2.009-.138 1.028-.14 2.382-.14 4.289v4c0 1.907.002 3.262.14 4.29.135 1.005.389 1.585.812 2.008.423.423 1.003.677 2.009.812 1.028.138 2.382.14 4.289.14h5c1.42 0 2.429 0 3.21-.08.77-.079 1.235-.227 1.596-.468.354-.237.66-.542.896-.896.241-.361.39-.827.468-1.596.08-.781.08-1.79.08-3.21v-.5a.75.75 0 011.5 0v.542c0 1.369 0 2.454-.088 3.32-.09.888-.28 1.629-.712 2.277a4.753 4.753 0 01-1.311 1.31c-.648.434-1.39.623-2.277.713-.866.088-1.951.088-3.32.088H9.944c-1.838 0-3.294 0-4.433-.153-1.172-.158-2.121-.49-2.87-1.238-.748-.749-1.08-1.698-1.238-2.87-.153-1.14-.153-2.595-.153-4.433V9.944c0-1.838 0-3.294.153-4.433.158-1.172.49-2.121 1.238-2.87.749-.748 1.698-1.08 2.87-1.238 1.14-.153 2.595-.153 4.433-.153zM6 9.25a.75.75 0 01.75.75v1.25H9a.75.75 0 010 1.5H6.75V14a.75.75 0 01-1.5 0v-4A.75.75 0 016 9.25zm12 0a.75.75 0 01.75.75v4a.75.75 0 01-1.5 0v-1.25H15a.75.75 0 010-1.5h2.25V10a.75.75 0 01.75-.75zm-8-4a.75.75 0 000 1.5h1.25v10.5H10a.75.75 0 000 1.5h4a.75.75 0 000-1.5h-1.25V6.75H14a.75.75 0 000-1.5h-4z"/>
</svg>
