<svg xmlns="http://www.w3.org/2000/svg" width="24" height="24" fill="currentColor" viewBox="0 0 24 24">
  <path fill-rule="evenodd" d="M18 2.75A2.25 2.25 0 1020.25 5a.75.75 0 011.5 0A3.75 3.75 0 1118 1.25a.75.75 0 010 1.5zM4.25 16a.75.75 0 01.75-.75 3.751 3.751 0 013.675 3H16.5a2.75 2.75 0 100-5.5h-10a4.25 4.25 0 010-8.5h3.69L8.97 3.03a.75.75 0 011.06-1.06l2.5 2.5a.75.75 0 010 1.06l-2.5 2.5a.75.75 0 11-1.06-1.06l1.22-1.22H6.5a2.75 2.75 0 000 5.5h10a4.25 4.25 0 010 8.5H8.675A3.751 3.751 0 011.25 19a.75.75 0 011.5 0A2.25 2.25 0 105 16.75a.75.75 0 01-.75-.75z"/>
</svg>
