<svg xmlns="http://www.w3.org/2000/svg" width="24" height="24" fill="currentColor" viewBox="0 0 24 24">
  <path fill-rule="evenodd" d="M17.5 2.25h-.038c-.67 0-1.229 0-1.681.046-.474.048-.913.153-1.309.417-.3.201-.558.459-.758.76-.265.395-.37.835-.418 1.308-.046.452-.046 1.011-.046 1.68V10a.75.75 0 001.5 0V6.5c0-.718 0-1.2.038-1.567.036-.355.1-.519.173-.627.09-.137.208-.254.345-.345.108-.073.272-.137.627-.173.367-.037.85-.038 1.567-.038.718 0 1.2 0 1.567.038.355.036.519.1.628.173.136.09.253.208.344.345.073.108.137.272.173.627.037.367.038.85.038 1.567v11c0 .718 0 1.2-.038 1.567-.036.355-.1.519-.173.628a1.25 1.25 0 01-.345.344c-.108.073-.272.137-.627.173-.367.037-.85.038-1.567.038-.718 0-1.2 0-1.567-.038-.355-.036-.519-.1-.627-.173a1.25 1.25 0 01-.345-.345c-.073-.108-.137-.272-.173-.627-.037-.367-.038-.85-.038-1.567V14a.75.75 0 00-1.5 0v3.538c0 .67 0 1.229.046 1.681.048.473.153.913.418 1.309.2.3.458.558.758.759.396.264.835.369 1.309.417.452.046 1.011.046 1.68.046h.077c.67 0 1.229 0 1.681-.046.473-.048.913-.153 1.309-.418.3-.2.558-.458.759-.758.264-.396.369-.835.417-1.309.046-.452.046-1.011.046-1.68V6.461c0-.67 0-1.229-.046-1.681-.048-.473-.153-.913-.418-1.309a2.75 2.75 0 00-.758-.759c-.396-.264-.835-.369-1.309-.417-.452-.046-1.011-.046-1.68-.046H17.5zm-11 0h-.038c-.67 0-1.229 0-1.681.046-.473.048-.913.153-1.309.417-.3.201-.558.459-.759.76-.264.395-.369.835-.417 1.308-.046.452-.046 1.011-.046 1.68v11.077c0 .67 0 1.229.046 1.681.048.473.153.913.417 1.309.201.3.459.558.76.759.395.264.835.369 1.308.417.452.046 1.011.046 1.68.046h.077c.67 0 1.229 0 1.681-.046.473-.048.913-.153 1.309-.418.3-.2.558-.458.758-.758.265-.396.37-.835.418-1.309.046-.452.046-1.011.046-1.68V14a.75.75 0 00-1.5 0v3.5c0 .718 0 1.2-.038 1.567-.036.355-.1.519-.173.628a1.25 1.25 0 01-.345.344c-.108.073-.272.137-.627.173-.367.037-.85.038-1.567.038-.718 0-1.2 0-1.567-.038-.355-.036-.519-.1-.627-.173a1.25 1.25 0 01-.345-.345c-.073-.108-.137-.272-.173-.627-.037-.367-.038-.85-.038-1.567v-11c0-.718 0-1.2.038-1.567.036-.355.1-.519.173-.627a1.25 1.25 0 01.345-.345c.108-.073.272-.137.627-.173.367-.037.85-.038 1.567-.038.718 0 1.2 0 1.567.038.355.036.519.1.627.173.137.09.254.208.345.345.073.108.137.272.173.627.037.367.038.85.038 1.567V10a.75.75 0 001.5 0V6.462c0-.67 0-1.229-.046-1.681-.048-.473-.153-.913-.418-1.309a2.75 2.75 0 00-.758-.759c-.396-.264-.836-.369-1.309-.417-.452-.046-1.011-.046-1.68-.046H6.5z"/>
</svg>
