<svg xmlns="http://www.w3.org/2000/svg" width="24" height="24" fill="currentColor" viewBox="0 0 24 24">
  <path fill-rule="evenodd" d="M11.314 1.25h-.156c-1.485 0-2.444 0-3.319.362s-1.553 1.04-2.602 2.09l-.11.11-1.314 1.315-.11.11c-1.05 1.05-1.73 1.727-2.091 2.602-.363.875-.362 1.834-.362 3.319v1.684c0 1.485 0 2.444.362 3.319s1.04 1.553 2.09 2.602l.11.11 1.315 1.314.11.11c1.05 1.05 1.728 1.73 2.602 2.091.875.363 1.834.362 3.319.362h1.684c1.485 0 2.444 0 3.319-.362s1.553-1.04 2.602-2.09l.11-.11 1.314-1.314.11-.11c1.05-1.05 1.73-1.728 2.091-2.603.363-.875.362-1.834.362-3.319v-1.684c0-1.485 0-2.444-.361-3.319-.278-.67-.727-1.205-1.358-1.86a.75.75 0 10-1.08 1.041c.612.636.889 1 1.052 1.393.234.565.247 1.205.247 2.9v1.373c0 1.697-.013 2.336-.247 2.9-.234.566-.677 1.027-1.876 2.227l-1.314 1.314c-1.2 1.199-1.66 1.642-2.226 1.876-.565.234-1.204.247-2.9.247h-1.373c-1.696 0-2.336-.013-2.9-.247-.566-.235-1.027-.677-2.227-1.877l-1.313-1.313c-1.2-1.2-1.642-1.66-1.877-2.226-.234-.565-.247-1.204-.247-2.9v-1.373c0-1.696.013-2.336.247-2.9.235-.566.677-1.027 1.877-2.227l1.313-1.314c1.2-1.199 1.661-1.642 2.226-1.876.565-.234 1.205-.247 2.9-.247h1.373c1.697 0 2.336.013 2.9.247.392.162.754.437 1.385 1.044a.75.75 0 001.04-1.082c-.65-.625-1.183-1.071-1.85-1.347-.875-.363-1.834-.362-3.319-.362h-1.528zM9.53 8.47a.75.75 0 10-1.06 1.06L10.94 12l-2.47 2.47a.75.75 0 101.06 1.06L12 13.06l2.47 2.47a.75.75 0 001.06-1.06L13.06 12l2.47-2.47a.75.75 0 10-1.06-1.06L12 10.94 9.53 8.47z"/>
</svg>
