<svg xmlns="http://www.w3.org/2000/svg" width="24" height="24" fill="currentColor" viewBox="0 0 24 24">
  <path fill-rule="evenodd" d="M2.25 2A.75.75 0 013 1.25h18a.75.75 0 010 1.5H3A.75.75 0 012.25 2zm16.044 4.77c-.134-.018-.306-.02-.794-.02H9c-1.435 0-2.437.002-3.192.103-.734.099-1.122.28-1.399.556-.277.277-.457.665-.556 1.4-.101.754-.103 1.756-.103 3.191 0 1.435.002 2.437.103 3.192.099.734.28 1.122.556 1.399.277.277.665.457 1.4.556.754.101 1.756.103 3.191.103h8.5c.488 0 .66-.002.794-.02a2.25 2.25 0 001.937-1.936c.017-.134.019-.306.019-.794V14a.75.75 0 011.5 0v.558c0 .409 0 .687-.032.931a3.75 3.75 0 01-3.229 3.229c-.244.032-.522.032-.931.032H8.945c-1.367 0-2.47 0-3.337-.116-.9-.122-1.658-.38-2.26-.982-.602-.602-.86-1.36-.981-2.26-.117-.867-.117-1.97-.117-3.337v-.11c0-1.367 0-2.47.117-3.337.12-.9.38-1.658.981-2.26.602-.602 1.36-.86 2.26-.981.867-.117 1.97-.117 3.337-.117h8.613c.409 0 .687 0 .931.032a3.75 3.75 0 013.229 3.229c.032.244.032.522.032.931V10a.75.75 0 01-1.5 0v-.5c0-.488-.002-.66-.02-.794a2.25 2.25 0 00-1.936-1.937zM3 21.25a.75.75 0 000 1.5h18a.75.75 0 000-1.5H3z"/>
</svg>
