<svg xmlns="http://www.w3.org/2000/svg" width="24" height="24" fill="currentColor" viewBox="0 0 24 24">
  <path fill-rule="evenodd" d="M9 1.75a2.251 2.251 0 00-2.153 1.594c1.09-.094 2.434-.094 4.108-.094H15.805c1.108 0 1.783 0 2.361.12a5.75 5.75 0 014.465 4.464c.12.578.12 1.253.119 2.36v.556a.75.75 0 01-1.5 0v-.45c0-1.246-.004-1.754-.088-2.162a4.25 4.25 0 00-3.3-3.3c-.408-.084-.916-.088-2.162-.088H11c-1.892 0-3.25.001-4.302.115-1.038.112-1.688.328-2.196.697a4.25 4.25 0 00-.94.94c-.37.508-.585 1.158-.697 2.196C2.751 9.75 2.75 11.108 2.75 13c0 1.892.001 3.25.115 4.302.112 1.038.328 1.688.697 2.196.262.36.58.678.94.94.508.37 1.158.585 2.196.697 1.052.114 2.41.115 4.302.115h4.7c1.246 0 1.754-.004 2.162-.088a4.25 4.25 0 003.3-3.3c.084-.408.088-.916.088-2.162v-.45a.75.75 0 011.5 0v.555c0 1.108 0 1.783-.12 2.361a5.75 5.75 0 01-4.464 4.465c-.578.12-1.253.12-2.36.119h-4.851c-1.837 0-3.276 0-4.419-.124-1.165-.126-2.11-.388-2.916-.974a5.75 5.75 0 01-1.272-1.272c-.586-.807-.848-1.75-.974-2.916-.124-1.143-.124-2.582-.124-4.419v-.09c0-1.837 0-3.276.124-4.419.126-1.165.388-2.11.974-2.916A5.75 5.75 0 013.62 4.348c.493-.358 1.037-.595 1.652-.754A3.75 3.75 0 019 .25h8a.75.75 0 010 1.5H9zm5 6.5a.75.75 0 000 1.5h4a.75.75 0 000-1.5h-4zM13.25 13a.75.75 0 01.75-.75h4a.75.75 0 010 1.5h-4a.75.75 0 01-.75-.75zm-6.5-2c0-.69.56-1.25 1.25-1.25a.75.75 0 000-1.5A2.75 2.75 0 1010.75 11a.75.75 0 00-1.5 0 1.25 1.25 0 11-2.5 0z"/>
</svg>
