<svg xmlns="http://www.w3.org/2000/svg" width="24" height="24" fill="currentColor" viewBox="0 0 24 24">
  <path fill-rule="evenodd" d="M8.75 2a.75.75 0 00-1.5 0v2c0 .964-.002 1.612-.067 2.095-.062.461-.169.659-.3.789-.13.13-.327.237-.788.3-.483.064-1.131.066-2.095.066H2a.75.75 0 000 1.5h2.052c.898 0 1.648 0 2.242-.08.628-.084 1.195-.27 1.65-.725.456-.456.642-1.023.726-1.65.08-.595.08-1.345.08-2.243V2zM4 16.75c.964 0 1.612.002 2.095.067.461.062.659.169.789.3.13.13.237.327.3.788.064.483.066 1.131.066 2.095v2a.75.75 0 001.5 0v-2.052c0-.899 0-1.648-.08-2.242-.084-.628-.27-1.195-.725-1.65-.456-.456-1.023-.642-1.65-.726-.595-.08-1.345-.08-2.243-.08H2a.75.75 0 000 1.5h2zm12-15.5a.75.75 0 01.75.75v2c0 .964.002 1.612.067 2.095.062.461.169.659.3.789.13.13.327.237.788.3.483.064 1.131.066 2.095.066h2a.75.75 0 010 1.5h-2.052c-.899 0-1.648 0-2.242-.08-.628-.084-1.195-.27-1.65-.725-.456-.456-.642-1.023-.726-1.65-.08-.595-.08-1.345-.08-2.243V2a.75.75 0 01.75-.75zm4 14h-.052c-.899 0-1.648 0-2.242.08-.628.084-1.195.27-1.65.725-.456.456-.642 1.023-.726 1.65-.08.595-.08 1.345-.08 2.243V22a.75.75 0 001.5 0v-2c0-.964.002-1.612.067-2.095.062-.461.169-.659.3-.789.13-.13.327-.237.788-.3.483-.064 1.131-.066 2.095-.066h2a.75.75 0 000-1.5h-2z"/>
</svg>
