<svg xmlns="http://www.w3.org/2000/svg" width="24" height="24" fill="currentColor" viewBox="0 0 24 24">
  <path fill-rule="evenodd" d="M17.03 3.97a.75.75 0 10-1.06 1.06l2.671 2.672c.682.682 1.139 1.14 1.434 1.528.283.37.347.586.347.77 0 .184-.064.4-.347.77-.295.387-.752.846-1.434 1.528L15.97 14.97a.75.75 0 101.06 1.06l2.672-2.671.037-.037c.635-.635 1.165-1.165 1.529-1.642.384-.504.654-1.036.654-1.68 0-.644-.27-1.176-.654-1.68-.364-.477-.894-1.007-1.53-1.642l-.036-.037L17.03 3.97zm-3.5.5a.75.75 0 10-1.06 1.06l3.72 3.72H7.944c-1.367 0-2.47 0-3.337.117-.9.12-1.658.38-2.26.981-.602.602-.86 1.36-.981 2.26-.117.867-.117 1.97-.117 3.337V17a.75.75 0 001.5 0v-1c0-1.435.002-2.437.103-3.192.099-.734.28-1.122.556-1.399.277-.277.665-.457 1.4-.556.754-.101 1.756-.103 3.191-.103h10a.75.75 0 00.53-1.28l-5-5zm2.5 8.56a.75.75 0 10-1.06-1.06l-2.5 2.5a.75.75 0 101.06 1.06l2.5-2.5z"/>
</svg>
