<svg xmlns="http://www.w3.org/2000/svg" width="24" height="24" fill="currentColor" viewBox="0 0 24 24">
  <path fill-rule="evenodd" d="M16.287 2.307A.75.75 0 0116.75 3v10.058c0 1.837 0 3.292-.153 4.431-.158 1.173-.49 2.121-1.238 2.87-.749.748-1.698 1.08-2.87 1.238-1.14.153-2.595.153-4.433.153H3a.75.75 0 010-1.5h5c1.907 0 3.261-.002 4.29-.14 1.005-.135 1.585-.389 2.008-.812.423-.423.677-1.003.812-2.009.138-1.027.14-2.381.14-4.288v-8.19l-3.72 3.72a.75.75 0 11-1.06-1.061l5-5a.75.75 0 01.817-.163zM17.97 4.97a.75.75 0 011.06 0l2.5 2.5a.75.75 0 01-1.06 1.06l-2.5-2.5a.75.75 0 010-1.06z"/>
</svg>
