<svg xmlns="http://www.w3.org/2000/svg" width="24" height="24" fill="currentColor" viewBox="0 0 24 24">
  <path fill-rule="evenodd" d="M11.364 1.25h-.049c-1.485 0-2.667 0-3.612.114-.975.118-1.782.365-2.478.919-.696.553-1.118 1.284-1.452 2.208-.324.895-.59 2.047-.924 3.494l-.01.047-1.365 5.912-.01.041c-.093.404-.153.665-.183.933-.031.269-.031.536-.031.95V17c0 .032.002.063.006.093-.006.236-.006.497-.006.791v.232c0 .818 0 1.376.128 1.855a3.75 3.75 0 002.651 2.651c.48.128 1.037.128 1.855.128h12.232c.818 0 1.376 0 1.855-.128a3.75 3.75 0 002.651-2.651c.128-.48.128-1.037.128-1.855v-.232c0-.294 0-.555-.006-.791A.77.77 0 0022.75 17v-1.132c0-.414 0-.682-.03-.95-.031-.268-.091-.529-.184-.933l-.01-.041-.95-4.113a.75.75 0 10-1.46.338l.837 3.63a3.748 3.748 0 00-.982-.421c-.48-.129-1.037-.128-1.855-.128H5.884c-.818 0-1.376 0-1.855.128-.35.094-.68.237-.982.42L4.3 8.37C4.647 6.865 4.894 5.8 5.183 5c.282-.78.578-1.228.976-1.544.397-.317.9-.504 1.724-.604.845-.102 1.936-.103 3.481-.103h1.272c1.545 0 2.636.001 3.48.103.825.1 1.328.287 1.725.604.573.455.924 1.172 1.336 2.734a.75.75 0 001.45-.382c-.416-1.58-.861-2.738-1.852-3.526-.696-.554-1.503-.801-2.478-.919-.945-.114-2.127-.114-3.612-.114h-1.32zM7 19a1 1 0 100-2 1 1 0 000 2zm3.25-1a.75.75 0 01.75-.75h6a.75.75 0 010 1.5h-6a.75.75 0 01-.75-.75zm-5.832-3.173c.262-.07.604-.077 1.582-.077h12c.978 0 1.32.006 1.582.077a2.25 2.25 0 011.591 1.59c.07.263.077.605.077 1.583s-.006 1.32-.077 1.582a2.25 2.25 0 01-1.59 1.591c-.263.07-.605.077-1.583.077H6c-.978 0-1.32-.006-1.582-.077a2.25 2.25 0 01-1.591-1.59c-.07-.263-.077-.605-.077-1.583s.006-1.32.077-1.582a2.25 2.25 0 011.59-1.591z"/>
</svg>
