<svg xmlns="http://www.w3.org/2000/svg" width="24" height="24" fill="currentColor" viewBox="0 0 24 24">
  <path fill-rule="evenodd" d="M5.624 2.584a.75.75 0 01-.208 1.04L3.84 4.674c-.56.373-.706.48-.807.603a1.25 1.25 0 00-.23.43c-.047.153-.054.333-.054 1.006V8a.75.75 0 11-1.5 0V6.619c0-.534-.001-.955.118-1.348a2.75 2.75 0 01.507-.947c.261-.317.61-.55 1.056-.846l.078-.052 1.575-1.05a.75.75 0 011.04.208zm12.752 0a.75.75 0 011.04-.208l1.575 1.05.078.052c.445.296.794.529 1.055.846.23.28.402.601.507.947.12.393.12.814.119 1.348V8a.75.75 0 01-1.5 0V6.713c0-.673-.008-.853-.054-1.006a1.248 1.248 0 00-.23-.43c-.102-.123-.248-.23-.807-.603l-1.575-1.05a.75.75 0 01-.208-1.04zM8 8.25h-.08c-.853 0-1.372 0-1.82.07a5.75 5.75 0 00-4.78 4.78c-.07.448-.07.967-.07 1.82v.16c0 .853 0 1.372.07 1.82a5.75 5.75 0 004.78 4.78c.448.07.967.07 1.82.07h8.16c.853 0 1.372 0 1.82-.07a5.75 5.75 0 004.78-4.78c.07-.448.07-.967.07-1.82v-.16c0-.853 0-1.372-.07-1.82a5.75 5.75 0 00-4.78-4.78c-.448-.07-.967-.07-1.82-.07H8zM6.335 9.802c.316-.05.707-.052 1.665-.052h8c.958 0 1.35.002 1.665.052a4.25 4.25 0 013.533 3.533c.05.316.052.707.052 1.665 0 .958-.002 1.35-.052 1.665a4.25 4.25 0 01-3.533 3.533c-.316.05-.707.052-1.665.052H8c-.958 0-1.35-.002-1.665-.052a4.25 4.25 0 01-3.533-3.533c-.05-.316-.052-.707-.052-1.665 0-.958.002-1.35.052-1.665a4.25 4.25 0 013.533-3.533zM8 13.75A1.25 1.25 0 109.25 15a.75.75 0 111.5 0A2.75 2.75 0 118 12.25a.75.75 0 010 1.5zM14.75 15a1.25 1.25 0 112.5 0 1.25 1.25 0 01-2.5 0zM16 12.25a2.75 2.75 0 100 5.5 2.75 2.75 0 000-5.5z"/>
</svg>
