<svg xmlns="http://www.w3.org/2000/svg" width="24" height="24" fill="currentColor" viewBox="0 0 24 24">
  <path fill-rule="evenodd" d="M12 2.75A9.25 9.25 0 1021.25 12a9.209 9.209 0 00-.987-4.162.75.75 0 111.34-.676A10.707 10.707 0 0122.75 12c0 3.935-2.115 7.377-5.27 9.25H22a.75.75 0 010 1.5H12C6.063 22.75 1.25 17.937 1.25 12S6.063 1.25 12 1.25c2.183 0 4.216.652 5.913 1.771a.75.75 0 11-.826 1.252A9.204 9.204 0 0012 2.75zM10.75 12c0-.69.56-1.25 1.25-1.25a.75.75 0 000-1.5A2.75 2.75 0 1014.75 12a.75.75 0 00-1.5 0 1.25 1.25 0 11-2.5 0zM13 6a1 1 0 11-2 0 1 1 0 012 0zm-7 7a1 1 0 100-2 1 1 0 000 2zm13-1a1 1 0 11-2 0 1 1 0 012 0zm-7 7a1 1 0 100-2 1 1 0 000 2z"/>
</svg>
