<svg xmlns="http://www.w3.org/2000/svg" width="24" height="24" fill="currentColor" viewBox="0 0 24 24">
  <path fill-rule="evenodd" d="M12.53 1.47a.75.75 0 00-1.06 0l-3 3a.75.75 0 001.06 1.06l1.72-1.72V11a.75.75 0 001.5 0V3.81l1.72 1.72a.75.75 0 101.06-1.06l-3-3zm3.886 7.28c.74 0 .995.004 1.216.053.496.11.941.385 1.261.78.143.175.26.401.592 1.064l.254.508c.268.536.385.77.481 1.004a7.25 7.25 0 01.442 4.024c-.044.249-.107.504-.252 1.085-.187.747-.264 1.05-.365 1.303a4.25 4.25 0 01-3.383 2.641c-.27.036-.583.038-1.353.038H8.64c-.72 0-1.012-.001-1.264-.033a4.25 4.25 0 01-3.434-2.681c-.092-.237-.164-.52-.339-1.218l-.125-.5a.75.75 0 00-1.455.364l.125.5.015.057c.155.623.25 1.003.38 1.339a5.75 5.75 0 004.646 3.627c.357.045.75.045 1.391.045h6.794c.687 0 1.107 0 1.489-.051a5.75 5.75 0 004.577-3.574c.142-.358.244-.766.41-1.432l.016-.062-.727-.181.727.181.008-.031c.135-.54.212-.85.267-1.158a8.75 8.75 0 00-.534-4.856c-.119-.289-.262-.574-.51-1.073l-.015-.029-.255-.508-.037-.075c-.28-.559-.472-.944-.73-1.263a3.75 3.75 0 00-2.103-1.3c-.401-.088-.832-.088-1.456-.088h-1a.75.75 0 000 1.5h.916zm-8.973-1.5h-.067c-.504 0-.852 0-1.178.058a3.75 3.75 0 00-2.353 1.454c-.198.266-.353.576-.578 1.027l-.03.061-.478.955c-.906 1.812.412 3.945 2.438 3.945.768 0 .973.01 1.145.07.122.043.237.104.34.182.146.11.268.275.694.914l.06.089c.337.508.603.907.978 1.19.227.172.48.307.749.401.443.155.923.155 1.533.154H13.304c.61 0 1.09.001 1.533-.154.269-.094.522-.23.75-.401.374-.283.64-.683.978-1.19l.059-.089c.426-.64.548-.804.693-.914.104-.078.218-.14.34-.182.055-.019.184-.044.44-.057.244-.013.54-.013.903-.013a.75.75 0 000-1.5h-.015c-.345 0-.68 0-.967.015-.28.015-.589.046-.855.139-.27.094-.522.23-.75.401-.374.283-.64.683-.978 1.19l-.06.089c-.425.64-.547.804-.693.914-.103.078-.218.14-.34.182-.172.06-.377.07-1.145.07h-2.394c-.769 0-.973-.01-1.145-.07a1.247 1.247 0 01-.34-.182c-.146-.11-.268-.275-.694-.914l-.06-.09c-.337-.506-.603-.906-.978-1.189a2.749 2.749 0 00-.75-.401c-.443-.155-.922-.155-1.532-.154h-.107c-.911 0-1.504-.96-1.096-1.774l.477-.955c.267-.535.362-.717.47-.864a2.25 2.25 0 011.412-.872c.18-.032.386-.035.983-.035H8.5a.75.75 0 100-1.5H7.443z"/>
</svg>
