<svg xmlns="http://www.w3.org/2000/svg" width="24" height="24" fill="currentColor" viewBox="0 0 24 24">
  <path fill-rule="evenodd" d="M8.03 5.03a.75.75 0 10-1.06-1.06L4.298 6.64l-.037.037c-.635.635-1.165 1.165-1.529 1.642-.384.504-.653 1.036-.653 1.68 0 .644.269 1.176.653 1.68.364.477.894 1.007 1.53 1.642l.036.037L6.97 16.03a.75.75 0 101.06-1.06L5.36 12.297c-.682-.681-1.139-1.14-1.434-1.528-.283-.37-.346-.586-.346-.77 0-.184.063-.4.346-.77.295-.387.752-.846 1.434-1.528L8.03 5.03zm3.5.5a.75.75 0 00-1.06-1.06l-5 5A.75.75 0 006 10.75h10c1.435 0 2.436.002 3.192.103.734.099 1.122.28 1.399.556.277.277.457.665.556 1.4.101.755.103 1.756.103 3.191v1a.75.75 0 001.5 0v-1.055c0-1.367 0-2.47-.116-3.337-.122-.9-.38-1.658-.982-2.26-.602-.602-1.36-.86-2.26-.981-.867-.117-1.97-.117-3.337-.117H7.81l3.72-3.72zm-2.5 6.44a.75.75 0 00-1.06 1.06l2.5 2.5a.75.75 0 101.06-1.06l-2.5-2.5z"/>
</svg>
