<svg xmlns="http://www.w3.org/2000/svg" width="24" height="24" fill="currentColor" viewBox="0 0 24 24">
  <path fill-rule="evenodd" d="M8.494 6.23c-.787-.49-1.458-.878-2.051-1.13-.597-.254-1.176-.398-1.764-.332a3.75 3.75 0 00-2.49 1.36c-.48.59-.666 1.363-.754 2.267-.087.902-.087 2.075-.087 3.562v.086c0 1.487 0 2.66.087 3.562.088.904.274 1.677.754 2.267a3.75 3.75 0 002.49 1.36c.757.085 1.507-.178 2.315-.592.806-.414 1.793-1.048 3.044-1.853l.036-.023.487-.313c.116.546.306 1.025.628 1.421a3.75 3.75 0 002.49 1.36c.757.085 1.508-.178 2.315-.592.806-.414 1.793-1.048 3.044-1.853l.036-.023.035-.022c1.082-.696 1.942-1.249 2.57-1.744.636-.502 1.13-1.016 1.378-1.67a3.75 3.75 0 000-2.656c-.211-.558-.6-1.01-1.098-1.44-.493-.424-1.148-.87-1.952-1.394a.75.75 0 00-.819 1.257c.809.527 1.384.923 1.792 1.274.404.348.587.605.674.834a2.25 2.25 0 010 1.594c-.103.271-.34.578-.904 1.023-.564.445-1.362.959-2.487 1.682-1.295.833-2.22 1.427-2.954 1.803-.739.38-1.159.47-1.462.436a2.25 2.25 0 01-1.494-.816c-.193-.236-.344-.639-.425-1.466-.08-.82-.08-1.92-.08-3.459 0-1.54 0-2.64.08-3.46.08-.826.232-1.229.425-1.465a2.25 2.25 0 011.494-.816c.368-.041.886.1 1.882.663a.75.75 0 10.737-1.306c-1.008-.57-1.9-.947-2.787-.848a3.75 3.75 0 00-2.49 1.36c-.48.59-.666 1.363-.754 2.267-.087.902-.087 2.075-.087 3.562v.086c0 1.071 0 1.98.032 2.74l-1.117.72c-1.295.832-2.22 1.426-2.954 1.802-.739.38-1.159.47-1.462.436a2.25 2.25 0 01-1.494-.816c-.193-.236-.344-.639-.425-1.466-.08-.82-.08-1.92-.08-3.459 0-1.54 0-2.64.08-3.46.08-.826.232-1.229.425-1.465a2.25 2.25 0 011.494-.816c.23-.026.534.02 1.008.221.478.203 1.066.538 1.847 1.024a.75.75 0 10.792-1.274z"/>
</svg>
