<svg xmlns="http://www.w3.org/2000/svg" width="24" height="24" fill="currentColor" viewBox="0 0 24 24">
  <path fill-rule="evenodd" d="M20 4a1 1 0 100-2 1 1 0 000 2zm-7 4a1 1 0 11-2 0 1 1 0 012 0zm8 5a1 1 0 100-2 1 1 0 000 2zm-1 3a1 1 0 11-2 0 1 1 0 012 0zM4 22a1 1 0 100-2 1 1 0 000 2zm5-1a1 1 0 11-2 0 1 1 0 012 0zm3 1a1 1 0 100-2 1 1 0 000 2zm5-1a1 1 0 11-2 0 1 1 0 012 0zm4 0a1 1 0 11-2 0 1 1 0 012 0zm-9-4a1 1 0 100-2 1 1 0 000 2zm-6-1a1 1 0 11-2 0 1 1 0 012 0zm11-4a1 1 0 11-2 0 1 1 0 012 0zm-5 1a1 1 0 100-2 1 1 0 000 2zm-4 0a1 1 0 100-2 1 1 0 000 2zm-4-1a1 1 0 11-2 0 1 1 0 012 0zm15-3a1 1 0 100-2 1 1 0 000 2zM6 8a1 1 0 11-2 0 1 1 0 012 0zm11-5a1 1 0 11-2 0 1 1 0 012 0zm-5 1a1 1 0 100-2 1 1 0 000 2zM9 3a1 1 0 11-2 0 1 1 0 012 0zM4 4a1 1 0 100-2 1 1 0 000 2z"/>
</svg>
