<svg xmlns="http://www.w3.org/2000/svg" width="24" height="24" fill="currentColor" viewBox="0 0 24 24">
  <path fill-rule="evenodd" d="M3.53 2.47A.75.75 0 002.25 3v4a.75.75 0 001.5 0V4.81l2.72 2.72 2 2a.75.75 0 001.06-1.06l-2-2-4-4zM6 3.75h1.5a.75.75 0 000-1.5H6a.75.75 0 000 1.5zm9.53 10.72a.75.75 0 10-1.06 1.06l2 2 4 4a.75.75 0 001.28-.53v-4a.75.75 0 00-1.5 0v2.19l-2.72-2.72-2-2zm.97 5.78a.75.75 0 000 1.5H18a.75.75 0 000-1.5h-1.5zm.5-18a.75.75 0 000 1.5h2.19l-2.72 2.72-2 2a.75.75 0 001.06 1.06l2-2 4-4A.75.75 0 0021 2.25h-4zM21.75 6a.75.75 0 00-1.5 0v1.5a.75.75 0 001.5 0V6zM9.53 15.53a.75.75 0 10-1.06-1.06l-2 2-4 4A.75.75 0 003 21.75h4a.75.75 0 000-1.5H4.81l2.72-2.72 2-2zm-5.78.97a.75.75 0 00-1.5 0V18a.75.75 0 001.5 0v-1.5z"/>
</svg>
