<svg xmlns="http://www.w3.org/2000/svg" width="24" height="24" fill="currentColor" viewBox="0 0 24 24">
  <path fill-rule="evenodd" d="M5.75 2a.75.75 0 00-1.5 0v2.25H2a.75.75 0 000 1.5h2.25v12.5H2a.75.75 0 000 1.5h2.25V22a.75.75 0 001.5 0v-2.25H9a.75.75 0 000-1.5H5.75V5.75h12.5V12a.75.75 0 001.5 0V5.75H22a.75.75 0 000-1.5h-2.25V2a.75.75 0 00-1.5 0v2.25H5.75V2zM19 15.25a.75.75 0 01.75.75v2.25H22a.75.75 0 010 1.5h-2.25V22a.75.75 0 01-1.5 0v-2.25H13a.75.75 0 110-1.5h5.25V16a.75.75 0 01.75-.75z"/>
</svg>
