<svg xmlns="http://www.w3.org/2000/svg" width="24" height="24" fill="currentColor" viewBox="0 0 24 24">
  <path fill-rule="evenodd" d="M15.5 2.75a1.75 1.75 0 1 1 0 3.5h-2.492l.659-2.196A1.83 1.83 0 0 1 15.42 2.75h.08Zm3.25 1.75c0 .644-.188 1.245-.51 1.75H20c.966 0 1.75.784 1.75 1.75v2A1.75 1.75 0 0 1 20 11.75h-.25V19A2.75 2.75 0 0 1 17 21.75H7A2.75 2.75 0 0 1 4.25 19v-7.25H4A1.75 1.75 0 0 1 2.25 10V8c0-.966.784-1.75 1.75-1.75h1.76a3.25 3.25 0 0 1 2.74-5h.08a3.33 3.33 0 0 1 3.19 2.373l.23.767.23-.767a3.33 3.33 0 0 1 3.19-2.373h.08a3.25 3.25 0 0 1 3.25 3.25ZM5 10.25h6.25v-2.5H4a.25.25 0 0 0-.25.25v2c0 .138.112.25.25.25h1Zm7.75 0H20a.25.25 0 0 0 .25-.25V8a.25.25 0 0 0-.25-.25h-7.25v2.5Zm-7 1.5V19c0 .69.56 1.25 1.25 1.25h4.25v-8.5h-5.5Zm7 0v8.5H17c.69 0 1.25-.56 1.25-1.25v-7.25h-5.5Zm-1.758-5.5-.659-2.196A1.83 1.83 0 0 0 8.58 2.75H8.5a1.75 1.75 0 1 0 0 3.5h2.492Z" clip-rule="evenodd"/>
</svg>
