<svg xmlns="http://www.w3.org/2000/svg" width="24" height="24" fill="currentColor" viewBox="0 0 24 24">
  <path fill-rule="evenodd" d="M11.614 3.64a1.25 1.25 0 0 1 .772 0c.097.031.224.098.443.285.227.192.499.463.903.868l4.518 4.518V16.2c0 .852 0 1.447-.038 1.91-.038.453-.107.714-.207.911a2.25 2.25 0 0 1-.983.984c-.198.1-.459.17-.913.207-.462.037-1.057.038-1.909.038H9.8c-.852 0-1.447 0-1.91-.038-.453-.038-.714-.107-.911-.207a2.25 2.25 0 0 1-.984-.984c-.1-.197-.17-.458-.207-.912-.037-.462-.038-1.057-.038-1.91V9.312l4.518-4.518c.404-.405.676-.676.903-.868.22-.187.346-.254.443-.285ZM4.469 8.47l-3 3a.75.75 0 0 0 1.061 1.06l1.72-1.72v5.422c0 .813 0 1.469.043 2 .045.546.14 1.026.366 1.47a3.75 3.75 0 0 0 1.639 1.64c.444.226.924.32 1.47.365.531.043 1.187.043 2 .043h4.464c.813 0 1.469 0 2-.043.546-.045 1.026-.14 1.47-.366a3.75 3.75 0 0 0 1.64-1.639c.226-.444.32-.924.365-1.47.043-.531.043-1.187.043-2V10.81l1.72 1.72a.75.75 0 1 0 1.06-1.06l-7.737-7.738-.021-.021a17.789 17.789 0 0 0-.972-.93c-.29-.246-.59-.451-.95-.568a2.75 2.75 0 0 0-1.7 0c-.36.117-.66.322-.95.568-.279.237-.594.552-.972.93l-.021.021L4.47 8.47v.001Z" clip-rule="evenodd"/>
</svg>
