<svg xmlns="http://www.w3.org/2000/svg" width="24" height="24" fill="currentColor" viewBox="0 0 24 24">
  <path fill-rule="evenodd" d="M9.367 2.25H12a.75.75 0 0 1 0 1.5H9.4c-1.132 0-1.937 0-2.566.052-.62.05-1.005.147-1.31.302a3.25 3.25 0 0 0-1.42 1.42c-.155.305-.251.69-.302 1.31-.051.63-.052 1.434-.052 2.566v5.2c0 1.117 0 1.914.05 2.54l.67-.67 3.085-3.086a2.75 2.75 0 0 1 3.89 0L14 15.939l1.056-1.055a2.75 2.75 0 0 1 3.889 0l1.296 1.297c.009-.447.009-.965.009-1.581V12a.75.75 0 0 1 1.5 0v2.633c0 1.092 0 1.958-.057 2.655-.058.714-.18 1.317-.46 1.869a4.75 4.75 0 0 1-2.076 2.075c-.552.281-1.155.403-1.869.461-.697.057-1.563.057-2.655.057H9.367c-1.092 0-1.958 0-2.655-.057-.714-.058-1.317-.18-1.868-.46a4.75 4.75 0 0 1-2.076-2.076c-.281-.552-.403-1.155-.461-1.869-.057-.697-.057-1.563-.057-2.655V9.367c0-1.092 0-1.958.057-2.655.058-.714.18-1.317.46-1.868a4.75 4.75 0 0 1 2.077-2.076c.55-.281 1.154-.403 1.868-.461.697-.057 1.563-.057 2.655-.057ZM5.525 19.896A3.25 3.25 0 0 1 4.28 18.78l1.25-1.25 3.085-3.086a1.25 1.25 0 0 1 1.768 0l3.086 3.086 2.71 2.711c-.446.009-.964.009-1.58.009H9.4c-1.132 0-1.937 0-2.566-.052-.62-.05-1.005-.147-1.31-.302Zm12.95 0a2.188 2.188 0 0 1-.379.149.747.747 0 0 0-.066-.075L15.06 17l1.056-1.056a1.25 1.25 0 0 1 1.768 0l2.086 2.086a.747.747 0 0 0 .075.066 2.188 2.188 0 0 1-.15.38 3.25 3.25 0 0 1-1.42 1.42ZM18.53 4.53a.664.664 0 0 1 .94.94L17.34 7.6c-.528.527-.73.725-.953.88-.21.147-.435.268-.672.36-.185.073-.382.124-.757.202.078-.375.129-.572.201-.757.093-.237.214-.463.36-.672.156-.223.354-.425.882-.953l2.13-2.13Zm2-1.06a2.164 2.164 0 0 0-3.06 0L15.34 5.6l-.048.048c-.464.463-.762.762-1.003 1.107a4.74 4.74 0 0 0-.526.983c-.154.391-.237.806-.365 1.448l-.014.067-.12.6a.75.75 0 0 0 .883.882l.6-.12.067-.013c.642-.128 1.057-.211 1.448-.365.348-.136.677-.312.983-.526.345-.24.644-.54 1.107-1.003l.049-.048 2.13-2.13a2.164 2.164 0 0 0 0-3.06Z" clip-rule="evenodd"/>
</svg>
