<svg xmlns="http://www.w3.org/2000/svg" width="24" height="24" fill="currentColor" viewBox="0 0 24 24">
  <path fill-rule="evenodd" d="M11.696 2.315a.75.75 0 0 1 .609 0l9 4a.75.75 0 0 1 0 1.37l-9 4a.75.75 0 0 1-.61 0l-9-4a.75.75 0 0 1 0-1.37l9-4ZM4.846 7 12 10.18 19.154 7 12 3.82 4.847 7Zm-2.531 4.695a.75.75 0 0 1 .99-.38L12 15.179l8.696-3.864a.75.75 0 0 1 .609 1.37l-9 4a.75.75 0 0 1-.61 0l-9-4a.75.75 0 0 1-.38-.99Zm.99 4.62a.75.75 0 0 0-.61 1.37l9 4a.75.75 0 0 0 .61 0l9-4a.75.75 0 0 0-.61-1.37L12 20.179l-8.695-3.864Z" clip-rule="evenodd"/>
</svg>
