<svg xmlns="http://www.w3.org/2000/svg" width="24" height="24" fill="currentColor" viewBox="0 0 24 24">
  <path fill-rule="evenodd" d="M9.966 1.25h4.068c1.371 0 2.447 0 3.311.07.88.073 1.607.221 2.265.557a5.75 5.75 0 012.513 2.513c.336.658.485 1.385.556 2.265.071.864.071 1.94.071 3.311v4.068c0 1.371 0 2.447-.07 3.311-.072.88-.221 1.607-.557 2.265a5.75 5.75 0 01-2.513 2.513c-.658.336-1.385.485-2.265.556-.864.071-1.94.071-3.311.071H9.966c-1.371 0-2.447 0-3.311-.07-.88-.072-1.607-.221-2.265-.557a5.75 5.75 0 01-2.513-2.513c-.336-.658-.484-1.385-.556-2.265-.071-.864-.071-1.94-.071-3.311V9.966c0-1.371 0-2.447.07-3.311.073-.88.221-1.607.557-2.265A5.75 5.75 0 014.39 1.877c.658-.336 1.385-.484 2.265-.556.864-.071 1.94-.071 3.311-.071zM6.777 2.816c-.787.064-1.295.188-1.706.397a4.25 4.25 0 00-1.858 1.858c-.21.411-.333.919-.397 1.706-.065.796-.066 1.81-.066 3.223v4c0 1.412 0 2.427.066 3.223.064.787.188 1.295.397 1.707a4.25 4.25 0 001.858 1.857c.411.21.919.333 1.706.397.796.065 1.81.066 3.223.066h4c1.412 0 2.427 0 3.223-.066.787-.064 1.295-.188 1.707-.397a4.251 4.251 0 001.857-1.857c.21-.412.333-.92.397-1.707.065-.796.066-1.81.066-3.223v-4c0-1.413 0-2.427-.066-3.223-.064-.787-.188-1.295-.397-1.706a4.25 4.25 0 00-1.857-1.858c-.412-.21-.92-.333-1.707-.397-.796-.065-1.81-.066-3.223-.066h-4c-1.413 0-2.427 0-3.223.066zM11.47 7.47a.75.75 0 011.06 0l3 3a.75.75 0 010 1.06l-3 3a.75.75 0 11-1.06-1.06l1.72-1.72h-2.523c-.789 0-1.339 0-1.768.033-.421.032-.665.091-.85.178a2.25 2.25 0 00-1.088 1.088c-.087.185-.146.429-.178.85-.033.43-.033.979-.033 1.768V16a.75.75 0 01-1.5 0v-.363c0-.752 0-1.359.037-1.851.039-.507.12-.953.314-1.37A3.75 3.75 0 017.415 10.6c.418-.194.864-.275 1.37-.314.493-.037 1.1-.037 1.852-.037H13.19l-1.72-1.72a.75.75 0 010-1.06zm5.06 0a.75.75 0 10-1.06 1.06l.737.738c.405.404.676.676.868.903.187.22.254.346.285.443a1.25 1.25 0 010 .772c-.031.097-.098.224-.285.443-.192.227-.463.499-.868.903l-.737.738a.75.75 0 101.06 1.06l.738-.737.021-.021c.378-.378.693-.693.93-.972.246-.29.451-.59.568-.95a2.75 2.75 0 000-1.7c-.117-.36-.322-.66-.568-.95-.237-.279-.552-.594-.93-.972l-.021-.021-.738-.737z"/>
</svg>
