<svg xmlns="http://www.w3.org/2000/svg" width="24" height="24" fill="currentColor" viewBox="0 0 24 24">
  <path fill-rule="evenodd" d="M12.75 7V2.319c.058.053.123.118.198.199.254.275.554.665.994 1.237l4.037 5.248c.614.798 1.048 1.363 1.357 1.835.303.464.452.79.521 1.097a3.25 3.25 0 01-.12 1.844c-.108.295-.298.6-.659 1.02-.366.428-.87.932-1.582 1.644L15.69 18.25H8.311l-1.807-1.807c-.712-.712-1.216-1.216-1.582-1.644-.361-.42-.55-.725-.66-1.02a3.25 3.25 0 01-.12-1.844c.07-.307.22-.633.522-1.097.309-.472.743-1.037 1.357-1.835l4.037-5.248c.44-.572.74-.962.994-1.237a3.2 3.2 0 01.198-.2V7a.75.75 0 001.5 0zm-6.3 11.51l-1.007-1.006-.022-.022c-.685-.685-1.23-1.23-1.638-1.707-.42-.489-.733-.949-.928-1.478a4.75 4.75 0 01-.175-2.694c.125-.55.376-1.046.729-1.585.343-.526.813-1.137 1.404-1.905l.019-.024L8.869 2.84l.021-.027c.414-.538.754-.98 1.059-1.311.313-.34.646-.628 1.067-.79a2.75 2.75 0 011.968 0c.421.162.754.45 1.067.79.305.33.645.773 1.059 1.31l.02.028 4.038 5.249.019.024c.59.768 1.06 1.379 1.404 1.905.352.539.604 1.035.73 1.585a4.75 4.75 0 01-.176 2.694c-.195.53-.509.99-.928 1.478-.408.477-.953 1.022-1.639 1.707l-.021.022-1.006 1.006a2.25 2.25 0 01-1.051 4.24h-9a2.25 2.25 0 01-1.05-4.24zM8 19.75h-.5a.75.75 0 000 1.5h9a.75.75 0 000-1.5H8zM10.75 12a1.25 1.25 0 112.5 0 1.25 1.25 0 01-2.5 0zM12 9.25a2.75 2.75 0 100 5.5 2.75 2.75 0 000-5.5z"/>
</svg>
