<svg xmlns="http://www.w3.org/2000/svg" width="24" height="24" fill="currentColor" viewBox="0 0 24 24">
  <path fill-rule="evenodd" d="M7.118 1.25h-.03c-.705 0-1.277 0-1.745.036-.483.036-.91.114-1.317.298a3.75 3.75 0 00-1.593 1.367c-.244.374-.385.784-.495 1.256-.107.457-.194 1.022-.301 1.72l-.004.03-.524 3.4-.005.033c-.142.924-.256 1.665-.296 2.266-.041.616-.012 1.164.185 1.68a3.75 3.75 0 001.65 1.924c.48.273 1.018.385 1.633.438.6.052 1.35.052 2.284.052h1.901c.258 0 .319.001.35.005a.75.75 0 01.633.96c-.01.03-.032.086-.133.323l-1.072 2.5a2.304 2.304 0 003.746 2.537l4.733-4.733.073-.073c.969-.968 1.546-1.546 1.964-2.227.37-.604.643-1.263.809-1.951.186-.778.186-1.595.186-2.964V6.768c0-.813 0-1.469-.043-2-.045-.546-.14-1.026-.366-1.47a3.75 3.75 0 00-1.639-1.64c-.444-.226-.924-.32-1.47-.365-.531-.043-1.187-.043-2-.043H7.118zm-2.473 1.7c.184-.083.417-.139.812-.169.404-.03.919-.031 1.661-.031H14.2c.852 0 1.447 0 1.91.038.453.037.714.107.912.207.423.216.767.56.983.984.1.197.17.458.207.912.037.462.038 1.057.038 1.909v3.224c0 1.503-.005 2.132-.145 2.716a5.25 5.25 0 01-.629 1.518c-.313.512-.755.96-1.818 2.023l-4.733 4.734a.804.804 0 01-1.307-.885l1.071-2.501.018-.04c.074-.174.137-.32.174-.445a2.25 2.25 0 00-1.899-2.88c-.13-.014-.287-.014-.476-.014H6.595c-.977 0-1.662 0-2.19-.046-.522-.045-.811-.13-1.02-.248a2.25 2.25 0 01-.99-1.154c-.086-.225-.125-.524-.09-1.046.035-.53.138-1.206.287-2.172l.523-3.4c.113-.733.192-1.242.284-1.637.09-.385.18-.607.29-.776a2.25 2.25 0 01.956-.82zM21.25 15a.75.75 0 001.5 0V3a.75.75 0 00-1.5 0v12z"/>
</svg>
