<svg xmlns="http://www.w3.org/2000/svg" width="24" height="24" fill="currentColor" viewBox="0 0 24 24">
  <path fill-rule="evenodd" d="M9.388 3.171c-2.844.985-4.496 3.547-5.462 6.045-.481 1.244-.612 1.636-.477 2.26.044.201.173.487.371.777.199.29.42.513.592.627.523.344 1.081.37 2.805.37h.042c.061-2.595.435-5.342 1.085-7.526.284-.957.63-1.835 1.044-2.553zM12 2.75c-.267 0-.633.171-1.068.785-.425.6-.818 1.497-1.15 2.616-.602 2.024-.962 4.622-1.023 7.099H15.242c-.057-2.69-.418-5.304-1.022-7.28-.331-1.085-.722-1.93-1.14-2.489-.422-.562-.788-.731-1.08-.731zm4.742 10.5c-.056-2.8-.43-5.57-1.087-7.72-.267-.874-.59-1.671-.972-2.334 2.8 1.003 4.433 3.543 5.391 6.02.481 1.244.612 1.636.477 2.26-.044.201-.173.487-.371.777-.199.29-.42.513-.592.627-.523.344-1.081.37-2.805.37h-.04zM16 14.75h-3.25V20a2.75 2.75 0 11-5.5 0v-1a.75.75 0 011.5 0v1a1.25 1.25 0 102.5 0v-5.25H7.039c-1.47.001-2.51.002-3.452-.617-.385-.254-.736-.64-1.004-1.032-.268-.391-.502-.858-.6-1.309-.238-1.099.072-1.899.504-3.015l.04-.102C3.833 5.298 6.55 1.25 12 1.25c5.449 0 8.167 4.048 9.473 7.425l.04.102c.432 1.116.741 1.916.504 3.015-.098.451-.332.918-.6 1.31-.268.39-.619.777-1.004 1.03-.941.62-1.981.619-3.452.618H16z"/>
</svg>
