<svg xmlns="http://www.w3.org/2000/svg" width="24" height="24" fill="currentColor" viewBox="0 0 24 24">
  <path fill-rule="evenodd" d="M18 3.75c.513 0 .623.006.694.026a.75.75 0 01.53.53c.02.071.026.18.026.694v1a.75.75 0 001.5 0V4.916c0-.38 0-.71-.077-.998a2.25 2.25 0 00-1.59-1.591c-.29-.078-.618-.077-1-.077H8.5a.75.75 0 000 1.5h2.75V7a.75.75 0 001.5 0V3.75H18zm-5.25 10.06v6.44H16a.75.75 0 010 1.5H8a.75.75 0 010-1.5h3.25v-7.94L3.47 4.53a.75.75 0 011.06-1.06l16 16a.75.75 0 11-1.06 1.06l-6.72-6.72z"/>
</svg>
