<svg xmlns="http://www.w3.org/2000/svg" width="24" height="24" fill="currentColor" viewBox="0 0 24 24">
  <path fill-rule="evenodd" d="M7.242 7.593c1.017-.653 1.735-1.115 2.303-1.41.574-.299.878-.364 1.08-.35.506.037.972.291 1.276.697.12.162.23.453.29 1.097.058.638.059 1.492.059 2.7v3.346c0 1.208 0 2.062-.06 2.7-.058.644-.168.935-.29 1.097a1.75 1.75 0 01-1.275.696c-.202.015-.506-.05-1.08-.349-.568-.295-1.286-.757-2.303-1.41L4.64 14.734c-.884-.568-1.502-.967-1.942-1.31-.44-.342-.611-.564-.687-.743a1.75 1.75 0 010-1.362c.076-.18.247-.4.687-.744.44-.342 1.058-.741 1.942-1.309l2.602-1.673zm3.49-3.256c-.63-.044-1.242.183-1.88.515-.635.331-1.412.83-2.387 1.458l-.034.021-2.603 1.673-.032.02c-.843.543-1.52.979-2.02 1.369-.507.395-.921.809-1.147 1.342a3.25 3.25 0 000 2.53c.226.533.64.947 1.146 1.342.5.39 1.178.826 2.021 1.368l.032.02 2.603 1.674.033.021c.976.627 1.753 1.127 2.389 1.458.637.332 1.25.56 1.879.515a3.25 3.25 0 002.37-1.294c.371-.497.512-1.123.58-1.825l1.75 1.125.032.021c.976.627 1.753 1.127 2.389 1.458.637.332 1.25.56 1.878.515a3.25 3.25 0 002.37-1.294c.378-.505.518-1.143.584-1.86.065-.713.065-1.636.065-2.796v-3.426c0-1.16 0-2.083-.066-2.797-.065-.716-.205-1.354-.582-1.859a3.25 3.25 0 00-2.37-1.294c-.63-.044-1.242.183-1.88.515-.635.331-1.412.83-2.388 1.458l-.033.021-1.75 1.125c-.067-.702-.208-1.328-.58-1.825a3.25 3.25 0 00-2.37-1.294zm3.016 4.86c.002.337.002.7.002 1.09v3.426c0 .39 0 .753-.002 1.09l2.495 1.604c1.016.653 1.734 1.115 2.302 1.41.574.299.878.364 1.08.35a1.75 1.75 0 001.276-.697c.12-.162.23-.453.29-1.097.058-.638.059-1.492.059-2.7v-3.346c0-1.208 0-2.062-.06-2.7-.058-.644-.168-.935-.29-1.097a1.75 1.75 0 00-1.275-.696c-.202-.015-.506.05-1.08.349-.568.295-1.286.757-2.303 1.41l-2.495 1.604z"/>
</svg>
