<svg xmlns="http://www.w3.org/2000/svg" width="24" height="24" fill="currentColor" viewBox="0 0 24 24">
  <path fill-rule="evenodd" d="M13.004 2.566a3.25 3.25 0 00-2.008 0c-.325.106-.665.31-1.14.712-.481.409-1.05.977-1.851 1.778l-4.69 4.69 1.391 6.962c.186.927.317 1.583.46 2.093.14.502.276.813.448 1.06a3.25 3.25 0 001.364 1.117c.275.12.607.194 1.126.232.529.04 1.197.04 2.143.04h3.506c.946 0 1.614 0 2.143-.04.52-.038.851-.112 1.126-.232a3.25 3.25 0 001.364-1.118c.172-.246.309-.557.448-1.059.143-.51.274-1.166.46-2.093l1.392-6.961-4.69-4.691c-.802-.801-1.37-1.37-1.852-1.778-.475-.403-.815-.606-1.14-.712zM.47 10.47l1.492-1.493a.708.708 0 01.016-.016l4.966-4.966.024-.023C7.74 3.2 8.352 2.588 8.885 2.135c.546-.464 1.059-.804 1.647-.996a4.75 4.75 0 012.936 0c.588.192 1.101.532 1.647.996.533.453 1.145 1.064 1.917 1.837l.024.023 4.966 4.966.008.008.008.008 1.492 1.493a.75.75 0 11-1.06 1.06l-.51-.509-1.196 5.981-.005.029c-.179.892-.32 1.602-.48 2.173-.163.586-.357 1.076-.663 1.515a4.75 4.75 0 01-1.993 1.634c-.49.214-1.01.308-1.616.353-.59.044-1.315.044-2.224.044H10.217c-.91 0-1.633 0-2.224-.044-.607-.045-1.125-.139-1.616-.353a4.75 4.75 0 01-1.993-1.634c-.306-.44-.5-.93-.663-1.515-.16-.571-.301-1.281-.48-2.173l-.005-.029-1.197-5.98-.509.508a.75.75 0 01-1.06-1.06zM9.75 12a2.25 2.25 0 114.5 0 2.25 2.25 0 01-4.5 0zM12 8.25a3.75 3.75 0 100 7.5 3.75 3.75 0 000-7.5z"/>
</svg>
