<svg xmlns="http://www.w3.org/2000/svg" width="24" height="24" fill="currentColor" viewBox="0 0 24 24">
  <path fill-rule="evenodd" d="M18.75 3.333c-.36.052-.826.161-1.511.322l-5.6 1.318c-.451.106-.75.177-.98.249-.22.069-.326.125-.399.178a1.25 1.25 0 00-.41.518c-.035.083-.065.199-.082.43-.018.239-.018.546-.018 1.01V19a3.75 3.75 0 11-1.5-3V7.332c0-.43 0-.793.022-1.094.023-.316.073-.614.197-.906a2.75 2.75 0 01.904-1.142c.257-.188.535-.304.837-.4.288-.09.64-.173 1.06-.271l.025-.006 5.6-1.318.034-.008c.643-.15 1.173-.276 1.608-.338.448-.065.879-.078 1.3.057a2.75 2.75 0 011.52 1.204c.229.38.315.802.355 1.253.038.437.038.982.038 1.643V16a3.75 3.75 0 11-1.5-3V6.04c0-.703 0-1.182-.033-1.545-.031-.358-.088-.518-.145-.613a1.25 1.25 0 00-.691-.548c-.107-.033-.275-.052-.63 0zM20.25 16a2.25 2.25 0 10-4.5 0 2.25 2.25 0 004.5 0zM6 16.75a2.25 2.25 0 110 4.5 2.25 2.25 0 010-4.5z"/>
</svg>
