<svg xmlns="http://www.w3.org/2000/svg" width="24" height="24" fill="currentColor" viewBox="0 0 24 24">
  <path fill-rule="evenodd" d="M8.75 1a.75.75 0 00-1.5 0v.367c-.89.095-1.636.273-2.314.619a6.75 6.75 0 00-2.95 2.95c-.39.765-.566 1.615-.652 2.662-.084 1.031-.084 2.317-.084 3.968V12.434c0 1.651 0 2.937.084 3.968.086 1.047.262 1.897.652 2.662a6.75 6.75 0 002.95 2.95c.765.39 1.615.566 2.662.652 1.031.084 2.316.084 3.968.084H12.434c1.652 0 2.937 0 3.968-.084 1.047-.086 1.897-.262 2.662-.652a6.75 6.75 0 002.95-2.95c.39-.765.566-1.615.652-2.662.084-1.031.084-2.317.084-3.968V11.566c0-1.652 0-2.937-.084-3.968-.086-1.047-.262-1.897-.652-2.662a6.75 6.75 0 00-2.95-2.95c-.678-.346-1.424-.524-2.314-.62V1a.75.75 0 00-1.5 0v.274a87.812 87.812 0 00-2.5-.024V1a.75.75 0 00-1.5 0v.25c-.952 0-1.777.002-2.5.024V1zm6.5 1.775a85.02 85.02 0 00-2.5-.025V4a.75.75 0 01-1.5 0V2.75c-.984 0-1.802.003-2.5.025V4a.75.75 0 01-1.5 0V2.877c-.7.086-1.205.227-1.633.445a5.25 5.25 0 00-2.295 2.295c-.264.518-.415 1.15-.493 2.103-.078.963-.079 2.187-.079 3.88v.8c0 1.692 0 2.917.08 3.88.077.954.228 1.585.492 2.103a5.25 5.25 0 002.295 2.295c.518.264 1.15.415 2.103.493.963.078 2.187.079 3.88.079h.8c1.692 0 2.917 0 3.88-.08.954-.077 1.585-.228 2.103-.492a5.25 5.25 0 002.295-2.295c.264-.518.415-1.15.493-2.103.078-.963.079-2.188.079-3.88v-.8c0-1.693 0-2.917-.08-3.88-.077-.954-.228-1.585-.492-2.103a5.25 5.25 0 00-2.295-2.295c-.428-.218-.933-.359-1.633-.445V4a.75.75 0 01-1.5 0V2.775zM6.25 9A.75.75 0 017 8.25h10a.75.75 0 010 1.5H7A.75.75 0 016.25 9zM7 12.25a.75.75 0 000 1.5h6a.75.75 0 000-1.5H7zM6.25 17a.75.75 0 01.75-.75h2a.75.75 0 010 1.5H7a.75.75 0 01-.75-.75z"/>
</svg>
