<svg xmlns="http://www.w3.org/2000/svg" width="24" height="24" fill="currentColor" viewBox="0 0 24 24">
  <path fill-rule="evenodd" d="M5.624 2.584a.75.75 0 01-.208 1.04L3.84 4.674c-.56.373-.706.48-.807.603a1.25 1.25 0 00-.23.43c-.047.153-.054.333-.054 1.006v3.414A5.744 5.744 0 016.1 8.321c.448-.071.967-.071 1.82-.071h8.16c.853 0 1.372 0 1.82.07a5.744 5.744 0 013.35 1.807V6.713c0-.673-.008-.853-.054-1.006a1.25 1.25 0 00-.23-.43c-.102-.123-.248-.23-.807-.603l-1.575-1.05a.75.75 0 01.832-1.248l1.575 1.05.078.052c.445.296.794.529 1.055.846.23.28.402.601.507.947.12.393.12.814.119 1.348V14c0 .025-.002.05-.004.073.004.243.004.52.004.846v.161c0 .853 0 1.372-.07 1.82a5.75 5.75 0 01-4.78 4.78c-.448.07-.967.07-1.82.07H7.92c-.853 0-1.372 0-1.82-.07a5.75 5.75 0 01-4.78-4.78c-.07-.448-.07-.967-.07-1.82v-.16c0-.324 0-.599.004-.84A.755.755 0 011.25 14V6.619c0-.534-.001-.955.118-1.348a2.75 2.75 0 01.507-.947c.261-.317.61-.55 1.056-.846l.078-.052 1.575-1.05a.75.75 0 011.04.208zm.711 7.218c.316-.05.707-.052 1.665-.052h8c.958 0 1.35.002 1.665.052a4.25 4.25 0 013.533 3.533c.05.316.052.707.052 1.665 0 .958-.002 1.35-.052 1.665a4.25 4.25 0 01-3.533 3.533c-.316.05-.707.052-1.665.052H8c-.958 0-1.35-.002-1.665-.052a4.25 4.25 0 01-3.533-3.533c-.05-.316-.052-.707-.052-1.665 0-.958.002-1.35.052-1.665a4.25 4.25 0 013.533-3.533zM8 13.75a1.25 1.25 0 100 2.5 1.25 1.25 0 000-2.5zM5.25 15a2.75 2.75 0 115.5 0 2.75 2.75 0 01-5.5 0zm9.5 0a1.25 1.25 0 112.5 0 1.25 1.25 0 01-2.5 0zM16 12.25a2.75 2.75 0 100 5.5 2.75 2.75 0 000-5.5z"/>
</svg>
