<svg xmlns="http://www.w3.org/2000/svg" width="24" height="24" fill="currentColor" viewBox="0 0 24 24">
  <path fill-rule="evenodd" d="M11.467 1.25H12a.75.75 0 010 1.5h-.5c-1.645 0-2.835 0-3.772.075-.928.074-1.543.217-2.05.466a5.25 5.25 0 00-2.387 2.387c-.25.507-.392 1.122-.466 2.05-.074.937-.075 2.127-.075 3.772v.9c0 1.692 0 2.917.08 3.88.022.273.05.52.085.744L6.24 13.7l.021-.021c.373-.373.684-.684.96-.918.287-.244.583-.447.938-.564a2.75 2.75 0 011.684-.012c.358.112.657.31.948.55.278.23.594.536.972.903l.022.021 2.693 2.615.54-.54.022-.022c.378-.377.694-.693.972-.93.291-.246.59-.451.95-.568a2.75 2.75 0 011.7 0c.36.117.66.322.95.568.28.237.594.552.972.93l.022.021.567.568.002-.028c.074-.937.075-2.127.075-3.772V12a.75.75 0 011.5 0v.533c0 1.605 0 2.854-.08 3.857-.08 1.019-.247 1.847-.616 2.595a6.75 6.75 0 01-3.069 3.069c-.748.369-1.576.535-2.595.616-1.003.08-2.252.08-3.857.08H11.566c-1.651 0-2.937 0-3.968-.084-1.047-.086-1.897-.262-2.662-.652a6.75 6.75 0 01-2.95-2.95l-.019-.036a.747.747 0 01-.217-.503c-.23-.625-.35-1.316-.416-2.123-.084-1.031-.084-2.317-.084-3.968V11.467c0-1.605 0-2.854.08-3.858.08-1.018.247-1.846.616-2.594a6.75 6.75 0 013.069-3.069c.748-.369 1.576-.535 2.595-.616 1.003-.08 2.252-.08 3.857-.08zm-5.85 19.428a5.25 5.25 0 01-2.17-2.064L7.3 14.76c.4-.4.668-.667.89-.857.217-.184.342-.25.438-.282a1.25 1.25 0 01.766-.006c.096.03.222.095.441.276.226.187.498.45.904.844l3.22 3.126 3.205 3.205a9.493 9.493 0 01-.893.109c-.937.074-2.127.075-3.772.075h-.9c-1.693 0-2.917 0-3.88-.08-.954-.077-1.585-.228-2.103-.492zm15.092-2.356a5.25 5.25 0 01-1.995 2.172l-3.167-3.168.533-.532c.405-.405.677-.677.903-.869.22-.187.347-.254.443-.285a1.25 1.25 0 01.773 0c.096.031.223.098.443.285.226.192.498.463.903.868l1.276 1.276a3.393 3.393 0 01-.112.253zM20.53 4.53a.75.75 0 00-1.06-1.06L18 4.94l-1.47-1.47a.75.75 0 10-1.06 1.06L16.94 6l-1.47 1.47a.75.75 0 001.06 1.06L18 7.06l1.47 1.47a.75.75 0 101.06-1.06L19.06 6l1.47-1.47z"/>
</svg>
