<svg xmlns="http://www.w3.org/2000/svg" width="24" height="24" fill="currentColor" viewBox="0 0 24 24">
  <path fill-rule="evenodd" d="M18.53.47a.75.75 0 10-1.06 1.06l1.72 1.72H7.767c-.813 0-1.469 0-2 .043-.546.045-1.026.14-1.47.366a3.75 3.75 0 00-1.64 1.639c-.226.444-.32.924-.365 1.47-.043.531-.043 1.187-.043 2V10a.75.75 0 001.5 0V8.8c0-.852 0-1.447.038-1.91.037-.453.107-.714.207-.911a2.25 2.25 0 01.984-.984c.197-.1.458-.17.912-.207.462-.037 1.057-.038 1.909-.038h11.39l-1.72 1.72a.75.75 0 001.06 1.06l3-3a.75.75 0 000-1.06l-3-3zm-5.743 7.837A.75.75 0 0113.25 9v6a.75.75 0 01-1.5 0v-4.19l-1.22 1.22a.75.75 0 11-1.06-1.06l2.5-2.5a.75.75 0 01.817-.163zM20.25 14a.75.75 0 011.5 0v1.232c0 .813 0 1.469-.043 2-.045.546-.14 1.026-.366 1.47a3.75 3.75 0 01-1.639 1.64c-.444.226-.924.32-1.47.365-.531.043-1.187.043-2 .043H4.81l1.72 1.72a.75.75 0 11-1.06 1.06l-3-3a.75.75 0 010-1.06l3-3a.75.75 0 011.06 1.06l-1.72 1.72H16.2c.852 0 1.447 0 1.91-.038.453-.038.714-.107.912-.207.423-.216.767-.56.983-.983.1-.198.17-.459.207-.913.037-.462.038-1.057.038-1.909V14z"/>
</svg>
