<svg xmlns="http://www.w3.org/2000/svg" width="24" height="24" fill="currentColor" viewBox="0 0 24 24">
  <path fill-rule="evenodd" d="M20 2.75a1.25 1.25 0 100 2.5 1.25 1.25 0 000-2.5zm-8 .5h5.354a2.751 2.751 0 113.396 3.396v10.708a2.751 2.751 0 11-3.396 3.396H6.646a2.751 2.751 0 11-3.396-3.396V6.646A2.751 2.751 0 116.646 3.25H12zM5.25 4a1.25 1.25 0 10-2.5 0 1.25 1.25 0 002.5 0zm-.5 2.646A2.756 2.756 0 006.646 4.75h10.708c.259.916.98 1.637 1.896 1.896v10.708a2.756 2.756 0 00-1.896 1.896H6.646a2.756 2.756 0 00-1.896-1.896V6.646zM2.75 20a1.25 1.25 0 112.5 0 1.25 1.25 0 01-2.5 0zm16 0a1.25 1.25 0 102.5 0 1.25 1.25 0 00-2.5 0zM9 8.25a.75.75 0 000 1.5h2.25V15a.75.75 0 001.5 0V9.75H15a.75.75 0 000-1.5H9z"/>
</svg>
