<svg xmlns="http://www.w3.org/2000/svg" width="24" height="24" fill="currentColor" viewBox="0 0 24 24">
  <path fill-rule="evenodd" d="M11.6 1.25h-.034c-1.651 0-2.937 0-3.968.084-1.047.086-1.897.262-2.662.652a6.75 6.75 0 00-2.95 2.95c-.39.765-.566 1.615-.652 2.662-.084 1.031-.084 2.317-.084 3.968V12.434c0 1.651 0 2.937.084 3.968.086 1.047.262 1.897.652 2.662a6.75 6.75 0 002.95 2.95c.765.39 1.615.566 2.662.652 1.031.084 2.317.084 3.968.084H12.434c1.651 0 2.937 0 3.968-.084 1.047-.086 1.897-.262 2.662-.652a6.75 6.75 0 002.95-2.95c.39-.765.566-1.615.652-2.662.084-1.031.084-2.317.084-3.968v-1.545a.75.75 0 00-1.5 0V12.4c0 1.692 0 2.917-.08 3.88-.077.954-.228 1.585-.492 2.104a5.251 5.251 0 01-2.294 2.294c-.519.264-1.15.415-2.104.493-.963.078-2.188.079-3.88.079h-.8c-1.693 0-2.917 0-3.88-.08-.954-.077-1.585-.228-2.103-.492a5.25 5.25 0 01-2.295-2.294c-.264-.519-.415-1.15-.493-2.104-.078-.963-.079-2.188-.079-3.88v-.8c0-1.693 0-2.917.08-3.88.077-.954.228-1.585.492-2.103a5.25 5.25 0 012.295-2.295c.518-.264 1.15-.415 2.103-.493.963-.078 2.187-.079 3.88-.079h4.844a.75.75 0 100-1.5H11.6zm10.93 3.28a.75.75 0 00-1.06-1.06L12 12.94l-2.47-2.47a.75.75 0 00-1.06 1.06l3 3a.75.75 0 001.06 0l10-10z"/>
</svg>
