<svg xmlns="http://www.w3.org/2000/svg" width="24" height="24" fill="currentColor" viewBox="0 0 24 24">
  <path fill-rule="evenodd" d="M10 1.25h-.034c-1.371 0-2.447 0-3.311.07-.88.073-1.607.221-2.265.557A5.75 5.75 0 001.877 4.39c-.336.658-.484 1.385-.556 2.265-.071.864-.071 1.94-.071 3.311v4.068c0 1.371 0 2.447.07 3.311.073.88.221 1.607.557 2.265a5.75 5.75 0 002.513 2.513c.658.336 1.385.485 2.265.556.864.071 1.94.071 3.311.071h4.068c1.371 0 2.447 0 3.311-.07.88-.072 1.607-.221 2.265-.557a5.75 5.75 0 002.513-2.513c.336-.658.485-1.385.556-2.265.071-.864.071-1.94.071-3.311V9.966c0-1.371 0-2.447-.07-3.311-.072-.88-.221-1.607-.557-2.265a5.75 5.75 0 00-2.513-2.513c-.658-.336-1.385-.484-2.265-.556-.864-.071-1.94-.071-3.311-.071H10zM5.07 3.213c.412-.21.92-.333 1.707-.397.796-.065 1.81-.066 3.223-.066h4c1.412 0 2.427 0 3.223.066.787.064 1.295.188 1.707.397a4.25 4.25 0 011.857 1.858c.21.411.333.919.397 1.706.065.796.066 1.81.066 3.223v4c0 1.412 0 2.427-.066 3.223-.064.787-.188 1.295-.397 1.707a4.251 4.251 0 01-1.857 1.857c-.412.21-.92.333-1.707.397-.796.065-1.81.066-3.223.066h-4c-1.413 0-2.427 0-3.223-.066-.787-.064-1.295-.188-1.706-.397a4.25 4.25 0 01-1.858-1.857c-.21-.412-.333-.92-.397-1.707-.065-.796-.066-1.81-.066-3.223v-4c0-1.413 0-2.427.066-3.223.064-.787.188-1.295.397-1.706a4.25 4.25 0 011.858-1.858zM12 4.25a.75.75 0 00-.624 1.166l1 1.5a.75.75 0 101.248-.832l-.097-.146A6.253 6.253 0 0118.25 12a.75.75 0 001.5 0A7.75 7.75 0 0012 4.25zM5.75 12a.75.75 0 00-1.5 0A7.75 7.75 0 0012 19.75a.75.75 0 00.624-1.166l-1-1.5a.75.75 0 10-1.248.832l.097.146A6.253 6.253 0 015.75 12zM10 8.25a.75.75 0 01.75.75v3.58c0 .348 0 .565.014.727a.575.575 0 00.035.197.45.45 0 00.197.197.575.575 0 00.197.035c.162.013.379.014.727.014h3.58a.75.75 0 010 1.5h-.25v.25a.75.75 0 01-1.5 0v-.25h-1.857c-.313 0-.591 0-.822-.019a1.983 1.983 0 01-.756-.194 1.95 1.95 0 01-.852-.852 1.98 1.98 0 01-.194-.756c-.019-.23-.019-.509-.019-.822V10.75H9a.75.75 0 010-1.5h.25V9a.75.75 0 01.75-.75zm2.74 2.5c.32 0 .516 0 .661.012.116.01.153.024.158.026a.35.35 0 01.153.153.581.581 0 01.026.158c.011.145.012.34.012.661v.74a.75.75 0 001.5 0v-.767c0-.285 0-.542-.018-.757a1.877 1.877 0 00-.184-.716 1.85 1.85 0 00-.808-.808 1.877 1.877 0 00-.716-.185 9.925 9.925 0 00-.757-.017H12a.75.75 0 000 1.5h.74z"/>
</svg>
