<svg xmlns="http://www.w3.org/2000/svg" width="24" height="24" fill="currentColor" viewBox="0 0 24 24">
  <path fill-rule="evenodd" d="M5.624 3.584a.75.75 0 01-.208 1.04L3.84 5.674c-.56.373-.706.48-.807.603a1.25 1.25 0 00-.23.43c-.047.153-.054.333-.054 1.006v4.823a4.752 4.752 0 017.897 2.475A3.426 3.426 0 0112 14.75c.538 0 .986.105 1.353.261a4.752 4.752 0 017.897-2.475V7.713c0-.673-.008-.853-.054-1.006a1.248 1.248 0 00-.23-.43c-.102-.123-.248-.23-.807-.603l-1.575-1.05a.75.75 0 01.832-1.248l1.575 1.05.078.052c.445.296.794.529 1.055.846.23.28.402.601.507.947.12.393.12.813.119 1.348V16.002a4.75 4.75 0 01-9.428.825 1.167 1.167 0 00-.228-.241c-.19-.152-.526-.336-1.094-.336-.568 0-.905.184-1.094.336a1.175 1.175 0 00-.228.24A4.751 4.751 0 011.25 16V7.619c0-.534-.001-.955.118-1.348a2.75 2.75 0 01.507-.947c.261-.317.61-.55 1.056-.846l.078-.052 1.575-1.05a.75.75 0 011.04.208zM21.25 16a3.25 3.25 0 10-6.5 0 3.25 3.25 0 006.5 0zM6 12.75a3.25 3.25 0 100 6.5 3.25 3.25 0 000-6.5z"/>
</svg>
