<svg xmlns="http://www.w3.org/2000/svg" width="24" height="24" fill="currentColor" viewBox="0 0 24 24">
  <path fill-rule="evenodd" d="M9.966 1.25h4.068c1.371 0 2.447 0 3.311.07.88.073 1.607.221 2.265.557a5.75 5.75 0 012.513 2.513c.336.658.485 1.385.556 2.265.053.64.066 1.396.07 2.302a.779.779 0 010 .08l.001.927V14.962a.8.8 0 01-.001.081c-.004.906-.017 1.662-.07 2.302-.071.88-.22 1.607-.556 2.265a5.75 5.75 0 01-2.513 2.513c-.658.336-1.385.485-2.265.556-.864.071-1.94.071-3.311.071H9.966c-1.371 0-2.447 0-3.311-.07-.88-.072-1.607-.221-2.265-.557a5.75 5.75 0 01-2.513-2.513c-.336-.658-.484-1.385-.556-2.265-.053-.64-.066-1.396-.07-2.302a.755.755 0 010-.081l-.001-.928V9.964v-.926a.77.77 0 01.001-.081c.004-.906.017-1.662.07-2.302.072-.88.22-1.607.556-2.265A5.75 5.75 0 014.39 1.877c.658-.336 1.385-.484 2.265-.556.864-.071 1.94-.071 3.311-.071zm-7.209 14.5c.008.57.024 1.052.059 1.473.064.787.188 1.295.397 1.707a4.25 4.25 0 001.858 1.857c.411.21.919.333 1.706.397.796.065 1.81.066 3.223.066h4c1.412 0 2.427 0 3.223-.066.787-.064 1.295-.188 1.707-.397a4.251 4.251 0 001.857-1.857c.21-.412.333-.92.397-1.707.035-.421.051-.903.059-1.473H2.757zm18.493-1.5H2.75v-4.5h18.5v4.5zm-.066-7.473c.035.421.051.903.059 1.473H2.757c.008-.57.024-1.052.059-1.473.064-.787.188-1.295.397-1.706a4.25 4.25 0 011.858-1.858c.411-.21.919-.333 1.706-.397.796-.065 1.81-.066 3.223-.066h4c1.412 0 2.427 0 3.223.066.787.064 1.295.188 1.707.397a4.25 4.25 0 011.857 1.858c.21.411.333.919.397 1.706z"/>
</svg>
