<svg xmlns="http://www.w3.org/2000/svg" width="24" height="24" fill="currentColor" viewBox="0 0 24 24">
  <path fill-rule="evenodd" d="M2 2.25a.75.75 0 01.75.75v18a.75.75 0 01-1.5 0V3A.75.75 0 012 2.25zm20 0a.75.75 0 01.75.75v18a.75.75 0 01-1.5 0V3a.75.75 0 01.75-.75zm-9.33 4.415a.75.75 0 00-1.34 0l-3 6-2 4a.75.75 0 101.34.67l1.616-3.23.129.066c.591.296 1.455.579 2.585.579s1.994-.283 2.585-.58a4.45 4.45 0 00.129-.066l1.615 3.231a.75.75 0 101.342-.67l-2-4-3-6zm-2.585 6.164a3.326 3.326 0 01-.127-.067L12 8.677l2.042 4.085-.127.067c-.409.204-1.045.421-1.915.421-.87 0-1.506-.217-1.915-.42z"/>
</svg>
