<svg xmlns="http://www.w3.org/2000/svg" width="24" height="24" fill="currentColor" viewBox="0 0 24 24">
  <path fill-rule="evenodd" d="M4.03 1.97a.75.75 0 00-1.06 1.06l.97.97-.97.97a.75.75 0 001.06 1.06L5 5.06l.97.97a.75.75 0 001.06-1.06L6.06 4l.97-.97a.75.75 0 00-1.06-1.06L5 2.94l-.97-.97zm0 8a.75.75 0 00-1.06 1.06l.97.97-.97.97a.75.75 0 101.06 1.06l.97-.97.97.97a.75.75 0 001.06-1.06L6.06 12l.97-.97a.75.75 0 10-1.06-1.06l-.97.97-.97-.97zm-1.06 8a.75.75 0 011.06 0l.97.97.97-.97a.75.75 0 011.06 1.06l-.97.97.97.97a.75.75 0 11-1.06 1.06L5 21.06l-.97.97a.75.75 0 01-1.06-1.06l.97-.97-.97-.97a.75.75 0 010-1.06zM11 19.25a.75.75 0 000 1.5h11a.75.75 0 000-1.5H11zM10.25 12a.75.75 0 01.75-.75h11a.75.75 0 010 1.5H11a.75.75 0 01-.75-.75zM11 3.25a.75.75 0 000 1.5h11a.75.75 0 000-1.5H11z"/>
</svg>
