<svg xmlns="http://www.w3.org/2000/svg" width="24" height="24" fill="currentColor" viewBox="0 0 24 24">
  <path fill-rule="evenodd" d="M9.966 1.25H14.962a.774.774 0 01.081.001c.906.004 1.662.017 2.302.07.88.072 1.607.22 2.265.556a5.75 5.75 0 012.513 2.513c.336.658.485 1.385.556 2.265.053.64.066 1.396.07 2.302a.778.778 0 010 .08l.001.93v4.995a.793.793 0 01-.001.081c-.004.906-.017 1.662-.07 2.302-.071.88-.22 1.607-.556 2.265a5.75 5.75 0 01-2.513 2.513c-.658.336-1.385.485-2.265.556-.64.053-1.396.066-2.302.07a.774.774 0 01-.081 0l-.926.001H9.038a.796.796 0 01-.081-.001c-.906-.004-1.662-.017-2.302-.07-.88-.071-1.607-.22-2.265-.556a5.75 5.75 0 01-2.513-2.513c-.336-.658-.484-1.385-.556-2.265-.053-.64-.066-1.396-.07-2.302a.755.755 0 010-.081l-.001-.926V9.966v-.928a.77.77 0 01.001-.081c.004-.906.017-1.662.07-2.302.072-.88.22-1.607.556-2.265A5.75 5.75 0 014.39 1.877c.658-.336 1.385-.484 2.265-.556.64-.053 1.396-.066 2.302-.07a.76.76 0 01.08 0l.927-.001h.002zM2.75 9.75v4.5h5.5v-4.5h-5.5zm5.5-1.5H2.757c.008-.57.024-1.052.059-1.473.064-.787.188-1.295.397-1.706a4.25 4.25 0 011.858-1.858c.411-.21.919-.333 1.706-.397.421-.035.903-.051 1.473-.059V8.25zm1.5 1.5v4.5h4.5v-4.5h-4.5zm4.5-1.5h-4.5v-5.5h4.5v5.5zm1.5 1.5v4.5h5.5V10v-.25h-5.5zm5.493-1.5H15.75V2.757c.57.008 1.052.024 1.473.059.787.064 1.295.188 1.707.397a4.25 4.25 0 011.857 1.858c.21.411.333.919.397 1.706.035.421.051.903.059 1.473zm-6.993 7.5h-4.5v5.5h4.5v-5.5zm-6 0H2.757c.008.57.024 1.052.059 1.473.064.787.188 1.295.397 1.707a4.25 4.25 0 001.858 1.857c.411.21.919.333 1.706.397.421.035.903.051 1.473.059V15.75zm12.993 0H15.75v5.493a22.18 22.18 0 001.473-.059c.787-.064 1.295-.188 1.707-.397a4.251 4.251 0 001.857-1.857c.21-.412.333-.92.397-1.707.035-.421.051-.903.059-1.473z"/>
</svg>
