<svg xmlns="http://www.w3.org/2000/svg" width="24" height="24" fill="currentColor" viewBox="0 0 24 24">
  <path fill-rule="evenodd" d="M3.148 12.91a3.25 3.25 0 010-1.819c.086-.297.25-.608.571-1.046.326-.445.78-.974 1.42-1.722l.515-.6c.73-.852 1.012-1.172 1.341-1.399a3.25 3.25 0 011.013-.466c.387-.102.813-.108 1.935-.108H15.6c1.132 0 1.937 0 2.566.052.62.05 1.005.147 1.31.302a3.25 3.25 0 011.42 1.42c.155.305.251.69.302 1.31.051.63.052 1.434.052 2.566v1.2c0 1.133 0 1.937-.052 2.566-.05.62-.147 1.005-.302 1.31a3.25 3.25 0 01-1.42 1.42c-.305.155-.69.251-1.31.302-.63.052-1.434.052-2.566.052H9.943c-1.122 0-1.548-.006-1.935-.108a3.25 3.25 0 01-1.013-.466c-.33-.227-.61-.547-1.341-1.399l-.515-.6c-.64-.748-1.094-1.277-1.42-1.722-.32-.437-.485-.749-.571-1.046zm-1.44-2.238a4.75 4.75 0 000 2.657c.155.531.428 1.004.801 1.513.364.496.855 1.069 1.472 1.788l.02.023.514.6.067.08c.64.746 1.052 1.227 1.562 1.578.45.31.951.541 1.48.681.6.159 1.232.158 2.215.158H15.633c1.092 0 1.957 0 2.655-.057.713-.058 1.317-.18 1.868-.46a4.75 4.75 0 002.076-2.076c.281-.552.403-1.155.46-1.869.058-.697.058-1.563.058-2.655V11.367c0-1.092 0-1.958-.057-2.655-.058-.714-.18-1.317-.46-1.868a4.75 4.75 0 00-2.077-2.076c-.55-.281-1.154-.403-1.868-.46-.698-.058-1.563-.058-2.655-.058H9.839c-.983 0-1.616 0-2.214.158-.53.14-1.03.37-1.481.681-.51.352-.922.833-1.562 1.579l-.067.079-.515.6-.02.023c-.616.72-1.107 1.292-1.47 1.788-.374.51-.647.982-.802 1.514zM8.75 12a1.25 1.25 0 112.5 0 1.25 1.25 0 01-2.5 0zM10 9.25a2.75 2.75 0 100 5.5 2.75 2.75 0 000-5.5z"/>
</svg>
