<svg xmlns="http://www.w3.org/2000/svg" width="24" height="24" fill="currentColor" viewBox="0 0 24 24">
  <path fill-rule="evenodd" d="M11.17.25H12.83c.535 0 .98 0 1.345.03.38.03.736.098 1.073.27a2.75 2.75 0 011.202 1.202c.172.337.24.693.27 1.073.03.365.03.81.03 1.345V4.483a9.747 9.747 0 015 8.517c0 5.385-4.365 9.75-9.75 9.75S2.25 18.385 2.25 13c0-3.66 2.017-6.85 5-8.517V4.17c0-.535 0-.98.03-1.345.03-.38.098-.736.27-1.073A2.75 2.75 0 018.752.55c.337-.172.693-.24 1.073-.27.365-.03.81-.03 1.345-.03zm4.765 5.497a.748.748 0 01-.495-.248A8.22 8.22 0 0012 4.75a8.22 8.22 0 00-3.44.75.748.748 0 01-.495.247 8.25 8.25 0 107.87 0zm-.71-2.8c.018.222.023.494.024.858A9.734 9.734 0 0012 3.25c-1.14 0-2.233.195-3.25.555.002-.364.007-.636.025-.858.023-.287.065-.424.111-.514a1.25 1.25 0 01.547-.547c.09-.046.227-.088.514-.111.296-.024.68-.025 1.253-.025h1.6c.572 0 .957 0 1.252.025.288.023.425.065.516.111.235.12.426.311.546.547.046.09.088.227.111.514zM8.75 14a.75.75 0 00-1.5 0A4.75 4.75 0 0012 18.75a.75.75 0 000-1.5A3.25 3.25 0 018.75 14z"/>
</svg>
