<svg xmlns="http://www.w3.org/2000/svg" width="24" height="24" fill="currentColor" viewBox="0 0 24 24">
  <path fill-rule="evenodd" d="M11.566 1.25H12.434c1.651 0 2.937 0 3.968.084 1.047.086 1.897.262 2.662.652a6.75 6.75 0 012.95 2.95c.39.765.566 1.615.652 2.662.084 1.031.084 2.317.084 3.968V12.434c0 1.652 0 2.937-.084 3.968-.086 1.047-.262 1.897-.652 2.662a6.75 6.75 0 01-2.95 2.95c-.765.39-1.615.566-2.662.652-1.031.084-2.317.084-3.968.084H11.566c-1.651 0-2.937 0-3.968-.084-1.047-.086-1.897-.262-2.662-.652a6.75 6.75 0 01-2.95-2.95c-.39-.765-.566-1.615-.652-2.662-.084-1.031-.084-2.317-.084-3.968V11.566c0-1.651 0-2.937.084-3.968.086-1.047.262-1.897.652-2.662a6.75 6.75 0 012.95-2.95c.765-.39 1.615-.566 2.662-.652 1.031-.084 2.317-.084 3.968-.084zM7.72 2.83c-.954.077-1.585.228-2.103.492a5.25 5.25 0 00-2.295 2.295c-.264.518-.415 1.15-.493 2.103-.078.963-.079 2.187-.079 3.88v.8c0 1.692 0 2.917.08 3.88.077.954.228 1.585.492 2.103a5.25 5.25 0 002.295 2.295c.518.264 1.15.415 2.103.493.963.078 2.187.079 3.88.079h.8c1.692 0 2.917 0 3.88-.08.954-.077 1.585-.228 2.103-.492a5.25 5.25 0 002.295-2.295c.264-.518.415-1.15.493-2.103.078-.963.079-2.188.079-3.88v-.8c0-1.693 0-2.917-.08-3.88-.077-.954-.228-1.585-.492-2.103a5.25 5.25 0 00-2.295-2.295c-.518-.264-1.15-.415-2.103-.493-.963-.078-2.188-.079-3.88-.079h-.8c-1.693 0-2.917 0-3.88.08zm.707 2.42H9a.75.75 0 010 1.5h-.5c-.5 0-.641.004-.744.024a1.25 1.25 0 00-.982.982c-.02.103-.024.243-.024.744v7c0 .5.004.641.024.744.099.496.486.883.982.982.103.02.243.024.744.024H9a.75.75 0 010 1.5h-.573c-.393 0-.696 0-.963-.053a2.75 2.75 0 01-2.161-2.16c-.053-.268-.053-.571-.053-.964V8.427c0-.393 0-.696.053-.964a2.75 2.75 0 012.16-2.16c.268-.053.571-.053.964-.053zm7.817 1.524c-.103-.02-.243-.024-.744-.024H15a.75.75 0 110-1.5h.573c.393 0 .696 0 .963.053a2.75 2.75 0 012.161 2.16c.053.268.053.571.053.964V15.573c0 .393 0 .696-.053.963a2.75 2.75 0 01-2.16 2.161c-.268.053-.571.053-.964.053H15a.75.75 0 010-1.5h.5c.5 0 .641-.004.744-.024a1.25 1.25 0 00.982-.982c.02-.103.024-.243.024-.744v-7c0-.5-.004-.641-.024-.744a1.25 1.25 0 00-.982-.982zM12 9.75a1 1 0 100-2 1 1 0 000 2zm1 2a1 1 0 11-2 0 1 1 0 012 0zm-1 4a1 1 0 100-2 1 1 0 000 2z"/>
</svg>
