<svg xmlns="http://www.w3.org/2000/svg" width="24" height="24" fill="currentColor" viewBox="0 0 24 24">
  <path fill-rule="evenodd" d="M8.53 6.53a.75.75 0 10-1.06-1.06L3.732 9.207l-.021.021c-.378.378-.693.693-.93.972-.246.29-.451.59-.568.95a2.75 2.75 0 000 1.7c.117.36.322.66.568.95.237.279.552.594.93.971l.021.022L7.47 18.53a.75.75 0 001.06-1.06l-3.737-3.738c-.405-.404-.676-.676-.868-.903-.187-.22-.254-.346-.285-.443a1.25 1.25 0 010-.772c.031-.097.098-.224.285-.443.192-.227.463-.499.868-.903L8.53 6.53zm8-1.06a.75.75 0 10-1.06 1.06l3.737 3.738c.405.404.676.676.868.903.187.22.254.346.285.443a1.25 1.25 0 010 .772c-.031.097-.098.224-.285.443-.192.227-.463.499-.868.903L15.47 17.47a.75.75 0 101.06 1.06l3.738-3.737.021-.021c.378-.378.693-.693.93-.972.246-.29.451-.59.568-.95a2.75 2.75 0 000-1.7c-.117-.36-.322-.66-.568-.95-.237-.279-.552-.594-.93-.972l-.021-.021L16.53 5.47z"/>
</svg>
