<svg xmlns="http://www.w3.org/2000/svg" width="24" height="24" fill="currentColor" viewBox="0 0 24 24">
  <path fill-rule="evenodd" d="M12 1.25a.75.75 0 01.75.75v7.19l1.72-1.72a.75.75 0 111.06 1.06l-3 3a.75.75 0 01-1.06 0l-3-3a.75.75 0 111.06-1.06l1.72 1.72V2a.75.75 0 01.75-.75zm-4 2.5c-1.433 0-2.689.96-3.066 2.342L3.69 10.653c-.142.521-.207.76-.26.997-.12.528-.2 1.063-.243 1.6H5.38c.534 0 .954 0 1.348.119.346.105.667.277.947.507.317.26.55.61.846 1.055l.052.078.1.15c.373.56.48.705.603.807.126.104.273.182.43.23.152.046.333.054 1.005.054h2.575c.673 0 .853-.008 1.006-.054.157-.048.303-.126.43-.23.123-.101.23-.247.603-.807l.1-.15.052-.078c.296-.445.529-.795.846-1.055.28-.23.601-.402.947-.507.393-.12.813-.12 1.348-.119h2.194a11.24 11.24 0 00-.243-1.6 24.353 24.353 0 00-.26-.997l-1.244-4.561A3.178 3.178 0 0016 3.75h-.5a.75.75 0 010-1.5h.5a4.678 4.678 0 014.513 3.447l1.244 4.562.005.02c.136.496.21.768.271 1.04a12.75 12.75 0 01.057 5.36c-.055.274-.124.548-.248 1.047l-.005.02-.014.052c-.141.567-.228.913-.343 1.22a5.75 5.75 0 01-4.732 3.695c-.326.037-.683.037-1.267.037H8.519c-.584 0-.942 0-1.267-.037a5.75 5.75 0 01-4.733-3.695c-.114-.307-.201-.653-.343-1.22l-.013-.052-.005-.02a25.148 25.148 0 01-.249-1.046 12.75 12.75 0 01.057-5.361c.062-.273.136-.545.271-1.04l.006-.02 1.244-4.562A4.678 4.678 0 018 2.25h.5a.75.75 0 010 1.5H8zm12.83 11h-2.118c-.672 0-.853.008-1.005.054a1.252 1.252 0 00-.43.23c-.124.101-.23.247-.603.807l-.1.15-.052.078c-.296.445-.529.795-.846 1.056-.28.23-.601.401-.947.506-.394.12-.814.12-1.348.119h-2.762c-.535 0-.955 0-1.348-.119a2.748 2.748 0 01-.947-.506c-.317-.261-.55-.611-.846-1.056l-.052-.078-.1-.15c-.373-.56-.48-.705-.603-.807a1.252 1.252 0 00-.43-.23c-.153-.046-.333-.054-1.006-.054H3.17c.03.546.1 1.091.21 1.63.049.238.108.478.24 1.002.158.635.224.893.305 1.11a4.25 4.25 0 003.498 2.73c.23.027.496.028 1.15.028h6.855c.655 0 .921-.001 1.15-.027a4.25 4.25 0 003.499-2.732c.08-.216.147-.474.305-1.11.131-.523.191-.763.24-1.001.11-.539.18-1.084.21-1.63z"/>
</svg>
