<svg xmlns="http://www.w3.org/2000/svg" width="24" height="24" fill="currentColor" viewBox="0 0 24 24">
  <path fill-rule="evenodd" d="M2.75 12A9.25 9.25 0 1112 21.25c-1.065 0-1.955-.151-2.771-.443l-.13-.046c-.744-.267-1.195-.428-1.402-.477l-.171.73.171-.73c-.985-.232-1.704.005-2.3.288-.16.076-.3.147-.428.213-.366.187-.64.327-1.023.39a.25.25 0 01-.29-.266c.012-.145.072-.319.193-.586l.061-.134a5.6 5.6 0 00.315-.784c.39-1.358-.112-2.43-.54-3.344A9.21 9.21 0 012.75 12zM12 1.25C6.063 1.25 1.25 6.063 1.25 12c0 1.61.355 3.14.99 4.512l.681-.315-.68.316.023.05c.478 1.032.751 1.621.52 2.428a3.677 3.677 0 01-.21.515c-.029.06-.06.127-.092.2-.126.278-.286.657-.32 1.08a1.75 1.75 0 002.03 1.87l-.122-.74.123.74c.635-.106 1.18-.387 1.58-.594.098-.05.188-.097.268-.135.425-.202.78-.308 1.313-.183.11.026.476.156 1.37.475l.252-.706-.252.706c.998.357 2.062.531 3.276.531 5.937 0 10.75-4.813 10.75-10.75S17.937 1.25 12 1.25zM8 13a1 1 0 100-2 1 1 0 000 2zm5-1a1 1 0 11-2 0 1 1 0 012 0zm3 1a1 1 0 100-2 1 1 0 000 2z"/>
</svg>
