<svg xmlns="http://www.w3.org/2000/svg" width="24" height="24" fill="currentColor" viewBox="0 0 24 24">
  <path fill-rule="evenodd" d="M8.03 5.03a.75.75 0 10-1.06-1.06L3.732 7.207l-.021.021c-.378.378-.693.693-.93.972-.246.29-.45.59-.568.95a2.75 2.75 0 000 1.7c.117.36.322.66.568.95.237.279.552.594.93.971l.022.022L6.97 16.03a.75.75 0 101.06-1.06l-3.237-3.238c-.405-.404-.676-.676-.868-.903-.186-.22-.254-.346-.285-.443a1.25 1.25 0 010-.772c.031-.097.099-.224.285-.443.192-.227.463-.499.868-.903L8.03 5.03zm3.5.5a.75.75 0 00-1.06-1.06l-5 5a.75.75 0 000 1.06l5 5a.75.75 0 101.06-1.06l-3.72-3.72h9.39c.852 0 1.447 0 1.91.038.453.037.714.107.912.207.423.216.767.56.983.984.1.197.17.458.207.912.037.462.038 1.056.038 1.909V17a.75.75 0 001.5 0v-2.232c0-.813 0-1.469-.043-2-.045-.546-.14-1.026-.366-1.47a3.75 3.75 0 00-1.639-1.64c-.444-.226-.924-.32-1.47-.365-.531-.043-1.187-.043-2-.043H7.81l3.72-3.72z"/>
</svg>
