<svg xmlns="http://www.w3.org/2000/svg" width="24" height="24" fill="currentColor" viewBox="0 0 24 24">
  <path fill-rule="evenodd" d="M9.966 1.25h4.068c1.371 0 2.447 0 3.311.07.88.073 1.607.221 2.265.557a5.75 5.75 0 012.513 2.513c.336.658.485 1.385.556 2.265.071.864.071 1.94.071 3.311v4.068c0 1.371 0 2.447-.07 3.311-.072.88-.221 1.607-.557 2.265a5.75 5.75 0 01-2.513 2.513c-.658.336-1.385.485-2.265.556-.864.071-1.94.071-3.311.071H9.966c-1.371 0-2.447 0-3.311-.07-.88-.072-1.607-.221-2.265-.557a5.75 5.75 0 01-2.513-2.513c-.336-.658-.484-1.385-.556-2.265-.071-.864-.071-1.94-.071-3.311V9.966c0-1.371 0-2.447.07-3.311.073-.88.221-1.607.557-2.265A5.75 5.75 0 014.39 1.877c.658-.336 1.385-.484 2.265-.556.864-.071 1.94-.071 3.311-.071zM6.777 2.816c-.787.064-1.295.188-1.706.397a4.25 4.25 0 00-1.858 1.858c-.21.411-.333.919-.397 1.706-.065.796-.066 1.81-.066 3.223v4c0 1.412 0 2.427.066 3.223.064.787.188 1.295.397 1.707a4.25 4.25 0 001.858 1.857c.411.21.919.333 1.706.397.796.065 1.81.066 3.223.066h4c1.412 0 2.427 0 3.223-.066.787-.064 1.295-.188 1.707-.397a4.251 4.251 0 001.857-1.857c.21-.412.333-.92.397-1.707.065-.796.066-1.81.066-3.223v-4c0-1.413 0-2.427-.066-3.223-.064-.787-.188-1.295-.397-1.706a4.25 4.25 0 00-1.857-1.858c-.412-.21-.92-.333-1.707-.397-.796-.065-1.81-.066-3.223-.066h-4c-1.413 0-2.427 0-3.223.066zM10.53 7.47a.75.75 0 010 1.06l-2.303 2.303c-.305.306-.502.504-.64.666-.133.156-.166.23-.179.27a.75.75 0 000 .463c.013.04.046.113.179.269.138.162.335.36.64.666l2.303 2.303a.75.75 0 11-1.06 1.06l-2.303-2.303-.02-.02c-.28-.28-.521-.52-.704-.736-.192-.226-.363-.473-.462-.776a2.25 2.25 0 010-1.39c.099-.303.27-.55.462-.776.183-.215.424-.456.703-.736l.02-.02L9.47 7.47a.75.75 0 011.06 0zm6.303 2.303L14.53 7.47a.75.75 0 10-1.06 1.06l2.303 2.303c.305.306.502.504.64.666.133.156.166.23.179.27a.75.75 0 010 .463c-.013.04-.046.113-.179.269-.138.162-.335.36-.64.666L13.47 15.47a.75.75 0 101.06 1.06l2.303-2.303.02-.02c.28-.28.521-.52.704-.736.192-.226.363-.473.462-.776a2.25 2.25 0 000-1.39c-.099-.303-.27-.55-.462-.776a13.393 13.393 0 00-.703-.736l-.02-.02z"/>
</svg>
