<svg xmlns="http://www.w3.org/2000/svg" width="24" height="24" fill="currentColor" viewBox="0 0 24 24">
  <path fill-rule="evenodd" d="M6.8 1.25h-.032c-.813 0-1.469 0-2 .043-.546.045-1.026.14-1.47.366a3.75 3.75 0 00-1.64 1.639c-.226.444-.32.924-.365 1.47-.043.531-.043 1.187-.043 2v10.464c0 .813 0 1.469.043 2 .045.546.14 1.026.366 1.47a3.75 3.75 0 001.639 1.64c.444.226.924.32 1.47.365.531.043 1.187.043 2 .043h6.464c.813 0 1.469 0 2-.043.546-.045 1.026-.14 1.47-.366a3.75 3.75 0 001.64-1.639c.226-.444.32-.924.365-1.47.033-.414.04-.902.043-1.482h.08c.535 0 .98 0 1.345-.03.38-.03.736-.098 1.073-.27a2.751 2.751 0 001.202-1.201c.172-.338.24-.694.27-1.074.03-.365.03-.81.03-1.345V9.992c0-.456-.003-.843-.03-1.167-.03-.38-.098-.736-.27-1.073A2.75 2.75 0 0021.25 6.55c-.338-.172-.694-.24-1.074-.27-.365-.03-.81-.03-1.345-.03h-.08c-.002-.58-.01-1.068-.043-1.481-.045-.547-.14-1.027-.366-1.471a3.75 3.75 0 00-1.639-1.64c-.444-.226-.924-.32-1.47-.365-.531-.043-1.187-.043-2-.043H6.8zm14.425 7.697c.008.092.013.192.017.303H18.75v-1.5h.05c.572 0 .957 0 1.252.025.288.023.425.065.515.111.236.12.427.311.547.547.046.09.088.227.111.514zm.025 1.803h-2.5v5.5h.05c.572 0 .957 0 1.252-.025.288-.023.425-.065.515-.111a1.25 1.25 0 00.547-.546c.046-.091.088-.228.111-.515.024-.296.025-.68.025-1.253v-3.05zm-4-.75v7.2c0 .852 0 1.447-.038 1.91-.038.453-.107.714-.207.912-.216.423-.56.767-.983.983-.198.1-.459.17-.913.207-.462.037-1.056.038-1.909.038H6.8c-.852 0-1.447 0-1.91-.038-.453-.038-.714-.107-.911-.207a2.25 2.25 0 01-.984-.983c-.1-.198-.17-.459-.207-.913-.037-.462-.038-1.057-.038-1.909V6.8c0-.852 0-1.447.038-1.91.037-.453.107-.714.207-.911a2.25 2.25 0 01.984-.984c.197-.1.458-.17.912-.207.462-.037 1.057-.038 1.909-.038h6.4c.853 0 1.447 0 1.91.038.453.037.714.107.912.207.423.216.767.56.983.984.1.197.17.458.207.912.037.462.038 1.057.038 1.909V10zM5.8 4.25h-.02c-.122 0-.255 0-.37.01a1.26 1.26 0 00-.477.126 1.25 1.25 0 00-.547.547c-.09.176-.116.348-.127.478a4.75 4.75 0 00-.009.369v3.44c0 .122 0 .255.01.37.01.13.036.3.126.478.12.235.311.426.547.546.176.09.348.116.478.127.114.01.247.009.369.009h8.44c.122 0 .255 0 .37-.01.13-.01.3-.036.478-.126a1.25 1.25 0 00.546-.546c.09-.177.116-.349.127-.479.01-.114.009-.247.009-.369V5.78c0-.122 0-.255-.01-.37a1.259 1.259 0 00-.126-.477 1.25 1.25 0 00-.546-.547 1.26 1.26 0 00-.479-.127 4.746 4.746 0 00-.369-.009H5.8zM5.75 5.8v-.05H14.25V9.25H5.75V5.8zM7 14a1 1 0 11-2 0 1 1 0 012 0zm-1 5a1 1 0 100-2 1 1 0 000 2zm5-5a1 1 0 11-2 0 1 1 0 012 0zm-1 5a1 1 0 100-2 1 1 0 000 2zm5-5a1 1 0 11-2 0 1 1 0 012 0zm-1 5a1 1 0 100-2 1 1 0 000 2z"/>
</svg>
