<svg xmlns="http://www.w3.org/2000/svg" width="24" height="24" fill="currentColor" viewBox="0 0 24 24">
  <path fill-rule="evenodd" d="M7.357 1.25H8a.75.75 0 010 1.5h-.5c-1.45 0-2.009.008-2.443.14A3.25 3.25 0 002.89 5.057c-.132.434-.14.993-.14 2.443V8a.75.75 0 01-1.5 0v-.5-.143c0-1.258 0-2.06.205-2.736A4.75 4.75 0 014.62 1.455C5.297 1.25 6.1 1.25 7.357 1.25zm11.586 1.64c-.434-.132-.993-.14-2.443-.14H16a.75.75 0 010-1.5h.643c1.258 0 2.06 0 2.736.205a4.75 4.75 0 013.166 3.166c.205.676.205 1.478.205 2.736V8a.75.75 0 01-1.5 0v-.5c0-1.45-.008-2.009-.14-2.443a3.25 3.25 0 00-2.167-2.167zM2 15.25a.75.75 0 01.75.75v.5c0 1.45.008 2.009.14 2.444a3.25 3.25 0 002.167 2.166c.434.132.993.14 2.443.14H8a.75.75 0 010 1.5h-.643c-1.258 0-2.06 0-2.736-.204a4.75 4.75 0 01-3.166-3.167c-.206-.676-.205-1.478-.205-2.736V16a.75.75 0 01.75-.75zm20 0a.75.75 0 01.75.75v.643c0 1.258 0 2.06-.205 2.736a4.75 4.75 0 01-3.166 3.166c-.676.205-1.478.205-2.736.205H16a.75.75 0 110-1.5h.5c1.45 0 2.009-.008 2.443-.14a3.25 3.25 0 002.167-2.166c.132-.435.14-.994.14-2.444V16a.75.75 0 01.75-.75z"/>
</svg>
