<svg xmlns="http://www.w3.org/2000/svg" width="24" height="24" fill="currentColor" viewBox="0 0 24 24">
  <path fill-rule="evenodd" d="M13.25 2.772c-.34-.02-.784-.022-1.472-.022-1.307 0-2.245 0-2.984.056-.73.056-1.204.162-1.59.342a4.25 4.25 0 00-2.056 2.056c-.18.386-.286.86-.342 1.59-.056.739-.056 1.677-.056 2.984v1.472h14.5v-.936c0-.726-.002-1.201-.024-1.564H17.17c-.535 0-.98 0-1.345-.03-.38-.03-.736-.098-1.073-.27A2.75 2.75 0 0113.55 7.25c-.172-.338-.24-.694-.27-1.074-.03-.365-.03-.81-.03-1.345V2.772zm5.59 4.478a4.263 4.263 0 00-.216-.4c-.252-.41-.607-.773-1.497-1.663l-.38-.378c-.823-.824-1.158-1.154-1.535-1.393a4.246 4.246 0 00-.462-.256V4.8c0 .572 0 .957.025 1.253.023.287.065.424.111.515.12.235.311.426.546.546.091.046.228.088.515.111.296.024.68.025 1.253.025h1.64zm1.91 4v-1.036c0-1.128 0-1.823-.159-2.485a5.75 5.75 0 00-.688-1.662c-.356-.581-.848-1.073-1.646-1.87l-.07-.07-.379-.38-.064-.064c-.74-.739-1.194-1.194-1.726-1.533a5.75 5.75 0 00-1.844-.764c-.616-.136-1.26-.136-2.304-.136h-.122c-1.27 0-2.265 0-3.067.06-.816.063-1.493.19-2.111.479a5.75 5.75 0 00-2.781 2.78c-.289.62-.416 1.296-.478 2.112-.061.802-.061 1.797-.061 3.066v1.503H2a.75.75 0 000 1.5h20a.75.75 0 000-1.5h-1.25zM6.75 16a.75.75 0 00-1.5 0v3a.75.75 0 001.5 0v-3zm3.25-.75a.75.75 0 01.75.75v6a.75.75 0 01-1.5 0v-6a.75.75 0 01.75-.75zm4.75.75a.75.75 0 00-1.5 0v6a.75.75 0 001.5 0v-6zm3.25-.75a.75.75 0 01.75.75v3a.75.75 0 01-1.5 0v-3a.75.75 0 01.75-.75z"/>
</svg>
