<svg xmlns="http://www.w3.org/2000/svg" width="24" height="24" fill="currentColor" viewBox="0 0 24 24">
  <path fill-rule="evenodd" d="M12.536 2.343a1.25 1.25 0 00-1.072 0c-.107.05-.282.195-.574.667-.286.461-.614 1.115-1.081 2.05L4.69 15.297c-.755 1.51-1.3 2.603-1.63 3.415a5.405 5.405 0 00-.306.937c-.046.232-.026.33-.018.355.136.42.482.737.912.835.026.006.125.017.353-.049.224-.065.517-.188.906-.387.78-.4 1.82-1.039 3.259-1.924l1.764-1.086.092-.056c.518-.32.925-.57 1.376-.672a2.75 2.75 0 011.204 0c.451.101.858.352 1.376.672l.092.056 1.764 1.086c1.439.885 2.479 1.525 3.26 1.924.388.2.681.322.905.387.228.066.327.055.353.05a1.25 1.25 0 00.912-.836c.008-.026.028-.123-.018-.355a5.402 5.402 0 00-.306-.937c-.33-.812-.875-1.904-1.63-3.415L14.19 5.06c-.467-.935-.795-1.589-1.08-2.05-.293-.472-.468-.616-.575-.667zM10.822.987a2.75 2.75 0 012.357 0c.516.245.882.709 1.207 1.233.326.526.684 1.242 1.13 2.134l.017.035 5.118 10.237.017.034c.735 1.47 1.308 2.615 1.662 3.488.18.442.316.847.388 1.211.071.361.09.743-.027 1.106a2.75 2.75 0 01-2.006 1.837c-.371.084-.75.032-1.103-.071a6.83 6.83 0 01-1.172-.493c-.84-.43-1.93-1.1-3.33-1.962l-.032-.02-1.764-1.085c-.655-.403-.836-.503-1.01-.542a1.25 1.25 0 00-.548 0c-.174.039-.355.139-1.01.542l-1.764 1.086-.033.02c-1.4.86-2.49 1.531-3.329 1.961-.424.218-.815.39-1.172.493-.353.102-.731.155-1.103.07a2.75 2.75 0 01-2.006-1.836c-.117-.363-.098-.744-.027-1.106a6.83 6.83 0 01.388-1.21c.354-.874.927-2.02 1.662-3.49l.016-.033L8.467 4.389l.017-.035c.446-.892.804-1.608 1.13-2.134.325-.524.691-.988 1.208-1.233z"/>
</svg>
