<svg xmlns="http://www.w3.org/2000/svg" width="24" height="24" fill="currentColor" viewBox="0 0 24 24">
  <path fill-rule="evenodd" d="M11.123.25h1.754c.746 0 1.33-.001 1.84.21a2.75 2.75 0 011.13.868c.335.437.485 1.002.676 1.724l.035.13.09.34c.341.085.66.2.962.355a5.75 5.75 0 012.513 2.513c.336.658.485 1.385.556 2.265.071.864.071 1.94.071 3.311v.068c0 1.371 0 2.447-.07 3.311-.072.88-.221 1.607-.557 2.265a5.75 5.75 0 01-2.513 2.513c-.303.155-.62.27-.962.356l-.09.339-.035.13c-.191.722-.341 1.287-.676 1.724a2.75 2.75 0 01-1.13.868c-.51.211-1.094.21-1.84.21h-1.754c-.746 0-1.33.001-1.84-.21a2.75 2.75 0 01-1.13-.868c-.335-.437-.485-1.002-.676-1.724l-.035-.13-.09-.34a4.557 4.557 0 01-.962-.355 5.75 5.75 0 01-2.513-2.513c-.336-.658-.484-1.385-.556-2.265-.071-.864-.071-1.94-.071-3.311v-.068c0-1.371 0-2.447.07-3.311.073-.88.221-1.607.557-2.265A5.75 5.75 0 016.39 3.877c.303-.155.62-.27.961-.356l.09-.339.036-.13c.191-.722.341-1.287.676-1.724A2.75 2.75 0 019.283.46c.51-.211 1.094-.21 1.84-.21zM8.963 20.7c.19.698.266.908.381 1.06.134.174.31.31.514.394.196.081.452.095 1.4.095h1.484c.948 0 1.204-.014 1.4-.095.203-.084.38-.22.514-.395.115-.15.19-.361.38-1.059-.808.049-1.79.049-3.002.049h-.068c-1.213 0-2.194 0-3.002-.049zM14.657 2.24c.115.15.191.361.38 1.059-.808-.049-1.79-.049-3.002-.049h-.068c-1.212 0-2.194 0-3.002.049.189-.698.265-.908.38-1.06.134-.173.31-.31.514-.394.196-.081.452-.095 1.4-.095h1.484c.948 0 1.204.014 1.4.095.203.084.38.22.514.395zM7.07 5.213c.411-.21.919-.333 1.706-.397.796-.065 1.81-.066 3.223-.066 1.412 0 2.427 0 3.223.066.787.064 1.295.188 1.707.397a4.25 4.25 0 011.857 1.858c.21.411.333.919.397 1.706.065.796.066 1.81.066 3.223 0 1.412 0 2.427-.066 3.223-.064.787-.188 1.295-.397 1.707a4.25 4.25 0 01-1.857 1.857c-.412.21-.92.333-1.707.397-.796.065-1.81.066-3.223.066-1.412 0-2.427 0-3.223-.066-.787-.064-1.295-.188-1.706-.397a4.25 4.25 0 01-1.858-1.857c-.21-.412-.333-.92-.397-1.707-.065-.796-.066-1.81-.066-3.223 0-1.412 0-2.427.066-3.223.064-.787.188-1.295.397-1.706a4.25 4.25 0 011.858-1.858zM12.75 10a.75.75 0 00-1.5 0v2c0 .25.125.485.334.624l1.5 1a.75.75 0 10.832-1.248l-1.166-.777V10z"/>
</svg>
