<svg xmlns="http://www.w3.org/2000/svg" width="24" height="24" fill="currentColor" viewBox="0 0 24 24">
  <path fill-rule="evenodd" d="M9.697 2.819c-.25-.063-.539-.069-1.38-.069h-.755c-1.22 0-2.071.001-2.722.076-.635.074-.983.209-1.239.412a2.25 2.25 0 00-.363.363c-.203.256-.338.604-.412 1.239-.075.65-.076 1.502-.076 2.722V14c0 1.907.002 3.262.14 4.29.08.591.2 1.036.372 1.387L16.188 6.752c-.326-.002-.68-.002-1.063-.002H14.709c-.456 0-.813 0-1.147-.084a2.75 2.75 0 01-1.41-.87c-.224-.262-.383-.58-.587-.988l-.036-.073c-.376-.752-.51-1.008-.679-1.204a2.25 2.25 0 00-1.153-.712zm7.96 2.464c-.699-.033-1.526-.033-2.506-.033H14.789c-.575 0-.73-.005-.86-.038a1.25 1.25 0 01-.64-.396c-.087-.101-.161-.238-.418-.751l-.043-.086c-.317-.634-.536-1.072-.841-1.427a3.75 3.75 0 00-1.922-1.188c-.454-.114-.943-.114-1.653-.114h-.896c-1.163 0-2.101 0-2.848.086-.773.09-1.435.28-2 .727a3.75 3.75 0 00-.605.606c-.448.564-.638 1.226-.727 1.999-.086.747-.086 1.685-.086 2.848v6.54c0 1.838 0 3.294.153 4.433.12.886.338 1.645.761 2.286L.47 22.47a.75.75 0 001.06 1.06L18.48 6.581l4.05-4.05a.75.75 0 00-1.06-1.061l-3.813 3.813zm3.321 1.943a.75.75 0 011.035.232c.399.63.573 1.344.656 2.195.081.832.081 1.871.081 3.183V14.056c0 1.838 0 3.294-.153 4.433-.158 1.172-.49 2.121-1.238 2.87-.749.748-1.698 1.08-2.87 1.238-1.14.153-2.595.153-4.433.153H7a.75.75 0 110-1.5H14c1.907 0 3.262-.002 4.29-.14 1.005-.135 1.585-.389 2.008-.812.423-.423.677-1.003.812-2.009.138-1.027.14-2.382.14-4.289v-1.125c0-1.36 0-2.326-.074-3.076-.072-.738-.209-1.188-.43-1.538a.75.75 0 01.232-1.035z"/>
</svg>
