<svg xmlns="http://www.w3.org/2000/svg" width="24" height="24" fill="currentColor" viewBox="0 0 24 24">
  <path fill-rule="evenodd" d="M13 2.25a.75.75 0 000 1.5h8a.75.75 0 000-1.5h-8zm-7.629 0H6.63c.395 0 .736 0 1.017.023.297.024.592.078.875.222.424.216.768.56.984.984.144.283.198.578.222.875.023.28.023.622.023 1.017V6.63c0 .395 0 .736-.023 1.017-.024.297-.078.592-.222.875a2.25 2.25 0 01-.984.984c-.283.144-.578.198-.875.222-.28.023-.622.023-1.017.023H5.37c-.395 0-.736 0-1.017-.023-.297-.024-.592-.078-.875-.222a2.25 2.25 0 01-.984-.984c-.144-.283-.198-.578-.222-.875-.023-.28-.023-.622-.023-1.017V5.37c0-.395 0-.736.023-1.017.024-.297.078-.592.222-.875a2.25 2.25 0 01.984-.984c.283-.144.578-.198.875-.222.28-.023.622-.023 1.017-.023zm-.895 1.518c-.204.017-.28.045-.316.064a.75.75 0 00-.328.328c-.02.037-.047.112-.064.316-.017.212-.018.492-.018.924v1.2c0 .432 0 .712.018.924.017.204.045.28.064.316a.75.75 0 00.328.328c.037.02.112.047.316.064.212.017.492.018.924.018h1.2c.432 0 .712 0 .924-.018.204-.017.28-.045.316-.064a.75.75 0 00.328-.327c.02-.038.047-.113.064-.317.017-.212.018-.492.018-.924V5.4c0-.432 0-.712-.018-.924-.017-.204-.045-.28-.064-.316a.75.75 0 00-.327-.328c-.038-.02-.113-.047-.317-.064A12.754 12.754 0 006.6 3.75H5.4c-.432 0-.712 0-.924.018zM2.25 21a.75.75 0 01.75-.75h18a.75.75 0 010 1.5H3a.75.75 0 01-.75-.75zm10-12a.75.75 0 01.75-.75h8a.75.75 0 010 1.5h-8a.75.75 0 01-.75-.75zM3 14.25a.75.75 0 000 1.5h18a.75.75 0 000-1.5H3z"/>
</svg>
