<svg xmlns="http://www.w3.org/2000/svg" width="24" height="24" fill="currentColor" viewBox="0 0 24 24">
  <path fill-rule="evenodd" d="M7.2 1.25h-.03c-.535 0-.98 0-1.345.03-.38.03-.736.098-1.074.27A2.75 2.75 0 003.55 2.752c-.172.337-.24.693-.27 1.073-.03.365-.03.81-.03 1.345v1.179c0 1.014-.005 1.399-.09 1.753a3.25 3.25 0 01-.389.94c-.19.31-.459.585-1.176 1.302L.47 11.47a.75.75 0 000 1.06l1.125 1.126c.717.717.986.992 1.176 1.303.178.29.31.608.39.94.084.353.089.738.089 1.752v1.179c0 .535 0 .98.03 1.345.03.38.098.736.27 1.073A2.75 2.75 0 004.75 22.45c.338.172.694.24 1.074.27.364.03.81.03 1.344.03H9a.75.75 0 000-1.5H7.2c-.572 0-.957 0-1.253-.025-.287-.023-.424-.065-.515-.111a1.25 1.25 0 01-.546-.547c-.046-.09-.088-.227-.111-.515-.024-.295-.025-.68-.025-1.252v-1.242c0-.89 0-1.462-.131-2.01a4.75 4.75 0 00-.569-1.373c-.294-.48-.7-.885-1.328-1.514l-.066-.066L2.06 12l.595-.595.066-.066c.628-.629 1.034-1.034 1.328-1.514a4.75 4.75 0 00.569-1.373c.131-.548.131-1.12.13-2.01V5.2c0-.572.002-.957.026-1.253.023-.287.065-.424.111-.514a1.25 1.25 0 01.546-.547c.091-.046.228-.088.515-.111.296-.024.68-.025 1.253-.025H9a.75.75 0 100-1.5H7.2zm9.6 1.5c.572 0 .957 0 1.253.025.287.023.424.065.515.111.235.12.426.311.546.547.046.09.088.227.111.514.024.296.025.68.025 1.253v1.243c0 .888 0 1.461.131 2.009.117.485.309.948.57 1.373.293.48.698.885 1.327 1.514l.066.066.595.595-.595.595-.066.066c-.628.629-1.034 1.034-1.328 1.514a4.75 4.75 0 00-.569 1.373c-.131.548-.131 1.12-.13 2.01V18.8c0 .572-.002.957-.026 1.252-.023.288-.065.425-.111.515a1.25 1.25 0 01-.546.547c-.091.046-.228.088-.515.111-.296.024-.68.025-1.253.025H15a.75.75 0 000 1.5h1.83c.535 0 .98 0 1.345-.03.38-.03.736-.098 1.074-.27a2.75 2.75 0 001.201-1.201c.172-.338.24-.694.27-1.074.03-.364.03-.81.03-1.345v-1.179c0-1.014.005-1.399.09-1.753.08-.331.21-.649.389-.94.19-.31.459-.585 1.176-1.302l1.125-1.126a.75.75 0 000-1.06l-1.125-1.126c-.717-.717-.986-.992-1.176-1.303a3.25 3.25 0 01-.39-.94c-.084-.353-.089-.738-.089-1.752V5.17c0-.535 0-.98-.03-1.345-.03-.38-.098-.736-.27-1.073A2.75 2.75 0 0019.25 1.55c-.338-.172-.694-.24-1.074-.27-.364-.03-.81-.03-1.345-.03H15a.75.75 0 000 1.5h1.8zM12 9a1 1 0 100-2 1 1 0 000 2zm1 3a1 1 0 11-2 0 1 1 0 012 0zm-1 5a1 1 0 100-2 1 1 0 000 2z"/>
</svg>
