<svg xmlns="http://www.w3.org/2000/svg" width="24" height="24" fill="currentColor" viewBox="0 0 24 24">
  <path fill-rule="evenodd" d="M3.396 8.598A9.226 9.226 0 002.75 12a9.23 9.23 0 00.587 3.25h5.145L3.396 8.598zm.75-1.487L6.96 10.79l5.895-8.001a9.244 9.244 0 00-8.709 4.322zm6.225 8.139l-2.462-3.22 2.417-3.28h3.303l2.462 3.22-2.417 3.28H10.37zm3.636-8a.78.78 0 00-.015 0h-2.56l3.064-4.16a9.27 9.27 0 015.443 4.16h-5.932zm1.51 1.5l5.087 6.652c.417-1.053.646-2.2.646-3.402a9.23 9.23 0 00-.587-3.25h-5.145zm1.523 4.46l-5.895 8.001a9.244 9.244 0 008.709-4.322L17.04 13.21zm-7.536 7.7l3.064-4.16H4.061a9.27 9.27 0 005.443 4.16zM1.25 12C1.25 6.063 6.063 1.25 12 1.25S22.75 6.063 22.75 12 17.937 22.75 12 22.75 1.25 17.937 1.25 12z"/>
</svg>
