<svg xmlns="http://www.w3.org/2000/svg" width="24" height="24" fill="currentColor" viewBox="0 0 24 24">
  <path fill-rule="evenodd" d="M10 1.25h-.034c-1.371 0-2.447 0-3.311.07-.88.073-1.607.221-2.265.557A5.75 5.75 0 001.877 4.39c-.336.658-.484 1.385-.556 2.265-.071.864-.071 1.94-.071 3.311v4.068c0 1.371 0 2.447.07 3.311.073.88.221 1.607.557 2.265a5.75 5.75 0 002.513 2.513c.658.336 1.385.485 2.265.556.864.071 1.94.071 3.311.071h4.068c1.371 0 2.447 0 3.311-.07.88-.072 1.607-.221 2.265-.557a5.75 5.75 0 002.513-2.513c.336-.658.485-1.385.556-2.265.071-.864.071-1.94.071-3.311V9.966c0-1.371 0-2.447-.07-3.311-.072-.88-.221-1.607-.557-2.265a5.75 5.75 0 00-2.513-2.513c-.658-.336-1.385-.484-2.265-.556-.864-.071-1.94-.071-3.311-.071H10zM5.07 3.213c.412-.21.92-.333 1.707-.397.796-.065 1.81-.066 3.223-.066h4c1.412 0 2.427 0 3.223.066.787.064 1.295.188 1.707.397a4.25 4.25 0 011.857 1.858c.21.411.333.919.397 1.706.065.796.066 1.81.066 3.223v4c0 1.412 0 2.427-.066 3.223-.064.787-.188 1.295-.397 1.707a4.251 4.251 0 01-1.857 1.857c-.412.21-.92.333-1.707.397-.796.065-1.81.066-3.223.066h-4c-1.413 0-2.427 0-3.223-.066-.787-.064-1.295-.188-1.706-.397a4.25 4.25 0 01-1.858-1.857c-.21-.412-.333-.92-.397-1.707-.065-.796-.066-1.81-.066-3.223v-4c0-1.413 0-2.427.066-3.223.064-.787.188-1.295.397-1.706a4.25 4.25 0 011.858-1.858zM12.75 9a.75.75 0 00-1.5 0v2a.75.75 0 001.5 0V9zm.25 5a1 1 0 11-2 0 1 1 0 012 0zm-1-8.75A6.737 6.737 0 005.25 12a.75.75 0 001.5 0A5.237 5.237 0 0112 6.75c1.794 0 3 .667 3.762 1.32.07.06.137.12.2.18H15.5a.75.75 0 000 1.5h2a.75.75 0 00.75-.75V6.5a.75.75 0 00-1.5 0v.44l-.012-.01C15.75 6.084 14.206 5.25 12 5.25zM18.75 12a.75.75 0 00-1.5 0c0 2.9-2.35 5.25-5.25 5.25-1.427 0-2.642-.647-3.531-1.341a8.158 8.158 0 01-.197-.159H8.5a.75.75 0 000-1.5h-2a.75.75 0 00-.75.75v2.5a.75.75 0 001.5 0v-.65c.094.08.193.16.296.241 1.033.806 2.567 1.659 4.454 1.659A6.75 6.75 0 0018.75 12z"/>
</svg>
