<svg xmlns="http://www.w3.org/2000/svg" width="24" height="24" fill="currentColor" viewBox="0 0 24 24">
  <path fill-rule="evenodd" d="M20.221 1.364a2.75 2.75 0 00-2.442 0c-.407.202-.763.559-1.224 1.02l-.085.086-1.525 1.524c-.484-.392-.95-.683-1.477-.855a4.75 4.75 0 00-2.936 0c-.588.191-1.101.532-1.647.996-.533.453-1.145 1.065-1.917 1.837l-.024.023-2.949 2.95-.023.023c-.772.772-1.384 1.384-1.837 1.917-.464.546-.804 1.059-.996 1.647a4.75 4.75 0 000 2.936c.192.588.532 1.101.996 1.647.453.533 1.064 1.145 1.837 1.917l.023.024.95.949.023.023c.772.773 1.384 1.385 1.917 1.837.546.464 1.059.805 1.647.996.954.31 1.982.31 2.936 0 .588-.192 1.101-.532 1.647-.996.533-.453 1.145-1.065 1.918-1.837l.023-.023 2.949-2.95.023-.023c.773-.772 1.385-1.384 1.837-1.917.464-.546.805-1.059.996-1.647a4.75 4.75 0 000-2.936c-.172-.527-.463-.993-.855-1.477L21.53 7.53l.086-.086c.461-.46.818-.816 1.02-1.223a2.75 2.75 0 000-2.442c-.202-.407-.559-.763-1.02-1.223l-.086-.086-.085-.086c-.46-.461-.817-.818-1.224-1.02zm-1.225 6.58L20.47 6.47c.588-.588.744-.759.822-.915a1.25 1.25 0 000-1.11c-.078-.156-.234-.327-.822-.915-.588-.588-.759-.744-.915-.822a1.25 1.25 0 00-1.11 0c-.156.078-.327.234-.915.822l-1.473 1.474c.296.288.619.611.976.968l.023.023.949.95.023.023c.357.356.68.679.968.975zm-5.992-3.378a3.25 3.25 0 00-2.008 0c-.325.106-.665.31-1.14.712-.481.409-1.05.977-1.851 1.778l-2.95 2.949c-.8.8-1.368 1.37-1.777 1.851-.403.475-.606.815-.712 1.14a3.25 3.25 0 000 2.008c.106.325.31.665.712 1.14.409.481.977 1.05 1.778 1.851l.949.95c.8.8 1.37 1.368 1.851 1.777.475.403.815.606 1.14.712a3.25 3.25 0 002.008 0c.325-.106.665-.31 1.14-.712.481-.409 1.05-.977 1.851-1.778l2.95-2.949c.8-.8 1.368-1.37 1.777-1.851.403-.475.606-.815.712-1.14a3.25 3.25 0 000-2.008c-.106-.325-.31-.665-.712-1.14-.409-.481-.977-1.05-1.778-1.851l-.949-.95c-.8-.8-1.37-1.368-1.851-1.777-.475-.403-.815-.606-1.14-.712zM6.47 13.47a.75.75 0 011.06 0l3 3a.75.75 0 11-1.06 1.06l-3-3a.75.75 0 010-1.06z"/>
</svg>
