<svg xmlns="http://www.w3.org/2000/svg" width="24" height="24" fill="currentColor" viewBox="0 0 24 24">
  <path fill-rule="evenodd" d="M5.694 7.5c0-2.89 2.317-5.25 5.195-5.25h2.222c2.877 0 5.194 2.36 5.194 5.25a.75.75 0 01-1.5 0c0-2.08-1.662-3.75-3.694-3.75h-2.222c-2.032 0-3.695 1.67-3.695 3.75 0 .326.04.64.117.94a.75.75 0 01-1.454.37 5.311 5.311 0 01-.163-1.31zM2.25 12a.75.75 0 01.75-.75h18a.75.75 0 010 1.5h-4.254a5.266 5.266 0 011.56 3.75c0 2.89-2.318 5.25-5.195 5.25h-2.222c-2.878 0-5.195-2.36-5.195-5.25a.75.75 0 011.5 0c0 2.08 1.663 3.75 3.695 3.75h2.222c2.031 0 3.694-1.67 3.694-3.75s-1.662-3.75-3.694-3.75H3a.75.75 0 01-.75-.75z"/>
</svg>
