<svg xmlns="http://www.w3.org/2000/svg" width="24" height="24" fill="currentColor" viewBox="0 0 24 24">
  <path fill-rule="evenodd" d="M11.962 1.25h.076c1.837 0 3.267 0 4.41.104 1.16.105 2.098.322 2.927.8a6.75 6.75 0 012.47 2.471c.48.83.696 1.767.802 2.927.103 1.143.103 2.573.103 4.41v.076c0 1.837 0 3.267-.104 4.41-.105 1.16-.322 2.098-.8 2.927a6.752 6.752 0 01-2.471 2.47c-.83.48-1.767.696-2.927.802-1.143.103-2.573.103-4.41.103h-.076c-1.837 0-3.267 0-4.41-.104-1.16-.105-2.098-.322-2.927-.8a6.75 6.75 0 01-2.47-2.471c-.48-.83-.696-1.767-.801-2.927-.104-1.143-.104-2.573-.104-4.41v-.076c0-1.837 0-3.267.104-4.41.105-1.16.322-2.098.8-2.927a6.75 6.75 0 012.471-2.47c.83-.48 1.767-.696 2.927-.801 1.143-.104 2.573-.104 4.41-.104zM7.688 2.847c-1.057.096-1.75.281-2.313.606a5.25 5.25 0 00-1.922 1.922c-.325.563-.51 1.256-.606 2.313C2.751 8.755 2.75 10.117 2.75 12c0 1.883 0 3.245.097 4.312.096 1.057.281 1.75.606 2.313a5.25 5.25 0 001.922 1.922c.563.325 1.256.51 2.313.606 1.067.096 2.429.097 4.312.097 1.883 0 3.245 0 4.312-.097 1.057-.096 1.75-.281 2.313-.606a5.25 5.25 0 001.922-1.922c.325-.563.51-1.256.606-2.313.096-1.067.097-2.429.097-4.312 0-1.883 0-3.245-.097-4.312-.096-1.057-.281-1.75-.606-2.313a5.25 5.25 0 00-1.922-1.922c-.563-.325-1.256-.51-2.313-.606-1.067-.096-2.429-.097-4.312-.097-1.883 0-3.245 0-4.312.097zM11.5 9.25a.75.75 0 01.75.75v2.037l1.585.792a.75.75 0 11-.67 1.342l-2-1a.75.75 0 01-.415-.671V10a.75.75 0 01.75-.75zM8.221 5.206a.75.75 0 10-1.442-.412l-1 3.5a.75.75 0 001.251.736C8.435 7.626 10.034 6.75 12 6.75A5.25 5.25 0 116.75 12a.75.75 0 00-1.5 0A6.75 6.75 0 1012 5.25c-1.573 0-2.937.454-4.133 1.194l.354-1.238z"/>
</svg>
