<svg xmlns="http://www.w3.org/2000/svg" width="24" height="24" fill="currentColor" viewBox="0 0 24 24">
  <path fill-rule="evenodd" d="M20.75 1a.75.75 0 00-1.5 0v2.25H17a.75.75 0 000 1.5h2.25V7a.75.75 0 001.5 0V4.75H23a.75.75 0 000-1.5h-2.25V1zM8.4 3.25h-.033c-1.092 0-1.958 0-2.655.057-.714.058-1.317.18-1.868.46a4.75 4.75 0 00-2.076 2.077c-.281.55-.403 1.154-.461 1.868-.057.697-.057 1.563-.057 2.655V15.633c0 1.092 0 1.958.057 2.655.058.714.18 1.317.46 1.869a4.75 4.75 0 002.077 2.075c.55.281 1.154.403 1.868.461.697.057 1.563.057 2.655.057H13.633c1.092 0 1.958 0 2.655-.057.714-.058 1.317-.18 1.869-.46a4.75 4.75 0 002.075-2.076c.281-.552.403-1.155.461-1.869.057-.697.057-1.563.057-2.655V10.5a.75.75 0 00-1.5 0v5.1c0 1.133 0 1.937-.052 2.566-.05.62-.147 1.005-.302 1.31a3.25 3.25 0 01-1.42 1.42c-.305.155-.69.251-1.31.302-.63.051-1.434.052-2.566.052H8.4c-1.132 0-1.937 0-2.566-.052-.62-.05-1.005-.147-1.31-.302a3.25 3.25 0 01-1.42-1.42c-.155-.305-.251-.69-.302-1.31-.051-.63-.052-1.433-.052-2.566v-5.2c0-1.132 0-1.937.052-2.566.05-.62.147-1.005.302-1.31a3.25 3.25 0 011.42-1.42c.305-.155.69-.251 1.31-.302.63-.051 1.434-.052 2.566-.052h5.1a.75.75 0 000-1.5H8.4zM8.75 16a1.25 1.25 0 112.5 0 1.25 1.25 0 01-2.5 0zM10 13.25c.45 0 .875.108 1.25.3V8a.75.75 0 011.166-.624l3 2a.75.75 0 11-.832 1.248L12.75 9.401v6.601A2.75 2.75 0 1110 13.25z"/>
</svg>
