<svg xmlns="http://www.w3.org/2000/svg" width="24" height="24" fill="currentColor" viewBox="0 0 24 24">
  <path fill-rule="evenodd" d="M19.47 1.53A.75.75 0 0120.53.47l3 3a.75.75 0 01-1.06 1.06l-3-3zM3.219 1.466a.75.75 0 00-1.053 0L.474 3.132a.75.75 0 101.052 1.069l1.166-1.148 1.924 1.895A10.624 10.624 0 001.942 12c0 5.948 4.893 10.75 10.904 10.75 2.74 0 5.246-.997 7.162-2.644l2.466 2.428a.75.75 0 001.052-1.068l-2.974-2.93L6.192 4.396 3.22 1.465zM3.442 12c0-2.287.844-4.382 2.245-5.998l13.248 13.047a9.456 9.456 0 01-6.089 2.201c-5.204 0-9.404-4.152-9.404-9.25zm5.221-8.287a9.49 9.49 0 014.183-.963c5.205 0 9.404 4.152 9.404 9.25 0 1.476-.351 2.87-.975 4.107a.75.75 0 101.34.675A10.585 10.585 0 0023.75 12c0-5.948-4.893-10.75-10.904-10.75a10.99 10.99 0 00-4.842 1.116.75.75 0 00.659 1.347z"/>
</svg>
