<svg xmlns="http://www.w3.org/2000/svg" width="24" height="24" fill="currentColor" viewBox="0 0 24 24">
  <path fill-rule="evenodd" d="M2.864 10.602C4.222 8.43 6.691 6.25 11 6.25c3.315 0 6.25 2.19 8.28 4.22a26.283 26.283 0 011.97 2.215V7a.75.75 0 011.5 0v8a.75.75 0 01-.75.75h-7.778a.75.75 0 010-1.5h6.34a25.277 25.277 0 00-2.343-2.72C16.25 9.56 13.686 7.75 11 7.75c-3.691 0-5.722 1.82-6.864 3.648a10.36 10.36 0 00-1.39 3.684l-.002.011a.75.75 0 01-1.488-.186L2 15l-.744-.094v-.003l.001-.008.003-.023.012-.08a11.227 11.227 0 01.289-1.253c.232-.795.632-1.863 1.303-2.937z"/>
</svg>
