<svg xmlns="http://www.w3.org/2000/svg" width="24" height="24" fill="currentColor" viewBox="0 0 24 24">
  <path fill-rule="evenodd" d="M15.8 1.25h-.032c-.813 0-1.469 0-2 .043-.546.045-1.026.14-1.47.366a3.75 3.75 0 00-1.64 1.639c-.226.444-.32.924-.365 1.47-.012.15-.02.311-.027.482H7.495c-1.198 0-1.969 0-2.675.225-.624.2-1.2.525-1.692.958-.557.49-.953 1.15-1.57 2.178l-.065.11-.224.373-.032.054c-.31.514-.508.846-.651 1.206a4.75 4.75 0 00-.274.987c-.062.382-.062.769-.062 1.37V16.024c0 .445 0 .816.02 1.12.022.317.07.617.19.907a2.75 2.75 0 001.488 1.489c.29.12.59.167.907.188.142.01.298.015.47.018a3.751 3.751 0 007.35.003h2.65a3.751 3.751 0 007.362-.063A3.751 3.751 0 0023.75 16V6.768c0-.813 0-1.469-.043-2-.045-.546-.14-1.026-.366-1.47a3.75 3.75 0 00-1.639-1.64c-.444-.226-.924-.32-1.47-.365-.531-.043-1.187-.043-2-.043H15.8zm-8.176 5.5h2.626V7.8c0 .572 0 .957-.025 1.253-.023.287-.065.424-.111.514a1.25 1.25 0 01-.546.547c-.091.046-.228.088-.515.111-.296.024-.68.025-1.253.025H2.326l.23-.384.223-.373c.705-1.175.98-1.618 1.34-1.934a3.25 3.25 0 011.157-.655c.456-.146.977-.154 2.348-.154zm-5.853 5c-.02.213-.021.488-.021 1.023V16c0 .476 0 .796.017 1.043.017.241.046.358.078.435.127.307.37.55.677.677.077.032.194.061.435.078.107.007.228.011.369.014a3.751 3.751 0 017.349.003h2.65a3.751 3.751 0 017.33-.096A2.251 2.251 0 0022.25 16V6.8c0-.852 0-1.447-.038-1.91-.038-.453-.107-.714-.207-.911a2.25 2.25 0 00-.983-.984c-.198-.1-.459-.17-.913-.207-.462-.037-1.057-.038-1.909-.038h-2.4c-.852 0-1.447 0-1.91.038-.453.037-.714.107-.912.207a2.25 2.25 0 00-.983.984c-.1.197-.17.458-.207.912-.037.462-.038 1.057-.038 1.909V8.008c0 .456-.003.844-.03 1.167-.03.38-.098.736-.27 1.073a2.751 2.751 0 01-1.201 1.202c-.338.172-.694.24-1.074.27-.365.03-.81.03-1.345.03H1.771zm5.229 5a2.25 2.25 0 100 4.5 2.25 2.25 0 000-4.5zm10 0a2.25 2.25 0 100 4.5 2.25 2.25 0 000-4.5z"/>
</svg>
