<svg xmlns="http://www.w3.org/2000/svg" width="24" height="24" fill="currentColor" viewBox="0 0 24 24">
  <path fill-rule="evenodd" d="M10 1.25h-.034c-1.371 0-2.447 0-3.311.07-.88.073-1.607.221-2.265.557A5.75 5.75 0 001.877 4.39c-.336.658-.484 1.385-.556 2.265-.053.64-.066 1.396-.07 2.302a.76.76 0 000 .08l-.001.927V14.034c0 1.371 0 2.447.07 3.311.073.88.221 1.607.557 2.265a5.75 5.75 0 002.513 2.513c.658.336 1.385.485 2.265.556.64.053 1.396.066 2.302.07a.779.779 0 00.08 0l.927.001H14.034c1.371 0 2.447 0 3.311-.07.88-.072 1.607-.221 2.265-.557a5.75 5.75 0 002.513-2.513c.336-.658.485-1.385.556-2.265.053-.64.066-1.396.07-2.302a.774.774 0 000-.08l.001-.93V9.965v-.926a.796.796 0 00-.001-.081c-.004-.906-.017-1.662-.07-2.302-.071-.88-.22-1.607-.556-2.265a5.75 5.75 0 00-2.513-2.513c-.658-.336-1.385-.484-2.265-.556-.864-.071-1.94-.071-3.311-.071H10zm11.25 13v-4.5H9.75v4.5h11.5zm-13 .75V9.75h-5.5V14c0 1.412 0 2.427.066 3.223.064.787.188 1.295.397 1.707a4.25 4.25 0 001.858 1.857c.411.21.919.333 1.706.397.421.035.903.051 1.473.059V15zm1.5.75h11.493a22.18 22.18 0 01-.059 1.473c-.064.787-.188 1.295-.397 1.707a4.251 4.251 0 01-1.857 1.857c-.412.21-.92.333-1.707.397-.796.065-1.81.066-3.223.066H9.75v-5.5zM9 8.25h12.243a22.181 22.181 0 00-.059-1.473c-.064-.787-.188-1.295-.397-1.706a4.25 4.25 0 00-1.857-1.858c-.412-.21-.92-.333-1.707-.397-.796-.065-1.81-.066-3.223-.066h-4c-1.413 0-2.427 0-3.223.066-.787.064-1.295.188-1.706.397a4.25 4.25 0 00-1.858 1.858c-.21.411-.333.919-.397 1.706-.035.421-.051.903-.059 1.473H9z"/>
</svg>
