<svg xmlns="http://www.w3.org/2000/svg" width="24" height="24" fill="currentColor" viewBox="0 0 24 24">
  <path fill-rule="evenodd" d="M17.03 3.97a.75.75 0 10-1.06 1.06l3.237 3.238c.405.404.676.676.868.903.187.22.254.346.285.443a1.25 1.25 0 010 .772c-.031.097-.098.224-.285.443-.192.227-.463.499-.868.903L15.97 14.97a.75.75 0 101.06 1.06l3.238-3.237.021-.021c.378-.378.693-.693.93-.972.246-.29.451-.59.568-.95a2.75 2.75 0 000-1.7c-.117-.36-.322-.66-.568-.95-.237-.279-.552-.594-.93-.972l-.021-.021L17.03 3.97zm-3.5.5a.75.75 0 10-1.06 1.06l3.72 3.72H6.767c-.813 0-1.469 0-2 .043-.546.045-1.026.14-1.47.366a3.75 3.75 0 00-1.64 1.638c-.226.445-.32.925-.365 1.471-.043.531-.043 1.187-.043 2V17a.75.75 0 001.5 0v-2.2c0-.853 0-1.447.038-1.91.037-.453.107-.714.207-.912a2.25 2.25 0 01.984-.983c.197-.1.458-.17.912-.207.462-.037 1.057-.038 1.909-.038h9.39l-3.72 3.72a.75.75 0 101.06 1.06l5-5a.75.75 0 000-1.06l-5-5z"/>
</svg>
