<svg xmlns="http://www.w3.org/2000/svg" width="24" height="24" fill="currentColor" viewBox="0 0 24 24">
  <path fill-rule="evenodd" d="M20.052 2.775c-.296-.024-.68-.025-1.252-.025H13c-.476 0-.796 0-1.043.017-.241.017-.358.046-.436.078a1.25 1.25 0 00-.676.677c-.032.077-.061.194-.078.435A17.07 17.07 0 0010.75 5h-1.5v-.025c0-.445 0-.816.02-1.12.022-.317.069-.617.19-.907a2.75 2.75 0 011.487-1.489c.29-.12.59-.167.908-.188.304-.021.675-.021 1.12-.021h5.855c.535 0 .98 0 1.345.03.38.03.736.098 1.073.27a2.75 2.75 0 011.202 1.202c.172.337.24.693.27 1.073.03.365.03.81.03 1.344v5.856c0 .445 0 .816-.02 1.12a2.822 2.822 0 01-.19.907 2.75 2.75 0 01-1.488 1.489c-.29.12-.59.167-.907.188-.304.021-.675.021-1.12.021H19v-1.5c.476 0 .796 0 1.043-.017.24-.017.358-.046.435-.078.306-.127.55-.37.677-.677.032-.077.061-.194.078-.435.017-.247.017-.567.017-1.043V5.2c0-.572 0-.957-.025-1.253-.023-.287-.065-.424-.111-.514a1.25 1.25 0 00-.547-.547c-.09-.046-.227-.088-.515-.111zm-4 4c-.295-.024-.68-.025-1.252-.025H9c-.476 0-.796 0-1.043.017-.241.017-.358.046-.435.078a1.25 1.25 0 00-.677.677c-.032.077-.061.194-.078.435A17.09 17.09 0 006.75 9h-1.5v-.025c0-.445 0-.816.02-1.12.022-.317.069-.617.19-.907a2.75 2.75 0 011.487-1.489c.29-.12.59-.167.908-.188.304-.021.675-.021 1.12-.021h5.855c.534 0 .98 0 1.345.03.38.03.736.098 1.073.27a2.75 2.75 0 011.202 1.202c.172.337.24.693.27 1.073.03.365.03.81.03 1.345v5.855c0 .445 0 .816-.02 1.12a2.822 2.822 0 01-.19.907 2.75 2.75 0 01-1.488 1.489c-.29.12-.59.167-.907.188-.304.021-.675.021-1.12.021H15v-1.5c.476 0 .796 0 1.043-.017.24-.017.358-.046.435-.078.306-.127.55-.37.677-.677.032-.077.061-.194.078-.435.017-.247.017-.567.017-1.043V9.2c0-.572 0-.957-.025-1.253-.023-.287-.065-.424-.111-.514a1.25 1.25 0 00-.547-.547c-.09-.046-.227-.088-.515-.111zM5.2 9.25h-.03c-.535 0-.98 0-1.345.03-.38.03-.736.098-1.074.27A2.75 2.75 0 001.55 10.75c-.172.338-.24.694-.27 1.074-.03.365-.03.81-.03 1.345v5.66c0 .535 0 .98.03 1.345.03.38.098.736.27 1.073A2.75 2.75 0 002.75 22.45c.338.172.694.24 1.074.27.364.03.81.03 1.344.03h5.661c.535 0 .98 0 1.345-.03.38-.03.736-.098 1.073-.27a2.75 2.75 0 001.202-1.201c.172-.338.24-.694.27-1.074.03-.364.03-.81.03-1.345v-5.66c0-.535 0-.98-.03-1.345-.03-.38-.098-.736-.27-1.073a2.75 2.75 0 00-1.202-1.202c-.337-.172-.694-.24-1.073-.27-.365-.03-.81-.03-1.345-.03H5.2zm-1.768 1.636c.09-.046.228-.088.515-.111.296-.024.68-.025 1.253-.025h5.6c.572 0 .957 0 1.252.025.287.023.425.065.515.111.236.12.427.311.547.546.046.091.088.228.111.515.024.296.025.68.025 1.253v5.6c0 .572 0 .957-.025 1.252-.023.288-.065.425-.111.515a1.25 1.25 0 01-.547.547c-.09.046-.228.088-.515.111-.295.024-.68.025-1.252.025H5.2c-.573 0-.957 0-1.253-.025-.287-.023-.424-.065-.515-.111a1.25 1.25 0 01-.546-.547c-.046-.09-.088-.227-.111-.515-.025-.295-.025-.68-.025-1.252v-5.6c0-.572 0-.957.025-1.252.023-.288.065-.425.111-.516a1.25 1.25 0 01.546-.546z"/>
</svg>
