<svg xmlns="http://www.w3.org/2000/svg" width="24" height="24" fill="currentColor" viewBox="0 0 24 24">
  <path fill-rule="evenodd" d="M15.47 2.47a.75.75 0 011.06 0l5 5a.75.75 0 01-1.06 1.06l-3.72-3.72v9.824c0 1.092 0 1.957-.057 2.655-.058.713-.18 1.316-.46 1.867a4.75 4.75 0 01-2.077 2.076c-.55.281-1.154.403-1.868.461-.697.057-1.563.057-2.655.057H3a.75.75 0 010-1.5h6.6c1.133 0 1.937 0 2.566-.052.62-.05 1.005-.147 1.31-.302a3.25 3.25 0 001.42-1.42c.155-.305.251-.69.302-1.31.051-.629.052-1.433.052-2.565v-9.79l-3.72 3.72a.75.75 0 11-1.06-1.061l5-5z"/>
</svg>
