<svg xmlns="http://www.w3.org/2000/svg" width="24" height="24" fill="currentColor" viewBox="0 0 24 24">
  <path fill-rule="evenodd" d="M10 1.25h-.034c-1.371 0-2.447 0-3.311.07-.88.073-1.607.221-2.265.557A5.75 5.75 0 001.877 4.39c-.336.658-.484 1.385-.556 2.265-.071.864-.071 1.94-.071 3.311v4.068c0 1.371 0 2.447.07 3.311.073.88.221 1.607.557 2.265a5.75 5.75 0 002.513 2.513c.658.336 1.385.485 2.265.556.864.071 1.94.071 3.311.071h4.068c1.371 0 2.447 0 3.311-.07.88-.072 1.607-.221 2.265-.557a5.75 5.75 0 002.513-2.513c.336-.658.485-1.385.556-2.265.071-.864.071-1.94.071-3.311V9.966c0-1.371 0-2.447-.07-3.311-.072-.88-.221-1.607-.557-2.265a5.75 5.75 0 00-2.513-2.513c-.658-.336-1.385-.484-2.265-.556-.864-.071-1.94-.071-3.311-.071H10zM5.07 3.213c.412-.21.92-.333 1.707-.397.796-.065 1.81-.066 3.223-.066h4c1.412 0 2.427 0 3.223.066.787.064 1.295.188 1.707.397a4.25 4.25 0 011.857 1.858c.21.411.333.919.397 1.706.065.796.066 1.81.066 3.223v4c0 1.412 0 2.427-.066 3.223-.064.787-.188 1.295-.397 1.707a4.251 4.251 0 01-1.857 1.857c-.412.21-.92.333-1.707.397-.796.065-1.81.066-3.223.066h-4c-1.413 0-2.427 0-3.223-.066-.787-.064-1.295-.188-1.706-.397a4.25 4.25 0 01-1.858-1.857c-.21-.412-.333-.92-.397-1.707-.065-.796-.066-1.81-.066-3.223v-4c0-1.413 0-2.427.066-3.223.064-.787.188-1.295.397-1.706a4.25 4.25 0 011.858-1.858zM12 4.25a7.667 7.667 0 00-3.103.652.75.75 0 10.606 1.372A6.167 6.167 0 0112 5.75c3.445 0 6.25 2.823 6.25 6.32a.75.75 0 001.5 0c0-4.311-3.463-7.82-7.75-7.82zM7.001 8.276a.75.75 0 00-1.203-.895 7.836 7.836 0 00-1.548 4.69c0 3.779 2.657 6.937 6.2 7.664a.75.75 0 10.3-1.47c-2.848-.584-5-3.132-5-6.194 0-1.426.466-2.739 1.251-3.795zm11.713 7.703a.75.75 0 00-1.301-.746 6.264 6.264 0 01-4.164 3.032.75.75 0 10.302 1.47 7.763 7.763 0 005.163-3.756zM12 8.75a3.25 3.25 0 00-2.709 5.047.75.75 0 11-1.249.83A4.75 4.75 0 0112 7.25a.75.75 0 010 1.5zm2.108-.232a.75.75 0 011.059-.058 4.75 4.75 0 01-4.75 8.02.75.75 0 11.5-1.415 3.25 3.25 0 003.25-5.488.75.75 0 01-.06-1.059zM12.75 11a.75.75 0 00-1.5 0v2a.75.75 0 001.5 0v-2z"/>
</svg>
