<svg xmlns="http://www.w3.org/2000/svg" width="24" height="24" fill="currentColor" viewBox="0 0 24 24">
  <path fill-rule="evenodd" d="M2.8 1.25h-.02c-.122 0-.255 0-.37.01-.13.01-.3.036-.477.126a1.25 1.25 0 00-.547.547c-.09.176-.116.348-.127.478-.01.114-.009.247-.009.369v2.44c0 .122 0 .255.01.37.01.13.036.3.126.478.12.235.311.426.547.546.176.09.348.116.478.127.114.01.247.01.369.009h2.44c.122 0 .255 0 .37-.01.13-.01.3-.036.478-.126a1.25 1.25 0 00.546-.546 1.26 1.26 0 00.127-.479c.01-.114.01-.247.009-.369V2.78c0-.122 0-.255-.01-.37a1.26 1.26 0 00-.126-.477 1.25 1.25 0 00-.546-.547 1.259 1.259 0 00-.479-.127c-.114-.01-.247-.009-.369-.009H2.8zM2.75 2.8v-.05H5.25V5.25H2.75V2.8zm7.5 1.2a.75.75 0 01.75-.75h11a.75.75 0 010 1.5H11a.75.75 0 01-.75-.75zm.75 7.25a.75.75 0 000 1.5h11a.75.75 0 000-1.5H11zm0 8a.75.75 0 000 1.5h11a.75.75 0 000-1.5H11zm-8.22-10h2.44c.122 0 .255 0 .37.01.13.01.3.036.478.126.235.12.426.311.546.547.09.176.116.348.127.478.01.114.01.247.009.369v2.44c0 .122 0 .255-.01.37a1.26 1.26 0 01-.126.478 1.25 1.25 0 01-.546.546c-.177.09-.349.116-.479.127-.114.01-.247.01-.369.009H2.78c-.122 0-.255 0-.37-.01a1.259 1.259 0 01-.477-.126 1.25 1.25 0 01-.547-.546 1.259 1.259 0 01-.127-.479c-.01-.114-.009-.247-.009-.369v-2.44c0-.122 0-.255.01-.37.01-.13.036-.3.126-.477a1.25 1.25 0 01.547-.547c.176-.09.348-.116.478-.127.114-.009.247-.009.369-.009zm-.03 1.5V13.25H5.25V10.75H2.75zm.05 6.5h-.02c-.122 0-.255 0-.37.01a1.26 1.26 0 00-.477.126 1.25 1.25 0 00-.547.547 1.26 1.26 0 00-.127.477c-.01.115-.009.248-.009.37v2.44c0 .122 0 .255.01.37.01.13.036.3.126.477.12.236.311.427.547.547.176.09.348.116.478.127.114.01.247.01.369.009h2.44c.122 0 .255 0 .37-.01.13-.01.3-.036.478-.126a1.25 1.25 0 00.546-.547 1.26 1.26 0 00.127-.477c.01-.115.01-.248.009-.37v-2.44c0-.122 0-.255-.01-.37a1.26 1.26 0 00-.126-.477 1.25 1.25 0 00-.546-.547 1.26 1.26 0 00-.479-.127c-.114-.009-.247-.009-.369-.009H2.8zm-.05 1.55v-.05H5.25V21.25H2.75V18.8z"/>
</svg>
