<svg xmlns="http://www.w3.org/2000/svg" width="24" height="24" fill="currentColor" viewBox="0 0 24 24">
  <path fill-rule="evenodd" d="M2 2.25a.75.75 0 01.75.75v18a.75.75 0 01-1.5 0V3A.75.75 0 012 2.25zm20 0a.75.75 0 01.75.75v18a.75.75 0 01-1.5 0V3a.75.75 0 01.75-.75zm-3.47 10.28a.75.75 0 000-1.06l-2.5-2.5a.75.75 0 10-1.06 1.06l1.22 1.22H7.81l1.22-1.22a.75.75 0 10-1.06-1.06l-2.5 2.5a.75.75 0 000 1.06l2.5 2.5a.75.75 0 001.06-1.06l-1.22-1.22h8.38l-1.22 1.22a.75.75 0 101.06 1.06l2.5-2.5z"/>
</svg>
