<svg xmlns="http://www.w3.org/2000/svg" width="24" height="24" fill="currentColor" viewBox="0 0 24 24">
  <path fill-rule="evenodd" d="M10.75 4a1.25 1.25 0 112.5 0 1.25 1.25 0 01-2.5 0zM12 1.25a2.75 2.75 0 100 5.5 2.75 2.75 0 000-5.5zM12.75 9a.75.75 0 00-1.5 0v4.025c0 .445 0 .816.02 1.12.022.318.069.617.19.907a2.75 2.75 0 001.488 1.489c.29.12.59.167.907.188.304.021.675.021 1.12.021H15c.476 0 .796 0 1.043.017.241.017.358.046.435.078.307.127.55.37.677.677.032.077.061.194.078.435.017.247.017.567.017 1.043v1A2.75 2.75 0 0020 22.75h1a.75.75 0 000-1.5h-1c-.69 0-1.25-.56-1.25-1.25v-1.025c0-.445 0-.816-.02-1.12a2.822 2.822 0 00-.19-.907 2.75 2.75 0 00-1.488-1.489c-.29-.12-.59-.167-.907-.188-.304-.021-.675-.021-1.12-.021H15c-.476 0-.796 0-1.043-.017-.241-.017-.358-.046-.435-.078a1.25 1.25 0 01-.677-.677c-.032-.077-.061-.194-.078-.435A17.073 17.073 0 0112.75 13v-1c.627.471 1.406.75 2.25.75h1a.75.75 0 000-1.5h-1A2.25 2.25 0 0112.75 9zm-9 7c0-2.9 2.35-5.25 5.25-5.25a.75.75 0 000-1.5 6.75 6.75 0 105.031 11.25.75.75 0 00-1.118-1A5.25 5.25 0 013.75 16z"/>
</svg>
