<svg xmlns="http://www.w3.org/2000/svg" width="24" height="24" fill="currentColor" viewBox="0 0 24 24">
  <path fill-rule="evenodd" d="M13.004 2.566a3.25 3.25 0 00-2.008 0c-.325.105-.665.309-1.14.712-.481.409-1.05.977-1.851 1.778l-2.95 2.949c-.712.713-1.24 1.242-1.636 1.689.954-.12 1.892.098 2.778.488 1.327.586 2.629 1.599 3.82 2.525l.196.153c1.296 1.007 2.445 1.869 3.519 2.242.517.18.977.23 1.4.147.417-.082.863-.305 1.338-.78l.474-.474.059-.058c.77-.77 1.32-1.324 1.719-1.793.403-.475.606-.815.712-1.14a3.25 3.25 0 000-2.008c-.106-.325-.31-.665-.712-1.14-.409-.481-.977-1.05-1.778-1.851l-.949-.95c-.8-.8-1.37-1.368-1.851-1.777-.475-.403-.815-.607-1.14-.712zM2.566 13.004a3.25 3.25 0 01-.136-1.388c1.008-.63 2.022-.564 3.161-.061 1.153.508 2.32 1.416 3.567 2.385l.135.105c1.245.967 2.594 2.004 3.946 2.474.31.107.627.188.95.232l-.194.193c-.8.8-1.37 1.37-1.851 1.778-.475.403-.815.606-1.14.712a3.25 3.25 0 01-2.008 0c-.325-.106-.665-.31-1.14-.712-.481-.409-1.05-.977-1.851-1.778l-.95-.949c-.8-.8-1.368-1.37-1.777-1.851-.403-.475-.606-.815-.712-1.14zm12.49 5l2.474-2.474.475-.474.023-.024.07-.07.932-.932a.761.761 0 00.072-.083c.291-.302.546-.576.763-.832.464-.546.805-1.059.996-1.647.31-.954.31-1.982 0-2.936-.192-.588-.532-1.101-.996-1.647-.452-.533-1.064-1.145-1.837-1.918l-.023-.023-.95-.949-.023-.023c-.772-.773-1.384-1.385-1.917-1.838-.546-.463-1.059-.804-1.647-.995a4.75 4.75 0 00-2.936 0c-.588.191-1.101.532-1.647.995-.533.453-1.145 1.065-1.917 1.838l-.024.023-2.949 2.95-.023.022C3.2 7.74 2.588 8.352 2.135 8.885c-.464.546-.804 1.059-.996 1.647a4.75 4.75 0 000 2.936c.192.588.532 1.1.996 1.646.453.534 1.065 1.146 1.837 1.918l.023.024.95.949.023.023c.772.772 1.384 1.384 1.917 1.837.546.464 1.059.804 1.647.995a4.75 4.75 0 002.936 0c.588-.19 1.101-.531 1.647-.995.533-.453 1.145-1.065 1.918-1.837l.023-.023zm4.808-.854a.274.274 0 01.032-.015l.01-.001a.79.79 0 01.189 0l.009.001a.266.266 0 01.035.017l.003.002a4.446 4.446 0 01.14.155c.497.578.968 1.368.968 2.246 0 .659-.199 1.078-.427 1.326-.23.25-.529.369-.823.369-.294 0-.593-.119-.823-.37-.228-.247-.427-.666-.427-1.325 0-.878.472-1.668.968-2.246.046-.055.075-.088.1-.116a.453.453 0 01.043-.041l.003-.002zm.727-1.434A1.828 1.828 0 0020 15.63c-.158 0-.39.015-.591.087a1.635 1.635 0 00-.51.285 2.583 2.583 0 00-.305.314l-.015.017c-.592.69-1.329 1.822-1.329 3.223 0 .972.301 1.774.823 2.342.52.564 1.221.853 1.927.853s1.407-.289 1.927-.853c.522-.568.823-1.37.823-2.342 0-1.401-.737-2.532-1.329-3.223l-.015-.017a2.59 2.59 0 00-.304-.314 1.638 1.638 0 00-.51-.285z"/>
</svg>
