<svg xmlns="http://www.w3.org/2000/svg" width="24" height="24" fill="currentColor" viewBox="0 0 24 24">
  <path fill-rule="evenodd" d="M18 2.75a2.25 2.25 0 100 4.5 2.25 2.25 0 000-4.5zM14.25 5a3.75 3.75 0 117.5 0 3.75 3.75 0 01-7.5 0zM5 16.75a2.25 2.25 0 100 4.5 2.25 2.25 0 000-4.5zm3.675 1.5A3.751 3.751 0 001.25 19a3.75 3.75 0 007.425.75H16.5a4.25 4.25 0 000-8.5h-10a2.75 2.75 0 110-5.5h3.69L8.97 6.97a.75.75 0 001.06 1.06l2.5-2.5a.75.75 0 000-1.06l-2.5-2.5a.75.75 0 10-1.06 1.06l1.22 1.22H6.5a4.25 4.25 0 000 8.5h10a2.75 2.75 0 110 5.5H8.675z"/>
</svg>
