<svg xmlns="http://www.w3.org/2000/svg" width="24" height="24" fill="currentColor" viewBox="0 0 24 24">
  <path fill-rule="evenodd" d="M6.53 2.53a.75.75 0 00-1.06-1.06L3 3.94l-.47-.47a.75.75 0 00-1.06 1.06l1 1a.75.75 0 001.06 0l3-3zM10.25 4a.75.75 0 01.75-.75h11a.75.75 0 010 1.5H11a.75.75 0 01-.75-.75zm.75 7.25a.75.75 0 000 1.5h11a.75.75 0 000-1.5H11zm0 8a.75.75 0 000 1.5h11a.75.75 0 000-1.5H11zM6.53 9.47a.75.75 0 010 1.06l-3 3a.75.75 0 01-1.06 0l-1-1a.75.75 0 111.06-1.06l.47.47 2.47-2.47a.75.75 0 011.06 0zm0 9.06a.75.75 0 10-1.06-1.06L3 19.94l-.47-.47a.75.75 0 00-1.06 1.06l1 1a.75.75 0 001.06 0l3-3z"/>
</svg>
