<svg xmlns="http://www.w3.org/2000/svg" width="24" height="24" fill="currentColor" viewBox="0 0 24 24">
  <path fill-rule="evenodd" d="M5.688 4.116c.813-.444 1.225-.664 1.562-.783v15.172a5.032 5.032 0 00-.101.023c-.62.147-1.194.46-2.085.947l-.095.051-.725.396c-.442.24-.728.396-.947.49a.904.904 0 01-.245.082.35.35 0 01-.234-.14.908.908 0 01-.045-.253 13.358 13.358 0 01-.023-1.066V6.698c0-.57.01-.684.038-.772a.75.75 0 01.163-.274c.063-.068.158-.13.659-.403l2.078-1.133zm3.136 14.319a6.119 6.119 0 00-.074-.008V3.213c.377.064.804.233 1.783.633l2.367.969.1.04c.938.385 1.543.633 2.176.71l.074.009v15.214c-.377-.065-.804-.234-1.783-.634l-2.367-.969-.1-.04c-.938-.385-1.543-.632-2.176-.71zm7.926 2.232c.337-.119.749-.339 1.562-.783l2.078-1.133c.5-.273.596-.335.659-.403a.75.75 0 00.163-.274c.029-.088.038-.2.038-.771V4.965c0-.503 0-.828-.023-1.066a.91.91 0 00-.045-.254.35.35 0 00-.234-.139.907.907 0 00-.245.082c-.22.094-.505.25-.947.49l-.725.396-.095.052c-.89.486-1.465.799-2.085.946a4.685 4.685 0 01-.101.023v15.172zM7.149 1.801a4.75 4.75 0 011.675-.093c.633.077 1.238.325 2.177.71l.1.04 2.366.968c1.073.44 1.483.6 1.892.65.383.047.77.026 1.146-.063.4-.095.79-.3 1.807-.856l.726-.396.03-.016c.403-.22.75-.41 1.04-.534.295-.128.64-.24 1.017-.194a1.85 1.85 0 011.28.76c.22.308.287.665.316.985.029.315.029.71.029 1.169v12.462c0 .428.001.805-.115 1.155a2.252 2.252 0 01-.489.823c-.25.27-.582.45-.959.654l-.079.043-2.077 1.133-.095.052c-.89.486-1.465.8-2.085.946a4.75 4.75 0 01-1.675.093c-.633-.077-1.238-.325-2.177-.71l-.1-.04-2.366-.968c-1.073-.44-1.483-.6-1.892-.65a3.248 3.248 0 00-1.146.064c-.4.095-.79.3-1.807.855l-.726.396-.03.016c-.403.22-.75.41-1.04.535-.295.127-.64.24-1.017.193a1.85 1.85 0 01-1.28-.76c-.22-.308-.287-.665-.316-.985-.029-.314-.029-.71-.029-1.168V6.608c0-.429-.001-.806.115-1.156a2.25 2.25 0 01.489-.822c.25-.27.582-.45.959-.655l.079-.043L4.969 2.8l.095-.052c.89-.486 1.464-.799 2.085-.946z"/>
</svg>
