<svg xmlns="http://www.w3.org/2000/svg" width="24" height="24" fill="currentColor" viewBox="0 0 24 24">
  <path fill-rule="evenodd" d="M7.768 1.25h8.464c.813 0 1.468 0 2 .043.546.045 1.026.14 1.47.366a3.75 3.75 0 011.64 1.639c.226.444.32.924.364 1.47.044.531.044 1.187.044 2v2.464c0 .813 0 1.469-.044 2-.044.546-.139 1.026-.365 1.47a3.75 3.75 0 01-1.639 1.64c-.444.226-.924.32-1.47.365-.532.043-1.187.043-2 .043H7.768c-.813 0-1.469 0-2-.043-.546-.045-1.026-.14-1.47-.366a3.75 3.75 0 01-1.64-1.638c-.226-.445-.32-.925-.365-1.471-.043-.531-.043-1.187-.043-2V6.768c0-.813 0-1.469.043-2 .045-.546.14-1.026.366-1.47a3.75 3.75 0 011.638-1.64c.445-.226.925-.32 1.471-.365.531-.043 1.187-.043 2-.043zM5.89 2.788c-.454.037-.715.107-.913.207a2.25 2.25 0 00-.983.984c-.1.197-.17.458-.207.912-.038.462-.038 1.057-.038 1.909v2.4c0 .853 0 1.447.038 1.91.037.453.106.714.207.912.216.423.56.767.983.983.198.1.459.17.913.207.462.037 1.056.038 1.909.038h8.4c.852 0 1.447 0 1.91-.038.453-.037.714-.107.911-.207a2.25 2.25 0 00.984-.984c.1-.197.17-.458.207-.912.037-.462.038-1.056.038-1.909V6.8c0-.852 0-1.447-.038-1.91-.038-.453-.107-.714-.207-.911a2.25 2.25 0 00-.984-.984c-.197-.1-.458-.17-.912-.207-.462-.037-1.057-.038-1.91-.038H7.8c-.852 0-1.446 0-1.908.038zM5.25 18a.75.75 0 01.75-.75h12a.75.75 0 010 1.5H6a.75.75 0 01-.75-.75zM9 21.25a.75.75 0 000 1.5h6a.75.75 0 000-1.5H9z"/>
</svg>
