<svg xmlns="http://www.w3.org/2000/svg" width="24" height="24" fill="currentColor" viewBox="0 0 24 24">
  <path fill-rule="evenodd" d="M9 2.75a3.25 3.25 0 100 6.5 3.25 3.25 0 000-6.5zM4.25 6a4.75 4.75 0 119.5 0 4.75 4.75 0 01-9.5 0zm19.28 1.47a.75.75 0 010 1.06l-4 4a.75.75 0 01-1.06 0l-2-2a.75.75 0 111.06-1.06L19 10.94l3.47-3.47a.75.75 0 011.06 0zM6.8 13.25a5.55 5.55 0 00-5.55 5.55 3.95 3.95 0 003.95 3.95h7.6a3.95 3.95 0 003.95-3.95 5.55 5.55 0 00-5.55-5.55H6.8zM2.75 18.8a4.05 4.05 0 014.05-4.05h4.4a4.05 4.05 0 014.05 4.05 2.45 2.45 0 01-2.45 2.45H5.2a2.45 2.45 0 01-2.45-2.45z"/>
</svg>
