<svg xmlns="http://www.w3.org/2000/svg" width="24" height="24" fill="currentColor" viewBox="0 0 24 24">
  <path fill-rule="evenodd" d="M10 1.25h-.034c-1.371 0-2.447 0-3.311.07-.88.073-1.607.221-2.265.557A5.75 5.75 0 001.877 4.39c-.336.658-.484 1.385-.556 2.265-.071.864-.071 1.94-.071 3.311v4.068c0 1.371 0 2.447.07 3.311.073.88.221 1.607.557 2.265a5.75 5.75 0 002.513 2.513c.658.336 1.385.485 2.265.556.864.071 1.94.071 3.311.071h4.068c1.371 0 2.447 0 3.311-.07.88-.072 1.607-.221 2.265-.557a5.75 5.75 0 002.513-2.513c.336-.658.485-1.385.556-2.265.071-.864.071-1.94.071-3.311V9.966c0-1.371 0-2.447-.07-3.311-.072-.88-.221-1.607-.557-2.265a5.75 5.75 0 00-2.513-2.513c-.658-.336-1.385-.484-2.265-.556-.864-.071-1.94-.071-3.311-.071H10zM5.07 3.213c.412-.21.92-.333 1.707-.397.796-.065 1.81-.066 3.223-.066h4c1.412 0 2.427 0 3.223.066.787.064 1.295.188 1.707.397a4.25 4.25 0 011.857 1.858c.21.411.333.919.397 1.706.065.796.066 1.81.066 3.223v4c0 1.412 0 2.427-.066 3.223-.064.787-.188 1.295-.397 1.707a4.251 4.251 0 01-1.857 1.857c-.412.21-.92.333-1.707.397-.796.065-1.81.066-3.223.066h-4c-1.413 0-2.427 0-3.223-.066-.787-.064-1.295-.188-1.706-.397a4.25 4.25 0 01-1.858-1.857c-.21-.412-.333-.92-.397-1.707-.065-.796-.066-1.81-.066-3.223v-4c0-1.413 0-2.427.066-3.223.064-.787.188-1.295.397-1.706a4.25 4.25 0 011.858-1.858zm6.407 3.398a2.492 2.492 0 013.495 3.495.75.75 0 001.186.918 3.991 3.991 0 00-5.6-5.598.75.75 0 00.92 1.185zM7.53 5.47a.75.75 0 00-1.06 1.06L7.94 8l-.97.97a5.7 5.7 0 008.06 8.06l.97-.97 1.47 1.47a.75.75 0 101.06-1.06l-2-2-2.352-2.352L11.78 9.72 9.53 7.47l-2-2zm.5 4.56L9 9.06l1.19 1.19-.993.993a2.485 2.485 0 103.578 3.448l.893-.962L14.94 15l-.97.97a4.2 4.2 0 01-5.939-5.94zm2.227 2.273l.993-.992 1.357 1.356-.931 1.003a.985.985 0 11-1.419-1.367zm9.273.227a.75.75 0 00-1.06-1.06l-1 1a.75.75 0 101.06 1.06l1-1z"/>
</svg>
