<svg xmlns="http://www.w3.org/2000/svg" width="24" height="24" fill="currentColor" viewBox="0 0 24 24">
  <path fill-rule="evenodd" d="M8.97 2.97a5.7 5.7 0 118.06 8.06l-1 1a.75.75 0 01-1.06-1.06l1-1a4.2 4.2 0 00-5.94-5.94l-1 1a.75.75 0 01-1.06-1.06l1-1zm-6.5-.5a.75.75 0 011.06 0l7 7 3.5 3.5 3.5 3.5 4 4a.75.75 0 01-1.06 1.06L17 18.06l-1.22 1.22A8.175 8.175 0 114.22 7.72L5.44 6.5 2.47 3.53a.75.75 0 010-1.06zM6.5 7.56L5.28 8.78a6.675 6.675 0 009.44 9.44L15.94 17l-2.44-2.44-1.22 1.22a3.225 3.225 0 11-4.56-4.56L8.94 10 6.5 7.56zm3.5 3.5l-1.22 1.22a1.725 1.725 0 102.44 2.44l1.22-1.22L10 11.06zm3.53-4.59a.75.75 0 010 1.06l-1 1a.75.75 0 01-1.06-1.06l1-1a.75.75 0 011.06 0zm9 5a.75.75 0 010 1.06l-3 3a.75.75 0 01-1.06-1.06l3-3a.75.75 0 011.06 0z"/>
</svg>
