<svg xmlns="http://www.w3.org/2000/svg" width="24" height="24" fill="currentColor" viewBox="0 0 24 24">
  <path fill-rule="evenodd" d="M14.383 4.233a2.75 2.75 0 00-3.605-1.092c-.419.208-.783.635-1.134 1.104-.372.495-.83 1.182-1.417 2.062l-.014.022c-.254.38-.326.482-.403.558a1.25 1.25 0 01-.63.337c-.107.022-.23.026-.688.026h-.608c-.818 0-1.376 0-1.855.127a3.75 3.75 0 00-2.651 2.652c-.128.479-.128 1.037-.128 1.855v.231c0 .818 0 1.377.128 1.855a3.75 3.75 0 002.651 2.652c.48.128 1.037.128 1.855.128h.608c.458 0 .581.003.687.025.24.049.458.166.631.338.077.076.149.177.403.558l.014.021c.587.88 1.045 1.567 1.417 2.063.351.468.715.895 1.134 1.103a2.75 2.75 0 003.605-1.092c.234-.405.3-.962.333-1.547.034-.618.034-1.445.034-2.502V8.282c0-1.057 0-1.883-.034-2.502-.033-.585-.1-1.142-.333-1.547zm-2.938.252a1.25 1.25 0 011.638.496c.034.058.1.273.135.883.032.571.032 1.355.032 2.444v7.383c0 1.089 0 1.873-.032 2.444-.034.61-.101.825-.135.883a1.25 1.25 0 01-1.638.496c-.06-.03-.235-.171-.602-.66-.343-.457-.778-1.11-1.382-2.015l-.036-.054c-.202-.303-.36-.54-.558-.737a2.75 2.75 0 00-1.388-.743c-.274-.056-.56-.056-.923-.055H6c-.978 0-1.32-.007-1.582-.077a2.25 2.25 0 01-1.591-1.591c-.07-.262-.077-.604-.077-1.582 0-.979.006-1.32.077-1.583a2.25 2.25 0 011.59-1.59c.263-.07.605-.077 1.583-.077h.556c.364 0 .65 0 .923-.056a2.75 2.75 0 001.388-.743c.198-.196.356-.434.558-.737l.036-.053c.604-.906 1.039-1.558 1.382-2.016.367-.489.542-.63.602-.66zM17.53 9.47a.75.75 0 00-1.06 1.06l1.97 1.97-1.97 1.97a.75.75 0 101.06 1.06l1.97-1.97 1.97 1.97a.75.75 0 001.06-1.06l-1.97-1.97 1.97-1.97a.75.75 0 10-1.06-1.06l-1.97 1.97-1.97-1.97z"/>
</svg>
