<svg xmlns="http://www.w3.org/2000/svg" width="24" height="24" fill="currentColor" viewBox="0 0 24 24">
  <path fill-rule="evenodd" d="M9.5 2.25h-.121c-1.279 0-2.058 0-2.721.159a5.75 5.75 0 00-4.25 4.249C2.25 7.32 2.25 8.1 2.25 9.378V13.035c0 1.371 0 2.447.07 3.311.073.88.221 1.607.557 2.265a5.75 5.75 0 002.513 2.513c.658.336 1.385.485 2.265.556.864.071 1.94.071 3.311.071h3.655c1.279 0 2.059 0 2.721-.159a5.75 5.75 0 004.25-4.249c.158-.662.158-1.442.158-2.72V14a.75.75 0 00-1.5 0v.5c0 1.438-.005 2.025-.117 2.492a4.25 4.25 0 01-3.14 3.14c-.468.113-1.055.118-2.493.118H11c-1.412 0-2.427 0-3.223-.066-.787-.064-1.295-.188-1.706-.397a4.25 4.25 0 01-1.858-1.857c-.21-.412-.333-.92-.397-1.707-.065-.796-.066-1.81-.066-3.223V9.5c0-1.438.005-2.025.117-2.492a4.25 4.25 0 013.14-3.14c.468-.113 1.055-.118 2.493-.118h.5a.75.75 0 000-1.5h-.5zm4.75.75c0 .414.336.75.75.75h4.19l-7.72 7.72a.75.75 0 101.06 1.06l7.72-7.72V9a.75.75 0 001.5 0V3a.75.75 0 00-.75-.75h-6a.75.75 0 00-.75.75z"/>
</svg>
