<svg xmlns="http://www.w3.org/2000/svg" width="24" height="24" fill="currentColor" viewBox="0 0 24 24">
  <path fill-rule="evenodd" d="M15.182 1.272A.75.75 0 0014.25 2v20a.75.75 0 001.5 0v-7.537l1.816-.908.097-.048c.547-.273.977-.487 1.302-.819a2.75 2.75 0 00.635-1.027c.15-.439.15-.919.15-1.53V5.36c0-.757.001-1.35-.215-1.865a2.75 2.75 0 00-.887-1.136c-.446-.334-1.022-.477-1.757-.66l-.133-.034-1.576-.394zm1.714 10.942l-1.146.572V2.962l.644.16c.934.234 1.183.311 1.355.44.178.133.317.311.403.516.084.199.098.459.098 1.421v4.524c0 .773-.01.98-.068 1.15-.06.175-.16.334-.29.467-.125.128-.306.23-.996.575zM4.75 2a.75.75 0 10-1.5 0v5.381c0 .534 0 .955.119 1.348.105.346.277.667.506.947.261.317.611.55 1.056.846l.078.052 1.24.827V22a.75.75 0 001.5 0V11.401l1.242-.827.078-.052c.445-.296.794-.529 1.055-.846.23-.28.402-.601.507-.947.12-.393.12-.814.119-1.348V2a.75.75 0 00-1.5 0v5.287c0 .673-.008.853-.054 1.006a1.25 1.25 0 01-.23.43c-.102.123-.247.23-.807.603l-.41.273V2a.75.75 0 10-1.5 0v7.599l-.408-.273c-.56-.373-.706-.48-.807-.603a1.25 1.25 0 01-.23-.43c-.046-.153-.054-.333-.054-1.006V2z"/>
</svg>
