<svg xmlns="http://www.w3.org/2000/svg" width="24" height="24" fill="currentColor" viewBox="0 0 24 24">
  <path fill-rule="evenodd" d="M4.75 7.571A3.823 3.823 0 017.41 3.93 2.751 2.751 0 0010 5.75h4c1.193 0 2.208-.76 2.589-1.82a3.823 3.823 0 012.66 3.641V14c0 1.412 0 2.427-.065 3.223-.064.787-.188 1.295-.397 1.707a4.25 4.25 0 01-1.858 1.857c-.411.21-.919.333-1.706.397-.796.065-1.81.066-3.223.066-1.413 0-2.427 0-3.223-.066-.787-.064-1.295-.188-1.707-.397a4.25 4.25 0 01-1.857-1.857c-.21-.412-.333-.92-.397-1.707-.066-.796-.066-1.81-.066-3.223V7.571zm16 0A5.324 5.324 0 0016.684 2.4 2.75 2.75 0 0014 .25h-4c-1.312 0-2.41.92-2.684 2.149A5.324 5.324 0 003.25 7.57v6.463c0 1.371 0 2.447.07 3.311.072.88.221 1.607.557 2.265a5.75 5.75 0 002.512 2.513c.659.336 1.386.485 2.266.556.864.071 1.94.071 3.311.071h.068c1.371 0 2.447 0 3.31-.07.881-.072 1.608-.221 2.266-.557a5.75 5.75 0 002.513-2.513c.335-.658.484-1.385.556-2.265.07-.864.07-1.94.07-3.311V7.57zM10 1.75a1.25 1.25 0 100 2.5h4a1.25 1.25 0 100-2.5h-4zm5.53 9.78a.75.75 0 10-1.06-1.06L11 13.94l-.97-.97a.75.75 0 00-1.06 1.06l1.5 1.5a.75.75 0 001.06 0l4-4z"/>
</svg>
