<svg xmlns="http://www.w3.org/2000/svg" width="24" height="24" fill="currentColor" viewBox="0 0 24 24">
  <path fill-rule="evenodd" d="M15.47 21.53a.75.75 0 001.06 0l5-5a.75.75 0 000-1.06l-5-5a.75.75 0 10-1.06 1.06l3.72 3.72H9.398c-1.132 0-1.936 0-2.565-.052-.62-.05-1.005-.147-1.31-.302a3.25 3.25 0 01-1.42-1.42c-.155-.305-.251-.69-.302-1.31-.051-.63-.052-1.434-.052-2.566V3a.75.75 0 00-1.5 0v6.633c0 1.092 0 1.958.057 2.655.058.714.18 1.317.46 1.868a4.75 4.75 0 002.077 2.076c.55.281 1.154.403 1.867.461.698.057 1.563.057 2.655.057H19.189l-3.72 3.72a.75.75 0 000 1.06z"/>
</svg>
