<svg xmlns="http://www.w3.org/2000/svg" width="24" height="24" fill="currentColor" viewBox="0 0 24 24">
  <path fill-rule="evenodd" d="M10.988 3.301c.39-.412.732-.551 1.012-.551s.622.139 1.012.551c.392.414.78 1.054 1.12 1.906.256.64.478 1.38.655 2.196-.89-.1-1.825-.153-2.787-.153s-1.896.053-2.786.152c.176-.816.398-1.555.654-2.195.34-.852.728-1.492 1.12-1.906zM7.636 7.636c.207-1.107.491-2.116.84-2.986.214-.537.458-1.033.731-1.471A9.272 9.272 0 003.18 9.207a9.347 9.347 0 011.471-.732c.87-.348 1.879-.632 2.986-.839zM2.75 12c0 .28.139.622.551 1.012.414.392 1.054.78 1.906 1.12.64.256 1.38.478 2.196.655-.1-.89-.153-1.825-.153-2.787s.053-1.896.152-2.786c-.816.176-1.555.398-2.195.654-.852.34-1.492.728-1.906 1.12-.412.39-.551.732-.551 1.012zm6.196 3.054A23.293 23.293 0 018.75 12c0-1.073.07-2.1.196-3.054A23.293 23.293 0 0112 8.75c1.073 0 2.1.07 3.054.196.127.955.196 1.981.196 3.054 0 1.073-.07 2.1-.196 3.054-.955.127-1.981.196-3.054.196-1.073 0-2.1-.07-3.054-.196zm-1.31 1.31c-1.107-.207-2.116-.491-2.986-.84a9.346 9.346 0 01-1.471-.731 9.272 9.272 0 006.028 6.028 9.348 9.348 0 01-.732-1.471c-.348-.87-.632-1.879-.839-2.986zM1.25 12C1.25 6.063 6.063 1.25 12 1.25S22.75 6.063 22.75 12 17.937 22.75 12 22.75 1.25 17.937 1.25 12zm19.571-2.793a9.272 9.272 0 00-6.028-6.028c.273.438.517.934.732 1.471.348.87.632 1.879.839 2.986 1.107.207 2.116.491 2.986.84.537.214 1.034.458 1.471.731zm-4.224.007a13.85 13.85 0 012.195.654c.853.34 1.493.728 1.907 1.12.412.39.551.732.551 1.012s-.139.622-.551 1.012c-.414.392-1.054.78-1.907 1.12a13.86 13.86 0 01-2.195.655c.1-.89.153-1.825.153-2.787s-.053-1.896-.152-2.786zm-.233 7.15c1.107-.207 2.116-.491 2.986-.84a9.347 9.347 0 001.471-.731 9.273 9.273 0 01-6.028 6.028c.273-.438.517-.934.732-1.471.348-.87.632-1.879.839-2.986zm-1.578.233a13.86 13.86 0 01-.654 2.195c-.34.853-.728 1.493-1.12 1.907-.39.412-.732.551-1.012.551s-.622-.139-1.012-.551c-.392-.414-.78-1.054-1.12-1.907a13.85 13.85 0 01-.654-2.195c.89.1 1.824.153 2.786.153s1.896-.053 2.787-.152z"/>
</svg>
