<svg xmlns="http://www.w3.org/2000/svg" width="24" height="24" fill="currentColor" viewBox="0 0 24 24">
  <path fill-rule="evenodd" d="M13.25 2.772c-.34-.02-.784-.022-1.472-.022-1.307 0-2.245 0-2.984.056-.73.056-1.204.162-1.59.342a.75.75 0 01-.634-1.36c.618-.288 1.295-.415 2.11-.477.803-.061 1.798-.061 3.067-.061h.123c1.045 0 1.688 0 2.304.136a5.75 5.75 0 011.844.764c.532.34.987.794 1.726 1.533l.064.065.222.222.083.082c.94.94 1.52 1.52 1.912 2.224.214.385.384.794.505 1.219.22.774.22 1.593.22 2.924V16a.75.75 0 01-1.5 0V10.535c0-.818-.002-1.367-.03-1.786h-2.05c-.535 0-.98 0-1.345-.03-.38-.03-.736-.098-1.073-.27A2.75 2.75 0 0113.55 7.25c-.172-.338-.24-.694-.27-1.074-.03-.365-.03-.81-.03-1.345V2.772zm5.59 4.478a4.29 4.29 0 00-.126-.245c-.277-.498-.695-.925-1.744-1.975l-.222-.221c-.824-.824-1.16-1.154-1.536-1.393a4.246 4.246 0 00-.462-.256V4.8c0 .572 0 .957.025 1.253.023.287.065.424.111.515.12.235.311.426.546.546.091.046.228.088.515.111.296.024.68.025 1.253.025h1.64zM2.53 1.47a.75.75 0 00-1.06 1.06l2.234 2.235c-.23.565-.338 1.185-.393 1.916-.061.802-.061 1.797-.061 3.066v4.287c0 1.371 0 2.447.07 3.311.073.88.221 1.607.557 2.265a5.75 5.75 0 002.513 2.513c.658.336 1.385.485 2.265.556.864.071 1.94.071 3.311.071h.068c1.371 0 2.447 0 3.311-.07.88-.072 1.607-.221 2.265-.557a5.75 5.75 0 001.898-1.554l1.962 1.961a.75.75 0 101.06-1.06l-2.608-2.61L5.139 4.08 2.53 1.469zm2.276 5.324c.025-.319.058-.588.104-.823l13.528 13.528a4.25 4.25 0 01-1.508 1.288c-.412.21-.92.333-1.707.397-.796.065-1.81.066-3.223.066-1.412 0-2.427 0-3.223-.066-.787-.064-1.295-.188-1.706-.397a4.25 4.25 0 01-1.858-1.857c-.21-.412-.333-.92-.397-1.707-.065-.796-.066-1.81-.066-3.223V9.778c0-1.307 0-2.245.056-2.984z"/>
</svg>
