<svg xmlns="http://www.w3.org/2000/svg" width="24" height="24" fill="currentColor" viewBox="0 0 24 24">
  <path fill-rule="evenodd" d="M2 6.25a.75.75 0 01.75.75v5.685a26.267 26.267 0 011.97-2.215C6.75 8.44 9.685 6.25 13 6.25c4.308 0 6.778 2.18 8.136 4.352a11.855 11.855 0 011.604 4.27l.003.023v.008l.001.002v.001L22 15l.744-.093a.75.75 0 01-1.488.187v-.001l-.002-.011A9.791 9.791 0 0021 13.96a10.364 10.364 0 00-1.135-2.562C18.722 9.57 16.692 7.75 13 7.75c-2.685 0-5.25 1.81-7.22 3.78a25.274 25.274 0 00-2.305 2.67l-.037.05h6.34a.75.75 0 010 1.5H2a.75.75 0 01-.75-.75V7A.75.75 0 012 6.25z"/>
</svg>
