<svg xmlns="http://www.w3.org/2000/svg" width="24" height="24" fill="currentColor" viewBox="0 0 24 24">
  <path fill-rule="evenodd" d="M12.75 2.78V5a.75.75 0 01-1.5 0V2.78a9.252 9.252 0 00-8.47 8.47H5a.75.75 0 010 1.5H2.78a9.252 9.252 0 008.47 8.47V19a.75.75 0 011.5 0v2.22a9.252 9.252 0 008.47-8.47H19a.75.75 0 010-1.5h2.22a9.252 9.252 0 00-8.47-8.47zM12 22.75c5.937 0 10.75-4.813 10.75-10.75S17.937 1.25 12 1.25 1.25 6.063 1.25 12 6.063 22.75 12 22.75zM10.75 12a1.25 1.25 0 112.5 0 1.25 1.25 0 01-2.5 0zM12 9.25a2.75 2.75 0 100 5.5 2.75 2.75 0 000-5.5z"/>
</svg>
