<svg xmlns="http://www.w3.org/2000/svg" width="24" height="24" fill="currentColor" viewBox="0 0 24 24">
  <path fill-rule="evenodd" d="M11.614 7.64a1.25 1.25 0 01.772 0c.097.031.224.098.443.285.227.192.499.463.903.868l5.738 5.737a.75.75 0 101.06-1.06l-5.737-5.738-.021-.021c-.378-.378-.693-.693-.972-.93-.29-.246-.59-.451-.95-.568a2.75 2.75 0 00-1.7 0c-.36.117-.66.322-.95.568-.279.237-.594.552-.972.93l-.021.021L3.47 13.47a.75.75 0 001.06 1.06l5.738-5.737c.404-.405.676-.676.903-.868.22-.187.346-.254.443-.285zm.916 4.83a.75.75 0 00-1.06 0l-4 4a.75.75 0 001.06 1.06L12 14.06l3.47 3.47a.75.75 0 101.06-1.06l-4-4z"/>
</svg>
