<svg xmlns="http://www.w3.org/2000/svg" width="24" height="24" fill="currentColor" viewBox="0 0 24 24">
  <path fill-rule="evenodd" d="M11.566 1.25H12.434c1.651 0 2.937 0 3.968.084 1.047.086 1.897.262 2.662.652a6.75 6.75 0 012.95 2.95c.39.765.566 1.615.652 2.662.084 1.031.084 2.317.084 3.968V12.434c0 1.651 0 2.937-.084 3.968-.086 1.047-.262 1.897-.652 2.662a6.75 6.75 0 01-2.95 2.95c-.765.39-1.615.566-2.662.652-1.031.084-2.317.084-3.968.084H11.566c-1.651 0-2.937 0-3.968-.084-1.047-.086-1.897-.262-2.662-.652a6.75 6.75 0 01-2.95-2.95c-.39-.765-.566-1.615-.652-2.662-.084-1.031-.084-2.317-.084-3.968V11.566c0-1.651 0-2.937.084-3.968.086-1.047.262-1.897.652-2.662a6.75 6.75 0 012.95-2.95c.765-.39 1.615-.566 2.662-.652 1.031-.084 2.317-.084 3.968-.084zM7.72 2.83c-.954.077-1.585.228-2.103.492a5.25 5.25 0 00-2.295 2.295c-.264.518-.415 1.15-.493 2.103-.078.963-.079 2.187-.079 3.88v.8c0 1.692 0 2.917.08 3.88.077.954.228 1.585.492 2.103a5.25 5.25 0 002.295 2.295c.518.264 1.15.415 2.103.493.963.078 2.187.079 3.88.079h.8c1.692 0 2.917 0 3.88-.08.954-.077 1.585-.228 2.103-.492a5.25 5.25 0 002.295-2.295c.264-.518.415-1.15.493-2.103.078-.963.079-2.188.079-3.88v-.8c0-1.693 0-2.917-.08-3.88-.077-.954-.228-1.585-.492-2.103a5.25 5.25 0 00-2.295-2.295c-.518-.264-1.15-.415-2.103-.493-.963-.078-2.188-.079-3.88-.079h-.8c-1.693 0-2.917 0-3.88.08zM5.47 5.47a.75.75 0 011.06 0l1.903 1.903 2.318 2.317 2.969 2.97 3.81 3.81a.75.75 0 11-1.06 1.06l-3.685-3.684A2.808 2.808 0 0012 13.75c-.481 0-.797.077-1.068.2-.29.131-.566.329-.974.644a.75.75 0 01-.916-1.188c.4-.309.802-.61 1.273-.823.29-.131.594-.224.93-.277l-1.242-1.243a6.526 6.526 0 00-2.487 1.48.75.75 0 01-1.032-1.087A8.048 8.048 0 018.839 9.9L7.756 8.816a8.751 8.751 0 00-2.21 1.698.75.75 0 01-1.092-1.028 10.242 10.242 0 012.202-1.77L5.47 6.53a.75.75 0 010-1.06zM12 7.75c-.312 0-.62.016-.924.047a.75.75 0 01-.152-1.492c.354-.037.713-.055 1.076-.055 2.983 0 5.672 1.245 7.546 3.236a.75.75 0 01-1.092 1.028A8.836 8.836 0 0012 7.75zm.766 2.251a.75.75 0 01.889-.58 8.007 8.007 0 013.862 2.035.75.75 0 01-1.034 1.088 6.506 6.506 0 00-3.138-1.654.75.75 0 01-.579-.889zM12 18a1 1 0 100-2 1 1 0 000 2z"/>
</svg>
