<svg xmlns="http://www.w3.org/2000/svg" width="24" height="24" fill="currentColor" viewBox="0 0 24 24">
  <path fill-rule="evenodd" d="M1.47 1.47a.75.75 0 011.06 0L4.842 3.78l13.195 13.195 3.493 3.494a.75.75 0 11-1.06 1.06l-2.996-2.996a22.41 22.41 0 01-3.053 2.188c-.524.311-.997.556-1.381.727-.192.085-.37.155-.527.205a1.739 1.739 0 01-.513.096 1.72 1.72 0 01-.504-.093 5.237 5.237 0 01-.515-.2 13.405 13.405 0 01-1.345-.7 22.424 22.424 0 01-3.511-2.573C3.695 16.01 1.25 12.822 1.25 9c0-1.901.786-3.538 1.969-4.72l-1.75-1.75a.75.75 0 010-1.06zm2.81 3.87A5.127 5.127 0 002.75 9c0 3.178 2.055 5.99 4.375 8.066a20.922 20.922 0 003.27 2.397c.474.278.881.486 1.19.622a3.788 3.788 0 00.415.157l.055-.016c.09-.03.217-.078.377-.149a12.21 12.21 0 001.225-.645 20.887 20.887 0 002.752-1.962L4.28 5.34zm11.71-1.59c-1.311-.019-2.54.427-3.366 1.666a.75.75 0 01-1.248 0C10.554 4.184 9.303 3.75 8 3.75c-.144 0-.288.007-.432.02a.75.75 0 01-.136-1.494A6.24 6.24 0 018 2.25c1.375 0 2.86.396 3.998 1.56 1.13-1.166 2.6-1.58 4.013-1.56C19.366 2.3 22.75 5.037 22.75 9c0 2.317-.901 4.4-2.137 6.152-.07.1-.14.198-.213.295a.75.75 0 11-1.205-.894c.065-.087.13-.176.192-.265 1.117-1.584 1.863-3.37 1.863-5.288 0-3.037-2.616-5.212-5.26-5.25z"/>
</svg>
