<svg xmlns="http://www.w3.org/2000/svg" width="24" height="24" fill="currentColor" viewBox="0 0 24 24">
  <path fill-rule="evenodd" d="M11.53 3.47a.75.75 0 10-1.06 1.06l5.737 5.738c.405.404.676.676.868.903.187.22.254.346.285.443a1.25 1.25 0 010 .772c-.031.097-.098.224-.285.443-.192.227-.463.499-.868.903L10.47 19.47a.75.75 0 101.06 1.06l5.738-5.737.021-.021c.378-.378.693-.693.93-.972.246-.29.451-.59.568-.95a2.75 2.75 0 000-1.7c-.117-.36-.322-.66-.568-.95-.237-.279-.552-.594-.93-.972l-.021-.021L11.53 3.47zm-3 4a.75.75 0 00-1.06 1.06L10.94 12l-3.47 3.47a.75.75 0 101.06 1.06l4-4a.75.75 0 000-1.06l-4-4z"/>
</svg>
