<svg xmlns="http://www.w3.org/2000/svg" width="24" height="24" fill="currentColor" viewBox="0 0 24 24">
  <path fill-rule="evenodd" d="M18.222 3.424c.517-.121.857-.2 1.118-.238.255-.037.348-.02.388-.006a.75.75 0 01.415.328c.022.036.06.123.083.38.023.262.024.611.024 1.142v1.096c0 .74-.014.888-.058.993a.75.75 0 01-.242.31c-.092.069-.232.119-.95.298L9.75 10.04V6.724c0-.35 0-.573.013-.744a.82.82 0 01.047-.262.75.75 0 01.246-.311.82.82 0 01.245-.106c.163-.051.38-.102.721-.183l7.2-1.694zm1.142 5.758L9.75 11.586V19a3.75 3.75 0 11-1.5-3V6.7c0-.319 0-.597.017-.829.018-.248.058-.494.162-.74a2.25 2.25 0 01.74-.933c.215-.158.445-.253.683-.328.222-.07.493-.133.802-.206l.024-.006 7.2-1.694.032-.007c.477-.113.882-.208 1.216-.256.347-.05.704-.064 1.06.05.52.166.962.517 1.243.985.192.32.26.67.291 1.02.03.336.03.752.03 1.242v1.246c.001.551.002 1.034-.176 1.456a2.25 2.25 0 01-.725.93c-.367.275-.836.39-1.37.524l-.115.028zM8.25 19a2.25 2.25 0 10-4.5 0 2.25 2.25 0 004.5 0z"/>
</svg>
