<svg xmlns="http://www.w3.org/2000/svg" width="24" height="24" fill="currentColor" viewBox="0 0 24 24">
  <path fill-rule="evenodd" d="M12 1.25h-.036c-.904 0-1.633 0-2.222.053-.606.055-1.136.172-1.617.45a3.75 3.75 0 00-1.373 1.372.75.75 0 101.3.75 2.25 2.25 0 01.823-.824c.215-.124.5-.208 1.003-.254.512-.046 1.174-.047 2.122-.047s1.61 0 2.122.047c.502.046.788.13 1.003.254.342.198.626.482.823.824.125.215.21.5.255 1.003.046.512.047 1.174.047 2.122v.27c-.64-.02-1.37-.02-2.208-.02H12a.75.75 0 000 1.5h2c1.42 0 2.429 0 3.21.08.77.079 1.235.227 1.596.468.354.237.66.542.896.896.241.361.39.827.468 1.596.08.781.08 1.79.08 3.21 0 .766 0 1.417-.013 1.982a.75.75 0 101.5.036c.013-.585.013-1.253.013-2.01v-.05c0-1.369 0-2.454-.088-3.32-.09-.888-.28-1.629-.712-2.277a4.751 4.751 0 00-1.311-1.31c-.552-.369-1.17-.56-1.889-.665v-.422c0-.904 0-1.633-.053-2.222-.055-.606-.172-1.136-.45-1.617a3.75 3.75 0 00-1.372-1.373c-.481-.277-1.011-.394-1.617-.449-.589-.053-1.318-.053-2.222-.053H12zM4.53 3.47a.75.75 0 00-1.06 1.06l2.845 2.846c-.754.104-1.393.3-1.954.675a4.75 4.75 0 00-1.31 1.31c-.434.648-.623 1.39-.713 2.277-.088.866-.088 1.951-.088 3.32v.084c0 1.369 0 2.454.088 3.32.09.888.28 1.629.713 2.277.346.519.791.964 1.31 1.31.648.434 1.39.623 2.277.713.866.088 1.951.088 3.32.088h4.084c1.369 0 2.454 0 3.32-.088.888-.09 1.629-.28 2.277-.712.247-.166.478-.354.69-.561l1.14 1.141a.75.75 0 101.061-1.06l-1.716-1.716L8.544 7.483 4.53 3.47zm.664 5.828c.5-.333 1.175-.478 2.518-.526l11.556 11.556a3.252 3.252 0 01-.462.374c-.361.241-.827.39-1.596.468-.781.08-1.79.08-3.21.08h-4c-1.42 0-2.429 0-3.21-.08-.77-.079-1.235-.227-1.596-.468a3.25 3.25 0 01-.896-.896c-.241-.361-.39-.827-.468-1.596-.08-.781-.08-1.79-.08-3.21s0-2.429.08-3.21c.079-.77.227-1.235.468-1.596a3.25 3.25 0 01.896-.896z"/>
</svg>
