<svg xmlns="http://www.w3.org/2000/svg" width="24" height="24" fill="currentColor" viewBox="0 0 24 24">
  <path fill-rule="evenodd" d="M4.635 1.25A2.385 2.385 0 002.25 3.635a7.29 7.29 0 003.052 5.931l1.929 1.378c.665.475.917.659 1.116.867a3.25 3.25 0 01.846 1.644c.054.283.057.594.057 1.412V20a2.75 2.75 0 105.5 0v-5.133c0-.818.003-1.13.056-1.412a3.25 3.25 0 01.847-1.644c.199-.208.45-.392 1.116-.867l1.929-1.378a7.29 7.29 0 003.052-5.931 2.385 2.385 0 00-2.385-2.385H4.635zM3.75 3.635c0-.489.396-.885.885-.885h14.73c.489 0 .885.396.885.885a5.79 5.79 0 01-2.424 4.71l-1.929 1.378-.062.044c-.583.417-.957.684-1.266 1.006a4.75 4.75 0 00-1.236 2.403c-.083.438-.083.899-.083 1.615V20a1.25 1.25 0 11-2.5 0v-5.209c0-.716 0-1.177-.083-1.615a4.75 4.75 0 00-1.236-2.403c-.309-.322-.684-.59-1.266-1.006l-.062-.044-1.929-1.377A5.79 5.79 0 013.75 3.635z"/>
</svg>
