<svg xmlns="http://www.w3.org/2000/svg" width="24" height="24" fill="currentColor" viewBox="0 0 24 24">
  <path fill-rule="evenodd" d="M12 2.75a6.25 6.25 0 100 12.5 6.25 6.25 0 000-12.5zM4.25 9a7.75 7.75 0 1115.5 0 7.75 7.75 0 01-15.5 0zm14.366-7.536a.75.75 0 011.061.011A10.718 10.718 0 0122.75 9c0 5.685-4.413 10.34-10 10.724v1.526H14a.75.75 0 010 1.5h-4a.75.75 0 010-1.5h1.25v-1.526a10.717 10.717 0 01-6.775-3.047.75.75 0 111.05-1.071A9.218 9.218 0 0012 18.25 9.25 9.25 0 0021.25 9a9.218 9.218 0 00-2.644-6.475.75.75 0 01.01-1.06z"/>
</svg>
