<svg xmlns="http://www.w3.org/2000/svg" width="24" height="24" fill="currentColor" viewBox="0 0 24 24">
  <path fill-rule="evenodd" d="M4.53 1.53A.75.75 0 003.47.47l-3 3a.75.75 0 001.06 1.06l3-3zM2.75 12a9.25 9.25 0 1118.5 0 9.25 9.25 0 01-18.5 0zM12 1.25C6.063 1.25 1.25 6.063 1.25 12S6.063 22.75 12 22.75 22.75 17.937 22.75 12 17.937 1.25 12 1.25zm7.47-.78a.75.75 0 000 1.06l3 3a.75.75 0 101.06-1.06l-3-3a.75.75 0 00-1.06 0zm-2.94 9.06a.75.75 0 00-1.06-1.06L11 12.94l-1.47-1.47a.75.75 0 00-1.06 1.06l2 2a.75.75 0 001.06 0l5-5z"/>
</svg>
