<svg xmlns="http://www.w3.org/2000/svg" width="24" height="24" fill="currentColor" viewBox="0 0 24 24">
  <path fill-rule="evenodd" d="M12 3.75a8.25 8.25 0 00-5.776 14.14c2.096-.475 4.715-1.525 7.4-3.075 2.688-1.552 4.908-3.296 6.367-4.874a8.247 8.247 0 00-2.489-4.088A8.217 8.217 0 0012 3.75zm8.248 8.065c-1.528 1.458-3.55 2.957-5.873 4.299-2.324 1.341-4.634 2.343-6.66 2.937a8.25 8.25 0 0012.533-7.236zM5.78 19.51A9.71 9.71 0 0012 21.75c5.385 0 9.75-4.365 9.75-9.75a9.81 9.81 0 00-.136-1.632c.655-.786 1.16-1.564 1.447-2.297.319-.81.416-1.691-.02-2.446-.435-.755-1.247-1.11-2.109-1.24-.779-.117-1.705-.07-2.713.106A9.713 9.713 0 0012 2.25c-5.385 0-9.75 4.365-9.75 9.75 0 .556.047 1.101.136 1.632-.656.786-1.16 1.564-1.447 2.297-.319.81-.417 1.691.02 2.446.44.763 1.263 1.118 2.136 1.244.773.112 1.688.064 2.686-.11zm-1.335-1.345a9.742 9.742 0 01-1.563-2.701 5.48 5.48 0 00-.548 1.014c-.238.606-.189.956-.078 1.148.112.194.396.414 1.053.51.322.046.702.057 1.136.03zM19.555 5.836a5.49 5.49 0 011.154.032c.644.097.923.315 1.034.507.11.192.16.542-.078 1.148-.12.306-.303.646-.548 1.014a9.741 9.741 0 00-1.563-2.701z"/>
</svg>
