<svg xmlns="http://www.w3.org/2000/svg" width="24" height="24" fill="currentColor" viewBox="0 0 24 24">
  <path fill-rule="evenodd" d="M16.195 3.103a2.25 2.25 0 00-1.39 0c-.211.068-.444.204-.791.499-.354.3-.775.72-1.378 1.322l-7.712 7.712c-.602.603-1.022 1.024-1.322 1.378-.295.347-.43.58-.5.79a2.25 2.25 0 000 1.391c.07.211.205.444.5.792.3.353.72.774 1.322 1.377l.712.712c.603.602 1.024 1.022 1.377 1.322.348.295.58.43.792.5a2.25 2.25 0 001.39 0c.211-.07.444-.205.792-.5.06-.05.122-.105.187-.164L8.47 18.53a.75.75 0 011.06-1.06l1.72 1.72.114-.114 1.825-1.826-3.22-3.22a.75.75 0 011.061-1.06l3.22 3.22 1.94-1.94-1.72-1.72a.75.75 0 011.06-1.06l1.72 1.72 1.826-1.826.113-.114-3.22-3.22a.75.75 0 011.061-1.06l3.204 3.204c.059-.065.113-.127.164-.187.295-.348.43-.58.5-.792a2.25 2.25 0 000-1.39c-.07-.211-.205-.444-.5-.792-.3-.353-.72-.774-1.322-1.377l-.712-.712c-.603-.602-1.024-1.022-1.377-1.322-.348-.295-.58-.43-.792-.5zm-1.854-1.427a3.75 3.75 0 012.318 0c.474.154.88.427 1.298.782.406.345.87.808 1.445 1.383l.022.023.712.712.023.022c.575.575 1.038 1.039 1.383 1.445.355.418.628.824.782 1.298a3.75 3.75 0 010 2.318c-.154.474-.427.88-.782 1.298-.345.406-.808.87-1.383 1.445l-.023.023-7.711 7.711-.023.023c-.575.575-1.039 1.038-1.445 1.383-.418.355-.824.628-1.298.782a3.75 3.75 0 01-2.318 0c-.474-.154-.88-.427-1.298-.782-.406-.345-.87-.808-1.445-1.383l-.022-.023-.712-.712-.023-.022c-.575-.575-1.038-1.039-1.383-1.445-.355-.418-.628-.824-.782-1.298a3.75 3.75 0 010-2.318c.154-.474.427-.88.782-1.298.345-.406.808-.87 1.383-1.445l.023-.022 7.712-7.712.022-.023c.575-.575 1.039-1.038 1.445-1.383.418-.355.824-.628 1.298-.782z"/>
</svg>
