<svg xmlns="http://www.w3.org/2000/svg" width="24" height="24" fill="currentColor" viewBox="0 0 24 24">
  <path fill-rule="evenodd" d="M12 2.75c-3.834 0-6.95 3.127-6.95 6.993l.001.126a.75.75 0 01-.562.74 3.672 3.672 0 00-2.739 3.558c0 1.362.735 2.55 1.827 3.185a.75.75 0 01-.754 1.296 5.177 5.177 0 01-2.573-4.48 5.175 5.175 0 013.31-4.835C3.772 4.837 7.466 1.25 12 1.25c3.845 0 7.084 2.579 8.11 6.103a6.283 6.283 0 013.64 5.708 6.283 6.283 0 01-2.498 5.024.75.75 0 11-.904-1.197 4.782 4.782 0 001.902-3.827A4.782 4.782 0 0019.21 8.6a.75.75 0 01-.458-.522C18.009 5.017 15.264 2.75 12 2.75zM9 15a1 1 0 11-2 0 1 1 0 012 0zm-1 6a1 1 0 100-2 1 1 0 000 2zm9-6a1 1 0 11-2 0 1 1 0 012 0zm-1 6a1 1 0 100-2 1 1 0 000 2zm-3-4a1 1 0 11-2 0 1 1 0 012 0zm-1 6a1 1 0 100-2 1 1 0 000 2z"/>
</svg>
