<svg xmlns="http://www.w3.org/2000/svg" width="24" height="24" fill="currentColor" viewBox="0 0 24 24">
  <path fill-rule="evenodd" d="M13.53 4.53a.75.75 0 00-1.06-1.06L6.732 9.207l-.021.021c-.378.378-.693.693-.93.972-.246.29-.451.59-.568.95a2.75 2.75 0 000 1.7c.117.36.322.66.568.95.237.279.552.594.93.971l.021.022 5.738 5.737a.75.75 0 101.06-1.06l-5.737-5.738c-.405-.404-.676-.676-.868-.903-.187-.22-.254-.346-.285-.443a1.25 1.25 0 010-.772c.031-.097.098-.224.285-.443.192-.226.463-.499.868-.903L13.53 4.53zm3 4a.75.75 0 00-1.06-1.06l-3 3-1 1a.75.75 0 000 1.06l1 1 3 3a.75.75 0 101.06-1.06l-3-3-.47-.47.47-.47 3-3z"/>
</svg>
