<svg xmlns="http://www.w3.org/2000/svg" width="24" height="24" fill="currentColor" viewBox="0 0 24 24">
  <path fill-rule="evenodd" d="M13.143 3.75c-3.662 0-6.764 2.3-7.915 5.5H12a.75.75 0 010 1.5H4.846a8.168 8.168 0 000 2.5H10a.75.75 0 110 1.5H5.228c1.15 3.2 4.253 5.5 7.915 5.5a8.433 8.433 0 006.299-2.798.75.75 0 011.116 1.002 9.934 9.934 0 01-7.415 3.296c-4.487 0-8.289-2.949-9.494-7h-1.65a.75.75 0 010-1.5H3.33a9.714 9.714 0 010-2.5H2a.75.75 0 010-1.5h1.649c1.205-4.051 5.007-7 9.494-7a9.933 9.933 0 017.415 3.296.75.75 0 01-1.116 1.002 8.434 8.434 0 00-6.3-2.798z"/>
</svg>
