<svg xmlns="http://www.w3.org/2000/svg" width="24" height="24" fill="currentColor" viewBox="0 0 24 24">
  <path fill-rule="evenodd" d="M16.557 1.25h.674c.813 0 1.469 0 2 .043.546.045 1.026.14 1.47.366a3.75 3.75 0 011.64 1.639c.226.444.32.924.365 1.47.043.531.043 1.187.043 2v.675c0 .889 0 1.461-.131 2.01a4.75 4.75 0 01-.569 1.372c-.294.48-.7.885-1.328 1.514l-.066.066-1.34 1.341.417 2.087.022.109c.163.816.276 1.38.222 1.937-.048.49-.192.967-.424 1.402-.264.493-.67.9-1.26 1.488l-.078.078-1.683 1.683a.75.75 0 01-1.14-.094L13.293 19.5a4.75 4.75 0 01-4.403.099c-.7-.347-1.327-.974-2.31-1.957l-.111-.112-.112-.111c-.983-.983-1.61-1.61-1.957-2.31a4.75 4.75 0 01.098-4.402L1.565 8.61a.75.75 0 01-.095-1.14l1.684-1.684.078-.078c.588-.589.995-.996 1.488-1.26a3.75 3.75 0 011.402-.424c.556-.054 1.12.06 1.936.223l.109.021 2.086.418 1.341-1.342.066-.066c.629-.628 1.034-1.034 1.514-1.328a4.75 4.75 0 011.373-.569c.548-.131 1.12-.131 2.01-.131zM6.469 8.47l2.51-2.51-1.107-.22c-.966-.194-1.298-.253-1.604-.223a2.25 2.25 0 00-.842.255c-.271.145-.515.378-1.212 1.075L3.157 7.904 5.419 9.52l.559-.558c.12-.121.246-.248.38-.38l.111-.112zm-.724 3.087c.2-.404.566-.803 1.46-1.7L11.03 6.03a.766.766 0 00.017-.017l1.608-1.608c.717-.717.993-.986 1.303-1.176.29-.178.608-.31.94-.39.353-.084.738-.089 1.752-.089h.55c.852 0 1.446 0 1.909.038.453.037.714.107.912.207.423.216.767.56.983.984.1.197.17.458.207.912.038.462.038 1.057.038 1.909v.55c0 1.013-.005 1.398-.09 1.752a3.25 3.25 0 01-.389.94c-.19.31-.459.585-1.175 1.302L14.47 16.47c-1.134 1.134-1.577 1.563-2.027 1.786a3.25 3.25 0 01-2.886 0c-.372-.184-.74-.51-1.495-1.256L9.53 15.53a.75.75 0 10-1.06-1.06L7 15.938c-.747-.756-1.072-1.123-1.256-1.495a3.25 3.25 0 010-2.886zm10.351 9.287L14.48 18.58l3.56-3.56.221 1.107c.194.967.252 1.298.222 1.605a2.25 2.25 0 01-.254.841c-.145.272-.378.515-1.075 1.212l-1.058 1.058zM13.752 9a1.25 1.25 0 112.5 0 1.25 1.25 0 01-2.5 0zm1.25-2.75a2.75 2.75 0 100 5.5 2.75 2.75 0 000-5.5z"/>
</svg>
