<svg xmlns="http://www.w3.org/2000/svg" width="24" height="24" fill="currentColor" viewBox="0 0 24 24">
  <path fill-rule="evenodd" d="M5.611 2.75A2.861 2.861 0 002.75 5.611V6a.75.75 0 01-1.5 0v-.389A4.361 4.361 0 015.611 1.25H6a.75.75 0 010 1.5h-.389zM9.25 2a.75.75 0 01.75-.75h4a.75.75 0 010 1.5h-4A.75.75 0 019.25 2zm8 0a.75.75 0 01.75-.75h.389a4.361 4.361 0 014.361 4.361V6a.75.75 0 01-1.5 0v-.389a2.861 2.861 0 00-2.861-2.861H18a.75.75 0 01-.75-.75zM2 9.25a.75.75 0 01.75.75v4a.75.75 0 01-1.5 0v-4A.75.75 0 012 9.25zm20 0a.75.75 0 01.75.75v4a.75.75 0 01-1.5 0v-4a.75.75 0 01.75-.75zm-20 8a.75.75 0 01.75.75v.389a2.861 2.861 0 002.861 2.861H6a.75.75 0 010 1.5h-.389a4.361 4.361 0 01-4.361-4.361V18a.75.75 0 01.75-.75zm20 0a.75.75 0 01.75.75v.389a4.361 4.361 0 01-4.361 4.361H18a.75.75 0 010-1.5h.389a2.861 2.861 0 002.861-2.861V18a.75.75 0 01.75-.75zM9.25 22a.75.75 0 01.75-.75h4a.75.75 0 010 1.5h-4a.75.75 0 01-.75-.75z"/>
</svg>
