<svg xmlns="http://www.w3.org/2000/svg" width="24" height="24" fill="currentColor" viewBox="0 0 24 24">
  <path fill-rule="evenodd" d="M10 1.25h-.034c-1.371 0-2.447 0-3.311.07-.88.073-1.607.221-2.265.557A5.75 5.75 0 001.877 4.39c-.336.658-.484 1.385-.556 2.265-.071.864-.071 1.94-.071 3.311v4.068c0 1.371 0 2.447.07 3.311.073.88.221 1.607.557 2.265a5.75 5.75 0 002.513 2.513c.658.336 1.385.485 2.265.556.864.071 1.94.071 3.311.071h4.068c1.371 0 2.447 0 3.311-.07.88-.072 1.607-.221 2.265-.557a5.75 5.75 0 002.513-2.513c.336-.658.485-1.385.556-2.265.071-.864.071-1.94.071-3.311V9.966c0-1.371 0-2.447-.07-3.311-.072-.88-.221-1.607-.557-2.265a5.75 5.75 0 00-2.513-2.513c-.658-.336-1.385-.484-2.265-.556-.864-.071-1.94-.071-3.311-.071H10zM5.07 3.213c.412-.21.92-.333 1.707-.397.796-.065 1.81-.066 3.223-.066h4c1.412 0 2.427 0 3.223.066.787.064 1.295.188 1.707.397a4.25 4.25 0 011.857 1.858c.21.411.333.919.397 1.706.065.796.066 1.81.066 3.223v4c0 1.412 0 2.427-.066 3.223-.064.787-.188 1.295-.397 1.707a4.251 4.251 0 01-1.857 1.857c-.412.21-.92.333-1.707.397-.796.065-1.81.066-3.223.066h-4c-1.413 0-2.427 0-3.223-.066-.787-.064-1.295-.188-1.706-.397a4.25 4.25 0 01-1.858-1.857c-.21-.412-.333-.92-.397-1.707-.065-.796-.066-1.81-.066-3.223v-4c0-1.413 0-2.427.066-3.223.064-.787.188-1.295.397-1.706a4.25 4.25 0 011.858-1.858zM12 4.25c-.889 0-1.74.165-2.52.466a.75.75 0 10.54 1.4A5.495 5.495 0 0112 5.75c2.934 0 5.25 2.256 5.25 4.964a.75.75 0 001.5 0c0-3.604-3.057-6.464-6.75-6.464zM7.89 7.626a.75.75 0 00-1.148-.966 6.273 6.273 0 00-1.492 4.054v2.857c0 2.89 1.972 5.306 4.651 6.145a.75.75 0 00.448-1.432c-2.112-.66-3.599-2.539-3.599-4.713v-2.857c0-1.165.423-2.237 1.14-3.088zm10.86 5.945a.75.75 0 00-1.5 0c0 2.174-1.488 4.052-3.599 4.713a.75.75 0 00.448 1.432c2.68-.839 4.651-3.256 4.651-6.145zM12 10.25a.75.75 0 01.75.75v2a.75.75 0 01-1.5 0v-2a.75.75 0 01.75-.75zm0-3c-1.986 0-3.75 1.45-3.75 3.417v2.666a.75.75 0 001.5 0v-2.666c0-.978.922-1.917 2.25-1.917a.75.75 0 000-1.5zm3.227 1.674a.75.75 0 00-1.257.818c.181.278.28.593.28.925v2.666c0 .978-.922 1.917-2.25 1.917-.427 0-.822-.101-1.157-.274a.75.75 0 10-.686 1.334c.548.282 1.178.44 1.843.44 1.986 0 3.75-1.45 3.75-3.417v-2.666c0-.64-.193-1.236-.523-1.743z"/>
</svg>
