<svg xmlns="http://www.w3.org/2000/svg" width="24" height="24" fill="currentColor" viewBox="0 0 24 24">
  <path fill-rule="evenodd" d="M5.074 1.25h13.852c.472 0 .878 0 1.197.03.318.028.692.095 1.003.335.411.317.66.8.68 1.32.014.393-.15.736-.31 1.011-.162.277-.398.607-.672.991l-.02.029-3.188 4.462a.548.548 0 01-.01.015L12.75 16.24v5.01H16a.75.75 0 010 1.5H8a.75.75 0 010-1.5h3.25v-5.01L6.395 9.443a.754.754 0 01-.011-.015L3.197 4.966l-.02-.029c-.275-.384-.51-.714-.673-.99-.16-.276-.324-.62-.31-1.012a1.75 1.75 0 01.68-1.32c.311-.24.685-.307 1.003-.336.32-.029.725-.029 1.197-.029zm3.383 8.5L12 14.71l3.543-4.96H8.457zm8.157-1.5H7.386L4.417 4.094c-.3-.42-.495-.695-.618-.905a1.085 1.085 0 01-.105-.214.25.25 0 01.084-.163c.018-.006.083-.025.235-.04.243-.021.579-.022 1.096-.022h13.782c.517 0 .853 0 1.096.023.152.014.217.033.235.04a.25.25 0 01.083.162 1.08 1.08 0 01-.104.214c-.123.21-.318.484-.618.905L16.614 8.25z"/>
</svg>
