<svg xmlns="http://www.w3.org/2000/svg" width="24" height="24" fill="currentColor" viewBox="0 0 24 24">
  <path fill-rule="evenodd" d="M7 1.25h-.116c-.818 0-1.376 0-1.855.128a3.75 3.75 0 00-2.651 2.651c-.128.48-.128 1.037-.128 1.855v.232c0 .818 0 1.376.128 1.855a3.75 3.75 0 002.651 2.651c.48.129 1.037.128 1.855.128h10.232c.818 0 1.376 0 1.855-.128a3.75 3.75 0 002.651-2.651c.128-.479.128-1.037.128-1.855v-.232c0-.818 0-1.376-.128-1.855a3.75 3.75 0 00-2.651-2.651c-.48-.128-1.037-.128-1.855-.128H7zM5.418 2.827c.262-.07.604-.077 1.582-.077h10c.978 0 1.32.006 1.582.077a2.25 2.25 0 011.591 1.59c.07.263.077.605.077 1.583s-.006 1.32-.077 1.582a2.25 2.25 0 01-1.59 1.591c-.263.07-.605.077-1.583.077H7c-.978 0-1.32-.006-1.582-.077a2.25 2.25 0 01-1.591-1.59C3.757 7.32 3.75 6.977 3.75 6s.006-1.32.077-1.582a2.25 2.25 0 011.59-1.591zM7 12.25h-.116c-.818 0-1.376 0-1.855.128a3.75 3.75 0 00-2.651 2.652c-.128.478-.128 1.036-.128 1.854v.232c0 .818 0 1.376.128 1.855a3.75 3.75 0 002.651 2.651c.48.128 1.037.128 1.855.128h10.232c.818 0 1.376 0 1.855-.128a3.75 3.75 0 002.651-2.651c.128-.479.128-1.037.128-1.855v-.232c0-.818 0-1.376-.128-1.854a3.75 3.75 0 00-2.651-2.652c-.48-.128-1.037-.128-1.855-.128H7zm-1.582 1.577c.262-.07.604-.077 1.582-.077h10c.978 0 1.32.007 1.582.077a2.25 2.25 0 011.591 1.59c.07.263.077.605.077 1.583s-.006 1.32-.077 1.582a2.25 2.25 0 01-1.59 1.591c-.263.07-.605.077-1.583.077H7c-.978 0-1.32-.006-1.582-.077a2.25 2.25 0 01-1.591-1.59c-.07-.263-.077-.605-.077-1.583s.006-1.32.077-1.582a2.25 2.25 0 011.59-1.591zM18 6a1 1 0 11-2 0 1 1 0 012 0zm-1 12a1 1 0 100-2 1 1 0 000 2z"/>
</svg>
