<svg xmlns="http://www.w3.org/2000/svg" width="24" height="24" fill="currentColor" viewBox="0 0 24 24">
  <path fill-rule="evenodd" d="M9.374 3.348l-.034-.016C7.87 2.597 6.725 2.024 5.852 1.67a6.83 6.83 0 00-1.211-.388c-.361-.071-.743-.09-1.106.027a2.75 2.75 0 00-1.837 2.006c-.084.372-.032.75.071 1.103.103.357.275.748.493 1.172.43.84 1.1 1.93 1.962 3.33l.02.032 1.085 1.764c.403.655.503.836.542 1.01.04.18.04.367 0 .548-.039.174-.139.355-.542 1.01l-1.086 1.764-.02.032c-.86 1.4-1.531 2.49-1.961 3.33-.218.424-.39.815-.493 1.172-.103.353-.155.732-.07 1.103a2.75 2.75 0 001.836 2.006c.363.117.745.098 1.106.027a6.826 6.826 0 001.21-.388c.874-.354 2.02-.927 3.49-1.662l.033-.017 10.237-5.118.035-.017c.892-.446 1.608-.804 2.134-1.13.524-.325.988-.691 1.233-1.208a2.75 2.75 0 000-2.356c-.245-.517-.709-.883-1.233-1.207-.526-.327-1.242-.685-2.134-1.13l-.035-.018L9.374 3.348zm-5.378-.612c.026-.008.123-.028.355.018.229.045.532.142.937.306.812.33 1.904.875 3.415 1.63L18.94 9.81c.935.467 1.589.795 2.05 1.08.472.293.617.468.667.575.161.34.161.733 0 1.072-.05.107-.195.282-.667.574-.461.286-1.115.614-2.05 1.081L8.703 19.31c-1.51.755-2.603 1.3-3.415 1.63a5.409 5.409 0 01-.937.306c-.232.046-.33.026-.355.018a1.25 1.25 0 01-.835-.912c-.006-.026-.017-.125.049-.353.065-.223.188-.517.387-.906.4-.78 1.039-1.82 1.924-3.258l1.086-1.765.056-.092c.285-.46.514-.834.633-1.228H11a.75.75 0 000-1.5H7.296c-.119-.394-.348-.767-.633-1.228l-.056-.092L5.52 8.166c-.885-1.439-1.525-2.479-1.924-3.26a5.405 5.405 0 01-.387-.905c-.066-.228-.055-.327-.049-.353a1.25 1.25 0 01.835-.912z"/>
</svg>
