<svg xmlns="http://www.w3.org/2000/svg" width="24" height="24" fill="currentColor" viewBox="0 0 24 24">
  <path fill-rule="evenodd" d="M6.75 8.519c0-1.99.682-3.419 1.646-4.35C9.369 3.23 10.677 2.75 12 2.75c1.322 0 2.63.479 3.604 1.42.964.93 1.646 2.359 1.646 4.349 0 3.049-2.031 5.645-3.736 7.27a2.16 2.16 0 0 1-3.028 0C8.782 14.165 6.75 11.569 6.75 8.52Zm12 0c0-2.356-.818-4.187-2.104-5.429C15.369 1.857 13.677 1.25 12 1.25c-1.678 0-3.37.607-4.646 1.84C6.068 4.332 5.25 6.163 5.25 8.52c0 3.69 2.424 6.66 4.2 8.356a3.659 3.659 0 0 0 5.1 0c1.777-1.695 4.2-4.666 4.2-8.356ZM12 6.75a1.25 1.25 0 1 0 0 2.5 1.25 1.25 0 0 0 0-2.5ZM9.25 8a2.75 2.75 0 1 1 5.5 0 2.75 2.75 0 0 1-5.5 0Zm-3.562 7.547a.75.75 0 0 1-.39.987c-.577.251-.988.516-1.243.765-.254.247-.305.427-.305.537 0 .125.07.35.437.655.361.3.93.605 1.698.875 1.53.537 3.691.884 6.115.884 2.424 0 4.586-.347 6.115-.884.768-.27 1.337-.575 1.698-.875.366-.305.437-.53.437-.655 0-.11-.051-.29-.305-.537-.255-.25-.666-.514-1.244-.765a.75.75 0 1 1 .598-1.375c.673.292 1.262.645 1.694 1.066.434.423.757.966.757 1.61 0 .749-.433 1.356-.978 1.809-.549.457-1.299.834-2.16 1.137-1.727.607-4.065.969-6.612.969-2.547 0-4.885-.362-6.613-.97-.86-.302-1.61-.68-2.16-1.136-.544-.453-.977-1.06-.977-1.808 0-.645.323-1.188.757-1.61.432-.422 1.021-.775 1.694-1.067a.75.75 0 0 1 .987.388Z" clip-rule="evenodd"/>
</svg>
