<svg xmlns="http://www.w3.org/2000/svg" width="24" height="24" fill="currentColor" viewBox="0 0 24 24">
  <path fill-rule="evenodd" d="M15.901 1.25h2.727c.395 0 .736 0 1.017.023a2.3 2.3 0 0 1 .875.222c.424.216.768.56.983.984.145.283.198.578.223.875.023.28.023.622.023 1.017v2.726c0 .652 0 1.103-.104 1.536a3.748 3.748 0 0 1-.449 1.084c-.233.38-.552.698-1.013 1.159l-.06.06-3.145 3.145c.308.432.563.798.76 1.122.248.41.432.8.52 1.233.14.694.08 1.413-.172 2.074-.157.413-.402.766-.715 1.13-.302.352-.702.752-1.196 1.246l-.02.02-.624.624a.75.75 0 0 1-1.141-.094l-1.998-2.798a6.448 6.448 0 0 1-.093.08c-.29.247-.59.452-.95.569a2.75 2.75 0 0 1-1.7 0c-.36-.117-.66-.322-.95-.568a17.812 17.812 0 0 1-.972-.93l-.021-.021-2.475-2.475-.021-.021a17.826 17.826 0 0 1-.93-.972c-.247-.29-.451-.59-.568-.95a2.75 2.75 0 0 1 0-1.7c.117-.36.321-.66.568-.95l.08-.092L1.564 8.61a.75.75 0 0 1-.094-1.14l.624-.624.02-.021c.494-.493.894-.893 1.246-1.196.364-.313.717-.558 1.13-.715a3.75 3.75 0 0 1 2.074-.171c.433.087.822.27 1.233.52.323.196.689.45 1.12.758l3.145-3.145.06-.06c.461-.462.78-.78 1.16-1.013a3.75 3.75 0 0 1 1.084-.45c.433-.103.884-.103 1.535-.103Zm-.433 12.22 3.594-3.594c.544-.545.727-.734.855-.943.123-.201.214-.42.27-.65.057-.24.062-.502.062-1.271V4.4c0-.432 0-.712-.018-.924-.017-.204-.045-.28-.064-.316a.75.75 0 0 0-.328-.328c-.037-.02-.112-.047-.316-.064a12.749 12.749 0 0 0-.924-.018h-2.612c-.77 0-1.032.005-1.271.062a2.25 2.25 0 0 0-.65.27c-.21.128-.399.31-.943.854L8.565 8.494 6.03 11.03a11.567 11.567 0 0 0-.607.64c-.186.22-.253.347-.285.444a1.25 1.25 0 0 0 0 .772c.032.097.1.224.286.443.192.227.463.499.868.903l.707.708 1.47-1.47a.75.75 0 0 1 1.06 1.06L8.06 16l.707.707c.405.405.677.676.903.868.22.187.347.254.443.285.251.082.522.082.773 0 .097-.031.223-.098.443-.285.226-.192.498-.463.903-.868l3.237-3.237ZM5.418 9.52l2.086-2.086.337-.337a14.712 14.712 0 0 0-.822-.552c-.335-.203-.555-.292-.751-.332a2.25 2.25 0 0 0-1.244.103c-.187.071-.39.196-.687.45-.303.262-.663.62-1.18 1.138l2.26 1.616Zm9.678 10.324L13.48 17.58l2.422-2.424c.233.33.413.593.553.824.203.335.293.555.332.751a2.25 2.25 0 0 1-.103 1.245c-.07.186-.196.389-.45.686-.261.303-.62.663-1.138 1.18ZM12.752 9a1.25 1.25 0 1 1 2.5 0 1.25 1.25 0 0 1-2.5 0Zm1.25-2.75a2.75 2.75 0 1 0 0 5.5 2.75 2.75 0 0 0 0-5.5Z" clip-rule="evenodd"/>
</svg>
