<svg xmlns="http://www.w3.org/2000/svg" width="24" height="24" fill="currentColor" viewBox="0 0 24 24">
  <path fill-rule="evenodd" d="M1 1.25a.75.75 0 0 0 0 1.5h.784c.988 0 1.86.644 2.15 1.588l2.698 8.765a3.75 3.75 0 0 0 3.584 2.647h6.552a3.75 3.75 0 0 0 3.592-2.672l1.586-5.288a2.75 2.75 0 0 0-2.634-3.54H5.477l-.109-.353A3.75 3.75 0 0 0 1.784 1.25H1Zm7.065 11.412L5.94 5.75h13.373a1.25 1.25 0 0 1 1.197 1.61l-1.586 5.286a2.25 2.25 0 0 1-2.155 1.604h-6.552a2.25 2.25 0 0 1-2.15-1.588ZM10 18.75a1.25 1.25 0 1 0 0 2.5 1.25 1.25 0 0 0 0-2.5ZM7.25 20a2.75 2.75 0 1 1 5.5 0 2.75 2.75 0 0 1-5.5 0ZM18 18.75a1.25 1.25 0 1 0 0 2.5 1.25 1.25 0 0 0 0-2.5ZM15.25 20a2.75 2.75 0 1 1 5.5 0 2.75 2.75 0 0 1-5.5 0Z" clip-rule="evenodd"/>
</svg>
