<svg xmlns="http://www.w3.org/2000/svg" width="24" height="24" fill="currentColor" viewBox="0 0 24 24">
  <path fill-rule="evenodd" d="M10.25 7a3.75 3.75 0 0 1 7.425-.75H21a.75.75 0 0 1 0 1.5h-3.325A3.751 3.751 0 0 1 10.25 7ZM14 4.75a2.25 2.25 0 1 1 0 4.5 2.25 2.25 0 0 1 0-4.5ZM2 6.25a.75.75 0 0 0 0 1.5h6a.75.75 0 0 0 0-1.5H2Zm0 10a.75.75 0 0 0 0 1.5h3.325A3.751 3.751 0 0 0 12.75 17a3.75 3.75 0 0 0-7.425-.75H2Zm4.75.75a2.25 2.25 0 1 0 4.5 0 2.25 2.25 0 0 0-4.5 0Zm8.25-.75a.75.75 0 0 0 0 1.5h6a.75.75 0 0 0 0-1.5h-6Z" clip-rule="evenodd"/>
</svg>
