<svg xmlns="http://www.w3.org/2000/svg" width="24" height="24" fill="currentColor" viewBox="0 0 24 24">
  <path fill-rule="evenodd" d="M8.444 3.25H8.31c-.743 0-1.324-.001-1.832.208a2.75 2.75 0 0 0-1.127.861c-.336.434-.488.996-.683 1.712l-.035.13-1.254 4.6-.01.033c-.18.659-.327 1.201-.407 1.645-.082.457-.11.9.017 1.334a2.75 2.75 0 0 0 1.2 1.57c.385.237.819.326 1.281.367.45.04 1.012.04 1.695.04h3.552L8.55 19.528c-.82 1.436.216 3.222 1.87 3.222.57 0 1.118-.227 1.522-.63l5.652-5.652.051-.052c.296-.295.53-.528.7-.808.151-.246.262-.514.33-.794.076-.319.076-.648.076-1.067V7.17c0-.535 0-.98-.03-1.345-.031-.38-.098-.736-.27-1.073a2.75 2.75 0 0 0-1.202-1.202c-.337-.172-.694-.24-1.074-.27-.364-.03-.81-.03-1.344-.03H8.444ZM7.05 4.845c.195-.081.45-.095 1.393-.095H14.8c.572 0 .956 0 1.252.025.287.023.425.065.515.111.235.12.427.311.546.547.047.09.089.227.112.515.024.295.025.68.025 1.252v6.475c0 .524-.005.665-.035.788a1.25 1.25 0 0 1-.15.362c-.066.108-.162.21-.533.582l-5.652 5.652a.653.653 0 0 1-1.03-.787l2.801-4.9A.75.75 0 0 0 12 14.25H7.19c-.727 0-1.222 0-1.597-.034-.37-.033-.533-.092-.63-.151a1.25 1.25 0 0 1-.544-.714c-.032-.108-.046-.28.02-.647.066-.37.196-.848.387-1.549l1.254-4.6c.248-.91.329-1.152.458-1.319a1.25 1.25 0 0 1 .513-.391ZM20.25 14a.75.75 0 1 0 1.5 0V4a.75.75 0 0 0-1.5 0v10Z" clip-rule="evenodd"/>
</svg>
