<svg xmlns="http://www.w3.org/2000/svg" width="24" height="24" fill="currentColor" viewBox="0 0 24 24">
  <path d="M21.026 10.58l.738-2.46c.419-1.397.628-2.095.477-2.648a2 2 0 00-.869-1.168C20.886 4 20.157 4 18.7 4H4.692l1.45 6.28c.306 1.328.46 1.992.82 2.488a3 3 0 001.247.991C8.773 14 9.455 14 10.82 14h5.61c1.281 0 1.922 0 2.462-.218a3 3 0 001.219-.907c.364-.455.548-1.068.916-2.296z" opacity=".12"/>
  <path fill-rule="evenodd" d="M1.5 1.75H1a.75.75 0 110-1.5h.5V1 .25h.013a3.75 3.75 0 013.775 3h13.446c.7 0 1.274 0 1.733.041.47.042.912.133 1.303.377a2.75 2.75 0 011.194 1.606c.122.444.082.893-.013 1.356-.092.452-.258 1.002-.458 1.671l-.01.034-.738 2.46-.045.148c-.324 1.083-.548 1.83-1.005 2.401a3.75 3.75 0 01-1.523 1.133c-.678.274-1.458.274-2.589.273H6a1.25 1.25 0 100 2.5h15a.75.75 0 010 1.5h-1.55a2.75 2.75 0 11-4.9 0h-3.1a2.75 2.75 0 11-4.9 0H6a2.75 2.75 0 110-5.5h.386a3.34 3.34 0 01-.03-.04c-.248-.341-.407-.717-.541-1.153-.13-.42-.25-.94-.398-1.582l-.006-.027-1.45-6.28-.13-.563a6.615 6.615 0 00-.042-.18A2.25 2.25 0 001.685 1.75 6.629 6.629 0 001.5 1.75zm12.51 11.5h-3.425c-.57 0-.982-.004-1.316-.028-.368-.027-.589-.077-.765-.152a2.25 2.25 0 01-.936-.744c-.113-.155-.211-.359-.32-.712-.112-.362-.22-.829-.376-1.503L5.635 4.75H18.7c.743 0 1.25 0 1.634.034.38.034.545.095.642.155.266.167.46.427.543.73.03.11.04.286-.036.659-.078.378-.223.864-.436 1.575l-.738 2.46c-.387 1.29-.533 1.729-.784 2.042a2.249 2.249 0 01-.914.68c-.372.15-.834.164-2.181.164h-2.42zM9 18.75a1.25 1.25 0 100 2.5 1.25 1.25 0 000-2.5zm8 0a1.25 1.25 0 100 2.5 1.25 1.25 0 000-2.5z"/>
</svg>
