<svg xmlns="http://www.w3.org/2000/svg" width="24" height="24" fill="currentColor" viewBox="0 0 24 24">
  <circle cx="12" cy="12" r="10" opacity=".12"/>
  <path fill-rule="evenodd" d="M12 2.75a9.25 9.25 0 100 18.5 9.25 9.25 0 000-18.5zM1.25 12C1.25 6.063 6.063 1.25 12 1.25S22.75 6.063 22.75 12 17.937 22.75 12 22.75 1.25 17.937 1.25 12zM13 16a1 1 0 11-2 0 1 1 0 012 0zm-2.25-6a1.25 1.25 0 112.5 0v.121c0 .364-.145.713-.402.97L11.47 12.47a.75.75 0 101.06 1.06l1.379-1.378a2.871 2.871 0 00.841-2.03V10a2.75 2.75 0 10-5.5 0v.5a.75.75 0 001.5 0V10z"/>
</svg>
